<?xml version="1.0" encoding="utf-8"?>
<!-- Generator: Adobe Illustrator 24.1.0, SVG Export Plug-In . SVG Version: 6.00 Build 0)  -->
<svg version="1.1" id="Layer_1" xmlns="http://www.w3.org/2000/svg" xmlns:xlink="http://www.w3.org/1999/xlink" x="0px" y="0px"
	 viewBox="0 0 150 150" style="enable-background:new 0 0 150 150;" xml:space="preserve">
<style type="text/css">
	.st0{fill:#F4F5F7;}
	.st1{clip-path:url(#SVGID_2_);}
	.st2{fill:#D6D6D6;}
</style>
<rect class="st0" width="150" height="150"/>
<g>
	<g>
		<g>
			<g>
				<defs>
					<rect id="SVGID_1_" x="40.7" y="49.1" width="66.3" height="53"/>
				</defs>
				<clipPath id="SVGID_2_">
					<use xlink:href="#SVGID_1_"  style="overflow:visible;"/>
				</clipPath>
				<g class="st1">
					<path class="st2" d="M100.9,49.2H58c-3.3,0-5.9,2.7-5.9,5.9v2.1l-6.9,1.9c-1.5,0.4-2.8,1.4-3.7,2.7c-0.8,1.4-1,3-0.6,4.5
						l8.3,31.1c0.4,1.5,1.4,2.8,2.7,3.7c0.9,0.6,2,0.8,3,0.8c0.5,0,1-0.1,1.6-0.2l27.3-7.3h17.1c3.3,0,5.9-2.7,5.9-5.9V55.2
						C106.9,51.9,104.2,49.2,100.9,49.2L100.9,49.2z M55.9,99.5c-0.9,0.3-1.9,0.1-2.7-0.4c-0.8-0.4-1.5-1.3-1.6-2.2l-8.3-31.1
						c-0.3-0.9-0.1-1.9,0.4-2.7c0.4-0.8,1.3-1.5,2.2-1.6l6.3-1.7v28.9c0,3.3,2.7,5.9,5.9,5.9h16.5L55.9,99.5z M104.5,88.6
						c0,2-1.6,3.6-3.6,3.6h-43c-2,0-3.6-1.6-3.6-3.6V55.2c0-2,1.6-3.6,3.6-3.6h42.9c2,0,3.6,1.6,3.6,3.6v16.9l-5.7-5.7
						c-0.9-0.9-2.3-0.9-3.3-0.1l-0.1,0.1L81.8,80l-0.1-0.1L74.8,73c-0.9-0.9-2.4-0.9-3.3,0l-5.9,5.9c-0.4,0.5-0.4,1.3,0.1,1.6
						c0.4,0.4,1.1,0.4,1.5,0l5.9-5.9l6.9,6.9l0.1,0.1l-4.8,4.8c-0.4,0.4-0.5,1.2-0.1,1.6c0,0,0,0,0.1,0.1c0.4,0.4,1.2,0.5,1.6,0.1
						c0,0,0,0,0.1-0.1L97.1,68l7.1,7.1c0.1,0.1,0.2,0.1,0.3,0.2V88.6z"/>
				</g>
			</g>
		</g>
	</g>
</g>
<path class="st2" d="M62.9,81.7l-1.2,1.2c-0.4,0.4-0.5,1.1-0.1,1.6c0,0,0,0,0.1,0.1c0.4,0.4,1.1,0.5,1.6,0.1c0,0,0,0,0.1-0.1
	l1.2-1.2c0.4-0.5,0.4-1.3-0.1-1.6C63.9,81.4,63.3,81.4,62.9,81.7z"/>
<path class="st2" d="M71.1,62.3c0-3.3-2.7-5.9-5.9-5.9c-3.3,0-5.9,2.7-5.9,5.9c0,3.3,2.7,5.9,5.9,5.9C68.4,68.2,71.1,65.6,71.1,62.3
	z M65.1,65.9c-2,0-3.6-1.6-3.6-3.6s1.6-3.6,3.6-3.6s3.6,1.6,3.6,3.6S67.2,65.9,65.1,65.9z"/>
</svg>
