<svg id="Layer_1" data-name="Layer 1" xmlns="http://www.w3.org/2000/svg" viewBox="0 0 570 542"><g style="opacity:0.5"><g style="opacity:0.5"><g style="opacity:0.5"><g style="opacity:0.5"><g style="opacity:0.5"><path d="M75.39,205.51H50a3.36,3.36,0,0,1-3.31-3.31v-7.88A3.36,3.36,0,0,1,50,191H75.39a3.36,3.36,0,0,1,3.31,3.31v7.88A3.36,3.36,0,0,1,75.39,205.51Z" style="fill:#d8ba9a;opacity:0.5;isolation:isolate"/></g></g></g></g><g style="opacity:0.5"><g style="opacity:0.5"><g style="opacity:0.5"><g style="opacity:0.5"><path d="M109.64,205.51H84.09a3.36,3.36,0,0,1-3.31-3.31v-7.88A3.36,3.36,0,0,1,84.09,191h25.42a3.36,3.36,0,0,1,3.31,3.31v7.88A3.24,3.24,0,0,1,109.64,205.51Z" style="fill:#d8ba9a;opacity:0.5;isolation:isolate"/></g></g></g></g><g style="opacity:0.5"><g style="opacity:0.5"><g style="opacity:0.5"><g style="opacity:0.5"><path d="M92.38,221.54H66.83a3.36,3.36,0,0,1-3.32-3.32v-7.87A3.36,3.36,0,0,1,66.83,207H92.24a3.36,3.36,0,0,1,3.32,3.32v7.87A3.25,3.25,0,0,1,92.38,221.54Z" style="fill:#d8ba9a;opacity:0.5;isolation:isolate"/></g></g></g></g></g><g style="opacity:0.5"><g style="opacity:0.5"><g style="opacity:0.5"><g style="opacity:0.5"><g style="opacity:0.5"><path d="M472.22,30.63H446.81a3.36,3.36,0,0,1-3.32-3.31V19.58a3.36,3.36,0,0,1,3.32-3.31h25.41a3.36,3.36,0,0,1,3.32,3.31v7.87A3.25,3.25,0,0,1,472.22,30.63Z" style="fill:#d8ba9a;opacity:0.5;isolation:isolate"/></g></g></g></g><g style="opacity:0.5"><g style="opacity:0.5"><g style="opacity:0.5"><g style="opacity:0.5"><path d="M506.48,30.63H481.06a3.36,3.36,0,0,1-3.31-3.31V19.58a3.36,3.36,0,0,1,3.31-3.31h25.42a3.36,3.36,0,0,1,3.31,3.31v7.87A3.33,3.33,0,0,1,506.48,30.63Z" style="fill:#d8ba9a;opacity:0.5;isolation:isolate"/></g></g></g></g><g style="opacity:0.5"><g style="opacity:0.5"><g style="opacity:0.5"><g style="opacity:0.5"><path d="M489.21,46.79H463.8a3.36,3.36,0,0,1-3.32-3.31V35.6a3.36,3.36,0,0,1,3.32-3.31h25.41a3.36,3.36,0,0,1,3.32,3.31v7.88A3.36,3.36,0,0,1,489.21,46.79Z" style="fill:#d8ba9a;opacity:0.5;isolation:isolate"/></g></g></g></g></g><g style="opacity:0.5"><g style="opacity:0.5"><g style="opacity:0.5"><path d="M68.07,281.9a10.5,10.5,0,1,1,10.5-10.5A10.5,10.5,0,0,1,68.07,281.9Zm0-19.06a8.57,8.57,0,1,0,8.56,8.56A8.61,8.61,0,0,0,68.07,262.84Z" style="fill:#c1a084;opacity:0.5;isolation:isolate"/></g></g></g><g style="opacity:0.5"><g style="opacity:0.5"><g style="opacity:0.5"><path d="M552.34,132.58a10.5,10.5,0,1,1,10.49-10.5A10.5,10.5,0,0,1,552.34,132.58Zm0-19.07a8.57,8.57,0,1,0,8.56,8.57A8.61,8.61,0,0,0,552.34,113.51Z" style="fill:#c1a084;opacity:0.5;isolation:isolate"/></g></g></g><g style="opacity:0.5"><g style="opacity:0.5"><g style="opacity:0.5"><path d="M53.43,6.87h64.5V140.59H53.43a8.31,8.31,0,0,1-8.29-8.29V15.16A8.31,8.31,0,0,1,53.43,6.87Z" style="fill:#d8ba9a;opacity:0.5;isolation:isolate"/></g></g><g style="opacity:0.5"><g style="opacity:0.5"><path d="M213,6.87H120V140.59h93Z" style="fill:#d8ba9a;opacity:0.5;isolation:isolate"/></g></g><g style="opacity:0.5"><g style="opacity:0.5"><path d="M290.73,15.16V132.3a8.31,8.31,0,0,1-8.29,8.29H215V6.87h67.41A8.31,8.31,0,0,1,290.73,15.16Z" style="fill:#d8ba9a;opacity:0.5;isolation:isolate"/></g></g></g><g style="opacity:0.20000000298023224"><g style="opacity:0.20000000298023224"><path d="M130.51,28.65l-2.14,24.91,23.53,2L154,30.68Z" style="fill:#c1a084;opacity:0.20000000298023224;isolation:isolate"/></g></g><path d="M129.29,27.91l-2,23.53,23.53,2,2-23.53Z" style="fill:#fee8c8"/><g style="opacity:0.5"><g style="opacity:0.5"><path d="M143.68,23.37l-4-.35L139,31l4,.34Z" style="fill:#fee8c8;opacity:0.5;isolation:isolate"/></g></g><g style="opacity:0.20000000298023224"><g style="opacity:0.20000000298023224"><path d="M201.62,71.79l-23.53,2,2.15,24.91,23.53-2Z" style="fill:#c1a084;opacity:0.20000000298023224;isolation:isolate"/></g></g><path d="M202.79,71.11l-23.53,2,2,23.53,23.53-2Z" style="fill:#fee8c8"/><path d="M189.24,74.49l4-.35-.69-8-4,.35Z" style="fill:#fee8c8"/><g style="opacity:0.20000000298023224"><g style="opacity:0.20000000298023224"><path d="M65,97.39,62.87,122.3l23.53,2,2.14-24.91Z" style="fill:#c1a084;opacity:0.20000000298023224;isolation:isolate"/></g></g><path d="M63.79,96.65l-2,23.53,23.54,2,2-23.53Z" style="fill:#fee8c8"/><g style="opacity:0.5"><g style="opacity:0.5"><path d="M78.07,92.15l-4-.34-.68,8,4,.34Z" style="fill:#fee8c8;opacity:0.5;isolation:isolate"/></g></g><g style="opacity:0.20000000298023224"><g style="opacity:0.20000000298023224"><path d="M253.67,25.45l-2.14,24.91,23.53,2,2.14-24.91Z" style="fill:#c1a084;opacity:0.20000000298023224;isolation:isolate"/></g></g><path d="M252.45,24.71l-2,23.53,23.53,2,2-23.54Z" style="fill:#fee8c8"/><path d="M266.75,20.18l-4-.34-.68,8,4,.34Z" style="fill:#fee8c8"/><path d="M104.4,22.21h-43a1.39,1.39,0,0,1,0-2.77h43a1.39,1.39,0,0,1,1.38,1.38A1.31,1.31,0,0,1,104.4,22.21Z" style="fill:#d8ba9a"/><path d="M104.4,30.08h-43a1.38,1.38,0,1,1,0-2.76h43a1.38,1.38,0,0,1,0,2.76Z" style="fill:#d8ba9a"/><path d="M104.4,37.81h-43a1.38,1.38,0,1,1,0-2.76h43a1.38,1.38,0,0,1,1.38,1.38A1.31,1.31,0,0,1,104.4,37.81Z" style="fill:#d8ba9a"/><path d="M104.4,45.69h-43a1.38,1.38,0,1,1,0-2.76h43a1.38,1.38,0,0,1,0,2.76Z" style="fill:#d8ba9a"/><path d="M104.4,53.42h-43a1.38,1.38,0,1,1,0-2.76h43A1.38,1.38,0,0,1,105.78,52,1.31,1.31,0,0,1,104.4,53.42Z" style="fill:#d8ba9a"/><path d="M104.4,61.3h-43a1.38,1.38,0,0,1,0-2.76h43a1.38,1.38,0,0,1,0,2.76Z" style="fill:#d8ba9a"/><path d="M274.43,77.05h-43a1.39,1.39,0,0,1,0-2.77h43a1.39,1.39,0,0,1,1.38,1.38A1.49,1.49,0,0,1,274.43,77.05Z" style="fill:#d8ba9a"/><path d="M274.43,84.92h-43a1.38,1.38,0,1,1,0-2.76h43a1.38,1.38,0,0,1,1.38,1.38A1.61,1.61,0,0,1,274.43,84.92Z" style="fill:#d8ba9a"/><path d="M274.43,92.65h-43a1.38,1.38,0,1,1,0-2.76h43a1.38,1.38,0,0,1,1.38,1.38A1.48,1.48,0,0,1,274.43,92.65Z" style="fill:#d8ba9a"/><path d="M274.43,100.53h-43a1.38,1.38,0,1,1,0-2.76h43a1.38,1.38,0,0,1,1.38,1.38A1.61,1.61,0,0,1,274.43,100.53Z" style="fill:#d8ba9a"/><path d="M274.43,108.26h-43a1.38,1.38,0,1,1,0-2.76h43a1.38,1.38,0,0,1,1.38,1.38A1.48,1.48,0,0,1,274.43,108.26Z" style="fill:#d8ba9a"/><path d="M274.43,116.14h-43a1.38,1.38,0,0,1,0-2.76h43a1.38,1.38,0,0,1,1.38,1.38A1.61,1.61,0,0,1,274.43,116.14Z" style="fill:#d8ba9a"/><g style="opacity:0.5"><path d="M354.26,78.15a33.29,33.29,0,1,1,33.29-33.29A33.3,33.3,0,0,1,354.26,78.15Z" style="fill:#d8ba9a;opacity:0.5;isolation:isolate"/></g><path d="M380,50.44A26.38,26.38,0,1,0,348.6,70.66,26.38,26.38,0,0,0,380,50.44Z" style="fill:#fee8c8"/><path d="M354.26,25.38a.63.63,0,0,1-.69-.55V21.1a.56.56,0,0,1,1.11,0v3.73C354.82,25.11,354.54,25.38,354.26,25.38Z" style="fill:#d8ba9a"/><path d="M340.45,31.05c-.28.27-.69.27-.83,0L337,28.42a.52.52,0,0,1,0-.83.53.53,0,0,1,.83,0l2.62,2.63C340.73,30.49,340.73,30.91,340.45,31.05Z" style="fill:#d8ba9a"/><path d="M334.65,44.86a.64.64,0,0,1-.55.69h-3.73a.59.59,0,0,1-.55-.55.58.58,0,0,1,.55-.55h3.73C334.51,44.31,334.65,44.58,334.65,44.86Z" style="fill:#d8ba9a"/><path d="M340.45,58.67c.28.28.28.69,0,.83l-2.62,2.63a.53.53,0,0,1-.83,0,.52.52,0,0,1,0-.83l2.62-2.63C339.76,58.4,340.17,58.4,340.45,58.67Z" style="fill:#d8ba9a"/><path d="M354.13,64.48a.63.63,0,0,1,.69.55v3.73a.56.56,0,0,1-1.11,0V65C353.57,64.61,353.85,64.48,354.13,64.48Z" style="fill:#d8ba9a"/><path d="M367.94,58.67a.52.52,0,0,1,.83,0l2.62,2.63a.52.52,0,0,1,0,.83.53.53,0,0,1-.83,0l-2.62-2.63A.86.86,0,0,1,367.94,58.67Z" style="fill:#d8ba9a"/><path d="M373.74,45a.63.63,0,0,1,.55-.69H378a.55.55,0,1,1,0,1.1h-3.73C374,45.55,373.74,45.27,373.74,45Z" style="fill:#d8ba9a"/><path d="M368.08,31.18c-.28-.27-.28-.69,0-.82l2.62-2.63a.59.59,0,1,1,.83.83l-2.62,2.62A.86.86,0,0,1,368.08,31.18Z" style="fill:#d8ba9a"/><path d="M368.08,45.27l-.14.14-13.54-.14a.28.28,0,0,1-.27-.27V29.94a.29.29,0,0,1,.27-.28.3.3,0,0,1,.28.28V44.72l13.26.14a.29.29,0,0,1,.27.28A.13.13,0,0,1,368.08,45.27Z" style="fill:#d8ba9a"/><path d="M149.29,521.7s-11.74-18-6.08-22.1,10.5,18.24,10.5,18.24,3.31-11.74,9.53-9.4c7.32,2.77-3.73,13.26-3.73,13.26Z" style="fill:#d8ba9a"/><path d="M304.4,521.7s11.74-18,6.08-22.1S300,517.84,300,517.84s-3.31-11.74-9.53-9.4c-7.32,2.77,3.73,13.26,3.73,13.26Z" style="fill:#d8ba9a"/><path d="M286.31,541.87c155.47,0,281.5-5.13,281.5-11.46s-126-11.47-281.5-11.47S4.81,524.07,4.81,530.41,130.84,541.87,286.31,541.87Z" style="fill:#d8ba9a"/><path d="M246.8,461.89c7.32,22.79-26.79,34.4-34.8,11.88a21.57,21.57,0,0,1-1.25-4.28,67.34,67.34,0,0,1-1-26,12.09,12.09,0,0,1,20.3-6.91,64.57,64.57,0,0,1,15.19,21.14C245.84,459.13,246.39,460.65,246.8,461.89Z" style="fill:#d6b898;opacity:0.5;isolation:isolate"/><path d="M216.14,483c13.54,10.77-2.35,31.63-16.3,21.27-.83-.55-1.66-1.38-2.49-2.07a47.39,47.39,0,0,1-10.91-15.34A8.88,8.88,0,0,1,196,474.46a46.23,46.23,0,0,1,17.55,6.63C214.48,481.78,215.31,482.47,216.14,483Z" style="fill:#d6b898;opacity:0.5;isolation:isolate"/><path d="M199.7,486.07A53.72,53.72,0,0,1,226,520.46c.14.55-.83.83-1,.28a52.34,52.34,0,0,0-25.69-33.85A.46.46,0,1,1,199.7,486.07Z" style="fill:#d6b898"/><path d="M225.26,453.74a380.79,380.79,0,0,1,16,66.86c.14.55-.83.83-1,.28a385.5,385.5,0,0,0-16-66.86C224.15,453.47,225.12,453.19,225.26,453.74Z" style="fill:#d6b898"/><path d="M456.06,464.38c-7.32,22.79,26.8,34.39,34.81,11.88a22.26,22.26,0,0,0,1.25-4.28,67.34,67.34,0,0,0,1-26,12.09,12.09,0,0,0-20.3-6.91,64.68,64.68,0,0,0-15.2,21.13C457,461.62,456.48,463,456.06,464.38Z" style="fill:#d6b898;opacity:0.5;isolation:isolate"/><path d="M486.73,485.51c-13.54,10.78,2.35,31.64,16.3,21.28.83-.56,1.65-1.39,2.48-2.08a47.15,47.15,0,0,0,10.92-15.33A8.88,8.88,0,0,0,506.89,477a46.25,46.25,0,0,0-17.54,6.63A18.63,18.63,0,0,0,486.73,485.51Z" style="fill:#d6b898;opacity:0.5;isolation:isolate"/><path d="M503.16,488.41a53.75,53.75,0,0,0-26.24,34.4c-.14.55.83.83,1,.28a52.31,52.31,0,0,1,25.69-33.85A.47.47,0,0,0,503.16,488.41Z" style="fill:#d6b898"/><path d="M477.61,456.09a379.91,379.91,0,0,0-16,66.86c-.14.55.83.83,1,.27a385.61,385.61,0,0,1,16-66.85C478.72,455.81,477.75,455.54,477.61,456.09Z" style="fill:#d6b898"/><path d="M515.74,70c.41.69.69,1.52,1.1,2.21,1.93,4.14,3.73,8.43,5.53,12.57,1.79,3.87,3.72,7.74,5.66,11.6a87.15,87.15,0,0,1-27.21,10c-16.58-1.38-30.53-12.57-30.53-12.57-1.24-2.35-1-5.11,0-8C482.86,92.52,503.58,77.87,515.74,70Z" style="fill:#fff"/><path d="M501,106.33s-8.43-8.84-6.5-18.65c0,0-15.88,8-24,6.08C470.43,93.76,484.38,105,501,106.33Z" style="fill:#d8ba9a"/><path d="M149.56,166.7c-.41.69-.69,1.52-1.1,2.21-1.94,4.14-3.73,8.42-5.53,12.57-1.79,3.86-3.73,7.73-5.66,11.6A87.15,87.15,0,0,0,164.48,203c16.58-1.39,30.53-12.57,30.53-12.57,1.24-2.35,1-5.12,0-8C182.44,189.21,161.72,174.57,149.56,166.7Z" style="fill:#fff"/><path d="M164.34,203s8.43-8.85,6.49-18.65c0,0,15.89,8,24,6.08C195,190.46,180.92,201.78,164.34,203Z" style="fill:#d8ba9a"/><path d="M394.32,358.7h-9V508.86h9Z" style="fill:#2b2b39"/><path d="M349.84,506.92h-8.42c0-16.71,8.42-30.25,24.45-39.23a72.52,72.52,0,0,1,23.62-8.42l1.24,8.29-.69-4.15.69,4.15a67.21,67.21,0,0,0-21,7.59C356.47,482.61,349.84,493.39,349.84,506.92Z" style="fill:#2b2b39"/><path d="M438.8,506.92h-8.43c0-13.53-6.63-24.17-19.89-31.77a67.2,67.2,0,0,0-21-7.59l1.24-8.29a75.47,75.47,0,0,1,23.62,8.42C430.37,476.67,438.8,490.21,438.8,506.92Z" style="fill:#2b2b39"/><path d="M396.67,431.78H383a1.53,1.53,0,0,1-1.51-1.52V372.52h16.71v57.74A1.53,1.53,0,0,1,396.67,431.78Z" style="fill:#2b2b39"/><path d="M385.62,432.19c2.76,0,5.66,0,8.43.14a.42.42,0,0,0,0-.83c-2.77,0-5.67,0-8.43-.14A.42.42,0,0,0,385.62,432.19Z" style="fill:#5f5f75"/><path d="M355.92,516.87a11.46,11.46,0,1,1-11.46-11.47A11.44,11.44,0,0,1,355.92,516.87Z" style="fill:#2b2b39"/><path d="M344.6,523.36a6.49,6.49,0,1,1,6.49-6.49A6.48,6.48,0,0,1,344.6,523.36Z" style="fill:#5f5f75"/><path d="M401.37,516.87A11.47,11.47,0,1,1,389.9,505.4,11.44,11.44,0,0,1,401.37,516.87Z" style="fill:#2b2b39"/><path d="M389.9,523.36a6.49,6.49,0,1,1,6.49-6.49A6.4,6.4,0,0,1,389.9,523.36Z" style="fill:#5f5f75"/><path d="M447,516.87a11.47,11.47,0,1,1-11.47-11.47A11.44,11.44,0,0,1,447,516.87Z" style="fill:#2b2b39"/><path d="M435.48,523.36a6.49,6.49,0,1,1,6.5-6.49A6.48,6.48,0,0,1,435.48,523.36Z" style="fill:#5f5f75"/><path d="M530.93,163.38,482.45,365.2a14.37,14.37,0,0,1-14.09,11.05H354.68a14.54,14.54,0,0,1-14.09-18l49.59-201.68a14.61,14.61,0,0,1,14.09-11.05H516.84A14.42,14.42,0,0,1,530.93,163.38Z" style="fill:#396c61"/><path d="M518.36,163.38,469.88,365.2a14.37,14.37,0,0,1-14.09,11.05H342.11a14.54,14.54,0,0,1-14.09-18l49.59-201.82a14.61,14.61,0,0,1,14.09-11.05H504.27A14.59,14.59,0,0,1,518.36,163.38Z" style="fill:#467b6c"/><path d="M455.79,366.44H342.11a4.44,4.44,0,0,1-3.59-1.8,4.31,4.31,0,0,1-.83-4l49.59-201.82a4.55,4.55,0,0,1,4.42-3.45H504.27a4.46,4.46,0,0,1,3.59,1.79,4.16,4.16,0,0,1,.83,3.87L460.21,362.85A4.33,4.33,0,0,1,455.79,366.44ZM391.7,156.61a3.54,3.54,0,0,0-3.32,2.63L338.79,361.05a3.55,3.55,0,0,0,.69,2.9,3.18,3.18,0,0,0,2.63,1.25H455.79a3.52,3.52,0,0,0,3.31-2.63l48.48-201.81a3.46,3.46,0,0,0-.69-2.9,3.57,3.57,0,0,0-2.62-1.25Z" style="fill:#396c61"/><path d="M274.29,382.33h191a16.26,16.26,0,0,0,15.88-12.71l2.63-11.05h-204Z" style="fill:#396c61"/><path d="M276.92,382.33H453a16.26,16.26,0,0,0,15.88-12.71l2.62-11.05H276.92a11.68,11.68,0,0,0-11.47,9.11A11.82,11.82,0,0,0,276.92,382.33Z" style="fill:#467b6c"/><path d="M346,296.54s-14,14.23-14.23,32.74c-.41,26.8,65.33,45.45,107.05,12,23.62-18.93,17.82-24,17.82-24l-5-21.68Z" style="fill:#6059c9"/><path d="M361.86,217.39s-29.14,19.2-48.76,9.81c-8.42-4.14-10.22-16.85-19.06-38.4s-17-35.92,5-38.54c15.6-1.8,24.17,27.76,24.17,27.76,5,1.38,9.67,2.77,34.25-10.08C377.47,157.44,361.86,217.39,361.86,217.39Z" style="fill:#2b2b39"/><path d="M306.06,163.1a1.66,1.66,0,1,1-1.66-1.65A1.77,1.77,0,0,1,306.06,163.1Z" style="fill:#5f5f75"/><path d="M286.58,169.32c5.53,2.21,12.16,3.18,17.82.55,4.56-2.21,8-6.9,7.74-12.15,0-.56-1-.56-.83,0,.27,5.11-3.32,9.67-7.88,11.6-5.24,2.21-11.32,1.24-16.57-.83C286.31,168.22,286,169,286.58,169.32Z" style="fill:#5f5f75"/><path d="M293.77,161a54.38,54.38,0,0,0,4.69,9.95c.28.41,1.11,0,.83-.42a52,52,0,0,1-4.69-9.67A.42.42,0,1,0,293.77,161Z" style="fill:#5f5f75"/><path d="M322.91,178.3c3.73,8.7,7.73,17.4,11.88,26,.27.55,1,0,.83-.42-4.15-8.56-8.15-17.12-11.88-26C323.46,177.33,322.77,177.75,322.91,178.3Z" style="fill:#5f5f75"/><path d="M332.72,198.33a22,22,0,0,1,5.66,2.9c.42.28,1-.41.42-.83a21.73,21.73,0,0,0-5.94-2.9C332.3,197.22,332.17,198.19,332.72,198.33Z" style="fill:#5f5f75"/><path d="M294.46,139.34l8.42,13.4c-.27,4.56-2.9,10.64-14.5,8.43l-4-12.16Z" style="fill:#ed681d"/><path d="M281.2,131.61c2.21-.28-1.11-3.87-3.18-5.94-2.62-2.63-1.93-5.53,2.76-3.32,6.08,2.77,7.6,4.15,11.19,8A9.74,9.74,0,0,1,294,134.1a13.22,13.22,0,0,1-1.1,10.22,33,33,0,0,1-3,4.56c-3.18,4.28-11.19,2.21-15.75,2.34a20.74,20.74,0,0,1-13-4.42c-3.59-2.76-8.57-5.8-6.49-7.32s8.28,5.25,8.84,4.29-13.54-8.71-13.13-10.64,3-1.11,3-1.11-2.21-1.65-.83-3.17,5.39,0,5.39,0l8.84,3.45s-4.56-5.11-3-7.74,9-3,10.78-2.62,2.07,1.8-.42,3.18-4.83,1.38-4.28,3.45a5.39,5.39,0,0,0,5.25,3.73C277.61,131.89,281.2,131.61,281.2,131.61Z" style="fill:#ed681d"/><path d="M253.57,131.47c4.7,1.8,9.25,3.73,13.81,5.8.56.28-.14,1.11-.55.83-4.42-2.07-9-4-13.54-5.8C252.6,132.16,253,131.19,253.57,131.47Z" style="fill:#b6461d"/><path d="M265.17,141.55a27.24,27.24,0,0,1,5.67-10.77c.41-.55,1.24,0,.83.41a27.15,27.15,0,0,0-5.39,10.23C266,142.11,265,142.11,265.17,141.55Z" style="fill:#b6461d"/><path d="M272.91,136.58c6.08-.83,11.33,1.66,13.54,6.63.27.56-.69,1-1,.42-2.07-4.56-6.91-7-12.57-6.22C272.36,137.55,272.22,136.58,272.91,136.58Z" style="fill:#b6461d"/><path d="M341.28,302.62c4.84,8.15,13.4,13.26,22.38,16.16,10.22,3.32,21.13,4.56,31.91,4.84A216.3,216.3,0,0,0,426.78,322,154.73,154.73,0,0,0,453,316.85a9.92,9.92,0,0,0,1.1-.42c.28-.13.42-.13.69-.27,2.9-1,.55-.83,3.32-2.21-2.08-19.75-7.32-58.43-2.08-70.31v-.14a31,31,0,0,1,.28-3.59c1.11-12.57,3.87-22,5.94-30.39,2.21-9.26,3.59-17.13.55-26.25a26.78,26.78,0,0,0-3.17-6.9C452.89,166,441,166.7,428.44,162.69a46.44,46.44,0,0,1-11.05-5.11,8.67,8.67,0,0,1-1.11-.69c-5.94-3.59-10.91-4.7-15-4.56a18.84,18.84,0,0,0-9.12,2.49,10.52,10.52,0,0,0-3.45,2.76s-2.9.69-7.05,1.79c-7.59,1.94-19.33,5.39-24.17,9-5.52,4-6.49,24.18-6.63,43.93-.14,7.05,1,32.46,1,38.68Z" style="fill:#2b2b39"/><path d="M412.83,267.26a23.91,23.91,0,0,0,22.24,21,.42.42,0,0,0,0-.83,23,23,0,0,1-21.41-20C413.66,266.71,412.69,266.71,412.83,267.26Z" style="fill:#5f5f75"/><path d="M363.38,262a27.41,27.41,0,0,1-15.19,21.55c-.55.27,0,1,.41.69a28.89,28.89,0,0,0,15.61-22.38C364.35,261.46,363.52,261.46,363.38,262Z" style="fill:#5f5f75"/><path d="M391.15,256.35a1.78,1.78,0,0,1-1.39-.56l-.27-.27a.49.49,0,0,0-.14-.28c0-.14-.14-.28-.14-.41v-.42a1.78,1.78,0,0,1,.55-1.38,2,2,0,0,1,2.77,0,1.78,1.78,0,0,1,.55,1.38v.42a.5.5,0,0,1-.14.41.49.49,0,0,1-.14.28c-.14.14-.13.14-.27.27l-.28.28a.43.43,0,0,1-.28.14c-.13,0-.27.14-.41.14Z" style="fill:#5f5f75"/><path d="M386.73,307.18a1.87,1.87,0,1,1,1.93-1.8,1.71,1.71,0,0,1-1.93,1.8C386.86,307.32,386.73,307.32,386.73,307.18Zm.69-12.71a1.94,1.94,0,1,1,2.07-1.79,2,2,0,0,1-2.07,1.79Zm1-12.71a1.94,1.94,0,1,1,2.08-1.79,2.07,2.07,0,0,1-1.94,1.79Zm1.11-12.71a1.84,1.84,0,0,1-1.66-2.07,1.88,1.88,0,1,1,3.73.42,2.07,2.07,0,0,1-1.93,1.79C389.63,269.05,389.63,269.05,389.49,269.05Z" style="fill:#5f5f75"/><path d="M386.59,320h-.42a.49.49,0,0,1-.41-.14.49.49,0,0,1-.28-.14l-.27-.28-.28-.27a.43.43,0,0,1-.14-.28c0-.14-.14-.27-.14-.41v-.83a.51.51,0,0,1,.14-.42.49.49,0,0,1,.14-.27c0-.14.14-.14.28-.28l.27-.28a.45.45,0,0,1,.28-.13c.14,0,.27-.14.41-.14h.69a.51.51,0,0,1,.42.14.46.46,0,0,1,.27.13l.28.28.28.28a.46.46,0,0,0,.13.27c0,.14.14.28.14.42v.83a.49.49,0,0,1-.14.41.5.5,0,0,1-.13.28l-.28.27A1.75,1.75,0,0,1,386.59,320Z" style="fill:#5f5f75"/><path d="M391.15,250c6.35-33.57,14.08-64.23,23.48-91.86-.28.69,8.84,1.8,17.26,5.8l-7,23.35-10.22,7,6.63,2.77-11.05,34.25Z" style="fill:#5f5f75"/><path d="M371.53,162.41l3.18,32.33,8.7,2.48-8,9.54,2.21,19.06,13.53,24.31s-3-85.64-4.42-89.51C378.3,154.26,371.53,162.41,371.53,162.41Z" style="fill:#5f5f75"/><path d="M387.14,179.54,391,250l16-68.93S399,169.6,387.14,179.54Z" style="fill:#fff"/><path d="M445.57,234.24a302.24,302.24,0,0,0-2.08,63.27c0,.55,1,.55.83,0a309.23,309.23,0,0,1,1.94-63C446.53,234,445.57,233.69,445.57,234.24Z" style="fill:#5f5f75"/><path d="M438,225.54s22.1,25.56,40.88,36.47c15.89,9.12,19.89,1,39.78-19.75,16.17-16.86,24.59-35.09,11-43.52-18.78-11.6-34.25,18.24-36.6,17.68-5-1.24-16.3-17.54-33-39.64C442.94,154.26,423.6,215.6,438,225.54Z" style="fill:#2b2b39"/><path d="M450,171.53a28.72,28.72,0,0,0-14.78,18.65c-.14.55.69.83.83.28a28,28,0,0,1,14.5-18.1C451,172.08,450.54,171.25,450,171.53Z" style="fill:#5f5f75"/><path d="M513.94,210.07a1.68,1.68,0,0,1-1.66,1.66,1.6,1.6,0,0,1-1.66-1.66,1.66,1.66,0,0,1,3.32,0Z" style="fill:#5f5f75"/><path d="M504.55,204.41A21.19,21.19,0,0,0,515,219.05a21.43,21.43,0,0,0,19.62.28c.55-.28,0-1-.42-.83a20.25,20.25,0,0,1-19.06-.56A20.65,20.65,0,0,1,505.51,204C505.24,203.58,504.41,203.85,504.55,204.41Z" style="fill:#5f5f75"/><path d="M524.71,206.06c-2.07,4.56-4.14,9.12-6.21,13.82a.46.46,0,1,0,.83.41c2.07-4.56,4.14-9.11,6.21-13.81A.47.47,0,0,0,524.71,206.06Z" style="fill:#5f5f75"/><path d="M428.44,215.18c8.42,10.5,17.82,20.17,27.21,29.7.41.42,1-.28.69-.69-9.53-9.53-18.92-19.2-27.21-29.7A.49.49,0,0,0,428.44,215.18Z" style="fill:#5f5f75"/><path d="M492,216.84a104.8,104.8,0,0,0-10,17c-.27.69.69,1.24,1,.55a105.47,105.47,0,0,1,9.94-17C493.36,216.84,492.39,216.29,492,216.84Z" style="fill:#5f5f75"/><path d="M488.39,222.36a15,15,0,0,0-10.09,6.08c-.41.56.56,1.25,1,.56a14.44,14.44,0,0,1,9.39-5.53C489.35,223.33,489.08,222.23,488.39,222.36Z" style="fill:#5f5f75"/><path d="M523.06,185.34l-9.95,15.06c.14,4.56,3.18,10.91,14.78,9L533,195.15Z" style="fill:#ed681d"/><path d="M536.59,178c-2.21-.41,1.25-3.86,3.32-5.8,2.76-2.49,2.07-5.39-2.63-3.31-6.07,2.62-7.73,4-11.46,7.73a9,9,0,0,0-2.21,3.59,12.64,12.64,0,0,0,.83,10.23,30.7,30.7,0,0,0,2.9,4.69c3,4.42,11,2.49,15.74,2.76a20.4,20.4,0,0,0,13.13-4.14c3.73-2.76,8.7-5.53,6.63-7.18s-8.43,5.11-9,4,13.81-8.42,13.4-10.36-3-1.1-3-1.1,2.21-1.66.83-3.18-5.39-.14-5.39-.14L550.82,179s4.7-5,3.31-7.74-8.84-3.31-10.63-2.9-2.07,1.8.27,3.32,4.7,1.52,4.15,3.59a5.18,5.18,0,0,1-5.39,3.59C540.18,178.44,536.59,178,536.59,178Z" style="fill:#ed681d"/><path d="M564.36,178.58c-4.7,1.65-9.4,3.45-14,5.52-.56.28,0,1.11.55.83,4.42-1.93,9.11-3.73,13.67-5.39C565.18,179.27,564.91,178.3,564.36,178.58Z" style="fill:#b6461d"/><path d="M552.34,188.25A28.86,28.86,0,0,0,547,177.33c-.41-.55-1.24,0-.83.42a25.81,25.81,0,0,1,5.11,10.36C551.51,188.94,552.48,188.94,552.34,188.25Z" style="fill:#b6461d"/><path d="M544.88,183.13c-6.08-1.1-11.33,1.39-13.81,6.36-.28.55.69,1,1,.41,2.21-4.56,7.19-6.9,12.71-5.94C545.29,184.1,545.43,183.27,544.88,183.13Z" style="fill:#b6461d"/><path d="M384,126s-7.6-1.11-6.08-6.08,4.56-4,1-7.46-10.08-5.39-6.77-10.64,9.26-1,9.81-4.42-3.45-6.08.69-9.53,9.26,4.56,13.68-.69c3.72-4.42,8.28-5.53,14.36-1s3.73,12,9.95,11.19,10.22,2.63,11.6,11.05-7.32,15.34-7.32,15.34Z" style="fill:#2b2b39"/><path d="M416.84,163.1s-22.52,12.85-30.25,0l4.14-11.32,2.76-7.46,1.94-5.25,21.82-2.21A73.5,73.5,0,0,0,416.84,163.1Z" style="fill:#ed681d"/><path d="M411.45,144.46c-10.36,10.77-19.06,11.46-21.82,10.08l3.73-10.36Z" style="fill:#2b2b39"/><path d="M419.87,131.06a10.84,10.84,0,0,1-.55,2.34,20.53,20.53,0,0,1-2.21,4.7,51.68,51.68,0,0,1-5.66,6.36c-4,4-9.67,4.83-14.92,4.14-14.09-1.93-14.09-11.74-10.91-26,1.93-8.84.14-14.23,2.9-17.4.14-.14.41-.28.55-.42a20.1,20.1,0,0,1,14.78-3.87l2.9.42c.28,0,.42.14.56.14h.27c.28,0,.42.13.69.13s.28.14.42.14c.41.14.69.14,1.1.28,11,3,12.85,10.36,12.43,17.13C421.81,123.87,420.29,128.29,419.87,131.06Z" style="fill:#ed681d"/><path d="M388.11,121a2.07,2.07,0,0,0,4-.27c.14-.56-.69-.83-.83-.28a1.15,1.15,0,0,1-2.21.28C388.8,120.14,388,120.42,388.11,121Z" style="fill:#2b2b39"/><path d="M397.91,121.25a2,2,0,0,0,3.87.83.47.47,0,0,0-.83-.42,1.15,1.15,0,0,1-2.21-.41A.42.42,0,0,0,397.91,121.25Z" style="fill:#2b2b39"/><path d="M397.08,133.68a2.91,2.91,0,0,1-2.9,2.9,2.9,2.9,0,0,1,0-5.8A2.91,2.91,0,0,1,397.08,133.68Z" style="fill:#fff"/><path d="M395.43,119.87l-4.15,4.56a.52.52,0,0,0,0,.82,16.33,16.33,0,0,1,1.94,2.21c.41.7,1.38,0,1-.55a9,9,0,0,0-2.07-2.48v.82l4.14-4.55C396.67,120.14,395.84,119.31,395.43,119.87Z" style="fill:#2b2b39"/><path d="M405.23,127.74c-.13.83-1.38,1.24-2.9,1s-2.62-1.11-2.48-1.8,1.38-1.24,2.9-1S405.37,126.91,405.23,127.74Z" style="fill:#b6461d"/><path d="M384.93,126.22a3.56,3.56,0,0,0,2.07.83c1.52.28,2.76-.28,2.9-1s-1-1.52-2.49-1.79a4.85,4.85,0,0,0-2.07.14Z" style="fill:#b6461d"/><path d="M400,117.1a1.89,1.89,0,0,1,2.48,1.11,1.35,1.35,0,0,0,1.38,1.11c.56-.14,1.25-.7,1.11-1.39a4.31,4.31,0,0,0-5.25-3.17,1.18,1.18,0,1,0,.28,2.34Z" style="fill:#2b2b39"/><path d="M389.49,117.93a2.56,2.56,0,0,1,2.35-1.52c1.65,0,1.79-2.48.13-2.48a4.54,4.54,0,0,0-4.55,2.62C386.59,118.07,388.66,119.32,389.49,117.93Z" style="fill:#2b2b39"/><path d="M414.21,134.23a7.74,7.74,0,0,0,5.11-.83,20.53,20.53,0,0,1-2.21,4.7A7.07,7.07,0,0,1,414.21,134.23Z" style="fill:#2b2b39"/><path d="M419.05,118.62c-5.81.7-7.88,10.09-10.5,8s5.11-16.86-2.35-17.55-6.77.83-10.22.56c-5.8-.42-5.39-3.32-7.6-4.42.14-.14.42-.28.55-.42a20.1,20.1,0,0,1,14.78-3.87l2.9.42c.28,0,.42.14.56.14h.27c.28,0,.42.13.69.13s.28.14.42.14c.41.14.69.14,1.1.28,11.05,3,12.85,10.36,12.43,17.13A5.22,5.22,0,0,0,419.05,118.62Z" style="fill:#2b2b39"/><path d="M408.55,126.64c2.62,2.07,4.69-7.32,10.5-8a5.72,5.72,0,0,1,3.17.56c-.41,4.69-1.79,9.11-2.21,11.88a11.72,11.72,0,0,1-.55,2.35c3-5.53,6.49-12,7.46-14.79.14-.55.28-1.1.41-1.65-.13-.14-.27-.28-.27-.42a10.89,10.89,0,0,0-1.8-1.79,14.66,14.66,0,0,0-3.45-2.08c-4.15-1.79-9.12-2.07-12.71-1.93C411.17,114.76,406.34,125,408.55,126.64Z" style="fill:#b6461d"/><path d="M392.94,139.21a3,3,0,0,0,3.18,0c.55-.28,0-1.11-.56-.69a2.15,2.15,0,0,1-2.21-.14C392.66,138,392.39,138.93,392.94,139.21Z" style="fill:#b6461d"/><path d="M410.34,130.09a7.91,7.91,0,0,1,2.08-6.63c2.07-2.35,5.8-5.8,8.7-5,4.28,1.24,4.14,5.25,3.18,9.25-1.11,3.87-4.42,8.7-9.81,7A5.51,5.51,0,0,1,410.34,130.09Z" style="fill:#ed681d"/><path d="M415.59,130.23a9.06,9.06,0,0,1,1.11-5c.83-1.38,2.76-3.17,4.42-2.34.55.27,1.1-.56.55-.83a4.11,4.11,0,0,0-4.83,1.24c-1.8,1.8-2.21,4.42-2.35,6.91C414.63,130.78,415.59,130.92,415.59,130.23Z" style="fill:#2b2b39"/><path d="M485.49,338.4c-.42.27-.83.41-1.25.69-2.62,1.38-5.52,2.9-8.7,4.28-.55.28-1.24.55-1.8.83a5.52,5.52,0,0,1-1.38.55c-.55.28-1,.42-1.52.69s-1.1.42-1.52.69a324.16,324.16,0,0,1-51.79,17.69c-.28,0-.55.13-.83.13-30.25,7.46-49.45,7.19-49.45,7.19l-10.64-24.45,49.31-28.87s54.84-34.81,80.39-34.95C510.35,283.14,534.24,311.46,485.49,338.4Z" style="fill:#6059c9"/><path d="M473.74,344.2a5.52,5.52,0,0,1-1.38.55,10.93,10.93,0,0,1-3-.83,28.2,28.2,0,0,1-11.05-6.63c-3.59-3.45-6.07-7.73-9.25-11.46a30.08,30.08,0,0,0-11.6-9.12c-4.42-1.79-12-2.49-16.72-1.93.28-.28,1.11-.56,1.39-.83a35.63,35.63,0,0,1,15.33,1.93,30,30,0,0,1,10.91,8c3.18,3.73,5.8,8,9.12,11.75C461.87,340.19,467.67,343.51,473.74,344.2Z" style="fill:#746adb"/><path d="M407.17,342c-2.21-6.08-7.88-9.53-13.68-11.74,0,.14-.14.14-.14.27s-.41.28-.55.42c5.8,2.07,11.74,5.52,13.81,11.74,2.49,7.18-2.21,14.09-6.21,19.75-.28.42.41.83.69.42C405.23,356.77,409.93,349.45,407.17,342Z" style="fill:#746adb"/><path d="M485.49,338.4c-.42.27-.83.41-1.25.69a16.45,16.45,0,0,1-8.42-4A27.92,27.92,0,0,1,465.73,314a28.36,28.36,0,0,1,9.95-21.41c.41-.28,1,.27.55.55a28.55,28.55,0,0,0-7.6,10.5,26.84,26.84,0,0,0,.83,22.1C472.36,331.63,478.44,338.4,485.49,338.4Z" style="fill:#746adb"/><path d="M459.1,350a31.17,31.17,0,0,0-11.19-7.73c-7.32-2.9-17-3.73-23.62,1.24-6.35,4.83-8,12.85-6.63,20.31-.27,0-.55.13-.82.13a23.88,23.88,0,0,1,.82-12.43,18.82,18.82,0,0,1,7-9.25c3.59-2.49,8.15-3.32,12.43-3.18a32.7,32.7,0,0,1,22.79,10.22C459.93,349.86,459.38,350.42,459.1,350Z" style="fill:#746adb"/><path d="M323.33,373.07c0,1.52.13,3,.27,4.56a4.63,4.63,0,0,1,1.24-.55c.14,0,.28-.14.56-.14,2.21-.83,8.28-2.35,14.78-4,4.14-1.1,8.42-2.07,11.74-3-2.49-5.11-7.19-9.8-11.19-13.26a.14.14,0,0,1-.14-.14l-6.91,4.15-1,.55a34.35,34.35,0,0,0-4.84-.83c-.69-.14-1.38-.14-2.07-.27-.14.55-.27,1-.41,1.52A32.91,32.91,0,0,0,323.33,373.07Z" style="fill:#ed681d"/><path d="M287.41,409.26c1.11.14,3.87-1.38,5.11-2.62,4-3.59,8.43-10.5,11.47-13.26,3.87-3.73,25.69-12.44,25.69-12.44s4.83-2.07,1.52-4.42a21.08,21.08,0,0,0-7.32-3.17s.41-6.77,2.35-9.81c.27-.42,4.28-.69,4.28-.69l2.07-1.24s2.49-1.66,0-2.91-4.7.83-7.18-.27a28.87,28.87,0,0,0-8.57-2.63,25.08,25.08,0,0,0-4.42,0c-5.8.83-13.67,18.79-18.51,25.83s-9.53,10.78-10.77,17.69S283,408.71,287.41,409.26Z" style="fill:#fff"/><path d="M314.07,355.11c-5.8,6.22-9.12,13.95-13.12,21.28a86.08,86.08,0,0,1-7.6,10.91c-2.62,3.45-5.38,7.18-7,11.19-1.38,3.45-2.07,7.73.83,10.63a.39.39,0,1,0,.55-.55c-2.9-3-1.66-7.6-.14-10.91a58.68,58.68,0,0,1,7.32-11.05,54.9,54.9,0,0,0,6.49-9.53c1.94-3.32,3.59-6.91,5.39-10.23a57.69,57.69,0,0,1,7.87-11.32C314.9,355.25,314.35,354.7,314.07,355.11Z" style="fill:#2b2b39"/><path d="M313.1,389.23a.67.67,0,0,1-.83-.27,4.15,4.15,0,0,0-2.48-2.77c-.83-.13-.55-1.52.27-1.24,1.8.41,2.77,1.93,3.46,3.45A1,1,0,0,1,313.1,389.23Z" style="fill:#2b2b39"/><path d="M315.87,387.57a.67.67,0,0,1-.83-.27,4.15,4.15,0,0,0-2.49-2.76c-.83-.14-.55-1.52.28-1.25,1.79.42,2.76,1.94,3.45,3.46A.83.83,0,0,1,315.87,387.57Z" style="fill:#2b2b39"/><path d="M310.06,390.61a.65.65,0,0,1-.82-.27,3.65,3.65,0,0,0-2.35-2.35c-.83-.14-.55-1.52.27-1.24a5.17,5.17,0,0,1,3.32,3A.82.82,0,0,1,310.06,390.61Z" style="fill:#2b2b39"/><path d="M489.63,290.6A32.26,32.26,0,0,1,507.45,312c.14.56,1,.28.83-.27a33.5,33.5,0,0,0-18.24-22A.46.46,0,0,0,489.63,290.6Z" style="fill:#1e1759"/><path d="M449.43,296.82q-30,18.65-60.91,35.64c-5.8,3.18-11.74,6.35-17.68,9.53-.55.28,0,1,.42.83C392,331.77,412.55,320.16,432.72,308c5.8-3.45,11.47-6.91,17.13-10.5C450.4,297.23,449.85,296.54,449.43,296.82Z" style="fill:#1e1759"/><path d="M375.67,380.53s-6.35-1.38-18.23-5.11a8.42,8.42,0,0,0-1-.28c-10.5-3.31-25.14-8.29-43.24-15.33-.27-.14-.55-.14-.83-.28-4-1.65-8.28-3.31-12.57-5.11l-1-.41c-7.46-3.18-15.47-6.63-23.76-10.5A142.48,142.48,0,0,1,262,336.74c-.28-.14-.56-.41-.83-.55a75.94,75.94,0,0,1-12.57-9.26c-.28-.27-.55-.55-.83-.83-23.9-22.65-3.73-43,16.71-42.82,25.56.14,80.39,35,80.39,35l49.45,34C379.54,363.54,373.6,372.79,375.67,380.53Z" style="fill:#6059c9"/><path d="M300.12,354.28l-1-.41a27.67,27.67,0,0,0-13.95-16.58,28,28,0,0,0-23.06-.69c-.28-.14-.56-.41-.83-.55a28.46,28.46,0,0,1,8.29-2.21,28,28,0,0,1,20.71,5.8A29.43,29.43,0,0,1,300.12,354.28Z" style="fill:#746adb"/><path d="M303.44,305.8c.41,8,5.38,15.06,12,19.34,7.88,5,17.68,5.8,26.66,4.69a.41.41,0,1,0,0-.82c-8.7,1-17.95.27-25.55-4.15-6.77-4-12-11.05-12.29-19.06A.42.42,0,0,0,303.44,305.8Z" style="fill:#746adb"/><path d="M283,297a36,36,0,0,1-34.25,30l-.83-.83a35.7,35.7,0,0,0,21.82-7.87,36.58,36.58,0,0,0,12.43-21.41C282.16,296.13,283,296.41,283,297Z" style="fill:#746adb"/><path d="M363.66,341c-2.63,3-6.36,4.56-10.22,5.25-8.57,1.38-17.27-2.07-25.83.28A21.22,21.22,0,0,0,313.38,360c-.28-.14-.55-.14-.83-.28a22.16,22.16,0,0,1,5.11-8,23.45,23.45,0,0,1,8.7-5.53c4.29-1.38,8.71-1.24,13.13-.82,7.87.69,17.68,2.07,23.34-4.7C363.38,340.06,364.07,340.61,363.66,341Z" style="fill:#746adb"/><path d="M377.33,348.62a21.79,21.79,0,0,0-19.75,15.06,21.3,21.3,0,0,0,0,11.74,8.67,8.67,0,0,0-1-.28,21.21,21.21,0,0,1,2.77-17.26,23,23,0,0,1,17.95-10.09A.42.42,0,1,1,377.33,348.62Z" style="fill:#746adb"/><path d="M289.76,297.1c23.76,15.19,47.93,29.83,72.65,43.37,6.77,3.73,13.54,7.32,20.45,10.91.41.28.83-.41.41-.69-25-12.84-49.31-27.07-73.21-41.71-6.63-4.15-13.26-8.29-19.89-12.57C289.76,296.13,289.35,296.82,289.76,297.1Z" style="fill:#1e1759"/><path d="M252.88,291.43a24.49,24.49,0,0,0-10.5,22.24c0,.55,1,.55.83,0a24.06,24.06,0,0,1,10.08-21.55C253.85,291.85,253.29,291,252.88,291.43Z" style="fill:#1e1759"/><path d="M387.41,347.79c-10.49,5.94-20,18.24-19.19,30.81,0,.55,1,.55.82,0-1-12.3,8.57-24.18,18.79-30.12C388.24,348.34,387.83,347.52,387.41,347.79Z" style="fill:#1e1759"/><path d="M394.32,352.21s-2.9,1.94-6.35,4.84c-3.87,3.31-8.7,8.15-11.19,13.26-1.66,3.31-2.35,6.77-1.11,10.08,0,0,6.91-.27,12.85-7a28.56,28.56,0,0,0,4.28-6.77c1-2.07,1.66-3.87,2.21-5.39C397.64,353,394.32,352.21,394.32,352.21Z" style="fill:#2b2b39"/><path d="M405.37,373.62c0,1.52-.14,3-.27,4.56a5.24,5.24,0,0,0-1.25-.55c-.14,0-.27-.14-.55-.14-2.21-.83-8.29-2.35-14.78-4-4.14-1.1-8.42-2.07-11.74-3,2.49-5.12,7.18-9.81,11.19-13.27,0,0,.14,0,.14-.13l6.9,4.14,1,.55a34.36,34.36,0,0,1,4.83-.83c.69-.13,1.39-.13,2.08-.27.13.55.27,1,.41,1.52A42,42,0,0,1,405.37,373.62Z" style="fill:#ed681d"/><path d="M440.18,407.47c-1.11.13-3.87-1.38-5.11-2.49-4-3.45-8.57-10.36-11.6-13.12-4-3.59-26-12-26-12s-4.84-2.07-1.66-4.28a20.84,20.84,0,0,1,7.18-3.18s-.55-6.77-2.48-9.81c-.28-.41-4.28-.55-4.28-.55l-2.08-1.24s-2.48-1.66-.14-2.9,4.7.69,7.19-.42a26.74,26.74,0,0,1,8.56-2.76,23.3,23.3,0,0,1,4.42,0c5.8.69,14,18.65,18.92,25.55s9.67,10.64,11.05,17.41S444.6,406.78,440.18,407.47Z" style="fill:#fff"/><path d="M412.28,355.8c5.66,5.25,9.53,12.16,13.39,18.93,1.94,3.31,3.87,6.77,6.08,9.94s5.25,6.08,7.6,9.4,4.56,9.67.28,12.57c-.42.27,0,1,.41.69,2.9-1.94,3.45-5.53,2.49-8.7-1.11-4.29-4.42-7.46-7.19-10.64-5.66-6.63-9.25-14.51-13.81-21.83a51.67,51.67,0,0,0-8.7-10.91C412.55,354.84,411.86,355.39,412.28,355.8Z" style="fill:#2b2b39"/><path d="M414.21,387.85a.66.66,0,0,0,.83-.28,4.17,4.17,0,0,1,2.49-2.76c.83-.27.55-1.52-.28-1.24a5.58,5.58,0,0,0-3.45,3.59A1,1,0,0,0,414.21,387.85Z" style="fill:#2b2b39"/><path d="M411.45,386.19a.67.67,0,0,0,.83-.27,4.15,4.15,0,0,1,2.48-2.77c.83-.27.56-1.51-.27-1.24A5.6,5.6,0,0,0,411,385.5C411,385.78,411,386.06,411.45,386.19Z" style="fill:#2b2b39"/><path d="M417.39,389.23a.67.67,0,0,0,.83-.27,3.33,3.33,0,0,1,2.34-2.35c.83-.28.56-1.52-.27-1.25a4.61,4.61,0,0,0-3.18,3.18C416.84,388.68,417,389.09,417.39,389.23Z" style="fill:#2b2b39"/><path d="M393.63,186.17s-1.1,19.48-24.17,14.51S339.76,179.54,320,184c0,0,11.88-2.76,22.24,12.85,0,0,29.83,20.44,47.93,11.19,12.57-6.36,8.15-21.55,8.15-21.55l-1.94-9.67Z" style="fill:#467b6c"/><path d="M397.08,168.63l-8.15,8.15,7.33,15.33,8.84-14.78Z" style="fill:#467b6c"/><path d="M396.25,192.53h0c-.13,0-.27-.14-.41-.28l-2.35-4.83c-.14-.14,0-.42.14-.56s.41,0,.55.14l1.94,4.15,2.21-3.73c.13-.14.41-.28.55-.14s.27.41.14.55l-2.63,4.28C396.53,192.53,396.39,192.53,396.25,192.53Z" style="fill:#396c61"/><path d="M389.07,156.2s-2.48-1.52-9.53,1.79l4.28,27.35,13.26-16.71Z" style="fill:#fff"/><path d="M416.14,157.16l-18.92,11.47L409,188.38l17.13-26.8A12,12,0,0,0,416.14,157.16Z" style="fill:#fff"/><path d="M342.39,196.81s-13.13-6.77-21.14-1.52c-9.11,5.94-7.59,11.05-7.59,11.05l-7.6,5.11-4.56-11s6.77-20.31,28.45-16.85A43.79,43.79,0,0,1,342.39,196.81Z" style="fill:#396c61"/><path d="M542.67,290.47v12.84c0,.69-.14,1.25-.14,1.94a11.74,11.74,0,0,1-.83,2.34,11.56,11.56,0,0,1-10.36,5.81H124.15a11.56,11.56,0,0,1-10.36-5.81,6.74,6.74,0,0,1-.83-2.34,8.47,8.47,0,0,1-.14-1.94V290.47Z" style="fill:#2b2b39"/><path d="M140.45,313.4,117,528.06h10.49l32.6-214.66Z" style="fill:#2b2b39"/><path d="M513.39,313.4l23.48,214.66h-10.5L493.77,313.4Z" style="fill:#2b2b39"/><path d="M512.42,406.64H137.27v7H512.42Z" style="fill:#2b2b39"/><path d="M542.39,305.11a11.62,11.62,0,0,1-.83,2.35H113.79a6.72,6.72,0,0,1-.83-2.35Z" style="fill:#5f5f75"/><path d="M347.5,290.6l-128.18-.13-3.59-13,128.18.28Z" style="fill:#fff"/><path d="M342.25,281.49h-38.4a.69.69,0,1,1,0-1.38h38.4a.65.65,0,0,1,.69.69A.75.75,0,0,1,342.25,281.49Z" style="fill:#2b2b39"/><path d="M299.15,284.11,227.47,284a5.68,5.68,0,0,1-5.39-4.56l-14.23-59.12c-1-3.87,1.8-7.6,5.39-7.6l72.51.14a7.47,7.47,0,0,1,7.05,5.94l13.26,55.4C307.3,279.28,303.85,284.11,299.15,284.11Z" style="fill:#fff"/><path d="M293.21,284.11,221.53,284a5.68,5.68,0,0,1-5.39-4.56l-14.23-59.12c-1-3.87,1.8-7.6,5.39-7.6l72.52.14a7.47,7.47,0,0,1,7,5.94l13.26,55.4C301.5,279.28,297.91,284.11,293.21,284.11Z" style="fill:#fff"/><path d="M286.58,218.91h-80.8a.69.69,0,0,1,0-1.38h80.8a.69.69,0,0,1,0,1.38Z" style="fill:#2b2b39"/><path d="M258.82,252.75c.69,4.84-2.07,8.71-6.35,8.71s-8.29-3.87-9-8.71,2.07-8.7,6.35-8.7S258.13,248.06,258.82,252.75Z" style="fill:#2b2b39"/><path d="M287.41,218.22c4.7,19.75,9.4,39.51,13.95,59.26.14.83-1,1.24-1.24.41q-7-29.62-13.95-59.26A.65.65,0,0,1,287.41,218.22Z" style="fill:#2b2b39"/><path d="M191.83,276.93H138.51v13.4h53.32Z" style="fill:#172b4d"/><path d="M190,276.93H124.84v11.6H190Z" style="fill:#467b6c"/><path d="M190.17,278.86H136.86v11.61h53.31Z" style="fill:#fff"/><path d="M189.07,287.56H178.16v-.69h10.91a.44.44,0,0,1,.41.42C189.48,287.43,189.34,287.56,189.07,287.56Z" style="fill:#d8ba9a"/><path d="M189.07,283.56H178.16v-.69h10.91a.44.44,0,0,1,.41.41C189.48,283.42,189.34,283.56,189.07,283.56Z" style="fill:#d8ba9a"/><path d="M178.16,278.86H124.84v11.61h53.32Z" style="fill:#467b6c"/><path d="M172.22,280.52h-3v8h3Z" style="fill:#172b4d"/><path d="M158.68,278.86h-1.93v11.61h1.93Z" style="fill:#272737"/><path d="M164.48,278.86h-1.93v11.61h1.93Z" style="fill:#272737"/><path d="M135.89,283.7a3.46,3.46,0,1,1-3.45-3.46A3.42,3.42,0,0,1,135.89,283.7Z" style="fill:#272737"/><path d="M185.61,263.53H132.3v13.4h53.31Z" style="fill:#1e1759"/><path d="M184,263.53h-65.2v11.6H184Z" style="fill:#6059c9"/><path d="M184,265.32H130.64v11.61H184Z" style="fill:#fff"/><path d="M183,274.17H172.08v-.7H183a.44.44,0,0,1,.41.42C183.27,274,183.13,274.17,183,274.17Z" style="fill:#d8ba9a"/><path d="M183,270.16H172.08v-.83H183a.44.44,0,0,1,.41.41C183.27,269.88,183.13,270.16,183,270.16Z" style="fill:#d8ba9a"/><path d="M172.08,265.32H118.76v11.61h53.32Z" style="fill:#6059c9"/><path d="M166,267.12h-3v8h3Z" style="fill:#1e1759"/><path d="M152.46,265.32h-1.93v11.61h1.93Z" style="fill:#272737"/><path d="M158.26,265.32h-1.93v11.61h1.93Z" style="fill:#272737"/><path d="M129.81,270.71a3.45,3.45,0,1,1-3.45-3.45A3.42,3.42,0,0,1,129.81,270.71Z" style="fill:#272737"/><path d="M193.76,250.13H140.45v13.4h53.31Z" style="fill:#396c61"/><path d="M192.1,250.13H126.91v11.6H192.1Z" style="fill:#467b6c"/><path d="M192.1,251.93H138.79v11.6H192.1Z" style="fill:#fff"/><path d="M191.14,260.49H180.23v-.69h10.91a.44.44,0,0,1,.41.41C191.55,260.35,191.28,260.49,191.14,260.49Z" style="fill:#d8ba9a"/><path d="M191.14,256.48H180.23v-.69h10.91a.44.44,0,0,1,.41.42C191.55,256.35,191.28,256.48,191.14,256.48Z" style="fill:#d8ba9a"/><path d="M180.23,251.93H126.91v11.6h53.32Z" style="fill:#467b6c"/><path d="M174.15,253.72h-3v8h3Z" style="fill:#396c61"/><path d="M160.61,251.93h-1.93v11.6h1.93Z" style="fill:#272737"/><path d="M166.41,251.93h-1.93v11.6h1.93Z" style="fill:#272737"/><path d="M138,257.31a3.46,3.46,0,1,1-3.45-3.45A3.42,3.42,0,0,1,138,257.31Z" style="fill:#272737"/><path d="M79.53,527.92a89.6,89.6,0,0,1-22.79,0v-9.81H79.53Z" style="fill:#2b2b39"/><path d="M103.71,474.19,100,484.27l-.28.69-2.07,5.8-.28.69-1.79,4.84-.28.83v.13l-.41,1.25-2.21,5.94-.42,1.24L88,517.56l-.28.83-.83,2.35a4.39,4.39,0,0,1-1.52,2.07,2.81,2.81,0,0,1-.82.55,7.57,7.57,0,0,1-1.94.55H54.12a4.94,4.94,0,0,1-1.38-.13c-.28-.14-.69-.28-1-.42a4.89,4.89,0,0,1-2.35-2.62L46,511.07l-.42-1.24-2.48-6.77-.28-.69-.14-.42-.41-1.1-2.49-6.63-.27-.7L38,489.24l-.42-1.1-.41-1-.28-.69-1.24-3.32-.28-.82-2.9-7.88h71.28Z" style="fill:#6059c9"/><path d="M97.77,490.76l-.28.69A75.41,75.41,0,0,0,90.31,489a103.08,103.08,0,0,0-53-1.8l-.28-.69c1.11-.28,2.21-.41,3.18-.69A103.78,103.78,0,0,1,97.77,490.76Z" style="fill:#1e1759"/><path d="M95.69,496.29l-.27.83A12.44,12.44,0,0,0,88,517.42l-.28.83a13.06,13.06,0,0,1,8-22Z" style="fill:#1e1759"/><path d="M82.43,524.05h-.69A58.24,58.24,0,0,0,79,514.52c-3.31-9-9.39-17-18.78-20-6.63-2.21-13.68-1.79-20.45-.27l-.27-.7A44.29,44.29,0,0,1,48,492.28c9.81-.55,19.2,2.76,25.42,10.5C78.29,509,80.78,516.46,82.43,524.05Z" style="fill:#1e1759"/><path d="M63.93,524.05H63.1c.83-5.8,0-11.6-3.87-16.3a14.83,14.83,0,0,0-12.57-5.11,29.38,29.38,0,0,0-3.59.55l-.28-.69a17.1,17.1,0,0,1,2.49-.55,16,16,0,0,1,11.19,2.35,16.56,16.56,0,0,1,6.21,7.87A23.18,23.18,0,0,1,63.93,524.05Z" style="fill:#1e1759"/><path d="M100.11,484.27l-.27.69a8.08,8.08,0,0,1-1.94-.69c-5.38-1.93-9.8-5.94-13.53-10.22h1.1c3.32,3.73,7.19,7.18,11.88,9.11A7.19,7.19,0,0,0,100.11,484.27Z" style="fill:#1e1759"/><path d="M52.6,474.19a24.78,24.78,0,0,1-9.26,6.63A30.23,30.23,0,0,1,35.75,483l-.28-.83c6.36-1.11,12.29-3.32,16.3-7.88h.83Z" style="fill:#1e1759"/><path d="M103.71,474.19c0,1.52-15.89,2.76-35.64,2.76s-35.64-1.24-35.64-2.76,15.89-2.77,35.64-2.77S103.71,472.67,103.71,474.19Z" style="fill:#2b2b39"/><path d="M46.24,444.62s9.81-3.59,12.44,6.77c2.48,10.36,9.8,7.74,11.18,5.39,2.77-4.56,3-20.72-1.51-21.69C62.68,434,48.18,439.93,46.24,444.62Z" style="fill:#172b4d"/><path d="M52.05,431.78S42.1,428.6,38.37,439s0,36.05,0,36.05,8.56-2.62,11.33-11.46,2.48-28.18,18.51-28.32Z" style="fill:#467b6c"/><path d="M54.12,432.33c-8.7,5-10.09,15.75-10.91,24.73,0,.41.69.41.69,0,.83-8.71,2.21-19.2,10.49-24A.37.37,0,0,0,54.12,432.33Z" style="fill:#172b4d"/><path d="M86.71,376.39s-9.66-4-12.7,6.35-10,9.53-11.19,5.11c-1.52-5.11-2.49-21,2.21-21.82C70.69,365.06,84.92,371.55,86.71,376.39Z" style="fill:#172b4d"/><path d="M81.33,363.26s10.08-2.76,13.4,7.74-1.52,35.91-1.52,35.91-8.43-3-10.92-11.88S80.91,366.85,65,366Z" style="fill:#467b6c"/><path d="M78.43,364.37c9.11,7.18,10.63,19.34,11.88,30.11,0,.42.83.42.69,0-1.11-10.91-2.76-23.34-12-30.66C78.57,363.54,78.15,364,78.43,364.37Z" style="fill:#172b4d"/><path d="M96.94,424.18s-6.08-1.8-12.43,6.77c-6.08,8.29-8.57,9.25-12.71,6.08s-1.66-21.41,3-22.38C80.5,413.54,95,419.48,96.94,424.18Z" style="fill:#172b4d"/><path d="M96.94,409.81s14.22-4.55,19.47,10.23,0,51.38,0,51.38-12.15-3.86-16.16-16.43-3.59-40.2-26.38-40.48Z" style="fill:#467b6c"/><path d="M93.07,411.47a35.3,35.3,0,0,1,18.78,31.22.35.35,0,0,0,.69,0,36.33,36.33,0,0,0-19.19-31.91C92.93,410.51,92.65,411.2,93.07,411.47Z" style="fill:#172b4d"/><path d="M39.34,400s9.81-3.59,12.43,6.77S67.1,421.14,68.48,416c1.38-5.39-1.65-24.73-6.35-25.69C56.33,389.23,41.27,395.31,39.34,400Z" style="fill:#172b4d"/><path d="M39.34,385.64s-14.23-4.56-19.48,10.22,0,51.39,0,51.39S32,443.38,36,430.81s3.59-40.2,26.39-40.47Z" style="fill:#467b6c"/><path d="M45,387c-6.08.28-11.33,4.15-14.78,9.12-4.14,5.94-5.66,13.4-7,20.44a.35.35,0,1,0,.69.14c1.24-6.63,2.62-13.54,6.35-19.34,3.32-5.11,8.57-9.25,14.78-9.67C45.55,387.71,45.55,386.88,45,387Z" style="fill:#172b4d"/><path d="M67.38,473.91h2.48c6.22-26.66,2.08-55.12-2.62-74.46A241.74,241.74,0,0,0,55,362.3a1.23,1.23,0,1,0-2.21,1.1,210.9,210.9,0,0,1,12.15,36.75C69.59,419.35,73.73,447.66,67.38,473.91Z" style="fill:#172b4d"/></svg>