<svg id="Layer_1" data-name="Layer 1" xmlns="http://www.w3.org/2000/svg" viewBox="0 0 771 507"><g style="opacity:0.4000000059604645"><g style="opacity:0.4000000059604645"><g style="opacity:0.4000000059604645"><path d="M232.2,379.4A198.72,198.72,0,0,1,133,334.45C96.66,303.52,64,253,89.08,177.89c47.46-142,263-165.65,361.08-132.82,156,52.14,227.43,263.12,13.13,331.55C409.9,393.67,290.26,388.24,232.2,379.4Z" style="fill:#c8baae;opacity:0.4000000059604645;isolation:isolate"/></g></g></g><g style="opacity:0.4000000059604645"><g style="opacity:0.4000000059604645"><g style="opacity:0.4000000059604645"><path d="M668.63,50.24c-28-26.39-75.73-30.68-100.08-.12-12.37,15.4-13.13,37.62-8.84,49.74C573,137.74,637,196.58,683.9,154,714.19,126.5,699.55,79.28,668.63,50.24Z" style="fill:#c8baae;opacity:0.4000000059604645;isolation:isolate"/></g></g></g><path d="M696.9,160.47a.46.46,0,0,1-.38-.13.79.79,0,0,1-.13-.88c.76-.89,1.52-1.77,2.27-2.78.26-.25.64-.38.89-.13s.38.63.12.89c-.75.88-1.51,1.89-2.27,2.77C697.15,160.34,697,160.47,696.9,160.47Zm4.79-6.57a.46.46,0,0,1-.37-.12.59.59,0,0,1-.13-.89c.63-1,1.26-2,1.89-3.15a.73.73,0,0,1,.89-.26.74.74,0,0,1,.25.89c-.63,1-1.26,2.14-1.9,3.15C702.07,153.78,702,153.9,701.69,153.9Zm4-7.32h-.25a.61.61,0,0,1-.25-.76c.5-1.14,1-2.27,1.39-3.41.12-.25.5-.5.75-.38s.51.51.38.76c-.5,1.14-1,2.27-1.51,3.41C706.24,146.45,706,146.58,705.73,146.58Zm3-7.7h-.12a.56.56,0,0,1-.38-.76c.38-1.14.63-2.27,1-3.54a.68.68,0,0,1,.75-.5.7.7,0,0,1,.51.76,28,28,0,0,1-1,3.53A.92.92,0,0,1,708.76,138.88Zm1.89-8.08h0A.81.81,0,0,1,710,130a31.34,31.34,0,0,0,.51-3.66c0-.38.38-.63.63-.51s.63.38.5.63a30.79,30.79,0,0,1-.5,3.66C711.16,130.67,710.91,130.8,710.65,130.8Zm.76-8.21a.59.59,0,0,1-.63-.63c0-1,.13-2,.13-3v-.63a.63.63,0,0,1,1.26,0v.63a26.52,26.52,0,0,1-.13,3.15A.57.57,0,0,1,711.41,122.59Zm-.12-8.33a.61.61,0,0,1-.64-.64c-.12-1.13-.25-2.39-.37-3.66a.57.57,0,1,1,1.13-.12c.13,1.26.25,2.52.38,3.66.13.5-.13.76-.5.76Zm-.89-8.21a.84.84,0,0,1-.63-.51c-.25-1.13-.38-2.39-.63-3.66-.13-.38.13-.63.5-.75s.64.12.76.5a35.91,35.91,0,0,1,.63,3.66A.71.71,0,0,1,710.4,106.05ZM708.76,98a.65.65,0,0,1-.63-.51,36,36,0,0,0-1-3.53.6.6,0,0,1,1.14-.38c.38,1.14.63,2.4,1,3.53.12.38-.13.64-.51.76Zm-2.4-8a.7.7,0,0,1-.63-.37,35.15,35.15,0,0,0-1.26-3.41.6.6,0,0,1,1.14-.38c.37,1.13.88,2.4,1.26,3.53a.63.63,0,0,1-.38.76C706.49,90,706.49,90,706.36,90Zm-2.77-7.82a.68.68,0,0,1-.63-.38c-.51-1.14-.89-2.28-1.39-3.41a.56.56,0,0,1,.38-.76.55.55,0,0,1,.75.38c.51,1.14,1,2.27,1.39,3.41a.56.56,0,0,1-.38.76Zm-3.41-7.58c-.25,0-.51-.13-.51-.38A26.41,26.41,0,0,0,698,71a.65.65,0,0,1,1.14-.63c.5,1.13,1.14,2.27,1.64,3.28a.61.61,0,0,1-.25.76C700.43,74.61,700.31,74.61,700.18,74.61Zm-3.79-7.45c-.25,0-.38-.13-.5-.38-.63-1.13-1.14-2.14-1.77-3.15a.65.65,0,0,1,1.14-.64A26.4,26.4,0,0,1,697,66.28a.83.83,0,0,1-.25.88Zm-4.16-7.07a.7.7,0,0,1-.51-.25c-1.26-1.9-2-3-2-3-.25-.25-.12-.63.13-.89s.63-.12.88.13c0,0,.76,1.14,2,3.16a.66.66,0,0,1-.25.88C692.48,60,692.35,60.09,692.23,60.09Z" style="fill:#c8baae"/><g style="opacity:0.4000000059604645"><g style="opacity:0.4000000059604645"><g style="opacity:0.4000000059604645"><path d="M603.38,242.66c-2.78-33.08,22.21-61.23,55.15-56.94,19.56,2.52,29,14.14,35,23.61,18.3,29.29,19.31,98.74-35.34,98.48C619.79,307.69,606.53,279.15,603.38,242.66Z" style="fill:#c8baae;opacity:0.4000000059604645;isolation:isolate"/></g></g></g><path d="M236.37,39.76a1,1,0,0,1-.89-.63.92.92,0,0,1,.64-1.14,10.45,10.45,0,0,1,1.89-.5.92.92,0,0,1,.5,1.77,15,15,0,0,0-1.76.5Z" style="fill:#c8baae"/><path d="M90.35,145.32a.76.76,0,0,1-.51-.13.79.79,0,0,1-.25-1.26c.63-1.14,1.39-2.15,2.14-3.29a1,1,0,0,1,1.27-.25,1,1,0,0,1,.25,1.26c-.76,1.14-1.39,2.15-2,3.29A1.71,1.71,0,0,1,90.35,145.32Zm5.3-8.08a.76.76,0,0,1-.51-.13,1,1,0,0,1-.25-1.26c.76-1,1.51-2.15,2.27-3.16a1,1,0,0,1,1.26-.25,1,1,0,0,1,.26,1.26c-.76,1-1.52,2.15-2.28,3.16A1.09,1.09,0,0,1,95.65,137.24Zm5.68-7.83c-.26,0-.38-.13-.64-.26a1,1,0,0,1-.12-1.38c.76-1,1.64-2,2.4-3a1,1,0,0,1,1.38-.13,1,1,0,0,1,.13,1.39c-.76,1-1.64,2-2.4,3A1.09,1.09,0,0,1,101.33,129.41Zm6-7.58a1.29,1.29,0,0,1-.63-.25,1,1,0,0,1-.12-1.39c.88-1,1.64-2,2.52-2.9a1.13,1.13,0,0,1,1.39-.13,1.12,1.12,0,0,1,.12,1.39l-2.52,2.9A.75.75,0,0,1,107.38,121.83Zm6.44-7.2a1,1,0,0,1-.63-.25,1,1,0,0,1,0-1.39c.88-1,1.77-1.89,2.65-2.77a1,1,0,0,1,1.39,0,1,1,0,0,1,0,1.38c-.89.89-1.77,1.9-2.65,2.78A1.79,1.79,0,0,1,113.82,114.63Zm6.69-6.94a.95.95,0,0,1-.63-1.64c.88-.88,1.89-1.77,2.77-2.78a1,1,0,0,1,1.39,1.39c-.88.88-1.89,1.77-2.77,2.65A1.13,1.13,0,0,1,120.51,107.69Zm6.94-6.69a1.94,1.94,0,0,1-.76-.25,1,1,0,0,1,0-1.39c.89-.89,1.9-1.77,2.91-2.65a1,1,0,0,1,1.38.12,1,1,0,0,1-.12,1.39c-1,.88-1.89,1.77-2.9,2.53C128,100.87,127.7,101,127.45,101Zm7.32-6.44a1.13,1.13,0,0,1-.76-.38,1,1,0,0,1,.13-1.39c1-.88,2-1.64,3-2.52a1,1,0,1,1,1.26,1.51,27,27,0,0,0-2.9,2.53A5.56,5.56,0,0,1,134.77,94.56Zm7.45-6.19a1.05,1.05,0,0,1-.76-.38,1,1,0,0,1,.13-1.39c1-.75,2-1.64,3-2.39a1,1,0,0,1,1.27,1.51c-1,.76-2,1.52-3,2.4A.7.7,0,0,1,142.22,88.37Zm7.7-5.81a.89.89,0,0,1-.51-1.64c1-.75,2.15-1.51,3.16-2.27a.87.87,0,0,1,1.26.25.88.88,0,0,1-.25,1.27c-1,.75-2.15,1.51-3.16,2.27C150.42,82.56,150.17,82.56,149.92,82.56Zm8-5.55a.91.91,0,0,1-.76-.38,1,1,0,0,1,.25-1.26c1-.76,2.15-1.39,3.28-2.15a.91.91,0,1,1,1,1.52c-1.13.75-2.14,1.39-3.15,2.14A1.11,1.11,0,0,1,157.87,77Zm8.2-5.18a.69.69,0,0,1-.76-.5,1,1,0,0,1,.26-1.27c1.13-.63,2.14-1.38,3.28-2a.88.88,0,0,1,1.26.38.89.89,0,0,1-.38,1.27c-1.14.63-2.15,1.38-3.28,2C166.32,71.71,166.2,71.83,166.07,71.83Zm8.33-5a.69.69,0,0,1-.76-.5A.89.89,0,0,1,174,65l3.41-1.89a.93.93,0,1,1,.88,1.64l-3.41,1.9A1,1,0,0,1,174.4,66.78Zm8.46-4.67a1,1,0,0,1-.89-.5.89.89,0,0,1,.38-1.27c1.14-.63,2.27-1.26,3.41-1.76A1,1,0,0,1,187,59a1,1,0,0,1-.38,1.27c-1.13.63-2.27,1.13-3.41,1.76C183.11,62,183,62.11,182.86,62.11Zm8.58-4.54a1.32,1.32,0,0,1-.89-.51,1,1,0,0,1,.38-1.26c1.14-.63,2.27-1.14,3.54-1.77a1,1,0,1,1,.75,1.77c-1.13.5-2.27,1.13-3.53,1.64C191.69,57.57,191.56,57.57,191.44,57.57Zm8.71-4.17a1.06,1.06,0,0,1-.89-.51.92.92,0,0,1,.51-1.26c1.13-.5,2.4-1.14,3.53-1.64a1,1,0,0,1,.76,1.77c-1.14.5-2.4,1-3.54,1.64ZM209,49.61a.93.93,0,0,1-.88-.63.91.91,0,0,1,.5-1.26c1.26-.51,2.4-1,3.54-1.52a1,1,0,1,1,.75,1.77c-1.13.5-2.4,1-3.53,1.51C209.23,49.48,209.11,49.61,209,49.61ZM218.07,46a1,1,0,0,1-.89-.63,1,1,0,0,1,.51-1.26c1.26-.51,2.4-.89,3.66-1.39a1,1,0,0,1,.76,1.76c-1.27.38-2.4.89-3.66,1.39C218.19,46,218.19,46,218.07,46Zm9.08-3.28a1,1,0,0,1-.88-.63,1.11,1.11,0,0,1,.63-1.27c1.26-.38,2.53-.88,3.66-1.26a.92.92,0,0,1,.51,1.77c-1.14.38-2.4.76-3.66,1.26C227.28,42.67,227.28,42.67,227.15,42.67Z" style="fill:#c8baae"/><path d="M86.31,151.88a.8.8,0,0,1-.51-.12.92.92,0,0,1-.38-1.27,12.77,12.77,0,0,1,1-1.64.92.92,0,0,1,1.27-.38.91.91,0,0,1,.37,1.27,10.47,10.47,0,0,0-.88,1.64A.84.84,0,0,1,86.31,151.88Z" style="fill:#c8baae"/><path d="M384.41,504.78c212.31,0,384.43-6.11,384.43-13.64s-172.12-13.63-384.43-13.63S0,483.61,0,491.14,172.1,504.78,384.41,504.78Z" style="fill:#c8baae"/><path d="M365.86,475.49h-.38c-.25-.64-.38-1.39-.63-2.15C365.23,474.1,365.6,474.85,365.86,475.49Z" style="fill:#dbccc1"/><path d="M578.89,478h.38c.26-.63.38-1.39.63-2.15C579.53,476.62,579.15,477.38,578.89,478Z" style="fill:#dbccc1"/><path d="M34.06,411.09s-14.52-21-9.09-34.84c5.81-14.9,17.42-6.44,15.4,12.24A72.52,72.52,0,0,1,34.06,411.09Z" style="fill:#dbccc1"/><path d="M66.75,490.38a206.41,206.41,0,0,1-17.42-29.92,169,169,0,0,1-13.51-43.94,230.43,230.43,0,0,1-2.65-27.9c0-1.39-2.27-1.39-2.14,0,.63,16.29,2.65,32.45,7.07,48.1a173.31,173.31,0,0,0,19.68,43.82c2,3.41,4.3,6.69,6.44,10Z" style="fill:#c8baae"/><path d="M39.61,438.24s-25.24-4.17-31.3-17.8c-6.56-14.65,7.45-17.05,19.44-2.53A71.59,71.59,0,0,1,39.61,438.24Z" style="fill:#dbccc1"/><path d="M45.29,453.39S65,437.1,63.34,422.2c-1.64-15.9-15-11-18.05,7.71A71.86,71.86,0,0,0,45.29,453.39Z" style="fill:#dbccc1"/><path d="M57.66,477s19.69-16.29,18-31.19c-1.64-15.9-15-11-18,7.71A71.86,71.86,0,0,0,57.66,477Z" style="fill:#dbccc1"/><path d="M51.73,468.29s-25.37,2.4-34.84-9.09c-10.09-12.37,2.91-18.44,18.18-7.45A70.77,70.77,0,0,1,51.73,468.29Z" style="fill:#dbccc1"/><path d="M509,403.27s12.87-22.1,6.31-35.48c-7.07-14.4-17.93-5.05-14.39,13.38A73,73,0,0,0,509,403.27Z" style="fill:#dbccc1"/><path d="M482.72,485.08a214,214,0,0,0,15-31.18,165.61,165.61,0,0,0,10-44.95,230,230,0,0,0,.38-28c0-1.39,2.15-1.64,2.15-.26.63,16.29,0,32.58-3.16,48.49a176.6,176.6,0,0,1-16.15,45.33c-1.77,3.53-3.66,7.07-5.68,10.48h-2.53Z" style="fill:#c8baae"/><path d="M505.57,430.79s24.73-6.19,29.78-20.2c5.43-15-8.83-16.42-19.69-.89A73.79,73.79,0,0,0,505.57,430.79Z" style="fill:#dbccc1"/><path d="M501.15,446.32s-20.82-14.65-20.57-29.54c.38-16,14.13-12.13,18.68,6.18A72.23,72.23,0,0,1,501.15,446.32Z" style="fill:#dbccc1"/><path d="M490.8,470.94S470,456.29,470.23,441.4c.38-16,14.13-12.12,18.68,6.18A72.23,72.23,0,0,1,490.8,470.94Z" style="fill:#dbccc1"/><path d="M496,461.72s25.49.38,33.95-11.86c9.08-13.14-4.3-18.06-18.68-5.94A71.74,71.74,0,0,0,496,461.72Z" style="fill:#dbccc1"/><path d="M390.72,424.86h-2.65a4.66,4.66,0,0,1-4.67-4.68V381.93h12.11v38.25A4.85,4.85,0,0,1,390.72,424.86Z" style="fill:#171612"/><path d="M425.17,474v7.7h-5.55v-3.41a1.72,1.72,0,0,0-1.77-1.76H394a1.45,1.45,0,0,0-1.51,1.51v3.79h-6.31V478a1.46,1.46,0,0,0-1.52-1.51h-23.6a1.72,1.72,0,0,0-1.77,1.76v3.41h-5.55V474a3.13,3.13,0,0,1,3.16-3.16h29.28V372h6.43v98.86h29.53A3.1,3.1,0,0,1,425.17,474Z" style="fill:#171612"/><path d="M364.85,486.6a8.33,8.33,0,1,1-8.33-8.34A8.32,8.32,0,0,1,364.85,486.6Z" style="fill:#171612"/><path d="M356.52,491.27a4.8,4.8,0,1,1,4.79-4.8A4.71,4.71,0,0,1,356.52,491.27Z" style="fill:#5a554d"/><path d="M397.79,486.6a8.33,8.33,0,1,1-8.33-8.34A8.41,8.41,0,0,1,397.79,486.6Z" style="fill:#171612"/><path d="M389.46,491.27a4.8,4.8,0,1,1,4.79-4.8A4.71,4.71,0,0,1,389.46,491.27Z" style="fill:#5a554d"/><path d="M430.73,486.6a8.33,8.33,0,1,1-8.33-8.34A8.32,8.32,0,0,1,430.73,486.6Z" style="fill:#171612"/><path d="M422.52,491.27a4.8,4.8,0,1,1,4.8-4.8A4.88,4.88,0,0,1,422.52,491.27Z" style="fill:#5a554d"/><path d="M491.56,230.29,456.47,376.62a10.53,10.53,0,0,1-10.22,8.09H363.84a10.53,10.53,0,0,1-10.23-13l36-146.33a10.43,10.43,0,0,1,10.23-8h81.65A10.36,10.36,0,0,1,491.56,230.29Z" style="fill:#5a554d"/><path d="M482.6,230.29,447.51,376.62a10.53,10.53,0,0,1-10.22,8.09H354.88a10.53,10.53,0,0,1-10.23-13l36-146.33a10.43,10.43,0,0,1,10.23-8H472.5C479.06,217.28,484.11,223.72,482.6,230.29Z" style="fill:#171612"/><path d="M437.16,377.51H354.75a3.32,3.32,0,0,1-2.65-1.26,3.27,3.27,0,0,1-.63-2.91l36-146.33a3.37,3.37,0,0,1,3.28-2.53h81.66a3.33,3.33,0,0,1,2.65,1.26,3.3,3.3,0,0,1,.63,2.91L440.44,375A3.26,3.26,0,0,1,437.16,377.51ZM390.72,225.36a2.43,2.43,0,0,0-2.4,1.9l-36,146.33a1.9,1.9,0,0,0,.51,2,2.24,2.24,0,0,0,1.89.89h82.41a2.43,2.43,0,0,0,2.4-1.9l35.09-146.33a1.9,1.9,0,0,0-.51-2,2.24,2.24,0,0,0-1.89-.89Z" style="fill:#5a554d"/><path d="M305.66,389H444.1a11.9,11.9,0,0,0,11.62-9.22l1.89-7.95h-148Z" style="fill:#5a554d"/><path d="M307.55,389H435.14a11.9,11.9,0,0,0,11.62-9.22l1.89-7.95H307.55a8.59,8.59,0,0,0,0,17.17Z" style="fill:#171612"/><path d="M265.52,457.31,261.86,466,247,462l3.66-8.72Z" style="fill:#eaad8f"/><path d="M204.94,475.74l54.27,14.9a7.26,7.26,0,0,0,1.52-2.78c1.64-4.55,2.14-12.25,2.65-17.05,0-.5.12-1.13.12-1.51a15.77,15.77,0,0,1,.38-1.89c1-3.79-2.52-4-2.52-4-6.94,3.91-11-5.94-15.27-4.3,0,0-1.9.76-7.2,3.41s-13.38,3.28-20.32,4.17c-9,1.13-12.11,3.91-13.25,6.06A4,4,0,0,0,204.94,475.74Z" style="fill:#467b6c"/><path d="M204.94,475.74l54.27,14.9a7.26,7.26,0,0,0,1.52-2.78l-55.41-15.15A4,4,0,0,0,204.94,475.74Z" style="fill:#253f3d"/><path d="M253.66,489.12l1.64.38a11.85,11.85,0,0,1-.51-9.47,16,16,0,0,1,8.71-9.34c0-.51.13-1.14.13-1.52a17.13,17.13,0,0,0-10.1,10.48A12.71,12.71,0,0,0,253.66,489.12Z" style="fill:#253f3d"/><path d="M238.89,465.76a.85.85,0,0,0,1-.5.87.87,0,0,0-.38-1.26l-3.15-1.77a.93.93,0,0,0-.89,1.64l3.16,1.77C238.77,465.76,238.77,465.76,238.89,465.76Z" style="fill:#fff"/><path d="M242.8,464.12a.85.85,0,0,0,1-.5.87.87,0,0,0-.37-1.26l-3.16-1.77a.93.93,0,1,0-.88,1.64l3.15,1.77C242.68,464,242.68,464,242.8,464.12Z" style="fill:#fff"/><path d="M235,466.77a.85.85,0,0,0,1-.5.87.87,0,0,0-.38-1.26l-3.15-1.77a.93.93,0,1,0-.89,1.64l3.16,1.77C234.85,466.77,234.85,466.77,235,466.77Z" style="fill:#fff"/><path d="M231.07,467.78a.85.85,0,0,0,1-.5.88.88,0,0,0-.38-1.26l-3.16-1.77a.93.93,0,1,0-.88,1.64l3.15,1.77C230.94,467.78,230.94,467.78,231.07,467.78Z" style="fill:#fff"/><path d="M226.9,468.54a.85.85,0,0,0,1-.5.88.88,0,0,0-.38-1.27L224.38,465a.93.93,0,0,0-.89,1.64l3.16,1.77C226.78,468.54,226.78,468.54,226.9,468.54Z" style="fill:#fff"/><path d="M222.48,468.92a.86.86,0,0,0,1-.5.88.88,0,0,0-.37-1.27L220,465.39a.87.87,0,0,0-1.26.37.88.88,0,0,0,.38,1.27l3.15,1.76C222.36,468.92,222.36,468.92,222.48,468.92Z" style="fill:#fff"/><path d="M354.25,323.09S287.36,340,278.39,347.58s-28.9,100.38-29,105.68c0,.51,17.41,5.43,17.41,5.43S301.11,386.85,303,376.5c0,0,39.25-4.67,57.17-15.15s24.48-21.09,24.48-21.09Z" style="fill:#6059c9"/><path d="M277.76,348.72c1.52,3,4.17,4.93,7.2,6.31.5.26,1-.5.5-.75-2.9-1.27-5.42-3-6.81-5.94C278.27,347.71,277.38,348.22,277.76,348.72Z" style="fill:#1c2b74"/><path d="M251.13,447a92.27,92.27,0,0,1,17.29,5.81c.51.25,1-.51.51-.76a87.59,87.59,0,0,0-17.54-5.81A.41.41,0,1,0,251.13,447Z" style="fill:#1c2b74"/><path d="M266.78,451.24c9.85-20.58,19.44-41.28,27.52-62.62,2.14-5.68,4.29-11.49,6.18-17.3a1.8,1.8,0,0,1-.5.38A95.26,95.26,0,0,0,325.85,368c6.81-2,13.25-5.18,19.81-8.08.51-.25.13-1-.5-.76-6.44,2.9-12.75,5.94-19.56,8-8.33,2.52-16.92,3.4-25.62,3.66-.26,0-.38.12-.51.38-6.94,21.46-16,42.17-25.49,62.62-2.65,5.68-5.3,11.36-8.08,17.05C265.65,451.37,266.53,451.75,266.78,451.24Z" style="fill:#1c2b74"/><path d="M318,252.89s-8.58,43.31-7.69,53.28S329,326.12,329,326.12l12.5-2.65S335.69,306.3,331,301.25l8-38Z" style="fill:#eaad8f"/><path d="M324.33,214.51A244.81,244.81,0,0,0,315,256.17s11.24,13.51,24.49,9.72Z" style="fill:#c04d3a"/><path d="M418.36,318.54h0a2.71,2.71,0,0,1-.76,1C415,322,405.86,324.48,395,326.37c-.38.13-.88.13-1.26.26-4,.63-8.33,1.26-12.62,1.64-.38,0-.76.12-1,.12-18.81,1.77-37.74.89-38.24-5.93,0-.76-.13-1.52-.13-2.4a4.57,4.57,0,0,0-.13-1.26c-.12-2.53-.37-5.18-.63-8.21a4.93,4.93,0,0,0-.12-1.26c-.26-4-.51-8.71-.89-14.77a5.93,5.93,0,0,0-.12-1.39c-.13-1.27-.13-2.4-.25-3.79,0-.88-.13-1.64-.13-2.53a3.36,3.36,0,0,0-.13-1.13,5.41,5.41,0,0,0-.12-1.39c-.13-2.65-.38-5.3-.63-8,0-.5-.13-.88-.13-1.38a98.07,98.07,0,0,0-2.9-17.55c0-.26-.13-.38-.26-.64s-.12-.38-.25-.63c-1.13-3.28-2.14-6.31-3.28-9.21-.25-.51-.38-1.14-.63-1.65-3-8.33-5.81-15-7.19-20.58a3.56,3.56,0,0,1-.26-1.13,26.43,26.43,0,0,1-.63-6.69,3.89,3.89,0,0,1,.25-1.14c.76-2,2.78-4.42,5.43-6.69a3,3,0,0,1,.76-.63,98.11,98.11,0,0,1,13.5-9.22l20.2-9.34a153.12,153.12,0,0,1,16.28,1.76c.38,0,.75.13,1,.13a49,49,0,0,1,9.71,2.53c.38.12.64.25,1,.37l1.52.76c6.56,3.54,9.84,17.93,12.24,32.83.13.63.25,1.39.38,2,1,6.19,1.89,12.5,2.78,17.93.12.5.12.88.25,1.39.5,3,1,5.8,1.64,8.2.63,2.66,1.51,5.69,2.27,8.84.13.51.25.89.38,1.39,2.65,10.35,5.68,22.73,6.56,33.33,0,.63.13,1.27.13,1.77C420.25,309.2,419.87,314.63,418.36,318.54Z" style="fill:#c04d3a"/><path d="M329.13,221.2a8.64,8.64,0,0,0-4.67,3.79,3.6,3.6,0,0,1-.25-1.14,9.89,9.89,0,0,1,4.67-3.54C329.38,220.06,329.63,221,329.13,221.2Z" style="fill:#df7668"/><path d="M329.13,209.2a25.38,25.38,0,0,0,12.37,6.44,31.9,31.9,0,0,0,26-5.68A40.75,40.75,0,0,0,381,191.91a3.06,3.06,0,0,0-1-.13,55.1,55.1,0,0,1-4.54,8.46c-5.18,7.45-12.88,13.13-21.84,14.77-8.33,1.39-17.29-.63-23.6-6.44A4,4,0,0,0,329.13,209.2Z" style="fill:#df7668"/><path d="M384.66,236.22c-.25-2.65-1.77-5.05-3.28-7.19-3.16-4.3-7.32-9.6-13.38-8.72-5.68.76-7.57,7.08-6.69,12s3.79,10.1,8.46,12.63a10.89,10.89,0,0,0,12.49-1.52A9.46,9.46,0,0,0,384.66,236.22Zm-2,4.93c-2.14,3.53-7.19,4.8-11,3.41-4.42-1.52-7.44-5.81-8.83-10.1-1.52-4.55-1.39-11.11,3.91-13.13,6.06-2.28,10.85,3.78,13.88,8.08C383,233.07,385.17,237.11,382.64,241.15Z" style="fill:#df7668"/><path d="M335.44,256.43c.13.25.13.37.25.63s.13.38.26.63c2.77-3.66,5.8-7.2,8.83-10.73a79.87,79.87,0,0,1,6.44-6.82c1.13-1.14,3.66-2.4,4.67-.26.63,1.27,0,3.29-.26,4.55a53.21,53.21,0,0,1-5.17,15.66A62.09,62.09,0,0,1,339,275.36c0,.51.13.89.13,1.39a49.46,49.46,0,0,0,5.55-6.06,61.17,61.17,0,0,0,8.84-14.52,70,70,0,0,0,2.77-8.71,39.09,39.09,0,0,0,.89-5.3,5,5,0,0,0-.38-3c-1.26-2.15-4.17-1.39-5.68,0-2.78,2.27-5,5.17-7.45,7.83A96.51,96.51,0,0,0,335.44,256.43Z" style="fill:#df7668"/><path d="M339.61,286a3.69,3.69,0,0,0,.12,1.14,81,81,0,0,0,8.46-4.8c7.44-5.05,13.88-11.62,20.32-17.93,3.28-3.28,6.56-6.57,10.09-9.6a42.25,42.25,0,0,1,11.11-7.57c6.56-2.65,13.5-1.14,19.31,2.4-.13-.51-.13-.89-.25-1.39-5.81-3.41-12.88-4.67-19.31-2.15-3.92,1.52-7.2,4.17-10.35,6.82-3.66,3.16-7.07,6.44-10.48,9.85C359.8,271.2,350.59,280.54,339.61,286Z" style="fill:#df7668"/><path d="M394.25,286.85c3.92,2.28,8.21,3.54,12.25,5.56a40.46,40.46,0,0,1,9.71,6.94,52.08,52.08,0,0,1,3.66,3.92c0-.63-.12-1.26-.12-1.77-.76-.76-1.39-1.64-2.15-2.4a49.76,49.76,0,0,0-8.2-6.44c-3.54-2-7.32-3.41-11-5.05s-7.32-3.79-9.59-7.32a9.29,9.29,0,0,1,.12-11c5.3-7.19,15.78-5.55,22.72-2.27a10.93,10.93,0,0,1,1.64.88c-.13-.5-.25-.88-.38-1.38a31.37,31.37,0,0,0-3-1.39c-7.06-2.78-16.66-3.41-21.7,3.41C382.89,275.49,387.94,283.19,394.25,286.85Z" style="fill:#df7668"/><path d="M385.17,317.16c2.77,3.28,5.68,6.31,8.58,9.47.38-.13.88-.13,1.26-.26-3-3.15-6.06-6.31-9-9.59-3.41-3.92-6.82-9.6-3.53-14.65,3.53-5.43,11.23-1.39,15.52.76a54.49,54.49,0,0,1,19.56,16.79,1.87,1.87,0,0,0,.63-.88,53.8,53.8,0,0,0-9.34-10,55.52,55.52,0,0,0-14.64-8.71c-2.65-1-5.68-2.15-8.45-1.51a7.11,7.11,0,0,0-4.93,4.54C378.86,308.19,381.76,313.24,385.17,317.16Z" style="fill:#df7668"/><path d="M374.82,283.19c-.51,3.41-4.67,5.43-7.2,7.33-8.83,6.31-17.79,12.62-26.63,18.93a4.22,4.22,0,0,0,.13,1.27c4.67-3.29,9.34-6.57,14-10,3.41-2.4,6.69-4.8,10.1-7.19q2.64-1.91,5.3-3.79a27,27,0,0,0,3.66-2.91c1.76-1.89,2.77-4.92,1.13-7.07-1.77-2.4-5.05-1.89-7.44-1.13a72.26,72.26,0,0,0-27.64,14.77,5.49,5.49,0,0,0,.12,1.39,62.44,62.44,0,0,1,10.6-7.58,69.39,69.39,0,0,1,16.92-7.32,10.33,10.33,0,0,1,4.79-.51C374.19,279.66,375.07,281.3,374.82,283.19Z" style="fill:#df7668"/><path d="M341.62,318.8a4.57,4.57,0,0,0,.13,1.26c3-2.4,6.06-5.05,9.59-6.82a20.13,20.13,0,0,1,28.78,15.15c.38,0,.75-.12,1-.12a21.22,21.22,0,0,0-29.28-16.42C348.06,313.49,344.91,316.27,341.62,318.8Z" style="fill:#df7668"/><path d="M354.12,208.07c-6.06.12-11.11-3.79-11.23-3.92a.72.72,0,1,1,.88-1.13c.13.12,5.68,4.42,12,3.53,3.53-.5,6.69-2.65,9.34-6.44a.76.76,0,0,1,1-.12.77.77,0,0,1,.13,1c-2.78,4-6.32,6.44-10.23,6.94A10.6,10.6,0,0,1,354.12,208.07Z" style="fill:#df7668"/><path d="M332.16,177.13s-5.05-5.68-5.05-19.57c0,0-11.11-5.68-8.58-11.11s11.23-3.15,11.23-3.15-6.06-6.06-.76-8.59,10,2.15,10,2.15-1.51-5.56,4.42-4.42,7.7,4,7.7,4,12.37-2.4,18.17,6.31,4.17,18.43,1.14,25-6.94,10-4.67,14.39-1.51,6.32-6.06,3S332.16,177.13,332.16,177.13Z" style="fill:#171612"/><path d="M331.78,169.56s-2.15.5-2.15,3.41,2.15,7.32,4.8,6.31C337.33,178.14,331.78,169.56,331.78,169.56Z" style="fill:#c6695d"/><path d="M343.77,200.62a16.18,16.18,0,0,0,4.92,2.78,11.74,11.74,0,0,0,5.43.63l.88-.13.89-.25a13.41,13.41,0,0,0,2.9-1.14,15.33,15.33,0,0,0,6.56-6.44,18.84,18.84,0,0,0,2.15-5.17l-1.14-2.28c-1.64-3.53-3.15-7.32-4.67-11.11v-.38l-.38-.75-.25-.64-.63.51-1,.76-16.91,14,.38,2.91.12,1.51.26,2.65Z" style="fill:#eaad8f"/><path d="M362.07,176.25c-.13.25-.13.5-.25.76v.38c-.13.5-.25.88-.38,1.38-2.15,7.2-10,15.16-17.17,15.28H343c-7.06-.63-10-8.33-10-14.27v-.63a9.65,9.65,0,0,1-.25-1.13,21.13,21.13,0,0,1-.38-2.28c-.5-2.65-1.39-6.69-2.52-10.47-1.9-6.82,1.26-17.68,15.14-22s20.45,5.42,21,12.75a26,26,0,0,1-.38,6.18c1.39-.12,2.91.51,3.92,2.78C371.54,168.93,367,175.11,362.07,176.25Z" style="fill:#eaad8f"/><path d="M329.13,154.15s-2.4,5.43,4,3.41,10.35-8.33,16.53-5.93c4.8,1.89.38,5.93,5.81,6.94s-.26,6.06,2.14,9.09,6.06-6.94,10.6-6.31,1.65-16.29-9.59-19.57S334.18,144.31,329.13,154.15Z" style="fill:#171612"/><path d="M334.94,171.58c.25,1,.88,1.64,1.38,1.51s.76-1,.51-2-.88-1.64-1.39-1.51A1.75,1.75,0,0,0,334.94,171.58Z" style="fill:#171612"/><path d="M338,169.94h0c.13-.26.13-.38,0-.51s-2.77-1.26-4.54.63a.27.27,0,0,0,.38.38c1.64-1.51,3.91-.5,4-.5Z" style="fill:#171612"/><path d="M343.39,169.68c.25,1,.88,1.65,1.39,1.52s.76-1,.5-2-.88-1.64-1.38-1.52A1.77,1.77,0,0,0,343.39,169.68Z" style="fill:#171612"/><path d="M346.42,168c0-.12.13-.12,0,0,.13-.25.13-.38,0-.5s-2.78-1.26-4.54.63a.23.23,0,0,0,0,.38.25.25,0,0,0,.38,0c1.64-1.52,3.91-.51,4-.51Z" style="fill:#171612"/><g style="opacity:0.5"><g style="opacity:0.5"><g style="opacity:0.5"><g style="opacity:0.5"><g style="opacity:0.5"><path d="M346,174c.13.63,1.89.88,3.91.5s3.54-1.26,3.41-1.89-1.89-.89-3.91-.51S345.79,173.35,346,174Z" style="fill:#c6695d;opacity:0.5;isolation:isolate"/></g></g></g></g></g><g style="opacity:0.5"><g style="opacity:0.5"><g style="opacity:0.5"><g style="opacity:0.5"><g style="opacity:0.5"><path d="M332.92,177.89c1.38-.5,2.27-1.13,2.14-1.64s-1.13-.76-2.65-.63C332.66,176.5,332.79,177.26,332.92,177.89Z" style="fill:#c6695d;opacity:0.5;isolation:isolate"/></g></g></g></g></g><path d="M337.33,176c-.12,0-.25-.13-.38-.26h-.12a4.69,4.69,0,0,1-2.15,1.65,5.12,5.12,0,1,1,2.78-6.7,5,5,0,0,1,.38,2.66c.12,0,.25-.13.38-.13a1.29,1.29,0,0,1,.63-.25,6.54,6.54,0,0,0-.51-2.65,6.08,6.08,0,1,0-3.28,8,6.41,6.41,0,0,0,2.65-2.15A1.29,1.29,0,0,0,337.33,176Z" style="fill:#fff"/><path d="M348.06,175a6.09,6.09,0,1,1,3.28-8A6.08,6.08,0,0,1,348.06,175Zm-4.29-10.23a5.12,5.12,0,1,0,6.69,2.78A5,5,0,0,0,343.77,164.76Z" style="fill:#fff"/><path d="M328.5,175.11H328c-.25-.12-.25-.38-.12-.63a6,6,0,0,1,3-2.14.46.46,0,0,1,.63.25.47.47,0,0,1-.25.63,5.28,5.28,0,0,0-2.53,1.77C328.63,175,328.5,175,328.5,175.11Z" style="fill:#fff"/><path d="M350,165.14c3.66-2.65,6.19-3,8-2.9l-.26,1c-1.64-.13-3.66.25-7.06,2.77-.26.13-.51.13-.64-.12S349.7,165.27,350,165.14Z" style="fill:#fff"/><path d="M343.77,200.62c7.07-2.53,10.48-8.59,11.86-12.38-3.28,3.29-7.44,5.69-11.36,5.81H343Z" style="fill:#171612"/><path d="M358.28,176.12a3.94,3.94,0,0,0,1.27.89,5,5,0,0,0,2.27.38V177c0-.26.12-.51.12-.76h-.5a3.06,3.06,0,0,1-1-.13,4.3,4.3,0,0,1-1.52-.75.46.46,0,0,0-.75,0C358,175.62,358,176,358.28,176.12Z" style="fill:#c6695d"/><path d="M345.41,177.89s.76,4.67-3,5.68-5.05-2.65-5.05-2.65Z" style="fill:#fff"/><path d="M343.52,185.21c.75-.37,1-.88,1-1s0-.37-.13-.5-.38,0-.5.13a1.55,1.55,0,0,1-1.39.75.38.38,0,0,0,0,.76A1.31,1.31,0,0,0,343.52,185.21Z" style="fill:#c6695d"/><path d="M362.57,172.59c.26-.13.38-.25.38-.51-.12-3.78,3.92-6.31,3.92-6.31A.48.48,0,0,0,367,165a.47.47,0,0,0-.76-.12c-.12.12-4.54,2.9-4.41,7.19a.54.54,0,0,0,.5.51Z" style="fill:#c6695d"/><path d="M366.61,169.56a.13.13,0,0,0,.13-.13.48.48,0,0,0,0-.76,3.94,3.94,0,0,0-3.53-.88c-.26.13-.51.38-.38.63s.38.51.63.38a2.57,2.57,0,0,1,2.4.51A1.23,1.23,0,0,0,366.61,169.56Z" style="fill:#c6695d"/><path d="M340.11,177.39a.27.27,0,0,0,.25-.26.42.42,0,0,0-.38-.63l-3.28-1.26,2.27-1.52c.13-.12.26-.25.26-.37l.88-6.7a.57.57,0,1,0-1.14-.12l-.75,6.44-2.91,1.89a.68.68,0,0,0-.25.51.33.33,0,0,0,.38.37l4.29,1.52A.46.46,0,0,0,340.11,177.39Z" style="fill:#c6695d"/><path d="M340.24,168.93h-.51a1.2,1.2,0,0,0-1.77.38.45.45,0,0,1-.75-.51,2.2,2.2,0,0,1,3-.63.44.44,0,0,1,.12.63C340.49,168.8,340.36,168.93,340.24,168.93Z" style="fill:#fff"/><path d="M348.94,162.61a2.22,2.22,0,0,0,.38-.63,1.49,1.49,0,0,0-.88-1.89c-.13-.13-4.42-1.64-7.32,1.64a1.43,1.43,0,0,0,2.15,1.89c1.51-1.76,4-.88,4-.88A1.48,1.48,0,0,0,348.94,162.61Z" style="fill:#171612"/><path d="M331.65,166a2,2,0,0,0,1-.75c.63-1,2.65-1,3.16-1a1.47,1.47,0,0,0,.38-2.91c-1.64-.25-4.8,0-6.06,2.4a1.54,1.54,0,0,0,1.51,2.27Z" style="fill:#171612"/><path d="M419.12,316.4s-28.53,10.48-60.33,9.85c-12.75-.26-17-4.67-17-4.67-.63,3.15-3.41,4.79-7.45,6.81,0,0,36.1,12.76,65.51,5.69C423.53,336.22,419.12,316.4,419.12,316.4Z" style="fill:#6059c9"/><path d="M345.92,464.5l-1.27,9.22H329.26l1.13-9.22Z" style="fill:#eaad8f"/><path d="M292.28,498.21h56.29a9.64,9.64,0,0,0,.75-3.15c.38-4.8-1.26-12.38-2-17.17-.12-.51-.12-1.14-.25-1.52a13,13,0,0,1-.12-2c0-3.91-3.54-3.28-3.54-3.28-5.68,5.55-12.11-2.78-15.9,0a70.58,70.58,0,0,0-6.06,5.17c-4.42,4-12,6.7-18.55,9.47-8.33,3.54-10.73,7-11.11,9.47A4.64,4.64,0,0,0,292.28,498.21Z" style="fill:#467b6c"/><path d="M292.28,498.21h56.29a9.64,9.64,0,0,0,.75-3.15H291.9A4.43,4.43,0,0,0,292.28,498.21Z" style="fill:#253f3d"/><path d="M342.89,498.21h1.64a12.14,12.14,0,0,1-3-9A15.36,15.36,0,0,1,347.43,478c-.13-.5-.13-1.13-.25-1.51a16.77,16.77,0,0,0-6.94,12.75A12.86,12.86,0,0,0,342.89,498.21Z" style="fill:#253f3d"/><path d="M322.44,479.65a.91.91,0,0,0,.88-.75.9.9,0,0,0-.63-1.14l-3.53-.88a.92.92,0,1,0-.51,1.76l3.54.89C322.31,479.65,322.31,479.65,322.44,479.65Z" style="fill:#fff"/><path d="M325.72,476.87a.93.93,0,0,0,.89-.75A.91.91,0,0,0,326,475l-3.53-.88a.91.91,0,1,0-.5,1.76l3.53.89A.41.41,0,0,0,325.72,476.87Z" style="fill:#fff"/><path d="M318.91,481.67a.92.92,0,0,0,.88-.75.91.91,0,0,0-.63-1.14l-3.53-.88a.92.92,0,1,0-.51,1.76l3.53.89A.42.42,0,0,0,318.91,481.67Z" style="fill:#fff"/><path d="M315.37,483.69a.93.93,0,0,0,.89-.75.91.91,0,0,0-.63-1.14l-3.54-.88a.91.91,0,1,0-.5,1.76l3.53.89A.41.41,0,0,0,315.37,483.69Z" style="fill:#fff"/><path d="M311.59,485.46a.92.92,0,0,0,.88-.76.9.9,0,0,0-.63-1.13l-3.53-.89a.92.92,0,1,0-.51,1.77l3.53.88C311.46,485.46,311.46,485.46,311.59,485.46Z" style="fill:#fff"/><path d="M307.42,487a.94.94,0,0,0,.89-.76.91.91,0,0,0-.64-1.14l-3.53-.88a.9.9,0,0,0-1.14.63.92.92,0,0,0,.64,1.14l3.53.88A.39.39,0,0,0,307.42,487Z" style="fill:#fff"/><path d="M381.63,328.14s-40.26,17.42-53.13,30.43c-13,13.26-1.77,108.33-1.77,108.33a162.24,162.24,0,0,0,20.7.51c3.66-33.46,11.86-75.26,10.1-89.9,0,0,51.74-6.69,59.69-19.45,7.07-11.36,2.53-38.51,2.53-38.51Z" style="fill:#6059c9"/><path d="M325.34,367.66a33.43,33.43,0,0,0,12.25,1.26c.5,0,.5-.88,0-.88a36.31,36.31,0,0,1-12.12-1.26C325,366.65,324.84,367.53,325.34,367.66Z" style="fill:#1c2b74"/><path d="M327,462.1c6.82-.25,13.51-.38,20.32-.38a.44.44,0,1,0,0-.88c-6.81,0-13.5.13-20.32.38C326.35,461.22,326.35,462.23,327,462.1Z" style="fill:#1c2b74"/><path d="M371,330.92c-7.57,4.42-15.52,8.21-23.22,12.25-7.32,3.91-14.52,7.95-19.44,14.89a31.54,31.54,0,0,0-5.55,13.77c-.13.63.76.88.88.25,1.39-9.22,6.69-16.79,14.39-22,6.69-4.55,14.26-8.08,21.46-11.87,4-2.15,8.07-4.17,12-6.44A.51.51,0,0,0,371,330.92Z" style="fill:#1c2b74"/><path d="M414.19,318A187.43,187.43,0,0,1,416,336.73c0,6.56-.63,15.4-6.06,20.07-2.4,2-5.68,3.28-8.71,4.29a108.91,108.91,0,0,1-11.1,3.16c-7.83,1.89-15.78,3.16-23.6,4.29-4.55.64-9.09,1.14-13.63,1.65a.54.54,0,0,0-.51.5,94.47,94.47,0,0,1,0,19.82c-.5,4.8-1.51,9.6-2.27,14.4-.88,5-1.26,10.22-1.77,15.27l-1.89,19.7c-.76,7.2-1.39,14.39-1.77,21.59a.45.45,0,1,0,.89,0c.75-13,2.27-25.88,3.53-38.89.51-5.43.88-11,1.77-16.41.75-4.55,1.76-9.09,2.27-13.64a100.74,100.74,0,0,0,.25-21.33,310.42,310.42,0,0,0,35.47-5.43c6.94-1.52,14.51-3.29,20.57-7.07s7.07-12,7.44-18.31c.26-5.18-.88-17.17-1.64-22.35Z" style="fill:#1c2b74"/><path d="M412.81,351.88a11,11,0,0,1-3.29-.51c-9.59-2.9-14.13-28.15-14.38-29.29l1.51-.25c0,.25,4.54,25.38,13.25,28,2.78.88,4.92.5,6.57-1,6.94-6.44,1.89-31.69,1.76-32l1.52-.38c.25,1.14,5.42,26.39-2.28,33.46A6,6,0,0,1,412.81,351.88Z" style="fill:#fff"/><path d="M380,325.87l-74.21,12a.27.27,0,0,1-.25-.25L304,328.39a.28.28,0,0,1,.26-.25l74.21-12a.27.27,0,0,1,.25.25l1.51,9.22Z" style="fill:#171612"/><path d="M297.7,339.13a6.11,6.11,0,0,1-6.68-3.67l-22.47-50.12a5,5,0,0,1,3.79-7.07l33.44-5.43a4.93,4.93,0,0,1,5.43,2.9l26.38,56.95Z" style="fill:#171612"/><path d="M313.61,323.47l-1.14-2.78,2.27-.38-1.39-2.4,3-.5,1.39,2.4,1.89-.38-1.38-2.4,3-.51,1.38,2.4,2.65-.5,1.14,2.78-2.27.37,1.26,2.28,2.65-.51,1.14,2.78-2.28.38,1.39,2.4-3,.5L324,327l-1.9.38,1.39,2.4-3,.51-1.39-2.4-2.65.5-1.13-2.77,2.27-.38L316.26,323Zm6.81,1.26,1.89-.38-1.26-2.27-1.89.38Z" style="fill:#c04d3a"/><path d="M311.21,275.74l26.12,56.44,3.79-.63L315,275.11a5.15,5.15,0,0,0-5.42-2.9l-3.79.63A5.08,5.08,0,0,1,311.21,275.74Z" style="fill:#171612"/><path d="M331.91,311.47a9.13,9.13,0,0,1,9.08-2c5.43,1.65,12.75,10.74,12.75,10.74l-16.53,2.65Z" style="fill:#eaad8f"/><path d="M337,331.93h0a.56.56,0,0,0,.38-.76l-26-56.31a.56.56,0,0,0-1,.5l26,56.32A1,1,0,0,0,337,331.93Z" style="fill:#5a554d"/><path d="M306.54,306.17c1.26,3.16-.38,6.19-3.66,6.69a8.25,8.25,0,0,1-8.33-4.79c-1.26-3.16.38-6.19,3.66-6.7A8.27,8.27,0,0,1,306.54,306.17Z" style="fill:#5a554d"/><path d="M383.53,219.05l1.13,1.14,1.14,1.26c.75.88,1.64,1.77,2.39,2.65,1.65,1.77,3.16,3.54,4.67,5.31,3.16,3.53,6.06,7.19,8.84,11a125.28,125.28,0,0,1,7.7,11.24c1.13,1.89,2.27,3.78,3.15,5.55s1.64,3.66,2.27,5.31c.13.25.13.37.26.63v-1c.12,0,0,.63-.13,1.26s-.5,1.51-.76,2.4-.75,1.77-1.26,2.78c-.88,1.89-2,3.91-3.15,5.93-.63,1-1.14,2-1.77,3l-1.89,3c-1.27,2-2.65,4-4,5.93s-2.78,3.92-4.17,5.94-2.9,3.91-4.29,5.93l-2.14,2.91-1.14,1.51-1.14,1.39-.12.13a7.44,7.44,0,0,0,11,10l1.39-1.39,1.38-1.26c.89-.88,1.9-1.77,2.78-2.65l5.43-5.43,5.3-5.68c1.77-1.9,3.41-3.92,5.05-5.94.88-1,1.64-2,2.52-3s1.64-2.14,2.4-3.15a75,75,0,0,0,4.67-7,37.56,37.56,0,0,0,2.14-3.91,30.25,30.25,0,0,0,2-4.55,22.16,22.16,0,0,0,1.52-6.06,17.54,17.54,0,0,0,0-4.42,1.12,1.12,0,0,0-.13-.63c0-.25-.12-.38-.12-.63l-.13-.38v-.25l-.13-.25c-.12-.38-.12-.76-.25-1.14a58.67,58.67,0,0,0-3-8.71c-1.13-2.65-2.4-5.3-3.66-7.7a132.68,132.68,0,0,0-8.58-13.76c-3-4.42-6.31-8.46-9.59-12.5-1.64-2-3.41-4-5.18-5.94-.88-1-1.76-1.89-2.65-2.9l-1.38-1.39-1.52-1.52a12.06,12.06,0,0,0-17.42,16.67Z" style="fill:#eaad8f"/><path d="M419.12,257.69a13.23,13.23,0,0,0-2.28,3c-.25.5.51.88.76.5a14.43,14.43,0,0,1,2.15-2.77C420.13,257.81,419.49,257.18,419.12,257.69Z" style="fill:#c6695d"/><path d="M415.08,262.36a10.87,10.87,0,0,1,7.32-3.28.44.44,0,1,1,0,.88,9.72,9.72,0,0,0-6.69,3C415.33,263.37,414.7,262.74,415.08,262.36Z" style="fill:#c6695d"/><path d="M399.43,308.19a7.3,7.3,0,0,1-4.42,9.09,18.33,18.33,0,0,0-5.3,3c-3.28,2.91-6.18,7.33-8.2,8.34-3,1.51-2-2-1.77-2.4a41.66,41.66,0,0,1,3.53-6.06s-5.55,4.92-6.69,7.57-3.78,3.28-4,.13,4.66-9.85,6.56-11.36c0,0-4.17,2.14-5.93,5.68s-2.91,4.54-4.29,5.43-2.78-2-.26-6.82a17.21,17.21,0,0,1,7.07-7.58,37.94,37.94,0,0,0-5.43,1.9c-3.28,1.51-5,5.68-7.19,5.68s0-4.93,2.4-6.95,3.91-3.78,7.82-5.17a56.48,56.48,0,0,1,10.1-2.65c2.52-.26,11.36-2.28,14.39-.38A5.92,5.92,0,0,1,399.43,308.19Z" style="fill:#eaad8f"/><path d="M390.34,305.41s-7.45-1.89-10-1.26-6.69.38-6.31,2.15,5.43,1.89,5.43,1.89Z" style="fill:#eaad8f"/><path d="M377.09,217.16c1.26,6.06,12.11,13.76,17.92,20.83.25.25,2,2.15,2.27,2.4a38.68,38.68,0,0,1,3.54,4.8c9.59-5.94,14.26-9.6,18.3-16.29.25-.38.37-.63.63-1a22,22,0,0,0,2.65-7.07,79.58,79.58,0,0,0-20.07-20.2,4.29,4.29,0,0,0-1-.63,47.12,47.12,0,0,0-8.83-4.93,26.39,26.39,0,0,0-8.59,4.55c-.25.25-.63.5-.88.76A17.66,17.66,0,0,0,377.09,217.16Z" style="fill:#c04d3a"/><path d="M405.36,216.53c3.53,5.17,8.71,9,13.88,12.37.25-.38.38-.63.63-1-4.79-3.16-9.46-6.69-12.87-11.24s-5.43-10.35-4.54-15.91a4.65,4.65,0,0,0-1-.63C400.31,205.79,402.08,211.86,405.36,216.53Z" style="fill:#df7668"/><path d="M394.63,237.11a2.84,2.84,0,0,1,.88.88c1.65-5.18.64-11.36-.88-16.67-2.14-7.82-5.17-15.65-10.73-21.71l-.75-.76c-.51-.5-1.27.25-.76.88a3.78,3.78,0,0,1,.63.76c5.05,5.56,8,12.75,10.1,19.82C394.63,225.36,396.15,231.8,394.63,237.11Z" style="fill:#df7668"/><path d="M382.39,222c5.8,8.08,11.86,15.9,18.17,23.61.38.5,1-.26.63-.64-6.18-7.7-12.24-15.53-18-23.48C382.77,221,382,221.45,382.39,222Z" style="fill:#7e231a"/><path d="M384,229c1.77.75,3.66,1.51,5.43,2.4.5.25,1-.64.5-.76-1.77-.76-3.66-1.52-5.43-2.4C383.9,227.89,383.4,228.77,384,229Z" style="fill:#7e231a"/><path d="M338,264.51a98.78,98.78,0,0,0-11-31.95c-.25-.5-1.13,0-.75.51a97.58,97.58,0,0,1,10.85,31.69C337.08,265.39,338.09,265.14,338,264.51Z" style="fill:#7e231a"/><path d="M138.68,76.38c-7.19,1.26-29,6.18-46.69-3.54.38-3.15.75-25,.5-29.16-.63-10,.88-38,21.46-39s35,13.89,28.77,31.82C140.07,43.68,138.05,66.91,138.68,76.38Z" style="fill:#171612"/><path d="M129.09,86.48l.25.88.26.89L130,90c.25,1.14.63,2.28.88,3.54.63,2.27,1.26,4.67,2,6.94,1.39,4.55,2.9,9.22,4.67,13.77A141.34,141.34,0,0,0,143.61,128c.37.76.75,1.39,1.13,2.14a7.58,7.58,0,0,0,.63,1,34.47,34.47,0,0,0,2.53,3.91,35.62,35.62,0,0,0,3,3.91l.5.51.25.25.26.25.5.51c.25.12.38.38.63.5l.38.26.13.12.25.13c.12.12.25.12.38.25s.25.25.38.25c.25.26.63.38.88.63l.25.13.25.13.51.25a.91.91,0,0,0,.5.25c.26.13.38.13.63.25s.38.13.64.26a.46.46,0,0,1,.25.12l.25.13,1.14.38c.37.12.63.12,1,.25.12,0,.37.13.5.13l.51.12c.25,0,.63.13.88.13.5,0,1.13.13,1.64.13a23.17,23.17,0,0,0,5.3-.26c1.51-.25,3-.5,4.42-.75s2.65-.64,3.91-1c.63-.26,1.26-.38,1.89-.64.26-.12.51-.12.76-.25s.63-.25,1-.38c1.26-.38,2.4-.88,3.53-1.26s2.28-.88,3.41-1.39l3.41-1.51c4.42-2,8.71-4.17,12.87-6.57,2.15-1.14,4.17-2.4,6.19-3.66l3-1.89,1.51-1,.76-.51.75-.5a6.46,6.46,0,0,0-5.55-11.49h-.25l-.76.25-.76.25-1.64.51-3.28,1-6.56,2.14c-2,.63-4.17,1.27-6.18,1.9a3.18,3.18,0,0,1-1,.25c-1.9.63-3.92,1.14-5.81,1.77-2.15.63-4.29,1.26-6.31,1.76s-4,1-5.93,1.39h-.25a.94.94,0,0,0-.51.13L170,124a19.86,19.86,0,0,1-2.52.25H167c-.25-.38-.63-.88-1-1.51s-.88-1.52-1.38-2.4-.89-1.77-1.39-2.65c-.89-1.9-1.77-3.79-2.65-5.81s-1.64-4-2.53-6.06c-.12-.26-.25-.63-.38-.89a1.85,1.85,0,0,1-.25-.75c-1.39-3.54-2.77-7.2-4.16-10.86l-.63-1.77-.26-.76L150.93,87l-1.14-3.15-.63-1.64-.25-.76-.26-.76-.12-.25a10.17,10.17,0,0,0-13.13-5.81A10.65,10.65,0,0,0,129.09,86.48Z" style="fill:#c04d3a"/><path d="M144.74,130.17a8.1,8.1,0,0,0,.63,1,38.78,38.78,0,0,1,12.37-25.89,1.71,1.71,0,0,1-.25-.76l-.25.26A39.1,39.1,0,0,0,144.74,130.17Z" style="fill:#7e231a"/><path d="M172.25,124v1.89a7.29,7.29,0,0,0,1.77,4.8,5.57,5.57,0,0,0,5.18,1.26c3.91-.88,7.06-4.54,9.34-7.57a24.34,24.34,0,0,0,3.4-5.81,2.88,2.88,0,0,1-1,.25,26.55,26.55,0,0,1-2.9,4.8c-2.15,2.9-5.43,6.82-9.09,7.58-4.79,1-6.05-2.78-6.05-7.45h-.26C172.63,123.85,172.51,123.85,172.25,124Z" style="fill:#7e231a"/><path d="M153.45,141.53l.25.12c.13.13.25.13.38.26a19.48,19.48,0,0,1,15.65-4.3,18.85,18.85,0,0,1,10,5.31c.25-.13.51-.13.76-.26a19.35,19.35,0,0,0-15.9-5.93A20.65,20.65,0,0,0,153.45,141.53Z" style="fill:#7e231a"/><path d="M138.43,78.65A17,17,0,0,0,148.78,90.9a13.62,13.62,0,0,0,3.79.88l-.26-.76a10.34,10.34,0,0,1-3.28-.88,16,16,0,0,1-9.84-11.74C139.06,78,138.3,78.15,138.43,78.65Z" style="fill:#7e231a"/><path d="M166.45,124.61a12.87,12.87,0,0,0-6.44,7.2c-.12.37-.88.25-.75-.26a14.55,14.55,0,0,1,6.81-7.7C166.58,123.85,166.83,124.48,166.45,124.61Z" style="fill:#171612"/><path d="M163,127.13c-.12,1.39-.25,2.78-.38,4.17a.38.38,0,1,1-.75,0c.12-1.39.25-2.78.37-4.17C162.41,126.63,163,126.63,163,127.13Z" style="fill:#171612"/><path d="M72.68,90.77v.76a1.71,1.71,0,0,0,.12.76,1.53,1.53,0,0,0,.13.75c0,.38.13.89.13,1.27v.38c.12,1.13,1.26,3,2.77,5.55.13.25.38.63.51.88s.12.26.25.38a.45.45,0,0,0,.13.26c.12.25.37.63.5.88a.94.94,0,0,1,.25.51c.13.12.13.25.26.37s.12.26.25.51c.25.5.5.88.75,1.39a5.27,5.27,0,0,1,.51.88,20,20,0,0,0,1.26,2.15c1.26,2.14,2.53,4.42,3.79,6.82a2.55,2.55,0,0,0,.38.63c.12.12.12.25.25.5s.38.63.5.89c.26.5.51.88.76,1.39,1.89,3.4,3.66,6.94,5.43,10.47.12.26.25.51.38.76a105.61,105.61,0,0,1,6.43,16.16,11.5,11.5,0,0,1,.51,2,1.71,1.71,0,0,1,.12.76,23.15,23.15,0,0,1,.64,3.92,36.36,36.36,0,0,1,.12,6.43V160c0,.63-.12,1.14-.12,1.77-.26,2-.64,4-1,5.93-.51,2.15-1.14,4.17-1.65,5.94-.12.25-.12.5-.25.76a48.12,48.12,0,0,1-2.9,6.81,1.56,1.56,0,0,1-.25.51c.12.13.25.13.38.25A169.84,169.84,0,0,0,110.92,191l.75.38a141.28,141.28,0,0,0,20.7,7.7c.26.13.51.13.76.26,18.3,5.17,30.42,4.54,30.42,4.54s-.38-8.33-4.67-24.62c-.13-.25-.13-.51-.26-.76-.37-1.51-.88-3.15-1.38-4.8,0-.25-.13-.37-.13-.63v-.25l-.76-2.65c-.38-1.26-.76-2.53-1.26-3.79-.63-2-1.26-4.17-1.89-6.56a8.45,8.45,0,0,1-.26-.89c-.75-2.52-1.38-5.3-2-7.95-.13-.38-.13-.89-.26-1.26-.38-1.9-.75-3.67-1-5.43v-.13l-.12-.63a58.91,58.91,0,0,1-.63-7.7v-1a3.69,3.69,0,0,1,.12-1.14c.13-.76.25-1.52.38-2.27.13-.38.13-.63.25-1,.38-1.27.76-2.4,1.27-3.66a4.36,4.36,0,0,1,.5-1.14,6.4,6.4,0,0,0,.38-.88,1.94,1.94,0,0,0,.25-.76c.51-1.14.88-2.27,1.39-3.28.13-.38.25-.76.38-1.14.38-1,.76-2,1-2.91a6.53,6.53,0,0,1,.25-.88,21,21,0,0,0,.76-4.8v-2.65a14,14,0,0,0-1.77-5.3c0-.13-.13-.25-.13-.38s-.12-.13-.12-.25-.25-.38-.38-.51-.13-.25-.25-.38c-1.9-2.77-4.29-4.92-5.56-6.56a4.67,4.67,0,0,1-.88-2.15c0-.25-.13-.5-.13-.76a13.82,13.82,0,0,1,0-3.15,51,51,0,0,0,.26-7.7v-.51a.72.72,0,0,0-.13-.5v-.26a2.44,2.44,0,0,0-.25-.88A8.79,8.79,0,0,0,145,75.75l-.75-.76a7.46,7.46,0,0,0-3.66-1.52c-.26,0-.51-.12-.76-.12a39.64,39.64,0,0,0-4-.25,2.7,2.7,0,0,1-1-.13c-.25,0-.63-.13-.88-.13l-1.52-.38-1.13-.37a35.12,35.12,0,0,1-7.07-3.41l-7.83-.89h-1.26L102.34,66a36.83,36.83,0,0,1-4.42,3.29c-.25.12-.38.38-.63.5a25.73,25.73,0,0,1-2.65,1.9,5.89,5.89,0,0,1-.89.5,26.79,26.79,0,0,1-4.29,2.15c-.12.12-.25.12-.5.25h-.13a.45.45,0,0,1-.38.13c-1,.38-2,.75-3.15,1.26s-1.9.76-2.78,1.14a6.33,6.33,0,0,0-1,.5c-.25.13-.38.25-.63.38s-.25.13-.38.13a.12.12,0,0,0-.12.12.94.94,0,0,1-.51.25c-.13.13-.25.13-.38.26a11,11,0,0,1-1.51,1,14.26,14.26,0,0,0-2.78,2.77c-.13.13-.25.38-.38.51v.13c-.12.12-.25.37-.38.5l-.37.76c-.13.38-.26.63-.38,1a9.18,9.18,0,0,0-.51,2c0,.38-.12.63-.12,1A5.3,5.3,0,0,0,72.68,90.77Z" style="fill:#c04d3a"/><path d="M85.05,116.53c.12.25.37.63.5.88a31.41,31.41,0,0,0,12.37,1.9c9.46-.38,17.54-6.19,23.85-12.88a81.82,81.82,0,0,0,18.68-32.58c-.25,0-.5-.12-.76-.12a73.16,73.16,0,0,1-4.41,11.36,75.87,75.87,0,0,1-16,22.73,43.51,43.51,0,0,1-11.49,8.2,25.74,25.74,0,0,1-14.39,2.28A28.17,28.17,0,0,1,85.05,116.53Z" style="fill:#7e231a"/><path d="M138.05,159.58a21.94,21.94,0,0,0,9,16,21.71,21.71,0,0,0,11.74,3.91c-.13-.25-.13-.5-.25-.76a19.92,19.92,0,0,1-12.75-5.05c-9.72-8.45-9-24.36-1-33.58a29,29,0,0,1,4-3.79v-1A27,27,0,0,0,138.05,159.58Z" style="fill:#7e231a"/><path d="M127.45,191c.13.38.88.25.76-.25A74.94,74.94,0,0,1,123,164.51a72.77,72.77,0,0,1,13-42.68,74.76,74.76,0,0,1,18.05-18.18c0-.13-.13-.25-.13-.38s-.12-.13-.12-.25c-2,1.39-3.79,2.9-5.68,4.42A74.28,74.28,0,0,0,127.45,191Z" style="fill:#7e231a"/><path d="M147,86.86c-.63,3.66,1.26,6.82,3.28,9.72,1.77,2.65,3.54,5.18,4.42,8.21a22.23,22.23,0,0,1-1.89,16.79c-.25.38-.89,0-.63-.38A21,21,0,0,0,153.32,103c-2.27-5.43-8.07-10-6.94-16.41C146.38,86.1,147.14,86.35,147,86.86Z" style="fill:#171612"/><path d="M92.37,129.66a23.08,23.08,0,0,1,15.39,7.58c7.7,8.33,8.08,20.83,2.65,30.55a31.43,31.43,0,0,1-16.53,13.64,1.41,1.41,0,0,1-.25.5c.12.13.25.13.38.25a30.27,30.27,0,0,0,6.94-3.53c9.72-6.31,15.65-18.18,13.5-29.8-1.89-10.6-11.23-19.44-22.08-20.07C91.86,128.9,91.86,129.66,92.37,129.66Z" style="fill:#7e231a"/><path d="M76,100.24c.12.25.38.63.5.88s.13.26.26.38a29.86,29.86,0,0,0,23.72,2A26.57,26.57,0,0,0,117,87a24.93,24.93,0,0,0-.76-18.81h-.76c3.41,6.82,2.9,15-.38,21.72a26.66,26.66,0,0,1-18.42,14A28.79,28.79,0,0,1,76,100.24Z" style="fill:#7e231a"/><path d="M60.56,450.11s-5.43,1.64-6.31,9-2.52,26.26-2.52,26.26l2.65.26,2-6.57s.25,7.32,3.4,12.25S70.91,497.2,76.21,497s2.4-10.23.76-15.91-4.8-18.94-4.8-18.94Z" style="fill:#c04d3a"/><path d="M63,439.75s-.63,9-2.4,10.36-4.29,6.18-3.28,12.5,1.14,15.4,4.42,19.57,12.62,5.17,13.63,2.14-3.41-15-3-20.95.76-22,.76-22Z" style="fill:#eaad8f"/><path d="M122.28,233.82c0,.38-.13.76-.13,1.14s-.13.88-.25,1.26-.13.63-.13,1-.12.63-.12,1c-1.14,6.57-2.4,13.64-3.66,20.46-.13.38-.13.76-.26,1.13,0,.13-.12.38-.12.51,0,.38-.13.63-.13,1-1.51,8.46-3,16.41-4,21.84-.12.63-.25,1.14-.38,1.64,0,.26-.12.51-.12.76-1.14,5.81-2.53,12.37-4.29,19.82-.13.38-.13.64-.26,1-.25,1-.5,2-.75,3.16-.13.38-.13.76-.26,1.14-1.13,4.92-2.39,10-3.78,15.4v2.27c-.13,1.39-.25,3.54-.51,6.19,0,.38-.12.63-.12,1-.51,4.17-1.27,9.47-2.65,15.78,0,.26-.13.51-.13.89v.12c-.5,2.28-1,4.67-1.77,7.33a3.76,3.76,0,0,0-.25,1.13c-.5,1.9-1,3.92-1.64,5.94-.5,1.64-1,3.53-1.64,5.8-.13.26-.13.64-.25.89-1.14,3.91-2.4,8.58-3.92,13.63-.12.38-.25.76-.37,1.27-.51,1.64-.89,3.28-1.39,5.05-.13.25-.13.63-.25.88-1.77,6.44-3.79,13.26-5.56,19.95-.12.51-.25,1-.38,1.39-1.89,6.94-3.78,13.64-5.42,19.44-.13.26-.13.63-.26.89-.5,2-1.13,3.91-1.51,5.68-.13.38-.25.76-.38,1.13-.88,3.29-1.64,6.07-2.14,8.09-1,.37-3.41.12-5.81-.76a1,1,0,0,1-.5-.25c-.13,0-.13,0-.26-.13l-.75-.38c-.13,0-.13-.13-.26-.13s-.12-.12-.25-.12a9.81,9.81,0,0,1-3.15-2.53v-3.28c0-3.41,0-7.7-.13-12.5v-.88c-.13-4.42-.13-9.35-.25-14.4V402.63c0-4.29.12-9.34.25-14.89v-1.65c.25-6.56.63-13.63,1.39-20.95a3,3,0,0,1,.12-1,23.83,23.83,0,0,0,.26-3c0-.37.12-.75.12-1.13.63-6.31,1.52-12.63,2.65-18.81.13-.38.13-.76.26-1.14.12-1,.37-1.89.5-2.78.13-.38.13-.63.25-1,.89-4,1.77-8,2.91-11.61.75-4,1.26-6.82,1.51-9.1v-1.76a48.51,48.51,0,0,0-.13-8.59c-.12-3.79-.38-7.45-.38-11v-.89c0-2.65-.12-5.17-.12-7.57v-1.27c0-1.89,0-3.78.12-5.55s0-3.66,0-6.19v-.88c-.12-3.79-.12-8.59.26-14.27V256.3c.12-1.9.25-3.79.5-5.81,0-.38.13-.63.13-1a126.37,126.37,0,0,1,2.77-16c.13-.38.13-.64.26-1,.63-2.4,1.26-4.8,2-7.45.12-.38.25-.76.38-1.27,1-3.41,2.27-7.07,3.66-10.73a1.87,1.87,0,0,0,.25-.88c1.64-4.17,3.41-8.59,5.55-13.13L94,201.25l1.26.38,8.08,2.65.88.25,18.42,6.06,1.39.51.63.25c.26-.38.38,0,.26,1.26a3.42,3.42,0,0,1-.13,1.14c-.13.76-.13,1.77-.25,2.78C124.3,221.2,123.29,227.13,122.28,233.82Z" style="fill:#171612"/><path d="M63,443.42a15.12,15.12,0,0,0,10.73,1.51c.75-.12,1,1,.25,1.14a16.12,16.12,0,0,1-11.61-1.64C61.7,444.05,62.33,443,63,443.42Z" style="fill:#5a554d"/><path d="M89.84,326.37a21.83,21.83,0,0,0,12.24,2.4c.51,0,.38-.76-.12-.76a20.23,20.23,0,0,1-11.87-2.27C89.71,325.49,89.46,326.12,89.84,326.37Z" style="fill:#5a554d"/><path d="M79.24,219.56s6.81-28.54,18.43-47c0,0,34.07,14.9,61.08,6.82,0,0,6.56,13.13,6.06,53C164.81,232.56,95,251.12,79.24,219.56Z" style="fill:#171612"/><path d="M92.87,180.67s.88-6.57,5.3-10.61c3,.76,37.48,11.75,59.19,4.8a19.54,19.54,0,0,1,3.41,12.37S130.73,196.7,92.87,180.67Z" style="fill:#171612"/><path d="M93.25,181.93c2.65,1,5.3,1.9,8,2.78.25.13.63.13.88.25a123.19,123.19,0,0,0,58.31,3.16c.63-.13.38-1-.25-1A123.33,123.33,0,0,1,102.59,184c-.25-.12-.63-.12-.89-.25-2.77-.88-5.42-1.77-8.2-2.9C93,180.67,92.74,181.68,93.25,181.93Z" style="fill:#5a554d"/><path d="M103.85,171.83A23.27,23.27,0,0,0,100.06,184c0,.25.26.38.51.38-.13-.25-.13-.5-.25-.76.12.26.12.51.25.76.5-.13.25-.76-.25-.76s-.26.76.25.76.25-.76-.25-.76a1.51,1.51,0,0,0,.5.38,22.67,22.67,0,0,1,3.66-11.74C104.73,171.7,104.23,171.33,103.85,171.83Z" style="fill:#5a554d"/><path d="M114.58,174.23a27.51,27.51,0,0,0-3,12.75.38.38,0,1,0,.76,0,25.09,25.09,0,0,1,2.9-12.37C115.33,174.1,114.7,173.72,114.58,174.23Z" style="fill:#5a554d"/><path d="M125.43,175.87A42,42,0,0,0,123.92,189a.38.38,0,1,0,.75,0,45.32,45.32,0,0,1,1.52-13C126.19,175.62,125.56,175.37,125.43,175.87Z" style="fill:#5a554d"/><path d="M135.91,176.88a60.73,60.73,0,0,1,.5,12.63c0,.5.63.5.76,0a63.12,63.12,0,0,0-.51-12.88C136.54,176.25,135.78,176.5,135.91,176.88Z" style="fill:#5a554d"/><path d="M146,177a32.82,32.82,0,0,1,1.39,12.12c0,.5.63.5.76,0a31.79,31.79,0,0,0-1.39-12.38C146.51,176.38,145.88,176.63,146,177Z" style="fill:#5a554d"/><path d="M154.71,175.74a27.92,27.92,0,0,1,1.89,12.38c0,.5.64.5.76,0a28.88,28.88,0,0,0-1.89-12.63C155.22,175.11,154.59,175.24,154.71,175.74Z" style="fill:#5a554d"/><path d="M173.64,479c-2.52-4.17-25.62-26.26-25.62-26.26s-4.67,3.66-4.41,7.7,0,24.24.12,26.39h2.78l1.51-9.34s6.31,10.22,11.11,13.63,21,2.91,24.74,2.4S176.17,483.19,173.64,479Z" style="fill:#c04d3a"/><path d="M147.9,441.9l.38,10a11.7,11.7,0,0,0,0,7.32c1.26,4.42,6.18,11.36,10.85,16.54,4,4.42,12.62,9,15.27,7.7s-4.92-10.1-7.07-14.77a94.42,94.42,0,0,1-4.79-13.13c-1.27-4.42-1.39-14.9-1.39-14.9Z" style="fill:#eaad8f"/><path d="M168.85,328.27v1c0,.5-.13,1-.13,1.51s-.13,1.39-.25,2c0,.38-.13.76-.13,1.26-.5,4.55-1,10.23-1.39,16.54a3,3,0,0,1-.12,1c-.13,2.52-.38,5.17-.51,7.82a3.69,3.69,0,0,1-.12,1.14q-.39,6.26-.76,12.88v1c-.25,3.53-.38,7.07-.51,10.6v1.14c-.12,3.54-.37,6.94-.5,10.35v1c-.25,4.42-.38,8.72-.51,12.88v1.14c-.12,2.9-.25,5.55-.37,8.33v1c-.26,5.56-.38,10.61-.63,14.9v1c-.13,2.4-.13,4.55-.26,6.44v1c-.12,1.89-.12,3.54-.12,4.55-3.16,2.39-8.46,2.9-12.5,1-.12,0-.12-.13-.25-.13a.13.13,0,0,1-.13-.13c-.12,0-.12-.12-.25-.12-.38-.26-.76-.38-1.13-.63-.51-2-1.9-9.35-3.54-18.06,0-.25-.12-.63-.12-.88-.26-1.52-.51-3-.76-4.55-.13-.38-.13-.88-.25-1.26-.76-4.8-1.65-9.72-2.28-14.14,0-.26-.12-.63-.12-.89-.13-.5-.13-1-.25-1.39-.38-3.28-.89-6.81-1.27-10.6,0-.38-.12-.76-.12-1.14v-.12c-.26-2.53-.51-5.05-.76-7.71a2.73,2.73,0,0,0-.13-1c-.38-5.3-.75-10.73-1-16.41v-1.14c0-1.51-.12-3-.12-4.54v-1c-.13-5.94-.13-11.87.12-17.8v-1a6,6,0,0,1,.13-1.52c-.13-.88-.38-1.77-.5-2.65v-.25c0-.26-.13-.38-.13-.63-1.64-7.83-3-13.51-4.29-18.94-.13-.26-.13-.63-.25-.89-.38-1.51-.64-2.9-1-4.42a5.17,5.17,0,0,1-.26-1.39c-.38-1.76-.75-3.66-1.13-5.68-.38-2.4-1-5.05-1.52-7.83,0-.25-.12-.63-.12-.88-.89-4.42-1.77-9.22-2.4-14,0-.38-.13-.76-.13-1.27-.12-1.13-.25-2.4-.38-3.53,0-.51-.12-1-.12-1.64v-1c-.25-4.67-.51-11.24-.76-18.31V259.2a23.63,23.63,0,0,0-.13-3v-1c-.12-6.56-.25-13.25-.37-19.57V231.3c0-7,.12-12.88.25-16.92,0-1,.12-1.89.12-2.52a1.55,1.55,0,0,1,.13-.76h.13l18.8-4.42.89-.25,5.93-1.39,1.39-.38L163.42,202l.38-.13v.51c.25,1.51.76,6.56,1.39,12.24,0,.38.12.63.12,1,.38,4.17.76,8.71,1,12.5v3.66c0,.76.13,2.78.26,5.69v1c.12,3.91.37,9.09.75,14.89v1.14c.13,2,.25,4,.25,6.19v1c.26,5.81.64,11.87.89,17.3v1.13c.12,1.26.12,2.53.12,3.66v1c.38,7.45.64,13,.76,14.4.13,1.76.13,3.53.25,5.3v3.54A170.91,170.91,0,0,1,168.85,328.27Z" style="fill:#171612"/><path d="M147,441.77a14,14,0,0,0,14.39-.25c.63-.38,1.26.63.63,1a15.18,15.18,0,0,1-15.52.25A.57.57,0,1,1,147,441.77Z" style="fill:#5a554d"/><path d="M156.35,203a57.15,57.15,0,0,0,7.32,9.09c.38.38,1-.25.63-.63a62.12,62.12,0,0,1-7.19-9C156.86,202,156.1,202.51,156.35,203Z" style="fill:#5a554d"/><path d="M123.29,237.11a12.56,12.56,0,0,0,5.17-3.66,23.45,23.45,0,0,0,4.92-7.2c.25-.51-.63-.76-.88-.25a25.39,25.39,0,0,1-4.67,6.81c-1.39,1.39-3,2.91-4.8,3.41C122.53,236.35,122.78,237.23,123.29,237.11Z" style="fill:#5a554d"/><path d="M156.48,333.57a11.75,11.75,0,0,0,11.36-.63c.38-.25,0-.89-.38-.63a10.94,10.94,0,0,1-10.6.63C156.48,332.81,156.1,333.44,156.48,333.57Z" style="fill:#5a554d"/><path d="M63.84,435.71c0,2.53.13,4.93.25,7.45,0,.51.89.51.89-.12-.63-18.82-.51-37.75,1.51-56.44,1-9.22,2.4-18.31,4.17-27.4,1.89-9.59,4.54-18.94,6.56-28.53s2.15-19.2,2.15-28.92c0-6.94-.13-13.89-.13-20.83,0-14.39.5-28.91,3-43.18a160,160,0,0,1,16.91-47.6c.88-1.64,1.89-3.41,2.9-5,.13-.25.38-.63.51-.89-.25-.12-.63-.12-.89-.25-.12.25-.37.63-.5.89a160.29,160.29,0,0,0-18.55,46.08c-3.28,14.39-4.17,29.17-4.29,43.94-.13,6.94,0,13.76.12,20.71,0,9.21.13,18.56-.88,27.65-1.14,9.84-4.17,19.31-6.31,29-2,9.34-3.66,18.68-4.92,28.15A382.42,382.42,0,0,0,63.84,435.71Z" style="fill:#5a554d"/><path d="M125.81,235.72c1,26.64,4,53.41,10.35,79.42,1.77,7.32,4.29,14.64,5.8,22s1.14,15.15.89,22.72a271.19,271.19,0,0,0,1.39,45.33c.88,7.07,2.14,14,2.9,21.08.63,5.81,1.26,11.62,2.14,17.55.13.51.89.38.89-.25-.89-5.3-1.52-10.73-2-16-.63-5.81-1.52-11.49-2.27-17.3a276.07,276.07,0,0,1-2.27-45.71c.25-7.57,1.13-15.15.12-22.72-.88-7.2-3.28-14-5.17-21a337.31,337.31,0,0,1-8.46-43.44c-1.89-13.88-2.9-27.77-3.41-41.79C126.69,235.21,125.81,235.21,125.81,235.72Z" style="fill:#5a554d"/><path d="M105.87,198.47A48.56,48.56,0,0,1,90.6,216a.4.4,0,1,0,.5.63,49,49,0,0,0,15.53-17.8A.42.42,0,0,0,105.87,198.47Z" style="fill:#5a554d"/><path d="M95.9,71.33c6.06,7.7,8.71,18,17.42,23.48a18.84,18.84,0,0,0,13,2.91,11.25,11.25,0,0,0,5.56-2.53,7.66,7.66,0,0,0,2.27-5.43c.25-5.81-1.26-12-3.16-17.42-.25-.63-1.26-.38-1,.25a61.8,61.8,0,0,1,3,14.27c.13,2.14.38,4.67-1,6.56a9.19,9.19,0,0,1-5.68,3.16,18.14,18.14,0,0,1-12.87-3.16,31.51,31.51,0,0,1-8.71-10c-2.65-4.42-4.79-9-8-13C96.15,70.07,95.39,70.82,95.9,71.33Z" style="fill:#fff"/><path d="M100.57,184.71A75.31,75.31,0,0,0,88,113.37a.54.54,0,0,1,.76-.76,76.54,76.54,0,0,1,16.65,54.93,67.13,67.13,0,0,1-3.78,17.3C101.33,185.59,100.32,185.34,100.57,184.71Z" style="fill:#171612"/><path d="M137.17,35.47a3.46,3.46,0,0,1,2.65,3.41c.25,3-1.52,8.08-4.54,7.32S137.17,35.47,137.17,35.47Z" style="fill:#c6695d"/><path d="M132.12,46.83a4.25,4.25,0,1,1,3.79,4.67A4.31,4.31,0,0,1,132.12,46.83Zm1.14.13a3,3,0,1,0,3.28-2.65A3,3,0,0,0,133.26,47Z" style="fill:#fff"/><path d="M101.7,66.91a18.42,18.42,0,0,0,12.37,8.71C125.31,77.89,127,73.1,127,73.1a20,20,0,0,1-.63-4.8V66.4c.12-1.76.37-3.78.63-6.06.12-.5.12-1.13.25-1.64v-.12c-7.7-2.28-14-6.19-18-12.25L108,45.57l-.76-.5-.13.5.13,1.52C107.64,54,105.36,59.46,101.7,66.91Z" style="fill:#eaad8f"/><path d="M114.33,52.77c1.38,3.91,4.92,10.73,12,13.63.13-1.76.38-3.78.64-6.06.12-.5.12-1.13.25-1.64h-.51C122.53,58.83,118,56.3,114.33,52.77Z" style="fill:#171612"/><path d="M98.42,33.32c-.5,4.3,2.4,9.85,8,10.74h.13a1.85,1.85,0,0,0,.25.75c0,.13.13.26.13.38,2.52,7.58,12.37,13.13,17.92,14a17.19,17.19,0,0,0,3.79,0c6-.51,8.07-8.34,7.95-14.65a16.17,16.17,0,0,0-.25-2.52v-.13s3-8.33,3.91-12c1.76-7.19-1.39-15-17-18.43s-20.57,5.93-22.34,11c-.25.88-.76,6.06,0,6.94A5.09,5.09,0,0,0,98.42,33.32Z" style="fill:#eaad8f"/><path d="M134.9,39.26c-.38,1.13-1.14,1.89-1.64,1.77s-.89-1.27-.51-2.4,1.14-1.9,1.64-1.77S135.15,38,134.9,39.26Z" style="fill:#171612"/><path d="M131.24,37.49l-.13-.13a.24.24,0,0,1,.13-.38c.12,0,3.28-1.38,5.42.89a.35.35,0,0,1-.5.5c-1.89-1.89-4.67-.75-4.8-.75A.12.12,0,0,0,131.24,37.49Z" style="fill:#171612"/><path d="M124.8,36.48c-.38,1.14-1.14,1.89-1.64,1.77s-.88-1.26-.51-2.4,1.14-1.9,1.65-1.77S125.05,35.34,124.8,36.48Z" style="fill:#171612"/><path d="M120.51,35.09l-.13-.13a.24.24,0,0,1,.13-.37c.13-.13,3.15-1.77,5.55.12.13.13.13.25,0,.51s-.25.12-.5,0c-2-1.64-4.8-.13-4.8-.13Z" style="fill:#171612"/><path d="M128.33,49.86c-.12,0-.37-.12-.5-.12a5.85,5.85,0,0,1-2.9-2.78.61.61,0,0,1,.25-.76.62.62,0,0,1,.76.25,3.93,3.93,0,0,0,2.14,2c1.39.38,2.15-.25,2.15-.37a.59.59,0,0,1,.88,0,.61.61,0,0,1,0,.88A2.6,2.6,0,0,1,128.33,49.86Z" style="fill:#c6695d"/><path d="M107.38,40.77c-.25-.12-.37-.25-.37-.5-.26-4-4.8-6.44-4.93-6.44a.57.57,0,1,1,.51-1c.25.12,5.17,2.65,5.55,7.32a.57.57,0,0,1-.5.63Z" style="fill:#c6695d"/><path d="M102.71,37.87c-.12,0-.12,0-.25-.13a.59.59,0,0,1-.12-.76A3.8,3.8,0,0,1,106,35.72c.25,0,.5.38.5.63s-.38.51-.63.51a2.74,2.74,0,0,0-2.52.88C103.09,37.87,102.84,38,102.71,37.87Z" style="fill:#c6695d"/><g style="opacity:0.5"><g style="opacity:0.5"><g style="opacity:0.5"><g style="opacity:0.5"><g style="opacity:0.5"><g style="opacity:0.5"><g style="opacity:0.5"><g style="opacity:0.5"><g style="opacity:0.5"><g style="opacity:0.5"><g style="opacity:0.5"><g style="opacity:0.5"><path d="M133.51,42.92c-.13.63,1.26,1.26,3,1.64a16.17,16.17,0,0,0-.25-2.52C134.77,41.91,133.51,42.29,133.51,42.92Z" style="fill:#c6695d;opacity:0.5;isolation:isolate"/></g></g></g></g></g></g></g></g></g></g></g></g><g style="opacity:0.5"><g style="opacity:0.5"><g style="opacity:0.5"><g style="opacity:0.5"><g style="opacity:0.5"><g style="opacity:0.5"><g style="opacity:0.5"><g style="opacity:0.5"><g style="opacity:0.5"><g style="opacity:0.5"><g style="opacity:0.5"><g style="opacity:0.5"><path d="M123.66,41.78c-.12.76-1.89,1.14-4.16.89s-3.91-1-3.91-1.77,1.89-1.14,4.16-.88S123.66,41,123.66,41.78Z" style="fill:#c6695d;opacity:0.5;isolation:isolate"/></g></g></g></g></g></g></g></g></g></g></g></g><path d="M106.5,43.93h.13a1.79,1.79,0,0,0,.25.76c0,.12.13.25.13.38a4.13,4.13,0,0,0,2.27-.64,3.63,3.63,0,0,0,1.26-1.13.48.48,0,0,0-.13-.76.47.47,0,0,0-.75.13,3,3,0,0,1-1.52,1,8.75,8.75,0,0,0-1,.25Z" style="fill:#c6695d"/><path d="M107.89,44.06a2.25,2.25,0,0,1-1.26,0,3,3,0,1,1-3.16-3.29.84.84,0,0,0,.13-1.26,4.24,4.24,0,1,0,4.29,4.67Z" style="fill:#fff"/><path d="M126.57,52.39a2.25,2.25,0,0,1-1.14-.89c-.12-.12,0-.37.13-.5s.38,0,.5.13a1.76,1.76,0,0,0,1.64.63c.26,0,.38.12.38.25s-.12.38-.25.38A4.41,4.41,0,0,1,126.57,52.39Z" style="fill:#c6695d"/><path d="M106.37,14.26c3.79-3,8.84-5.31,14.52-4.29,8,1.38,14.89,5.17,18.42,10a10.69,10.69,0,0,1,2.4,7.58c-.63,8.33-2.14,6.43-2.14,6.43s.12-.12,0-2c0-1.13-.13-2.77-.26-5.3-.37-6.06-19.18-9.09-18.42-5.05a8.17,8.17,0,0,1-.13,1.26,8.43,8.43,0,0,1-1.13,2.91h-.51a17.45,17.45,0,0,0-4.92,1c-.13,0-3.16,1.77-3.16,4.8s.63,7.32-1.38,6.31-2.4-3.66-2.4-3.66a10.69,10.69,0,0,0-4.17-4C103.09,24.74,103.6,19.18,106.37,14.26Z" style="fill:#171612"/><path d="M104.86,17.67c5.93-1.27,14.51,4,16,5.17a8.68,8.68,0,0,1-1.14,2.91h-.5a17.3,17.3,0,0,0-4.92,1,5.75,5.75,0,0,0-3.29,4.8c0,3.15.89,20.07-2.52,22.34-7.19,4.42-2-19.69-2-19.69-1-1.52-1.26-2.91-3.28-3.92C101.58,25.62,102.84,21.46,104.86,17.67Z" style="fill:#171612"/><path d="M106.12,17.41s-4,4.55-3,12.76c0,0-2.65-1-4-.76s-2.14-4.67-.25-8.84,8.71-8.84,8.71-8.84S107.51,16.15,106.12,17.41Z" style="fill:#171612"/><path d="M129.47,44.43h.25l2.27-1c.13-.12.26-.25.26-.37a.76.76,0,0,0-.13-.51,7,7,0,0,1-2.65-5.3c0-.26-.25-.51-.5-.38s-.51.25-.38.5A8.38,8.38,0,0,0,131,42.79l-1.64.63a.47.47,0,0,0-.25.64C129.22,44.31,129.34,44.43,129.47,44.43Z" style="fill:#c6695d"/><path d="M125.81,31.43A1.2,1.2,0,0,0,127.7,30a3.24,3.24,0,0,0-1.76-1.64,8.76,8.76,0,0,0-7.58.38s4.55.5,6.44,1.77A3.49,3.49,0,0,1,125.81,31.43Z" style="fill:#171612"/><path d="M132.75,33.2a1.15,1.15,0,0,1-1-2,3.74,3.74,0,0,1,2.27-.63c4.42.25,5.18,3.28,5.18,3.28a14.33,14.33,0,0,0-5.18-.76A2,2,0,0,0,132.75,33.2Z" style="fill:#171612"/><g style="opacity:0.6000000238418579"><g style="opacity:0.6000000238418579"><path d="M141.08,42c-.38,2.15-3.15,3.54-6.18,3s-5.18-2.78-4.8-4.93,3.16-3.53,6.19-3S141.59,39.89,141.08,42Z" style="fill:#fff;opacity:0.6000000238418579;isolation:isolate"/></g></g><g style="opacity:0.6000000238418579"><g style="opacity:0.6000000238418579"><path d="M128.46,39.51c-.38,2.4-3.41,3.79-6.81,3.28s-5.68-3-5.31-5.43,3.41-3.78,6.82-3.28S128.84,37.11,128.46,39.51Z" style="fill:#fff;opacity:0.6000000238418579;isolation:isolate"/></g></g><path d="M130.48,40c-.13,0-.13,0-.25-.13a1.52,1.52,0,0,0-2.15-.38.37.37,0,0,1-.38-.63,2.15,2.15,0,0,1,3,.5.38.38,0,0,1,0,.51C130.73,40,130.61,40,130.48,40Z" style="fill:#fff"/><path d="M117.23,36.73s-.13,0-.13-.12c-3.28-2.91-7.82-3.67-7.82-3.79-.26,0-.38-.25-.26-.38s.26-.38.38-.25a18,18,0,0,1,8.21,3.91.41.41,0,0,1,0,.51A.49.49,0,0,1,117.23,36.73Z" style="fill:#fff"/><path d="M141.08,42.16a.46.46,0,0,1-.25-.12c-.51-1-2.78-1.77-3.53-2-.13,0-.26-.26-.26-.38s.26-.26.38-.26,3.16.89,3.91,2.4c.13.13,0,.38-.12.51C141.21,42.16,141.21,42.16,141.08,42.16Z" style="fill:#fff"/><path d="M82.65,215s5.55,5.56,6.56,8.08-4,7.7-5.3,6.57-1.26-14.27-1.26-14.27Z" style="fill:#eaad8f"/><path d="M116.22,306.55H30.65a2.4,2.4,0,0,1-2.4-2.4V240.77a2.4,2.4,0,0,1,2.4-2.4h85.69a2.39,2.39,0,0,1,2.4,2.4v63.38A2.5,2.5,0,0,1,116.22,306.55Z" style="fill:#6059c9"/><path d="M117.35,271.83H29.51a.76.76,0,0,1,0-1.52h87.84a.82.82,0,0,1,.76.76A.73.73,0,0,1,117.35,271.83Z" style="fill:#171612"/><path d="M34.94,271.83a.82.82,0,0,1-.76-.76V239.63a.76.76,0,0,1,1.52,0v31.44A.73.73,0,0,1,34.94,271.83Z" style="fill:#171612"/><path d="M112.05,271.83a.82.82,0,0,1-.75-.76V239.63a.76.76,0,1,1,1.51,0v31.44A.73.73,0,0,1,112.05,271.83Z" style="fill:#171612"/><path d="M49,277.51H44.41a.82.82,0,0,1-.76-.76V265.26a.81.81,0,0,1,.76-.75H49a.81.81,0,0,1,.76.75v11.49A.73.73,0,0,1,49,277.51Z" style="fill:#e59f3f"/><path d="M103,277.51H98.42a.81.81,0,0,1-.75-.76V265.26a.8.8,0,0,1,.75-.75H103a.8.8,0,0,1,.75.75v11.49A.72.72,0,0,1,103,277.51Z" style="fill:#e59f3f"/><path d="M57.66,306.42a.81.81,0,0,1-.76-.75v-34.6a.76.76,0,0,1,1.52,0v34.6A.81.81,0,0,1,57.66,306.42Z" style="fill:#171612"/><path d="M89.21,306.42a.81.81,0,0,1-.76-.75v-34.6a.76.76,0,0,1,1.52,0v34.6A.81.81,0,0,1,89.21,306.42Z" style="fill:#171612"/><path d="M88.71,223.47H84.54a4.82,4.82,0,0,0,.63,3.28h1.89V238.5a1.65,1.65,0,0,0,3.29,0V225.11A1.59,1.59,0,0,0,88.71,223.47Z" style="fill:#e59f3f"/><path d="M63.09,226.75H61.7V238.5a1.64,1.64,0,0,1-3.28,0V225.11a1.67,1.67,0,0,1,1.64-1.64H64Z" style="fill:#e59f3f"/><path d="M56,155c0,1.51.12,3,.12,4.42.13,1.64.26,3.28.38,4.92.13.89.13,1.77.25,2.65,0,.38.13.63.13,1q1.14,8.34,2.65,16.29c.76,4,1.52,7.95,2.4,11.87,0,.25.13.5.13.76.25,1.13.5,2.14.75,3.28.63,2.52,1.14,4.92,1.77,7.32,0,.13.13.38.13.51l.12.25.89,3.66,1,3.92a7.21,7.21,0,0,0,14.13-2.78V213l-.5-3.91-.51-3.92c-.25-1.64-.38-3.28-.63-4.79,0-.38-.13-.76-.13-1.14-.12-.63-.12-1.26-.25-1.77-.13-1.39-.38-2.65-.5-4,0-.38-.13-.63-.13-1l-1.14-10.6c-.5-5.18-1-10.36-1.26-15.41-.12-2.52-.25-5.05-.25-7.45v-.88a18,18,0,0,1,.13-2.65c.12-1.14.12-2.15.25-3.16l.12-.63v-.51l.38-1.51c.26-1.26.63-2.4,1-3.66.76-2.4,1.39-4.93,2.27-7.33s1.52-4.92,2.4-7.45,1.64-4.92,2.53-7.44c.5-1.52,1-3,1.51-4.55.38-1,.63-1.89,1-2.9.88-2.53,1.77-4.93,2.52-7.45l5.18-14.9V93.8A11.91,11.91,0,0,0,90.22,80l-.76-.38a12.31,12.31,0,0,0-1.89-.88,11.14,11.14,0,0,0-7.32-.13,12,12,0,0,0-6.06,4.17,3,3,0,0,0-.38.63,8.67,8.67,0,0,0-1.26,2.65v.13l-1.26,3.91-.38,1.26-.25.76L70,94.05c-.76,2.53-1.64,5.18-2.4,7.71s-1.52,5.17-2.27,7.82-1.52,5.18-2.15,7.83c-.5,1.9-1,3.66-1.51,5.56-.13.38-.26.88-.38,1.39-.13.25-.13.63-.25.88-.51,2.15-1,4.17-1.52,6.31,0,.26-.12.51-.12.76s-.13.63-.26.89c-.63,2.65-1.26,5.42-1.76,8.08l-.76,4.16-.13,1-.12.51-.13.75v.76l-.13.76c0,.51-.12.88-.12,1.26Z" style="fill:#c04d3a"/><path d="M61.57,124a106.14,106.14,0,0,0,7.57-7.58,76,76,0,0,0,7.07-8.58,20.45,20.45,0,0,0,2-3.66c0-.13.13-.26.13-.38A11.38,11.38,0,0,0,79,98.35a8.39,8.39,0,0,0-5.18-6.57c-.38-.12-.63-.25-1-.38h-.12c-.51-.12-1-.25-1.64-.38l-.26.76a10.3,10.3,0,0,1,1.9.51h.12a9.42,9.42,0,0,1,2.27,1.13c3.29,2.28,3.79,6.06,2.78,9.47,0,.13-.12.26-.12.38a8.3,8.3,0,0,1-.64,1.64c-1.76,3.66-4.79,6.82-7.57,9.85-2.4,2.65-4.92,5.3-7.57,7.83C61.82,123.09,61.7,123.47,61.57,124Z" style="fill:#7e231a"/><path d="M89.34,110.72,86.69,113c-.76.76-1.39,1.52-2,2.28a30.83,30.83,0,0,0-6.19,15.65,35.82,35.82,0,0,0,.51,9.72c-.13.51-.26,1-.38,1.52-2.15-9.6-.51-20.08,5.68-27.78a29.2,29.2,0,0,1,2.77-2.9L89,110C89.34,109.84,89.71,110.47,89.34,110.72Z" style="fill:#7e231a"/><path d="M93.75,98.09C92,103,90.35,108.2,89,113.25c-.13.63-1.14.5-1-.13,1.39-5.18,3-10.35,4.79-15.4C93,97.08,94,97.46,93.75,98.09Z" style="fill:#171612"/><path d="M56.65,164.38c.12.89.12,1.77.25,2.65a64.73,64.73,0,0,1,1.52-6.82,57.86,57.86,0,0,1,5.93-13.13c1.89-3.28,5.17-7.19,3.4-11.23-1.38-3.16-4.66-4.3-8-4.68,0,.26-.12.51-.12.76,3.41.38,6.94,1.64,7.82,5.18.51,2.52-.88,4.92-2.14,6.94S63,147.84,62,149.86A55.73,55.73,0,0,0,56.65,164.38Z" style="fill:#7e231a"/><path d="M68.51,173.6c.76,6.69,3,14.27,8.33,18.56a10.26,10.26,0,0,0,1.52,1c0-.38-.13-.63-.13-1-3.91-2.91-6.56-7.7-7.82-12.38-1.9-6.94-2.78-17.67,5.17-21.21,0,0,.13,0,.13-.12v-.76h-.13C69.65,160.47,67.88,167.54,68.51,173.6Z" style="fill:#7e231a"/><path d="M62,196.2c0,.25.13.5.13.76a15.77,15.77,0,0,1,10-.63,16.09,16.09,0,0,1,7.06,4.16c0-.38-.12-.76-.12-1.13a16.55,16.55,0,0,0-17-3.16Z" style="fill:#7e231a"/><path d="M64.73,207.56c0,.13.12.38.12.51l.13.25a13.45,13.45,0,0,1,5.17,1.89,15.54,15.54,0,0,1,7.07,10.23,2.67,2.67,0,0,0,.63-.38,16.06,16.06,0,0,0-7.32-10.48A21.23,21.23,0,0,0,64.73,207.56Z" style="fill:#7e231a"/><path d="M74.07,83.2l.37.37C77,86,80,87.49,83.91,86.86a7.8,7.8,0,0,0,6.31-5.43c0-.13.13-.25.13-.38a4.49,4.49,0,0,0,.12-1.26,10.23,10.23,0,0,0-1.13-5.05c-.13.12-.26.12-.51.25h-.12a10.21,10.21,0,0,1,1,4.29,3.69,3.69,0,0,1-.12,1.14v.38a6.93,6.93,0,0,1-6.82,5.43,10,10,0,0,1-8-3.29l-.38-.38C74.32,82.82,74.19,82.94,74.07,83.2Z" style="fill:#7e231a"/><path d="M67.75,152.13a15.22,15.22,0,0,1,7.7,2.66c.38.25.76-.38.38-.64a15.47,15.47,0,0,0-8.08-2.77A.38.38,0,0,0,67.75,152.13Z" style="fill:#171612"/><path d="M70.28,150.11a18.1,18.1,0,0,1,3,3c.25.38.88,0,.63-.37a16.52,16.52,0,0,0-3.28-3.41C70.28,149.23,69.9,149.86,70.28,150.11Z" style="fill:#171612"/><path d="M66,213.5s-3.91,11.23-4,13.89,2.9,7.7,4,8.71,2.52-.76,2.52-.76,1.9,1.89,3.16,1.64,1.13-1.89,1.13-1.89,2.27,2.14,3.66,1.89,1.14-2,1.14-2,1.51,2.9,3.15,2,3.29-4.29,3.66-6.69a62.36,62.36,0,0,0,0-7.2s-.12-8.33-3.4-10.73C77.85,210.21,66,213.5,66,213.5Z" style="fill:#eaad8f"/><path d="M204.94,111.86s-3,4.67-2,9.47,1.26,8.83,6.06,9.34,6.69-3.91,6.69-3.91S214.28,106.55,204.94,111.86Z" style="fill:#eaad8f"/><path d="M235.48,493.67a2,2,0,0,1-2-1.9l-30-481.93a2,2,0,1,1,4-.25l30,481.93a1.92,1.92,0,0,1-1.89,2.15Z" style="fill:#171612"/><path d="M244.57,19.31S272,35,316.38,32.44c0,0-30.67,38.51-71.68,37.37Z" style="fill:#6059c9"/><path d="M244.7,69.81s8.83-.12,12-7.83c0,0-5.18-6.31-12.25-5.3Z" style="fill:#1c2b74"/><path d="M205.32,67.92c38.24-17.55,51.37-5.81,51.37-5.81L252.9,6.81c-17.79-8.33-52.38,3.53-50.86,6.94Z" style="fill:#6059c9"/><path d="M256.81,62.62a.55.55,0,0,1-.5-.51c-.63-12.88-2.4-37.62-2.4-37.88a.57.57,0,1,1,1.14-.12c0,.25,1.76,25,2.39,37.87C257.32,62.36,257.07,62.62,256.81,62.62Z" style="fill:#1c2b74"/><path d="M204.06,114.76s.88-2.65,2.14-8c.89-3.92,1.9-8,4.93-7.71s5.55,15.28,4.16,17.55-4.92-5.05-4.92-5.05l-.25,3Z" style="fill:#eaad8f"/><path d="M212,101.25s5.93-1.14,8.58,1.77a3.45,3.45,0,0,1,0,5.18A5.41,5.41,0,0,1,223,112a3.49,3.49,0,0,1-1.89,3.92,3.58,3.58,0,0,1,2,3.53c0,2.91-1.77,3.41-1.77,3.41S222,127,219.83,128s-8.2.63-10-.76c-3.28-2.4.76-4.17.76-4.17a3.86,3.86,0,0,1-2.14-3.66c.12-2.27,1.38-2.52,1.38-2.52A3.65,3.65,0,0,1,208.1,114c-.13-2.77,3-3.28,3-3.28Z" style="fill:#eaad8f"/><path d="M207.59,105.54c1.14,2.66,2.15,6.19,4.55,7.83.88.63,2.52,1.26,3.53.25s.13-4.16-.25-5.3c-.13-.63-1-.38-.89.25a17.83,17.83,0,0,1,.51,2.78v1.14c-.76.76-1.39.88-2.15.25a6.24,6.24,0,0,1-2-2.4,38.85,38.85,0,0,1-2.39-5.3C208.22,104.53,207.34,104.91,207.59,105.54Z" style="fill:#c6695d"/><path d="M209.86,109.84a3.92,3.92,0,0,0-3.66,3.41,3.38,3.38,0,0,0,3.66,3.4c-.12-.25-.12-.63-.25-.88a3.67,3.67,0,0,0-2,3.54c0,1.51,1,2.4,2.27,3.15v-.75c-2.14,1.38-1.64,5.17.38,6.43.51.26,1-.5.51-.75-1.39-.89-2-3.92-.38-4.8a.48.48,0,0,0,0-.76c-1-.63-1.77-1.26-1.77-2.52a2.66,2.66,0,0,1,1.52-2.53.48.48,0,0,0-.26-.88c-1.64,0-3.15-1.27-2.52-3,.38-1.27,1.51-1.77,2.78-2A.52.52,0,0,0,209.86,109.84Z" style="fill:#c6695d"/><path d="M210,122.59a24.73,24.73,0,0,1,5.3.13c.63,0,.63-.89,0-1a24.73,24.73,0,0,0-5.3-.13C209.36,121.71,209.36,122.59,210,122.59Z" style="fill:#c6695d"/><path d="M209.23,116.78a14,14,0,0,1,4.55-.38c.63,0,.63-.88,0-1a15.31,15.31,0,0,0-4.8.38A.52.52,0,0,0,209.23,116.78Z" style="fill:#c6695d"/><path d="M100.44,67.67s2.15-3.67,1.9-5.56c-.26-1.39.88-3.28,2.65-2.4,3.15,1.52,15,7.07,23.22,4.17,0,0,.88,2.27-.38,3.41,0,0-.38,4.29.76,6.18,0,0-3.79,6.7-13.51,4.8C105.11,76.38,100.44,67.67,100.44,67.67Z" style="fill:#c04d3a"/><path d="M121.9,68.93c-8.46,0-18.93-5.3-19.56-5.56a.48.48,0,1,1,.37-.88c.13.13,16.16,8.08,24.24,4.54a.48.48,0,1,1,.37.89A11.83,11.83,0,0,1,121.9,68.93Z" style="fill:#7e231a"/><path d="M585.84,238l-1.14,1.77-1.14,1.77-2.27,3.41c-1.51,2.27-3,4.54-4.67,6.81s-3.15,4.42-4.79,6.7-3.28,4.41-5.05,6.56-3.54,4.29-5.43,6.44-3.78,4.29-5.93,6.44a42.39,42.39,0,0,1-3.41,3.16,46.14,46.14,0,0,1-9,6.31c-.5.25-1.13.5-1.64.76s-1.26.5-2,.75a5.14,5.14,0,0,1-.63.13l-.25.13h-.38c-.25,0-.63.12-.88.12s-.51.13-.89.13a12.76,12.76,0,0,1-3.15,0,13.71,13.71,0,0,1-2.65-.51l-2.27-.75a28.8,28.8,0,0,1-3.41-1.65,38.11,38.11,0,0,1-4.8-3.53,47.06,47.06,0,0,1-3.53-3.54c-1.14-1.13-2-2.39-3-3.53-1.89-2.4-3.53-4.67-5.18-7.07s-3.15-4.67-4.54-7.07c-2.9-4.8-5.55-9.6-8.08-14.4-1.26-2.39-2.52-4.79-3.66-7.32-.63-1.26-1.13-2.4-1.76-3.66l-.89-1.89-.88-1.9a7.81,7.81,0,0,1,13.76-7.32l.12.13,1,1.64,1,1.64,2.15,3.28c1.39,2.15,2.9,4.29,4.29,6.44,2.9,4.29,5.8,8.46,9,12.63,1.51,2,3,4,4.67,5.93a66.52,66.52,0,0,0,4.79,5.43c.76.88,1.65,1.64,2.4,2.4a15,15,0,0,0,2.27,1.89c.76.51,1.39.89,1.77,1.14.13.12.25.12.13,0a.45.45,0,0,0-.25-.13,4.78,4.78,0,0,0-.76-.12h-1.52a.49.49,0,0,0-.38.12h-.37l.12-.12a15.06,15.06,0,0,0,1.64-1.27c.63-.63,1.39-1.26,2.15-2s1.51-1.64,2.27-2.4c1.51-1.76,3.16-3.53,4.67-5.42.76-1,1.51-1.9,2.27-2.91l2.27-3c1.52-2,3-4,4.55-6.19s2.9-4.16,4.41-6.31,2.91-4.29,4.3-6.44l2.14-3.15,1-1.65,1-1.51.13-.13a11.71,11.71,0,0,1,16.4-3.41A11.83,11.83,0,0,1,585.84,238Z" style="fill:#c1725c"/><path d="M481.59,220.44s2.77,10.73,8.33,12.5c4.67,1.52,12.11-6.06,12.11-6.06,2.91-3.79,3.41-5.93,4-10.1s-5.93-8.33-5.93-8.33-6.06-16-8.71-17,1.26,14.52,1.26,14.52a2.86,2.86,0,0,0-2.65-.38,24.87,24.87,0,0,0-9.34,6.82C478.94,214.63,481.59,220.44,481.59,220.44Z" style="fill:#c1725c"/><path d="M504.18,217.79a41.91,41.91,0,0,1-6.94-2.9c-1-.64-2.78-1.77-2.9-3-.13-2,1.76-1.9,3.28-2a.51.51,0,0,0,0-1c-1.14.13-2.78,0-3.66.89-1.14,1.14-.38,2.9.5,4,2.27,2.65,6.44,3.79,9.59,4.92C504.56,218.93,504.81,218,504.18,217.79Z" style="fill:#7d351d"/><path d="M493.58,212.11a25.22,25.22,0,0,1-11.36,6.56c-.63.13-.38,1.14.25.89a27,27,0,0,0,11.74-6.82C494.71,212.36,494,211.73,493.58,212.11Z" style="fill:#7d351d"/><path d="M490.68,218.42a10.53,10.53,0,0,1,2.65,9.85c-.13.63.75.88.88.25a11.58,11.58,0,0,0-2.9-10.73C490.93,217.28,490.17,217.92,490.68,218.42Z" style="fill:#7d351d"/><path d="M492.57,213.62a22,22,0,0,0-3.79-7.19c-.38-.51-1.13.25-.63.63,1.77,1.89,2.65,4.42,3.53,6.69A.45.45,0,0,0,492.57,213.62Z" style="fill:#7d351d"/><path d="M489.16,216.4a26.54,26.54,0,0,0-3.79-7.32c-.37-.51-1.13,0-.75.5a29.45,29.45,0,0,1,3.66,7.07C488.4,217.16,489.41,216.91,489.16,216.4Z" style="fill:#7d351d"/><path d="M483.86,218.17c0,.12.13.12.13.25.25.51,1,.13.88-.38a13.06,13.06,0,0,0-3.16-5.81c-.37-.5-1,.26-.63.64a11.84,11.84,0,0,1,2.78,5.3,1.87,1.87,0,0,0,.88-.25c0-.13-.12-.13-.12-.26C484.49,217.16,483.61,217.54,483.86,218.17Z" style="fill:#7d351d"/><path d="M492.69,206.55a12,12,0,0,1,1.14,3.41c.13.63,1,.63,1,0a11,11,0,0,0-1.26-3.91C493.33,205.54,492.44,206.05,492.69,206.55Z" style="fill:#7d351d"/><path d="M595.05,425.87H592.4a4.66,4.66,0,0,1-4.67-4.68V382.81h12.11v38.38A4.85,4.85,0,0,1,595.05,425.87Z" style="fill:#171612"/><path d="M629.63,475.11v7.7h-5.55v-3.54a1.72,1.72,0,0,0-1.77-1.76H598.46a1.46,1.46,0,0,0-1.52,1.51v3.79h-6.43V479a1.46,1.46,0,0,0-1.52-1.51H565.26a1.71,1.71,0,0,0-1.76,1.76v3.54h-5.56v-7.7A3.13,3.13,0,0,1,561.1,472h29.41V372.71h6.43V472H626.6A3.1,3.1,0,0,1,629.63,475.11Z" style="fill:#171612"/><path d="M560.72,496.19a8.33,8.33,0,1,0-8.33-8.33A8.33,8.33,0,0,0,560.72,496.19Z" style="fill:#171612"/><path d="M560.72,492.53a4.8,4.8,0,1,1,4.8-4.8A4.79,4.79,0,0,1,560.72,492.53Z" style="fill:#5a554d"/><path d="M593.79,496.19a8.33,8.33,0,1,0-8.33-8.33A8.33,8.33,0,0,0,593.79,496.19Z" style="fill:#171612"/><path d="M593.79,492.53a4.8,4.8,0,1,1,4.79-4.8A4.79,4.79,0,0,1,593.79,492.53Z" style="fill:#5a554d"/><path d="M627,496.19a8.33,8.33,0,1,0-8.33-8.33A8.33,8.33,0,0,0,627,496.19Z" style="fill:#171612"/><path d="M627,492.53a4.8,4.8,0,1,1,4.8-4.8A5,5,0,0,1,627,492.53Z" style="fill:#5a554d"/><path d="M696.39,230.54l-35.21,147A10.51,10.51,0,0,1,651,385.59H568.17a10.53,10.53,0,0,1-10.23-13l36.1-147a10.65,10.65,0,0,1,10.22-8.08h81.91A10.59,10.59,0,0,1,696.39,230.54Z" style="fill:#5a554d"/><path d="M687.18,230.54,652,377.51a10.51,10.51,0,0,1-10.22,8.08H559a10.53,10.53,0,0,1-10.22-13l36.1-147a10.64,10.64,0,0,1,10.22-8.08H677A10.48,10.48,0,0,1,687.18,230.54Z" style="fill:#171612"/><path d="M641.75,378.39H559a3.33,3.33,0,0,1-2.65-1.26,3.25,3.25,0,0,1-.63-2.9l36.1-147a3.37,3.37,0,0,1,3.28-2.53H677a3.29,3.29,0,0,1,2.65,1.27,3.24,3.24,0,0,1,.63,2.9L645,375.87A3.52,3.52,0,0,1,641.75,378.39Zm-46.7-152.77a2.42,2.42,0,0,0-2.4,1.89l-36.09,147a2.19,2.19,0,0,0,.5,2.14,2.24,2.24,0,0,0,1.89.89h82.8a2.43,2.43,0,0,0,2.39-1.9l35.22-147a1.9,1.9,0,0,0-.51-2,2.24,2.24,0,0,0-1.89-.89H595.05Z" style="fill:#5a554d"/><path d="M509.61,389.88H648.56a11.88,11.88,0,0,0,11.61-9.22l1.89-8H513.64Z" style="fill:#5a554d"/><path d="M511.5,389.88H639.6a11.88,11.88,0,0,0,11.61-9.22l1.89-8H511.5a8.59,8.59,0,0,0,0,17.17Z" style="fill:#171612"/><path d="M564,330.16c1.26.38,2.65.63,3.91,1,.51.13,1,.25,1.64.38a146.88,146.88,0,0,0,50.74,2.78c.5-.13,1.14-.13,1.64-.25a95.13,95.13,0,0,0,11.36-2.15,59.49,59.49,0,0,1-1.89-12.37c-.13-1.39-.13-2.78-.13-4.05-.13-2.39-.13-4.67-.13-6.43v-3.16c-8.07-1.52-22.84-4.17-36.6-5.94-10-1.26-19.31-1.89-25.11-1.38l-.38,2.14-.5,3.16-.38,2.4-.89,5.17-3.15,18.06Z" style="fill:#c1725c"/><path d="M631.52,321.7s-45.68,5.43-65-6.31c0,0-4.17,19.32-3.79,24.49.88,12.25,69.79,9.6,71.56-2.4C634.93,332.18,631.52,321.7,631.52,321.7Z" style="fill:#467b6c"/><path d="M631.65,320.44a11.75,11.75,0,0,1,1.51,7.32s-45.56,6.31-68-5.93a9.16,9.16,0,0,1,1.64-7.58S584.45,326.25,631.65,320.44Z" style="fill:#253f3d"/><path d="M568.55,304c4.79.37,11.23,1,18.3,2,13.75,2.14,30.54,6.18,44.42,13.51-.13-1.39-.13-2.78-.13-4.05-.12-2.39-.12-4.67-.12-6.43v-3.16c-8.08-1.52-22.85-4.17-36.6-5.94-10-1.26-19.31-1.89-25.12-1.38l-.38,2.14Z" style="fill:#7d351d"/><path d="M631.14,315.51c7.83-.37,6.31-4.79,6.31-4.79L631.14,309v6.56Z" style="fill:#b56d25"/><path d="M555.8,272.46c0,.51.12,1,.12,1.52,0,.25.13.37.13.63.13.5.25,1,.38,1.51.13.25.25.63.38.89a45.24,45.24,0,0,0,6.81,10.6c.26.25.38.51.63.76s.38.5.64.63l.75.76c.13.12.25.12.25.25l.38.38v.88a6.5,6.5,0,0,1-.12,1.52c0,.63-.13,1.26-.13,1.89v1c-.13,1-.25,2-.38,3.16s-.25,2-.38,3.16c1.27-.38,2.53-.64,3.79-.89,7.07-1.26,15.78-1,24.74.13,1.26.12,2.65.38,3.91.5.76.13,1.39.26,2.14.38,4.55.76,9,1.64,13.26,2.53.37.12.63.12,1,.25,6.31,1.39,12.11,3,16.91,4.29,2.4.63,4.54,1.26,6.31,1.9V311c-.13-1.26-.13-2.65-.25-3.91,0-.89-.13-1.77-.13-2.53v-6.19a18.86,18.86,0,0,1,.13-2.77v-1.14a25.86,25.86,0,0,1,.25-3.28V291c.12-1.64.38-3.53.63-5.43,0-.38.13-.63.13-1,.75-5.05,2-11,3.53-17,.13-.26.13-.64.25-.89v-.12c.25-1.27.63-2.4,1-3.67a3.6,3.6,0,0,0,.25-1c0-.25.13-.37.13-.63s.13-.25.13-.5c.12-.51.25-.89.37-1.39s.26-.88.38-1.26c.26-.76.51-1.52.76-2.28v-.12c.13-.25.13-.51.25-.76s.13-.5.26-.76a47.55,47.55,0,0,1,1.64-4.67,24.16,24.16,0,0,0,.88-2.78c0-.25.13-.38.13-.63s.12-.63.25-.88.12-.51.25-.76a15.43,15.43,0,0,0,.51-2.27c.12-.38.12-.76.25-1.14.25-1.13.38-2.27.5-3.28.13-1.39.25-2.65.25-4v-1a4.46,4.46,0,0,0-.12-1.26,2.1,2.1,0,0,0-.13-.89c0-.25-.12-.63-.12-.88a1,1,0,0,0-.13-.51l-.13-.5c0-.13-.12-.25-.12-.51s0-.25-.13-.25v-.13c0-.12-.12-.25-.12-.37s-.13-.38-.13-.51c-.13-.38-.25-.76-.38-1.14,0-.12-.13-.25-.13-.37s-.12-.26-.12-.38-.13-.26-.25-.38l-.38-.76c-.13-.13-.13-.25-.26-.38s-.12-.25-.25-.38a2.52,2.52,0,0,0-.5-.75c-.13-.13-.13-.26-.26-.38l-.25-.26a.12.12,0,0,0-.12-.12l-.26-.26c-.25-.25-.37-.5-.63-.75l-.25-.26c-.13-.12-.25-.25-.38-.25s-.25-.25-.38-.25-.25-.25-.38-.25l-.25-.26a11.1,11.1,0,0,0-2-1.26.46.46,0,0,1-.25-.12.41.41,0,0,1-.25-.13c-.13-.13-.38-.13-.51-.25a.12.12,0,0,1-.12-.13c-.13,0-.26-.13-.38-.13-.51-.25-1-.37-1.52-.63h-.12c-.13,0-.25-.12-.38-.12s-.38-.13-.63-.13l-1.52-.38-1.51-.38c-6.44-1.51-11.74-2.52-13.76-2.9a.47.47,0,0,1-.38-.13h-.37l-2.66.38L593,216.65l-.76.13-1.51.25-.63.13-2.78.38c-2.78.5-5.05,1-7.19,1.51a7,7,0,0,0-1.77.51c-.38.12-.88.25-1.26.38a29.77,29.77,0,0,0-5.93,2.27,13,13,0,0,0-2.91,2c-.12,0-.12.13-.25.13a3.49,3.49,0,0,0-.63.75l-.13.13a11.1,11.1,0,0,0-1.26,2c-.13.13-.13.25-.25.5s-.25.64-.38,1c0,.13-.13.26-.13.38s-.12.38-.25.63-.12.51-.12.76a2.1,2.1,0,0,0-.13.89v.25a.73.73,0,0,1-.13.5.47.47,0,0,1-.12.38v.25a13.61,13.61,0,0,0-.26,2.28,1.18,1.18,0,0,1-.12.63v.5a1.09,1.09,0,0,1-.13.63c-.12.76-.12,1.65-.25,2.53v2.4c0,.38-.13.63-.13,1-.12.76-.25,1.64-.38,2.4a2.88,2.88,0,0,1-.25,1v.12a.47.47,0,0,1-.12.38c-.38,1.77-.76,3.54-1.14,5.18-1.89,7.45-4.16,12.25-5.17,16.79a2.1,2.1,0,0,0-.13.89C555.8,269.94,555.67,271.2,555.8,272.46Z" style="fill:#e59f3f"/><path d="M565.26,301.75s-.75,3.28,3,4.67l.89-5.55A12.39,12.39,0,0,0,565.26,301.75Z" style="fill:#b56d25"/><path d="M564.38,231.55a103.06,103.06,0,0,0,12.12,2.65c10.47,1.39,20.69.26,31-1.64,10.86-2,22.22-4.29,33.32-2.27a39.16,39.16,0,0,1,9.21,3v-1a42.32,42.32,0,0,0-8.58-2.78c-10.22-2-20.7-.25-30.79,1.52-10.48,1.89-21,3.66-31.68,2.52a79.35,79.35,0,0,1-14.51-2.9.73.73,0,0,1-.13.5Z" style="fill:#efc489"/><path d="M578.26,218.55a99,99,0,0,0,63.61-1.39.45.45,0,0,1-.25-.13.42.42,0,0,1-.25-.12c-.13-.13-.38-.13-.51-.26A96.68,96.68,0,0,1,580.28,218,7.72,7.72,0,0,0,578.26,218.55Z" style="fill:#efc489"/><path d="M563.12,242c1.39.63,2.9,1.14,4.29,1.64a78,78,0,0,0,24.61,4c9.34,0,18.17-2.14,27.26-3.66s18.3-1.77,27.26,1c.51.13,1.14.38,1.64.51.13-.26.13-.63.25-.89-.88-.25-1.76-.63-2.65-.88-8.45-2.53-17-2.4-25.62-.88-9.46,1.51-18.67,3.91-28.27,3.91a77.43,77.43,0,0,1-28.77-5.68C563.24,241.4,563.12,241.65,563.12,242Z" style="fill:#efc489"/><path d="M555.92,268.67c3.16.13,6.31,0,9.09-1.39a9.44,9.44,0,0,0,5.43-7.82,17,17,0,0,0-7.7-15.16,3.06,3.06,0,0,1-.25,1,16.52,16.52,0,0,1,7.06,13.14,8.54,8.54,0,0,1-5.93,8.45,18.93,18.93,0,0,1-7.57.89A1.8,1.8,0,0,1,555.92,268.67Z" style="fill:#efc489"/><path d="M556.56,276.25c.12.25.25.63.37.88,17.29-4.67,32.31-15.15,49.22-20.71,12.5-4,26.51-5.3,38.88-1.13v-.13c.12-.25.12-.5.25-.76a53,53,0,0,0-12.37-2.52c-18.68-1.52-36,6.69-52.25,14.65A155.2,155.2,0,0,1,556.56,276.25Z" style="fill:#efc489"/><path d="M628.49,278.9c3,2.27,6.31,4.29,9.47,6.31,0-.38.13-.63.13-1-2.4-1.51-4.8-3-7.07-4.67-2.9-2-11.23-6.69-7.7-11.11,1.26-1.64,3.66-2.27,5.68-2.4a33.82,33.82,0,0,1,12.62,1c.13-.25.13-.63.25-.88a39.17,39.17,0,0,0-8.58-1.27c-3.66-.12-9.72,0-11.36,3.92C620,273.22,625.59,276.75,628.49,278.9Z" style="fill:#efc489"/><path d="M563.75,287.74c.25.25.38.5.63.76a42.2,42.2,0,0,0,8.08-5.18c5-3.92,10-8.71,16-11,7.19-2.65,14.26-.37,20.69,3a145,145,0,0,1,27.9,19.83v-1.14c-3.66-3.28-7.45-6.31-11.36-9.22a122.71,122.71,0,0,0-18.18-11.36c-6-2.9-12.62-4.55-19.18-2.15-5.81,2.15-10.6,6.32-15.4,10.23A43.51,43.51,0,0,1,563.75,287.74Z" style="fill:#efc489"/><path d="M613.22,304.4c.38.13.63.13,1,.26a9.67,9.67,0,0,1,10.35-5.94,24.49,24.49,0,0,1,12.5,5.56v-1.14c-5.56-4.29-14.39-8.08-20.32-3.41A10.3,10.3,0,0,0,613.22,304.4Z" style="fill:#efc489"/><path d="M565.89,295.57a57.69,57.69,0,0,1,15.53.12,40.91,40.91,0,0,1,16.28,5.94c.76.12,1.39.25,2.14.37a35.52,35.52,0,0,0-7.06-4.16c-8.71-3.79-17.8-4.17-26.76-3.16v.51C565.89,295.19,565.89,295.44,565.89,295.57Z" style="fill:#efc489"/><path d="M590.13,216.15c-.38,4.92,2,8.84,8.7,8.84,12.88,0,19.95-10.23,21.33-13.26a.52.52,0,0,1-.37-.13Z" style="fill:#b56d25"/><path d="M609.81,291.53a.67.67,0,0,1-.63.37.46.46,0,0,1-.37-.12c-.13,0-11.74-5.56-25.25-2-6.81,1.77-12.74,2.14-17.41,1.39v-.89l-.63-.63c4.54.89,10.6.63,17.67-1.26a39.33,39.33,0,0,1,26.12,2.15A.83.83,0,0,1,609.81,291.53Z" style="fill:#b56d25"/><path d="M576.75,448.47l5.43,21.84-15.78,1-10.22-22.85Z" style="fill:#c1725c"/><path d="M526.39,497.46l59.45-.76a9.81,9.81,0,0,0,.75-3.28c.26-5.06-1.39-13-2.27-18.06a8.4,8.4,0,0,1-.25-1.64,16.67,16.67,0,0,1-.25-2c0-4.17-3.66-3.41-3.66-3.41-5.94,5.93-12.88-2.78-16.79.13,0,0-1.64,1.26-6.31,5.55s-12.62,7.2-19.44,10.1c-8.83,3.79-11.23,7.45-11.73,10.1A3.93,3.93,0,0,0,526.39,497.46Z" style="fill:#171612"/><path d="M526.39,497.46l59.45-.76a9.81,9.81,0,0,0,.75-3.28l-60.7.75A3.93,3.93,0,0,0,526.39,497.46Z" style="fill:#5a554d"/><path d="M579.78,496.82h1.76a12.8,12.8,0,0,1-3.28-9.46,16.64,16.64,0,0,1,6.19-12,8.49,8.49,0,0,1-.26-1.64,18.13,18.13,0,0,0-7.32,13.51A13.42,13.42,0,0,0,579.78,496.82Z" style="fill:#5a554d"/><path d="M558.07,477.51a.84.84,0,0,0,.88-.76,1,1,0,0,0-.75-1.14l-3.79-.88a1,1,0,1,0-.38,1.89l3.79.89Z" style="fill:#fff"/><path d="M561.35,474.6a.83.83,0,0,0,.88-.75,1,1,0,0,0-.75-1.14l-3.79-.89a1,1,0,0,0-.38,1.9l3.79.88Z" style="fill:#fff"/><path d="M554.28,479.65a.84.84,0,0,0,.89-.75,1,1,0,0,0-.76-1.14l-3.79-.88a1,1,0,1,0-.37,1.89l3.78.88Z" style="fill:#fff"/><path d="M550.62,481.8a.84.84,0,0,0,.89-.76,1,1,0,0,0-.76-1.13L547,479a1,1,0,0,0-.38,1.9l3.79.88Z" style="fill:#fff"/><path d="M546.59,483.82a.83.83,0,0,0,.88-.76,1,1,0,0,0-.76-1.13l-3.78-.89a1,1,0,0,0-.38,1.9l3.78.88A.18.18,0,0,1,546.59,483.82Z" style="fill:#fff"/><path d="M542.29,485.46a.84.84,0,0,0,.89-.76,1,1,0,0,0-.76-1.13l-3.79-.89a1,1,0,0,0-.37,1.9l3.78.88Z" style="fill:#fff"/><path d="M554.66,324.48S503.17,342.16,506,365.26s53,91.41,53,91.41l20.2-3.53-10-37.5c-5.81-20.83-8.33-32.45-16-41.67l42.28-6.44C595.55,367.41,585.84,325,554.66,324.48Z" style="fill:#467b6c"/><path d="M573.09,448h.25a.86.86,0,0,0,.51-1c-.13-.25-9.85-27.27-14.64-46.84a64.79,64.79,0,0,0-17.93-30.3c4.8-.51,12.63-2.15,13-2.15a.94.94,0,0,0,.63-.88.93.93,0,0,0-.88-.63c-.12,0-10.6,2.27-14.64,2.27a.86.86,0,0,0-.76.5.85.85,0,0,0,.26.89,61.91,61.91,0,0,1,18.8,30.68c4.92,19.69,14.64,46.71,14.77,47S572.71,448,573.09,448Z" style="fill:#253f3d"/><path d="M555.67,452.25l21.58-4.54a1,1,0,0,0,.63-.88.94.94,0,0,0-.88-.64l-21.45,4.55a1,1,0,0,0-.64.88A.71.71,0,0,0,555.67,452.25Z" style="fill:#253f3d"/><path d="M472.5,426.24l-13.38,16.55-13.63-9.6L458,412.48Z" style="fill:#c1725c"/><path d="M399.68,428l46.19,37.5a9,9,0,0,0,2.65-2c3.41-3.66,7.32-10.86,9.85-15.4a13,13,0,0,1,.88-1.39c.5-.76.88-1.26,1.14-1.77,2.65-3.16-.64-4.92-.64-4.92-8.33.75-8.07-10.36-13-10.61,0,0-2.15-.12-8.46.25s-14.39-2.52-21.46-4.67c-9.21-2.65-13.5-1.39-15.39.25A4.34,4.34,0,0,0,399.68,428Z" style="fill:#171612"/><path d="M399.68,428l46.19,37.5a9,9,0,0,0,2.65-2l-47.2-38.38A4.91,4.91,0,0,0,399.68,428Z" style="fill:#5a554d"/><path d="M441.08,461.72l1.38,1.14a13.56,13.56,0,0,1,3.54-9.47c3.91-4.42,9.21-5.18,12.37-5.3a13,13,0,0,1,.88-1.39A17.94,17.94,0,0,0,445,452.51,13.92,13.92,0,0,0,441.08,461.72Z" style="fill:#5a554d"/><path d="M436.78,432.94a1.17,1.17,0,0,0,1.27,0,1.16,1.16,0,0,0,.25-1.39l-2.27-3a1.14,1.14,0,0,0-1.39-.25,1.13,1.13,0,0,0-.25,1.38l2.27,3C436.66,432.81,436.78,432.81,436.78,432.94Z" style="fill:#fff"/><path d="M441.2,432.81a1,1,0,0,0,1.52-1.39l-2.28-3a1.14,1.14,0,0,0-1.38-.25,1.16,1.16,0,0,0-.26,1.39l2.28,3A.46.46,0,0,0,441.2,432.81Z" style="fill:#fff"/><path d="M432.62,432.18a1,1,0,0,0,1.51-1.39l-2.27-3a1.15,1.15,0,0,0-1.39-.25,1.17,1.17,0,0,0-.25,1.39l2.27,3C432.49,432.18,432.49,432.18,432.62,432.18Z" style="fill:#fff"/><path d="M428.33,431.55a1,1,0,0,0,1.51-1.39l-2.27-3a1,1,0,1,0-1.64,1.14l2.27,3C428.2,431.42,428.33,431.42,428.33,431.55Z" style="fill:#fff"/><path d="M424,430.41a1,1,0,0,0,1.51-1.39l-2.27-3a1,1,0,1,0-1.64,1.14l2.27,3C423.91,430.29,423.91,430.41,424,430.41Z" style="fill:#fff"/><path d="M419.62,428.9a1,1,0,0,0,1.51-1.39l-2.27-3a1.16,1.16,0,0,0-1.39-.26,1.17,1.17,0,0,0-.25,1.39l2.27,3C419.49,428.77,419.49,428.9,419.62,428.9Z" style="fill:#fff"/><path d="M449,423.72l17.67,11.36s13.88-12.88,31-28S530.81,374,537.5,360.34c0,0,50.61,21.84,78,16.41,11.36-2.27,16.54-10.1,18.68-18.43.26-1.27.51-2.53.76-3.79a61.21,61.21,0,0,0-.76-20.71S569.93,322,536.61,323.09c-2.27.13-4.54.25-6.43.38a37.82,37.82,0,0,0-7.95,1.64c-4.17,1.52-9.47,5.93-15.15,12.12-.25.25-.38.51-.63.63C482,365,449,423.72,449,423.72Z" style="fill:#467b6c"/><path d="M507.08,337.23c18.05,3.16,26.38-7.7,29.53-14.14-2.27.13-4.54.25-6.43.38a37.82,37.82,0,0,0-7.95,1.64C518.06,326.5,512.76,331,507.08,337.23Z" style="fill:#5fa68d"/><path d="M517.05,388.87c.13,0,.26-.12.38-.12,12.5-9.73,19.18-23.74,20.7-27.4,6.56,3.79,26.5,9.72,27.39,10a.8.8,0,1,0,.5-1.51c-.25-.13-22.46-6.57-27.76-10.23a1.38,1.38,0,0,0-.64-.13,1,1,0,0,0-.5.51c-.13.12-6.69,16.66-20.57,27.52a.81.81,0,0,0-.13,1.14C516.55,388.87,516.8,388.87,517.05,388.87Z" style="fill:#253f3d"/><path d="M470.48,431.17a.69.69,0,0,0,.63-.38.82.82,0,0,0-.25-1.14l-18.05-11.86a.82.82,0,1,0-.88,1.38L470,431A.92.92,0,0,0,470.48,431.17Z" style="fill:#253f3d"/><path d="M466.19,428.14a1,1,0,0,0,.63.25.94.94,0,0,0,.51-.25c.25-.25,29.66-29.42,43.92-42.05,12.87-11.36,20.57-28.91,22.08-32.7,5.3,2,38,14.52,68.53,16.29,13.76.76,22.47-3.28,27.26-6.82a26.2,26.2,0,0,0,5-4.67,38.51,38.51,0,0,0,.76-3.79,14.08,14.08,0,0,1-1.51,2.15,25.91,25.91,0,0,1-5.31,5.05c-4.66,3.28-12.87,7.2-26.25,6.44-32.81-1.77-68.4-16.29-68.78-16.41a.56.56,0,0,0-.63,0c-.25.12-.38.25-.38.37s-8,20.46-22,32.83c-14.26,12.63-43.67,41.79-43.92,42.05A1.13,1.13,0,0,0,466.19,428.14Z" style="fill:#253f3d"/><path d="M608.81,140.14c1.51,1.77,5.55,5.68,5.55,5.68l5.8,4.29,4.93,4.3s15.14,8.46,18.3,6.06c2-1.52,1.76-4.17,1.38-5.94a9,9,0,0,0-.63-1.89s.38.13,1,.38c1.52.38,4.29.63,5.68-2.65,2-4.55-3.91-9.85-3.91-9.85s4.67,0,6.69-3.92-5.93-11-5.93-11,2.77-.51,1.39-5.3-6.57-3.54-6.57-3.54.76-8.71-5.42-9.34-11,7.45-11,7.45a10.09,10.09,0,0,0-9.72.38c-5,3-2.15,12.62-2.15,12.62s-5.17-2.52-8.83,1.77C603.25,132.31,606.28,137,608.81,140.14Z" style="fill:#171612"/><path d="M614.36,145.82s8.08,1.77,10.73,8.59a6.38,6.38,0,0,1-3.79,2s-1.26-4.55-7.57-7.2C613.85,149.23,613,147.08,614.36,145.82Z" style="fill:#d03f23"/><path d="M581.54,181.43s-5.42-1.39-6.68-9.22c-2-12.75,6.68-24.12,22.46-25.76,20.7-2.14,23.35,4.3,27.13,12.38s2.4,19.95-1.89,26.38c-4.16,6.19-12.37,8.72-12.37,8.72Z" style="fill:#171612"/><path d="M581,178.4s-2.52.25-3,3.66,1.39,8.71,4.67,7.95S581,178.4,581,178.4Z" style="fill:#7d351d"/><path d="M584.7,190.77a3,3,0,1,1-3.41-2.53A3,3,0,0,1,584.7,190.77Z" style="fill:#fff"/><path d="M618.52,212.11s-4.29,8.58-13.88,10.35c-12.24,2.15-13.76-3.16-13.76-3.16a22.16,22.16,0,0,0,.89-5.05v-2c0-1.89-.26-4-.51-6.44-.12-.63-.12-1.13-.25-1.76v-.13c8.46-2.27,15.27-6.19,19.81-12.63l1.27-.75L613,190l.13.51-.13,1.64C612.34,199.36,614.23,205.42,618.52,212.11Z" style="fill:#c1725c"/><path d="M605,197.84c-1.64,4-5.55,11.36-13.38,14.27,0-1.9-.25-4-.5-6.44-.13-.63-.13-1.14-.26-1.77h.51C596.06,204,601,201.5,605,197.84Z" style="fill:#7d351d"/><path d="M622.81,177.26c.38,4.55-2.9,10.61-9,11.24h-.12c-.13.25-.13.5-.26.75s-.12.26-.12.38c-3,8.21-13.63,13.77-19.69,14.52a15.64,15.64,0,0,1-4-.12c-6.43-.76-8.45-9.35-8.08-15.91a18.37,18.37,0,0,1,.26-2.78v-.13s-3-9-3.92-13c-1.64-7.7,2-16,18.94-19.19s22,7.07,23.72,12.62c.25.89.63,6.57-.25,7.45A4.72,4.72,0,0,1,622.81,177.26Z" style="fill:#c1725c"/><path d="M598.83,164a8.48,8.48,0,0,0,4.17,7.2c2.52,1.39,4.54,2.78,3.66,5.43-1.14,3.66,0,5.93,2,5.93,3.79,0,3.79-8.33,11.48-9.47,0,0,2.78-.88,2-5.68s-10.35-17.93-23-16-23.34,9.21-23,18.18,2.15,7.07,2.15,7.07-.13-.51.38-7.83C579.4,162.36,599.84,159.71,598.83,164Z" style="fill:#171612"/><path d="M619.79,188.24a3,3,0,1,1-3.41-2.52A2.8,2.8,0,0,1,619.79,188.24Z" style="fill:#fff"/><g style="opacity:0.5"><g style="opacity:0.5"><g style="opacity:0.5"><g style="opacity:0.5"><g style="opacity:0.5"><path d="M584.83,186.6c0,.63-1.39,1.39-3.41,1.64a18.27,18.27,0,0,1,.25-2.77C583.44,185.47,584.7,186,584.83,186.6Z" style="fill:#7d351d;opacity:0.5;isolation:isolate"/></g></g></g></g></g><path d="M591.64,195.57c.76-.13,1.14-.76,1.26-.76a.31.31,0,0,0-.12-.5.31.31,0,0,0-.51.12,1.36,1.36,0,0,1-1.64.38c-.25,0-.38,0-.5.25s0,.38.25.51Z" style="fill:#7d351d"/><path d="M590.76,193.17h0a4.52,4.52,0,0,0,3.41-2.78A.6.6,0,1,0,593,190a3.26,3.26,0,0,1-2.52,2,4.09,4.09,0,0,1-3-.5c-.26-.26-.63-.26-.76,0s-.25.63,0,.75A4.52,4.52,0,0,0,590.76,193.17Z" style="fill:#7d351d"/><path d="M589,188.37h-.25l-2.53-1.14c-.12-.12-.25-.25-.25-.37a1,1,0,0,1,.25-.51,7.63,7.63,0,0,0,3-5.55.58.58,0,0,1,.63-.51.57.57,0,0,1,.51.63,8.23,8.23,0,0,1-2.78,5.81l1.77.76a.46.46,0,0,1,.25.63C589.37,188.24,589.24,188.24,589,188.37Z" style="fill:#7d351d"/><path d="M592.65,173a1.3,1.3,0,0,1-1.14-2.28,3.87,3.87,0,0,1,2.53-.63,9.1,9.1,0,0,1,6.94,4.3s-4.54-1.77-6.94-1.65C593.53,172.84,593,172.84,592.65,173Z" style="fill:#171612"/><path d="M585.33,174.1a1.25,1.25,0,0,0,.51-2.4,3.52,3.52,0,0,0-2.53,0c-4.54,1.65-4.42,4.93-4.42,4.93a16.3,16.3,0,0,1,5.05-2.4C584.57,174.23,585,174.1,585.33,174.1Z" style="fill:#171612"/><g style="opacity:0.5"><g style="opacity:0.5"><g style="opacity:0.5"><g style="opacity:0.5"><g style="opacity:0.5"><path d="M595.43,185.59c0,.76,2,1.27,4.41,1.14s4.3-1,4.17-1.77-2-1.26-4.42-1.13S595.3,184.84,595.43,185.59Z" style="fill:#7d351d;opacity:0.5;isolation:isolate"/></g></g></g></g></g><path d="M613.85,188.62h-.12c-.13.26-.13.51-.26.76s-.12.25-.12.38A5.15,5.15,0,0,1,611,189a3.29,3.29,0,0,1-1.39-1.26c-.25-.25-.12-.63.13-.88s.63-.13.88.12a2.85,2.85,0,0,0,1.64,1.14,3.89,3.89,0,0,0,1.14.25A.5.5,0,0,0,613.85,188.62Z" style="fill:#7d351d"/><path d="M613,185.09a1,1,0,0,0,.5-.51c.38-4.42,5.43-6.69,5.43-6.81a.61.61,0,0,0,.25-.89.61.61,0,0,0-.88-.25c-.25.12-5.68,2.65-6.18,7.83a.57.57,0,0,0,.5.63Z" style="fill:#7d351d"/><path d="M618.14,182.18c.13,0,.13,0,.26-.12a.62.62,0,0,0,.12-.89,4,4,0,0,0-3.91-1.51.55.55,0,0,0-.5.76.55.55,0,0,0,.75.5,3.13,3.13,0,0,1,2.78,1C617.64,182.06,617.89,182.18,618.14,182.18Z" style="fill:#7d351d"/><path d="M594,180.42c.13,1.13.76,2,1.39,2s1-1.14.88-2.28-.76-2-1.39-2S593.91,179.28,594,180.42Z" style="fill:#171612"/><path d="M598.2,177.89l.13-.13a.23.23,0,0,0-.13-.37c-.12,0-3.28-1.27-5.3.88-.12.13-.12.38,0,.38s.38.13.38,0c1.77-1.9,4.67-.76,4.67-.76S598.08,177.89,598.2,177.89Z" style="fill:#171612"/><path d="M583.44,181.81c.12,1.13.75,2,1.39,2s1-1.14.88-2.28-.76-2-1.39-2S583.19,180.54,583.44,181.81Z" style="fill:#171612"/><path d="M587.22,179.15l.13-.12c0-.13,0-.38-.25-.38s-3.28-1.14-5.3,1.14c-.13.12-.13.37,0,.37s.38.13.38,0c1.64-2,4.54-1,4.54-1Z" style="fill:#171612"/><path d="M598.46,234.71h-.76a6.58,6.58,0,0,1-5.68-2.53c-3.91-4.92-1.51-15.4-1.39-15.78s.38-.63.76-.5.63.37.5.75c0,.13-2.39,10.23,1.14,14.78a5.64,5.64,0,0,0,4.67,2c8.58-.13,19.69-21.22,19.81-21.47a.55.55,0,0,1,.89-.25.54.54,0,0,1,.25.88C618.14,213.5,607.67,233.57,598.46,234.71Z" style="fill:#fff"/><path d="M590.88,325.11l-80.64-2.78a.27.27,0,0,1-.26-.25l.38-10a.28.28,0,0,1,.26-.26l80.64,2.78a.27.27,0,0,1,.25.25l-.37,10A.28.28,0,0,1,590.88,325.11Z" style="fill:#171612"/><path d="M501.53,322a6.73,6.73,0,0,1-6.31-5.17L482,259.33a5.46,5.46,0,0,1,5.55-6.69l36.35,1.26a5.65,5.65,0,0,1,5.17,4.17l15.9,65.4Z" style="fill:#171612"/><path d="M487,268.67c1,3.79,4.66,6.82,8.07,6.95s5.3-2.91,4.29-6.57-4.67-6.82-8.07-6.94S485.88,264.88,487,268.67Z" style="fill:#e59f3f"/><path d="M493.83,267.54c.25.75.63,1.38.88,1.38s.38-.63.13-1.38-.63-1.39-.88-1.39S493.58,266.78,493.83,267.54Z" style="fill:#171612"/><path d="M490.55,267.41c.25.76.63,1.39.88,1.39s.38-.63.13-1.39-.63-1.39-.89-1.39S490.3,266.65,490.55,267.41Z" style="fill:#171612"/><path d="M494.08,272.08c2.65.13,2.4-2.78,2.4-2.9s-.13-.38-.25-.38-.25,0-.25.25.12,2.4-2,2.4a4,4,0,0,1-3.41-2.53c-.13-.12-.25-.25-.38-.25s-.13.13-.13.38A5,5,0,0,0,494.08,272.08Z" style="fill:#171612"/><path d="M528.92,258.07,544.69,323l4.17.13-15.78-64.9a5.51,5.51,0,0,0-5.17-4.16l-4.17-.13A5.42,5.42,0,0,1,528.92,258.07Z" style="fill:#171612"/><path d="M544.31,322.58h0c.38-.12.63-.37.51-.75l-15.65-64.77a.7.7,0,0,0-.76-.51.69.69,0,0,0-.5.76l15.65,64.77C543.81,322.33,544.06,322.58,544.31,322.58Z" style="fill:#5a554d"/><path d="M517.56,289c.75,3.66-1.64,6.44-5.18,6.31a8.59,8.59,0,0,1-7.7-6.69c-.75-3.66,1.64-6.44,5.18-6.31A8.58,8.58,0,0,1,517.56,289Z" style="fill:#5a554d"/><path d="M544.06,302.89l.13.38,2.27,9.21.12.51s28.91,1.14,37.61,1.14a13.61,13.61,0,0,1,2.28-.26l8.7-1.13c3-.38,6.06-.76,9.09-1.27a99.26,99.26,0,0,0,9.72-2,50.22,50.22,0,0,0,5.17-1.76,31.37,31.37,0,0,0,5.56-2.66,27.54,27.54,0,0,0,5.55-4.16l.63-.63.13-.13.25-.25.38-.51c.12-.12.25-.38.38-.5l.38-.38.37-.38c.13-.13.26-.25.26-.38.75-1.13,1.26-2,1.89-3a44.48,44.48,0,0,0,2.4-5.18c.63-1.64,1.26-3.15,1.76-4.67,1-3,1.9-6.06,2.78-9.09s1.52-5.93,2.27-9c1.39-5.94,2.65-11.74,3.79-17.68.5-2.9,1.14-5.93,1.64-8.84l.76-4.42.38-2.27.37-2.27a11.78,11.78,0,1,0-23.22-4,.76.76,0,0,1-.12.5v.13l-.26,2-.25,2.15-.63,4.29c-.38,2.9-.76,5.68-1.26,8.59-.89,5.68-1.89,11.23-3.16,16.79-.63,2.78-1.26,5.55-1.89,8.2s-1.39,5.31-2.15,7.83a26.85,26.85,0,0,1-1.26,3.54,22.48,22.48,0,0,1-1.26,2.9c-.13.38-.38.63-.38.76a12.13,12.13,0,0,1-1.51,1.14,26.7,26.7,0,0,1-5.56,2.27c-2.27.63-4.79,1.13-7.44,1.64-5.3.88-11.11,1.52-17,2.27s-12.12,1.64-18.43,3a76.48,76.48,0,0,0-9.71,2.78,56.55,56.55,0,0,0-9.85,4.42C545.07,302.64,544.31,302.64,544.06,302.89Z" style="fill:#c1725c"/><path d="M614.74,285.84a13.38,13.38,0,0,1,5.68,2.78c.5.38,1.13-.25.63-.63a13.68,13.68,0,0,0-6.06-3C614.36,284.83,614.11,285.72,614.74,285.84Z" style="fill:#7d351d"/><path d="M615.87,286l4.67-.38a.51.51,0,0,0,0-1l-4.67.38C615.24,285.09,615.24,286,615.87,286Z" style="fill:#7d351d"/><path d="M612,310c-6.81,1.26-13.25,3.41-20.19,3.79a.51.51,0,0,0,0,1c7.06-.51,13.63-2.53,20.44-3.92C612.84,310.72,612.59,309.83,612,310Z" style="fill:#7d351d"/><path d="M755,449.73a38.8,38.8,0,0,1-.75,5,6.13,6.13,0,0,0-.26,1.51c-1.26,5.43-3.78,13.39-9.08,20.21-.26.38-.63.75-.89,1.13a36.3,36.3,0,0,1-6.81,6.32c-.25.12-.51.37-.76.5A35.42,35.42,0,0,1,720.75,490c-.38,0-.76.12-1.13.12a37,37,0,0,1-3.79.13,41.1,41.1,0,0,1-14.14-2.4c-.25-.13-.63-.25-.88-.38a38.42,38.42,0,0,1-13.88-9.59c-.26-.26-.51-.64-.76-.89a54.44,54.44,0,0,1-7.82-12.12c-.13-.25-.26-.5-.38-.76a57.36,57.36,0,0,1-4.42-14.39Z" style="fill:#6059c9"/><path d="M690.08,449.73c-2.9,5.81-6.69,11.49-11.74,15.15-.12-.25-.25-.5-.37-.76,4.79-3.53,8.33-8.84,11.1-14.39Z" style="fill:#5880eb"/><path d="M702.07,449.73a39.91,39.91,0,0,0-11.61,14.65c-1.64,3.53-3.66,9-3.53,13.63-.26-.25-.51-.63-.76-.88a32.75,32.75,0,0,1,2.9-11.49,39.35,39.35,0,0,1,11.74-15.78h1.26Z" style="fill:#5880eb"/><path d="M737.16,483.82c-.25.13-.51.38-.76.5a40.14,40.14,0,0,1,9.84-34.72h1.27A39.05,39.05,0,0,0,737.16,483.82Z" style="fill:#5880eb"/><path d="M725.67,483.06c-1.51,2.27-3.28,4.55-4.92,6.82-.38,0-.76.13-1.14.13,2.4-3.16,4.8-6.32,6.95-9.73,1.26-1.89,3.4-4.67,2.65-7.19-1-3.16-5.3-1.77-7.45-1-8.2,2.77-14.39,9.21-20.07,15.65-.25-.12-.63-.25-.88-.38a83.61,83.61,0,0,1,8.08-8.33,41.76,41.76,0,0,1,10.85-7.2c2.65-1.13,7.57-3,9.84,0C731.86,475.36,727.57,480.41,725.67,483.06Z" style="fill:#5880eb"/><path d="M754.2,454.78a6.13,6.13,0,0,0-.26,1.51,29.47,29.47,0,0,0-9.08,20.21c-.26.37-.63.75-.89,1.13A30.23,30.23,0,0,1,754.2,454.78Z" style="fill:#5880eb"/><path d="M737.28,449.73c-1.64,1.51-3.4,3-5.17,4.54a146.15,146.15,0,0,1-13.38,10,49.9,49.9,0,0,1-7.07,4.17c-1.89.88-4.16,1.26-6-.13-3.79-2.78-1.77-8.59-.13-12a24.16,24.16,0,0,1,4.67-6.56h1.26a23.28,23.28,0,0,0-5.68,8.21c-.88,2.14-1.89,4.79-1.13,7.19,1,3.41,4.29,3.54,7.06,2.28,4.17-2,8.08-4.93,11.87-7.58a119.39,119.39,0,0,0,12.24-10.1Z" style="fill:#5880eb"/><path d="M714.19,452c22.51,0,40.76-1,40.76-2.27s-18.25-2.27-40.76-2.27-40.77,1-40.77,2.27S691.67,452,714.19,452Z" style="fill:#171612"/><path d="M735,364.25c-2.4,2.91-4.16,13.76-8.83,15.53-3.16,1.26-4.92-3.41,1.26-9.34a24.22,24.22,0,0,0,6.56-11,87.66,87.66,0,0,0-4.41-14.14c-3.54,3.28-9.34,8.08-11,5.81s3.53-10.23,6.56-14.14a23.15,23.15,0,0,0-4.67-5.18,14.52,14.52,0,0,0-9.85-3.53,12.6,12.6,0,0,0-7.44,2.77c3.15,6.32,7.95,17,4.67,19.57-3,2.28-7.57-6.56-10.35-13.25-3.91,6.06-6.56,14.39-7.7,22.35a15.06,15.06,0,0,0,4.42,4.79c6,4.42,13.25,13.26,9.72,15.15s-7.32-3.28-10.1-7.82a17.28,17.28,0,0,0-4.67-5.56v4c1,25.25,25.62,25.25,25.62,25.25S739.43,389.76,735,364.25Zm-30.92.51c-2.4,0-6.31-4.55-8.08-7.07s-.37-4.3,1.39-3.79h.13C699.8,354.66,707.25,364.88,704.09,364.76Zm21.46-5.94h0c1.76-.5,3.28.63,2.39,2.91-1.13,2.9-2.52,4-4.67,3C721.89,364,723,359.45,725.55,358.82Z" style="fill:#467b6c"/><path d="M712,358.06c2.15,11,1.52,22.48.63,33.59-.88,12-2,24-1.64,36a106.76,106.76,0,0,0,2.65,19.95c.13.63,1,.38.89-.25-5.81-23.74-.38-47.85-.26-71.84a92.44,92.44,0,0,0-1.38-17.68C712.8,357.18,711.92,357.43,712,358.06Z" style="fill:#171612"/><path d="M701.06,395.56c-.25,3.79,4.67,13.64,2,17.81-1.89,2.9-6.06.12-4.42-8.34a23.87,23.87,0,0,0-1.26-12.75,99.74,99.74,0,0,0-11.86-8.84c-.88,4.8-2.78,12-5.43,11.11-2.9-.88-3.15-10.35-3-15.27a22.52,22.52,0,0,0-6.81-1.39,14.09,14.09,0,0,0-10.1,3,12.37,12.37,0,0,0-4.42,6.69c6.31,3.28,16.54,9.09,15.28,13-1.14,3.67-10-.88-16.16-4.54.38,7.2,3.16,15.53,6.94,22.6a13.91,13.91,0,0,0,6.31,1.26c7.45,0,18.55,2.78,16.79,6.57s-7.83,1.76-12.75-.38a17.5,17.5,0,0,0-6.94-1.77c.76,1.14,1.64,2.27,2.4,3.28,15.65,19.83,35.46,5.31,35.46,5.31S719.61,413.62,701.06,395.56Zm-24.73,18.69c-2,1.39-7.83,0-10.73-.88s-2.78-3.29-1.14-3.92h.13C666.86,408.57,678.85,412.48,676.33,414.25Zm13.75-17.55c1.14-1.52,3-1.39,3.66.88.89,3,.38,4.8-2,5.18C690.21,403,688.57,398.72,690.08,396.7Z" style="fill:#467b6c"/><path d="M678.72,404a122.56,122.56,0,0,1,16.16,17.17A92,92,0,0,1,703.71,437c1.77,3.91,3.41,7.82,5.18,11.74.25.5,1,.13.75-.51-2.9-6.44-5.55-13-8.83-19.19A81.15,81.15,0,0,0,690,413.87c-3.41-3.66-7-7.07-10.61-10.48C679,402.89,678.22,403.64,678.72,404Z" style="fill:#171612"/><path d="M722.39,437.23s19.82,14.65,35.59-5.05a31.36,31.36,0,0,0,2.4-3.28,17.72,17.72,0,0,0-7.07,1.76c-4.92,2.15-11,4-12.74.26s9.33-6.57,16.78-6.44a13.48,13.48,0,0,0,6.31-1.27c3.91-7.07,6.69-15.4,7.19-22.6-6.18,3.67-15,8.21-16.15,4.42s9-9.72,15.4-13a13.3,13.3,0,0,0-4.42-6.69,14,14,0,0,0-10-3,25.94,25.94,0,0,0-6.82,1.39c0,4.92-.25,14.39-3.15,15.27-2.65.89-4.54-6.44-5.43-11.23a99.7,99.7,0,0,0-12,8.71,23.87,23.87,0,0,0-1.26,12.75c1.52,8.46-2.65,11.11-4.54,8.21-2.78-4.17,2.27-13.89,2.14-17.81C706,418,722.39,437.23,722.39,437.23Zm38.75-23c1.76.63,1.89,2.9-1,3.91s-8.84,2.28-10.73.89C746.75,417.15,758.74,413.37,761.14,414.25Zm-27.26-6.82c-2.4-.38-2.91-2.14-2-5.17.63-2.28,2.52-2.4,3.66-.89C737.16,403.39,735.39,407.68,733.88,407.43Z" style="fill:#467b6c"/><path d="M746.24,408.06A182.63,182.63,0,0,0,730,424.22a69.21,69.21,0,0,0-9,14.15c-1.89,3.78-3.66,7.7-5.3,11.49-.25.5.51,1,.76.5,2.78-6.06,5.43-12.25,8.83-17.93a73.9,73.9,0,0,1,11.11-13.89c3.41-3.41,6.94-6.69,10.48-9.85C747.38,408.32,746.75,407.68,746.24,408.06Z" style="fill:#171612"/><path d="M31.79,46.71a.45.45,0,0,1-.38-.13l-4.29-1.77a1,1,0,0,1-.51-.5,1,1,0,0,1-.12-.63l1.38-3.29a9.4,9.4,0,0,1-2-1.76L22.57,40a.92.92,0,0,1-1.26-.51l-1.77-4.29a.85.85,0,0,1,0-.76,1.05,1.05,0,0,1,.51-.51l3-1.26a14.86,14.86,0,0,1-.13-2.4l-3-1.26a1,1,0,0,1-.5-.5.79.79,0,0,1,0-.76l1.76-4.3a1,1,0,0,1,.51-.5.79.79,0,0,1,.76,0l2.77,1a11.51,11.51,0,0,1,2.15-2.15l-1.26-3a.92.92,0,0,1,.5-1.26l4.29-1.77a.85.85,0,0,1,.76,0,1,1,0,0,1,.5.51l1.39,3.28h1.64L36.58,16a.92.92,0,0,1,1.26-.51l4.29,1.77a1,1,0,0,1,.51.5.79.79,0,0,1,0,.76L41.25,22a11.22,11.22,0,0,1,2.15,2.15l3-1.27a.83.83,0,0,1,.75,0,1,1,0,0,1,.51.51l1.76,4.29A.91.91,0,0,1,49,28.9l-3.28,1.39v2.15l3.41,1.39a.92.92,0,0,1,.5,1.26l-1.77,4.29a1,1,0,0,1-.5.51.79.79,0,0,1-.76,0L43,38.5l-1.14,1.14,1.39,3.28a.92.92,0,0,1-.5,1.26L38.47,46a.77.77,0,0,1-.75,0,1,1,0,0,1-.51-.51l-1.26-3a9.25,9.25,0,0,1-1.89.13l-1.52,3.79A.89.89,0,0,1,31.79,46.71Zm-3.16-3.16,2.52,1L32.54,41a1,1,0,0,1,1-.64,10.36,10.36,0,0,0,2.78-.12,1,1,0,0,1,1.14.5l1.26,2.91,2.52-1.14-1.26-3a1.22,1.22,0,0,1,.25-1.14A8.47,8.47,0,0,0,42,36.48a.81.81,0,0,1,1.13-.25l3.29,1.39,1-2.53-3.16-1.26a1.12,1.12,0,0,1-.63-1,8.36,8.36,0,0,0,.13-3,.93.93,0,0,1,.63-1l3-1.26L46.3,25l-2.9,1.26a1,1,0,0,1-1.14-.38,8.92,8.92,0,0,0-2.65-2.65,1,1,0,0,1-.38-1.13l1.26-3.16-2.52-1L36.58,21.2a1.11,1.11,0,0,1-1,.63,8.85,8.85,0,0,0-2.52,0,.93.93,0,0,1-1-.63l-1.26-3-2.53,1.14,1.26,2.9a1,1,0,0,1-.37,1.14A8.8,8.8,0,0,0,26.49,26a1,1,0,0,1-1.14.38L22.7,25.24l-1,2.53,2.78,1.13a1.15,1.15,0,0,1,.63,1,9.46,9.46,0,0,0,.12,3.29.8.8,0,0,1-.5,1l-2.9,1.26L23,38l3-1.26a1.24,1.24,0,0,1,1.14.25,9.42,9.42,0,0,0,2.65,2.4.87.87,0,0,1,.38,1.14Zm5.68-7.32a5.78,5.78,0,0,1-2-.38,5.69,5.69,0,0,1-2.9-2.78A5.2,5.2,0,1,1,39,29,5.4,5.4,0,0,1,36.2,36,7.35,7.35,0,0,1,34.31,36.23Zm0-8.59a4.69,4.69,0,0,0-1.26.25,3.39,3.39,0,0,0-1.77,4.42,4,4,0,0,0,1.77,1.77,2.92,2.92,0,0,0,2.52,0,4,4,0,0,0,1.77-1.77,2.92,2.92,0,0,0,0-2.52A3.11,3.11,0,0,0,34.31,27.64Z" style="fill:#ccc0b2"/><path d="M57.28,91.66H44.91A11.26,11.26,0,0,1,33.68,80.42V53a1,1,0,0,1,1-1,.93.93,0,0,1,1,1v27.4A9.31,9.31,0,0,0,45,89.76H57.41a1,1,0,0,1,1,1C58.42,91.4,57.78,91.66,57.28,91.66Z" style="fill:#ccc0b2"/><path d="M732.87,206.8H718.61a10.4,10.4,0,0,1-10.35-10.35v-7.07a8.46,8.46,0,0,0-8.46-8.46H673.55a1,1,0,0,1-1-1,.93.93,0,0,1,1-1H699.8a10.4,10.4,0,0,1,10.35,10.35v7.07a8.46,8.46,0,0,0,8.46,8.46h14.26a1,1,0,0,1,1,1A.93.93,0,0,1,732.87,206.8Z" style="fill:#ccc0b2"/><path d="M753.82,218.42A14.14,14.14,0,1,1,768,204.28,14.11,14.11,0,0,1,753.82,218.42Zm0-26.26a12.12,12.12,0,1,0,12.11,12.12A12.12,12.12,0,0,0,753.82,192.16Z" style="fill:#cabeb0"/><path d="M750,210.85a.77.77,0,0,1-.76-.38l-2.52-3.16a1,1,0,0,1,.13-1.39,1,1,0,0,1,1.38.13l1.9,2.27,10.47-10.48a1,1,0,1,1,1.39,1.39l-11.23,11.24A1.11,1.11,0,0,1,750,210.85Z" style="fill:#cabeb0"/><path d="M548.49,89.27a29.54,29.54,0,1,0-41.27,6.4A29.56,29.56,0,0,0,548.49,89.27Z" style="fill:#ccc0b2"/><path d="M524.63,97.46a29.55,29.55,0,1,0-29.54-29.54A29.53,29.53,0,0,0,524.63,97.46Z" style="fill:#e59f3f"/><path d="M524.63,91.91a24,24,0,1,1,24-24A24,24,0,0,1,524.63,91.91Z" style="fill:#fff"/><path d="M548.6,67.92a10,10,0,0,1-.12,1.89,24.06,24.06,0,0,0-48,0c0-.63-.13-1.26-.13-1.89a24.11,24.11,0,0,1,48.21,0Z" style="fill:#f0e8e0"/><path d="M524.63,70.44a.94.94,0,0,1-.51-.25L512.38,54.28c-.25-.25-.12-.63.13-.88a.62.62,0,0,1,.88.12l11.49,15.53,13-5.68a.56.56,0,0,1,.5,1l-13.5,5.94C524.88,70.44,524.75,70.44,524.63,70.44Z" style="fill:#171612"/><path d="M309.69,238.62V121.07a3.34,3.34,0,0,0-3.28-3.28H247a3.34,3.34,0,0,0-3.28,3.28V238.62a6.52,6.52,0,0,0,6.56,6.57H303A6.62,6.62,0,0,0,309.69,238.62Z" style="fill:#fff"/><path d="M299.85,207.06H255.93a1.39,1.39,0,1,1,0-2.78h43.92a1.39,1.39,0,0,1,0,2.78Z" style="fill:#f0e8e0"/><path d="M299.85,216.27H255.93a1.39,1.39,0,1,1,0-2.77h43.92a1.39,1.39,0,1,1,0,2.77Z" style="fill:#f0e8e0"/><path d="M299.85,225.49H255.93a1.39,1.39,0,1,1,0-2.78h43.92a1.39,1.39,0,0,1,0,2.78Z" style="fill:#f0e8e0"/><path d="M299.85,234.71H255.93a1.39,1.39,0,1,1,0-2.78h43.92a1.4,1.4,0,0,1,1.39,1.39A1.49,1.49,0,0,1,299.85,234.71Z" style="fill:#f0e8e0"/><path d="M309.69,121.07v9h-66v-9a3.34,3.34,0,0,1,3.28-3.28h59.44A3.34,3.34,0,0,1,309.69,121.07Z" style="fill:#171612"/><path d="M293.67,123.35a2.15,2.15,0,1,1-2.15-2.15A2.13,2.13,0,0,1,293.67,123.35Z" style="fill:#5a554d"/><path d="M300.61,123.35a2.15,2.15,0,1,1-2.15-2.15A2.13,2.13,0,0,1,300.61,123.35Z" style="fill:#5a554d"/><path d="M307.3,123.35a2.15,2.15,0,1,1-2.15-2.15A2.21,2.21,0,0,1,307.3,123.35Z" style="fill:#5a554d"/><path d="M264.26,180.42h-7.45v17.93h7.45Z" style="fill:#6059c9"/><path d="M275.11,167.66h-7.44v30.68h7.44Z" style="fill:#5880eb"/><path d="M287.23,158.32h-7.45v40h7.45Z" style="fill:#1c2b74"/><path d="M299.09,147.21h-7.44v51.13h7.44Z" style="fill:#6059c9"/><path d="M285.46,139.38l5.18,1.9-.63-6.06Z" style="fill:#5880eb"/><path d="M254.79,171.7c-.25,0-.37-.12-.5-.37a.56.56,0,0,1,.38-.76c.25-.13,22.59-8.59,33.44-31.69a.56.56,0,1,1,1,.5c-11.1,23.36-33.82,32.07-34.07,32.2A.42.42,0,0,1,254.79,171.7Z" style="fill:#5880eb"/><path d="M554.16,174H431.74a6.06,6.06,0,0,1-6.06-6.06V147.71a6.07,6.07,0,0,1,6.06-6.06H554.16a6.06,6.06,0,0,1,6.06,6.06v20.21A5.91,5.91,0,0,1,554.16,174Z" style="fill:#fff"/><path d="M443.1,168.42a10.61,10.61,0,1,0-10.61-10.6A10.61,10.61,0,0,0,443.1,168.42Z" style="fill:#6059c9"/><path d="M441.08,163.37l-3.66-3.66,1.51-1.52,2.15,2.15,6.18-6.19,1.51,1.52Z" style="fill:#fff"/><path d="M552.14,151.25H460.76a1.39,1.39,0,0,1,0-2.78h91.38a1.39,1.39,0,0,1,0,2.78Z" style="fill:#f0e8e0"/><path d="M552.14,167.29H460.76a1.39,1.39,0,0,1,0-2.78h91.38a1.39,1.39,0,0,1,0,2.78Z" style="fill:#f0e8e0"/><path d="M552.14,159.2H460.76a1.39,1.39,0,0,1,0-2.77h91.38a1.39,1.39,0,1,1,0,2.77Z" style="fill:#f0e8e0"/><path d="M491.68,170.82l7.2,15.15,7.19-15.15Z" style="fill:#fff"/></svg>