<svg id="Layer_1" data-name="Layer 1" xmlns="http://www.w3.org/2000/svg" xmlns:xlink="http://www.w3.org/1999/xlink" viewBox="0 0 557 571"><defs><clipPath id="clip-path"><rect x="-0.35" y="7.27" width="557" height="564" style="fill:none"/></clipPath></defs><g style="clip-path:url(#clip-path)"><g style="opacity:0.5"><g style="opacity:0.5"><path d="M264,261.24a78.53,78.53,0,1,1,55.71-23A78.77,78.77,0,0,1,264,261.24ZM264,106a76.64,76.64,0,1,0,76.71,76.64C340.8,140.37,306.35,106,264,106Z" style="fill:#c1a084;opacity:0.5;isolation:isolate"/></g></g><g style="opacity:0.5"><g style="opacity:0.5"><path d="M521.93,245.64a10.49,10.49,0,1,1,10.5-10.48A10.67,10.67,0,0,1,521.93,245.64Zm0-18.82a8.47,8.47,0,1,0,8.48,8.47A8.52,8.52,0,0,0,521.93,226.82Z" style="fill:#c1a084;opacity:0.5;isolation:isolate"/></g></g><g style="opacity:0.5"><g style="opacity:0.5"><path d="M147.42,144.54a10.49,10.49,0,1,1,10.49-10.49A10.51,10.51,0,0,1,147.42,144.54Zm0-18.82a8.47,8.47,0,1,0,8.47,8.47A8.44,8.44,0,0,0,147.42,125.72Z" style="fill:#c1a084;opacity:0.5;isolation:isolate"/></g></g><g style="opacity:0.5"><g style="opacity:0.5"><g style="opacity:0.5"><g style="opacity:0.5"><g style="opacity:0.5"><path d="M87.26,156.51H58.46a1.21,1.21,0,0,1-1.21-1.21V143.6a1.21,1.21,0,0,1,1.21-1.21H87.13a1.21,1.21,0,0,1,1.21,1.21v11.7A1.1,1.1,0,0,1,87.26,156.51Z" style="fill:#d8ba9a;opacity:0.5;isolation:isolate"/></g></g></g></g><g style="opacity:0.5"><g style="opacity:0.5"><g style="opacity:0.5"><g style="opacity:0.5"><path d="M120.37,156.51H91.7a1.21,1.21,0,0,1-1.21-1.21V143.6a1.21,1.21,0,0,1,1.21-1.21h28.67a1.21,1.21,0,0,1,1.21,1.21v11.7A1.13,1.13,0,0,1,120.37,156.51Z" style="fill:#d8ba9a;opacity:0.5;isolation:isolate"/></g></g></g></g><g style="opacity:0.5"><g style="opacity:0.5"><g style="opacity:0.5"><g style="opacity:0.5"><path d="M103.68,172.1H74.88a1.21,1.21,0,0,1-1.21-1.21v-11.7A1.21,1.21,0,0,1,74.88,158h28.67a1.21,1.21,0,0,1,1.21,1.21v11.7A1.1,1.1,0,0,1,103.68,172.1Z" style="fill:#d8ba9a;opacity:0.5;isolation:isolate"/></g></g></g></g></g><g style="opacity:0.5"><g style="opacity:0.5"><g style="opacity:0.5"><g style="opacity:0.5"><g style="opacity:0.5"><path d="M509.15,183H480.49a1.2,1.2,0,0,1-1.21-1.21v-11.7a1.2,1.2,0,0,1,1.21-1.21h28.66a1.21,1.21,0,0,1,1.21,1.21v11.7A1.41,1.41,0,0,1,509.15,183Z" style="fill:#d8ba9a;opacity:0.5;isolation:isolate"/></g></g></g></g><g style="opacity:0.5"><g style="opacity:0.5"><g style="opacity:0.5"><g style="opacity:0.5"><path d="M542.26,183H513.59a1.21,1.21,0,0,1-1.21-1.21v-11.7a1.21,1.21,0,0,1,1.21-1.21h28.67a1.21,1.21,0,0,1,1.21,1.21v11.7C543.33,182.45,542.93,183,542.26,183Z" style="fill:#d8ba9a;opacity:0.5;isolation:isolate"/></g></g></g></g><g style="opacity:0.5"><g style="opacity:0.5"><g style="opacity:0.5"><g style="opacity:0.5"><path d="M525.57,198.59H496.9a1.21,1.21,0,0,1-1.21-1.21v-11.7a1.21,1.21,0,0,1,1.21-1.21h28.67a1.21,1.21,0,0,1,1.21,1.21v11.7A1.41,1.41,0,0,1,525.57,198.59Z" style="fill:#d8ba9a;opacity:0.5;isolation:isolate"/></g></g></g></g></g><path d="M89.28,106.36a31.6,31.6,0,1,1,31.63-31.6A31.66,31.66,0,0,1,89.28,106.36Zm0-62a30.39,30.39,0,1,0,30.41,30.38A30.45,30.45,0,0,0,89.28,44.38Z" style="fill:#d8ba9a"/><g style="opacity:0.30000001192092896"><g style="opacity:0.30000001192092896"><g style="opacity:0.30000001192092896"><path d="M89.28,99.77a25,25,0,1,0-25-25A25,25,0,0,0,89.28,99.77Z" style="fill:#d8ba9a;opacity:0.30000001192092896;isolation:isolate"/></g></g></g><path d="M89.28,56.21a.58.58,0,0,1-.54-.54V52.18a.54.54,0,1,1,1.08,0v3.49C90,55.94,89.68,56.21,89.28,56.21Z" style="fill:#d8ba9a"/><path d="M76.23,61.59c-.27.27-.68.27-.81,0L73,59.17c-.27-.27-.27-.68,0-.81s.67-.27.8,0l2.43,2.42A.88.88,0,0,1,76.23,61.59Z" style="fill:#d8ba9a"/><path d="M70.71,74.76a.58.58,0,0,1-.54.54h-3.5a.54.54,0,1,1,0-1.08h3.5C70.44,74.09,70.71,74.36,70.71,74.76Z" style="fill:#d8ba9a"/><path d="M76.23,87.8c.27.27.27.68,0,.81l-2.56,2.55c-.27.27-.67.27-.81,0s-.27-.67,0-.8l2.43-2.42A.57.57,0,0,1,76.23,87.8Z" style="fill:#d8ba9a"/><path d="M89.28,93.32a.58.58,0,0,1,.54.53v3.5a.54.54,0,0,1-1.08,0v-3.5A.58.58,0,0,1,89.28,93.32Z" style="fill:#d8ba9a"/><path d="M102.47,87.8c.27-.27.67-.27.81,0l2.42,2.42c.27.27.27.68,0,.81s-.67.27-.81,0l-2.42-2.42C102.2,88.48,102.2,88.07,102.47,87.8Z" style="fill:#d8ba9a"/><path d="M107.85,74.76a.58.58,0,0,1,.54-.54h3.5a.54.54,0,0,1,0,1.08h-3.5A.58.58,0,0,1,107.85,74.76Z" style="fill:#d8ba9a"/><path d="M102.47,61.59c-.27-.27-.27-.68,0-.81l2.42-2.42c.27-.27.67-.27.81,0s.27.67,0,.81l-2.42,2.42C103,61.86,102.6,61.86,102.47,61.59Z" style="fill:#d8ba9a"/><path d="M98.3,84.17s-.14,0-.14-.13l-9-9.14a.25.25,0,0,1,0-.41L99.24,64.41a.25.25,0,0,1,.4,0,.24.24,0,0,1,0,.4l-10,10,8.89,9a.25.25,0,0,1,0,.4Z" style="fill:#d8ba9a"/><g style="opacity:0.5"><g style="opacity:0.5"><path d="M227.35,69.92H182.14l7.4-45.71h45.22Z" style="fill:#d8ba9a;opacity:0.5;isolation:isolate"/></g></g><path d="M238.93,24.21l-7.4,45.71h-4.18l7.41-45.71Z" style="fill:#d8ba9a"/><path d="M229.78,28.51l-3.1,19.23-3,18h-36.6l1.61-9.94,4.44-27.3Z" style="fill:#fee8c8"/><path d="M208.38,42.63c-.54,3.76-3.77,6.86-7.4,6.86s-6.06-3.1-5.52-6.86,3.77-6.86,7.4-6.86S208.92,38.87,208.38,42.63Z" style="fill:#d8ba9a"/><path d="M235.7,43.57l8.07,26.35h-4.31L234,54.6Z" style="fill:#d8ba9a"/><path d="M332.59,78.26H168.81l-4.57-8.34H336.49Z" style="fill:#d8ba9a"/><path d="M226.68,47.74l-3,18h-36.6l1.61-9.94c2.69-3,7-5.52,12.78-2.56,10.77,5.38,13.06-4.57,21.4-6.18A4.6,4.6,0,0,1,226.68,47.74Z" style="fill:#d8ba9a"/><g style="opacity:0.5"><g style="opacity:0.5"><g style="opacity:0.5"><g style="opacity:0.5"><path d="M311.6,59.57h3.63v-2h-54.5a6.11,6.11,0,0,0-4.44,1.89,6.27,6.27,0,0,0,4.44,10.75h54.5V68.44H311.6Z" style="fill:#d8ba9a;opacity:0.5;isolation:isolate"/></g></g></g></g><path d="M312,59.57v8.6H264.09a4.22,4.22,0,0,1-4.17-4.3,4.91,4.91,0,0,1,1.21-3.09,4.18,4.18,0,0,1,3-1.21Z" style="fill:#fee8c8"/><path d="M312,61.72v1.35H265.44a.68.68,0,1,1,0-1.35Z" style="fill:#d8ba9a"/><path d="M312,65v1.34H265.44a.67.67,0,1,1,0-1.34Z" style="fill:#d8ba9a"/><path d="M303.39,47.07H307V44.92h-54.5a6.1,6.1,0,0,0-4.44,1.88,6.39,6.39,0,0,0-1.89,4.43,6.32,6.32,0,0,0,6.33,6.32H307V55.67h-3.63Z" style="fill:#d8ba9a"/><path d="M303.66,47.07v8.6H255.75a4.22,4.22,0,0,1-4.17-4.3,4.83,4.83,0,0,1,1.21-3.09,4.14,4.14,0,0,1,3-1.21Z" style="fill:#fee8c8"/><path d="M303.66,49.22v1.34H257.09a.67.67,0,1,1,0-1.34Z" style="fill:#d8ba9a"/><path d="M303.66,52.44v1.35H257.09a.68.68,0,0,1,0-1.35Z" style="fill:#d8ba9a"/><g style="opacity:0.30000001192092896"><path d="M373.5,267.42V16.28a3.57,3.57,0,0,1,3.5-3.5h74.82a3.56,3.56,0,0,1,3.5,3.5V267.42a3.56,3.56,0,0,1-3.5,3.5H377A3.56,3.56,0,0,1,373.5,267.42Z" style="fill:#d8ba9a;opacity:0.30000001192092896;isolation:isolate"/></g><g style="opacity:0.5"><path d="M458.82,7.27H370a2.07,2.07,0,0,0-2,2V274.41a2.07,2.07,0,0,0,2,2h88.82a2.07,2.07,0,0,0,2-2V9.29A2.17,2.17,0,0,0,458.82,7.27ZM455.19,270a.92.92,0,0,1-.95.94H374.31a.91.91,0,0,1-.94-.94V13.59a.91.91,0,0,1,.94-.94h79.93a.92.92,0,0,1,.95.94Z" style="fill:#c1a084;opacity:0.5;isolation:isolate"/></g><g style="opacity:0.5"><path d="M455.19,188.1h-82.5v3.23h82.5Z" style="fill:#c1a084;opacity:0.5;isolation:isolate"/></g><g style="opacity:0.5"><path d="M455.19,81.48h-82.5v3.23h82.5Z" style="fill:#c1a084;opacity:0.5;isolation:isolate"/></g><path d="M426.39,554.6s-18.44-25.14-11.85-30,17,25.41,17,25.41,3.9-13.58,11.17-10.89c8.61,3.22-4.44,15.46-4.44,15.46Z" style="fill:#d8ba9a"/><path d="M119.16,552.72s-13.73-21-7.14-25.82,12.25,21.38,12.25,21.38,3.9-13.58,11.17-10.89c8.61,3.23-4.44,15.46-4.44,15.46H119.16Z" style="fill:#d8ba9a"/><path d="M274.72,571.14c150.73,0,272.92-4.94,272.92-11s-122.19-11-272.92-11S1.81,554,1.81,560.11,124,571.14,274.72,571.14Z" style="fill:#d8ba9a"/><g style="opacity:0.5"><path d="M64.79,494.37a19.37,19.37,0,0,0-3-13c-5.39-7.94-29.34-35-41.18-39.67-13.46-5.37,8.48,51.9,23.41,60.24C55.64,508.22,63.85,502.17,64.79,494.37Z" style="fill:#d8ba9a;opacity:0.5;isolation:isolate"/></g><path d="M76.23,558H77.3a199.4,199.4,0,0,0-27.45-70.58,173,173,0,0,0-14.4-19.77c-.4-.54-1.21.27-.81.81a198.33,198.33,0,0,1,38.63,76.36C74.48,549.09,75.42,553.52,76.23,558Z" style="fill:#d8ba9a"/><g style="opacity:0.5"><path d="M55.23,516a10.26,10.26,0,0,0-5.65-5.24c-7.4-3-37.55-14.65-47.91-12.91-11.84,1.89,28.67,33.48,42.66,32.94C55.23,530.4,58.73,522.6,55.23,516Z" style="fill:#d8ba9a;opacity:0.5;isolation:isolate"/></g><path d="M30.74,515.48a133.31,133.31,0,0,0,37,11.69c.67.14.94-.94.27-1.07a129.89,129.89,0,0,1-36.74-11.57C30.61,514.27,30.07,515.21,30.74,515.48Z" style="fill:#d8ba9a"/><g style="opacity:0.5"><path d="M491.39,494.37a19.26,19.26,0,0,1,3-13c5.38-7.94,29.33-35,41.18-39.67,13.45-5.37-8.48,51.9-23.42,60.24C500.67,508.22,492.46,502.17,491.39,494.37Z" style="fill:#d8ba9a;opacity:0.5;isolation:isolate"/></g><path d="M480,558h-1.08a199.59,199.59,0,0,1,27.45-70.58,174.19,174.19,0,0,1,14.4-19.77c.41-.54,1.21.27.81.81a198.31,198.31,0,0,0-38.62,76.36C481.83,549.09,480.76,553.52,480,558Z" style="fill:#d8ba9a"/><g style="opacity:0.5"><path d="M500.94,516a10.29,10.29,0,0,1,5.65-5.24c7.41-3,37.55-14.65,47.91-12.91,11.84,1.89-28.66,33.48-42.66,32.94C501.08,530.4,497.44,522.6,500.94,516Z" style="fill:#d8ba9a;opacity:0.5;isolation:isolate"/></g><path d="M525.57,515.48a133.31,133.31,0,0,1-37,11.69c-.67.14-.94-.94-.27-1.07A129.89,129.89,0,0,0,525,514.53C525.7,514.27,526.24,515.21,525.57,515.48Z" style="fill:#d8ba9a"/><path d="M367.85,406H184.69c-8.07,0-14.4-7.53-13.19-16,2.29-16.67,10.5-39.66,10.5-39.66l94.34,5.91,94.33-5.91s8.21,23,10.5,39.66C382.25,398.37,375.92,406,367.85,406Z" style="fill:#272b34"/><path d="M330.17,250.35H212.55V360.73H330.17Z" style="fill:#272b34"/><path d="M315.23,406s-11.17,12.63-38.89,12.77h-.14c-27.59,0-38.89-12.77-38.89-12.77Z" style="fill:#272b34"/><path d="M317.25,536.58v8.61h-6.33v-3.9a2.07,2.07,0,0,0-2-2H282a1.64,1.64,0,0,0-1.62,1.62v4.16h-7.26v-4a1.67,1.67,0,0,0-1.75-1.61H244.71a2.07,2.07,0,0,0-2,2v3.9h-6.32v-8.6a3.56,3.56,0,0,1,3.5-3.5H273V418.94h7.27V533.22h33.37A3.26,3.26,0,0,1,317.25,536.58Z" style="fill:#272b34"/><path d="M278.49,481.19h-3.63a5,5,0,0,1-5-5V432.79H283.6v43.43A5.07,5.07,0,0,1,278.49,481.19Z" style="fill:#63636d"/><path d="M249,550.83a9.42,9.42,0,1,1-9.42-9.41A9.45,9.45,0,0,1,249,550.83Z" style="fill:#272b34"/><path d="M239.6,556.21a5.38,5.38,0,1,1,5.38-5.38A5.39,5.39,0,0,1,239.6,556.21Z" style="fill:#63636d"/><path d="M286.16,550.83a9.42,9.42,0,1,1-9.42-9.41A9.45,9.45,0,0,1,286.16,550.83Z" style="fill:#272b34"/><path d="M276.88,556.21a5.38,5.38,0,1,1,5.38-5.38A5.4,5.4,0,0,1,276.88,556.21Z" style="fill:#63636d"/><path d="M323.57,550.83a9.42,9.42,0,1,1-9.42-9.41A9.45,9.45,0,0,1,323.57,550.83Z" style="fill:#272b34"/><path d="M314.15,556.21a5.38,5.38,0,1,1,5.39-5.38A5.39,5.39,0,0,1,314.15,556.21Z" style="fill:#63636d"/><path d="M312.94,407.11H239.19a.35.35,0,0,1-.4-.4v-.27a.35.35,0,0,1,.4-.4h73.75a.35.35,0,0,1,.4.4v.27A.43.43,0,0,1,312.94,407.11Z" style="fill:#63636d"/><path d="M263.15,130.56s-20-1.75-23.42,12.9,13.87,24.74-3.36,32.94-24.22,2.29-30.68,18.29c-5,12.23,5.92,14.11-7.94,23.39s1.34,39.13,23.68,33.48c12.25-3.09,13.19-23.4,20.86-12.64S266,266.21,275,254.38s9.83-34.82,28.67-27,26.78,5.64,30.41-.54-4.44-23.93-13.46-29.31-18.3-11.7-12.38-21.64c4.85-8.21,1.35-12.91-5.38-18.83s-.27-8.06-5.92-19.36S273.11,121.82,263.15,130.56Z" style="fill:#272b34"/><path d="M289.93,154.22s10.36-.13,12.11,9.68-4.57,15.6-10,15.6C292.08,179.5,281.05,165.65,289.93,154.22Z" style="fill:#fff"/><path d="M241.48,154.62s6.46,14-7.67,20.3c-11.17,5-22.34,5.25-24.49,15.06" style="fill:none;stroke:#272b34;stroke-linecap:round;stroke-linejoin:round;stroke-width:0.75px"/><path d="M309.17,171s-3.76,9.81,1.21,14.78,17.36,12.78,17.9,23" style="fill:none;stroke:#272b34;stroke-linecap:round;stroke-linejoin:round;stroke-width:0.75px"/><path d="M193.71,226.28s-2.56,13.72,5.38,22.19,18.17,4.3,18.17,4.3" style="fill:none;stroke:#272b34;stroke-linecap:round;stroke-linejoin:round;stroke-width:0.75px"/><path d="M239.2,304.53s-20.32,14.65-13.87,28.5c9.29,19.9,64.33,33.75,83,8.88,10.49-14,4.44-17.75,4.44-17.75L301.23,308Z" style="fill:#1e1759"/><path d="M162.49,263.79s-3-.94,2.42-8.33S182.27,237,182.27,237,188.06,256.4,162.49,263.79Z" style="fill:#272b34"/><path d="M184.56,246.32l-18-27-10.9,5,15.74,34.28Z" style="fill:#ff8c66"/><path d="M155.36,210.69c2-.41-1.22-3.63-3.23-5.52-2.56-2.42-2-5.1,2.55-3.22,5.79,2.55,7.4,3.76,10.9,7.26a10.14,10.14,0,0,1,2.16,3.49,12.18,12.18,0,0,1-.81,9.68,43.19,43.19,0,0,1-2.69,4.44c-3,4.17-10.5,2.42-14.94,2.69a19.84,19.84,0,0,1-12.52-3.9c-3.49-2.55-8.34-5.24-6.32-6.72s7.94,4.84,8.61,3.76-13.19-7.93-12.78-9.81,3-1.08,3-1.08-2.15-1.48-.81-3,5.12-.13,5.12-.13l8.47,3.09s-4.44-4.84-3.09-7.26,8.48-3.09,10.09-2.82,2,1.75-.27,3.09-4.44,1.35-3.9,3.36a4.88,4.88,0,0,0,5.11,3.36C152,211.09,155.36,210.69,155.36,210.69Z" style="fill:#ff8c66"/><path d="M129,211.22c4.44,1.62,8.88,3.37,13.19,5.25.54.27,0,.94-.54.8-4.31-1.88-8.61-3.49-13-5.1C128.17,211.9,128.44,211.09,129,211.22Z" style="fill:#cc5622"/><path d="M140.42,220.5a25.74,25.74,0,0,1,5.11-10.35c.41-.54,1.08,0,.81.4a24.57,24.57,0,0,0-4.85,9.95C141.23,221,140.28,221,140.42,220.5Z" style="fill:#cc5622"/><path d="M147.55,215.53c5.79-.94,10.9,1.34,13,6.05.27.53-.67.94-.8.4-2.16-4.3-6.73-6.59-12.12-5.65C147.15,216.47,147,215.66,147.55,215.53Z" style="fill:#cc5622"/><path d="M162.49,263.79s10.36,8.47,21.93,27.7a67.82,67.82,0,0,0,7,9.54c9.15,10.22,19.65,14.12,27.45,8.47a14.93,14.93,0,0,0,3.37-3.22c3.09-3.77,6.59-10.76,10-18.56,7.26-16.67,13.86-37.1,13.86-37.1l-9.42-22.05-13.59-8.2L222,223.46,217.13,240l-10.77,30.92-24-33.75v.27a40.15,40.15,0,0,1-6.87,15.46A42.45,42.45,0,0,1,162.49,263.79Z" style="fill:#396c61"/><path d="M187,245.51a40.91,40.91,0,0,1-15.48,26.75.38.38,0,1,0,.54.54,42.83,42.83,0,0,0,15.75-27.29C187.92,245,187,245,187,245.51Z" style="fill:#fffcf7"/><path d="M191.42,300.9c9.15,10.22,19.65,14.12,27.46,8.47-4.85-4.44-15.62-12.5-25.17-9.41A7.49,7.49,0,0,0,191.42,300.9Z" style="fill:#fffcf7"/><path d="M206.9,270.38a93.49,93.49,0,0,1,7.67,18.55c.27.68-.94.95-1.08.27A98.62,98.62,0,0,0,206,270.92C205.55,270.38,206.49,269.71,206.9,270.38Z" style="fill:#fffcf7"/><path d="M209.86,276.43c1.88,1.61,3.63,3.5,5.65,5.11.54.4-.27,1.21-.81.81-1.88-1.62-3.63-3.5-5.65-5.11C208.51,276.83,209.32,276,209.86,276.43Z" style="fill:#fffcf7"/><path d="M385.61,252.77s3.1-1.35-3.5-8.61-20.45-17.88-20.45-17.88S357.49,247.66,385.61,252.77Z" style="fill:#272b34"/><path d="M356.81,247.12l16.42-30.92,12.25,4.3-13.19,38.18Z" style="fill:#ff8c66"/><path d="M385.61,252.77S375.38,263,365,284.63a82.17,82.17,0,0,1-6.46,10.89c-8.75,12-19.51,17.08-28.39,11.83a16.24,16.24,0,0,1-3.91-3.09c-3.63-3.76-8.2-10.89-12.51-18.82C304.19,268.36,295,247.39,295,247.39l7.67-24.47,5.66-18,3.49,6.72L323,233.14l16.56,31.73,22.07-38.45c0,.13,0,.13.13.27a42.7,42.7,0,0,0,9,15.73A38.85,38.85,0,0,0,385.61,252.77Z" style="fill:#396c61"/><path d="M355.06,238.38a31.14,31.14,0,0,0,23.69,22.05c.54.14.8-.67.27-.8a30.28,30.28,0,0,1-23.15-21.38C355.74,237.71,354.93,237.85,355.06,238.38Z" style="fill:#fffcf7"/><path d="M358.56,295.39c-8.75,12-19.51,17.07-28.39,11.83,4.71-5.24,15.34-14.92,26-12.77A22.88,22.88,0,0,1,358.56,295.39Z" style="fill:#fffcf7"/><path d="M338.91,264.47a91.84,91.84,0,0,0-6.19,20.7.62.62,0,0,0,1.21.27,95.75,95.75,0,0,1,6.2-20.3C340.26,264.2,339.18,263.79,338.91,264.47Z" style="fill:#fffcf7"/><path d="M336.36,271.32c-1.89,1.88-3.5,4-5.52,5.92-.54.54.4,1.34.94.8,1.89-1.88,3.5-4,5.52-5.91A.62.62,0,1,0,336.36,271.32Z" style="fill:#fffcf7"/><path d="M385.07,207.19c-2-.4,1.21-3.63,3.23-5.51,2.56-2.42,2-5.11-2.55-3.23-5.79,2.56-7.4,3.77-10.9,7.26a10.09,10.09,0,0,0-2.16,3.5,12.19,12.19,0,0,0,.81,9.68,44.24,44.24,0,0,0,2.69,4.43c3,4.17,10.5,2.42,14.94,2.69a19.74,19.74,0,0,0,12.51-3.9c3.5-2.55,8.35-5.24,6.33-6.72s-7.94,4.84-8.61,3.77,13.19-7.94,12.78-9.82-3-1.07-3-1.07,2.15-1.48.81-3-5.12-.14-5.12-.14l-8.47,3.1s4.44-4.84,3.09-7.26-8.48-3.1-10.09-2.83-2,1.75.27,3.1,4.44,1.34,3.9,3.36a4.89,4.89,0,0,1-5.11,3.36C388.57,207.59,385.07,207.19,385.07,207.19Z" style="fill:#ff8c66"/><path d="M411.45,207.73c-4.44,1.61-8.88,3.36-13.19,5.24-.54.27,0,.94.54.81,4.31-1.88,8.61-3.5,13.05-5.11C412.26,208.4,412,207.59,411.45,207.73Z" style="fill:#cc5622"/><path d="M400,217a25.91,25.91,0,0,0-5.11-10.36c-.41-.53-1.08,0-.81.41a24.42,24.42,0,0,1,4.84,9.95C399.34,217.54,400.15,217.54,400,217Z" style="fill:#cc5622"/><path d="M392.88,212c-5.79-.94-10.9,1.35-13.05,6.05-.27.54.67.94.8.4,2.16-4.3,6.73-6.58,12.11-5.64C393.28,213,393.42,212.17,392.88,212Z" style="fill:#cc5622"/><path d="M316,234.35c0,1.75,0,3.36-.14,5.11a241.59,241.59,0,0,1-3.5,34.69c-1.07,5.51-2.42,13.17-3.36,18.41-.54,3.23-3.77,21.11-3.77,21.11-8.75,3.09-37.81,8.74-67.29-4.7,0,0-1.75-28.77-4.71-42.49a65.56,65.56,0,0,0-3.76-12.5c-3.37-7.53-7.41-17.48-7.81-25.41a17.68,17.68,0,0,1,1.48-8.61,10.1,10.1,0,0,1,6.33-5,291.66,291.66,0,0,0,28.79-11c1.22-.53,2-.94,2-.94a275.81,275.81,0,0,1,29.61-3.09c6.46-.27,12,0,14.53,1.35,4.71,2.55,8.21,9.14,10,17.47A71,71,0,0,1,316,234.35Z" style="fill:#396c61"/><path d="M246.46,247q-5.66,16.13-11.3,32.26c-.14.54.67.68.81.27q5.64-16.12,11.3-32.26C247.54,246.72,246.73,246.58,246.46,247Z" style="fill:#fffcf7"/><path d="M283.07,312.46h0c-.41-.13-.68-.4-.54-.67,6.05-25.68,0-66.82,0-67.22a.67.67,0,0,1,.54-.67.69.69,0,0,1,.67.53c0,.41,6.05,41.68,0,67.63A.75.75,0,0,1,283.07,312.46Z" style="fill:#fffcf7"/><path d="M239.46,267.56a221.59,221.59,0,0,1,3.5,38.85.54.54,0,0,0,1.08,0,238.08,238.08,0,0,0-3.63-39.12C240.41,266.62,239.33,266.89,239.46,267.56Z" style="fill:#fffcf7"/><path d="M238.12,305.07a118.6,118.6,0,0,0,52.08,7.39,115.07,115.07,0,0,0,14.94-2.28c.67-.14.4-1.21-.27-1.08-22.07,5.11-45.22,2.82-66.35-5.11A.58.58,0,1,0,238.12,305.07Z" style="fill:#fffcf7"/><path d="M257.9,204.77s9.69,26.35,22.21,28.37,5.51-27.56,5.51-27.56S261.53,200.33,257.9,204.77Z" style="fill:#ff8c66"/><path d="M317.52,240.67c-.27-.4-.41-.81-.68-1.21-.53-.14-1.21-.4-1.75-.54,3.5,5.92,7.27,11.83,7.14,18.82-.14,7.4-4.17,12.91-8.75,18.42-1.75,2.15-3.5,4.3-4.31,7a28.38,28.38,0,0,0-.67,8.88.61.61,0,0,0,1.21,0,25.64,25.64,0,0,1,.94-9.55c1.21-3.23,3.91-5.78,6.06-8.47,3.9-4.84,6.59-10.08,6.73-16.27S320.75,246.05,317.52,240.67Z" style="fill:#fffcf7"/><path d="M311.87,227.09a34.4,34.4,0,0,0,4,13.58c.41.81,1.62.13,1.21-.54a32.52,32.52,0,0,1-3.9-13.18C313.21,226,311.87,226.28,311.87,227.09Z" style="fill:#fffcf7"/><path d="M257.77,204.64s14.66,12.23,27.85.94l-1.75-8.2-2-8.88-1.34-6.18L261,172.1Z" style="fill:#ff8c66"/><path d="M265.44,182.18c8.74,15.2,16.82,20.44,19.38,19.9l-3.1-13.85Z" style="fill:#272b34"/><path d="M258.71,199.8s-9.42,3.49-14,9.68c0,0,7.4,11.42,5.66,16.8,0,0,9-3.9,14.26,1.35s18.44,16,18.44,16l-3-11.43S264,217.14,258.71,199.8Z" style="fill:#467b6c"/><path d="M284.41,200.2s7.27-3.76,13.73,0c0,0-1.48,17.88,1.61,23.66l-16.68,19.63-3-11.43C280.11,232.2,288.72,220.77,284.41,200.2Z" style="fill:#467b6c"/><path d="M258,199.93a68.66,68.66,0,0,0,7.53,12.91c2.29,3.09,5.12,7,9.15,7.66,3.64.54,7-1.88,8.75-5,2.29-4,1.75-9.15,1.21-13.58,0-.54-.94-.54-.81,0,.41,4.17,1.08,8.87-.94,12.77-1.75,3.5-5.79,6.18-9.69,4.44-3.63-1.62-6.32-5.65-8.48-8.88a57.19,57.19,0,0,1-6.05-10.89C258.57,199,257.9,199.53,258,199.93Z" style="fill:#fff"/><path d="M254.27,168.07c2.42,6.05,4.44,7.93,9.55,13.44,4.58,5,12,7,15.61,7,13.19-.27,18.71-6.18,15.34-23.66-2.15-10.89.27-17.34-3-21.24-.27-.14-.4-.4-.67-.54a25,25,0,0,0-17.9-5.24C241.62,140.64,250.77,159.46,254.27,168.07Z" style="fill:#ff8c66"/><path d="M270.68,168.07c.14.94,1.75,1.48,3.5,1.34s3.23-1.21,3.1-2.15-1.75-1.48-3.5-1.34S270.55,167.13,270.68,168.07Z" style="fill:#cc5622"/><path d="M289.53,166.72c.13.94,1.75,1.48,3.5,1.35a8.8,8.8,0,0,0,2.15-.67c-.14-.81-.27-1.62-.41-2.42v-.14a5.41,5.41,0,0,0-2.15-.13C290.87,164.84,289.39,165.78,289.53,166.72Z" style="fill:#cc5622"/><path d="M297.87,152.74c1.75-3-6.86-24.06-29.07-16.94C268.8,135.94,289.66,156.24,297.87,152.74Z" style="fill:#272b34"/><path d="M280.11,143.2s2.28,6.72-8.48,10.08,2.29,13.44-7.94,15.73c0,0,1.07-8.2-5.92-6.72s-4.18,9-7.67,5.37-7-26.21,7.67-30.92S280.11,143.2,280.11,143.2Z" style="fill:#272b34"/><path d="M274.86,162.29a3.07,3.07,0,0,0,5.65-.81c.13-.54-.67-.81-.81-.27a2.28,2.28,0,0,1-4.17.67C275.26,161.48,274.59,161.88,274.86,162.29Z" style="fill:#272b34"/><path d="M285.76,161.21a3.07,3.07,0,0,0,5.65-.81c.13-.53-.67-.8-.81-.26a2.28,2.28,0,0,1-4.17.67C286.3,160.27,285.49,160.81,285.76,161.21Z" style="fill:#272b34"/><path d="M286.83,174a3,3,0,1,1-3-2.95A3,3,0,0,1,286.83,174Z" style="fill:#fff"/><path d="M287,179.63a3.48,3.48,0,0,1-3.77-.13c-.54-.41.13-1.35.67-.95.81.68,1.75.27,2.69-.13C287.24,178.29,287.64,179.36,287,179.63Z" style="fill:#cc5622"/><path d="M277.41,155.83c-1.34-.27-3,.14-3.36,1.62s-2.56,1.07-2.29-.27a4.76,4.76,0,0,1,5.92-3.5C279,154,278.76,156.24,277.41,155.83Z" style="fill:#272b34"/><path d="M291.14,156.77c-.94-.94-2.29-2.42-3.77-1.74-1.34.53-2.28-1.62-.94-2.15,2.42-.95,4.44.4,6.06,2C293.56,156.1,292.22,157.85,291.14,156.77Z" style="fill:#272b34"/><path d="M285.35,168.74c-.53.13-1.07.27-1.75.4a.54.54,0,0,1,0-1.07,6,6,0,0,0,2.29-.67,8.87,8.87,0,0,1-2.55-3.77c-.14-.27,0-.67.26-.67s.68,0,.68.27a7.84,7.84,0,0,0,2.82,3.63c.14.13.27.27.27.4a.49.49,0,0,1-.13.4A5,5,0,0,1,285.35,168.74Z" style="fill:#272b34"/><path d="M266.65,171.7A12.11,12.11,0,0,0,264.9,165c-1.48-2.83-5.12-6.19-8.08-5.38-4.44,1.21-4.44,5.24-3.5,9.14s4.31,8.87,9.69,7.39A4.48,4.48,0,0,0,266.65,171.7Z" style="fill:#ff8c66"/><path d="M261.13,171.7a10.76,10.76,0,0,0-.81-5c-.67-1.34-2.56-3.22-4.3-2.42-.54.27-1.08-.67-.54-.94,1.75-.8,3.5.14,4.71,1.48,1.75,1.88,2,4.44,1.88,6.86C262.21,172.37,261.13,172.37,261.13,171.7Z" style="fill:#272b34"/><path d="M306.35,328.33s52.21-33.08,76.57-33.21,48.45,30.38-10.23,57.27S269.47,379,269.47,379l-10.09-23.26Z" style="fill:#6059c9"/><path d="M260.86,358.17l-16.55,8.21s-15.48-5.11-18,1.34c-2,5.24-28.67,23.53-25.57,30.25,1.07,2.29,8.61-6.05,15.74-7.39,10.5-2,21-8.34,26.38-9.95s28.12-7,28.12-7S271.36,364.76,260.86,358.17Z" style="fill:#ff8c66"/><path d="M386,302.11a31.16,31.16,0,0,1,17,20.44c.14.53.94.26.81-.27a31.39,31.39,0,0,0-17.36-20.84C386,301.17,385.48,301.84,386,302.11Z" style="fill:#1e1759"/><path d="M347.8,308c-19.11,11.83-38.36,23.12-58,33.88-5.51,3.09-11.17,6-16.82,9.14-.54.27,0,.94.41.67q29.67-15.74,58.54-33.07c5.51-3.23,10.9-6.59,16.28-9.95C348.6,308.43,348.2,307.76,347.8,308Z" style="fill:#1e1759"/><path d="M266.78,135c.54-.53,7.14-11.83-2.69-18.82-10.63-7.53-25,3.36-24.22,12.1S254.94,147.09,266.78,135Z" style="fill:#272b34"/><path d="M248.21,328.33S196,295.25,171.64,295.12s-48.45,30.38,10.23,57.27,95.68,35.23,95.68,35.23c-2-7.4,3.63-16.14,17.63-26.89Z" style="fill:#6059c9"/><path d="M160.47,302.78A23.61,23.61,0,0,0,150.38,324c0,.54.94.54.8,0a22.54,22.54,0,0,1,9.56-20.43C161.41,303.19,161,302.51,160.47,302.78Z" style="fill:#1e1759"/><path d="M288.58,356.56c-9.95,5.65-19.11,17.34-18.3,29.31,0,.54.94.54.81,0-.81-11.7,8.07-23,17.9-28.64C289.53,357.1,289.12,356.29,288.58,356.56Z" style="fill:#1e1759"/><path d="M198,306a260.38,260.38,0,0,1,36.87,18c5.79,3.37,11.3,7,17,10.63,5.38,3.36,10.76,6.85,16,10.35a215.65,215.65,0,0,1,18,13.44c.41.41,1.08-.27.54-.53-10.09-8.34-21-15.6-32-22.59-11.44-7.26-22.87-14.52-35-20.57-6.86-3.5-14-6.59-21.12-9.41C197.75,304.93,197.48,305.87,198,306Z" style="fill:#1e1759"/><path d="M295.18,360.73s4.57,1.07-1.35,13.71-16.28,13.18-16.28,13.18C273.11,375.52,295.18,360.73,295.18,360.73Z" style="fill:#272b34"/><path d="M288.58,364.9l16.56,8.2s15.47-5.11,18,1.34c2,5.25,28.66,23.4,25.57,30.25-1.08,2.29-8.61-6.05-15.75-7.39-10.49-2-21-8.34-26.37-9.95s-28.13-7-28.13-7S278,371.62,288.58,364.9Z" style="fill:#ff8c66"/><path d="M212.55,314.08H347.12l1.48-3.37c.94-2-1.48-4.16-4.84-4.16H219.68c-2.29,0-4.17.94-4.84,2.28Z" style="fill:#fff"/><path d="M373.9,226l-16.15,68.44a3.89,3.89,0,0,1-3.9,3.09H254a4,4,0,0,1-3.9-5l16.14-68.43a3.91,3.91,0,0,1,3.91-3.09H370A4,4,0,0,1,373.9,226Z" style="fill:#fff"/><path d="M358.56,290.82l-100.8-.54a.68.68,0,0,1,0-1.35l100.8.54a.68.68,0,0,1,0,1.35Z" style="fill:#272b34"/><path d="M325.46,262.05a8.94,8.94,0,0,1-8.62,7.79,6.92,6.92,0,0,1-7-7.79,8.92,8.92,0,0,1,8.61-7.8A6.93,6.93,0,0,1,325.46,262.05Z" style="fill:#272b34"/><path d="M274.05,221l-17.23,76.63H254a4,4,0,0,1-3.9-5l16.14-68.43a3.91,3.91,0,0,1,3.91-3.1h3.9Z" style="fill:#272b34"/><path d="M303,297.67l-3.36,16.27h10l3.49-16.27Z" style="fill:#fff"/><path d="M285.08,311.12l2-2.83a3.7,3.7,0,0,1,3.23-1.61h27.46a3.87,3.87,0,0,1,3.49,2.15l1.35,2.69a1.84,1.84,0,0,1-1.61,2.69H286.7A2,2,0,0,1,285.08,311.12Z" style="fill:#fff"/><path d="M126.15,472.18H62.63a2.82,2.82,0,0,1,0-5.64h63.52a2.76,2.76,0,0,1,2.83,2.82A3,3,0,0,1,126.15,472.18Z" style="fill:#272737"/><path d="M156.84,561.59a3.15,3.15,0,0,1-3.1-2.29L74.48,321.6a3.28,3.28,0,0,1,6.19-2.15l79.26,237.84a3.36,3.36,0,0,1-2,4.17A3.43,3.43,0,0,1,156.84,561.59Z" style="fill:#63636d"/><path d="M32.89,561.59a3,3,0,0,1-1.07-.13,3.15,3.15,0,0,1-2-4.17l79.26-237.84a3.28,3.28,0,0,1,6.19,2.15L36,559.3A3.15,3.15,0,0,1,32.89,561.59Z" style="fill:#63636d"/><path d="M480.22,472.18H416.7a2.82,2.82,0,1,1,0-5.64h63.52a2.76,2.76,0,0,1,2.82,2.82A2.93,2.93,0,0,1,480.22,472.18Z" style="fill:#272737"/><path d="M510.9,561.59a3.16,3.16,0,0,1-3.1-2.29L428.54,321.47a3.36,3.36,0,0,1,2-4.17,3.43,3.43,0,0,1,4.17,2L514,557.15a3.36,3.36,0,0,1-2,4.17A1.6,1.6,0,0,1,510.9,561.59Z" style="fill:#63636d"/><path d="M387,561.59a3.05,3.05,0,0,1-1.08-.13,3.15,3.15,0,0,1-2-4.17l79.26-237.84a3.28,3.28,0,0,1,6.2,2.15L390.05,559.44A3.19,3.19,0,0,1,387,561.59Z" style="fill:#63636d"/><path d="M496.9,314.08v12.5a9.89,9.89,0,0,1-1.21,4.3c-1.88,3.36-6.05,5.65-10.9,5.65H60.62a12.48,12.48,0,0,1-10.9-5.65,12.7,12.7,0,0,1-.95-2.42,9.37,9.37,0,0,1-.27-1.88v-12.5Z" style="fill:#272b34"/><path d="M496.77,328.46a9.31,9.31,0,0,1-.94,2.42h-446a13.38,13.38,0,0,1-.94-2.42Z" style="fill:#63636d"/><path d="M477.12,286.78H431.9a2.7,2.7,0,0,1-2.69-2.69v-1.74a2.7,2.7,0,0,1,2.69-2.69h45.22a2.7,2.7,0,0,1,2.69,2.69v1.74A2.61,2.61,0,0,1,477.12,286.78Z" style="fill:#d03f23"/><path d="M482.5,303.05a8.75,8.75,0,0,1-1.88,5c-4.44,5.37-16,6.05-22.2,6.18h-3.91a72.07,72.07,0,0,1-10.09-.27c-.54,0-1.08-.13-1.62-.13-5.51-.68-11.43-2.15-14.39-5.65a7.9,7.9,0,0,1-1.48-2.82,4.63,4.63,0,0,1-.27-1.35,16.52,16.52,0,0,1,1.07-7.12c.14-.54.41-1.08.54-1.48.27-.67.67-1.48.94-2.15a29.22,29.22,0,0,1,1.62-3,1.93,1.93,0,0,1,.4-.54l.81-1.21c.54-.81.94-1.34.94-1.34H476a30.34,30.34,0,0,1,3.1,5c.27.4.4.81.67,1.21a.14.14,0,0,0,.14.14c.54,1.07.94,2.15,1.48,3.22a14.38,14.38,0,0,0,.54,1.48,12.48,12.48,0,0,1,.67,3.77C482.5,302,482.5,302.51,482.5,303.05Z" style="fill:#d03f23"/><path d="M481.7,297.81c-6.87,3.36-15.61,4.17-22.21,4-7.67-.13-14.67-2.55-22.07-4.17a38.77,38.77,0,0,0-9.69-1.07c.14-.54.41-1.08.54-1.48,8.08,0,16.69,3.49,24.36,4.7a54.65,54.65,0,0,0,22.88-1.34,33,33,0,0,0,5.65-2.15A4.89,4.89,0,0,1,481.7,297.81Z" style="fill:#ffb6c9"/><path d="M462.59,286.78a24.81,24.81,0,0,1-31.22,2.56c.26-.41.53-.81.8-1.21a23.65,23.65,0,0,0,28.26-1.35Z" style="fill:#ffb6c9"/><path d="M482.5,303.05a72.63,72.63,0,0,0-24.09,11H456a71.27,71.27,0,0,1,26.38-12.51A5.23,5.23,0,0,1,482.5,303.05Z" style="fill:#ffb6c9"/><path d="M444.55,313.81c-.53,0-1.07-.14-1.61-.14a6.31,6.31,0,0,0-2.83-5.51c-3.63-2.42-8.47-3.23-13.05-3.09a5,5,0,0,1-.27-1.35,35.22,35.22,0,0,1,6.46.54c3.37.67,7.54,1.75,9.69,4.57A7.13,7.13,0,0,1,444.55,313.81Z" style="fill:#ffb6c9"/><path d="M479.81,293a7.94,7.94,0,0,1-3.63.4c-4.17-.27-6.6-3.23-7.54-6.72h1.48c1.08,3.49,4.17,6.05,8.62,5,.13,0,.13,0,.26-.13.27.4.41.81.68,1.21Z" style="fill:#ffb6c9"/><path d="M476,287.19H433.11a.36.36,0,0,1-.4-.41.35.35,0,0,1,.4-.4H476a.36.36,0,0,1,.41.4A.44.44,0,0,1,476,287.19Z" style="fill:#283618"/><path d="M437.69,258.15s7.54-2.69,9.55,5.24,7.54,5.92,8.62,4.17c2.15-3.5,2.42-16-1.21-16.67C450.34,250.08,439.17,254.52,437.69,258.15Z" style="fill:#396c61"/><path d="M454.51,250.89c-8.88.13-11.17,7.93-12.65,14.79L439,260.3l2,9.54c-.26,1.08-.4,2-.67,2.83-2.15,6.72-8.75,8.87-8.75,8.87s-.4-2.69-.8-6.59l3.23-5.11-3.5,1.48c-.41-6.05-.41-13.31,1.07-17.48,2.83-7.93,10.5-5.51,10.5-5.51Z" style="fill:#467b6c"/><path d="M476.72,242.55s-4.71-1.34-9.56,5.24-6.59,7.13-9.69,4.71-1.21-16.4,2.29-17.21C464.07,234.35,475.1,238.92,476.72,242.55Z" style="fill:#396c61"/><path d="M491.65,278.85a20.44,20.44,0,0,1-9.69-7.26l5.12-12-7,8.73-.81-2c-3.09-9.68-2.42-30.52-19.91-30.79l17.36-4s10.9-3.5,14.93,7.93c1.08,3,1.48,6.86,1.75,11.16l-6.32-5.92s4.44,6.32,6.46,9A206.54,206.54,0,0,1,491.65,278.85Z" style="fill:#467b6c"/><path d="M432.31,224s7.53-2.69,9.55,5.24,11.84,11,12.79,7.13c1.07-4.17-1.35-19-4.85-19.77C445.5,215.66,433.92,220.37,432.31,224Z" style="fill:#396c61"/><path d="M450.07,216.74c-14.26.27-16.69,14.38-18.84,24.87L424,231.12c.14.27,3.91,12.91,5.52,17.88-3.36,8.74-12.11,11.57-12.11,11.57s-2.42-16.81-1.62-29.72c2.16-1.74,5.93-5,5.93-5L416,227.22a25,25,0,0,1,1.35-6.18c4-11.43,14.94-7.93,14.94-7.93Z" style="fill:#467b6c"/><path d="M454,279.52h1.89a162.3,162.3,0,0,0-1.08-51.22A112.43,112.43,0,0,0,449,207.06a1,1,0,0,0-1.21-.54,1,1,0,0,0-.54,1.21A110.47,110.47,0,0,1,453,228.57,165.32,165.32,0,0,1,454,279.52Z" style="fill:#396c61"/><path d="M90.36,284.36a4.4,4.4,0,0,0-1.35.14,10.6,10.6,0,0,0,1.35,21.11H91a6.86,6.86,0,0,0,1.61-.27,10.63,10.63,0,0,0-2.28-21ZM91.84,301a6.34,6.34,0,0,1-1.62.14h-.4A6.32,6.32,0,0,1,84,294.85a6.14,6.14,0,0,1,2.69-5.11,4.73,4.73,0,0,1,3-1.07h.68A6.31,6.31,0,0,1,96.68,295,6.74,6.74,0,0,1,91.84,301Z" style="fill:#d03f23"/><path d="M88.88,284.36l.8,4.17a7.2,7.2,0,0,0-3,1.08l-1.21-4.31A14.22,14.22,0,0,1,88.88,284.36Z" style="fill:#c74279"/><path d="M92.64,305.2c-.53.14-1.07.14-1.61.27l-1.21-4.3h.4c.54,0,1.08-.14,1.62-.14Z" style="fill:#c74279"/><path d="M122.11,275.76l-.67,3.36-.4,2.29-4.58,27-.4,2.42-.54,3.23H94l-.54-3.23-.4-2.42-4.58-27-.4-2.29-.68-3.36Z" style="fill:#d03f23"/><path d="M121.44,279.12l-.4,2.29H88.47l-.4-2.29Z" style="fill:#ffb6c9"/><path d="M116.46,308.43l-.4,2.42H93.45l-.4-2.42Z" style="fill:#ffb6c9"/><path d="M258,155.43s-9.69,2.42-8.89,12.37S261,181.65,266,179.63C266,179.5,270.69,162.42,258,155.43Z" style="fill:#fff"/><path d="M254.81,158.39a.75.75,0,0,1-.81-.67c-.14-.54-3.23-14.26,3.09-24.07,3-4.57,7.54-7.53,13.6-8.74a.9.9,0,0,1,.4,1.75c-5.52,1.07-9.83,3.76-12.52,7.93-5.92,9.14-2.82,22.59-2.82,22.72a.89.89,0,0,1-.68,1.08Z" style="fill:#fff"/><path d="M256.15,156.1a23.82,23.82,0,0,1,7,23.8" style="fill:none;stroke:#272b34;stroke-linecap:round;stroke-linejoin:round;stroke-width:0.75px"/></g></svg>