<svg id="Layer_1" data-name="Layer 1" xmlns="http://www.w3.org/2000/svg" xmlns:xlink="http://www.w3.org/1999/xlink" viewBox="0 0 501 312"><defs><clipPath id="clip-path"><rect x="-0.44" y="6.87" width="501" height="305" style="fill:none"/></clipPath></defs><g style="clip-path:url(#clip-path)"><path d="M65.38,75.73a4.76,4.76,0,0,0-4.63-4.2,5,5,0,0,0-1.41.21,8.53,8.53,0,0,0-8.56-8,8.65,8.65,0,0,0-5,1.61,10.24,10.24,0,0,0-8.56-4.69,10.06,10.06,0,0,0-9.61,7,7.45,7.45,0,0,0-4.28-1.4,7.23,7.23,0,0,0-7.16,6,4.72,4.72,0,0,0-2.38-.7,4.65,4.65,0,0,0-4.64,4.2Z" style="fill:#dbbfaf"/><path d="M308,40.57a7.1,7.1,0,0,0-5.89-3.16,7.75,7.75,0,0,0-2.6.49A12.35,12.35,0,0,0,287.25,27a12.22,12.22,0,0,0-10,5.25,10.15,10.15,0,0,0-5.2-1.4,10.52,10.52,0,0,0-3.64.7A16,16,0,0,0,252.8,19.41a16.21,16.21,0,0,0-7.58,1.89A22.33,22.33,0,0,0,202,29.15a12.34,12.34,0,0,0-6.95-2.1,12.62,12.62,0,0,0-7,2.17,15.3,15.3,0,0,0-28.63,4.2,9.85,9.85,0,0,0-4.06-.91,9.46,9.46,0,0,0-9.41,8.13H308Z" style="fill:#dbbfaf"/><path d="M338.47,102.07a7.11,7.11,0,0,1,5.9-3.15,7.74,7.74,0,0,1,2.59.49,12.36,12.36,0,0,1,12.21-10.93,12.24,12.24,0,0,1,10,5.26,10,10,0,0,1,5.19-1.41,10.57,10.57,0,0,1,3.65.7A16.08,16.08,0,0,1,401.2,82.81a22.34,22.34,0,0,1,43.23,7.84,12.31,12.31,0,0,1,6.94-2.1,12.6,12.6,0,0,1,7,2.17A15.31,15.31,0,0,1,487,94.93a9.9,9.9,0,0,1,4.07-.91,9.45,9.45,0,0,1,9.4,8.12h-162Z" style="fill:#dbbfaf"/><path d="M484.91,190c-15.78-5-38,19.9-49.39,55.76-8.7,27.25-8.77,52.89-1.41,65.85h31.37c10.45-9.73,20.7-26.83,27.36-47.56C504.21,228.16,500.7,195,484.91,190Z" style="fill:#f4ded3"/><path d="M446.25,311.59,483,197.34l-.7-.21-36.7,114.46Z" style="fill:#dbbfaf"/><path d="M493,218.83l-19.58,6.25.21.67,19.58-6.25Z" style="fill:#dbbfaf"/><path d="M474.64,276.17l-19.58,6.25.22.67,19.58-6.25Z" style="fill:#dbbfaf"/><path d="M445.63,237.62l-.56.42,17,22.75.56-.42Z" style="fill:#dbbfaf"/><path d="M438,294.31l-.56.41,9.6,12.87.56-.42Z" style="fill:#dbbfaf"/><path d="M48.54,311.45H78.22c9-12.47,7.16-42.87-1-75-10-39.44-31.72-67.67-48.35-63.05S6.72,213.66,16.75,253C23.63,280.14,36.05,302,48.54,311.45Z" style="fill:#f4ded3"/><path d="M31.27,181.29l-.88.23L63.5,311.6l.88-.23Z" style="fill:#dbbfaf"/><path d="M18.87,204.07l-.34.84,20,7.86.34-.85Z" style="fill:#dbbfaf"/><path d="M35,267.16l-.33.85,20,7.86.33-.85Z" style="fill:#dbbfaf"/><path d="M67,227.13,48.18,250.76l.71.56L67.72,227.7Z" style="fill:#dbbfaf"/><path d="M71.93,288.83,61.27,302.21l.72.56L72.65,289.4Z" style="fill:#dbbfaf"/><path d="M135.9,154.75l9.47,2c6.18-2.52,6.39-16.18,3.23-31-3.37-15.62-11.65-27-18.52-25.57s-9.76,15.27-6.39,30.89C126,142.07,130.85,151,135.9,154.75Z" style="fill:#f4ded3"/><path d="M131.09,103.23l-.69.14L141.67,156l.68-.14Z" style="fill:#dbbfaf"/><path d="M125.51,111.8l-.28.64,8,3.46.28-.64Z" style="fill:#dbbfaf"/><path d="M130.84,136.76l-.28.64,8,3.46.28-.64Z" style="fill:#dbbfaf"/><path d="M144.5,121.78l-8.09,8.85.52.47,8.09-8.85Z" style="fill:#dbbfaf"/><path d="M145.34,146l-4.58,5,.52.47,4.58-5Z" style="fill:#dbbfaf"/><path d="M307.46,134c3.79-12.61.49-24.79-7.44-27.25s-17.4,5.75-21.26,18.36c-2.66,8.89-1.82,17.58,1.69,22.76l9,6.17C297.15,155.45,303.88,146,307.46,134Z" style="fill:#f4ded3"/><path d="M299,109.32,286,151.7l.67.21,13.05-42.39Z" style="fill:#dbbfaf"/><path d="M292.24,113.4l-.55.42L296,119.5l.56-.43Z" style="fill:#dbbfaf"/><path d="M286.06,133.5l-.56.42,4.35,5.68.56-.43Z" style="fill:#dbbfaf"/><path d="M301.83,128.12l-9.38,3.12.22.67,9.39-3.13Z" style="fill:#dbbfaf"/><path d="M292.73,145.89l-5.32,1.78.22.66,5.32-1.78Z" style="fill:#dbbfaf"/><path d="M140.74,193.28c-5-7.57-5.75-23.19-1.26-40,5.82-22,18.45-37.83,28.14-35.24s12.84,22.49,7,44.55c-2.8,10.58-7.15,19.69-12,26.06Z" style="fill:#dbbfaf"/><path d="M166.12,122.39l-18.43,69,.67.19,18.43-69.05Z" style="fill:#cca693"/><path d="M173.34,135.13l-11.62,4.38.25.66,11.61-4.39Z" style="fill:#cca693"/><path d="M163.93,170.38l-11.62,4.38.25.65L164.18,171Z" style="fill:#cca693"/><path d="M145.39,148l-.54.44,11,13.22.54-.44Z" style="fill:#cca693"/><path d="M142.55,182.47l-.55.45,6.22,7.5.54-.45Z" style="fill:#cca693"/><path d="M438.75,226.9c-5-7.56-5.76-23.19-1.27-40,5.83-22,18.46-37.82,28.14-35.23s12.84,22.48,7,44.55c-2.81,10.58-7.16,19.68-12,26.06Z" style="fill:#dbbfaf"/><path d="M464.07,156l-18.43,69,.68.18,18.43-69Z" style="fill:#cca693"/><path d="M471.36,168.79l-11.62,4.39.25.65,11.62-4.38Z" style="fill:#cca693"/><path d="M462,204,450.4,208.4l.25.65,11.62-4.38Z" style="fill:#cca693"/><path d="M443.39,181.59l-.54.44,11,13.22.54-.44Z" style="fill:#cca693"/><path d="M440.56,216.1l-.54.45,6.22,7.5.54-.45Z" style="fill:#cca693"/><path d="M51.77,311.59c3.51-9.17.84-25.92-7.72-42.73-11.23-22.06-28.21-35.93-37.89-31s-8.56,26.83,2.66,48.89C14.23,297.3,20.89,306,27.49,311.66H51.77Z" style="fill:#dbbfaf"/><path d="M8.83,242.07l-.81.41,35.26,69.1.81-.41Z" style="fill:#cca693"/><path d="M3.94,257.13l-.14.9,13.39,2,.14-.9Z" style="fill:#cca693"/><path d="M21.86,292.41l-.14.9,13.39,2,.14-.9Z" style="fill:#cca693"/><path d="M36.45,264.48,27.82,281l.8.42,8.64-16.52Z" style="fill:#cca693"/><path d="M47.34,300.54l-4.87,9.31.81.42L48.15,301Z" style="fill:#cca693"/><path d="M143.76,311.52a1.36,1.36,0,0,1,.56.07c3.37-11.35,2.74-28.51-2.46-46.65-8.42-29.49-25.82-50.37-38.8-46.66s-16.7,30.62-8.28,60c3.79,13.31,9.47,24.87,15.65,33.2Z" style="fill:#dbbfaf"/><path d="M130.57,311.52,105.38,224.1l-1.06.35,25.12,87.07Z" style="fill:#cca693"/><path d="M95.93,241.28l-.37,1.05L111.35,248l.38-1Z" style="fill:#cca693"/><path d="M109.39,288.47l-.38,1,15.8,5.62.38-1.05Z" style="fill:#cca693"/><path d="M133.7,257.93l-14.37,18,.88.7,14.37-18Z" style="fill:#cca693"/><path d="M134,311.52l5.33-6.58-.91-.7-5.83,7.28Z" style="fill:#cca693"/><path d="M332,121.69H317.63V86.24H332Zm-13.9-.5h13.34V86.8H318.12Z" style="fill:#512944"/><path d="M449.41,311.59H331.32a11.55,11.55,0,0,1-11.51-11.49V68.45A11.55,11.55,0,0,1,331.32,57H449.41a11.55,11.55,0,0,1,11.51,11.49V300.1A11.46,11.46,0,0,1,449.41,311.59Z" style="fill:#6059c9"/><path d="M452,81.27H328.79V280H452Z" style="fill:#fff"/><path d="M399,69.71H381.77a1.54,1.54,0,1,1,0-3.08H399a1.55,1.55,0,0,1,1.54,1.54A1.47,1.47,0,0,1,399,69.71Zm-17.19-2.52a1.05,1.05,0,1,0,0,2.1H399a1,1,0,1,0,0-2.1Z" style="fill:#512944"/><path d="M393.77,304.45H387a4.62,4.62,0,0,1-4.63-4.63V293a4.62,4.62,0,0,1,4.63-4.62h6.81A4.62,4.62,0,0,1,398.4,293v6.79A4.67,4.67,0,0,1,393.77,304.45ZM387,288.9a4.14,4.14,0,0,0-4.14,4.13v6.79A4.14,4.14,0,0,0,387,304h6.81a4.15,4.15,0,0,0,4.14-4.14V293a4.15,4.15,0,0,0-4.14-4.13Z" style="fill:#512944"/><path d="M392.71,301.15h-4.77a2.36,2.36,0,0,1-2.38-2.38V294a2.36,2.36,0,0,1,2.38-2.38h4.77A2.36,2.36,0,0,1,395.1,294v4.76A2.32,2.32,0,0,1,392.71,301.15Zm-4.77-9a1.88,1.88,0,0,0-1.89,1.89v4.76a1.88,1.88,0,0,0,1.89,1.89h4.77a1.88,1.88,0,0,0,1.9-1.89V294a1.88,1.88,0,0,0-1.9-1.89Z" style="fill:#512944"/><path d="M452,81H328.79v.56H452Z" style="fill:#512944"/><path d="M369.85,198.19h40.49V146.5H369.85Z" style="fill:#f69571"/><path d="M452,280V180.74c-18-9.6-39.93-11.21-39.93-11.21L390.47,186,368.3,169.53s-32.49,2.45-50.74,19.05v91.49H452Z" style="fill:#d03f23"/><path d="M365.21,135.7v4.62c0,8.33,6.38,15.13,14.17,15.13H400.5c8,0,14.53-6.94,14.53-15.48V135.7Z" style="fill:#512944"/><path d="M417.27,135.06V117c0-14.64-12.21-26.55-27.15-26.55S363,102.42,363,117v18.07Z" style="fill:#512944"/><path d="M369.91,160.42c13.75,13.52,33.89,5.33,40.49-7.7V141.23H369.91Z" style="fill:#e57553"/><path d="M413.55,140.39a9.39,9.39,0,1,0-9.4-9.39A9.4,9.4,0,0,0,413.55,140.39Z" style="fill:#f69571"/><path d="M366.54,140.39a9.39,9.39,0,1,0-9.4-9.39A9.39,9.39,0,0,0,366.54,140.39Z" style="fill:#f69571"/><path d="M413.41,114.68v25.71a23.23,23.23,0,0,1-46.45,0V114.68a12.37,12.37,0,0,1,12.35-12.33h21.82A12.34,12.34,0,0,1,413.41,114.68Z" style="fill:#f69571"/><path d="M413.41,140.39V134l1.69,6.24A7.48,7.48,0,0,1,413.41,140.39Z" style="fill:#e57553"/><path d="M366.89,140.39V134l-1.68,6.24A6.82,6.82,0,0,0,366.89,140.39Z" style="fill:#e57553"/><path d="M359.24,125.4h1.48v-7.15c0-15.76,13.19-28.58,29.4-28.58s29.4,12.82,29.4,28.58v7.15H421v-7.15c0-16.53-13.82-30-30.87-30s-30.88,13.45-30.88,30Z" style="fill:#80c7a7"/><path d="M406.82,95.7l1.75-2.32a32.22,32.22,0,0,0-36.91,0l1.76,2.32a29.14,29.14,0,0,1,33.4,0Z" style="fill:#80c7a7"/><path d="M425.69,139.2h.77a3.44,3.44,0,0,0,3.44-3.43V126.1a3.44,3.44,0,0,0-3.44-3.43h-.77a3.44,3.44,0,0,0-3.44,3.43v9.67A3.4,3.4,0,0,0,425.69,139.2Z" style="fill:#467b6c"/><path d="M416.71,142.35h5.61a3.14,3.14,0,0,0,3.16-3.15V122.74a3.14,3.14,0,0,0-3.16-3.16h-5.61a1.71,1.71,0,0,0-1.68,1.69v19.4A1.7,1.7,0,0,0,416.71,142.35Z" style="fill:#80c7a7"/><path d="M354.54,122.74h-.77a3.44,3.44,0,0,0-3.44,3.43v9.67a3.44,3.44,0,0,0,3.44,3.43h.77a3.44,3.44,0,0,0,3.44-3.43v-9.67A3.44,3.44,0,0,0,354.54,122.74Z" style="fill:#467b6c"/><path d="M363.52,119.58h-5.61a3.14,3.14,0,0,0-3.16,3.16V139.2a3.14,3.14,0,0,0,3.16,3.15h5.47a1.86,1.86,0,0,0,1.83-1.82V121.27A1.71,1.71,0,0,0,363.52,119.58Z" style="fill:#80c7a7"/><path d="M422.6,119.58H422v22.77h.56Z" style="fill:#512944"/><path d="M358.26,119.58h-.56v22.77h.56Z" style="fill:#512944"/><path d="M416.08,148.79H396.22v-.56h19.86a3.07,3.07,0,0,0,3.16-3v-2.87h.56v2.87A3.67,3.67,0,0,1,416.08,148.79Z" style="fill:#512944"/><path d="M393.49,150.48h6.59a2,2,0,1,0,0-3.93h-6.59a2,2,0,1,0,0,3.93Z" style="fill:#467b6c"/><path d="M400.08,150.76h-6.6a2.21,2.21,0,0,1-2.24-2.25h.56a1.74,1.74,0,0,0,1.75,1.76h6.6a1.74,1.74,0,0,0,1.75-1.76h.57A2.39,2.39,0,0,1,400.08,150.76Z" style="fill:#512944"/><path d="M410.18,164.49l6.32,5.6-13.33,27L390.4,185.43Z" style="fill:#fff"/><path d="M369.84,164.49l-7.51,5.81,14.6,26.76,13.47-11.63Z" style="fill:#fff"/><path d="M366.05,118.81s8.28-3.64,9.89-9.38c2,5.39,7.09,8.54,15.79,9.52-.63-1.47-3.16-3.85-3.16-5.32,4.85,6.37,13.83,6.72,13.83,6.72s-2.46-1.61-2.95-3.78c4.14,3.36,9.4,4.27,14.74,3.57l-.29-8.61-6-9.46-9.05-4.34L385.49,99l-14.25,3.85-4.7,8.55-.49,3.71Z" style="fill:#512944"/><path d="M452,224c-45.33-.14-89.33-.14-134.38,0v-.56c45.12-.14,89.05-.14,134.45,0Z" style="fill:#512944"/><path d="M384.64,256.88c-22.24,0-44.48,0-67-.07v-.56c45.05.07,88.91.07,134.17,0v.56C429.2,256.81,406.89,256.88,384.64,256.88Z" style="fill:#512944"/><path d="M400.15,129a1.62,1.62,0,1,0,1.61-1.61A1.58,1.58,0,0,0,400.15,129Z" style="fill:#512944"/><path d="M376.85,129a1.62,1.62,0,1,0,1.62-1.61A1.59,1.59,0,0,0,376.85,129Z" style="fill:#512944"/><path d="M391.73,136.12a4.52,4.52,0,0,1-4.49-4.49v-6.3h.56v6.3a3.92,3.92,0,0,0,3.93,3.93Z" style="fill:#512944"/><path d="M398.47,122.53c0,.56,1.47,1,3.29,1s3.3-.49,3.3-1-1.47-1-3.3-1S398.47,122,398.47,122.53Z" style="fill:#512944"/><path d="M375.17,122.53c0,.56,1.47,1,3.3,1s3.3-.49,3.3-1-1.48-1-3.3-1S375.17,122,375.17,122.53Z" style="fill:#512944"/><path d="M392.22,144.8h-4.35v.56h4.35Z" style="fill:#512944"/><path d="M392.15,142.42h-7.09v-.56h7.09c1.82,0,2.88-.56,3.16-1.75l.49.14C395.52,141.65,394.26,142.42,392.15,142.42Z" style="fill:#512944"/><path d="M405,133.94c0,.77,1.05,1.4,2.39,1.4s2.38-.63,2.38-1.4-1.05-1.4-2.38-1.4S405,133.17,405,133.94Z" style="fill:#e57553"/><path d="M370.26,133.94c0,.77,1.05,1.4,2.38,1.4s2.39-.63,2.39-1.4-1-1.4-2.39-1.4S370.26,133.17,370.26,133.94Z" style="fill:#e57553"/><path d="M406,138.85a11.49,11.49,0,1,1,11.51-11.49A11.55,11.55,0,0,1,406,138.85Zm0-22.49a11,11,0,1,0,11,11A11,11,0,0,0,406,116.36Z" style="fill:#fff"/><path d="M374.19,138.85a11.49,11.49,0,1,1,11.51-11.49A11.55,11.55,0,0,1,374.19,138.85Zm0-22.49a11,11,0,1,0,11,11A11,11,0,0,0,374.19,116.36Z" style="fill:#fff"/><path d="M385.28,124.56l-.36-.35a7.79,7.79,0,0,1,6-2.59,6.28,6.28,0,0,1,4.49,2.59l-.42.28a5.48,5.48,0,0,0-4.14-2.38A7.28,7.28,0,0,0,385.28,124.56Z" style="fill:#fff"/><path d="M451.8,279.72H343.32v.56H451.8Z" style="fill:#512944"/><path d="M379.24,302.28a16,16,0,0,1-14.45,9.31H92.68a16,16,0,0,1-14.46-9.31Z" style="fill:#fff"/><path d="M212.87,302.42h41.75a7.37,7.37,0,0,1-6.66,4.27H209.37a7.31,7.31,0,0,1-6.67-4.27Z" style="fill:#d3b7a2"/><path d="M115.83,302.28h225.8a7.11,7.11,0,0,0,7.09-7.08V144.1a7.11,7.11,0,0,0-7.09-7.07H115.83a7.1,7.1,0,0,0-7.08,7.07V295.2A7.06,7.06,0,0,0,115.83,302.28Z" style="fill:#fff"/><path d="M341.63,302H115.83v.56h225.8Z" style="fill:#512944"/><path d="M122.29,289.25H335.11V150.62H122.29Z" style="fill:#d3b7a2"/><path d="M335.11,150.55H122.29v.56H335.11Z" style="fill:#512944"/><path d="M232.73,145.36h-8.14a1.68,1.68,0,1,1,0-3.36h8.14a1.71,1.71,0,0,1,1.69,1.68A1.62,1.62,0,0,1,232.73,145.36Zm-8.07-2.8a1.19,1.19,0,1,0,0,2.38h8.14a1.19,1.19,0,1,0,0-2.38Z" style="fill:#512944"/><path d="M202.21,140.11V115.59c0-15.34,11.79-27.95,26.17-27.95s26.18,12.61,26.18,28v24.17c0,9-6.81,16.25-15.23,16.25H217.09C208.88,156.08,202.21,148.94,202.21,140.11Z" style="fill:#512944"/><path d="M207.13,198.27h42.59V143.91H207.13Z" style="fill:#f69571"/><path d="M207.12,161.68c14.46,14.22,35.72,5.61,42.59-8.12V141.44H207.12Z" style="fill:#e57553"/><path d="M147.13,205.47c17.47-18.5,58.31-37.34,58.31-37.34l23.29,16.74,22.67-16.74s41.4,18.84,58.87,37.34,23.29,83.92,23.29,83.92H123.83C123.83,289.32,129.66,224,147.13,205.47Z" style="fill:#fff"/><path d="M253.08,140.18a9.88,9.88,0,1,0-9.89-9.88A9.89,9.89,0,0,0,253.08,140.18Z" style="fill:#f69571"/><path d="M203.61,140.18a9.88,9.88,0,1,0-9.89-9.88A9.89,9.89,0,0,0,203.61,140.18Z" style="fill:#f69571"/><path d="M252.87,113.14v27a24.49,24.49,0,0,1-49,0v-27a13,13,0,0,1,13-13h23A13,13,0,0,1,252.87,113.14Z" style="fill:#f69571"/><path d="M231.89,186.62h-.56V289.39h.56Z" style="fill:#512944"/><path d="M225.29,187.74h-.56V289.32h.56Z" style="fill:#512944"/><path d="M226.91,190.26a1.41,1.41,0,1,0,1.4-1.4A1.41,1.41,0,0,0,226.91,190.26Z" style="fill:#467b6c"/><path d="M226.91,236.43a1.41,1.41,0,1,0,1.4-1.4A1.4,1.4,0,0,0,226.91,236.43Z" style="fill:#467b6c"/><path d="M226.91,282.59a1.41,1.41,0,1,0,1.4-1.4A1.4,1.4,0,0,0,226.91,282.59Z" style="fill:#467b6c"/><path d="M252.87,140.18v-6.66l1.75,6.59A7.34,7.34,0,0,1,252.87,140.18Z" style="fill:#e57553"/><path d="M204,140.18v-6.66l-1.75,6.59A7.34,7.34,0,0,0,204,140.18Z" style="fill:#e57553"/><path d="M228.31,107.11c9.23,0,16.7-2.91,16.7-6.51s-7.47-6.51-16.7-6.51-16.7,2.91-16.7,6.51S219.09,107.11,228.31,107.11Z" style="fill:#512944"/><path d="M252.87,115.38V128c-2.38,0-3.86-1.19-3.93-4.34v-8.41c-.14-6-1.26-11-4-14.22,3.09-.35,4.28,2.17,7,6.31a17.35,17.35,0,0,1,1,7.21Z" style="fill:#512944"/><path d="M203.89,120.42V128c2.39,0,3.86-1.19,3.93-4.34v-8.41c.14-6,1.27-11,4-14.22-3.09-.35-5.47,2.38-8.21,6.52l-.91,9Z" style="fill:#512944"/><path d="M195.89,124.49h1.55v-7.57c0-16.53,13.89-30,30.94-30s30.95,13.45,30.95,30.05v7.57h1.54v-7.57c0-17.37-14.6-31.52-32.49-31.52s-32.49,14.15-32.49,31.52Z" style="fill:#d03f23"/><path d="M246,93.17l1.83-2.45a34.07,34.07,0,0,0-38.88,0l1.83,2.45a30.8,30.8,0,0,1,35.22,0Z" style="fill:#d03f23"/><path d="M265.85,139h.84a3.59,3.59,0,0,0,3.58-3.57V125.19a3.59,3.59,0,0,0-3.58-3.57h-.84a3.59,3.59,0,0,0-3.58,3.57v10.23A3.59,3.59,0,0,0,265.85,139Z" style="fill:#d03f23"/><path d="M256.45,142.28h5.89a3.29,3.29,0,0,0,3.3-3.29v-17.3a3.29,3.29,0,0,0-3.3-3.3h-6a1.74,1.74,0,0,0-1.76,1.75v20.39A1.76,1.76,0,0,0,256.45,142.28Z" style="fill:#6059c9"/><path d="M191,121.62h-.84a3.59,3.59,0,0,0-3.58,3.57v10.23a3.59,3.59,0,0,0,3.58,3.57H191a3.59,3.59,0,0,0,3.58-3.57V125.19A3.59,3.59,0,0,0,191,121.62Z" style="fill:#d03f23"/><path d="M200.45,118.32h-6a3.3,3.3,0,0,0-3.3,3.3v17.3a3.29,3.29,0,0,0,3.3,3.29h5.75a1.88,1.88,0,0,0,1.9-1.89V120A1.62,1.62,0,0,0,200.45,118.32Z" style="fill:#6059c9"/><path d="M262.55,118.32H262v24h.56Z" style="fill:#512944"/><path d="M194.84,118.32h-.56v24h.56Z" style="fill:#512944"/><path d="M255.75,149H234.84v-.57h20.91a3.29,3.29,0,0,0,3.37-3.15v-3h.56v3A3.89,3.89,0,0,1,255.75,149Z" style="fill:#512944"/><path d="M232,150.83h6.95a2.11,2.11,0,0,0,0-4.21H232a2.11,2.11,0,1,0,0,4.21Z" style="fill:#467b6c"/><path d="M238.91,151.11H232a2.41,2.41,0,0,1-2.38-2.38h.56a1.85,1.85,0,0,0,1.82,1.82h6.95a1.85,1.85,0,0,0,1.82-1.82h.56A2.36,2.36,0,0,1,238.91,151.11Z" style="fill:#512944"/><path d="M244,133.45c0,.77,1.12,1.47,2.53,1.47s2.52-.63,2.52-1.47S248,132,246.56,132,244,132.61,244,133.45Z" style="fill:#e57553"/><path d="M207.54,133.45c0,.77,1.12,1.47,2.53,1.47s2.52-.63,2.52-1.47-1.12-1.47-2.52-1.47S207.54,132.61,207.54,133.45Z" style="fill:#e57553"/><path d="M338.9,289H118.5v.56H338.9Z" style="fill:#512944"/><path d="M297,226.7l-5.57,62.52.49,0,5.57-62.52Z" style="fill:#512944"/><path d="M159.65,226.73l-.56,0,5.57,62.53.55-.05Z" style="fill:#512944"/><path d="M247.18,255.11h35.23V248H247.18Z" style="fill:#467b6c"/><path d="M295.39,250.44l-.42-.28c6.81-11.56,8.14-25.57,8.14-25.71l.49.07C303.6,224.59,302.27,238.74,295.39,250.44Z" style="fill:#512944"/><path d="M160.88,250.44c-6.88-11.63-8.21-25.85-8.21-26l.49-.07c0,.14,1.34,14.22,8.14,25.71Z" style="fill:#512944"/><path d="M249.5,162.81l6.67,7.63-14,26.55-13.41-12.12Z" style="fill:#467b6c"/><path d="M207.12,162.81l-6.53,7.56L214.49,197l14.24-12.12Z" style="fill:#467b6c"/><path d="M238.77,128.2a1.75,1.75,0,1,0-1.76-1.75A1.75,1.75,0,0,0,238.77,128.2Z" style="fill:#512944"/><path d="M214.28,128.2a1.75,1.75,0,1,0-1.76-1.75A1.75,1.75,0,0,0,214.28,128.2Z" style="fill:#512944"/><path d="M230.91,137.73a4.69,4.69,0,0,1-4.7-4.7v-6.58h.56V133a4.14,4.14,0,0,0,4.14,4.14Z" style="fill:#512944"/><path d="M235.26,121.48c0,.56,1.54,1,3.44,1s3.44-.49,3.44-1-1.55-1.06-3.44-1.06S235.26,120.84,235.26,121.48Z" style="fill:#512944"/><path d="M210.77,121.48c0,.56,1.54,1,3.44,1s3.44-.49,3.44-1-1.55-1.06-3.44-1.06S210.77,120.84,210.77,121.48Z" style="fill:#512944"/><path d="M228.31,147a5.8,5.8,0,0,1-2.38-.49l.21-.49a5.84,5.84,0,0,0,4.35,0l.21.49A5.85,5.85,0,0,1,228.31,147Z" style="fill:#512944"/><path d="M219.4,141.23c5.9,4.9,11.79,4.9,17.75,0Z" style="fill:#fff"/><path d="M241.86,137.31a9.74,9.74,0,1,1,9.75-9.74A9.73,9.73,0,0,1,241.86,137.31Zm0-18.92a9.18,9.18,0,1,0,9.19,9.18A9.22,9.22,0,0,0,241.86,118.39Z" style="fill:#fff"/><path d="M215,137.31a9.74,9.74,0,1,1,9.75-9.74A9.73,9.73,0,0,1,215,137.31Zm0-18.92a9.18,9.18,0,1,0,9.19,9.18A9.22,9.22,0,0,0,215,118.39Z" style="fill:#fff"/><path d="M224.31,125.33,224,125a6.58,6.58,0,0,1,5-2.17,5.29,5.29,0,0,1,3.79,2.24l-.42.28a4.94,4.94,0,0,0-3.44-2A5.93,5.93,0,0,0,224.31,125.33Z" style="fill:#fff"/><path d="M240.66,142.14a8,8,0,0,0-7.15-5H222.14a8,8,0,0,0-7.16,5Z" style="fill:#512944"/><path d="M348.93,286.23h-.56V144.1a6.81,6.81,0,0,0-6.81-6.79H283.81v-.56h57.75a7.29,7.29,0,0,1,7.3,7.28v142.2Z" style="fill:#512944"/><path d="M62.78,13.6h40.7a10.51,10.51,0,1,1,0,21H78l-10,9.11a1.73,1.73,0,0,1-2.88-1.26V34.54H62.78a10.47,10.47,0,1,1,0-20.94Z" style="fill:#fff"/><path d="M72.33,23.68a2.53,2.53,0,1,1-2.53-2.52A2.52,2.52,0,0,1,72.33,23.68Z" style="fill:#512944"/><path d="M84.39,23.68a2.53,2.53,0,1,1-2.52-2.52A2.51,2.51,0,0,1,84.39,23.68Z" style="fill:#512944"/><path d="M96.53,23.68A2.53,2.53,0,1,1,94,21.16,2.55,2.55,0,0,1,96.53,23.68Z" style="fill:#512944"/><path d="M232.38,33.56H177.09a14.22,14.22,0,1,0,0,28.44h34.59l13.61,12.4a2.35,2.35,0,0,0,3.93-1.75V62.07h3.23a14.26,14.26,0,1,0-.07-28.51Z" style="fill:#fff"/><path d="M188.32,51.07a3.43,3.43,0,1,0-3.44-3.43A3.42,3.42,0,0,0,188.32,51.07Z" style="fill:#512944"/><path d="M204.74,51.07a3.43,3.43,0,1,0-3.44-3.43A3.42,3.42,0,0,0,204.74,51.07Z" style="fill:#512944"/><path d="M224.59,47.64a3.44,3.44,0,1,1-3.44-3.43A3.44,3.44,0,0,1,224.59,47.64Z" style="fill:#512944"/><path d="M394.19,16.26h-45a11.63,11.63,0,1,0,0,23.26h28.14l11,10.08a1.88,1.88,0,0,0,3.16-1.4V39.45h2.6a11.6,11.6,0,1,0,.07-23.19Z" style="fill:#fff"/><path d="M361.14,27.68a2.81,2.81,0,1,1-2.81-2.8A2.82,2.82,0,0,1,361.14,27.68Z" style="fill:#512944"/><path d="M374.47,27.68a2.81,2.81,0,1,1-2.81-2.8A2.81,2.81,0,0,1,374.47,27.68Z" style="fill:#512944"/><path d="M387.87,27.68a2.81,2.81,0,1,1-2.8-2.8A2.81,2.81,0,0,1,387.87,27.68Z" style="fill:#512944"/><path d="M76.12,84.07a12.32,12.32,0,0,0,5.47,4.2c1.89.77,5.19.49,6-2.8C87,75,84.47,69.43,80,68.8Z" style="fill:#f69571"/><path d="M83.83,81.9l-8.35,2.31a2,2,0,0,1-2.38-1.33L68.75,67.05a2,2,0,0,1,1.33-2.39l8.35-2.31a2,2,0,0,1,2.39,1.33l4.35,15.83A1.9,1.9,0,0,1,83.83,81.9Z" style="fill:#69b792"/><path d="M80,65l-9.81,2.69,3.84,14L83.83,79Z" style="fill:#fff"/><path d="M75.66,64.39,73.5,65l.15.54,2.16-.6Z" style="fill:#512944"/><path d="M80,81.48a.73.73,0,1,1-.91-.49A.77.77,0,0,1,80,81.48Z" style="fill:#512944"/><path d="M117.23,108.1,89.38,80,78.64,88.83l23,30.89C110.08,130.93,126.29,119.65,117.23,108.1Z" style="fill:#fff"/><path d="M83.13,91.63a7.49,7.49,0,0,0-2.24-.49c-5.2-.35-10.39,4.42-11.58,10.58-.91,4.69.77,8.9,4,10.72h.07c.63.35,32.07,11.49,32.07,11.49s10.17,3.43,13.61-4.63c3-7.84-6-12.4-6-12.4L84.68,92.4a7.33,7.33,0,0,0-1.48-.77Z" style="fill:#fff"/><path d="M69.17,66.63H55.56v34.18H69.17Z" style="fill:#f69571"/><path d="M69.17,87.22a19,19,0,0,1-5.76-1.68l-2.8-18.91h8.56Z" style="fill:#e57553"/><path d="M48.47,297.65H36.75l2-23H50.5Z" style="fill:#f69571"/><path d="M90.08,297.65H78.36l-.49-23H89.59Z" style="fill:#f69571"/><path d="M36.75,289.88,36,297.65H49.1l.84-7.77Z" style="fill:#fff"/><path d="M77.52,289.88l.14,7.77H90.78l-.21-7.77Z" style="fill:#fff"/><path d="M90.22,160.21H43.56C40.89,202.73,34.22,244,31.7,284.27H55.27l14.95-59.19,2,59.19H96C100.46,240.91,99.2,199.3,90.22,160.21Z" style="fill:#6059c9"/><path d="M70.5,225.15l-.49-.07,9.75-48.76.14-.07a16.24,16.24,0,0,0,6.6-3l.35.42a17.25,17.25,0,0,1-6.67,3.09Z" style="fill:#512944"/><path d="M34.43,295.13a48.43,48.43,0,0,0-4.63,16.46H71.13c1-5.32-6.17-9.31-19.22-12.47L52,295.2H34.43Z" style="fill:#d03f23"/><path d="M36.4,311.66l-.49-.07a6.81,6.81,0,0,0-4.56-7.91l.14-.49A7.14,7.14,0,0,1,36.4,311.66Z" style="fill:#512944"/><path d="M77,295.13a37.69,37.69,0,0,0-2,16.46h41.33c1-5.32-6.17-9.31-19.22-12.47L94.5,295.2H77Z" style="fill:#d03f23"/><path d="M75.77,90.37c6.66.14,11.78,4.28,12.49,13.66l6.1,58.35-54.87,4L37.8,106.62C37.17,97.1,43.42,90.3,53.94,90.3h1.62c6.73,4.35,10.94,3.65,13.61,0h6.6Z" style="fill:#fff"/><path d="M89.52,118.46,88,104.1c-.42-5.74-2.59-9.87-6.31-12l.28-.49c3.86,2.18,6.17,6.45,6.6,12.33l1.47,14.36Z" style="fill:#512944"/><path d="M60.26,163.23l3.51,5a15.12,15.12,0,0,1-11.16,5.25l-2.32-3.43Z" style="fill:#f69571"/><path d="M96.46,279.51H72.05v.56H96.46Z" style="fill:#512944"/><path d="M56.47,279.51H32.05v.56H56.47Z" style="fill:#512944"/><path d="M71.91,66.7c-.14-2.81.21-5.19,1.61-6.8a8.69,8.69,0,0,1,6.46.42V68s-.21,4.2-3.44,4.2V69.92C76.54,67.47,73.24,66.42,71.91,66.7Z" style="fill:#512944"/><path d="M67.2,85.54H55.56V64.66c0-6.09,5.26-11,11.64-11s11.65,5,11.65,11v9.88A11.44,11.44,0,0,1,67.2,85.54Z" style="fill:#f69571"/><path d="M58.71,71.32A4.7,4.7,0,1,1,54,66.63,4.69,4.69,0,0,1,58.71,71.32Z" style="fill:#f69571"/><path d="M53.24,66.7c-.14-2.81.21-5.19,1.61-6.8a8.69,8.69,0,0,1,6.46.42V68s-.21,4.2-3.44,4.2V69.92C57.87,67.47,54.57,66.42,53.24,66.7Z" style="fill:#512944"/><path d="M75.13,64.31H60.05a5.53,5.53,0,1,1,0-11.06h15a5.55,5.55,0,0,1,5.55,5.53A5.49,5.49,0,0,1,75.13,64.31Z" style="fill:#512944"/><path d="M75.48,64.24A7.29,7.29,0,1,0,68.19,57,7.29,7.29,0,0,0,75.48,64.24Z" style="fill:#512944"/><path d="M53.94,74a2.59,2.59,0,0,1-1.61-4.62l.35.42a2.09,2.09,0,0,0-.77,1.61,2,2,0,0,0,2,2,2.43,2.43,0,0,0,1.2-.35l.28.42A2.87,2.87,0,0,1,53.94,74Z" style="fill:#512944"/><path d="M52.89,73.35h-.56a1.63,1.63,0,0,1,1.75-1.54v.49C53,72.37,52.89,73.21,52.89,73.35Z" style="fill:#512944"/><path d="M69.73,72.09a.77.77,0,1,1-.77-.77A.78.78,0,0,1,69.73,72.09Z" style="fill:#512944"/><path d="M77.8,72.09a.78.78,0,0,1-.77.77.77.77,0,1,1,0-1.54A.78.78,0,0,1,77.8,72.09Z" style="fill:#512944"/><path d="M71.9,74.68v-.56a1.75,1.75,0,0,0,1.9-1.61V69.64h.49v2.87A2.2,2.2,0,0,1,71.9,74.68Z" style="fill:#512944"/><path d="M69.73,69c0,.35-.63.56-1.4.56s-1.41-.28-1.41-.56.63-.56,1.41-.56S69.73,68.66,69.73,69Z" style="fill:#512944"/><path d="M77.73,69c0,.35-.63.56-1.4.56s-1.41-.28-1.41-.56.63-.56,1.41-.56S77.73,68.66,77.73,69Z" style="fill:#512944"/><path d="M74.71,78.11H71.55a1.85,1.85,0,0,1-1.82-1.82h.56a1.33,1.33,0,0,0,1.33,1.33h3.16v.49Z" style="fill:#512944"/><path d="M51.7,173.73v-.56c.07,0,10.45-.21,13.54-8l.49.21C62.5,173.52,51.84,173.73,51.7,173.73Z" style="fill:#512944"/><path d="M80,311.66l-.49-.07A6.8,6.8,0,0,0,75,303.68l.14-.49A7.25,7.25,0,0,1,80,311.66Z" style="fill:#512944"/><path d="M88.1,101.27l-.39.3,12,16,.39-.3Z" style="fill:#512944"/><path d="M51.49,124.7,90.08,121l2.31,22.28-43.15,4.06-7.37-13.66Z" style="fill:#467b6c"/><path d="M51.35,92c-4.78-.84-9,1-10.88,4.42l-1.54,2.73L26.79,128.41c-2.18,4.2-3.86,9.6.56,16.18L48,171.77l13.47-9.39L45.31,135.77l15.23-28.09a11.19,11.19,0,0,0,.77-1.55l.07-.07a6.19,6.19,0,0,0,.49-2.31C62.29,98.29,57.59,93,51.35,92Z" style="fill:#fff"/><path d="M61.24,162.52,45,135.77l10.74-19.83.49.21L45.59,135.77l16.14,26.47Z" style="fill:#512944"/><path d="M36.89,137.45l-.35-.42c3.86-3.37,8.84-1.54,8.84-1.54l-.21.49S40.54,134.29,36.89,137.45Z" style="fill:#512944"/><path d="M481.34,311.31H17.46v.56H481.34Z" style="fill:#512944"/><path d="M480.25,241a33.54,33.54,0,1,0-40.47,24.7A33.49,33.49,0,0,0,480.25,241Z" style="fill:#fff"/><path d="M447.66,267a33.75,33.75,0,0,1-7.44-66.69l.14.49A33.27,33.27,0,1,0,479.3,223l.49-.14a34.5,34.5,0,0,1,1.62,10.37A33.71,33.71,0,0,1,447.66,267Z" style="fill:#512944"/><path d="M423.17,240.56c0-6,8.35-6.93,8.35-10.93a2.81,2.81,0,0,0-3.09-2.8A4.1,4.1,0,0,0,425,229l-1.75-1.19a6.15,6.15,0,0,1,5.4-3.22c3.09,0,5.33,2,5.33,4.9,0,5.61-8.14,6.45-8.21,10.3h8.49v2.1H423.31A9.57,9.57,0,0,1,423.17,240.56Z" style="fill:#512944"/><path d="M436.15,235.73,444,224.59h2.73v10.65h2.32v2h-2.32v4.62h-2.31v-4.62h-8.28Zm8.28-.56v-6.31c0-.84.07-1.75.07-1.75h-.07a7.46,7.46,0,0,1-.84,1.47l-4.85,6.59v.07h5.69Z" style="fill:#512944"/><path d="M456.71,224.52h2.1l-6.1,17.3H450.6Z" style="fill:#512944"/><path d="M469,228.23a10.58,10.58,0,0,1,1-1.61v-.07a7,7,0,0,1-1.19.07h-7.65v-2.1H472.5v1.68l-7.65,15.62h-2.46Z" style="fill:#512944"/></g></svg>