<svg id="Layer_1" data-name="Layer 1" xmlns="http://www.w3.org/2000/svg" viewBox="0 0 772 542"><g style="opacity:0.4000000059604645"><g style="opacity:0.4000000059604645"><path d="M252.59,430.29a155.26,155.26,0,0,1-77.45-35c-28.39-24.13-53.9-63.63-34.28-122.18,37-111,205.33-129.45,281.85-103.82,121.77,40.77,177.52,205.45,10.16,258.8C391.32,441.37,297.83,437.1,252.59,430.29Z" style="fill:#ccc0b2;opacity:0.4000000059604645;isolation:isolate"/></g></g><g style="opacity:0.4000000059604645"><g style="opacity:0.4000000059604645"><path d="M593.3,173.22c-21.81-20.67-59.09-23.9-78.13-.11-9.7,12-10.28,29.33-6.93,38.91,10.39,29.57,60.36,75.53,97,42.27C628.85,232.81,617.31,196,593.3,173.22Z" style="fill:#ccc0b2;opacity:0.4000000059604645;isolation:isolate"/></g></g><g style="opacity:0.4000000059604645"><g style="opacity:0.4000000059604645"><path d="M591,416.66c15.81-20.56,12.81-50.12-7.16-66.63-7-5.89-20.54-2.78-28.39.92-24.47,11.43-62,56.12-32.55,87C546.91,462.85,573.57,439.41,591,416.66Z" style="fill:#ccc0b2;opacity:0.4000000059604645;isolation:isolate"/></g></g><path d="M770.7,532.37c0,4.51-172.55,8.09-385.5,8.09S-.3,536.88-.3,532.37s172.56-8.08,385.5-8.08S770.7,528,770.7,532.37Z" style="fill:#ccc0b2"/><path d="M207.11,527.75s-23.54-17-16.16-23c8.2-6.81,20.32,20.1,20.32,20.1s-3.35-16.52,3.34-14.78S218,527.87,218,527.87H207.11Z" style="fill:#ccc0b2"/><path d="M598.15,530.41s23.55-17,16.16-23c-8.19-6.81-20.31,20.09-20.31,20.09s3.34-16.51-3.35-14.78-3.35,17.79-3.35,17.79h10.85Z" style="fill:#ccc0b2"/><path d="M237.12,178.19l.92,1.27.93,1.38,1.84,2.77c1.27,1.85,2.54,3.58,3.93,5.43l3.92,5.31c1.39,1.74,2.66,3.47,4,5.2s2.77,3.35,4.16,4.85,2.77,3.12,4.15,4.5a32.27,32.27,0,0,0,3.93,3.47,6.91,6.91,0,0,0,1.27.81h-.93c-.34,0-.69.11-1,.11s-.46.12-.69.23-.23.12-.34.24-.12.11,0,.11a3.94,3.94,0,0,0,1.15-1c.46-.58,1-1.15,1.62-2s1-1.5,1.61-2.31a59.34,59.34,0,0,0,3-5.43c.93-1.85,2-3.81,2.89-5.89,1.84-3.93,3.58-8.08,5.19-12.24l2.43-6.24,1.15-3.11.58-1.62.57-1.5v-.12a6.43,6.43,0,0,1,8.2-3.92,6.33,6.33,0,0,1,4.15,7.39l-.34,1.73-.35,1.73c-.23,1.16-.46,2.31-.81,3.47-.57,2.31-1,4.61-1.73,6.81-1.15,4.62-2.54,9.12-4,13.74-.81,2.31-1.61,4.62-2.54,6.82s-2,4.61-3.11,6.92c-.58,1.16-1.27,2.31-2,3.58s-1.5,2.43-2.42,3.7a27,27,0,0,1-3.58,3.93,14.35,14.35,0,0,1-2.88,2,9.12,9.12,0,0,1-1.85.92,13.88,13.88,0,0,1-2.31.7,9.87,9.87,0,0,1-2.65.34h-2a.74.74,0,0,1-.47-.11,8.84,8.84,0,0,1-1.84-.46c-.58-.12-1-.35-1.62-.47a27.17,27.17,0,0,1-4.85-2.31,28.2,28.2,0,0,1-3.69-2.54,38.83,38.83,0,0,1-3.12-2.54c-2-1.73-3.8-3.46-5.65-5.19s-3.46-3.58-5.08-5.32c-3.23-3.58-6.35-7.27-9.35-11-1.5-1.85-2.88-3.69-4.38-5.66-.7-.92-1.39-1.84-2.08-2.88l-1-1.5-1-1.51a10.84,10.84,0,0,1,17.66-12.58l.11.11Z" style="fill:#c1725c"/><path d="M264.24,212.14a11.91,11.91,0,0,0-2.3,5.89c-.12.58.8.58.92,0a12.79,12.79,0,0,1,2.19-5.55C265.28,212.14,264.48,211.68,264.24,212.14Z" style="fill:#7d351d"/><path d="M263.09,213.52c-1,.47-2.08.93-3,1.39-.46.23-.12.92.46.69,1-.46,2.08-.92,3-1.38C264,214.1,263.55,213.29,263.09,213.52Z" style="fill:#7d351d"/><path d="M300.37,166.87s-1.38,9.58-6.12,11.78c-3.92,1.85-11.31-4.16-11.31-4.16-3-3-3.58-4.85-4.61-8.54s4.38-7.86,4.38-7.86,3.69-14.66,6-15.82.35,12.82.35,12.82a2.26,2.26,0,0,1,2.19-.58,22.89,22.89,0,0,1,8.89,5.08C302.1,161.56,300.37,166.87,300.37,166.87Z" style="fill:#c1725c"/><path d="M280.63,167.56c2.66-1.27,6.24-2.65,7.85-5.31.69-1,1-2.54.12-3.46s-2.31-.58-3.35-.58a.46.46,0,0,0,0,.92c.92,0,2.54-.34,3,.69.35.81-.46,2-.92,2.55a8.33,8.33,0,0,1-1.5,1.27,33.38,33.38,0,0,1-5.66,3.11A.47.47,0,0,0,280.63,167.56Z" style="fill:#7d351d"/><path d="M288.48,161.44a24.12,24.12,0,0,0,11,4.85c.57.12.8-.69.23-.81a22.42,22.42,0,0,1-10.62-4.62C288.71,160.4,288,161.09,288.48,161.44Z" style="fill:#7d351d"/><path d="M291.48,165.48a10,10,0,0,0-1.5,9.59c.23.58,1,.34.81-.23a8.84,8.84,0,0,1,1.39-8.89C292.64,165.48,291.83,165,291.48,165.48Z" style="fill:#7d351d"/><path d="M290.91,162.13a17.73,17.73,0,0,1,2.54-6.35c.34-.46-.47-.92-.7-.46a17.19,17.19,0,0,0-2.54,6.58A.38.38,0,1,0,290.91,162.13Z" style="fill:#7d351d"/><path d="M294.14,164.21a22.67,22.67,0,0,1,2.54-6.58c.23-.46-.46-.92-.7-.46a23.66,23.66,0,0,0-2.53,6.7C293.21,164.56,294,164.79,294.14,164.21Z" style="fill:#7d351d"/><path d="M297.37,164.79c0,.12,0,.12-.12.23.24.12.58.12.81.23a12.1,12.1,0,0,1,2.08-5.19c.35-.47-.46-.93-.69-.47a13.13,13.13,0,0,0-2.08,5.32c-.12.57.69.8.81.23,0-.12,0-.12.11-.23C298.29,164.56,297.49,164.33,297.37,164.79Z" style="fill:#7d351d"/><path d="M288.48,155.55a9.33,9.33,0,0,0-.69,3.47c0,.57.81.57.92,0a10,10,0,0,1,.7-3.24C289.52,155.21,288.6,155,288.48,155.55Z" style="fill:#7d351d"/><path d="M156.44,482.14l-4,14c4.85,4,9.7,3.58,14.43,2l4.85-13.4Z" style="fill:#c1725c"/><path d="M143.75,509.85l1.84,3.35.58,1.16,8.66,15.13a7.27,7.27,0,0,0,6.23,3.58c4.62,0,12.23-.12,18,0,1.39,0,2-.7,2-1.85,0-3.23-4.39-9.47-7.27-10.74,0,0-4.74-16.75-3.12-20.67,2.77-6.7-1.27-7.05-5.31-5-2.08,1-2.65,2.54-4.16,2.54-2.42,0-7.61-2.42-7.61-2.42s-2-2.54-2.54,0a25.05,25.05,0,0,1-1,2.65c-.23.58-.58,1.16-.92,1.85-1.5,3-3.35,6.7-4.51,8.78Z" style="fill:#2b2b39"/><path d="M145.59,513.09l.58,1.15c3.23-2.31,4.85-6.23,4.62-11.31a23.9,23.9,0,0,0-.93-5.55c-.23.58-.57,1.16-.92,1.85a19.1,19.1,0,0,1,.46,3.7C149.86,507.66,148.48,511,145.59,513.09Z" style="fill:#5f5f75"/><path d="M143.75,509.85l11.19,19.52a7.26,7.26,0,0,0,6.23,3.58c4.62,0,12.24-.11,18,0,1.39,0,2-.69,2-1.85L161.29,531a5.89,5.89,0,0,1-5.08-3l-11.54-20Z" style="fill:#5f5f75"/><path d="M165.45,504.89a1.26,1.26,0,0,1-.93-.93,1,1,0,0,1,1-.92l4.27.12c.58,0,1.16.46,1.16.92a1,1,0,0,1-1,.92l-4.27-.11Z" style="fill:#fff"/><path d="M168.56,518.86a1.23,1.23,0,0,1-.92-.92,1,1,0,0,1,1-.93l4.27.12a1.14,1.14,0,0,1,1.15.92,1,1,0,0,1-1,.93l-4.27-.12Z" style="fill:#fff"/><path d="M167.52,515.17a1.28,1.28,0,0,1-.92-.93,1,1,0,0,1,1-.92l4.27.11a1.14,1.14,0,0,1,1.15.93,1,1,0,0,1-1,.92l-4.27-.11Z" style="fill:#fff"/><path d="M166.83,511.7a1.23,1.23,0,0,1-.92-.92,1,1,0,0,1,1-.93l4.27.12a1.14,1.14,0,0,1,1.15.92,1,1,0,0,1-1,.93l-4.27-.12Z" style="fill:#fff"/><path d="M166.14,508.35a1.26,1.26,0,0,1-.93-.92,1,1,0,0,1,1-.92l4.27.11c.58,0,1.16.46,1.16.92a1,1,0,0,1-1,.93l-4.27-.12Z" style="fill:#fff"/><path d="M190.49,250.48s-21,9.24-24.93,37.07-13,38.22-6.92,51.27,49.16-2.19,85.17-1.61,27.94-26.8,21.24-37.88-14-43.42-24.93-44.23Z" style="fill:#d03f23"/><path d="M183,260.64c-5.31,2.54-8.66,7.85-10.16,13.4-2.08,7.27-1,14.89-.46,22.29.58,8.43-.11,16.63-3,24.48-1.73,4.85-5.54,12.93,1.5,15.47,3.23,1.16,6.58,0,9.7-1.15a90.22,90.22,0,0,1,11.31-3.58,84.44,84.44,0,0,1,24.7-2.2c13.85.7,31.62,4.39,42.35-7.16,4.62-5,6.81-12.12,4-18.59s-9-11-10.5-18c-.11-.58-.92-.35-.81.23,1.16,5.66,5.54,9.81,8.54,14.55a15.47,15.47,0,0,1,.7,17.67c-7.85,13.51-25.63,12-38.78,11a110,110,0,0,0-22.28.23A86.49,86.49,0,0,0,189,331.43c-3.58.93-7,2.31-10.5,3.58-3.23,1-7.74,1.73-10-1.5-2-2.89-.47-6.81.69-9.7a58.88,58.88,0,0,0,4.38-20.9c0-8.43-2-17-.57-25.41,1-6.58,4.27-13.16,10.5-16.17C184,261.1,183.57,260.41,183,260.64Z" style="fill:#750021"/><path d="M246.7,491.49l1.15,19.75,14.89.12,1.27-20Z" style="fill:#c1725c"/><path d="M297.72,533h-53a8.62,8.62,0,0,1-.69-3c-.35-4.51,1.15-11.67,1.84-16.17.12-.58.12-1,.23-1.5a11.57,11.57,0,0,0,.12-1.85c0-3.69,3.23-3,3.23-3,5.31,5.31,11.43-2.66,15,0a73.9,73.9,0,0,1,5.78,4.85c4.15,3.81,11.31,6.35,17.42,8.89,7.85,3.35,10.05,6.58,10.51,8.89A4,4,0,0,1,297.72,533Z" style="fill:#2b2b39"/><path d="M297.72,533h-53a8.62,8.62,0,0,1-.69-3h54.13A4.19,4.19,0,0,1,297.72,533Z" style="fill:#5f5f75"/><path d="M250.16,533h-1.61a11.84,11.84,0,0,0,2.88-8.54,14.93,14.93,0,0,0-5.54-10.63c.12-.58.12-1,.23-1.5,2.31,1.85,6.35,5.77,6.58,12A14,14,0,0,1,250.16,533Z" style="fill:#5f5f75"/><path d="M269.32,515.51a.85.85,0,0,1-.81-.69.83.83,0,0,1,.7-1l3.34-.81a.82.82,0,0,1,1,.7.8.8,0,0,1-.69,1l-3.35.81A.17.17,0,0,0,269.32,515.51Z" style="fill:#fff"/><path d="M266.21,512.63a.85.85,0,0,1-.81-.7.82.82,0,0,1,.69-1l3.35-.8a.82.82,0,0,1,1,.69.83.83,0,0,1-.7,1l-3.34.81Z" style="fill:#fff"/><path d="M272.55,517.36a.84.84,0,0,1-.8-.69.81.81,0,0,1,.69-1l3.35-.81a.88.88,0,0,1,.34,1.73l-3.34.81Z" style="fill:#fff"/><path d="M275.9,519.21a.85.85,0,0,1-.81-.69.82.82,0,0,1,.7-1l3.34-.81a.88.88,0,1,1,.35,1.73l-3.35.81Z" style="fill:#fff"/><path d="M279.48,520.94a.85.85,0,0,1-.81-.69.82.82,0,0,1,.69-1l3.35-.81a.88.88,0,1,1,.35,1.73l-3.35.81Z" style="fill:#fff"/><path d="M283.4,522.44a.84.84,0,0,1-.8-.69.82.82,0,0,1,.69-1l3.35-.81a.88.88,0,0,1,.34,1.73l-3.35.81Z" style="fill:#fff"/><path d="M225.12,303.25c-.93.24-1.85.47-2.66.7-11.54,2.65-23.66,3.69-32.2,1.73-4.15-1-6.92-6.12-8.54-11.89a23.37,23.37,0,0,1-1.15-4.74c-1-15.94,2.88-22.75,2.88-22.75L246,259.37s2.08,3.81,4.38,8.78A100.61,100.61,0,0,1,255,279.81a29.8,29.8,0,0,1,1.39,6.24C256.86,291.71,242,299,225.12,303.25Z" style="fill:#6059c9"/><path d="M222.35,309.72c-1.27,21.14-7.74,59.48-12,77.72-.11.46-.23.93-.34,1.27a16.55,16.55,0,0,0-.46,2.08c-3.7,14.44-22.74,63.75-32.78,89.5a4,4,0,0,1-.47,1c-.57,1.39-1.38,3.93-1.84,5.2-2.08-.35-4.16-.7-6.23-.93-5.31-.69-10.05-1.38-15.36-1.84.12-1,.35-3.82.47-5a4.92,4.92,0,0,1,.23-1.16c2-12.35,4.84-31.18,7.61-48,4.51-28.06,11.32-43.19,11.32-43.19s3.34-5.89,5-22.52c1.38-13.74,5.31-57.62,6.23-72.4.23-3,.35-4.74.35-4.74s31.85-2.54,37.51,8.55a7.72,7.72,0,0,1,.81,2.77A77.86,77.86,0,0,1,222.35,309.72Z" style="fill:#6059c9"/><path d="M210.34,387.33c-.11.46-.23.92-.34,1.27a20.89,20.89,0,0,1-12.81-4c-.7-.47,0-1.62.69-1.16A18.47,18.47,0,0,0,210.34,387.33Z" style="fill:#2b2b39"/><path d="M176.64,480.29a3.94,3.94,0,0,1-.46,1L156.1,479l-1.16-.12-1.61-.23a4.85,4.85,0,0,1,.23-1.15l1.5.11,1.38.12Z" style="fill:#2b2b39"/><path d="M187.84,316.3c-.23,0-.58-.23-.58-.46a.51.51,0,0,1,.46-.69,21,21,0,0,0,7.16-3.81c4.84-3.93,7.5-9.7,8-16.86a.64.64,0,0,1,1.27.11c-.58,9.47-5,14.9-8.42,17.79a20.4,20.4,0,0,1-7.62,4A.36.36,0,0,0,187.84,316.3Z" style="fill:#2b2b39"/><path d="M265.86,489.3a3.76,3.76,0,0,1-.12,1.15c-.23,4.16-.46,6.59-.46,6.59l-1.73-.24L246.82,495l-2.2-.23s-.11-2.2-.34-5.89a3.82,3.82,0,0,0-.12-1.16c-.81-13.28-2.77-42.73-5.89-63.75C234,395.87,238,379.7,238,379.7s.47-7.85-4.61-23.67a174.29,174.29,0,0,1-4.27-18.36c-.46-2.43-.93-5.08-1.5-7.74-1.62-8.66-3.12-17.9-4.51-26.21-.23-1.27-.34-2.43-.57-3.7-.12-.46-.12-.92-.23-1.38l-3-19.64s3.34-1.5,8.08-3.11,11.08-3.24,16.27-3.24c5,0,9,1.62,10.5,6,.58,1.84,1.27,4.15,1.85,6.81.92,3.58,1.85,7.85,2.77,12.47,1.15,5.66,2.31,11.78,3.46,18.13.93,5.2,1.73,10.4,2.66,15.48,2.77,17.44,5.08,33.6,5.65,39.72.12,1.51.23,3.35.23,5.55v1.38C271.4,403.49,267.36,467.24,265.86,489.3Z" style="fill:#6059c9"/><path d="M271.05,378.32a17.43,17.43,0,0,1-10.85.46.66.66,0,0,1,.35-1.27,15.26,15.26,0,0,0,10.39-.58A6,6,0,0,1,271.05,378.32Z" style="fill:#2b2b39"/><path d="M244.39,487.68a3.82,3.82,0,0,0,.12,1.16l21.35,1.61a3.76,3.76,0,0,1,.12-1.15Z" style="fill:#2b2b39"/><path d="M188.18,290.67a.65.65,0,0,0-.69.57c-.12.7-6.35,64.68-9.12,89.74-.46,1.5-8.54,25.63-10.85,38.57-2.07,11.66-8.77,43.42-11.89,58.43.35.12.81.23,1.27.35,3.12-15,9.81-47,11.89-58.67,2.43-13.16,10.74-38.22,10.85-38.45v-.12c2.66-24.94,9-89.15,9.12-89.85C188.76,291,188.53,290.78,188.18,290.67Z" style="fill:#2b2b39"/><path d="M222.58,300.14a.65.65,0,0,1-.58-.35.67.67,0,0,1,.23-.81,16.81,16.81,0,0,0,8.08-11.55c.12-.34.35-.57.69-.46s.58.35.47.69a18.47,18.47,0,0,1-8.78,12.48Z" style="fill:#2b2b39"/><path d="M248.43,488.84a.55.55,0,0,1-.58-.58c0-.69-4.15-65.6-5.54-80.38-1.38-14.32.7-34.76.93-36.61-4.73-14.55-17.89-72.63-18-73.21a.67.67,0,0,1,.46-.81.65.65,0,0,1,.81.46c.12.58,13.28,58.9,18,73.22v.23c0,.23-2.31,21.83-.93,36.49s5.54,79.8,5.54,80.49A.61.61,0,0,1,248.43,488.84Z" style="fill:#2b2b39"/><path d="M245.89,263.3a122.69,122.69,0,0,1-18.58,3.35c-.46,0-.92.11-1.38.11-11.89,1.27-26.09,1.5-43.29.69.12-4.27,0-8.66-.23-12.81a2.7,2.7,0,0,0-.11-.93c-.7-11.2-2.31-20.44-2.31-20.78-.12-.58-.23-1.27-.35-2,0-.23-.11-.58-.11-.92-.35-2-.81-4-1.39-6.35-.34-1.27-.69-2.43-1-3.7s-.69-2.54-1.15-3.81c0-.12-.12-.35-.12-.46a2.25,2.25,0,0,1-.23-.81,19.23,19.23,0,0,0-.81-2.43c-.23-.8-.57-1.61-.8-2.42-.12-.46-.35-.92-.47-1.39,0-.11-.11-.11-.11-.23-.12-.34-.23-.69-.35-1-.34-.8-.57-1.61-.92-2.31-.12-.34-.23-.57-.35-.92-.57-1.62-1.27-3.12-2-4.73-4.85-11.32-5.65-24,6-27.95.81-.23,1.73-.58,2.54-.81,1.5-.46,2.89-.92,4.27-1.27a3.46,3.46,0,0,1,.93-.23c2.42-.69,4.27-1.16,5.42-1.5.35-.12.58-.12.69-.23H190l24.47,2.08,2.31.23c.46,0,.8.11,1.27.11s.57.12.92.12c2.42.34,4.5.69,6.35,1a28.28,28.28,0,0,1,5,1.5c.69.34,1.27.69,1.85,1,.23.11.46.34.69.46,2.42,2,3.23,4.5,3.92,8.43.12.35.12.58.24.92.23,1.27.46,2.54.69,4a.92.92,0,0,0,.11.47V188c.12.35.12.81.23,1.16s.12.57.23.81c.12.69.35,1.38.47,2.07.34,1.39.8,2.66,1.15,4.05,0,.11.12.23.12.46s.11.23.11.46c.81,2.54,1.73,5.08,2.54,7.39a1.61,1.61,0,0,1,.23.81c.46,1.27.81,2.42,1.16,3.58,0,.11,0,.11.11.23s.12.46.23.58c.35,1.15.58,2.19.81,3.23a14,14,0,0,1,.23,3.7,3.26,3.26,0,0,1-.23,1.15,10.59,10.59,0,0,1-1,2.66.11.11,0,0,1-.11.11c-.12.35-.35.7-.47,1-.46.93-1,1.73-1.5,2.54a41.14,41.14,0,0,1-3.46,4.39l-.46.46V229a1.52,1.52,0,0,0,.11.69c.12.81.24,1.85.47,3,0,.12.11.81.34,2,0,.23.12.58.12.92.23,1.27.58,2.89.92,4.74.12.34.12.57.23.92C241.51,246.9,243.35,255,245.89,263.3Z" style="fill:#f0c86a"/><path d="M172.83,207.29v-.23c-1.61-3.58,1.73-6.59,4.85-7.74a19.68,19.68,0,0,1,10-.69c6.35,1,12.24,3.81,18.35,5.66,11.89,3.46,24.82,5.08,36.71.69a.11.11,0,0,0,.11-.12,1.72,1.72,0,0,1-.23-.81c-1.5.47-2.88.93-4,1.27a52.1,52.1,0,0,1-19.39.93,99.59,99.59,0,0,1-19.39-5c-5.77-2.08-11.77-4.39-18.12-3.69-3.69.34-9.23,2.54-10,6.46Z" style="fill:#f8e6ba"/><path d="M232.85,173.91c-1.27,2.43-3.23,5.43-6,6.12-3.12.81-5.66-2.19-6.93-4.62a19.66,19.66,0,0,1-1.84-5.77c.34,0,.57.12.92.12a18.83,18.83,0,0,0,1.27,4.38c1.27,2.78,4.15,6.47,7.5,4.51,1.85-1,3.35-3.24,4.39-5.31C232.39,173.57,232.62,173.68,232.85,173.91Z" style="fill:#f8e6ba"/><path d="M236.89,183.27c-2.31.23-4.62.23-6.69.34-8.43.35-17.09,0-25-3.23a36.91,36.91,0,0,1-16.27-12.82c.34-.11.57-.11.69-.23h.23a37.76,37.76,0,0,0,22.62,14.32,69.63,69.63,0,0,0,15.47,1.16l7.15-.35c.58,0,1-.12,1.62-.12A2.27,2.27,0,0,1,236.89,183.27Z" style="fill:#f8e6ba"/><path d="M238.16,189.85c-3.46.46-6.93.69-10.39.81-10,.34-20.2-1.39-28.74-7-6.12-4-11.19-9.35-16.5-14.32a3.72,3.72,0,0,1,.92-.23c2.08,2,4.16,4.05,6.35,6.12a70.29,70.29,0,0,0,10.73,8.55,41.15,41.15,0,0,0,13.51,5.2c7.85,1.5,15.92,1.15,23.89.11C238,189.27,238,189.62,238.16,189.85Z" style="fill:#f8e6ba"/><path d="M240.12,196.78a16,16,0,0,1-4,1.15,55.69,55.69,0,0,1-14.54.12A87,87,0,0,1,207,195.39c-9.12-2.54-19.39-7-28.51-2-.46.23-.93-.46-.46-.69,4.27-2.43,9.11-2.77,13.85-2.08s9,2.19,13.5,3.58a72.92,72.92,0,0,0,14.77,3,67,67,0,0,0,14.43.23,20.28,20.28,0,0,0,5.2-1.27c0,.12.11.23.11.46C240,196.43,240,196.55,240.12,196.78Z" style="fill:#f8e6ba"/><path d="M239.78,221.15c1.5-.23,2.88-.58,4.27-.93-.12.35-.35.7-.47,1-.46.12-.92.23-1.5.35-3.11.69-8.77,2.19-10.61-1.5-1.62-3.24,2.77-6.59,5-8.09a26.67,26.67,0,0,1,7.5-3.58c0,.12,0,.12.12.23s.11.47.23.58a24.71,24.71,0,0,0-6.24,2.66c-2.19,1.38-8.88,6.35-4.61,9C235.27,222.07,237.81,221.49,239.78,221.15Z" style="fill:#f8e6ba"/><path d="M222.58,240.09a43,43,0,0,1-8.2,10,33.15,33.15,0,0,1-24.12,8.66.46.46,0,0,1,0-.92c9.81.69,19.16-3.58,25.85-10.62a42.5,42.5,0,0,0,7-10.05c1.16-2.2,2.66-5.31.7-7.39-1.39-1.5-3.47-2-5.31-2.43L212,225.65a19.5,19.5,0,0,1-5-1.73c-3.12-2.08-1.27-5.31.8-7.28,1.62-1.61,3.47-3.46,2.08-5.89s-4.15-2.88-6.46-3.23a31.43,31.43,0,0,0-13.51,1.5,56.92,56.92,0,0,0-14.08,6.81,2.2,2.2,0,0,1-.23-.8c6-3.82,12.47-7.05,19.74-8.09,4-.58,9.23-.92,12.93,1a5.87,5.87,0,0,1,3,3.81c.34,1.73-.58,3.12-1.73,4.39-1.51,1.62-5,4.27-2.54,6.7,1.5,1.5,4.27,1.85,6.34,2.31,2.43.58,4.85,1.15,7.28,1.85a8.33,8.33,0,0,1,4.27,2.42C227.19,232.58,224.19,237.2,222.58,240.09Z" style="fill:#f8e6ba"/><path d="M201.34,237.54c-.69,4.51-5.42,8.2-8.89,11a56,56,0,0,1-10,6.23,2.64,2.64,0,0,0-.11-.92,53.15,53.15,0,0,0,10-6.35c3.11-2.54,7.62-6,8.08-10.28.57-5.2-5.2-7.39-9.47-7.85a22.78,22.78,0,0,0-11.42,1.84c0-.23-.12-.57-.12-.92l1.73-.69a23.51,23.51,0,0,1,13.28-.58C198.22,230,202,233.16,201.34,237.54Z" style="fill:#f8e6ba"/><path d="M226.73,246.9c-2.54,3.81-4.73,8.54-3.92,13.28a9.61,9.61,0,0,0,4.38,6.47c-.46,0-.92.11-1.38.11a10.33,10.33,0,0,1-3.35-4.39c-1.84-4.62-.23-9.81,2.2-13.85a37.78,37.78,0,0,1,14.19-14.09c0,.23.12.57.12.92A39,39,0,0,0,226.73,246.9Z" style="fill:#f8e6ba"/><path d="M243.35,261.22c-5.54.46-9.58-4.85-9.23-10.05.23-4.5,2.77-8.2,6-11.08.12.34.12.57.23.92a14.74,14.74,0,0,0-5.19,8.78c-.81,5.08,2.54,10.85,8.31,10.39C243.81,260.29,243.81,261.1,243.35,261.22Z" style="fill:#f8e6ba"/><path d="M242.31,250s7.39,5.66,3.58,14.66c0,0-40.16,13.75-63.71,4.39,0,0-2.31-8,.46-14.55C182.64,254.52,219.12,261.91,242.31,250Z" style="fill:#d03f23"/><path d="M182.3,257a16.65,16.65,0,0,0-.93,11.78c.12.57,1,.34.81-.24a15.35,15.35,0,0,1,.92-11.08A.46.46,0,0,0,182.3,257Z" style="fill:#750021"/><path d="M204.57,261a133.47,133.47,0,0,1-22.16-2.31.52.52,0,0,1,.12-1c.11,0,15.46,3.12,27.24,2.08a.52.52,0,0,1,.11,1C208.15,260.87,206.42,261,204.57,261Z" style="fill:#750021"/><path d="M222,266.07a.78.78,0,0,1-.58-.46c0-.35.12-.58.47-.58a122.5,122.5,0,0,0,22.62-6.24.52.52,0,0,1,.69.35.51.51,0,0,1-.35.69C244.74,259.72,233.54,264.34,222,266.07Z" style="fill:#750021"/><path d="M225.35,264.11s17.43,5.54,26.43,14.89c0,0-3.46,12.71-12.81,14.79,0,0-13.28-23-17.78-24.49Z" style="fill:#d03f23"/><path d="M208.27,264.8s-15,10.39-21,21.94c0,0,7,11.2,16.62,10.39,0,0,6-25.86,9.81-28.52Z" style="fill:#d03f23"/><path d="M227.31,263.3a14.54,14.54,0,0,0-.69-6.24c-.81-2.31-2.2-4.73-4.85-4.85-5.08-.35-5.66,3.7-5.66,3.7s-2.07-4.16-7.5-1.85-3.34,17.9,2,19.75,7.28-2.54,7.28-2.54,1.73,3.23,6.11,1C226.16,271,227,266.3,227.31,263.3Z" style="fill:#d03f23"/><path d="M230.31,172.41a41,41,0,0,0,8.43,19.52c-.35-1.39-.7-2.66-.93-4v-.12a.91.91,0,0,0-.11-.46C236.08,179.23,236.08,175,230.31,172.41Z" style="fill:#c1725c"/><path d="M190.72,188.58c-.57,10.74-9.69,22.75-16.85,21.48-.23-.58-.35-1.16-.58-1.73-.11-.35-.23-.7-.34-1-1-2.66-2.08-5.43-3.12-8-4.85-11.32-5.65-24,6-27.95.81-.23,1.73-.57,2.54-.81C184.72,172,191.41,176.11,190.72,188.58Z" style="fill:#c1725c"/><path d="M202.61,232.12a.47.47,0,0,0,.46.23c.12,0,.23,0,.23-.12a33.22,33.22,0,0,1,20.55-3,33.3,33.3,0,0,0,14.31.12,1.42,1.42,0,0,0-.12-.7v-.11l.47-.46a34.05,34.05,0,0,1-14.55,0,33.59,33.59,0,0,0-21.23,3.11C202.49,231.54,202.38,231.89,202.61,232.12Z" style="fill:#ca9441"/><path d="M220.5,199.9c7.16,0,8.77-7.74,8.77-7.86.12-.34-.11-.57-.46-.69s-.58.12-.69.46-1.39,6.93-7.62,6.93c-6.58,0-20.66-9.93-20.89-10s-.58-.12-.81.11-.11.58.12.81C199.61,190.08,213.69,199.9,220.5,199.9Z" style="fill:#ca9441"/><path d="M203.3,108.09c-1.27,1.5-4.84,4.73-4.84,4.73l-5.08,3.47-4.27,3.58s-12.93,6.81-15.59,4.62c-1.61-1.27-1.38-3.47-.92-5a8.79,8.79,0,0,1,.58-1.62s-.35.12-.81.24c-1.27.23-3.69.34-4.73-2.43-1.5-3.93,3.46-8.2,3.46-8.2s-3.92-.11-5.54-3.46,5.31-9.13,5.31-9.13-2.31-.46-1-4.5,5.54-2.89,5.54-2.89-.46-7.39,4.85-7.74,9,6.59,9,6.59a8.66,8.66,0,0,1,8.2.57c4.15,2.66,1.38,10.63,1.38,10.63s4.39-2,7.39,1.73C208.27,101.62,205.5,105.55,203.3,108.09Z" style="fill:#2b2b39"/><path d="M198.46,112.71s-6.81,1.38-9.35,6.93a5.26,5.26,0,0,0,3.11,1.73s1.27-3.81,6.47-5.89A2.23,2.23,0,0,0,198.46,112.71Z" style="fill:#d03f23"/><path d="M225.23,143.54s4.62-1,5.89-7.51c2.08-10.62-5.08-20.44-18.24-22.28-17.31-2.31-19.73,3-23.2,9.7s-2.54,16.74.93,22.29c3.34,5.31,10.15,7.62,10.15,7.62Z" style="fill:#2b2b39"/><path d="M225.69,141a3.17,3.17,0,0,1,2.43,3.12c.23,2.77-1.39,7.39-4.16,6.58S225.69,141,225.69,141Z" style="fill:#7d351d"/><path d="M222.35,151.39a2.51,2.51,0,1,0,2.88-2.07A2.49,2.49,0,0,0,222.35,151.39Z" style="fill:#fff"/><path d="M193.38,168.49s3.34,7.39,11.42,9c10.16,2.08,11.66-2.31,11.66-2.31a17.12,17.12,0,0,1-.58-4.27v-1.73c.12-1.62.35-3.47.58-5.43.12-.46.12-.92.23-1.5v-.12c-7-2.07-12.69-5.65-16.39-11.08l-1-.7-.69-.46-.11.46v1.39C198.92,157.86,197.19,162.94,193.38,168.49Z" style="fill:#c1725c"/><path d="M205,156.71c1.27,3.46,4.39,9.7,10.85,12.35.12-1.61.35-3.46.58-5.42.12-.47.12-.93.23-1.51h-.46C212.42,162.25,208.38,159.94,205,156.71Z" style="fill:#2b2b39"/><path d="M190.61,139c-.47,3.81,2.19,9,7.27,9.7H198a1.71,1.71,0,0,0,.23.69c0,.12.12.23.12.35,2.31,6.93,11.2,11.89,16.16,12.7a15.83,15.83,0,0,0,3.46,0c5.54-.46,7.39-7.62,7.27-13.28a13.69,13.69,0,0,0-.23-2.31v-.12s2.77-7.5,3.58-10.85c1.62-6.47-1.27-13.51-15.47-16.63s-18.69,5.43-20.31,9.93c-.23.81-.69,5.43,0,6.35C191.3,136.15,190.84,137.65,190.61,139Z" style="fill:#c1725c"/><path d="M211,128.41a7.21,7.21,0,0,1-3.7,6c-2.19,1.15-3.81,2.19-3.23,4.5.81,3.12-.11,5-1.85,5-3.11-.12-3-7.16-9.46-8.32,0,0-2.31-.81-1.5-4.85s9.12-14.89,19.74-12.93,19.5,8.31,18.92,15.94-2,5.88-2,5.88a58.08,58.08,0,0,0-.11-6.58C227.54,127.6,210.34,124.83,211,128.41Z" style="fill:#2b2b39"/><path d="M192.8,148.28a2.51,2.51,0,1,0,2.89-2.08A2.49,2.49,0,0,0,192.8,148.28Z" style="fill:#fff"/><g style="opacity:0.5"><g style="opacity:0.5"><g style="opacity:0.5"><g style="opacity:0.5"><path d="M222.35,147.81c-.12.58,1.15,1.16,2.77,1.51a14.81,14.81,0,0,0-.23-2.31C223.5,146.89,222.46,147.24,222.35,147.81Z" style="fill:#7d351d;opacity:0.5;isolation:isolate"/></g></g></g></g><path d="M216.46,155.21a1.29,1.29,0,0,1-1-.7.29.29,0,0,1,.12-.46.28.28,0,0,1,.46.12,1.22,1.22,0,0,0,1.27.34c.11,0,.34,0,.34.23s0,.35-.23.35A2.73,2.73,0,0,1,216.46,155.21Z" style="fill:#7d351d"/><path d="M217.15,153.13a3.75,3.75,0,0,1-2.77-2.43c-.11-.23.12-.46.35-.58s.46.12.58.35a2.61,2.61,0,0,0,2.07,1.73,3.24,3.24,0,0,0,2.54-.34c.23-.23.46-.12.7,0s.11.46,0,.69A3.77,3.77,0,0,1,217.15,153.13Z" style="fill:#7d351d"/><path d="M218.77,149.2H219l2.08-.92c.11-.12.23-.23.23-.35s0-.35-.12-.35a6.76,6.76,0,0,1-2.42-4.73c0-.23-.23-.46-.46-.35s-.46.23-.35.46a7.92,7.92,0,0,0,2.19,5l-1.5.58a.42.42,0,0,0-.23.57A.42.42,0,0,1,218.77,149.2Z" style="fill:#7d351d"/><path d="M216.11,136.15a1.05,1.05,0,0,0,.93-1.85,2.82,2.82,0,0,0-2.08-.57,7.9,7.9,0,0,0-6,3.46s3.92-1.39,5.88-1.16A2.17,2.17,0,0,1,216.11,136.15Z" style="fill:#2b2b39"/><path d="M222.23,137.31a1.08,1.08,0,0,1-.34-2.08,3,3,0,0,1,2.19.11c3.81,1.5,3.58,4.27,3.58,4.27a13.83,13.83,0,0,0-4.27-2.07A4.92,4.92,0,0,0,222.23,137.31Z" style="fill:#2b2b39"/><g style="opacity:0.5"><g style="opacity:0.5"><g style="opacity:0.5"><g style="opacity:0.5"><path d="M213.46,146.77c-.12.7-1.73,1-3.81.81s-3.58-.92-3.46-1.61,1.73-1,3.81-.81S213.58,146.08,213.46,146.77Z" style="fill:#7d351d;opacity:0.5;isolation:isolate"/></g></g></g></g><path d="M197.88,148.74H198a1.71,1.71,0,0,0,.23.69c0,.12.12.23.12.35a3.83,3.83,0,0,0,2.08-.58,3.24,3.24,0,0,0,1.15-1,.43.43,0,0,0-.11-.69.44.44,0,0,0-.7.11,2.65,2.65,0,0,1-1.38.93,3,3,0,0,1-.92.11A1.53,1.53,0,0,1,197.88,148.74Z" style="fill:#7d351d"/><path d="M198.69,145.74c-.23-.12-.35-.24-.35-.47-.23-3.69-4.39-5.77-4.39-5.89a.52.52,0,1,1,.47-.92c.23.12,4.73,2.43,5,6.7a.53.53,0,0,1-.46.58C198.8,145.85,198.8,145.85,198.69,145.74Z" style="fill:#7d351d"/><path d="M194.42,143.19c-.12,0-.12,0-.24-.11a.53.53,0,0,1-.11-.69,3.48,3.48,0,0,1,3.35-1.16c.23,0,.46.35.46.58s-.35.46-.58.46a2.51,2.51,0,0,0-2.31.81A.5.5,0,0,1,194.42,143.19Z" style="fill:#7d351d"/><path d="M214.73,142.39c-.12.92-.69,1.73-1.15,1.61s-.81-.92-.7-2,.7-1.73,1.16-1.62S214.84,141.35,214.73,142.39Z" style="fill:#2b2b39"/><path d="M211.38,140.08l-.11-.12a.46.46,0,0,1,.11-.35c.12,0,2.77-1,4.5.93a.24.24,0,0,1-.34.35c-1.39-1.62-3.81-.81-3.93-.81S211.38,140.19,211.38,140.08Z" style="fill:#2b2b39"/><path d="M223.73,143.77c-.11.93-.69,1.73-1.15,1.62s-.81-.92-.69-2,.69-1.74,1.15-1.62S223.85,142.85,223.73,143.77Z" style="fill:#2b2b39"/><path d="M220.62,141.46l-.12-.11a.42.42,0,0,1,.12-.35c.11,0,2.88-.92,4.38,1.16a.24.24,0,0,1-.34.34c-1.39-1.73-3.81-.92-3.81-.92A.38.38,0,0,1,220.62,141.46Z" style="fill:#2b2b39"/><path d="M188.41,207.17a.83.83,0,0,1-.57.23l-.58.35-1.27.58-2.54,1.15c-1.73.81-3.35,1.62-5.08,2.31-3.34,1.5-6.69,3-10,4.16a19.1,19.1,0,0,1-2.42.81c-.81.23-1.62.46-2.31.69a22.59,22.59,0,0,1-2.19.58c-.7.11-1.39.23-2,.34a4.32,4.32,0,0,1-1.27,0h.47a7.79,7.79,0,0,1,1,.47c.35.23.81.46,1.27.8a4.53,4.53,0,0,1,1,1.16,4.46,4.46,0,0,1,.7,1.15,7.88,7.88,0,0,0,.34.93,1.21,1.21,0,0,1,.12.58v.34c0-.11.11-.46.23-1a7,7,0,0,1,.69-1.84c.58-1.39,1.27-2.89,2.08-4.39s1.61-3,2.54-4.62,1.84-3.12,2.77-4.74c2-3.12,3.92-6.23,6-9.47l3.12-4.73,3-4.74.11-.11a9.31,9.31,0,0,0-2.77-12.82A9.17,9.17,0,0,0,169,176.92l-.57.57-.47.58-1,1.16c-.7.8-1.27,1.5-2,2.31-1.27,1.5-2.54,3.11-3.69,4.73-2.42,3.23-4.73,6.47-7,9.93-1.15,1.73-2.19,3.47-3.23,5.31s-2.08,3.7-3,5.66-2,4-2.77,6.24a28.67,28.67,0,0,0-1.16,3.69,26.13,26.13,0,0,0-.81,4.74,15.74,15.74,0,0,0,0,3.23,15.26,15.26,0,0,0,.35,2c.12.69.46,1.5.69,2.31a20,20,0,0,0,1.39,2.54,13.58,13.58,0,0,0,2.08,2.31,15.31,15.31,0,0,0,2.42,1.73,11.18,11.18,0,0,0,2.42,1l.23.11h.24l.46.12c.23.11.57.11.81.23l.8.11c.23,0,.46.12.7.12a22.18,22.18,0,0,0,2.77.12,18.06,18.06,0,0,0,4.5-.58,52.52,52.52,0,0,0,7.15-2.2,39.72,39.72,0,0,0,6-2.88,97.72,97.72,0,0,0,10.62-6.7c1.62-1.16,3.35-2.43,4.85-3.7.81-.69,1.62-1.27,2.31-2,.35-.35.81-.69,1.15-1l.58-.46.58-.58a6.76,6.76,0,0,0,.34-9.58,7,7,0,0,0-7.5-1.74Z" style="fill:#c1725c"/><path d="M229.66,173.92l-36.43,5.33,6.93,47.42,36.43-5.32Z" style="fill:#5f5f75"/><path d="M227.93,174.16l-36.43,5.33,6.93,47.42,36.43-5.33Z" style="fill:#2b2b39"/><path d="M200.76,178.19s.58-3,3.24-3.24a4.08,4.08,0,0,1,2.53-3.58,15.52,15.52,0,0,1,6.58-.81c1.73.24,2.54,2.55,2.54,2.55a5.28,5.28,0,0,1,2.77.57,3.39,3.39,0,0,1,1.16,1.85Z" style="fill:#5f5f75"/><path d="M188.07,217.91a6.7,6.7,0,0,0,9.12-1.15,15.6,15.6,0,0,1,4.15-3.7c3.46-2,8.08-3.23,9.58-4.73,2.19-2.2-1.15-2.31-1.5-2.31a40.09,40.09,0,0,0-6.23,1.27s5.88-3.35,8.54-3.58,3.92-2.31,1.27-3.47-9.81,1.16-11.66,2.31c0,0,3.12-3,6.7-3.46s4.73-1.16,5.88-2.08-.92-3-5.88-2.19a15,15,0,0,0-8.55,3.92,26.07,26.07,0,0,1,3.24-4c2.19-2.42,6.34-2.66,6.92-4.5s-4.15-1.39-6.69.11-4.5,2.31-6.7,5.31a45.32,45.32,0,0,0-5.19,8c-.92,2.08-5.2,9.13-4.5,12.36A3.32,3.32,0,0,0,188.07,217.91Z" style="fill:#c1725c"/><path d="M188.18,209.25s.46-6.93,1.85-8.89,2.31-5.54,3.69-4.85.12,5.2.12,5.2Z" style="fill:#c1725c"/><path d="M174,204.29c.23.11.46.11.57-.12s6.93-9,9.7-13.17c.11-.23.11-.46-.12-.57s-.46-.12-.57.11c-2.77,4.16-9.58,13.05-9.58,13.17A.33.33,0,0,0,174,204.29Z" style="fill:#7d351d"/><path d="M181,195.16c.11.12.23.12,1.61-.34l3.23-1c-1,.34-.92.11-1-.12a.42.42,0,0,0-.58-.23l-3.23,1a.42.42,0,0,0-.23.58C180.91,194.93,181,195.05,181,195.16Z" style="fill:#7d351d"/><path d="M158.52,219.76a.34.34,0,0,0,.46,0c2.19-1.73,6.58-2,6.58-2a.47.47,0,0,0,0-.93c-.23,0-4.62.35-7,2.2-.23.11-.35.34,0,.69Z" style="fill:#7d351d"/><path d="M158.75,216.64a.22.22,0,0,0,.35,0,4.71,4.71,0,0,1,3.69,1.27.5.5,0,0,0,.58,0,.52.52,0,0,0,0-.57,5.43,5.43,0,0,0-4.39-1.51.64.64,0,0,0-.34.58C158.64,216.53,158.64,216.64,158.75,216.64Z" style="fill:#7d351d"/><path d="M555.22,190.43l-.23,1.5-.12,1.38c-.12.93-.23,1.85-.35,2.78-.23,1.84-.34,3.69-.46,5.54s-.11,3.81-.11,5.77a36.82,36.82,0,0,0,.46,6.12,29.37,29.37,0,0,0,1.73,7,18.65,18.65,0,0,0,2.19,4.27,11.52,11.52,0,0,0,1.85,2.31,11.06,11.06,0,0,0,2.77,2.31,17.52,17.52,0,0,0,3.58,1.85,15.92,15.92,0,0,0,3.92.92,17.65,17.65,0,0,0,6.81-.69,17.29,17.29,0,0,0,2.54-.92l.92-.47.93-.46A32,32,0,0,0,585,227.5a18.24,18.24,0,0,0,2.77-2.31,22.66,22.66,0,0,0,2.43-2.31,52.52,52.52,0,0,0,4.15-4.74,101.82,101.82,0,0,0,6.81-9.58q2.94-4.86,5.54-9.7c.81-1.62,1.73-3.24,2.43-5,.34-.81.8-1.61,1.15-2.54l.58-1.27.58-1.38a11.66,11.66,0,0,0-21.36-9.36l-.11.23-.46.93-.47,1c-.34.69-.69,1.38-1,2.07-.69,1.39-1.38,2.89-2.07,4.28-1.5,2.77-3,5.54-4.62,8.08s-3.35,5.08-5.08,7.28c-.92,1-1.73,2.07-2.65,3l-.69.69c-.24-.69-.35-1.38-.58-2.08-.35-1.38-.58-2.88-.93-4.5s-.46-3.12-.57-4.74c-.12-.8-.12-1.61-.23-2.42l-.12-2.31v-.58a7.8,7.8,0,0,0-8.19-7.16C558.68,184.19,555.79,187,555.22,190.43Z" style="fill:#e9a48e"/><path d="M597.34,171.49l-1.73,46a48.28,48.28,0,0,1-8.88,11.32c-.24.23-.47.34-.7.58a23,23,0,0,1-4.73,3.34,16.66,16.66,0,0,1-8.66,2.2,20.11,20.11,0,0,1-7.5-1.73A19.5,19.5,0,0,1,559.6,229c-.23-.23-.34-.46-.58-.69A20.23,20.23,0,0,1,555.1,221s-1.5-.23-2.88-3.35,2.07-4.73,2.07-4.73l.46,3c3.24-.12,16.86-15.13,16.86-15.13s.57-.58.92-.11,0,2.07,0,2.07l.35,1,.92,2.78s1.61-2.43,3.69-5.89c.23-.35.35-.58.58-.93,2.42-4,5.42-9.24,7.5-13.39a4.09,4.09,0,0,0,.46-1,33.29,33.29,0,0,0,1.73-4.51c1.5-6.7,6.12-20.09,6.12-20.09Z" style="fill:#467b6c"/><path d="M586.73,228.77c-.24.23-.47.34-.7.58a20.38,20.38,0,0,0-14.31-4.16A30.22,30.22,0,0,0,559.49,229c-.23-.23-.35-.46-.58-.69a30.67,30.67,0,0,1,13.85-4.05A20.74,20.74,0,0,1,586.73,228.77Z" style="fill:#5fa68d"/><path d="M590.88,211.1c-1.27,3.23-4.73,3.58-6.92,1.15a22.07,22.07,0,0,1-3.35-5.19,58.72,58.72,0,0,1-3-6.12.12.12,0,0,0-.12-.12c.23-.35.35-.58.58-.92.35.81.69,1.5,1,2.31a69.06,69.06,0,0,0,3.46,6.46c1.15,1.85,3.12,5.55,5.89,4.05,2.54-1.39,2.19-5.09,2.07-7.51a35.15,35.15,0,0,0-1.27-7.85,84.59,84.59,0,0,0-3.69-10.86,3.94,3.94,0,0,0,.46-1,83.82,83.82,0,0,1,4.27,12.82,42.37,42.37,0,0,1,1,6.81A15,15,0,0,1,590.88,211.1Z" style="fill:#5fa68d"/><path d="M581.42,232.69a16.68,16.68,0,0,1-8.66,2.2,20.11,20.11,0,0,1-7.5-1.73,18.88,18.88,0,0,1,11.31-3C579.22,230.15,580.72,231.19,581.42,232.69Z" style="fill:#253f3d"/><path d="M572.76,204.05C569.3,210.64,555,221,555,221s-1.51-.23-2.89-3.35,2.08-4.73,2.08-4.73l.46,3c3.23-.12,16.85-15.13,16.85-15.13s.58-.58.92-.11,0,2.07,0,2.07Z" style="fill:#253f3d"/><path d="M575.76,217.1h.12a.54.54,0,0,0,.57-.57c0-5.89-1.5-9.59-1.61-9.7a.52.52,0,0,0-.93.46,26,26,0,0,1,1.5,9.24C575.3,216.87,575.53,217,575.76,217.1Z" style="fill:#253f3d"/><path d="M578.07,210.06a.67.67,0,0,0,.46-.12.55.55,0,0,0,.12-.69,6.68,6.68,0,0,0-4-2.54c-.35,0-.58.12-.58.46s.11.58.46.58a5,5,0,0,1,3.35,2.19C578,209.94,578,209.94,578.07,210.06Z" style="fill:#253f3d"/><path d="M567,174.49s-.23,0,.58-1.5c1.38-2.43.11-6.93,1.73-8.2,2.07-1.62,3,2.54,4,10.62.23,2.2-1.16,9.47-2.08,11.67-.69,1.73-.81,4-2,5-3.47,2.66-12,2.54-13.16.58-1.85-2.89-2.42-9.35-3.35-11.78s-5.77-18.47-3.92-18.13,4.73,7.74,4.73,7.74-2.89-12.59-.81-13.17,4.5,11.32,4.5,11.32-2.19-15.82.58-15c1.39.34,3.81,14.55,3.81,14.55s-.92-9.24,2.88-9.12c4,.23,5.54,4.73,5.54,4.73s-.46,2.77-3.57,0C563.53,161.33,567,174.49,567,174.49Z" style="fill:#e9a48e"/><path d="M561.33,194.93a20.19,20.19,0,0,1-6.92-1.27,1.46,1.46,0,1,1,.92-2.77c8.54,3,14.43-1.39,14.54-1.5a1.48,1.48,0,0,1,1.85,2.31A18,18,0,0,1,561.33,194.93Z" style="fill:#2b2b39"/><path d="M553.25,174.49c-.11-.23-.11-.58.12-.69,5-3.93,11.19-2.77,11.43-2.77s.46.34.46.57-.35.47-.58.47-6-1.16-10.62,2.54A.73.73,0,0,1,553.25,174.49Z" style="fill:#b6665e"/><path d="M560,185.92a.49.49,0,0,1,0-.57c3.81-5.08,1.38-9.47,1.38-9.47a.52.52,0,1,1,.93-.47c.11.24,2.77,5-1.5,10.63a.55.55,0,0,1-.7.11C560.06,186,560,186,560,185.92Z" style="fill:#b6665e"/><path d="M634.51,499.46l-1.39,11.2H618.93l-.81-11.78Z" style="fill:#e9a48e"/><path d="M596.54,497.61l-1.74,13.05H580.49l.58-13.39Z" style="fill:#e9a48e"/><path d="M545.41,533.18h53.78a8.62,8.62,0,0,0,.69-3c.35-4.5-1.15-11.78-1.84-16.4-.12-.58-.12-1-.23-1.5a11.57,11.57,0,0,1-.12-1.85,2.82,2.82,0,0,0-3.35-3.12c-5.42,5.32-11.65-2.65-15.23,0,0,0-1.5,1.16-5.77,5s-11.55,6.35-17.78,9c-8,3.35-10.27,6.7-10.73,9A4.64,4.64,0,0,0,545.41,533.18Z" style="fill:#2b2b39"/><path d="M545.41,533.18h53.78a8.62,8.62,0,0,0,.69-3H544.94A4.4,4.4,0,0,0,545.41,533.18Z" style="fill:#5f5f75"/><path d="M593.77,533.18h1.61a11.69,11.69,0,0,1-2.88-8.66,15.06,15.06,0,0,1,5.65-10.74c-.11-.58-.11-1-.23-1.5a16.08,16.08,0,0,0-6.69,12.24A13.13,13.13,0,0,0,593.77,533.18Z" style="fill:#5f5f75"/><path d="M574.26,515.4a.76.76,0,0,0,.81-.7.82.82,0,0,0-.69-1l-3.35-.81a.88.88,0,1,0-.35,1.73l3.35.81Z" style="fill:#fff"/><path d="M577.61,512.51a.77.77,0,0,0,.81-.69.82.82,0,0,0-.7-1l-3.34-.81a.88.88,0,1,0-.35,1.73l3.35.81Z" style="fill:#fff"/><path d="M570.91,517.36a.76.76,0,0,0,.81-.69.81.81,0,0,0-.69-1l-3.35-.81a.88.88,0,1,0-.34,1.73l3.34.81Z" style="fill:#fff"/><path d="M567.57,519.21a.76.76,0,0,0,.8-.69.81.81,0,0,0-.69-1l-3.35-.81a.8.8,0,0,0-1,.69.82.82,0,0,0,.69,1l3.34.81Z" style="fill:#fff"/><path d="M563.87,520.94a.76.76,0,0,0,.81-.69.81.81,0,0,0-.69-1l-3.35-.81a.88.88,0,1,0-.35,1.73l3.35.81Z" style="fill:#fff"/><path d="M560,522.44a.77.77,0,0,0,.81-.69.83.83,0,0,0-.7-1l-3.34-.81a.82.82,0,0,0-1,.69.81.81,0,0,0,.69,1l3.35.81Z" style="fill:#fff"/><path d="M656.44,306.26c-.12.57-.12,2.42-.23,3v.12l-.69,2.07c-2.43,5.89-21,6.82-39.36,4.74-14.2-1.62-28.28-5-34.51-9.12-5.77-3.93,6.58-39.62,6.58-39.62l72,10.51A190,190,0,0,1,656.44,306.26Z" style="fill:#6059c9"/><path d="M572.64,395.06l5.66,103.13,20.54.58s7.51-76.11,4.85-92.74l11-90.19.23-2.31-26.32-12.12L587,300.6l-6.7-3.12c0,.58-.11,1-.11,1.62-.23,2-.47,4-.58,6-.12.58-.12,1.16-.23,1.85-3.35,32.1-5.77,62-6.58,86.15a10.12,10.12,0,0,1-.12,2Z" style="fill:#6059c9"/><path d="M572.64,395.06c1.39.12,2.89.23,4.27.23a55.85,55.85,0,0,0,9.82-.8.93.93,0,0,0-.24-1.85,66.42,66.42,0,0,1-13.73.58A9.49,9.49,0,0,1,572.64,395.06Z" style="fill:#2b2b39"/><path d="M611.31,317.23,599.08,411c.34,2.08,4.27,25.75-2,79.8-.11.58-.11,1-.23,1.62h-1.73c.12-.58.12-1,.23-1.62,6.58-56.13,2.08-79.34,2-79.57V411l12.35-93.89c.12-.46.47-.81.93-.69C611,316.3,611.31,316.77,611.31,317.23Z" style="fill:#2b2b39"/><path d="M599.54,491.61a.79.79,0,0,1-.81.81H595l-16.39-.12h-.12a.77.77,0,0,1-.69-.81.79.79,0,0,1,.81-.81l16.5.12h3.58A.79.79,0,0,1,599.54,491.61Z" style="fill:#2b2b39"/><path d="M596.07,286.16c-.11.47-1.73,9.13-7.38,15.36a18.35,18.35,0,0,1-3.93,3.35,14.52,14.52,0,0,1-3.57,1.73,10.22,10.22,0,0,1-1.74.47c.12-.58.12-1.16.23-1.85.24-.12.58-.12.81-.23a15.91,15.91,0,0,0,3.47-1.62,23.63,23.63,0,0,0,3.23-2.66c5.65-5.89,7.38-14.78,7.38-14.89a.91.91,0,0,1,1-.7A1,1,0,0,1,596.07,286.16Z" style="fill:#2b2b39"/><path d="M610.16,312.38a.69.69,0,0,0,1.38,0c.12-2.54.23-5.2.46-7.85,0-.47.12-.93.12-1.39.57-8.66,1.27-17.09,1.84-23,0-.46.12-.93.12-1.39.12-1.27.23-2.42.35-3.46-.47-.12-.93-.12-1.39-.23-.11,1-.23,2.19-.35,3.46,0,.46-.11.93-.11,1.39-.58,5.89-1.27,14.32-1.85,22.86,0,.46-.11.93-.11,1.39C610.39,307,610.27,309.72,610.16,312.38Z" style="fill:#2b2b39"/><path d="M608.08,303.25a15.78,15.78,0,0,0,2.54.93l1.38.35c.46.11.93.11,1.39.23a5.55,5.55,0,0,0,2.42-.35,3.22,3.22,0,0,0,1.62-2.19c.46-2.66,1.61-13.63,2.31-21.37,0-.46.11-.92.11-1.38.12-1.28.23-2.43.35-3.35a6.12,6.12,0,0,1-1.39-.23c-.11.92-.23,2.07-.34,3.34,0,.47-.12.93-.12,1.39-.69,7.74-1.85,18.71-2.31,21.25a1.42,1.42,0,0,1-.81,1.15,5.24,5.24,0,0,1-3,0l-1.38-.34a11.09,11.09,0,0,1-2-.81.73.73,0,0,0-.93.35C607.62,302.68,607.73,303.14,608.08,303.25Z" style="fill:#2b2b39"/><path d="M616,304.76V496.34l.23,3h21.12c1.16-6.82,9.12-34.53,10.16-57.52,1.16-24.82.81-56.93.81-56.93,2.19-17.09,5.65-52.66,7.62-74,0-.58.11-1.16.11-1.74V309c0-.58.12-1.16.12-1.62.81-8.54,1.27-14,1.27-14-3.23-1.39-9.12-.46-15.35,1.27-.58.11-1.16.35-1.62.46a30.66,30.66,0,0,1-3.12.92c-.57.24-1.15.35-1.61.58C625.51,300.25,616,304.76,616,304.76Z" style="fill:#6059c9"/><path d="M616,390.44v1.85c1.39.12,2.77.23,4,.23a55.32,55.32,0,0,0,9.81-.81.93.93,0,1,0-.23-1.84A65.3,65.3,0,0,1,616,390.44Z" style="fill:#2b2b39"/><path d="M645.59,385.13c0,2,1.15,48.51-1.27,65.25-1.85,12.36-5.31,31.41-7.16,41.23-.11.58-.23,1.15-.34,1.61h-1.73c.11-.46.23-1,.34-1.61,1.85-9.59,5.43-29,7.27-41.46,2.54-17,1.27-64.56,1.27-65V385c1.85-15.94,5.66-70.91,5.77-71.49a.87.87,0,1,1,1.74.12C651.24,314.23,647.44,369.08,645.59,385.13Z" style="fill:#2b2b39"/><path d="M638.89,492.53a.79.79,0,0,1-.8.81h-3.81L617,493.22h-.12c-.46,0-.69-.34-.69-.8a.78.78,0,0,1,.81-.81l17.54.11h3.69C638.55,491.61,638.89,492.07,638.89,492.53Z" style="fill:#2b2b39"/><path d="M612.93,529.72v.34a6.5,6.5,0,0,0,.11,1.51,13.82,13.82,0,0,1,.12,1.61h32.08a21.73,21.73,0,0,0,0-3.12c-.23-3.23-1.27-8.43-5.77-11.89-6.12-4.74-3.69-3.7-5-5.89-.12-.23-1.27-3.93-1.39-4.16-1-2.19-2-3.23-7.73-3.23-7.62,0-8.31,3.69-9.12,5.66a35.82,35.82,0,0,0-1.27,4.5c-.23.81-.34,1.73-.57,2.54-.47,2.2-.93,4.51-1.16,6.35A53.38,53.38,0,0,0,612.93,529.72Z" style="fill:#2b2b39"/><path d="M612.93,529.72v.34a6.5,6.5,0,0,0,.11,1.51,9.29,9.29,0,0,0,3.35-4.28c2-5.43-1-11.89-1.16-12.12h-.11c-.23.81-.35,1.73-.58,2.54.69,2.19,1.5,5.89.35,9A6.58,6.58,0,0,1,612.93,529.72Z" style="fill:#5f5f75"/><path d="M612.93,530.06a19.33,19.33,0,0,0,.23,3.12h32.08a21.73,21.73,0,0,0,0-3.12Z" style="fill:#5f5f75"/><path d="M624.47,514.94h.23a15.73,15.73,0,0,1,7.38-.12.93.93,0,0,0,1.16-.69.94.94,0,0,0-.69-1.16,18.42,18.42,0,0,0-8.43.12,1,1,0,0,0-.69,1.15A1.12,1.12,0,0,0,624.47,514.94Z" style="fill:#fff"/><path d="M623.89,511.47h.23a15.7,15.7,0,0,1,7.39-.11.93.93,0,0,0,1.15-.7.91.91,0,0,0-.69-1.15,18.49,18.49,0,0,0-8.43.11,1,1,0,0,0-.69,1.16A1.23,1.23,0,0,0,623.89,511.47Z" style="fill:#fff"/><path d="M625.74,517.82H626a15.65,15.65,0,0,1,7.38-.11,1,1,0,0,0,.47-1.85,18.49,18.49,0,0,0-8.43.11,1,1,0,0,0-.69,1.16A1.38,1.38,0,0,0,625.74,517.82Z" style="fill:#fff"/><path d="M627.35,521.17h.23a15.7,15.7,0,0,1,7.39-.11.93.93,0,0,0,1.15-.7.91.91,0,0,0-.69-1.15,18.44,18.44,0,0,0-8.42.11,1,1,0,0,0-.7,1.16C626.66,520.83,627,521.17,627.35,521.17Z" style="fill:#fff"/><path d="M656.21,309.14h0a9.09,9.09,0,0,0-.12,1.74,12.13,12.13,0,0,1-7-.7c-4.38-1.61-7.85-5.19-10.27-8.77a40.2,40.2,0,0,1-2.89-4.85c-1.27-2.54-2-4.39-2.07-4.62a.8.8,0,1,1,1.5-.58,40,40,0,0,0,2.07,4.62,50.29,50.29,0,0,0,2.66,4.5c2.31,3.35,5.54,6.59,9.46,8.09A11.07,11.07,0,0,0,656.21,309.14Z" style="fill:#2b2b39"/><path d="M669.71,215a11.72,11.72,0,0,1-.11,2c-.81,5.31-1.5,6.93-1.73,10.74-.12,1.73-.58,3.81-.81,5.54-.12,1.5-.46,3.35-.81,5.55s-.81,5-1.27,8c-.12,1-.35,2.08-.46,3.12,0,.35-.12.58-.12.93-.11.57-.11,1.15-.23,1.73V256c-.81,6-1.27,11.78-1.73,16.29,0,.34-.12.57-.12.92a26.64,26.64,0,0,1-1.26,6h-.81l-.93.47h-.11c-2.43,1-4.85,1.84-7.27,2.65a79.36,79.36,0,0,1-8.66,2c-.58.11-1,.11-1.62.23h-.11c-1.85.23-3.58.46-5.43.57-.69,0-1.38.12-2,.12-2.42.11-4.84.11-7.15,0h-.81c-2.66-.12-5.31-.46-7.85-.81-.23,0-.58-.11-.81-.11h-.11c-.46-.12-.81-.12-1.27-.24-1.39-.23-2.77-.57-4.16-.8l-1.38-.35a72.18,72.18,0,0,1-14.08-5.08c-.35-.12-.58-.35-.93-.46l-.69-.35a.12.12,0,0,1-.12-.12,43.37,43.37,0,0,1-3.92-2.31c-.11,0-.11-.11-.23-.11a32,32,0,0,1-4.5-3.47c.34-2.19.81-4.61,1.15-6.92a6.58,6.58,0,0,0,.23-1.51c.23-1.38.47-2.77.7-4,.57-2.65,1-5.54,1.61-8.31v-.12c.12-.92.35-1.85.46-2.77.12-.58.23-1.15.35-1.73.92-5.31,1.73-10.39,2.42-14.44.12-.46.12-.92.23-1.38.12-.93.24-1.85.35-2.66.23-1.73.46-3.46.69-5.08s.35-3.23.58-4.73c.23-1.74.35-3.47.46-5.09.12-.92.12-1.73.23-2.65a3.82,3.82,0,0,1,.12-1.16V205.9c.11-1.38.11-2.65.11-3.92v-9.36c-.11-4.39-.46-8.2-.8-11.55,0-.34-.12-.8-.12-1.15-.81-7.28-1.85-12.13-1.73-15.48a6.58,6.58,0,0,1,.23-1.61,11.12,11.12,0,0,1,.69-2.31c.35-.7.69-1.27,1-1.85a11.93,11.93,0,0,1,5.89-3.81,2,2,0,0,1,.81-.23c.8-.23,1.5-.46,2.3-.7.23-.11.58-.11.81-.23a24.43,24.43,0,0,0,2.66-.8c.69-.24,1.38-.47,2-.7.23-.11.58-.23.81-.34s.57-.23.8-.35.7-.35,1-.46a14.31,14.31,0,0,0,4.74-4c.11-.24.34-.47.46-.7h20.08a28.44,28.44,0,0,0,3.35,2.2,5.69,5.69,0,0,1,.8.46c.12.11.35.11.47.23s.34.23.57.23.23.12.35.12a12.74,12.74,0,0,0,2.19.92c.7.23,1.5.58,2.31.81.23.11.46.11.81.23.58.12,1,.35,1.62.46.34.12.57.12.92.23l2.19.35a16.23,16.23,0,0,1,4,1.27,2.79,2.79,0,0,1,.81.46,12.15,12.15,0,0,1,2.42,1.85,6.37,6.37,0,0,1,1.16,1.27l1.38,1.73a19,19,0,0,1,1.5,2.66,8.72,8.72,0,0,0,.46.92c1.85,4.27,3,9.82,3.47,16.4.23,3.58.46,7,.69,10.51a4,4,0,0,0,.11,1.15c.12,1.27.12,2.54.24,3.81.11,2.31.23,4.62.34,6.93a5.41,5.41,0,0,0,.12,1.39c0,1,.11,2,.11,2.89v6.93A9.08,9.08,0,0,0,669.71,215Z" style="fill:#467b6c"/><path d="M657.71,154.4a52.58,52.58,0,0,1-4,4.62,35.4,35.4,0,0,1-5,4.15c-1.62,1.16-3.7,2.31-5.78,2-3.8-.7-4.27-5.43-4.15-8.55a23.62,23.62,0,0,1,2-8,7.82,7.82,0,0,1,.81.46,21.19,21.19,0,0,0-1.85,7c-.34,3.58.46,9.58,5.54,8a18.69,18.69,0,0,0,5.43-3.58,43.87,43.87,0,0,0,4-3.93,23.46,23.46,0,0,0,2.19-2.66A4.83,4.83,0,0,1,657.71,154.4Z" style="fill:#5fa68d"/><path d="M656,278.08c.23,0,.34-.12.46-.35,13.39-48.85,5.19-99.43,5.08-100,0-.23-.23-.34-.46-.34s-.35.23-.35.46c.11.46,8.31,50.93-5.08,99.66C655.52,277.85,655.63,278.08,656,278.08Z" style="fill:#253f3d"/><path d="M607.62,123.79s-4.27.58-5.31-2.54,2.65-5.66-1.62-9-8.08-10.63-2.88-14.56,6.92,2.55,11.19-2.54,7.39-5.65,11.2-5.65c4,0,7.38,5,13,4.61s9.81,7,7.5,10.86c-2.77,4.85-1.85,3.58-1.61,8s-3,7.62-6.47,7.16C629.43,119.64,607.62,123.79,607.62,123.79Z" style="fill:#2b2b39"/><path d="M637.74,145c-.69,3.58-6.12,7.86-9.12,8.89a17.1,17.1,0,0,1-13.16-.8l-.57-7-.12-1.38-.23-2.78,16.16-12.7.92-.69.58-.46.23.57.35.7-.12.34C634.51,136.38,634.86,140.42,637.74,145Z" style="fill:#e9a48e"/><path d="M615.23,150.82c6.7-2.2,10-7.74,11.43-11.32-3.12,3-7,5.08-10.73,5.08a4.15,4.15,0,0,1-1.16-.11Z" style="fill:#2b2b39"/><path d="M605,122.06a2.9,2.9,0,0,0-2.19,3c-.12,2.66,1.61,7.05,4.15,6.24S605,122.06,605,122.06Z" style="fill:#b6665e"/><path d="M633.12,130.26a1.71,1.71,0,0,0-.23.69.45.45,0,0,1-.11.35,5.9,5.9,0,0,1-.46,1.27c-2.43,6.7-10.39,13.74-17.2,13.4-.46,0-.81-.12-1.16-.12-6.69-1-8.88-8.43-8.54-14.09v-.69a7.43,7.43,0,0,0-.11-1c-.12-.58-.12-1.27-.23-2.08-.35-2.54-.93-6.35-1.73-10.16-1.39-6.58,2.3-16.63,15.58-19.86,10.62-2.55,16.39,3,18.35,8.89a21.17,21.17,0,0,1,.81,4.39,27.58,27.58,0,0,1-.7,5.89c1.27,0,2.66.57,3.58,2.77C642.59,123.91,637.86,129.45,633.12,130.26Z" style="fill:#e9a48e"/><path d="M637.39,117a13.31,13.31,0,0,1-3.92,2l-2.65,3.58-3.12-1.84s1.27-4.05-.92-5.32-1.27-3.81-1.27-3.81,8.54-5,11.88-4.85a19.93,19.93,0,0,1,.81,4.39A36.24,36.24,0,0,1,637.39,117Z" style="fill:#2b2b39"/><path d="M603.11,110.05s9-6.93,14.66-4.85a15.53,15.53,0,0,1,7.85,6.35s10.5,1.39,12.7-1.38S636.82,97,628.74,95.5,608.89,97.12,603.11,110.05Z" style="fill:#2b2b39"/><path d="M607.62,123.91c.23.92.69,1.62,1.15,1.5s.69-.92.58-1.85-.69-1.61-1.16-1.5S607.5,123,607.62,123.91Z" style="fill:#2b2b39"/><path d="M610.5,122.75h0c.23-.23.12-.34,0-.46s-2.54-1.38-4.38.23a.22.22,0,0,0,0,.35.21.21,0,0,0,.34,0c1.62-1.39,3.81-.23,3.81-.23S610.39,122.75,610.5,122.75Z" style="fill:#2b2b39"/><g style="opacity:0.5"><g style="opacity:0.5"><g style="opacity:0.5"><g style="opacity:0.5"><g style="opacity:0.5"><g style="opacity:0.5"><path d="M618,127.14c.12.58,1.74.93,3.7.7s3.46-.93,3.34-1.62-1.73-.93-3.69-.69S618,126.45,618,127.14Z" style="fill:#b6665e;opacity:0.5;isolation:isolate"/></g></g></g></g></g></g><g style="opacity:0.5"><g style="opacity:0.5"><g style="opacity:0.5"><g style="opacity:0.5"><g style="opacity:0.5"><g style="opacity:0.5"><path d="M605.42,129.91c1.27-.34,2.2-.92,2.2-1.38s-1-.81-2.43-.81C605.31,128.64,605.42,129.45,605.42,129.91Z" style="fill:#b6665e;opacity:0.5;isolation:isolate"/></g></g></g></g></g></g><path d="M629.55,129.91a2.83,2.83,0,0,0,1.15.93,5,5,0,0,0,2.08.46.45.45,0,0,1,.11-.35,1.4,1.4,0,0,0,.12-.69h-.46a3.06,3.06,0,0,1-.93-.11,3,3,0,0,1-1.38-.81.55.55,0,0,0-.69-.12A.7.7,0,0,0,629.55,129.91Z" style="fill:#b6665e"/><path d="M614.08,145.74a4.12,4.12,0,0,0,1.15.11c6.93.35,14.78-6.7,17.2-13.4a2.22,2.22,0,0,0-1.73-1.73v-8.31l-3.12-1.85s-1.84,7.62-4.38,8.2-8.54.23-10.85,2c0,0-4.27-1-6.81.81C605.19,137.31,607.39,144.7,614.08,145.74Z" style="fill:#2b2b39"/><path d="M617.31,130.72s.46,4.51-3.23,5.2a3.81,3.81,0,0,1-4.62-2.77Z" style="fill:#fff"/><path d="M615.12,137.54a2.09,2.09,0,0,0,1-.81c.11-.12,0-.35-.12-.46s-.34,0-.46.11a1.48,1.48,0,0,1-1.38.58.3.3,0,0,0-.35.35c0,.23.11.34.35.34A3,3,0,0,0,615.12,137.54Z" style="fill:#5f5f75"/><path d="M633.82,126.68c.23-.11.34-.23.34-.46.12-3.58,4-5.66,4-5.78a.55.55,0,0,0,.23-.69.56.56,0,0,0-.69-.23c-.23.12-4.5,2.43-4.62,6.58a.76.76,0,0,0,.47.58Z" style="fill:#b6665e"/><path d="M637.86,124.14c.11,0,.11,0,.11-.12a.55.55,0,0,0,.12-.69,3.44,3.44,0,0,0-3.23-1,.44.44,0,0,0-.35.58.45.45,0,0,0,.58.35,2.79,2.79,0,0,1,2.3.69A.47.47,0,0,0,637.86,124.14Z" style="fill:#b6665e"/><path d="M611.89,129.68a.25.25,0,0,0,.23-.23.56.56,0,0,0-.23-.69L609,127.14l2.31-1c.12-.11.23-.23.23-.34l1.85-6.12a.45.45,0,0,0-.35-.58.44.44,0,0,0-.58.35l-1.73,5.88-3,1.39c-.23.12-.23.23-.34.46a.57.57,0,0,0,.23.46l3.81,2.2C611.66,129.8,611.77,129.8,611.89,129.68Z" style="fill:#b6665e"/><path d="M620,118.37c.23-.12.34-.23.57-.35a1.43,1.43,0,0,0,0-2c-.11-.12-3.23-3.12-6.92-1.27a1.39,1.39,0,0,0,1.15,2.54c2-.93,3.81.8,3.81.8A2,2,0,0,0,620,118.37Z" style="fill:#2b2b39"/><path d="M605.77,120.21a1.39,1.39,0,0,0,.81-.8c.46-1,2.31-1.39,2.77-1.39a1.39,1.39,0,0,0,0-2.77c-1.5,0-4.39.69-5.31,3.12a1.37,1.37,0,0,0,.81,1.73A2.32,2.32,0,0,0,605.77,120.21Z" style="fill:#2b2b39"/><path d="M615.81,122.41c.23.92.69,1.61,1.16,1.5s.69-.92.57-1.85-.69-1.62-1.15-1.5S615.7,121.48,615.81,122.41Z" style="fill:#2b2b39"/><path d="M619.27,121.6a.12.12,0,0,0,.12-.12c.11-.11,0-.23,0-.34a4,4,0,0,0-4.39-.23.42.42,0,0,0-.11.34.4.4,0,0,0,.34.12c1.74-1.16,3.81.23,3.81.23Z" style="fill:#2b2b39"/><path d="M708.38,222.76a19.31,19.31,0,0,1-.7,3.24c-.46,1.38-.92,2.54-1.38,3.58-.12.34-.35.69-.46,1-.35.69-.69,1.27-1,2a4.24,4.24,0,0,0-.46.81c-.12.23-.35.57-.46.81-1.39,2.07-2.66,3.92-4.16,5.77s-2.77,3.46-4.27,5.08c-.69.81-1.5,1.62-2.19,2.31s-1.5,1.5-2.31,2.31-1.5,1.5-2.31,2.19c-.35.35-.81.7-1.15,1l-1.27,1.16a8.82,8.82,0,0,1-9.47,1.38,8.71,8.71,0,0,1-4.27-11.54l.58-1.27a.39.39,0,0,1,.11-.23l.24-.35.34-.58.69-1.27,1.5-2.42c.47-.81.93-1.62,1.5-2.43l1.39-2.42c.92-1.62,1.85-3.24,2.65-4.85s1.5-3.12,2.08-4.62c.12-.12.12-.35.23-.47a6.11,6.11,0,0,1-.69-.92,24.48,24.48,0,0,0-1.62-2.08c-.92-1.15-2-2.31-3-3.58a4.84,4.84,0,0,1-.69-.81l-.11-.11c-1.16-1.39-2.43-2.89-3.7-4.28s-2.54-2.88-3.92-4.38c-.23-.23-.35-.47-.58-.7-2.42-2.77-4.85-5.42-7.39-8.2l-8-8.77V189l-.58-.69-3.46-3.81-1-1.27c.23-.81.58-1.73.81-2.54.12-.35.23-.81.35-1.16.57-1.73,1.27-3.46,1.84-5.08.12-.23.12-.35.23-.58a1.57,1.57,0,0,0,.23-.69c1.27-3.35,2.54-6.7,3.81-9.93.7-1.85,1.39-3.58,2.08-5.43l.35-1a14.45,14.45,0,0,1,2.31.58,11,11,0,0,1,3.92,2.19c.23.23.46.35.69.58a10.57,10.57,0,0,1,1.16,1.16c.69.8,1.38,1.5,2.07,2.31s1.39,1.5,2,2.31l2,2.3,1.84,2.2.12.11c.23.24.35.47.58.7,2.42,2.88,4.84,5.77,7.27,8.77s5.08,6.36,7.62,9.59a9.21,9.21,0,0,1,.92,1.27c.23.23.46.58.69.81.69.92,1.39,1.85,2.19,2.77.93,1.27,2,2.54,2.89,3.81a4.72,4.72,0,0,1,.58.81,1.52,1.52,0,0,1,.34.46c1.27,1.73,2.43,3.47,3.7,5.31.57.93,1.27,1.85,1.84,2.89s1.27,2.08,2,3.35l.23.46.23.46.23.58.34.69a4.89,4.89,0,0,1,.35.81c.12.35.23.58.35.93l.11.23.12.34.11.35.12.35c.11.46.23,1,.35,1.61A10.93,10.93,0,0,1,708.38,222.76Z" style="fill:#467b6c"/><path d="M601.15,171.37a30.59,30.59,0,0,1-6.23,9.93c0-.34-.12-.8-.12-1.15a30.39,30.39,0,0,0,5.31-8.43,23.57,23.57,0,0,0,.81-16.63,2.07,2.07,0,0,1,.81-.23A25.36,25.36,0,0,1,601.15,171.37Z" style="fill:#5fa68d"/><path d="M666,160.29c-.23.57-.58,1.15-.81,1.73-.23.35-.35.58-.58.92a31.55,31.55,0,0,1-12.35,11.67,22.47,22.47,0,0,1-2.31,1c-7.5,3.23-15.92,3.23-23.89,3.92s-15.69,2.54-22.39,7.16a36.58,36.58,0,0,0-7.85,7.28v-1.27a38,38,0,0,1,7.16-6.47c6-4.27,12.81-6.35,20.08-7.28,8.31-1,17-.69,24.93-3.46a32,32,0,0,0,4.85-2.19,31.05,31.05,0,0,0,11.43-11.44c.11-.23.34-.57.46-.81l.69-1.38Z" style="fill:#5fa68d"/><path d="M594.92,174.14c0,.35.23,2.66.58,5.89,0,.47.11,1,.11,1.51.35,5.19.81,12.24.69,17.55a.49.49,0,0,1-.92.23c.12-5.31-.23-12.47-.69-17.78v-.12c-.35-4.16-.58-7.16-.58-7.16,0-.23.12-.46.35-.46S594.92,173.91,594.92,174.14Z" style="fill:#253f3d"/><path d="M626.43,171.6a70.58,70.58,0,0,1-.58-11.78,36.15,36.15,0,0,1,1.5-8.43s7-3.11,9.35-8c0,0,7.62,1.84,8.54,7.16C645.24,150.59,635.66,167.91,626.43,171.6Z" style="fill:#253f3d"/><path d="M615,147.47s-4.73-.58-4.73,5.89c-.11,12.7,8.2,16.28,8.2,16.28l1.73-6.58a39.38,39.38,0,0,0,1.15-9.93C621.35,153,615.12,152.66,615,147.47Z" style="fill:#253f3d"/><path d="M624.24,162.13a1.39,1.39,0,1,1-1.39-1.38A1.34,1.34,0,0,1,624.24,162.13Z" style="fill:#253f3d"/><path d="M623.77,167.45a1.39,1.39,0,0,1-1.38,1.38,1.39,1.39,0,1,1,0-2.77A1.48,1.48,0,0,1,623.77,167.45Z" style="fill:#253f3d"/><path d="M623.66,172.3a1.4,1.4,0,0,1-1.39,1.38,1.33,1.33,0,0,1-1.38-1.38,1.39,1.39,0,1,1,2.77,0Z" style="fill:#253f3d"/><path d="M623.77,203.36c-.46,3.35-4.27,5.66-6.57,7.62-8.08,6.82-16.05,13.75-24.13,20.56.12-.46.12-.92.23-1.39,1.39-1.27,2.89-2.42,4.27-3.69,5.78-4.85,11.43-9.82,17.2-14.67l4.5-3.81a12.65,12.65,0,0,0,3.12-3.46c1-2,.35-4.05-1.85-4.51a10.19,10.19,0,0,0-4.15.12,61.59,61.59,0,0,0-20.78,8.43v-1a68.61,68.61,0,0,1,6.35-3.47,66.19,66.19,0,0,1,9-3.46c2.89-.81,6.24-2,9.24-1.5C622.39,199.55,624.12,201.05,623.77,203.36Z" style="fill:#5fa68d"/><path d="M654.71,178c-6.12,2.31-12.35,5.31-16.39,10.62-3.7,4.73-5.54,11.09-3.12,16.86a13.49,13.49,0,0,0,4.62,5.89c2.19,1.62,4.61,2,7.27,2.19,3,.24,7.16.81,7.27,4.62.12,3.12-2.19,5.89-2.54,9-.58,5.43,5.31,10,10.5,8.43.58-.11.35-1-.23-.81a7.06,7.06,0,0,1-7.5-2.19c-2.08-2.2-2.19-4.85-1.27-7.62.81-2.31,2.31-4.85,1.85-7.51a5.29,5.29,0,0,0-3.35-3.93c-2.31-.92-5-.69-7.39-1.15a10.7,10.7,0,0,1-6.8-4.39c-3.81-5.08-3.12-11.66,0-16.86,3.8-6.35,10.61-9.82,17.31-12.36C655.4,178.65,655.17,177.84,654.71,178Z" style="fill:#5fa68d"/><path d="M664.4,250c0,.34-.11.57-.11.92a21.9,21.9,0,0,1-8.2-.92,19.11,19.11,0,0,1-8.08-5c-2.77-2.89-4.5-6.58-6.35-10.05s-3.8-7.27-7-9.93c-3.69-3.12-8.19-3.46-12.69-1.85-4.16,1.51-8.08,4.16-11.77,6.7A112.11,112.11,0,0,0,600,237.78a110.79,110.79,0,0,0-9.7,9.81c.12-.58.23-1.15.35-1.73a99.36,99.36,0,0,1,10.62-10.39,116.49,116.49,0,0,1,9.81-7.39c3.58-2.31,7.27-4.74,11.31-6a13.48,13.48,0,0,1,11,.92c3.12,1.85,5.43,5,7.28,8.09,2.07,3.58,3.57,7.39,6,10.85a18.45,18.45,0,0,0,9,6.93A20.72,20.72,0,0,0,664.4,250Z" style="fill:#5fa68d"/><path d="M660.25,279.7l-.93.46c-6.46-4.39-14.31-7.28-22.16-5.08-4.15,1.15-8.88,3.92-9.92,8.31a7.53,7.53,0,0,0-.23,2.2h-.81c-.23-3.35,2-6.36,4.5-8.32a20,20,0,0,1,10.5-3.81C648,272.88,654.59,275.77,660.25,279.7Z" style="fill:#5fa68d"/><path d="M618.23,284.78c-.23,0-.57-.12-.8-.12h-.12c2.54-3.92,5-9,4-13.51a6.42,6.42,0,0,0-6.35-5.08c-3-.12-5.88,1.27-8.54,2.66a41,41,0,0,0-11,9l-.7-.34a.11.11,0,0,1-.11-.12,14.72,14.72,0,0,1,1.15-1.27,36.85,36.85,0,0,1,14.43-9.93c5-1.73,11.2-.35,12,5.66C622.85,276,620.77,280.85,618.23,284.78Z" style="fill:#5fa68d"/><path d="M662.32,272.42c0,.35-.11.58-.11.92a31.65,31.65,0,0,1-8-2c-7.16-2.89-11.78-8.78-16.74-14.43a42.46,42.46,0,0,0-8.2-7.63,18.58,18.58,0,0,0-12.58-2.77c-5,.7-9.46,2.89-13.73,5.43a77.63,77.63,0,0,0-10.73,7.62c-1.74,1.5-3.47,3.12-5.08,4.74a7.18,7.18,0,0,0,.23-1.5,69.92,69.92,0,0,1,6.23-5.55c6.69-5.31,14.89-10.74,23.55-11.78,8.19-.92,14.42,3.58,19.73,9.36s10,12.58,17.78,15.59A24.61,24.61,0,0,0,662.32,272.42Z" style="fill:#5fa68d"/><path d="M692.33,191.81c-5.65.23-11.19-.92-15.12-5.31-4.27-4.73-3.92-10.51-2.07-15.94l.11.12c.23.23.35.46.58.69-1.62,5.2-1.85,10.51,2.31,14.78,3.69,3.82,8.54,5,13.62,4.85A8,8,0,0,0,692.33,191.81Z" style="fill:#5fa68d"/><path d="M679,204.4a21.8,21.8,0,0,0-10.16-14.67,14.7,14.7,0,0,0-3.93-1.61,17.42,17.42,0,0,0-10.85.23l.7.69a16.39,16.39,0,0,1,14.08,2,21.45,21.45,0,0,1,7.62,8.67,25,25,0,0,1,1.38,15.82l.12.11a4.84,4.84,0,0,1,.69.81A28.36,28.36,0,0,0,679,204.4Z" style="fill:#5fa68d"/><path d="M704.8,232.46a4.58,4.58,0,0,0-.46.81,27.17,27.17,0,0,1-10-14.9,26.5,26.5,0,0,1,3-19.86,4.72,4.72,0,0,1,.57.81,25.5,25.5,0,0,0-2.65,18.82A25,25,0,0,0,704.8,232.46Z" style="fill:#5fa68d"/><path d="M701.45,237.43c-.57.81-1.15,1.62-1.73,2.31-1.38,1.73-2.88,3.46-4.27,5.08-.69.81-1.5,1.62-2.19,2.31s-1.5,1.5-2.31,2.31-1.5,1.5-2.31,2.19c-.35.35-.81.7-1.15,1l-1.27,1.16a8.82,8.82,0,0,1-9.47,1.38,8.71,8.71,0,0,1-4.27-11.54l.58-1.27a.43.43,0,0,1,.11-.24l.24-.34.34-.58.69-1.27,1.5-2.43c.47-.8.93-1.61,1.5-2.42s.93-1.62,1.39-2.43c.92-1.61,1.85-3.23,2.65-4.85.24-.46.47-.92.7-1.27.34-.8.69-1.5,1-2.19l.11-.12C697.18,228.19,701.45,237.2,701.45,237.43Z" style="fill:#e9a48e"/><path d="M682.18,226.46s12.81,3.35,17.54,13.28a1.92,1.92,0,0,0,1.73-2.31s-4.15-9.24-18.12-13.28A2.22,2.22,0,0,0,682.18,226.46Z" style="fill:#253f3d"/><path d="M708.38,222.76a19.31,19.31,0,0,1-.7,3.24c-.46,1.38-.92,2.54-1.38,3.58-4.27-5.55-2.31-13.05-.35-18l.23.46.23.58c.12.23.24.46.35.69a5.91,5.91,0,0,1,.35.81c.11.35.23.58.34.93l.12.23.11.34.12.35.12.35c.11.57.23,1,.34,1.61A17.64,17.64,0,0,1,708.38,222.76Z" style="fill:#253f3d"/><path d="M683.91,222.3c.23,0,.34-.11.46-.35a42.19,42.19,0,0,1,4.85-9c.23-.23.11-.58-.12-.81a.57.57,0,0,0-.81.11c-2.42,3.12-4.84,9-5,9.24a.53.53,0,0,0,.35.7C683.79,222.3,683.79,222.3,683.91,222.3Z" style="fill:#253f3d"/><path d="M685.41,219.18h0c.35-.11.58-.34.46-.69l-.81-3.81c0-.35-.34-.46-.57-.46s-.47.34-.47.57l.81,3.82A.54.54,0,0,0,685.41,219.18Z" style="fill:#253f3d"/><path d="M663.13,199.67a.42.42,0,0,0,.35-.12.43.43,0,0,0,0-.69s-4.85-5.66-9.7-11c-.23-.23-.57-.23-.69,0s-.23.57,0,.69c4.73,5.31,9.58,10.86,9.7,10.86C662.9,199.67,663,199.67,663.13,199.67Z" style="fill:#253f3d"/><path d="M653.09,192.16h3.46c.23,0,.58-.23.58-.46s-.23-.58-.46-.58h-3.46c-.23,0-.58.23-.58.46A.53.53,0,0,0,653.09,192.16Z" style="fill:#253f3d"/><path d="M651.24,251.52c-.11,1.5,3.58.92,6.12,1s3.7-.23,5.77.23a12.84,12.84,0,0,0-3.81.92,7.94,7.94,0,0,1-1.38.7,19.54,19.54,0,0,0-3.35,2c-.81.81,1.73,2.08,4.27,1.38a23.42,23.42,0,0,0,3.58-1.27,3.54,3.54,0,0,1,1-.23,1.9,1.9,0,0,1,.81.12,3,3,0,0,0-.81.46c-.35.23-.92.46-1.39.81-.23.23-.57.35-.8.58-1.16.8-3.12,3.81-2.08,4.5a1.65,1.65,0,0,0,.81.12,27.87,27.87,0,0,0,3.34-1.27,10,10,0,0,1,3.12-.93,100.46,100.46,0,0,0,11.43-.58A11,11,0,0,0,684.6,257a5.08,5.08,0,0,0,1.5-2.78,9.36,9.36,0,0,0-.11-4.38c-1.16-4-3.35-7.28-8.08-8.2a3.92,3.92,0,0,0-.58-.23,22.07,22.07,0,0,0-5.77-2.2c-2.43-.34-5.77,1-5.77,1l-.58,3.58s-.69-.46-3.69-.58a10.22,10.22,0,0,0-2,.12c-.46.11-.92.23-1.26.35-1.62.46-3,1.15-3.93,1.38-1.5.46.23,2.43,2.66,2.43a17.77,17.77,0,0,1,5,.46c.11,0,.34.11.46.11h-.35a14.61,14.61,0,0,0-4.61.58C655.52,249.21,651.36,250,651.24,251.52Z" style="fill:#e9a48e"/><path d="M673.75,240.32s7.5,3.92,12.24,14c0,0,3-.46,2.65-2.66,0,0-4.15-9.23-13.73-13.62A2.11,2.11,0,0,0,673.75,240.32Z" style="fill:#253f3d"/><path d="M476.5,466.2h-9.69a1,1,0,0,1-1-1V424.05h11.77v41.11A1,1,0,0,1,476.5,466.2Z" style="fill:#2b2b39"/><path d="M506.86,514.36v7.5h-5.43v-3.34a1.78,1.78,0,0,0-1.73-1.74H476.38a1.54,1.54,0,0,0-1.5,1.5V522h-6.34v-3.7a1.54,1.54,0,0,0-1.5-1.5h-23.2a1.77,1.77,0,0,0-1.73,1.74v3.34h-5.43v-7.5a3.11,3.11,0,0,1,3.12-3.12h28.74V414.12h6.34v97.12h29A3.17,3.17,0,0,1,506.86,514.36Z" style="fill:#2b2b39"/><path d="M447.53,526.71a8.08,8.08,0,1,1-8.08-8.08A8.1,8.1,0,0,1,447.53,526.71Z" style="fill:#2b2b39"/><path d="M439.45,531.45a4.62,4.62,0,1,1,4.62-4.62A4.63,4.63,0,0,1,439.45,531.45Z" style="fill:#5f5f75"/><path d="M479.85,526.71a8.08,8.08,0,1,1-8.08-8.08A8.11,8.11,0,0,1,479.85,526.71Z" style="fill:#2b2b39"/><path d="M471.77,531.45a4.62,4.62,0,1,1,4.62-4.62A4.63,4.63,0,0,1,471.77,531.45Z" style="fill:#5f5f75"/><path d="M512.28,526.71a8.08,8.08,0,1,1-8.08-8.08A8.1,8.1,0,0,1,512.28,526.71Z" style="fill:#2b2b39"/><path d="M504.09,531.45a4.62,4.62,0,1,1,4.61-4.62A4.48,4.48,0,0,1,504.09,531.45Z" style="fill:#5f5f75"/><path d="M572,275.08,537.56,418.85a10.38,10.38,0,0,1-10,7.86H446.61a10.32,10.32,0,0,1-10-12.82l35.2-143.66a10.37,10.37,0,0,1,10-7.86h80.1A10.28,10.28,0,0,1,572,275.08Z" style="fill:#5f5f75"/><path d="M563.06,275.08,528.55,418.74a10.35,10.35,0,0,1-10,7.85H437.6a10.33,10.33,0,0,1-10-12.82l35.21-143.66a10.35,10.35,0,0,1,10-7.85h80.1A10.42,10.42,0,0,1,563.06,275.08Z" style="fill:#2b2b39"/><path d="M518.63,419.66H437.72a3.13,3.13,0,0,1-2.54-1.27,3.25,3.25,0,0,1-.58-2.77L469.81,272a3.23,3.23,0,0,1,3.23-2.54h80.1a3.15,3.15,0,0,1,2.54,1.27,3.28,3.28,0,0,1,.58,2.77L521.74,417.12A3.19,3.19,0,0,1,518.63,419.66ZM472.92,270.34a2.36,2.36,0,0,0-2.31,1.85l-35.2,143.66a2.55,2.55,0,0,0,.46,2.08,2.35,2.35,0,0,0,1.85.92h80.91a2.36,2.36,0,0,0,2.31-1.84l34.51-143.67a2.52,2.52,0,0,0-.46-2.07,2.37,2.37,0,0,0-1.85-.93Z" style="fill:#5f5f75"/><path d="M389.36,431H525.21a11.51,11.51,0,0,0,11.31-9l1.84-7.85H393.28Z" style="fill:#5f5f75"/><path d="M391.32,431H516.67A11.51,11.51,0,0,0,528,422l1.84-7.85H391.32a8.43,8.43,0,0,0,0,16.86Z" style="fill:#2b2b39"/><path d="M350,498.08l-3.46,8.43-14.66-3.93,3.58-8.55Z" style="fill:#c1725c"/><path d="M290.56,516.09l53.32,14.55a8.75,8.75,0,0,0,1.5-2.77c1.5-4.39,2.08-12,2.54-16.75a6.21,6.21,0,0,1,.23-1.5,18.09,18.09,0,0,1,.35-1.84c1-3.7-2.42-3.93-2.42-3.93-6.81,3.81-10.74-5.77-15-4.16,0,0-1.84.69-7,3.35s-13.16,3.23-20,4.16c-8.77,1.15-11.88,3.81-13,6A3.67,3.67,0,0,0,290.56,516.09Z" style="fill:#467b6c"/><path d="M290.56,516.09l53.32,14.55a8.75,8.75,0,0,0,1.5-2.77L290.91,513A4.49,4.49,0,0,0,290.56,516.09Z" style="fill:#253f3d"/><path d="M338.34,529.26l1.62.46a12.42,12.42,0,0,1-.58-9.36,15.55,15.55,0,0,1,8.54-9.12,6.06,6.06,0,0,1,.23-1.5A16.63,16.63,0,0,0,338.23,520,13.2,13.2,0,0,0,338.34,529.26Z" style="fill:#253f3d"/><path d="M323.92,506.39a1,1,0,0,0,1-.46.92.92,0,0,0-.34-1.27l-3.12-1.73a.92.92,0,0,0-1.27.34.93.93,0,0,0,.35,1.27l3.12,1.73C323.8,506.27,323.8,506.27,323.92,506.39Z" style="fill:#fff"/><path d="M327.73,504.66a1,1,0,0,0,1-.46.93.93,0,0,0-.34-1.27l-3.12-1.74a.93.93,0,1,0-.92,1.62l3.11,1.73A.37.37,0,0,0,327.73,504.66Z" style="fill:#fff"/><path d="M320,507.31a1,1,0,0,0,1-.46.92.92,0,0,0-.35-1.27l-3.11-1.73a.93.93,0,0,0-.93,1.62l3.12,1.73A.37.37,0,0,0,320,507.31Z" style="fill:#fff"/><path d="M316.18,508.35a1,1,0,0,0,1-.46.93.93,0,0,0-.34-1.27l-3.12-1.73a.93.93,0,0,0-.92,1.62l3.11,1.73A.39.39,0,0,1,316.18,508.35Z" style="fill:#fff"/><path d="M312.14,509.05a1,1,0,0,0,1-.47.93.93,0,0,0-.34-1.27l-3.12-1.73a.93.93,0,1,0-.92,1.62l3.11,1.73C312,509.05,312,509.05,312.14,509.05Z" style="fill:#fff"/><path d="M307.76,509.51a1,1,0,0,0,1-.46.93.93,0,0,0-.35-1.27L305.33,506a.93.93,0,1,0-.92,1.62l3.12,1.73C307.64,509.39,307.76,509.39,307.76,509.51Z" style="fill:#fff"/><path d="M437.14,366.19s-65.67,16.63-74.44,24.14S334.3,489,334.19,494c0,.47,17.08,5.32,17.08,5.32s33.7-70.56,35.55-80.73c0,0,38.55-4.62,56.09-14.89s24-20.68,24-20.68Z" style="fill:#64474b"/><path d="M362,391.48c1.39,3,4.16,4.85,7,6.24.58.23,1-.58.47-.81-2.77-1.27-5.43-3-6.7-5.89C362.58,390.44,361.77,390.91,362,391.48Z" style="fill:#39252b"/><path d="M335.92,487.8a85.85,85.85,0,0,1,17,5.66c.57.23,1-.58.46-.81a100.22,100.22,0,0,0-17.2-5.78C335.57,486.87,335.34,487.68,335.92,487.8Z" style="fill:#39252b"/><path d="M351.27,492.07c9.7-20.21,19-40.53,27-61.44,2.19-5.66,4.15-11.31,6-17-.12.11-.35.23-.46.34,8.54-.23,17.08-1,25.39-3.58,6.7-2.08,13-5.08,19.39-8,.58-.23.12-1-.46-.8-6.35,2.88-12.58,5.89-19.16,7.85a97.5,97.5,0,0,1-25.16,3.58c-.23,0-.35.11-.46.35-6.81,21-15.7,41.45-25.05,61.43-2.54,5.66-5.19,11.2-8,16.75C350.23,492.19,351,492.65,351.27,492.07Z" style="fill:#39252b"/><path d="M401.59,297.25s-8.42,42.5-7.61,52.31,18.35,19.64,18.35,19.64l12.23-2.66s-5.65-16.86-10.27-21.71l7.73-37.3Z" style="fill:#c1725c"/><path d="M422.83,310.07a16.49,16.49,0,0,1-4,.58h-.92c-5.2-.24-10.16-3-14-5.78a2.73,2.73,0,0,1-.69-.58,56.72,56.72,0,0,1-6.93-6.35c.47-.92.93-2,1.39-3,.11-.23.23-.58.35-.81,2.07-5.2,4-11.66,5.77-17.55.11-.35.23-.69.34-1,2.43-8.66,4-15.82,4-15.82Z" style="fill:#6059c9"/><path d="M409.21,285.47c-.23-2.66-1.73-4.85-3.23-7-.69-.93-1.39-1.85-2.19-2.78-.12.35-.23.7-.35,1,.58.81,1.15,1.62,1.73,2.31,2.31,3.47,4.39,7.39,2,11.44-1.84,3.11-5.88,4.38-9.35,3.69-.11.23-.23.58-.34.81a10.11,10.11,0,0,0,9.23-2.54A8.84,8.84,0,0,0,409.21,285.47Z" style="fill:#9f9ffb"/><path d="M412.44,301.41c-3.69-1.5-7,.23-9.35,2.88.23.24.47.35.7.58a7.22,7.22,0,0,1,6.92-3c4.39.81,6.23,4.73,7,8.78h.92C418,306.72,416.37,302.91,412.44,301.41Z" style="fill:#9f9ffb"/><path d="M500.16,361.8h0a1.79,1.79,0,0,1-.69.93c-2.66,2.42-11.54,4.85-22.28,6.7-.46.11-.81.11-1.27.23-3.92.69-8.19,1.15-12.35,1.61-.34,0-.69.12-1,.12-18.46,1.73-37,.92-37.51-5.77,0-.81-.11-1.51-.11-2.31,0-.35-.12-.81-.12-1.16-.23-2.54-.34-5.08-.57-8.08a3.82,3.82,0,0,0-.12-1.16c-.23-3.92-.58-8.54-.92-14.43a4.56,4.56,0,0,0-.12-1.27c-.11-1.16-.11-2.43-.23-3.7,0-.81-.12-1.62-.12-2.42a3.32,3.32,0,0,0-.11-1,5.41,5.41,0,0,0-.12-1.39c-.11-2.66-.34-5.2-.57-7.74,0-.46-.12-.92-.12-1.38a92,92,0,0,0-2.88-17.32c-.12-.24-.12-.35-.24-.58s-.11-.35-.23-.58c-1-3.23-2.19-6.24-3.23-9.12-.23-.58-.34-1-.57-1.62-3-8.08-5.66-14.78-7.05-20.21a4.35,4.35,0,0,1-.23-1.15,19.33,19.33,0,0,1-.57-6.59,4,4,0,0,1,.23-1.15c.69-2.08,2.77-4.39,5.31-6.58.23-.23.57-.47.8-.7a104.78,104.78,0,0,1,13.28-9.12l19.85-9.12s8,.46,15.93,1.73a3.31,3.31,0,0,1,1,.23,52.92,52.92,0,0,1,9.58,2.43,8.36,8.36,0,0,1,.92.34c.58.23,1,.46,1.5.69,6.46,3.47,9.7,17.67,12.12,32.22.11.7.23,1.39.35,2.08.92,6.12,1.84,12.24,2.65,17.56.12.46.12.92.23,1.38.46,3,1,5.66,1.62,8,.69,2.66,1.38,5.54,2.19,8.66.12.46.23.93.35,1.39,2.65,10.16,5.54,22.29,6.46,32.8,0,.57.12,1.15.12,1.73C501.89,352.68,501.66,357.88,500.16,361.8Z" style="fill:#6059c9"/><path d="M412.56,254.41a26.81,26.81,0,0,0,12.12,6.35,31.85,31.85,0,0,0,25.5-5.55,41,41,0,0,0,13.28-17.67c-.35-.11-.69-.11-1-.23a42.28,42.28,0,0,1-4.5,8.32c-5.08,7.27-12.58,12.93-21.47,14.43-8.2,1.39-17-.57-23.08-6.23A1.92,1.92,0,0,0,412.56,254.41Z" style="fill:#9f9ffb"/><path d="M467,281c-.23-2.66-1.74-5-3.24-7.05-3-4.27-7.15-9.47-13-8.66-5.54.81-7.5,6.93-6.58,11.78s3.7,9.93,8.2,12.36a10.65,10.65,0,0,0,12.23-1.5A8.9,8.9,0,0,0,467,281Zm-2,4.85c-2.07,3.58-7,4.73-10.73,3.35-4.39-1.51-7.27-5.66-8.66-9.94s-1.27-11,3.81-12.93c5.89-2.19,10.62,3.81,13.62,7.85C465.42,277.85,467.5,281.77,465.07,285.82Z" style="fill:#9f9ffb"/><path d="M418.68,300.83c.11.23.11.35.23.58s.11.34.23.57c2.77-3.58,5.65-7.16,8.65-10.5a87.42,87.42,0,0,1,6.35-6.7c1.16-1,3.69-2.43,4.62-.23.58,1.27,0,3.11-.23,4.5a56.25,56.25,0,0,1-5.08,15.36,57.81,57.81,0,0,1-11.31,15c0,.46.11.93.11,1.39a65.63,65.63,0,0,0,5.54-5.89,56.19,56.19,0,0,0,8.66-14.32,45.41,45.41,0,0,0,2.65-8.55c.35-1.73.7-3.46.93-5.19a5.4,5.4,0,0,0-.35-3c-1.27-2.08-4-1.38-5.65,0a66.12,66.12,0,0,0-7.28,7.74A88.7,88.7,0,0,0,418.68,300.83Z" style="fill:#9f9ffb"/><path d="M422.83,329.82a3.12,3.12,0,0,0,.12,1,64.33,64.33,0,0,0,8.19-4.74c7.39-5,13.62-11.32,20-17.55,3.23-3.24,6.46-6.35,9.92-9.36,3.24-2.88,6.81-5.77,10.85-7.39,6.47-2.65,13.28-1.15,18.93,2.43-.11-.46-.11-.93-.23-1.39-5.77-3.35-12.58-4.62-18.93-2.08a35.13,35.13,0,0,0-10.15,6.7c-3.58,3.12-6.93,6.35-10.28,9.7C442.57,315.38,433.56,324.5,422.83,329.82Z" style="fill:#9f9ffb"/><path d="M476.38,330.62c3.81,2.2,8.08,3.47,12,5.43a39.09,39.09,0,0,1,9.58,6.82c1.27,1.27,2.42,2.54,3.58,3.92,0-.58-.12-1.15-.12-1.73-.69-.81-1.38-1.5-2.19-2.31a42.46,42.46,0,0,0-8.08-6.24c-3.46-2.07-7.16-3.35-10.85-5s-7.16-3.7-9.47-7.16a9.39,9.39,0,0,1,.12-10.86c5.19-7,15.47-5.54,22.28-2.19.57.23,1,.58,1.61.81-.11-.46-.23-.93-.34-1.39-.93-.46-2-.92-3-1.38-6.92-2.78-16.38-3.35-21.35,3.34S470.15,327,476.38,330.62Z" style="fill:#9f9ffb"/><path d="M467.5,360.42c2.65,3.23,5.54,6.24,8.54,9.24.46-.12.81-.12,1.27-.23-3-3-6-6.24-8.77-9.47-3.35-3.93-6.7-9.47-3.47-14.44,3.47-5.31,11-1.38,15.24.69a55,55,0,0,1,19.27,16.4,2.13,2.13,0,0,0,.7-.81A57.16,57.16,0,0,0,491,352a53,53,0,0,0-14.31-8.55c-2.65-1-5.54-2.08-8.31-1.5a7.38,7.38,0,0,0-4.85,4.39C461.26,351.64,464.15,356.61,467.5,360.42Z" style="fill:#9f9ffb"/><path d="M457.34,327c-.58,3.35-4.5,5.43-7,7.16-8.77,6.24-17.43,12.36-26.2,18.6a3.39,3.39,0,0,0,.12,1.15c4.61-3.23,9.11-6.47,13.73-9.7,3.35-2.31,6.58-4.73,9.93-7,1.73-1.27,3.46-2.43,5.19-3.7a21.37,21.37,0,0,0,3.58-2.89c1.73-1.84,2.77-4.73,1.15-6.92s-5-1.85-7.27-1.16a71.84,71.84,0,0,0-27.12,14.55,4.52,4.52,0,0,0,.11,1.27,74.15,74.15,0,0,1,10.39-7.5,67.84,67.84,0,0,1,16.62-7.16,8.22,8.22,0,0,1,4.73-.47A3.11,3.11,0,0,1,457.34,327Z" style="fill:#9f9ffb"/><path d="M424.79,362c0,.34.12.8.12,1.15,3-2.42,6-5,9.46-6.7a19.47,19.47,0,0,1,13.28-1.5,19.72,19.72,0,0,1,15,16.28c.35,0,.69-.11,1-.11A21.29,21.29,0,0,0,459,360.65a20.8,20.8,0,0,0-23.9-5.54C431.14,356.84,428,359.5,424.79,362Z" style="fill:#9f9ffb"/><path d="M437,253.37c-6,.11-10.85-3.7-11.08-3.81a.62.62,0,0,1-.12-.93.6.6,0,0,1,.92-.11c.12.11,5.66,4.38,11.78,3.46,3.46-.58,6.58-2.66,9.12-6.35a.6.6,0,0,1,.92-.12.61.61,0,0,1,.11.93c-2.77,3.92-6.11,6.23-10,6.81C438.07,253.25,437.6,253.37,437,253.37Z" style="fill:#9f9ffb"/><path d="M414.52,198.74s-6.35,5-5.19,9.7,6.34,9.93,6.34,9.93S417.17,206.83,414.52,198.74Z" style="fill:#39252b"/><path d="M415.21,215.49s-2.08.46-2.08,3.35,2.08,7.16,4.74,6.12S415.21,215.49,415.21,215.49Z" style="fill:#7d351d"/><path d="M426.87,246a18.53,18.53,0,0,0,4.85,2.77,11,11,0,0,0,5.42.57l.93-.11L439,249a15.1,15.1,0,0,0,2.88-1.16,14.3,14.3,0,0,0,6.47-6.35,20,20,0,0,0,2.19-5.08c-.35-.69-.81-1.5-1.15-2.19-1.62-3.47-3.12-7.16-4.62-11l.12-.34-.35-.69-.35-.58-.69.58-.92.8L426,236.74l.34,2.88.23,1.5.35,2.55Z" style="fill:#c1725c"/><path d="M444.88,222.07a6.91,6.91,0,0,0-.24.81.42.42,0,0,1-.11.34c-.12.47-.23.93-.35,1.39-2.07,7-9.81,14.9-16.85,15h-1.27c-6.92-.69-9.69-8.08-9.69-14.09v-.69a6.51,6.51,0,0,1-.23-1c-.12-.58-.23-1.27-.47-2.19-.57-2.66-1.38-6.58-2.42-10.28-1.85-6.7,1.27-17.32,14.77-21.48s20.09,5.31,20.55,12.47a28.5,28.5,0,0,1-.35,6.12c1.27-.11,2.77.46,3.93,2.66C454.11,214.91,449.72,220.92,444.88,222.07Z" style="fill:#c1725c"/><path d="M418.21,217.57c.23.92.81,1.61,1.39,1.5s.69-1,.46-2-.81-1.61-1.39-1.5S418,216.53,418.21,217.57Z" style="fill:#2b2b39"/><path d="M421.1,215.83l.11-.11c.12-.12,0-.23-.11-.35s-2.66-1.27-4.5.58a.24.24,0,1,0,.34.35c1.5-1.51,3.93-.47,3.93-.47Z" style="fill:#2b2b39"/><path d="M426.52,215.72c.23.92.81,1.62,1.39,1.5s.69-1,.46-2-.81-1.62-1.38-1.5S426.29,214.68,426.52,215.72Z" style="fill:#2b2b39"/><path d="M429.41,214l.11-.12c.12-.11,0-.23-.11-.35s-2.66-1.27-4.5.58a.24.24,0,0,0,.34.35c1.5-1.5,3.93-.46,3.93-.46Z" style="fill:#2b2b39"/><g style="opacity:0.5"><g style="opacity:0.5"><g style="opacity:0.5"><g style="opacity:0.5"><path d="M429.06,219.88c.12.69,1.85.8,3.81.46s3.46-1.27,3.35-1.85-1.85-.81-3.81-.46S429,219.18,429.06,219.88Z" style="fill:#7d351d;opacity:0.5;isolation:isolate"/></g></g></g></g><g style="opacity:0.5"><g style="opacity:0.5"><g style="opacity:0.5"><g style="opacity:0.5"><path d="M416.14,223.69c1.38-.47,2.19-1,2.07-1.62s-1.15-.69-2.54-.58C415.91,222.3,416,223.11,416.14,223.69Z" style="fill:#7d351d;opacity:0.5;isolation:isolate"/></g></g></g></g><path d="M420.52,221.84c-.11,0-.23-.12-.34-.23h-.12a4.18,4.18,0,0,1-2.08,1.61,5,5,0,1,1,2.66-6.58,5.17,5.17,0,0,1,.34,2.66c.12,0,.23-.12.35-.12A1.71,1.71,0,0,1,422,219a6.51,6.51,0,0,0-.46-2.54,6,6,0,1,0-3.23,7.85,6.63,6.63,0,0,0,2.65-2.07C420.87,221.84,420.75,221.84,420.52,221.84Z" style="fill:#fff"/><path d="M431.14,220.92a6,6,0,1,1,3.23-7.86A6.09,6.09,0,0,1,431.14,220.92Zm-4.27-10.17a5,5,0,1,0,6.58,2.66A5.06,5.06,0,0,0,426.87,210.75Z" style="fill:#fff"/><path d="M411.87,220.92c-.12.11-.35,0-.47,0s-.23-.47-.11-.7a6.08,6.08,0,0,1,3-2.08.43.43,0,0,1,.58.23.42.42,0,0,1-.23.58,6.28,6.28,0,0,0-2.54,1.73C412,220.8,412,220.92,411.87,220.92Z" style="fill:#fff"/><path d="M432.87,211.21c3.58-2.54,6.47-3,8.2-2.88l.11.92c-1.61-.11-4.27.23-7.73,2.77a.53.53,0,0,1-.69-.11C432.64,211.56,432.64,211.33,432.87,211.21Z" style="fill:#fff"/><path d="M426.87,246a19.41,19.41,0,0,0,11.54-12.13c-3.23,3.23-7.27,5.54-11.08,5.66h-1.27Z" style="fill:#2b2b39"/><path d="M421,199.67c4.85-3.81,10.28-3.93,12.81-3.12,1.51.46,4.28,3.35,3.47,6.23s2,2.89,2.77,4.05-1.62,5.77-1.62,5.77l3.35,1.62A31.66,31.66,0,0,1,443,211.1c.81-1.73,5.19-3,5.19-3a23.75,23.75,0,0,0,1.27-8.66c-.11-4.74-9.23-14.32-23-11.78,0,0-3.81-6.82-7.84-6a4.45,4.45,0,0,0-3.81,4.62s-5-3.23-7.16.46,2,7.62,2,7.62-6.23-.57-5.88,3.24,8.19,5.54,8.19,5.54S415.44,204.05,421,199.67Z" style="fill:#39252b"/><path d="M443.26,193.2s4.27-4.62,6.92-2.89c2.43,1.62-1.5,4.27-1.5,4.27s3.81-.92,4.39,1.28c.69,2.42-4.62,3.69-4.62,3.69Z" style="fill:#39252b"/><path d="M441.07,222a3.1,3.1,0,0,0,1.27.93,5.43,5.43,0,0,0,2.19.34v-.34c0-.23.11-.46.11-.69h-.46a2.76,2.76,0,0,1-.92-.12,3.28,3.28,0,0,1-1.5-.81c-.23-.23-.58-.23-.69,0A.7.7,0,0,0,441.07,222Z" style="fill:#7d351d"/><path d="M428.49,223.69s.69,4.62-3,5.66a4,4,0,0,1-5-2.55Z" style="fill:#fff"/><path d="M426.64,230.85a2.78,2.78,0,0,0,1-.93c.11-.23,0-.34-.12-.46s-.34,0-.46.12a1.31,1.31,0,0,1-1.38.69.3.3,0,0,0-.35.35c0,.23.11.34.35.34S426.29,231,426.64,230.85Z" style="fill:#7d351d"/><path d="M445.34,218.37c.23-.11.34-.23.34-.46-.11-3.69,3.81-6.12,3.81-6.23a.5.5,0,1,0-.58-.81c-.23.11-4.5,2.77-4.27,7.16a.53.53,0,0,0,.58.46A.12.12,0,0,0,445.34,218.37Z" style="fill:#7d351d"/><path d="M449.38,215.49c.11,0,.11-.12.11-.12.23-.23.23-.58,0-.69a3.67,3.67,0,0,0-3.46-.81.55.55,0,1,0,.35,1,2.66,2.66,0,0,1,2.42.58Z" style="fill:#7d351d"/><path d="M423.29,223.11c.12-.12.23-.12.23-.23a.51.51,0,0,0-.34-.69L419.94,221l2.2-1.39c.11-.11.23-.23.23-.34l.81-6.58c0-.24-.12-.58-.47-.58s-.57.11-.57.46l-.81,6.35-2.89,1.85a1,1,0,0,0-.23.46c0,.23.12.35.35.46l4.27,1.5C423.06,223.22,423.18,223.22,423.29,223.11Z" style="fill:#7d351d"/><path d="M423.41,214.91c-.12.12-.35,0-.46,0a1.23,1.23,0,0,0-1.74.35c-.11.23-.46.23-.69.11s-.23-.46-.11-.69a2.07,2.07,0,0,1,3-.58c.23.12.23.46.11.69C423.64,214.79,423.52,214.79,423.41,214.91Z" style="fill:#fff"/><path d="M432,208.67a1,1,0,0,0,.34-.57,1.5,1.5,0,0,0-.8-1.85c-.23-.12-4.39-1.62-7.16,1.62a1.47,1.47,0,0,0,2.19,2c1.5-1.73,3.93-.81,3.93-.81A1.73,1.73,0,0,0,432,208.67Z" style="fill:#2b2b39"/><path d="M415,212a1.65,1.65,0,0,0,1-.69c.58-1,2.66-1,3.12-.92a1.45,1.45,0,0,0,.34-2.89c-1.61-.23-4.61,0-6,2.31a1.48,1.48,0,0,0,.58,2A1.25,1.25,0,0,0,415,212Z" style="fill:#2b2b39"/><path d="M500.85,359.61s-28,10.28-59.21,9.7c-12.46-.23-16.62-4.62-16.62-4.62-.57,3-3.34,4.74-7.27,6.7,0,0,35.44,12.47,64.29,5.66C505.24,379.13,500.85,359.61,500.85,359.61Z" style="fill:#64474b"/><path d="M429,505l-1.16,9.13H412.56l1.27-9.13Z" style="fill:#c1725c"/><path d="M376.32,538.26H431.6a7.23,7.23,0,0,0,.69-3.11c.35-4.74-1.15-12.13-2-16.87-.11-.57-.11-1-.23-1.5a13.16,13.16,0,0,1-.11-2,2.92,2.92,0,0,0-3.47-3.23c-5.54,5.54-11.88-2.77-15.58,0,0,0-1.61,1.15-6,5.08s-11.77,6.58-18.12,9.24c-8.2,3.46-10.5,6.93-11,9.24A4.6,4.6,0,0,0,376.32,538.26Z" style="fill:#467b6c"/><path d="M376.32,538.26H431.6a7.23,7.23,0,0,0,.69-3.11H375.85A4.6,4.6,0,0,0,376.32,538.26Z" style="fill:#253f3d"/><path d="M426,538.15h1.61a12.13,12.13,0,0,1-3-8.89,15.54,15.54,0,0,1,5.77-11.09c-.11-.58-.11-1-.23-1.5a16.72,16.72,0,0,0-6.81,12.59A12.8,12.8,0,0,0,426,538.15Z" style="fill:#253f3d"/><path d="M405.86,519.9a.88.88,0,0,0,.93-.69,1,1,0,0,0-.7-1.16l-3.46-.8a1.09,1.09,0,0,0-1.15.69,1,1,0,0,0,.69,1.15l3.46.81Z" style="fill:#fff"/><path d="M409.21,517.25a.88.88,0,0,0,.92-.7,1,1,0,0,0-.69-1.15l-3.46-.81a1,1,0,0,0-1.16.69,1,1,0,0,0,.7,1.16l3.46.81Z" style="fill:#fff"/><path d="M402.52,522a.88.88,0,0,0,.92-.69,1,1,0,0,0-.69-1.16l-3.47-.81a1,1,0,0,0-1.15.7,1,1,0,0,0,.69,1.15l3.47.81Z" style="fill:#fff"/><path d="M399.05,523.83a.88.88,0,0,0,.93-.69,1,1,0,0,0-.7-1.16l-3.46-.81a1,1,0,0,0-.46,1.85l3.46.81Z" style="fill:#fff"/><path d="M395.25,525.68a.89.89,0,0,0,.92-.7,1,1,0,0,0-.69-1.15L392,523a1,1,0,0,0-1.15.69,1,1,0,0,0,.69,1.16l3.46.81Z" style="fill:#fff"/><path d="M391.21,527.18a.88.88,0,0,0,.92-.7,1,1,0,0,0-.69-1.15l-3.47-.81a1.1,1.1,0,0,0-1.15.69,1,1,0,0,0,.69,1.16l3.46.81Z" style="fill:#fff"/><path d="M464,371.16S424.45,388.25,411.87,401c-12.82,12.94-1.74,106.36-1.74,106.36a147.44,147.44,0,0,0,20.32.47c3.58-32.8,11.66-73.8,9.92-88.23,0,0,50.79-6.59,58.64-19.06,6.92-11.08,2.54-37.88,2.54-37.88Z" style="fill:#64474b"/><path d="M408.75,410.08a35.68,35.68,0,0,0,12.12,1.27.47.47,0,0,0,0-.93A31.76,31.76,0,0,1,409,409.15.48.48,0,0,0,408.75,410.08Z" style="fill:#39252b"/><path d="M410.36,502.81c6.7-.23,13.28-.35,20-.35a.46.46,0,0,0,0-.92c-6.69,0-13.27.12-20,.35A.46.46,0,0,0,410.36,502.81Z" style="fill:#39252b"/><path d="M453.65,373.93c-7.39,4.27-15.24,8-22.74,12-7.16,3.81-14.31,7.85-19.16,14.55A30.58,30.58,0,0,0,406.33,414c-.12.58.8.81.92.23a31.83,31.83,0,0,1,14.08-21.59c6.58-4.5,14-8,21-11.66,3.92-2.08,8-4.05,11.77-6.36C454.57,374.39,454.11,373.58,453.65,373.93Z" style="fill:#39252b"/><path d="M496,361.23c.57,4,1.73,14.32,1.73,18.36,0,6.47-.58,15.13-5.89,19.63-2.42,2-5.65,3.12-8.54,4.16-3.58,1.27-7.27,2.19-11,3.12a229.62,229.62,0,0,1-23.2,4.15c-4.51.58-8.89,1.16-13.39,1.62a.49.49,0,0,0-.46.46,101,101,0,0,1,0,19.52c-.47,4.73-1.39,9.47-2.31,14.09-.93,5-1.27,10.05-1.73,15-.58,6.47-1.27,12.94-1.85,19.29-.69,7-1.39,14.09-1.85,21.13a.47.47,0,0,0,.93,0c.8-12.7,2.3-25.41,3.46-38.22.46-5.43.81-10.74,1.73-16.06.81-4.5,1.73-8.89,2.19-13.39a97.76,97.76,0,0,0,.23-21,252,252,0,0,0,34.74-5.43c6.81-1.5,14.2-3.23,20.2-6.93,5.77-3.69,6.93-11.78,7.39-18,.23-5.08-.81-16.86-1.62-21.94Z" style="fill:#39252b"/><path d="M494.62,394.49a9.65,9.65,0,0,1-3.12-.47c-9.46-2.88-13.85-27.71-14.08-28.75l1.5-.23c0,.23,4.51,24.94,13.05,27.48,2.77.81,4.84.47,6.34-.92,6.81-6.24,1.85-31.07,1.74-31.41l1.5-.35c.23,1,5.31,26-2.2,32.8A6.43,6.43,0,0,1,494.62,394.49Z" style="fill:#fff"/><path d="M462.42,369l-72.83,11.78c-.12,0-.23-.11-.35-.23l-1.5-9c0-.12.12-.24.23-.35l72.83-11.78c.12,0,.23.12.35.23l1.5,9C462.65,368.73,462.53,368.85,462.42,369Z" style="fill:#2b2b39"/><path d="M381.63,382a6.1,6.1,0,0,1-6.58-3.58L353,329.24a5.09,5.09,0,0,1,3.81-7.05l32.89-5.31a5,5,0,0,1,5.31,2.89l26,55.89Z" style="fill:#2b2b39"/><path d="M397.21,366.66,396.05,364l2.2-.35L397,361.23l2.88-.58,1.27,2.43,1.85-.35-1.27-2.43,2.88-.57,1.27,2.42,2.54-.46,1.16,2.66-2.2.34,1.16,2.2,2.54-.47,1.15,2.66-2.19.35,1.27,2.42-2.89.58L407.13,370l-1.84.35,1.27,2.43-2.89.57-1.27-2.42-2.54.46-1.15-2.66,2.19-.34-1.15-2.2Zm6.69,1.15,1.85-.35-1.16-2.19-1.84.35Z" style="fill:#d03f23"/><path d="M359.12,336.74c1.61,3.12,5.42,5.32,8.54,4.74s4.27-3.46,2.65-6.7-5.42-5.31-8.54-4.73S357.5,333.51,359.12,336.74Z" style="fill:#f0c86a"/><path d="M365.12,334.55c.35.58.81,1.16,1,1s.23-.58-.12-1.27-.8-1.16-1-1S364.77,333.86,365.12,334.55Z" style="fill:#2b2b39"/><path d="M362.24,335c.34.58.8,1.16,1,1s.23-.58-.11-1.27-.81-1.15-1-1S361.89,334.44,362.24,335Z" style="fill:#2b2b39"/><path d="M366.16,338.59c2.42-.46,1.73-3,1.73-3s-.23-.23-.35-.23a.25.25,0,0,0-.23.23c0,.12.58,2.19-1.38,2.54s-3.46-1.62-3.58-1.73-.23-.23-.35-.12-.11.23,0,.35A4.77,4.77,0,0,0,366.16,338.59Z" style="fill:#2b2b39"/><path d="M395,319.77l25.74,55.43,3.81-.58-25.74-55.43a5,5,0,0,0-5.31-2.89l-3.81.58A5.3,5.3,0,0,1,395,319.77Z" style="fill:#2b2b39"/><path d="M415.21,354.76a9.12,9.12,0,0,1,8.89-2.08c5.42,1.62,12.47,10.51,12.47,10.51l-16.28,2.66Z" style="fill:#c1725c"/><path d="M420.18,374.85h0a.59.59,0,0,0,.34-.8L395,318.73a.55.55,0,0,0-.69-.23.56.56,0,0,0-.23.69l25.51,55.32C419.71,374.85,419.94,375,420.18,374.85Z" style="fill:#5f5f75"/><path d="M390.28,349.56a4.59,4.59,0,0,1-3.58,6.59,7.93,7.93,0,0,1-8.19-4.74,4.59,4.59,0,0,1,3.58-6.58A8.09,8.09,0,0,1,390.28,349.56Z" style="fill:#5f5f75"/><path d="M465.88,264l1.16,1.16,1.15,1.27c.81.8,1.62,1.73,2.31,2.54,1.5,1.73,3.11,3.46,4.62,5.19,3,3.58,6,7.16,8.77,10.74A111.65,111.65,0,0,1,491.5,296c1.16,1.85,2.2,3.69,3.12,5.54a45.44,45.44,0,0,1,2.19,5.2c.12.23.12.46.23.58v-1c.12,0,0,.57-.11,1.27a14.88,14.88,0,0,1-.81,2.42c-.34.93-.81,1.74-1.15,2.77-.93,1.85-2,3.82-3.12,5.78-.58.92-1.15,2-1.73,2.89s-1.27,2-1.85,2.88c-1.27,2-2.54,3.93-3.92,5.89s-2.66,3.93-4.16,5.89-2.77,3.93-4.27,5.78l-2.19,2.88-1,1.39-1,1.38-.11.12a7.34,7.34,0,0,0,10.85,9.82l1.38-1.27,1.39-1.27c.92-.93,1.84-1.74,2.65-2.66,1.85-1.73,3.58-3.58,5.31-5.43l5.19-5.54c1.74-1.85,3.35-3.81,5-5.78.81-1,1.61-2,2.42-3l2.43-3.12c1.61-2.19,3.11-4.38,4.61-6.81.69-1.15,1.5-2.42,2.19-3.81a37.91,37.91,0,0,0,2-4.39,29.65,29.65,0,0,0,1.5-5.89,17.87,17.87,0,0,0,0-4.27,1.4,1.4,0,0,0-.12-.69c0-.24-.11-.47-.11-.7l-.12-.34v-.23l-.11-.35a4,4,0,0,1-.24-1.16,72.32,72.32,0,0,0-2.88-8.54,64.73,64.73,0,0,0-3.69-7.51,142,142,0,0,0-8.43-13.51c-3-4.27-6.23-8.31-9.46-12.36-1.62-2-3.35-3.92-5.08-5.77-.81-.92-1.73-1.85-2.66-2.89l-1.38-1.38-1.5-1.5a11.76,11.76,0,0,0-17,16.28Z" style="fill:#c1725c"/><path d="M500.85,302a18.17,18.17,0,0,0-2.19,2.89c-.35.46.46.93.81.46a16,16,0,0,1,2.08-2.77C501.89,302.22,501.32,301.64,500.85,302Z" style="fill:#7d351d"/><path d="M496.93,306.6a10.61,10.61,0,0,1,7.16-3.23c.57,0,.57.81,0,.92a9.49,9.49,0,0,0-6.58,3C497.16,307.64,496.47,307.07,496.93,306.6Z" style="fill:#7d351d"/><path d="M481.58,351.64a7.15,7.15,0,0,1-4.39,8.89,17.65,17.65,0,0,0-5.19,2.89c-3.12,2.89-6.12,7.16-8.08,8.2-3,1.5-2-2-1.73-2.31a44.17,44.17,0,0,1,3.46-6s-5.42,4.85-6.58,7.5-3.69,3.24-3.92.12,4.61-9.7,6.46-11.09c0,0-4.15,2.2-5.89,5.66s-2.88,4.5-4.15,5.31-2.77-2-.23-6.7a16.6,16.6,0,0,1,6.92-7.39,29.85,29.85,0,0,0-5.31,2c-3.23,1.5-4.84,5.66-7,5.54s0-4.73,2.43-6.81,3.92-3.81,7.73-5.08a53,53,0,0,1,9.93-2.66c2.42-.23,11.08-2.2,14.08-.35A6.07,6.07,0,0,1,481.58,351.64Z" style="fill:#c1725c"/><path d="M472.58,348.87s-7.28-1.85-9.81-1.15-6.47.46-6.24,2.07,5.31,1.85,5.31,1.85Z" style="fill:#c1725c"/><path d="M459.65,262.26c1.27,5.89,11.89,13.51,17.54,20.44.23.35,2,2.08,2.2,2.42a41.66,41.66,0,0,1,3.57,4.74c9.35-5.89,14-9.47,18-15.94a6.7,6.7,0,0,1,.58-.92,24.37,24.37,0,0,0,2.65-6.93,75.33,75.33,0,0,0-19.74-19.75l-1-.69a47.47,47.47,0,0,0-8.66-4.85,26.52,26.52,0,0,0-8.43,4.39,5.17,5.17,0,0,0-.8.69A16.79,16.79,0,0,0,459.65,262.26Z" style="fill:#6059c9"/><path d="M487.35,261.68c3.46,5.08,8.54,8.78,13.62,12.24a6.7,6.7,0,0,1,.58-.92c-4.74-3.12-9.24-6.58-12.7-11.09s-5.31-10.16-4.39-15.7l-1-.7C482.27,251.06,484.12,257,487.35,261.68Z" style="fill:#9f9ffb"/><path d="M476.73,281.89c.35.23.58.58.92.81,1.62-5.08.58-11.2-.8-16.4-2.08-7.62-5.08-15.36-10.51-21.25-.23-.23-.46-.58-.69-.81-.46-.46-1.27.35-.81.81l.7.69c5,5.43,7.84,12.48,9.81,19.52C476.85,270.34,478.23,276.58,476.73,281.89Z" style="fill:#9f9ffb"/><path d="M464.73,266.88c5.77,8,11.65,15.7,17.89,23.21.34.46.92-.23.57-.58-6.11-7.5-12-15.24-17.65-23.09C465.19,266,464.38,266.42,464.73,266.88Z" style="fill:#322380"/><path d="M466.34,273.81c1.85.8,3.58,1.5,5.43,2.31.46.23.92-.58.46-.7-1.85-.81-3.58-1.5-5.43-2.31C466.34,272.88,465.88,273.58,466.34,273.81Z" style="fill:#322380"/><path d="M421.1,308.8a94.47,94.47,0,0,0-10.85-31.3c-.23-.46-1,0-.69.46A99.38,99.38,0,0,1,420.29,309C420.41,309.49,421.21,309.26,421.1,308.8Z" style="fill:#322380"/><path d="M128.86,495H58.57a.79.79,0,0,1-.81-.81v-4a.79.79,0,0,1,.81-.81h70.17a.79.79,0,0,1,.81.81v4A.7.7,0,0,1,128.86,495Z" style="fill:#39252b"/><path d="M60.88,426.24h65.78a2,2,0,0,1,2,2v8.08a2,2,0,0,1-2,2H60.88a2,2,0,0,1-2-2v-8.08A2,2,0,0,1,60.88,426.24Z" style="fill:#9b7d84"/><path d="M130.24,388.94a41.27,41.27,0,0,1-.69,4.85c-.12.47-.23.93-.35,1.39a49.78,49.78,0,0,1-8.54,19.05c-.23.35-.57.7-.81,1a33.91,33.91,0,0,1-6.34,5.89,2,2,0,0,1-.81.47A32.59,32.59,0,0,1,98,426.82c-.35,0-.69.12-1.15.12-1.16.11-2.43.11-3.58.11A39.14,39.14,0,0,1,80,424.86c-.23-.12-.57-.23-.8-.35a35.66,35.66,0,0,1-13-9,5.49,5.49,0,0,0-.8-.8A50.54,50.54,0,0,1,58,403.26l-.35-.69a53.51,53.51,0,0,1-4.15-13.51h76.75Z" style="fill:#6059c9"/><path d="M69.19,388.94c-2.77,5.55-6.24,10.86-11.08,14.32l-.35-.69c4.5-3.23,7.85-8.31,10.5-13.51h.93Z" style="fill:#9f9ffb"/><path d="M80.61,388.94a38.72,38.72,0,0,0-11,13.75C68,406,66.18,411,66.3,415.5a5.12,5.12,0,0,0-.81-.8,32.06,32.06,0,0,1,2.77-10.86,40.16,40.16,0,0,1,11-14.9Z" style="fill:#9f9ffb"/><path d="M113.51,421.05a1.89,1.89,0,0,1-.81.46,37.67,37.67,0,0,1,9.23-32.68h1.16A37.28,37.28,0,0,0,113.51,421.05Z" style="fill:#9f9ffb"/><path d="M102.77,420.35c-1.5,2.2-3,4.28-4.61,6.36-.35,0-.7.11-1.16.11a101.64,101.64,0,0,0,6.47-9.12c1.15-1.85,3.23-4.39,2.42-6.7-.92-2.89-5-1.73-7-.92-7.73,2.65-13.51,8.66-18.82,14.66-.23-.11-.57-.23-.8-.34a96.42,96.42,0,0,1,7.5-7.86,36.69,36.69,0,0,1,10.16-6.69c2.54-1,7.15-2.89,9.23,0C108.54,413.08,104.5,417.81,102.77,420.35Z" style="fill:#9f9ffb"/><path d="M129.55,393.68c-.12.46-.23.92-.35,1.38a27.83,27.83,0,0,0-8.54,19.06c-.23.35-.57.69-.81,1A28.61,28.61,0,0,1,129.55,393.68Z" style="fill:#9f9ffb"/><path d="M113.62,388.94c-1.61,1.5-3.23,2.89-4.85,4.28q-6.06,5-12.46,9.35a46.87,46.87,0,0,1-6.58,3.93c-1.85.81-3.92,1.15-5.66-.12-3.57-2.65-1.61-8-.11-11.2a26.35,26.35,0,0,1,4.38-6.24H89.5a21.11,21.11,0,0,0-5.31,7.74c-.92,2.08-1.73,4.5-1.15,6.81.92,3.24,4,3.35,6.57,2.08,3.93-1.84,7.62-4.62,11.2-7.16a127,127,0,0,0,11.54-9.47Z" style="fill:#9f9ffb"/><path d="M91.92,391.14c21.17,0,38.32-1,38.32-2.2s-17.15-2.19-38.32-2.19-38.32,1-38.32,2.19S70.76,391.14,91.92,391.14Z" style="fill:#2b2b39"/><path d="M56.14,339.4c-1,6.35-5.31,8.89-1.5,12.24s11.08,8.2,7.27,14.44,1.27,8.2,6.24,12.12c4,3.12,5,5.78,4.15,11.09H93.08a15.73,15.73,0,0,0-3.23-10.16c-5.2-7.05-6.35-5.78-5.78-11s1.74-6.82-2.77-11-7.15-7.28-5.3-13.05-1.62-11.32-7.16-14.67-3-9.82-6.12-18.36-12.46-13.4-12.46-13.4c6.92,11-1.16,20.33-.58,28.29S57.07,333.05,56.14,339.4Z" style="fill:#467b6c"/><path d="M80.38,389.17h1.27L60.07,323.58a.62.62,0,1,0-1.16.46Z" style="fill:#253f3d"/><path d="M114.08,389.17c-.69-5.31.12-8,4.16-11.08,5-3.93,10-5.89,6.23-12s3.46-11,7.16-14.32-.46-5.89-1.5-12.13,5.77-5.31,6.35-13.28-7.51-17.21-.58-28.18c0,0-9.35,4.85-12.35,13.28s-.58,15-6.12,18.25-9,8.78-7,14.55-.81,8.78-5.31,12.94-3.35,5.89-2.77,11-.58,3.92-5.77,10.85a15.94,15.94,0,0,0-3.23,10.16Z" style="fill:#467b6c"/><path d="M106,389.17l21.36-65a.71.71,0,0,0-.35-.81.69.69,0,0,0-.81.35l-21.47,65.47Z" style="fill:#253f3d"/><path d="M77.38,337.44c2.89,4.85,9.23,12.47,3,17.9s-1.38,9.12,2.66,15,3.23,9.35-1.62,18a3.17,3.17,0,0,0-.46.92h25.62a19,19,0,0,0-.46-10.74c-3.23-9.24-4.85-8.31-2.54-13.63s4.16-6.7.69-12.7-5.31-10.16-1.38-15.71,2.08-12.7-2.77-18,0-11.55-.46-21.71-8.89-18.48-8.89-18.48c3.81,14.09-8,21.36-10,30.14s5.54,9.93,2.31,16.4S74.38,332.59,77.38,337.44Z" style="fill:#467b6c"/><path d="M93.89,389.17l-1.39-80a.75.75,0,0,0-.69-.69.74.74,0,0,0-.69.69l1.38,80Z" style="fill:#253f3d"/><path d="M84.07,438.25l-2,6.47L54.3,534.45H48.87l17.66-88,1.62-8.2Z" style="fill:#64474b"/><path d="M68.15,438.25H84.07l-2,6.47-15.58,1.73Z" style="fill:#39252b"/><path d="M138.9,534.45h-5.43l-28.74-92.38-1.15-3.82h15.93l.46,2Z" style="fill:#64474b"/><path d="M120,440.22l-15.24,1.85-1.15-3.82h15.93Z" style="fill:#39252b"/><path d="M126.78,482.6H60.64a2.89,2.89,0,0,1,0-5.77h66.14a2.89,2.89,0,1,1,0,5.77Z" style="fill:#9b7d84"/><path d="M735.73,467.13l-.11,1.27-.23,1.38-.24,1.73-.92,7.05-.11.81-1,7.39-.12.81L729,516.9l-.12.81-2.08,15.13H684.25l-.57-4.28-.12-.81-.23-2.31-.11-.8-1.85-13.05-.12-.93-3.92-29.21-.12-.93-.69-5.2-1.15-8.19Z" style="fill:#d03f23"/><path d="M689,499.46a18.53,18.53,0,0,1-7.62,12.13l-.12-.93a16.5,16.5,0,0,0-3.92-29.21l-.12-.93a17,17,0,0,1,4.74,2.54A17.54,17.54,0,0,1,689,499.46Z" style="fill:#750021"/><path d="M734.23,478.56l-.11.81c-5.2-.58-9.93,1-14.2,3.92-3.58,2.54-7.27,5.55-12,5.55a11.47,11.47,0,0,1-9.82-17.56c.24-.46.93,0,.7.46a10.77,10.77,0,0,0,3.11,14.44c4.27,2.77,9,2,13.16-.58,3.93-2.42,7.27-5.42,11.89-6.58A22,22,0,0,1,734.23,478.56Z" style="fill:#750021"/><path d="M735.62,468.4l-.23,1.38c-.47.58-.93,1.27-1.39,1.73a14.94,14.94,0,0,1-9.12,4.74,14.16,14.16,0,0,1-11-3.47,21.71,21.71,0,0,1-1.73-1.73c-.35-.34.23-.92.57-.58a15.31,15.31,0,0,0,2.43,2.31,14.17,14.17,0,0,0,9.35,2.78,13.78,13.78,0,0,0,8.31-3.93,15.86,15.86,0,0,0,2.42-3.12C735.27,468.4,735.5,468.4,735.62,468.4Z" style="fill:#750021"/><path d="M733.08,486.76l-.12.81a7.94,7.94,0,0,0-4.38,1.5,8.22,8.22,0,0,0-3.12,8.31c.58,2.43,2.08,4.62,2.08,7.16a8,8,0,0,1-2.31,5.43c-3.46,3.93-9,4.73-13,7.85a11.11,11.11,0,0,0-3,14c.24.34.47.69.7,1h-1c-.23-.35-.35-.58-.58-.93a12,12,0,0,1,2.43-13.86c4.38-4.15,11.42-4.5,14.88-9.81,2-3.12.7-5.89-.46-9a8.91,8.91,0,0,1,8-12.47Z" style="fill:#750021"/><path d="M721.07,525.56a7.87,7.87,0,0,0,4.39,7.28H724a9.17,9.17,0,0,1-3.69-7.74,8.78,8.78,0,0,1,8.65-8.2l-.11.81A8.07,8.07,0,0,0,721.07,525.56Z" style="fill:#750021"/><path d="M718.07,500.62c-.34,3.58-3.69,5.54-6.35,7.5a41.76,41.76,0,0,0-9.11,8.89c-3.24,4.51-5,10.63-3.35,15.71h-.81A18.77,18.77,0,0,1,701,517.94a34.79,34.79,0,0,1,7.85-8.55l4.5-3.46c1.73-1.39,3.58-3,3.92-5.43.7-5.2-6-6-9.69-5.77s-7.62,1.5-9.93,4.73c-2.19,3-2.54,6.93-3.23,10.39-.69,3.82-1.85,7.63-4.15,10.63a13,13,0,0,1-6.93,4.73l-.11-.8a14.33,14.33,0,0,0,3.57-1.62c3.81-2.77,5.66-7.39,6.58-11.9.7-3.46,1-7,2.54-10.16a11.54,11.54,0,0,1,6.93-6,18.31,18.31,0,0,1,10.27-.47C715.88,495.3,718.42,497.61,718.07,500.62Z" style="fill:#750021"/><path d="M692,532.84h-.81a5.74,5.74,0,0,0-2.31-3.58,5.94,5.94,0,0,0-5.19-.7l-.12-.81a6.87,6.87,0,0,1,6.35,1.27A7,7,0,0,1,692,532.84Z" style="fill:#750021"/><path d="M735.73,467.13l-.11,1.27-.23,1.38-.24,1.73H734l-1.15.12-17.66,1.15-1.27.12-37.4,2.42-1.15-8.19Z" style="fill:#2b2b39"/><path d="M741.16,467.47a429.87,429.87,0,0,1-71.22,0V461h71.22Z" style="fill:#d03f23"/><path d="M724.88,384.9c-2.19,2.66-3.81,12.59-8.08,14.09-2.88,1-4.5-3.12,1.16-8.43a21.63,21.63,0,0,0,6-10.05,84.25,84.25,0,0,0-4-12.93c-3.23,3-8.54,7.27-10,5.31-1.62-2.19,3.23-9.24,6-12.93a21.28,21.28,0,0,0-4.27-4.74,13.86,13.86,0,0,0-9-3.23,11.45,11.45,0,0,0-6.81,2.54c2.88,5.77,7.27,15.59,4.15,17.78-2.77,2.08-6.81-6-9.35-12-3.58,5.55-6,13.05-7,20.33a13.41,13.41,0,0,0,4,4.27c5.54,3.93,12.12,12,8.77,13.74s-6.69-2.88-9.11-7.16a17.36,17.36,0,0,0-4.16-5.08v3.7c.92,23,23.32,23,23.32,23S728.92,408,724.88,384.9Zm-28.16.46c-2.19,0-5.77-4.15-7.39-6.46s-.34-3.93,1.27-3.47h.12C692.91,376.12,699.61,385.36,696.72,385.36Zm19.62-5.54c1.62-.46,3,.58,2.19,2.66-.92,2.65-2.3,3.69-4.27,2.77C713,384.56,714,380.51,716.34,379.82Z" style="fill:#467b6c"/><path d="M704.11,379.13c2,10,1.38,20.44.57,30.48-.8,10.86-1.84,21.72-1.5,32.57a89.93,89.93,0,0,0,2.43,18.36.42.42,0,0,0,.81-.23c-5.31-21.48-.47-43.42-.24-65.25a84,84,0,0,0-1.27-16.16A.42.42,0,0,0,704.11,379.13Z" style="fill:#2b2b39"/><path d="M694,413.31c-.23,3.46,4.27,12.36,1.85,16.17-1.73,2.65-5.43.11-4-7.51a21.79,21.79,0,0,0-1.16-11.66,82,82,0,0,0-10.85-8.09c-.8,4.39-2.54,11-5,10.17-2.65-.81-2.89-9.36-2.77-14a24.31,24.31,0,0,0-6.23-1.27,13.09,13.09,0,0,0-9.12,2.66,12.16,12.16,0,0,0-4,6c5.77,2.89,15,8.32,13.85,11.9-1,3.35-9.12-.81-14.66-4.16.35,6.58,2.89,14.09,6.35,20.56a12.74,12.74,0,0,0,5.77,1.15c6.81,0,16.85,2.54,15.24,5.89s-7.16,1.62-11.66-.34a16.08,16.08,0,0,0-6.35-1.62c.69,1,1.5,2.08,2.19,3,14.2,18,32.32,4.85,32.32,4.85S710.92,429.71,694,413.31Zm-22.39,17c-1.85,1.27-7,0-9.81-.81s-2.54-2.89-1-3.47h.11C663,425.09,673.87,428.67,671.56,430.29ZM684,414.35c1-1.39,2.77-1.27,3.35.81.81,2.77.35,4.39-1.85,4.73C684.14,420.12,682.64,416.2,684,414.35Z" style="fill:#467b6c"/><path d="M673.75,420.93c5.31,4.85,10.5,9.82,14.77,15.59a78.05,78.05,0,0,1,8.08,14.32c1.62,3.58,3.12,7.05,4.74,10.63.23.46.92.11.69-.47-2.54-5.77-5-11.77-8-17.43a68.71,68.71,0,0,0-9.92-13.86c-3-3.35-6.35-6.47-9.58-9.47C673.87,420,673.29,420.59,673.75,420.93Z" style="fill:#2b2b39"/><path d="M713.46,451.3s18,13.4,32.31-4.61a30.17,30.17,0,0,0,2.2-3,15.6,15.6,0,0,0-6.35,1.62c-4.5,2-10,3.69-11.66.23s8.43-5.89,15.24-5.89a14.28,14.28,0,0,0,5.77-1c3.46-6.47,6.11-14,6.46-20.55-5.66,3.34-13.73,7.39-14.66,4-1-3.58,8.2-8.9,14-11.78a11.41,11.41,0,0,0-4-6,13.8,13.8,0,0,0-9.12-2.77,25.2,25.2,0,0,0-6.23,1.27c0,4.51-.23,13.05-2.89,14-2.42.81-4-5.77-5-10.16a81.81,81.81,0,0,0-10.85,8,21.82,21.82,0,0,0-1.15,11.66c1.38,7.63-2.43,10.17-4,7.51-2.43-3.81,2.07-12.7,2-16.17C698.57,433.75,713.46,451.3,713.46,451.3Zm35.2-21c1.61.57,1.73,2.65-.93,3.58s-8,2.08-9.81.8C735.62,432.94,746.47,429.48,748.66,430.29ZM724,424.05c-2.19-.35-2.66-2-1.85-4.73.58-2.08,2.31-2.2,3.35-.81C726.84,420.47,725.34,424.28,724,424.05Z" style="fill:#467b6c"/><path d="M735.15,424.63c-10.85,10.85-19.5,23.56-27.81,36.49-.23.46.46.81.69.46,8.31-12.82,16.85-25.4,27.7-36.26C736.08,424.86,735.5,424.28,735.15,424.63Z" style="fill:#2b2b39"/><path d="M741.16,461c0,.7-15.93,1.16-35.55,1.16s-35.55-.58-35.55-1.16,15.93-1.15,35.55-1.15S741.16,460.43,741.16,461Z" style="fill:#2b2b39"/><path d="M136.36,161.9a.45.45,0,0,1-.35-.11l-3.92-1.62a.86.86,0,0,1-.46-.46.71.71,0,0,1,0-.69l1.27-3a8.37,8.37,0,0,1-1.85-1.61l-3,1.27a.84.84,0,0,1-1.15-.46l-1.62-3.93a.71.71,0,0,1,0-.69.92.92,0,0,1,.46-.47l2.77-1.15a14.68,14.68,0,0,1-.11-2.2l-2.77-1.15a1,1,0,0,1-.47-.46.76.76,0,0,1,0-.69l1.62-3.93a.9.9,0,0,1,.46-.46.71.71,0,0,1,.69,0l2.66,1a10.43,10.43,0,0,1,2-2l-1.15-2.77a.84.84,0,0,1,.46-1.15l3.92-1.62a.73.73,0,0,1,.7,0,.94.94,0,0,1,.46.46l1.27,3h1.5l1.27-3.23a.84.84,0,0,1,1.15-.46l3.93,1.62a.9.9,0,0,1,.46.46.76.76,0,0,1,0,.69l-1.27,3.12a10.69,10.69,0,0,1,2,2l2.77-1.15a.71.71,0,0,1,.69,0,.86.86,0,0,1,.46.46l1.62,3.93a.84.84,0,0,1-.46,1.15l-3,1.27v2l3.11,1.27a.84.84,0,0,1,.46,1.16l-1.61,3.93a.94.94,0,0,1-.46.46.78.78,0,0,1-.7,0l-3.23-1.27-1,1,1.27,3a.84.84,0,0,1-.46,1.15l-3.92,1.62a.71.71,0,0,1-.69,0,.92.92,0,0,1-.47-.46L140.4,158a9.14,9.14,0,0,1-1.73.11l-1.39,3.47A2.24,2.24,0,0,1,136.36,161.9ZM133.59,159l2.31.92,1.27-3.23a.9.9,0,0,1,.92-.58,9.42,9.42,0,0,0,2.54-.12.94.94,0,0,1,1,.47l1.15,2.65,2.31-1L144,155.32a1.1,1.1,0,0,1,.23-1,7.65,7.65,0,0,0,1.61-1.73.75.75,0,0,1,1-.23l3,1.27.93-2.31-2.89-1.16a1,1,0,0,1-.58-.92,7.19,7.19,0,0,0,.12-2.77.88.88,0,0,1,.58-.93l2.77-1.15-1-2.31-2.66,1.15a.92.92,0,0,1-1-.34,8.27,8.27,0,0,0-2.43-2.43.93.93,0,0,1-.34-1l1.15-2.88-2.31-.93-1.27,3a1,1,0,0,1-.92.57,8.11,8.11,0,0,0-2.31,0,.85.85,0,0,1-.92-.57l-1.16-2.78-2.31,1,1.16,2.66a.93.93,0,0,1-.35,1,8,8,0,0,0-2.42,2.42.92.92,0,0,1-1,.35l-2.42-1-.93,2.31,2.54,1a1,1,0,0,1,.58.92,8.61,8.61,0,0,0,.11,3,.72.72,0,0,1-.46.92l-2.65,1.16,1,2.3,2.77-1.15a1.08,1.08,0,0,1,1,.23,9,9,0,0,0,2.43,2.2c.34.23.58.69.34,1Zm5.19-6.82a4.88,4.88,0,0,1-4.5-2.88,4.76,4.76,0,1,1,8.77-3.7,5,5,0,0,1,0,3.7,5.18,5.18,0,0,1-2.53,2.65A6.86,6.86,0,0,1,138.78,152.2Zm0-7.73a4,4,0,0,0-1.15.23,3.1,3.1,0,0,0-1.62,4,3.66,3.66,0,0,0,1.62,1.61,2.67,2.67,0,0,0,2.31,0,3.58,3.58,0,0,0,1.61-1.61,2.67,2.67,0,0,0,0-2.31A2.83,2.83,0,0,0,138.78,144.47Z" style="fill:#ccc0b2"/><path d="M669.25,131.88a12.36,12.36,0,1,1,12.35-12.36A12.37,12.37,0,0,1,669.25,131.88Zm0-23a10.63,10.63,0,1,0,10.62,10.62A10.59,10.59,0,0,0,669.25,108.9Z" style="fill:#ccc0b2"/><path d="M665.9,125.29a.7.7,0,0,1-.69-.34L663,122.18A.9.9,0,0,1,664.4,121L666,123.1l9.23-9.24a.92.92,0,0,1,1.27,0,.9.9,0,0,1,0,1.27L666.71,125A1,1,0,0,1,665.9,125.29Z" style="fill:#ccc0b2"/><path d="M456.07,183.61a1.18,1.18,0,0,1-.58-.23.9.9,0,0,1-.23-.92l2.54-7.74V159.13a3.6,3.6,0,0,1,3.58-3.58h25.05a3.59,3.59,0,0,1,3.57,3.58v15.36a3.59,3.59,0,0,1-3.57,3.58H465.3l-8.77,5.43C456.42,183.5,456.19,183.61,456.07,183.61Zm5.31-26.33a1.83,1.83,0,0,0-1.85,1.85v15.94l-1.84,5.66,7-4.28a.7.7,0,0,1,.46-.11h21.35a1.83,1.83,0,0,0,1.85-1.85V159.13a1.83,1.83,0,0,0-1.85-1.85Z" style="fill:#ccc0b2"/><path d="M466.92,169.06a2.08,2.08,0,1,0-2.08-2.08A2.08,2.08,0,0,0,466.92,169.06Z" style="fill:#ccc0b2"/><path d="M474.42,169.06a2.08,2.08,0,1,0-2.08-2.08A2.08,2.08,0,0,0,474.42,169.06Z" style="fill:#ccc0b2"/><path d="M481.81,169.06a2.08,2.08,0,1,0-2.08-2.08A2.08,2.08,0,0,0,481.81,169.06Z" style="fill:#ccc0b2"/><path d="M250.74,140.31h-14.2a.91.91,0,0,1-.92-.93.85.85,0,0,1,.92-.92h14.2a8.9,8.9,0,0,0,8.89-8.89v-5.78a10.59,10.59,0,0,1,10.62-10.62h30.47a.91.91,0,0,1,.92.92.85.85,0,0,1-.92.93H270.25a8.89,8.89,0,0,0-8.89,8.89v5.77A10.67,10.67,0,0,1,250.74,140.31Z" style="fill:#ccc0b2"/><path d="M431.26,165.71a.91.91,0,0,1-.93-.92v-38a10.71,10.71,0,0,0-10.73-10.74H403.44a.91.91,0,0,1-.92-.93.85.85,0,0,1,.92-.92H419.6a12.49,12.49,0,0,1,12.46,12.47v38C432.06,165.37,431.72,165.71,431.26,165.71Z" style="fill:#ccc0b2"/><path d="M512.28,144.81H452.61a.91.91,0,0,1-.93-.92.86.86,0,0,1,.93-.93h59.67a15.17,15.17,0,0,0,15.12-15.12A16.87,16.87,0,0,1,544.25,111h35.2a.91.91,0,0,1,.93.92.85.85,0,0,1-.93.92h-35.2A15.18,15.18,0,0,0,529.13,128,17,17,0,0,1,512.28,144.81Z" style="fill:#ccc0b2"/><path d="M390.28,245.63V103.24a3.89,3.89,0,0,0-3.92-3.93h-72a3.89,3.89,0,0,0-3.93,3.93V245.63a8,8,0,0,0,8,8h63.94A8,8,0,0,0,390.28,245.63Z" style="fill:#fff"/><path d="M378.28,207.52H325.07a1.74,1.74,0,0,1,0-3.47h53.21a1.74,1.74,0,0,1,0,3.47Z" style="fill:#f2eae1"/><path d="M378.28,218.61H325.07a1.74,1.74,0,0,1,0-3.47h53.21a1.74,1.74,0,0,1,0,3.47Z" style="fill:#f2eae1"/><path d="M378.28,229.69H325.07a1.73,1.73,0,0,1,0-3.46h53.21A1.78,1.78,0,0,1,380,228,1.7,1.7,0,0,1,378.28,229.69Z" style="fill:#f2eae1"/><path d="M378.28,240.89H325.07a1.73,1.73,0,0,1,0-3.46h53.21a1.73,1.73,0,1,1,0,3.46Z" style="fill:#f2eae1"/><path d="M390.28,103.24v11H310.41v-11a3.89,3.89,0,0,1,3.93-3.93h72A4,4,0,0,1,390.28,103.24Z" style="fill:#5f5f75"/><path d="M370.89,106a2.66,2.66,0,1,1-2.65-2.66A2.76,2.76,0,0,1,370.89,106Z" style="fill:#7f7f98"/><path d="M379.32,106a2.66,2.66,0,1,1-2.66-2.66A2.77,2.77,0,0,1,379.32,106Z" style="fill:#7f7f98"/><path d="M387.4,106a2.66,2.66,0,1,1-2.66-2.66A2.77,2.77,0,0,1,387.4,106Z" style="fill:#7f7f98"/><path d="M335.11,175.18h-9v21.71h9Z" style="fill:#6059c9"/><path d="M348.38,159.71h-9v37.18h9Z" style="fill:#9f9ffb"/><path d="M363.16,148.28h-9v48.5h9Z" style="fill:#322380"/><path d="M377.47,135h-9v61.89h9Z" style="fill:#6059c9"/><path d="M360.85,125.41l6.23,2.31-.69-7.28Z" style="fill:#9f9ffb"/><path d="M323.69,164.56c-.24,0-.58-.12-.58-.46a.78.78,0,0,1,.34-.93c.24-.11,27.36-10.51,40.52-38.34a.7.7,0,0,1,1.27.58c-13.39,28.41-41,38.92-41.21,39S323.8,164.56,323.69,164.56Z" style="fill:#9f9ffb"/><g style="opacity:0.5"><g style="opacity:0.5"><g style="opacity:0.5"><g style="opacity:0.5"><g style="opacity:0.5"><path d="M710.11,157.86H687.49a1.28,1.28,0,0,1-1.27-1.27v-8.78a1.28,1.28,0,0,1,1.27-1.27h22.62a1.28,1.28,0,0,1,1.27,1.27v8.78A1.28,1.28,0,0,1,710.11,157.86Z" style="fill:#ccc0b2;opacity:0.5;isolation:isolate"/></g></g><g style="opacity:0.5"><g style="opacity:0.5"><path d="M737.12,157.86H714.49a1.28,1.28,0,0,1-1.27-1.27v-8.78a1.28,1.28,0,0,1,1.27-1.27h22.63a1.28,1.28,0,0,1,1.27,1.27v8.78A1.28,1.28,0,0,1,737.12,157.86Z" style="fill:#ccc0b2;opacity:0.5;isolation:isolate"/></g></g><g style="opacity:0.5"><g style="opacity:0.5"><path d="M723.5,170.45H700.87a1.28,1.28,0,0,1-1.26-1.27V160.4a1.28,1.28,0,0,1,1.26-1.27H723.5a1.28,1.28,0,0,1,1.27,1.27v8.78A1.28,1.28,0,0,1,723.5,170.45Z" style="fill:#ccc0b2;opacity:0.5;isolation:isolate"/></g></g></g><g style="opacity:0.5"><g style="opacity:0.5"><g style="opacity:0.5"><path d="M101.16,259H78.53a1.28,1.28,0,0,1-1.27-1.27V249a1.28,1.28,0,0,1,1.27-1.27h22.63a1.28,1.28,0,0,1,1.27,1.27v8.77A1.28,1.28,0,0,1,101.16,259Z" style="fill:#ccc0b2;opacity:0.5;isolation:isolate"/></g></g><g style="opacity:0.5"><g style="opacity:0.5"><path d="M128.17,259H105.54a1.28,1.28,0,0,1-1.27-1.27V249a1.28,1.28,0,0,1,1.27-1.27h22.63a1.27,1.27,0,0,1,1.26,1.27v8.77A1.27,1.27,0,0,1,128.17,259Z" style="fill:#ccc0b2;opacity:0.5;isolation:isolate"/></g></g><g style="opacity:0.5"><g style="opacity:0.5"><path d="M114.55,271.73H91.92a1.28,1.28,0,0,1-1.27-1.27v-8.78a1.28,1.28,0,0,1,1.27-1.27h22.63a1.28,1.28,0,0,1,1.27,1.27v8.78A1.28,1.28,0,0,1,114.55,271.73Z" style="fill:#ccc0b2;opacity:0.5;isolation:isolate"/></g></g></g></g></g><path d="M195.69,49.19a11.44,11.44,0,1,0-11.78-11.43A11.61,11.61,0,0,0,195.69,49.19Z" style="fill:#fff"/><path d="M200.19.46H191.3V19.05h8.89Z" style="fill:#2b2b39"/><path d="M238.85,35.91c-29.55,5.89-58.4,6.24-86.22,0l3.7-3.69L157.6,31a53.71,53.71,0,0,1,38-15.83H196A54.1,54.1,0,0,1,234,31Z" style="fill:#2b2b39"/><path d="M235.5,32.56A268.44,268.44,0,0,1,193.26,36c-18.35,0-30.7-2.2-37-3.7l.58-.58c6.35,1.5,18.47,3.58,36.47,3.58A263.79,263.79,0,0,0,234.81,32Z" style="fill:#5f5f75"/><path d="M555.56,49.19a11.43,11.43,0,1,0-11.77-11.43A11.61,11.61,0,0,0,555.56,49.19Z" style="fill:#fff"/><path d="M560.06.46h-8.88V19.05h8.88Z" style="fill:#2b2b39"/><path d="M598.73,35.91c-29.55,5.89-58.4,6.24-86.22,0l3.69-3.69L517.47,31a53.73,53.73,0,0,1,38-15.83h.46a54.11,54.11,0,0,1,38,15.83Z" style="fill:#2b2b39"/><path d="M595.38,32.56A268.67,268.67,0,0,1,553.14,36c-18.47,0-30.7-2.2-37-3.7l.58-.58c6.34,1.5,18.46,3.58,36.47,3.58A263.79,263.79,0,0,0,594.69,32Z" style="fill:#5f5f75"/><path d="M375.62,49.19a11.43,11.43,0,1,0-11.77-11.43A11.61,11.61,0,0,0,375.62,49.19Z" style="fill:#fff"/><path d="M380.13.46h-8.89V19.05h8.89Z" style="fill:#2b2b39"/><path d="M418.79,35.91c-29.55,5.89-58.4,6.24-86.22,0l3.7-3.69L337.54,31a53.71,53.71,0,0,1,38-15.83H376a54.1,54.1,0,0,1,38,15.83Z" style="fill:#2b2b39"/><path d="M415.44,32.56A268.56,268.56,0,0,1,373.2,36c-18.35,0-30.7-2.2-37.05-3.7l.58-.69c6.35,1.5,18.46,3.58,36.47,3.58a265,265,0,0,0,41.55-3.35Z" style="fill:#5f5f75"/></svg>