<svg id="Layer_1" data-name="Layer 1" xmlns="http://www.w3.org/2000/svg" xmlns:xlink="http://www.w3.org/1999/xlink" viewBox="0 0 510 514"><defs><clipPath id="clip-path"><rect x="0.77" y="3.22" width="509" height="510" style="fill:none"/></clipPath></defs><g style="clip-path:url(#clip-path)"><path d="M196.73,158.67c-56.23-1-157.06-35.53-183.72,58C-8.93,293.75,64.51,356.8,154.8,328.79c48.84-15,57-55.9,102.77-42.2S352,341,412.69,310.72c72.35-36.13,59.87-166,39.75-205.16,0,0-43.38-96.64-129.67-47.05C256.72,96.59,294.29,160.49,196.73,158.67Z" style="fill:#e2cec3"/><path d="M6.34,276.41a.92.92,0,0,1-1-.73,119.32,119.32,0,0,1-4.48-38,121.19,121.19,0,0,1,5.33-30.07c5.21-16.74,12.24-26.68,12.6-27a1,1,0,1,1,1.7,1.21c-.12.12-7.15,10.06-12.24,26.55a116.78,116.78,0,0,0-.85,66.82,1.1,1.1,0,0,1-.73,1.33A.44.44,0,0,0,6.34,276.41Z" style="fill:#e2cec3"/><path d="M454.26,284.78c-.24,0-.36,0-.48-.13a1.12,1.12,0,0,1-.37-1.45c15.64-25.71,20.48-56.63,21.69-78.09a236.34,236.34,0,0,0-.84-40.86,1,1,0,1,1,2.06-.37,242.84,242.84,0,0,1,.85,41.35,216.33,216.33,0,0,1-5.82,39.05,142.84,142.84,0,0,1-16.24,40.13A1.4,1.4,0,0,1,454.26,284.78Z" style="fill:#e2cec3"/><path d="M475.71,295a8,8,0,1,1,8-8A8.08,8.08,0,0,1,475.71,295Zm0-13.82a5.82,5.82,0,1,0,5.82,5.82A6,6,0,0,0,475.71,281.14Z" style="fill:#e2cec3"/><path d="M190.19,101.68a8,8,0,1,1,8-8A7.91,7.91,0,0,1,190.19,101.68Zm0-13.82A5.82,5.82,0,1,0,196,93.68,5.81,5.81,0,0,0,190.19,87.86Z" style="fill:#e2cec3"/><path d="M439,59.12h-5.7a1.05,1.05,0,0,1-1-1V52.94h-5.21a1.05,1.05,0,0,1-1-1v-5.7a1,1,0,0,1,1-1h5.21V40.08a1.05,1.05,0,0,1,1-1H439a1.05,1.05,0,0,1,1,1V45.3h5.21a1,1,0,0,1,1,1V52a1,1,0,0,1-1,1H440v5.21C440.08,58.63,439.6,59.12,439,59.12Zm-4.73-2.06H438V51.84a1.05,1.05,0,0,1,1-1h5.21V47.12H439a1.05,1.05,0,0,1-1-1V40.81h-3.76V46a1,1,0,0,1-1,1h-5.21v3.76h5.21a1,1,0,0,1,1,1Z" style="fill:#e2cec3"/><path d="M24.76,168H19.07a1,1,0,0,1-1-1v-5.22H12.76a1,1,0,0,1-1-1v-5.7a1.05,1.05,0,0,1,1-1H18V149a1,1,0,0,1,1-1h5.7a1,1,0,0,1,1,1v5.21h5.45a1,1,0,0,1,1,1v5.7a1,1,0,0,1-1,1H25.85V167A1.06,1.06,0,0,1,24.76,168ZM20,166.07h3.76v-5.22a1.05,1.05,0,0,1,1-1H30V156H24.76a1,1,0,0,1-1-1v-5.21H20V155a1,1,0,0,1-1,1H13.85v3.76h5.22a1,1,0,0,1,1,1Z" style="fill:#e2cec3"/><path d="M260.23,513.34c137.82,0,249.54-4.78,249.54-10.67S398.05,492,260.23,492,10.7,496.78,10.7,502.67,122.42,513.34,260.23,513.34Z" style="fill:#e2cec3"/><path d="M250.78,491.88a.12.12,0,0,0,.12.12,10.61,10.61,0,0,1,.49,1.94h-6.18c-1-1.21-1.94-2.42-2.67-3.27-3.76-5-8.36-12.37-4.36-14.19s8.48,6.06,10.9,11.28C250.05,490.06,250.78,491.88,250.78,491.88Z" style="fill:#e2cec3"/><path d="M256.48,486.54c0,2.67-.12,4.49-.12,4.49v2.91h-4.61a11.44,11.44,0,0,0-.85-1.82c-.48-1.94-1.09-4.12-1.45-5.58-1.33-6.06-2.55-14.67,1.82-14.67C255.87,471.75,256.48,480.84,256.48,486.54Z" style="fill:#e2cec3"/><path d="M136.14,493.94h-.37c-.12-.61-.36-1.21-.48-1.94C135.53,492.73,135.89,493.33,136.14,493.94Z" style="fill:#e2cec3"/><path d="M335.37,491.88a.12.12,0,0,1-.12.12,11.45,11.45,0,0,0-.48,1.94H341c1-1.21,1.94-2.42,2.66-3.27,3.76-5,8.37-12.37,4.37-14.19s-8.49,6.06-10.91,11.28A41.55,41.55,0,0,0,335.37,491.88Z" style="fill:#e2cec3"/><path d="M329.68,486.54c0,2.67.12,4.49.12,4.49v2.91h4.6a13.51,13.51,0,0,1,.85-1.82c.49-1.94,1.09-4.12,1.46-5.58,1.33-6.06,2.54-14.67-1.82-14.67C330.28,471.75,329.68,480.84,329.68,486.54Z" style="fill:#e2cec3"/><path d="M323.25,493.94h.37c.12-.61.36-1.21.48-1.94C323.74,492.73,323.5,493.33,323.25,493.94Z" style="fill:#e2cec3"/><path d="M32.4,430.65s-11.15-19.16-5.46-30.8c6.06-12.49,15.52-4.37,12.49,11.64A62.61,62.61,0,0,1,32.4,430.65Z" style="fill:#e2cec3"/><path d="M55.18,501.58a191.1,191.1,0,0,1-13-27,142.84,142.84,0,0,1-8.6-38.92,202.37,202.37,0,0,1-.37-24.25c0-1.22-1.81-1.46-1.93-.25-.49,14.07,0,28.26,2.78,42.08A156.75,156.75,0,0,0,48,492.49c1.58,3,3.15,6.06,4.85,9.09Z" style="fill:#c1aa9f"/><path d="M35.3,454.53S13.85,449.2,9.49,437c-4.73-13.09,7.64-14.19,17.09-.85A66.55,66.55,0,0,1,35.3,454.53Z" style="fill:#e2cec3"/><path d="M39.18,468.11S57.24,455.38,57,442.41c-.37-14-12.24-10.55-16.24,5.33A64.34,64.34,0,0,0,39.18,468.11Z" style="fill:#e2cec3"/><path d="M48.15,489.33S66.21,476.6,66,463.63c-.37-13.95-12.24-10.55-16.24,5.33A64.34,64.34,0,0,0,48.15,489.33Z" style="fill:#e2cec3"/><path d="M43.67,481.33s-22.18.36-29.45-10.31c-7.88-11.39,3.75-15.64,16.24-5.21A66.71,66.71,0,0,1,43.67,481.33Z" style="fill:#e2cec3"/><path d="M470.26,430.65s11.15-19.16,5.45-30.8c-6.06-12.49-15.51-4.37-12.48,11.64A66.48,66.48,0,0,0,470.26,430.65Z" style="fill:#e2cec3"/><path d="M447.59,501.58a190,190,0,0,0,13-27,142.48,142.48,0,0,0,8.61-38.92,204.47,204.47,0,0,0,.36-24.25c0-1.22,1.82-1.46,1.94-.25.48,14.07,0,28.26-2.79,42.08a156.72,156.72,0,0,1-13.93,39.29c-1.58,3-3.16,6.06-4.85,9.09Z" style="fill:#c1aa9f"/><path d="M467.35,454.53S488.8,449.2,493.16,437c4.73-13.09-7.63-14.19-17.09-.85A66.55,66.55,0,0,0,467.35,454.53Z" style="fill:#e2cec3"/><path d="M463.59,468.11s-18.06-12.73-17.81-25.7c.36-14,12.24-10.55,16.24,5.33A64.49,64.49,0,0,1,463.59,468.11Z" style="fill:#e2cec3"/><path d="M454.5,489.33s-18.05-12.73-17.81-25.7c.36-13.95,12.24-10.55,16.24,5.33A64.49,64.49,0,0,1,454.5,489.33Z" style="fill:#e2cec3"/><path d="M459,481.33s22.17.36,29.45-10.31c7.87-11.39-3.76-15.64-16.24-5.21A66.41,66.41,0,0,0,459,481.33Z" style="fill:#e2cec3"/><path d="M397.91,54.88s11.63-10.31,5.93-24-24.23-20.25-37-12.25S348.82,38,356.82,56.21c3.4,7.76,16.85,12.25,22.3,8.12S397.91,54.88,397.91,54.88Z" style="fill:#110e0a"/><path d="M372.58,20.2S365.91-2.36,350.16,4.55c-17,7.52-7.27,30.2-4.12,44.75,4.12,18.79-5.09,23.64-18.3,12.12,0,0,4.48,19.89,24,13.46C368.34,69.43,372.58,20.2,372.58,20.2Z" style="fill:#110e0a"/><path d="M370.88,15.47a20.36,20.36,0,0,0-14.54,22.79c.12,1,1.57.49,1.45-.36a19,19,0,0,1,13.58-21A.77.77,0,0,0,370.88,15.47Z" style="fill:#de4c36"/><path d="M356.94,73.55a60.38,60.38,0,0,1,11.4-4.85l-4.61,10.79Z" style="fill:#092777"/><path d="M348.34,124.11S338.89,175,355.61,183s31-8.24,31-8.24S381.79,106.17,348.34,124.11Z" style="fill:#092777"/><path d="M388.33,73.55s23.76,3.64,28.24,7.64c14.06,12.49,29.09,43.65,38.54,55.05s25.08,58.81,25.08,58.81-11.14,13.21-24.6,12.73l-13.33-26.44s12.48,45.84,14.91,52-3.15.73-16.85,7.52-29.32-8.12-37.44-1c0,0,5.45-29.83,9-62.69s-4.12-38.44-7-58.44-17-39.53-17-39.53Z" style="fill:#092777"/><path d="M403.72,171.28c2.19-2.42,4.12-4.73,6.18-7.27,2.43-2.91,4.61-5.95,6.79-9s4.24-6.18,6.06-9.33c1-1.58,1.82-3.16,2.79-4.73,0-.12.12-.25.12-.37l-.73-1.45c-1-1.82-2.06-3.76-3.27-5.58-2.42-3.88-5.21-7.64-8-11.52s-5.82-7.64-8.85-11.4c-1.57-1.82-3-3.76-4.6-5.57l-2.3-2.79L396.69,101l-1.09-1.33-.12-.12a10.14,10.14,0,1,1,15.27-13.34l1.34,1.45,1.21,1.46L415.72,92c1.58,1.94,3.27,3.88,4.85,5.82,3.15,3.88,6.3,7.88,9.33,12s6.06,8.25,8.85,12.74c1.45,2.3,2.79,4.6,4.12,7.15a43.31,43.31,0,0,1,1.94,4.12,31.35,31.35,0,0,1,1.69,5.34,10,10,0,0,1-1,7v.12c-.12.12-.12.12-.12.24l-.12.25-.24.36-.48.73c-.37.48-.61.85-1,1.33-.61.85-1.34,1.7-1.94,2.55-1.34,1.7-2.67,3.27-4,4.85q-4,4.72-8.36,9.09c-2.91,2.91-5.82,5.82-8.85,8.49s-6.18,5.34-9.33,7.88Z" style="fill:#ffb090"/><path d="M433.29,137.69a12.45,12.45,0,0,0-7.27,3.16c-.36.36-.85-.25-.48-.49a12.56,12.56,0,0,1,7.75-3.39C433.78,136.84,433.78,137.69,433.29,137.69Z" style="fill:#e1695c"/><path d="M430.63,134.9c-1,1.34-1.82,2.67-2.79,4.13-.24.36-1,0-.61-.37,1-1.33,1.82-2.66,2.79-4.12C430.14,134.18,430.87,134.54,430.63,134.9Z" style="fill:#e1695c"/><path d="M418.63,197.23S395,209.48,357.91,186.56c0,0,7.4-13.58,6.06-28a27.94,27.94,0,0,0-1-5.09c-.12-.49-.24-1-.36-1.34-.12-.6-.36-1.09-.48-1.7,0-.12-.13-.36-.13-.48s-.12-.36-.24-.61c-.24-.72-.48-1.45-.73-2.18l-.36-1.09c-.12-.24-.12-.49-.24-.61-.12-.48-.36-.85-.49-1.33,0-.12,0-.12-.12-.24a.46.46,0,0,0-.12-.25c-1.45-3.51-3.15-7-5-10.67-.12-.36-.36-.6-.48-1-.37-.6-.61-1.33-1-1.94-.12-.24-.24-.48-.37-.72l-.36-.73c-.24-.37-.36-.73-.6-1.09a.45.45,0,0,0-.13-.25l-.36-.72a12.26,12.26,0,0,0-1-1.7c-.36-.61-.6-1.21-1-1.82a.12.12,0,0,0-.12-.12c-.24-.36-.48-.85-.73-1.21v-.12c-.36-.61-.72-1.34-1.09-1.94-.48-.85-1-1.82-1.45-2.55-.61-1.09-1.21-2.06-1.7-3.15s-1.09-1.94-1.57-2.91a85.41,85.41,0,0,1-4.61-8.73c-2.18-5.82-1.33-13.1,11.51-17.71a46.07,46.07,0,0,0,7.52-3.27c6.18-3.4,8.6-6.18,8.6-6.18l21.57,2.54s6.31,4,11.27,4.25c1.34.12,2.55.12,3.76.24h1.21c.12,0,.12,0,.25.12s.12,0,.24.12.12,0,.24.12a1,1,0,0,1,.49.24c.12,0,.12.13.24.13a2985492971520.41,2985492971520.41,0,0,0,.24.24.12.12,0,0,1,.12.12c.12,0,.12.12.24.12s.13.12.25.12l.12.12.12.12.12.13.12.12.12.12.12.12.12.12.13.12.12.12.12.12.12.13.12.12c0,.12.12.12.12.24s.24.36.37.61.12.12.12.24.12.24.12.36.12.37.24.49a.37.37,0,0,0,.12.24c0,.12,0,.12.12.24s.12.24.12.37c.85,3.15.37,6.54.12,9.57-.12,2.43-.12,4.49,1,6a7.9,7.9,0,0,0,.85,1.09c0,.12.12.12.25.24.24.36.6.85.84,1.21.12.12.25.37.37.49.36.48.72,1.09,1.09,1.69.12.13.12.25.24.37s.12.24.24.48.12.25.24.49.13.24.25.36c.12.37.36.61.48,1s.37.61.49,1c.12.12.12.37.24.49s.12.24.24.48v.12c.24.49.49,1,.73,1.58a4.32,4.32,0,0,0,.48,1.09c.12.12.12.37.25.49s.12.36.24.48v.12c0,.12.12.25.12.49s.12.36.12.48v.12c0,.13.12.25.12.37s.12.24.12.36.12.24.12.37.13.24.13.36c.12.36.12.73.24,1.09v.24a.75.75,0,0,0,.12.49v.36a10.74,10.74,0,0,1-.73,5.22l-.36.72c-.12.25-.12.37-.24.61-1.22,2.55-2.91,5-4.25,7.64a.12.12,0,0,1-.12.12.42.42,0,0,1-.12.24c-.12.12-.12.24-.24.49s-.12.36-.24.48-.12.25-.12.37v.12c0,.12-.13.24-.13.48s-.12.37-.12.49,0,.12-.12.24-.12.36-.12.49a.44.44,0,0,1-.12.36c0,.12-.12.36-.12.48a.74.74,0,0,1-.12.49c-.37,2.55,0,6.06.6,9.94a1.12,1.12,0,0,0,.12.61,1,1,0,0,0,.13.6v.13a.72.72,0,0,0,.12.48c0,.24.12.36.12.61V153c.12.61.24,1.09.36,1.7,0,.24.12.48.12.73.25,1.33.61,2.78,1,4.24,1.09,4.36,2.31,8.61,3.4,12.13C424.93,195.65,418.63,197.23,418.63,197.23Z" style="fill:#fff"/><path d="M409.06,87.86c-4.85,1.21-9.82,2.06-14.79,2.79A143.3,143.3,0,0,1,372.7,92c-2.67,0-5.21-.12-7.88-.24a167.65,167.65,0,0,1-23.15-3h.13l.24-.25.24-.24.12-.12c.61.12,1.21.24,1.7.36A143.45,143.45,0,0,0,371,91.25,159,159,0,0,0,392.45,90l3-.36a119.62,119.62,0,0,0,13.09-2.55c0,.12.12.24.12.36C408.94,87.74,408.94,87.86,409.06,87.86Z" style="fill:#e2cec3"/><path d="M409.06,99.62a156.47,156.47,0,0,1-42.54,3.27A150.1,150.1,0,0,1,342,99.38c-1.58-.37-3.27-.73-4.85-1.22v-.85c2.91.85,5.82,1.46,8.73,2.07a151.36,151.36,0,0,0,48.47,1.94c4.85-.61,9.82-1.46,14.55-2.43v.37A.44.44,0,0,1,409.06,99.62Z" style="fill:#e2cec3"/><path d="M414.63,110.05a156.75,156.75,0,0,1-46.29,3.88,168.34,168.34,0,0,1-24.48-3.64,9.27,9.27,0,0,1-1.82-.49c-.12-.24-.37-.6-.49-.84l6.18,1.45a151.21,151.21,0,0,0,48.48,2.18,149.59,149.59,0,0,0,18.06-3.15C414.39,109.68,414.51,109.8,414.63,110.05Z" style="fill:#e2cec3"/><path d="M418.51,121A151.74,151.74,0,0,1,370,125a140.07,140.07,0,0,1-21.21-3.15c-.12-.12-.12-.24-.24-.37s-.12-.24-.24-.36c.36.12.73.12,1.09.24a151.89,151.89,0,0,0,48.6,2.55,143.19,143.19,0,0,0,20.36-3.64c0,.24.12.37.12.61Z" style="fill:#e2cec3"/><path d="M414.51,132.84c-.12.25-.36.61-.48.85A153.75,153.75,0,0,1,371.85,136a155.6,155.6,0,0,1-16.72-2.31,5.48,5.48,0,0,1-.37-.85A148.77,148.77,0,0,0,400,134.9,119.41,119.41,0,0,0,414.51,132.84Z" style="fill:#e2cec3"/><path d="M411.48,145.7A157.91,157.91,0,0,1,373.67,147c-4.49-.36-8.85-1-13.33-1.7l-.37-.73a149.86,149.86,0,0,0,41.69,1.7c3.28-.36,6.43-.73,9.58-1.21A.92.92,0,0,1,411.48,145.7Z" style="fill:#e2cec3"/><path d="M413.3,157a151.42,151.42,0,0,1-37.81,1.09,1.54,1.54,0,0,1-.73-.12q-5.46-.54-10.91-1.45c0-.25-.12-.49-.12-.73,2.67.48,5.33.85,8.12,1.21a164.8,164.8,0,0,0,31.87.49c3.15-.25,6.31-.61,9.46-1.09A1.3,1.3,0,0,0,413.3,157Z" style="fill:#e2cec3"/><path d="M416.09,168.13a155,155,0,0,1-38.91,1c-4.48-.49-8.84-1.09-13.33-1.94a1.54,1.54,0,0,1,.12-.73,153.14,153.14,0,0,0,41.45,2.18c3.52-.24,7-.72,10.42-1.21A1.77,1.77,0,0,1,416.09,168.13Z" style="fill:#e2cec3"/><path d="M419.36,179.16a150.75,150.75,0,0,1-40.48,1,160.64,160.64,0,0,1-17.21-2.79c.12-.24.12-.48.24-.72a154,154,0,0,0,45.33,3.27c4-.36,8-.73,12-1.33A5.2,5.2,0,0,1,419.36,179.16Z" style="fill:#e2cec3"/><path d="M359.73,143.88c0,.12,0,.12.12.24C359.85,144,359.85,143.88,359.73,143.88Z" style="fill:#fff"/><path d="M415.84,112.47a17,17,0,0,1,.73,1.58A17,17,0,0,0,415.84,112.47Z" style="fill:#fff"/><path d="M417.54,116.72c0,.12.12.36.12.48a2.88,2.88,0,0,1-.24-1A.92.92,0,0,1,417.54,116.72Z" style="fill:#fff"/><path d="M417.9,117.69c0,.12.12.24.12.36a7.9,7.9,0,0,1-.24-.85C417.78,117.44,417.9,117.56,417.9,117.69Z" style="fill:#fff"/><path d="M390.27,293.87c-.36,7.15-1.09,15.64-1.94,25.22-.48,5-1,10.19-1.57,15.64,0,0,2.18,15.52-1.46,40.74-2.66,17.95-9.81,71.3-11.51,85.37-3.76,4-5.82,2.79-11.15-2.43-1-8.73-4.6-31.52-5.82-44.62-1.69-18.55-9.57-59.78,0-75.78-1.33-6.79-2.66-13.1-3.75-19-1.82-9.7-3.28-18.19-4-25.59-1-10.18-.61-18.3,1.81-24.25l38.06.73C390.64,266,391.24,275.44,390.27,293.87Z" style="fill:#ffb090"/><path d="M361.67,460.84s-5.21,2.06-5.33,9.34,0,25.94,0,25.94H359l1.46-6.54s.85,7.15,4.48,11.76,11.39,4.73,16.61,4,1.33-10.31-.73-15.64-6.55-18.19-6.55-18.19Z" style="fill:#134eaa"/><path d="M363,450.41s.13,8.85-1.33,10.43-3.63,6.55-2.06,12.61,2.55,15,6.06,18.79,12.85,4,13.57.85-4.72-14.43-5-20.25-1.21-21.58-1.21-21.58Z" style="fill:#ffb090"/><path d="M388.57,315.33c.73-8,1.22-15.28,1.58-21.46l-41.2-.61c.6,5.94,1.57,12.74,3,20.13C356.46,315,377.79,316.18,388.57,315.33Z" style="fill:#e1695c"/><path d="M373.43,336.92a20.55,20.55,0,0,0,12.36.6c.48-.12.24-.85-.24-.73a19.87,19.87,0,0,1-11.88-.6C373.18,336.07,372.94,336.67,373.43,336.92Z" style="fill:#e1695c"/><path d="M434.26,339.34c-1.57,26.43,0,105.37.37,118-3.27,2.91-7.15,3.52-11.52.73-1.09-3.64-8.24-26.31-11.27-41.35-3.27-16.37-14.54-46.8-6.06-63.42-4.24-11.39-8.36-21.46-11.15-33a148.22,148.22,0,0,1-3.87-24.49,192.14,192.14,0,0,1,0-25.22l35-4.85s2.79,12.12,5.21,27.89c.73,4.61,1.33,9.58,1.94,14.55C434.14,319,434.87,330,434.26,339.34Z" style="fill:#ffb090"/><path d="M449.17,487.27c-2.79-3.88-26.9-24.13-26.9-24.13s-4.37,4-3.88,7.88,1.69,23.77,1.82,26l2.78-.24,1-9.22s6.91,9.58,11.88,12.74,20.72,1.45,24.48.6C464.08,500.25,452,491.15,449.17,487.27Z" style="fill:#134eaa"/><path d="M421.54,452.47l1,9.82a11.4,11.4,0,0,0,.48,7.28c1.58,4.24,6.79,10.79,11.76,15.52,4.24,4.12,13.09,7.88,15.51,6.55s-5.45-9.58-8-14.07A89.52,89.52,0,0,1,436.69,465c-1.46-4.24-2.31-14.55-2.31-14.55Z" style="fill:#ffb090"/><path d="M393.66,316.54a140.33,140.33,0,0,1-2.9-20.61L431,293.87c.73,4.49,1.33,9.34,1.94,14.31C432.93,308.06,419.6,312.54,393.66,316.54Z" style="fill:#e1695c"/><path d="M422.63,343a11.59,11.59,0,0,0,11-1.46c.36-.24,0-.85-.37-.6a10.93,10.93,0,0,1-10.54,1.33C422.39,342,422.14,342.74,422.63,343Z" style="fill:#e1695c"/><path d="M434.26,304.18l-5.09,1.45c-.24.12-.6.12-.84.24a141.31,141.31,0,0,1-34.3,5h-.85a119.9,119.9,0,0,1-16.12-.73c-.36,0-.6-.12-1-.12a124,124,0,0,1-17.57-3.16c-.24-.12-.61-.12-.85-.24-3-.73-6.06-1.57-9.09-2.54,0,0-11.87-55.18-3.51-82.94,5.33-17.46,16.12-37.35,16.12-37.35,20.48,6.79,34.9,6.91,44.11,5.34.36-.13.73-.13,1-.25,9.09-1.7,13-5.09,13-5.09a142.42,142.42,0,0,1,6.9,22.67c.13.25.13.61.25.85,1.21,5.46,2.3,11.16,3.15,16.86,0,.36.12.73.12,1,.85,5.45,1.45,11,2.06,16.49a2.11,2.11,0,0,0,.12.85c.24,2.54.48,5.21.73,7.64,0,.36.12.72.12,1.21.24,2.67.36,5.33.6,7.88v1c.25,5,.49,9.7.61,14.07v1.45C434.63,292.54,434.26,304.18,434.26,304.18Z" style="fill:#de4c36"/><path d="M426.63,207.41c-5.21-1.57-11-2.3-15.39-5.21-3.15-1.94-5.7-5-6.18-8.73a10.64,10.64,0,0,1,.48-4.36c.37-.13.73-.13,1-.25a9.55,9.55,0,0,0,.24,7.52c3.64,7.15,12.49,8,19.64,10.06C426.51,206.81,426.51,207.17,426.63,207.41Z" style="fill:#110e0a"/><path d="M429.9,225.36a17.33,17.33,0,0,1-2.18-1c-11.63-5.46-20.12-15.88-30.06-23.64s-23.87-13.95-36.11-7.64c-.49.24-1-.49-.49-.73,6.06-3.15,13-3.27,19.52-1.7,12.36,3.15,21.57,12.61,30.9,20.86,5,4.36,10.06,8.73,16,11.76.72.36,1.57.73,2.3,1.09C429.78,224.63,429.9,225,429.9,225.36Z" style="fill:#110e0a"/><path d="M432,241.85c-10.18.24-19.87-6.43-27-13.34-9-8.61-16.73-19.28-28.48-24.37-6.06-2.55-12.85-3.52-19.15-1.45v.24c-.12.24-.24.6-.37.85,13.09-4.85,25.94,3.63,34.91,12.36s16.84,19.28,28.72,24.13a30.12,30.12,0,0,0,11.63,2.31A.9.9,0,0,1,432,241.85Z" style="fill:#110e0a"/><path d="M432.81,251.43a26.29,26.29,0,0,0-17.69-5.21c-3.64.36-8,1.57-10.06,4.85-2.31,3.76.36,8-.25,12-.6,3.4-3.27,5.7-6.05,7.4-3.52,2.18-7.16,4-10.43,6.55a28.17,28.17,0,0,0-8,9.7,15.81,15.81,0,0,0-1.57,6.66,44.73,44.73,0,0,0,.48,6.92c.25,3.63-.24,6.91-2.18,9.82-.36,0-.6-.12-1-.12a18.35,18.35,0,0,0,1.21-2.19c2.31-5.09,0-10.67.61-16,1-8.49,7.64-14.67,14.54-18.8,3.28-2.06,7.27-3.63,9.82-6.67a7.55,7.55,0,0,0,1.7-5.94c-.25-2.18-1-4.36-.73-6.54.61-7.64,10.66-9.1,16.6-8.49a27.21,27.21,0,0,1,12.85,4.85A4.57,4.57,0,0,1,432.81,251.43Z" style="fill:#110e0a"/><path d="M432.2,279a35.76,35.76,0,0,0-3.27,25.7c.12.37.12.61.24,1-.24.12-.6.12-.84.24a35.87,35.87,0,0,1,5.81-31.4v1.45A26.68,26.68,0,0,0,432.2,279Z" style="fill:#110e0a"/><path d="M433.42,260.28c-4.85-.6-10.06.12-12.24,5.09-1.1,2.43-1,5.22-1.7,7.89a12.5,12.5,0,0,1-3.76,5.82c-3.88,3.51-9.09,4.85-13.45,7.51-4.85,3-7.51,8-8.36,13.46a32.83,32.83,0,0,0,.24,10.92h-.85a35.41,35.41,0,0,1,.12-12.86,19.33,19.33,0,0,1,8.73-12.49c5-3,11.27-4.36,14.9-9.21,3.28-4.49,1.34-10.91,5.94-14.55,3-2.43,6.79-2.79,10.43-2.43Z" style="fill:#110e0a"/><path d="M386.39,249.85c-.6-3.75-2.78-7-4.36-10.3a16.3,16.3,0,0,1-1.7-5.82,20.81,20.81,0,0,1,1.22-6.67c1.09-3.64,1.81-7.28-.37-10.67s-6.06-5.46-9.81-6.67a39.52,39.52,0,0,0-15.52-1.94c-.6,0-.6,1,0,.85a38.46,38.46,0,0,1,13.94,1.45c3.64,1.09,7.51,2.79,9.94,5.82,2.91,3.76,1.69,7.88.48,12a18.23,18.23,0,0,0-.85,5.7,17.82,17.82,0,0,0,1.22,5c1.45,3.39,3.63,6.42,4.6,9.94,1.09,4.12-.36,8.12-3,11.4-5.09,6.18-13.09,8.49-19.15,13.58-6.66,5.46-8.6,13.82-8.84,22.07a11.06,11.06,0,0,0,.6,1.82c.12,0,.25-.25.25-.37.12-8.61,1.81-17.34,9-23,6.31-5,14.42-7.39,19.39-13.94A14.25,14.25,0,0,0,386.39,249.85Z" style="fill:#110e0a"/><path d="M352.7,217.24a23.71,23.71,0,0,1,13.58,16.85,22.3,22.3,0,0,1-6.55,20.13,22.72,22.72,0,0,1-10.66,5.94c-.61.12-.37,1,.24.85a24.06,24.06,0,0,0,16.6-14.31A22.94,22.94,0,0,0,363,224.63a23.36,23.36,0,0,0-10.05-8C352.34,216.14,352.1,217,352.7,217.24Z" style="fill:#110e0a"/><path d="M354.52,211.78a152.85,152.85,0,0,0-5.82,49.11A143.18,143.18,0,0,0,358.52,307c-.24-.13-.61-.13-.85-.25a143.46,143.46,0,0,1-7.15-24.61,148.87,148.87,0,0,1,13.7-96.64c.24-.49.84,0,.6.36A161.35,161.35,0,0,0,354.52,211.78Z" style="fill:#110e0a"/><path d="M344.34,113.81A26.29,26.29,0,0,1,346,117,19.47,19.47,0,0,0,344.34,113.81Z" style="fill:#fff"/><path d="M347.61,119.5c.37.61.73,1.22,1.09,1.94-.24-.48-.48-.84-.72-1.33C347.86,119.87,347.73,119.75,347.61,119.5Z" style="fill:#fff"/><path d="M354.76,133c1.82,3.64,3.52,7.16,5,10.67,0-.12-.12-.24-.12-.48C358,139.75,356.46,136.36,354.76,133Z" style="fill:#fff"/><path d="M360.7,146.06l.36,1.09c0-.12-.12-.24-.12-.36A1.79,1.79,0,0,1,360.7,146.06Z" style="fill:#fff"/><path d="M361.06,147.15c.25.73.49,1.46.73,2.18-.24-.6-.36-1.09-.6-1.69A.69.69,0,0,0,361.06,147.15Z" style="fill:#fff"/><path d="M417.54,127.14l.36-.72Z" style="fill:#fff"/><path d="M418.63,122.54a13.6,13.6,0,0,1-.73,3.88A14.43,14.43,0,0,0,418.63,122.54Z" style="fill:#fff"/><path d="M360.7,180.13c.73-1.82,1.58-4.61,2.91-6.3-2.18-1.7-6.91-4.61-9.09-6.31-2.91-2.42-5.7-5-8.36-7.52s-5.33-5.21-7.76-8c-1.21-1.33-2.42-2.79-3.63-4.12l-.25-.24a8.46,8.46,0,0,1,.49-1.58q.9-2.91,2.18-6.18c1.7-4.25,3.64-8.49,5.7-12.86s4.24-8.61,6.54-12.85c1.09-2.18,2.3-4.24,3.39-6.43l1.82-3.15.85-1.58.85-1.57.12-.12a10.13,10.13,0,1,0-17.57-10.07L337.67,93l-1,1.7-1.82,3.27c-1.21,2.18-2.43,4.49-3.64,6.67-2.42,4.49-4.72,9-6.91,13.58s-4.36,9.34-6.3,14.31a73.56,73.56,0,0,0-2.66,7.88,33.26,33.26,0,0,0-1.09,4.49,23.29,23.29,0,0,0-.61,5.57,10,10,0,0,0,2.3,6.67v.12l.24.25.13.12.36.36.6.61c.37.36.85.73,1.22,1.09.85.73,1.57,1.46,2.42,2.18,1.58,1.34,3.15,2.67,4.85,4,3.27,2.55,6.54,5,9.94,7.4s6.78,4.49,10.3,6.67c3.15,1.82,6.18,3.64,9.45,5.21C356.46,182.68,359.85,182.19,360.7,180.13Z" style="fill:#ffb090"/><path d="M326.53,146.06a11.51,11.51,0,0,1,7.75,1.7c.37.24.85-.37.49-.61a12.62,12.62,0,0,0-8.37-1.82C325.92,145.45,326,146.18,326.53,146.06Z" style="fill:#e1695c"/><path d="M328.71,142.91l3.51,3.51c.37.37,1-.12.61-.48l-3.52-3.52C329,142.06,328.34,142.54,328.71,142.91Z" style="fill:#e1695c"/><path d="M416.45,169.7s4.48-.12,5.21,3-4.48,9.09-6.54,11-1.34-4.49.36-6.91a5.62,5.62,0,0,0,1.33-4.12Z" style="fill:#ffb090"/><path d="M414.75,162.67c.73,3.15,1.46,6.31,1.94,9.58.12.61,1.09.49,1-.12a82.48,82.48,0,0,0-1.94-9.58C415.6,161.94,414.63,162.07,414.75,162.67Z" style="fill:#e1695c"/><path d="M417.54,172.74a1.75,1.75,0,0,1,2.42.6,2.75,2.75,0,0,1,.61,2.18c-.12.61.85.85,1,.25a3.6,3.6,0,0,0-1.09-3.4,2.75,2.75,0,0,0-3.52-.24C416.33,172.37,417.05,173.1,417.54,172.74Z" style="fill:#e1695c"/><path d="M419.11,180.25s4.85-.24,5.46,2.91-4.49,9.1-6.55,11-1.33-4.49.37-6.91,1.21-3.88,1.21-3.88Z" style="fill:#ffb090"/><path d="M421.3,185.22s4.24-.24,4.84,2.67-4,8-5.69,9.82-1.21-4,.24-6.06,1-3.39,1-3.39Z" style="fill:#ffb090"/><path d="M417.18,175.16s4.84-.24,5.45,2.91-4.48,9.1-6.54,11-1.34-4.49.36-6.92,1.21-3.88,1.21-3.88Z" style="fill:#ffb090"/><path d="M364,171.77s-4.36-.61-5.33,2.54,3.64,9.34,5.45,11.4,1.7-4.37.25-6.79a5.58,5.58,0,0,1-1-4.12Z" style="fill:#ffb090"/><path d="M360.46,182.07s-4.73-.73-5.7,2.43,3.64,9.33,5.46,11.39,1.69-4.36.24-6.79-.85-3.88-.85-3.88Z" style="fill:#ffb090"/><path d="M357.91,186.56s-4.12-.61-5,2.18,3.28,8.25,4.85,10.07,1.46-3.88.24-5.95-.72-3.39-.72-3.39Z" style="fill:#ffb090"/><path d="M362.76,177.1s-4.72-.73-5.69,2.43,3.63,9.33,5.45,11.39,1.7-4.36.24-6.79-.85-3.88-.85-3.88Z" style="fill:#ffb090"/><path d="M380.21,239.55a9.14,9.14,0,0,0-4.36-1.34h-1.09c-9.82.49-24.36,11.28-36.36,7.28-14.54-4.85-19.15,1.21-17.69-5.22a13.47,13.47,0,0,0,.24-1.33c0-.24.12-.61.12-1,.61-3.27,1.46-8.85,2.3-15,0-.37.13-.61.13-1,.84-6.19,1.81-12.86,2.66-18.8,0-.36.12-.73.12-1,1.21-8.61,2.06-15.28,2.06-15.28l-5.45,15.77-.24.84-1.21,3.52-.37,1-.24.85-2.06,6.06c-13.21,2.31-26.06-9.33-26.06-9.33s.61-2.91,1.82-7.52c.36-1.46.73-3,1.09-4.73.12-.36.12-.61.24-1,2.19-8.73,5.22-20.49,8.49-31.53.12-.24.12-.6.24-.85,1.7-5.7,3.51-11.27,5.21-16.12,1-2.55,2.3-5.94,3.88-9.7.12-.25.24-.61.36-.85,1.58-3.76,3.4-7.88,5.34-12.13.12-.24.24-.6.36-.85,6.66-14.67,14.3-30.19,17.09-33.83.12-.12.24-.24.24-.36a2,2,0,0,1,.48-.49C342.16,81.19,357.43,75,357.43,75l10.42,14.07s-10.18,10.19-10.42,30.56-7,26.91.73,58.93S380.21,239.55,380.21,239.55Z" style="fill:#134eaa"/><path d="M321,208.87l-2.06,6.06c-13.21,2.31-26.06-9.33-26.06-9.33s.61-2.91,1.82-7.52C299.74,201.59,311.62,209,321,208.87Z" style="fill:#092777"/><path d="M349.67,78.64c0,.12,13.09,18.19,13.09,18.19,1.82.36,7.15-4.85,7.88-7.52,0,0-6.55-14.79-10.54-17.34C360.1,72,353.55,73.55,349.67,78.64Z" style="fill:#092777"/><path d="M448,192.5l-.85-1.7-4.73-9.46c.12.37,2.67,9.83,5.7,20.74.12.36.12.61.24,1,1.82,6.43,3.76,13.34,5.33,18.92a2.63,2.63,0,0,1,.25,1c.6,2.18,1.21,4.12,1.69,5.82.12.24.12.6.25.84.48,1.7,1,3,1.21,3.76a5.56,5.56,0,0,0,.36.85c1.09,3.64-2.18,1.7-9.82,3.76-13.21-20-17.08-44.5-19.63-68.14-1.45-13.83-2.42-27.77-4.6-41.47a99.94,99.94,0,0,0-5.21-20.5,95.26,95.26,0,0,0-8-15.64,88.86,88.86,0,0,0-10.91-15.15c-.61-.61-1.21-1.22-1.82-1.94,7.15,1.45,16.48,3.63,19.15,5.94a68,68,0,0,1,7.76,8.48,3.92,3.92,0,0,1,.6.85c3,4,6.18,8.49,9.09,13.1.24.36.36.6.61,1,3.15,4.85,6.06,9.82,9,14.43.24.36.36.6.6,1,2.55,4.12,4.85,7.88,7,11,.24.24.36.61.61.85,1.21,1.7,2.3,3.15,3.27,4.37a51.86,51.86,0,0,1,5.57,9.21,3.1,3.1,0,0,0,.49.85c4.12,8.25,8.48,19.16,12,28.62a8.81,8.81,0,0,0,.48,1.21c.73,1.94,1.45,3.88,2.06,5.58a6.58,6.58,0,0,0,.36.85c.61,1.57,1.1,3.15,1.58,4.48,1.7,4.85,2.67,7.88,2.67,7.88S469.17,208,455.71,207.54l-3.63-7.28Z" style="fill:#134eaa"/><path d="M457.41,234.21a39.51,39.51,0,0,1-8.48,1.21.49.49,0,0,1,0-1,36.29,36.29,0,0,0,8.12-1.21A2,2,0,0,1,457.41,234.21Z" style="fill:#092777"/><path d="M388.82,81c0,.12,22.18,12.73,22.18,12.73,1.81-.37,1.93-7,1.57-9.82-.24-4.85-17.45-15-23.87-13.1C388.82,70.76,388.82,75,388.82,81Z" style="fill:#092777"/><path d="M308.23,175.77a12.37,12.37,0,0,0-.73,9.09c.73,2.43,2.06,4.85,1.21,7.28a6,6,0,0,1-3.39,3.27c-3.4,1.33-6.67-.12-9.46-2.06.13-.36.13-.61.25-1a12.86,12.86,0,0,0,5.33,2.55c2.42.36,5.57-.61,6.42-3.28s-1.21-5.58-1.57-8.24a14.42,14.42,0,0,1,.72-7.16c1-2.42,2.67-4.36,3.64-6.79a5.43,5.43,0,0,0-2.18-6.79,16.75,16.75,0,0,0-3.88-1.94c.12-.24.12-.6.24-.85.49.12,1,.37,1.46.49,3.63,1.45,6.9,4.61,5.57,8.85C310.89,171.77,309.2,173.58,308.23,175.77Z" style="fill:#092777"/><path d="M355.49,214.33c-2.18,3.76-5.7,5.82-8.6,8.85-1.58,1.7-3,3.88-2.91,6.3s1.81,3.88,3.15,5.7,2.18,5.22-.37,6.67a.49.49,0,0,1-.48-.85c2.18-1.21,1-4.12-.24-5.58a14.7,14.7,0,0,1-2.67-3.88c-1.21-3.27.61-6.66,2.79-9,2.66-2.79,6.06-4.85,8.24-8.24A12,12,0,0,0,355.85,204c-1.21-3.4-4.24-5.94-8-5.58-4.36.37-5.93,3.76-6.42,7.64-.36,3.15-.73,6.06-2.66,8.73a18.12,18.12,0,0,1-7.64,6.19,27.44,27.44,0,0,1-7.63,1.94c0-.37.12-.61.12-1,.24,0,.6-.13.85-.13a24.36,24.36,0,0,0,7.63-2.42,14.76,14.76,0,0,0,7.76-9.46c.84-3.52.24-7.76,3-10.43a7.94,7.94,0,0,1,8.12-1.69,9.75,9.75,0,0,1,6.06,6.79A13,13,0,0,1,355.49,214.33Z" style="fill:#092777"/><path d="M354.4,176.49c-4.36-1.69-9.7-2.66-13.21,1.22-2.91,3.27-3.27,7.76-3.88,11.88-.6,3.88-1.82,7.64-4.72,10.31a13.92,13.92,0,0,1-6.19,3.27c0-.36.13-.73.13-1a13.17,13.17,0,0,0,7.51-5.46c2.42-3.88,2.3-8.73,3.39-13.09.85-3.4,2.55-7,5.82-8.61,3.64-1.82,7.88-.85,11.39.61C355.25,175.77,355,176.74,354.4,176.49Z" style="fill:#092777"/><path d="M352,156.61c-1.34-1.94-3-4.25-5.58-4.49a4.77,4.77,0,0,0-5.09,3.64c-.61,2.67,1.33,5.21,3.15,6.91a17.71,17.71,0,0,0,7.76,4.37.5.5,0,0,0,.24-1c-3.88-1.09-8.73-4-10.06-8A3.91,3.91,0,0,1,346,153c2.3,0,4,2.3,5.21,4.12C351.49,157.58,352.34,157.09,352,156.61Z" style="fill:#092777"/><path d="M340.22,140.72c-3-1.21-5.57,1.7-6.79,4.13-1.09,2.06-1.81,4.48-3.39,6.3a7.76,7.76,0,0,1-10.18,1,7.49,7.49,0,0,1-3-5.09c-.36-2.43.85-4.61,1-6.91a6.14,6.14,0,0,0-4-5.7c.12-.24.24-.61.36-.85a7.14,7.14,0,0,1,1.82,1.09,6.52,6.52,0,0,1,2.67,5.46c-.12,3-1.82,5.7-.37,8.73a6.77,6.77,0,0,0,7.4,3.76c3.15-.61,4.72-3.16,5.94-5.82,1.57-3.52,4.48-8.73,9.08-6.79C341.31,140.12,340.83,141,340.22,140.72Z" style="fill:#092777"/><path d="M343.13,100.71c-1.58,2.18-4,3-6.06,4.73-4.85,3.76-.36,9.7-1.09,14.55-.73,5.09-6.3,5.82-10.3,4.24-2.06-.85-4-2.06-6.18-3,.12-.24.24-.6.36-.85.12,0,.24.12.36.12,2.67,1.22,5.21,3,8.12,3.4s5.94-.61,6.55-3.76c.85-4.24-2.43-8.49-.85-12.73.85-2.18,2.79-3.28,4.6-4.37,2.43-1.45,4.37-3.27,5-6.18a8.62,8.62,0,0,0-6.9-10.31c.12-.12.24-.24.24-.36a2,2,0,0,1,.48-.49,9.28,9.28,0,0,1,7.27,7.89A8.74,8.74,0,0,1,343.13,100.71Z" style="fill:#092777"/><path d="M345.67,118.29a8.13,8.13,0,0,0-7.51,6.31c-1.09,4.12.61,8.24,3,11.64.36.48,1.21,0,.85-.49-1.94-2.79-3.52-5.94-3.15-9.46s3-6.91,6.78-6.91C346.28,119.26,346.28,118.29,345.67,118.29Z" style="fill:#092777"/><path d="M335,167.28c-2.06-1.82-4.61-3.4-7.39-3.4-2.55,0-5.34,1.58-5.94,4.13-1,3.63,2.54,6.79,3.75,9.94,1.46,3.64-.36,6.91-3,9.34-3.4,3.15-7.76,5.82-6.43,11.15a17.65,17.65,0,0,0,5.7,8.61l-.37,1c-3.15-2.91-6.06-6.55-6.54-10.67-.61-5.21,3.76-7.76,7-10.91,2.06-1.94,3.76-4.49,2.91-7.52-.61-2.06-2.06-3.88-3-5.82-1.82-3.52-1.34-7.4,2.42-9.34,4.12-2.18,8.61,0,11.76,2.79C336.22,167,335.49,167.76,335,167.28Z" style="fill:#092777"/><path d="M358.88,193.47a31.24,31.24,0,0,1-6.78-1c-1.94-.48-4.37-1.21-5.58-2.91-1.82-2.55.61-5.21,3.15-5.58s4.73.61,6.79,1.7v-1.09c-2.3-1.09-4.85-2.18-7.51-1.46-2.31.61-4.25,2.55-4,5,.12,2.18,2.18,3.51,4,4.36a27.89,27.89,0,0,0,9.93,1.94A.49.49,0,0,0,358.88,193.47Z" style="fill:#092777"/><path d="M369.06,222.21a7.54,7.54,0,0,0-11.75.73c-3.64,5.21.72,10.79,4.24,14.42.48.49,1.09-.24.73-.72-3.15-3.16-7-7.88-4.61-12.49a6.58,6.58,0,0,1,10.67-1.34C368.82,223.42,369.43,222.69,369.06,222.21Z" style="fill:#092777"/><path d="M373.67,234.45c-8.73,1.22-16.24,6.79-25,7.89-9.45,1.21-18.42-5-27.63-3.4,0-.24.12-.61.12-1,9-1.33,17.45,4.24,26.54,3.52s16.73-6.67,25.82-8C374,233.48,374.27,234.45,373.67,234.45Z" style="fill:#092777"/><path d="M344.46,126.9c2.91-1.09,4.12,2.67,5.21,4.49a5.24,5.24,0,0,0,3.52,2.67c.6.12.85-.85.24-1-4-.61-4.12-9.1-9.21-7.16C343.61,126.17,343.86,127.14,344.46,126.9Z" style="fill:#092777"/><path d="M434.75,104.59c-3.76-.24-7.39-1.33-9.58-4.24a9.35,9.35,0,0,1-.72-10.67,3.65,3.65,0,0,1,.6.84,8.54,8.54,0,0,0,1.7,10.19c1.94,1.82,4.61,2.55,7.39,2.91A4.32,4.32,0,0,0,434.75,104.59Z" style="fill:#092777"/><path d="M455.59,153.46a7.79,7.79,0,0,1-14.66,1.45c-.24-.61.61-1.09.85-.48a6.87,6.87,0,0,0,10.66,2.3c3.88-3.4,2.06-8.61.24-12.49-1.57-3.39-3.51-7-2.54-10.91a8.87,8.87,0,0,1,1.09-2.43c.24.24.36.61.61.85a10,10,0,0,0-.85,2.06c-.49,2.67.48,5.46,1.57,7.88C454.26,145.33,456.56,149.21,455.59,153.46Z" style="fill:#092777"/><path d="M473.53,176.13c-2.06,2.91-4.85,5.34-8.6,5.34a9.68,9.68,0,0,1-9.09-8,6.61,6.61,0,0,1,1.69-5.33c1.58-1.82,3.76-3.28,4.24-5.82,1-4.37-2.9-8.37-2.66-12.86a6.76,6.76,0,0,1,1.69-4.12,3.38,3.38,0,0,0,.49.85c-.12.24-.36.49-.49.73-1.33,2.3-.48,5,.37,7.39,1.45,4,3,8-.12,11.65-1.7,1.94-4.12,3.63-4.24,6.54a8.37,8.37,0,0,0,5.09,7.28c4.84,2.3,8.72-1,11.39-4.85A3.61,3.61,0,0,0,473.53,176.13Z" style="fill:#092777"/><path d="M464.93,202.32a2.72,2.72,0,0,1-2.91,2.55c-.61-.12-.61-1,0-1,2.06.24,2.18-2.18,1.33-3.4a6.7,6.7,0,0,0-2.18-1.94,14.08,14.08,0,0,1-3-2.3c-1.7-2.06-.85-4.12-.12-6.43a4,4,0,0,0-1.34-4.85,4.81,4.81,0,0,0-5.09-.36c-2.9,1.57-3.87,4.73-3.75,7.88l-.85-1.7c.36-3,1.7-5.94,4.85-7.27,2.91-1.22,6.66.24,7.39,3.51.48,1.94-.73,3.64-1.09,5.58-.61,3.15,2.54,4.25,4.48,5.82A4.49,4.49,0,0,1,464.93,202.32Z" style="fill:#092777"/><path d="M471.83,198.56c.37.49-.48,1-.85.49a12.1,12.1,0,0,1,4.61-17.34,6.58,6.58,0,0,0,.36.85A11.23,11.23,0,0,0,471.83,198.56Z" style="fill:#092777"/><path d="M480.2,195.05s-11.15,13.21-24.61,12.73L452,200.5c9.09-.12,20.24-8.73,25.57-13.34C479.1,192,480.2,195.05,480.2,195.05Z" style="fill:#092777"/><path d="M442.14,162.91c4.24.25,8.12,3.28,8.36,7.64a6.81,6.81,0,0,1-7.51,7.28c-.61-.12-.61.85,0,1a7.73,7.73,0,0,0,8.48-8.13c-.24-5-4.6-8.36-9.33-8.61C441.54,161.94,441.54,162.91,442.14,162.91Z" style="fill:#092777"/><path d="M444.32,128.36c-.48,2.79-2.66,6.67-6.06,5.7-.6-.13-.36-1.1.25-1,2.9.84,4.72-3.16,5-5.46.25-1.94-.72-3.76-.84-5.7a3.59,3.59,0,0,1,1.09-3c.24.36.36.6.6,1a4,4,0,0,0-.48,3C444,124.84,444.57,126.54,444.32,128.36Z" style="fill:#092777"/><path d="M425.17,117.08c3.4-1.46,4.85,3.15,5.94,5.33a7.78,7.78,0,0,0,4.12,3.76c.61.25.85-.72.25-1-3.52-1.21-3.64-4.6-5.58-7.27a4.23,4.23,0,0,0-5.21-1.7C424.08,116.47,424.57,117.32,425.17,117.08Z" style="fill:#092777"/><path d="M428.45,141.57c2.91,2.91,8.12,5,11,1,.36-.48-.49-1-.85-.48-2.55,3.51-7.15,1.33-9.58-1.09C428.69,140.48,428.08,141.21,428.45,141.57Z" style="fill:#092777"/><path d="M441.41,159.52A4.09,4.09,0,0,0,435.6,157c-2.43,1.34-2.67,4.61-1.7,6.91,1.45,3.52,4.61,6.07,5.45,9.83a7.51,7.51,0,0,1-.84,5.82,4.63,4.63,0,0,1-5.94,1.57.5.5,0,0,0-.49.85,5.37,5.37,0,0,0,6.55-1.09,8.12,8.12,0,0,0,1.57-7.4c-.85-3.39-3.15-5.7-4.85-8.61-1-1.69-1.57-3.88-.72-5.69a3.06,3.06,0,0,1,5.69.6C440.69,160.37,441.54,160.13,441.41,159.52Z" style="fill:#092777"/><path d="M434.14,193.23a5.17,5.17,0,0,1,5.46-1.58c2.18.73,3,2.91,3,5,.24,3.88-2.06,7.88-6.18,8.37-.61.12-.61,1.09,0,1,5.09-.61,7.75-5.7,7-10.43-.84-5.21-6.42-6.42-10.05-2.91C433.05,193,433.66,193.59,434.14,193.23Z" style="fill:#092777"/><path d="M448.32,219.78c-1.45,1.94-5.09,3.16-4.48,6.07a.5.5,0,0,1-1,.24c-.73-2.91,1.94-4.37,3.76-6.06a6,6,0,0,0,1.81-5c-.24-1.69-1.33-2.91-2.42-4.24-1.45-1.94-2.18-4.37-1-6.67a4.94,4.94,0,0,1,2.67-2.3c.12.36.12.6.24,1a4.44,4.44,0,0,0-2.18,6.06c1,1.82,2.78,3.15,3.27,5.21A5.62,5.62,0,0,1,448.32,219.78Z" style="fill:#092777"/><path d="M455.84,229.48c-2.19.61-4.61.61-5.46-1.94-.48-1.45.37-2.79,1.34-3.88a7.05,7.05,0,0,1,1.81-1.57,2.84,2.84,0,0,1,.25,1c-1.82,1.09-3.4,3.39-2.06,5.09a3.14,3.14,0,0,0,3.75.73C455.71,228.88,455.84,229.24,455.84,229.48Z" style="fill:#092777"/><path d="M411.24,88c11.63,16.85,15.51,37.34,17.33,57.35,1.94,21,1.94,42.32,7.63,62.69,2.91,10.43,7.15,20.49,13.58,29.22.36.49,1.21,0,.84-.48-12-16.25-16.36-36.62-18.3-56.39-2.18-21-1.93-42.43-7.15-63.05a92.21,92.21,0,0,0-13-29.83C411.72,87,410.87,87.49,411.24,88Z" style="fill:#092777"/><path d="M432.81,116.23c6.79,21,8.85,42.93,9.21,64.87a.49.49,0,0,0,1,0c-.24-21.94-2.42-44-9.21-65.11C433.54,115.38,432.57,115.62,432.81,116.23Z" style="fill:#092777"/><path d="M328.59,189.35c9.45-20,10.18-42.44,16.11-63.42A87.19,87.19,0,0,1,351.61,108c.24-.61-.48-1.1-.85-.49-10.18,19.64-11,42.2-16.6,63.17a94.91,94.91,0,0,1-6.42,18.07C327.49,189.35,328.34,189.83,328.59,189.35Z" style="fill:#092777"/><path d="M375.85,238.21h-1.09c-2.67-6.79-5.45-13.7-8.12-20.49A314.73,314.73,0,0,1,356,184.86c-2.78-10.79-4.84-22-4.6-33.1a147.78,147.78,0,0,1,1.82-17.83c.72-4.73.85-9.45,1.21-14.3a71.63,71.63,0,0,1,1.7-12.49,91.14,91.14,0,0,1,5.45-15.89c.24-.6,1.09-.12.85.49a89.75,89.75,0,0,0-5.82,17.82A81.8,81.8,0,0,0,355.25,124a139.62,139.62,0,0,1-1.58,14.19,103.89,103.89,0,0,0-1.09,18.43c.49,11.28,2.91,22.55,6.06,33.34C363.13,206.57,369.67,222.33,375.85,238.21Z" style="fill:#092777"/><path d="M399,45.3a3.37,3.37,0,0,1,2.78,3.27c.37,3-1.21,8.12-4.36,7.4S399,45.3,399,45.3Z" style="fill:#e1695c"/><path d="M390.64,59.48A6.72,6.72,0,1,1,396.45,67,6.71,6.71,0,0,1,390.64,59.48Zm1.21.12a5.43,5.43,0,1,0,6.06-4.72A5.37,5.37,0,0,0,391.85,59.6Z" style="fill:#fff"/><path d="M364.58,76.7s4,8,12.85,9.46c11.27,1.94,12.72-2.91,12.72-2.91a20.57,20.57,0,0,1-.85-4.73V76.58a58.35,58.35,0,0,1,.49-6.06c.12-.49.12-1.09.24-1.7V68.7c-7.88-2.06-14.18-5.7-18.42-11.64l-1.21-.73-.73-.48-.12.48.12,1.46C370.15,64.82,368.46,70.4,364.58,76.7Z" style="fill:#ffb090"/><path d="M364.94,76.82a73.06,73.06,0,0,0,14.79,22c2.54,2.67,5.69,5.7,9.69,5.46a5.82,5.82,0,0,0,4.12-1.94A6.48,6.48,0,0,0,394.76,97a41.51,41.51,0,0,0-4.49-14.67c-.36-.61-1.21-.12-1,.61a40.8,40.8,0,0,1,4,11.76c.36,2.06,1,4.48-.24,6.42a4.65,4.65,0,0,1-4.49,2.07c-3.87-.13-6.9-3.64-9.33-6.19A76.62,76.62,0,0,1,372,87.74a82.33,82.33,0,0,1-6.3-11.52C365.67,75.61,364.7,76.22,364.94,76.82Z" style="fill:#110e0a"/><path d="M376.94,63.36c1.58,3.76,5.21,10.55,12.48,13.22,0-1.82.25-3.76.49-6.06.12-.49.12-1.09.24-1.7h-.48C385.3,69.06,380.7,66.76,376.94,63.36Z" style="fill:#e1695c"/><path d="M360.34,44.45c-.37,4.24,2.78,9.82,8.36,10.43h.12c.12.24.12.48.24.72s.12.25.12.37c2.79,7.51,12.73,12.73,18.3,13.34a14.52,14.52,0,0,0,3.76-.13c6.06-.72,7.76-8.61,7.39-14.79a9.35,9.35,0,0,0-.36-2.55v-.12s2.67-8.36,3.51-12c1.58-7.16-1.93-14.79-17.69-17.7s-20.36,6.66-21.93,11.76c-.25.85-.49,6.06.24,6.91C361.06,41.3,360.46,43,360.34,44.45Z" style="fill:#ffb090"/><path d="M396.33,48.57c-.24,1.09-.85,1.82-1.45,1.7s-.85-1.09-.61-2.18.85-1.82,1.46-1.7S396.57,47.48,396.33,48.57Z" style="fill:#110e0a"/><path d="M393.66,47.24l-.12-.12a.24.24,0,0,1,.12-.37c.13,0,3-1.45,5.09.49a.21.21,0,0,1,0,.36.22.22,0,0,1-.36,0c-1.82-1.7-4.36-.48-4.36-.48A.45.45,0,0,1,393.66,47.24Z" style="fill:#110e0a"/><path d="M386.88,46.63c-.24,1.09-.85,1.82-1.46,1.7s-.84-1.09-.6-2.18.85-1.82,1.45-1.7S387.12,45.54,386.88,46.63Z" style="fill:#110e0a"/><path d="M383.73,45.54a.12.12,0,0,1-.12-.12.24.24,0,0,1,.12-.37c.12-.12,2.78-1.81,5.09-.12a.46.46,0,0,1,.12.37.44.44,0,0,1-.36.12c-1.94-1.46-4.37.12-4.49.12Z" style="fill:#110e0a"/><path d="M368.7,54.88h.12c.12.24.12.48.24.72s.12.25.12.37a5.51,5.51,0,0,0,2.19-.61,3.55,3.55,0,0,0,1.21-1.09.61.61,0,1,0-1-.73,3.07,3.07,0,0,1-1.46,1.09,3.75,3.75,0,0,1-1,.25Z" style="fill:#e1695c"/><g style="opacity:0.5"><g style="opacity:0.5"><g style="opacity:0.5"><g style="opacity:0.5"><g style="opacity:0.5"><g style="opacity:0.5"><path d="M395.6,52.81c0,.61,1.34,1.22,3.16,1.46a9.36,9.36,0,0,0-.37-2.55C396.82,51.84,395.73,52.21,395.6,52.81Z" style="fill:#e1695c;opacity:0.5;isolation:isolate"/></g></g></g></g></g></g><path d="M363,51.84c.37.25.61.61,1,.85a5.7,5.7,0,0,0-3.51,4.37,5.43,5.43,0,1,0,10.78,1.33A5.58,5.58,0,0,0,367,52.33a1.22,1.22,0,0,1-.6-1.33h.36a6.72,6.72,0,1,1-7.51,5.82A6.86,6.86,0,0,1,363,51.84Z" style="fill:#fff"/><path d="M389.42,61.18a1.36,1.36,0,0,1-1.09-.73.3.3,0,0,1,.12-.48.31.31,0,0,1,.49.12,1.39,1.39,0,0,0,1.45.36c.12,0,.37,0,.37.25s0,.36-.25.36A4.16,4.16,0,0,1,389.42,61.18Z" style="fill:#e1695c"/><path d="M390.15,59c0-.12-.12-.12,0,0A4.06,4.06,0,0,1,387,56.45a.5.5,0,0,1,1-.24,3.09,3.09,0,0,0,2.3,1.82,3.35,3.35,0,0,0,2.79-.49.52.52,0,0,1,.73.73A5.54,5.54,0,0,1,390.15,59Z" style="fill:#e1695c"/><path d="M391.73,54.51H392l2.3-1.09c.12-.12.24-.24.24-.36a.94.94,0,0,0-.24-.49,7,7,0,0,1-2.79-5.21c0-.25-.24-.49-.48-.37s-.49.25-.36.49a8,8,0,0,0,2.54,5.33l-1.58.73a.45.45,0,0,0-.24.61C391.48,54.39,391.6,54.39,391.73,54.51Z" style="fill:#e1695c"/><path d="M387.48,41.78a1.17,1.17,0,0,0,1.94-1.21,3.24,3.24,0,0,0-1.69-1.7,8.75,8.75,0,0,0-7.64.12s4.49.73,6.3,2.06A1.9,1.9,0,0,1,387.48,41.78Z" style="fill:#110e0a"/><path d="M395.12,42.63a1.2,1.2,0,0,1-1.33-1.94,3,3,0,0,1,2.18-.85c4.36-.24,5.57,2.67,5.57,2.67a17.54,17.54,0,0,0-5.21-.24A2.35,2.35,0,0,0,395.12,42.63Z" style="fill:#110e0a"/><g style="opacity:0.5"><g style="opacity:0.5"><g style="opacity:0.5"><g style="opacity:0.5"><g style="opacity:0.5"><g style="opacity:0.5"><path d="M385.79,52c0,.72-1.94,1.21-4.12,1.09s-4-.85-3.88-1.58,1.94-1.21,4.12-1.09S385.79,51.24,385.79,52Z" style="fill:#e1695c;opacity:0.5;isolation:isolate"/></g></g></g></g></g></g><path d="M369.55,51.6c-.24,0-.37-.24-.49-.48C368.7,47,364,44.93,364,44.93a.58.58,0,0,1-.24-.72.58.58,0,0,1,.73-.25c.24.12,5.33,2.43,5.82,7.16a.56.56,0,0,1-.49.6A.37.37,0,0,0,369.55,51.6Z" style="fill:#e1695c"/><path d="M364.7,48.93c-.12,0-.12,0-.24-.12s-.37-.6-.12-.85A4,4,0,0,1,368,46.51c.37,0,.49.36.49.61s-.37.48-.61.48a2.67,2.67,0,0,0-2.54,1A.67.67,0,0,1,364.7,48.93Z" style="fill:#e1695c"/><path d="M382.39,30.38s.49,4.61-3.51,6.79a23.51,23.51,0,0,1-5.33,2.31s4.12,12.85-.73,14.18-3.15-12.12-10.3-13.09c0,0-2.55-.73-1.94-5.22s9.45-16.73,21.21-15,21.69,8.36,21.45,16.73-1.94,6.55-1.94,6.55,1.21-4.73-4.12-8.85C392.82,31.35,382.39,30.38,382.39,30.38Z" style="fill:#110e0a"/><path d="M231.88,89A10,10,0,0,0,217.82,91l-.12.24-.49.61-.48.73-1,1.33-1.94,2.79L211.39,100l-.48.73-1.09,1.58c-2.3,3.15-4.61,6.3-6.91,9.33a2.49,2.49,0,0,1-.48.61c-.25.24-.37.48-.61.73-1.33,1.69-2.67,3.51-4,5.09s-2.66,3.27-4.12,4.85c-.73.73-1.33,1.45-2.06,2.18A27.3,27.3,0,0,1,189.7,127c-.48.49-1,.85-1.33,1.21-.12,0-.24-.12-.49-.12-.72-.24-1.57-.6-2.42-1s-1.45-.6-2.18-1c-.12-.12-.24-.12-.49-.24s-.12-.12-.24-.12c-1.7-.85-3.51-1.82-5.33-2.91s-3.76-2.18-5.58-3.4l-5.09-3.27c-.24-.12-.6-.36-.84-.48-1.82-1.22-3.64-2.31-5.34-3.52l-5.69-3.76-2.91-1.94-1.46-1-.72-.49-.73-.48-.12-.12a6.44,6.44,0,0,0-8.36,9.58l.6.73.61.72,1.21,1.34c.85.85,1.58,1.82,2.42,2.66,1.58,1.7,3.28,3.52,5,5.22q5.1,5.09,10.55,9.82c1,.73,1.81,1.58,2.78,2.3s1.94,1.58,2.91,2.31,2.06,1.45,3,2.18c.25.24.61.36.85.61s.49.36.73.48c.6.37,1.09.73,1.69,1.09,1.1.73,2.31,1.34,3.52,2.06a29.16,29.16,0,0,0,4,1.94,32.6,32.6,0,0,0,5,1.7,7.11,7.11,0,0,0,1.57.24c.25,0,.61.13.85.13h3.76c.24,0,.48,0,.6-.13a5,5,0,0,0,.61-.12c.24,0,.36-.12.61-.12l.6-.12.24-.12.25-.12c.36-.12.6-.24,1-.37.12,0,.36-.12.48-.12s.24-.12.36-.12l.25-.12.12-.12.36-.12.73-.37.73-.36.36-.24.36-.24.61-.37a27.18,27.18,0,0,0,3.88-2.91,43.69,43.69,0,0,0,3.39-3.15l.85-.85,1.7-1.7A139,139,0,0,0,219,126.17c2.91-3.88,5.57-7.88,8.24-11.88,1.33-2.06,2.55-4,3.76-6.06.6-1,1.21-2.06,1.82-3.16l.84-1.57.49-.85.48-.85A10,10,0,0,0,231.88,89Z" style="fill:#fca133"/><path d="M208,139.15l-.85.85a38.7,38.7,0,0,0-4.84-28.13,2.49,2.49,0,0,1,.48-.61c.12.12.12.24.24.24A39.14,39.14,0,0,1,208,139.15Z" style="fill:#bd6500"/><path d="M183.28,125.81a10.81,10.81,0,0,1-.61,1.82,7.8,7.8,0,0,1-2.91,4.12,5.55,5.55,0,0,1-5.33-.12c-3.51-1.82-5.57-6.31-6.91-9.82a29.87,29.87,0,0,1-1.69-6.43,3,3,0,0,0,.85.49,37.34,37.34,0,0,0,1.45,5.33c1.21,3.4,3.27,7.88,6.67,9.7,4.24,2.31,6.54-1,7.87-5.45.12,0,.12.12.24.12S183.16,125.69,183.28,125.81Z" style="fill:#bd6500"/><path d="M196.61,147.76l-.24.12c-.12,0-.25.12-.37.12a18.73,18.73,0,0,0-24.84-6.06c-.24-.12-.49-.37-.73-.49a19.62,19.62,0,0,1,16.85-1.33A19.91,19.91,0,0,1,196.61,147.76Z" style="fill:#bd6500"/><path d="M228,91.62a16.76,16.76,0,0,1-13.33,9,14,14,0,0,1-3.88-.12l.48-.73a15.82,15.82,0,0,0,3.4.12,16,16,0,0,0,12.6-8.61C227.51,90.89,228.12,91.25,228,91.62Z" style="fill:#bd6500"/><path d="M188.73,128.11a13.16,13.16,0,0,1,4.12,8.61.37.37,0,1,0,.73,0,13.53,13.53,0,0,0-4.36-9.09A.35.35,0,1,0,188.73,128.11Z" style="fill:#110e0a"/><path d="M191.28,131.39c-.25,1.33-.61,2.79-.85,4.12-.12.49.6.61.73.24.24-1.33.6-2.79.84-4.12C192.13,131,191.4,130.9,191.28,131.39Z" style="fill:#110e0a"/><path d="M292.83,101.8v.73a1.58,1.58,0,0,1-.12.73,1.52,1.52,0,0,1-.12.72c0,.49-.12.85-.12,1.34a.44.44,0,0,1-.12.36c-.12,1.09-1.33,3-2.79,5.58a7.31,7.31,0,0,0-.48,1c-.12.12-.12.24-.24.36a.45.45,0,0,1-.13.25c-.12.24-.36.6-.48.84a1,1,0,0,0-.24.49c-.12.12-.12.24-.25.36s-.12.25-.24.49a13.32,13.32,0,0,1-.72,1.33c-.13.24-.37.61-.49.85-.36.73-.85,1.46-1.21,2.18-1.21,2.19-2.43,4.37-3.76,6.79l-.36.73c-.12.12-.12.24-.24.49s-.37.6-.49,1-.48,1-.73,1.45c-1.81,3.4-3.63,6.91-5.33,10.43l-.36.73a108.92,108.92,0,0,0-6.43,16.12,15.58,15.58,0,0,0-.48,1.94,1.58,1.58,0,0,0-.12.73,23.56,23.56,0,0,0-.61,3.88,38.6,38.6,0,0,0-.12,6.43v.73c0,.6.12,1.21.12,1.69a49.09,49.09,0,0,0,1.09,5.94,58.76,58.76,0,0,0,1.7,5.95,1.73,1.73,0,0,1,.24.84c1.21,3.4,2.31,5.7,2.79,6.79a1.32,1.32,0,0,0,.24.49c-.12.12-.24.12-.36.24a179.1,179.1,0,0,1-16.85,9.1l-.72.36a150.4,150.4,0,0,1-20.49,7.64c-.24.12-.48.12-.72.24-18.18,5.09-30.18,4.49-30.18,4.49s.36-8.25,4.73-24.5c.12-.24.12-.48.24-.72.36-1.46.85-3,1.33-4.73,0-.24.12-.37.12-.61v-.24c.25-.85.49-1.7.85-2.67.37-1.21.73-2.54,1.21-3.76.61-1.94,1.34-4.12,1.94-6.42.12-.25.12-.61.25-.85.72-2.55,1.33-5.22,1.94-7.88.12-.37.12-.85.24-1.22.36-1.82.72-3.63,1-5.33v-.12l.12-.61a62.73,62.73,0,0,0,.6-7.64v-1a3.38,3.38,0,0,0-.12-1.09L217,143c-.12-.37-.12-.61-.24-1-.37-1.21-.73-2.43-1.21-3.64a9.92,9.92,0,0,0-.49-1.21c-.12-.24-.24-.61-.36-.85a1.77,1.77,0,0,1-.25-.73c-.48-1.09-1-2.18-1.33-3.27a4.17,4.17,0,0,0-.48-1.09,25.45,25.45,0,0,1-1-2.91,3,3,0,0,1-.25-1,21.87,21.87,0,0,1-.84-4.73v-2.55a14.06,14.06,0,0,1,1.81-5.21c0-.12.13-.25.25-.37s.12-.12.12-.24a1.66,1.66,0,0,1,.36-.48c.12-.13.12-.25.24-.37,1.94-2.79,4.25-4.85,5.46-6.55a4.45,4.45,0,0,0,.85-2.18c0-.24.12-.48.12-.73a13.82,13.82,0,0,0,0-3.15,53.56,53.56,0,0,1-.25-7.64.68.68,0,0,1,.13-.48.75.75,0,0,1,.12-.49V92a2.88,2.88,0,0,1,.24-1,7.46,7.46,0,0,1,1.57-3.27l.73-.73a7.09,7.09,0,0,1,3.64-1.58c.24,0,.48-.12.72-.12,1.22-.12,2.55-.24,4-.36a2.67,2.67,0,0,0,1-.12c.25,0,.61-.13.85-.13l1.46-.36c.36-.12.72-.24,1.21-.36a40.88,40.88,0,0,0,7-3.4l7.75-1h1.22L264.72,78s1.33,1.21,3.39,3.15a2.7,2.7,0,0,0,.61.48,27.81,27.81,0,0,0,2.66,1.94c.25.12.61.37.85.49a45.94,45.94,0,0,0,4.24,2.18c.13.12.37.12.49.24h.12c.12.12.24.12.48.25,1,.36,2.06.84,3.16,1.21s1.93.73,2.66,1.09c.37.12.73.36,1.09.48s.37.25.61.37.24.12.36.12a.12.12,0,0,1,.12.12,1.59,1.59,0,0,1,.49.36c.12.13.24.13.36.25A16.07,16.07,0,0,1,288,91.86a12,12,0,0,1,2.78,2.79c.13.12.25.36.37.48v.12c.12.12.24.37.36.49l.37.73c.12.36.24.6.36,1a11.22,11.22,0,0,1,.48,1.94c0,.36.12.6.12,1Z" style="fill:#fca133"/><path d="M280.47,127.51c-.12.36-.36.6-.48,1a35.11,35.11,0,0,1-12.24,1.94c-9.45-.37-17.45-6.19-23.76-12.73a80.43,80.43,0,0,1-18.54-32.38c.25,0,.49-.12.73-.12a91.35,91.35,0,0,0,4.36,11.28,78,78,0,0,0,16,22.55,41.67,41.67,0,0,0,11.39,8.12,27.55,27.55,0,0,0,14.3,2.31A32.83,32.83,0,0,0,280.47,127.51Z" style="fill:#bd6500"/><path d="M227.76,170.31c-.73,6.31-3.64,12.25-9,15.88a21.2,21.2,0,0,1-11.64,3.88c.12-.24.12-.48.25-.72a20.59,20.59,0,0,0,12.72-5c9.57-8.49,9-24.13,1-33.47a29.68,29.68,0,0,0-4-3.76v-1C224.48,151.39,228.72,161.22,227.76,170.31Z" style="fill:#bd6500"/><path d="M238.42,201.59c-.12.49-.85.25-.73-.24a71.61,71.61,0,0,0,5.09-26.07,72.37,72.37,0,0,0-12.84-42.44A74.69,74.69,0,0,0,212,114.78c0-.13.12-.25.24-.37s.12-.12.12-.24a49.68,49.68,0,0,1,5.58,4.36,74,74,0,0,1,22.9,35.9A74.73,74.73,0,0,1,238.42,201.59Z" style="fill:#bd6500"/><path d="M218.91,97.92c.6,3.64-1.33,6.79-3.27,9.7a25.64,25.64,0,0,0-4.37,8.25,21.83,21.83,0,0,0,1.94,16.73c.24.36.85,0,.61-.36a21,21,0,0,1-1.21-18.07c2.18-5.46,8-9.82,6.9-16.25A.31.31,0,1,0,218.91,97.92Z" style="fill:#110e0a"/><path d="M273.2,140.48A23.36,23.36,0,0,0,257.81,148c-7.63,8.37-8,20.73-2.54,30.31a31,31,0,0,0,16.36,13.58,1.32,1.32,0,0,0,.24.49c-.12.12-.24.12-.36.24a36.6,36.6,0,0,1-6.91-3.39c-9.7-6.31-15.52-18.07-13.45-29.59,1.93-10.55,11.14-19.28,21.93-19.89C273.69,139.75,273.69,140.48,273.2,140.48Z" style="fill:#bd6500"/><path d="M289.56,111.38a7.31,7.31,0,0,0-.48,1c-.12.12-.12.24-.24.36a29.74,29.74,0,0,1-23.64,1.94,26.43,26.43,0,0,1-16.36-16.37,24.85,24.85,0,0,1,.73-18.67h.73a24.93,24.93,0,0,0,.36,21.58A25.82,25.82,0,0,0,268.84,115,29.22,29.22,0,0,0,289.56,111.38Z" style="fill:#bd6500"/><path d="M238.42,72.7s-7.76,2.79-11.51-1.82c-4.12-5.21,1.33-11,1.33-11s-9.09-3.16-10.54-8.49,5.09-7,5.09-7-8.85-2.67-6.43-8.73,7.52-6.19,7.52-6.19-4.24-7.15-1.58-11.4c3.88-6.3,10.3-3.27,10.3-3.27s-.12-5.94,5.34-6.67,7.27,3.52,7.27,3.52,3.39-9.1,10.42-4.49c3,1.94,3.51,5.94,3.51,5.94s6.18-4.24,11.4-.6,3.51,9.7,3.51,9.7,5.45-.73,8.6,2.66-1.09,10.67-1.09,10.67,4.37,3.52,4.12,9.1-5.93,5.94-5.93,5.94,4.84,8.12.6,11.88a13.27,13.27,0,0,1-9.21,3.28s1.94,4.6-5.09,7C258.78,75.25,238.42,72.7,238.42,72.7Z" style="fill:#110e0a"/><path d="M229.69,48.33s-2.42.36-2.78,3.51,1.45,8.25,4.6,7.52S229.69,48.33,229.69,48.33Z" style="fill:#722324"/><path d="M232.6,59.36a2.79,2.79,0,1,1-2.78-2.79A2.91,2.91,0,0,1,232.6,59.36Z" style="fill:#fca133"/><path d="M265.81,79.61s-3.88,8.25-13,10.07C241.33,92,239.75,87,239.75,87a30.29,30.29,0,0,0,.73-4.85V80.22c-.12-1.82-.24-3.88-.61-6.19-.12-.48-.12-1.09-.24-1.69v-.13c8-2.3,14.3-6.18,18.54-12.36l1.22-.73.84-.49.13.49-.13,1.45C259.75,67.61,261.69,73.31,265.81,79.61Z" style="fill:#c7614d"/><path d="M252.84,66.27c-1.45,3.88-5.09,10.92-12.36,13.83-.12-1.82-.24-3.88-.61-6.19-.12-.48-.12-1.09-.24-1.7h.49C244.48,72.34,249.08,69.91,252.84,66.27Z" style="fill:#110e0a"/><path d="M269.2,46.39c.49,4.36-2.54,10.06-8.24,10.91h-.12c-.12.24-.12.49-.24.73s-.12.24-.12.36c-2.67,7.76-12.73,13.34-18.42,14.19a11.25,11.25,0,0,1-3.88-.12c-6.18-.61-8.24-8.61-8-15a18.4,18.4,0,0,1,.24-2.67v-.12s-3-8.48-3.88-12.24c-1.69-7.28,1.58-15.28,17.58-18.56s21,6.31,22.78,11.52c.24.85.73,6.19-.12,7.16A4.34,4.34,0,0,1,269.2,46.39Z" style="fill:#c7614d"/><path d="M264.48,59.36a2.79,2.79,0,1,0-2.79-2.79A2.78,2.78,0,0,0,264.48,59.36Z" style="fill:#fca133"/><path d="M240.84,64.45c.73-.24,1-.84,1.09-.84s0-.37-.12-.49-.36,0-.48.12a1.57,1.57,0,0,1-1.46.61c-.24,0-.36.12-.36.24s.12.36.24.36A1.57,1.57,0,0,0,240.84,64.45Z" style="fill:#722324"/><path d="M239.75,62.39h0a4,4,0,0,0,2.79-3c0-.24-.12-.6-.36-.6s-.61.12-.61.36a3.06,3.06,0,0,1-2.06,2.18,3.23,3.23,0,0,1-2.79-.12c-.24-.12-.6-.12-.72.12s-.12.61.12.73C236.12,62.15,237.57,63.12,239.75,62.39Z" style="fill:#722324"/><path d="M232.72,52c.37,1.21,1.09,2.06,1.7,1.81s.85-1.21.49-2.42-1.1-2.06-1.7-1.82S232.36,50.75,232.72,52Z" style="fill:#110e0a"/><path d="M235.75,50.39l.13-.12c.12-.12,0-.37-.13-.49s-3.39-1.45-5.57.85a.38.38,0,0,0,0,.49.36.36,0,0,0,.48,0c1.94-1.94,4.85-.73,4.85-.73S235.63,50.51,235.75,50.39Z" style="fill:#110e0a"/><path d="M243,49.3c.36,1.21,1.09,2.06,1.69,1.82s.85-1.22.49-2.43-1.09-2.06-1.7-1.82S242.66,48.09,243,49.3Z" style="fill:#110e0a"/><path d="M246.66,48.09c.12,0,.12-.13.12-.13s0-.36-.12-.48-3.15-1.82-5.69.12a.36.36,0,0,0,0,.49.36.36,0,0,0,.48,0,4.22,4.22,0,0,1,4.85,0Z" style="fill:#110e0a"/><path d="M260.11,54a.94.94,0,0,0,.49-.49c.36-4.12,5-6.55,5.09-6.55a.62.62,0,0,0-.61-1.09c-.24.12-5.33,2.67-5.69,7.52a.56.56,0,0,0,.48.61Z" style="fill:#722324"/><path d="M265,51.12c.12,0,.12,0,.24-.12a.72.72,0,0,0,.12-.85,3.83,3.83,0,0,0-3.75-1.34c-.37,0-.49.37-.49.73s.37.49.73.49a3.08,3.08,0,0,1,2.67.84C264.48,51.12,264.72,51.24,265,51.12Z" style="fill:#722324"/><g style="opacity:0.5"><g style="opacity:0.5"><g style="opacity:0.5"><g style="opacity:0.5"><g style="opacity:0.5"><g style="opacity:0.5"><g style="opacity:0.5"><g style="opacity:0.5"><g style="opacity:0.5"><g style="opacity:0.5"><g style="opacity:0.5"><g style="opacity:0.5"><path d="M233.45,56c.12.6-1.33,1.33-3.15,1.57a18.13,18.13,0,0,1,.24-2.66C232.12,55,233.33,55.36,233.45,56Z" style="fill:#722324;opacity:0.5;isolation:isolate"/></g></g></g></g></g></g></g></g></g></g></g></g><g style="opacity:0.5"><g style="opacity:0.5"><g style="opacity:0.5"><g style="opacity:0.5"><g style="opacity:0.5"><g style="opacity:0.5"><g style="opacity:0.5"><g style="opacity:0.5"><g style="opacity:0.5"><g style="opacity:0.5"><g style="opacity:0.5"><g style="opacity:0.5"><path d="M243.39,54.88c.12.72,1.94,1.21,4.24,1s4-1,4-1.7-1.94-1.21-4.24-1S243.39,54.15,243.39,54.88Z" style="fill:#722324;opacity:0.5;isolation:isolate"/></g></g></g></g></g></g></g></g></g></g></g></g><path d="M261,57.3h-.12c-.12.24-.12.49-.24.73s-.12.24-.12.36a4.72,4.72,0,0,1-2.31-.6,3.84,3.84,0,0,1-1.33-1.1.59.59,0,0,1,.12-.84c.24-.25.61-.13.85.12a3.43,3.43,0,0,0,1.58,1.09,3.5,3.5,0,0,0,1.09.24Z" style="fill:#722324"/><path d="M248.12,38.51a15.71,15.71,0,0,1,5.09,1.09c.12.12,3.39,1.94,3.27,5.09s-.73,7.52,1.33,6.43a5.82,5.82,0,0,0,2.55-3.76,10.62,10.62,0,0,1,4.24-4.13c.12-5.69-.37-11.39-3.15-16.36-3.88-3.16-9.09-5.58-14.79-4.49-8.12,1.45-15.27,5.09-18.9,9.94a11.53,11.53,0,0,0-2.55,7.76c.48,8.49,2.18,6.67,2.18,6.67a6.67,6.67,0,0,1,0-2.06c0-1.09.12-2.79.24-5.46,0,0,3.15-3.63,6.06-2.66s6.55,3.51,9.94,2.78,5.09-1,5.09-1" style="fill:#110e0a"/><path d="M256.48,44.57a35.22,35.22,0,0,0-.25,5.58l1.94,4.36a19.54,19.54,0,0,1,3-7.27c1-1.58,1.34-3,3.4-4,1.69-4.72.36-9-1.58-13-6.06-1.33-14.9,4-16.48,5.09a7.77,7.77,0,0,0,1.09,2.91h.49a16,16,0,0,1,5.09,1.09C253.33,39.72,256.48,41.42,256.48,44.57Z" style="fill:#110e0a"/><path d="M261.57,30.14s4.12,4.61,2.91,13.1c0,0,2.78-1,4.12-.73s2.18-4.73.36-9.1-8.85-9.09-8.85-9.09S260.23,28.81,261.57,30.14Z" style="fill:#110e0a"/><path d="M237.45,57.54h-.24l-2.3-1.09c-.13-.12-.25-.24-.25-.36a.49.49,0,0,1,.25-.49,7.23,7.23,0,0,0,2.78-5.33.54.54,0,0,1,.49-.49.53.53,0,0,1,.48.49,8.62,8.62,0,0,1-2.54,5.58l1.57.72a.45.45,0,0,1,.25.61C237.69,57.42,237.57,57.54,237.45,57.54Z" style="fill:#722324"/><path d="M238.3,51.48a5.9,5.9,0,1,1,6.79,4.85A5.83,5.83,0,0,1,238.3,51.48Zm1-.12a5,5,0,1,0,4.12-5.7A4.8,4.8,0,0,0,239.27,51.36Z" style="fill:#fff"/><path d="M224.48,53.78a5.9,5.9,0,1,1,6.79,4.85A5.85,5.85,0,0,1,224.48,53.78Zm1-.12a5.12,5.12,0,0,0,5.7,4.13,5.06,5.06,0,0,0,4.12-5.7,5.12,5.12,0,0,0-5.7-4.13A5,5,0,0,0,225.45,53.66Z" style="fill:#fff"/><path d="M261.69,46.39l.36-.73a15.08,15.08,0,0,0-13.93.61l.48.85C255.14,43.24,261.57,46.39,261.69,46.39Z" style="fill:#fff"/><path d="M238.54,51.36l.49-.85a3.09,3.09,0,0,0-3.64.61l.73.6A2.11,2.11,0,0,1,238.54,51.36Z" style="fill:#fff"/><path d="M241.21,44.21a1.24,1.24,0,0,1-1.94-1.46,4.15,4.15,0,0,1,1.82-1.7,8.76,8.76,0,0,1,7.75.49s-4.6.48-6.54,1.69A4.17,4.17,0,0,1,241.21,44.21Z" style="fill:#110e0a"/><path d="M234.18,46c1.21.37,2.18-1.33,1.09-2.06a3.48,3.48,0,0,0-2.3-.6c-4.49.24-5.34,3.27-5.34,3.27a15,15,0,0,1,5.22-.73C233.45,45.9,233.81,46,234.18,46Z" style="fill:#110e0a"/><path d="M304.71,458.17s5.45,1.33,6.67,8.61,3.63,26,3.63,26l-2.66.36L310,486.67s.12,7.27-2.91,12.36-10.78,6.31-16,6.31-2.79-10.07-1.46-15.76,4-19,4-19Z" style="fill:#fa9f33"/><path d="M301.8,448s1.09,8.86,2.79,10.19,4.48,5.94,3.88,12.25-.49,15.4-3.52,19.64-12.24,5.7-13.45,2.79,2.67-15,2.18-20.86S292,450.17,292,450.17Z" style="fill:#c7614d"/><path d="M243.51,244c0,.37.12.73.12,1.09s.12.85.24,1.22.12.6.12,1,.13.72.13,1c1.09,6.55,2.3,13.58,3.63,20.37.12.36.12.73.24,1.09,0,.12.13.36.13.48.12.37.12.73.24,1,1.57,8.49,3,16.25,4.12,21.71.12.61.24,1.09.36,1.7,0,.24.12.48.12.72,1.09,5.7,2.55,12.37,4.24,19.65.13.36.13.6.25,1,.24,1,.48,2.06.72,3.15a3.31,3.31,0,0,1,.25,1.09c1.21,4.85,2.42,9.94,3.75,15.28v2.3c.12,1.46.25,3.52.49,6.19,0,.36.12.73.12,1,.48,4.12,1.21,9.33,2.54,15.64,0,.24.13.61.13.85v.12c.48,2.3,1.09,4.73,1.69,7.28.12.36.24.72.37,1.21.48,1.94,1.09,3.88,1.69,5.94.49,1.58,1.09,3.52,1.7,5.7.12.24.12.6.24.85,1.09,3.88,2.43,8.48,3.88,13.46.12.36.24.85.36,1.21.49,1.7,1,3.27,1.46,5,.12.24.12.61.24.85,1.82,6.43,3.76,13.22,5.57,19.76l.37,1.46c1.94,6.91,3.75,13.58,5.33,19.28.12.36.12.6.24,1,.61,2.06,1.09,3.88,1.58,5.7.12.36.24.85.36,1.21.85,3.27,1.7,6.06,2.18,8,1,.37,3.4.12,5.7-.72.12-.13.36-.13.48-.25s.13,0,.25-.12l.72-.36c.12,0,.12-.12.25-.12s.12-.12.24-.12a10.54,10.54,0,0,0,3.15-2.43V452c0-3.4,0-7.64.12-12.37v-1c.12-4.37.12-9.22.24-14.31V411.61c0-4.25-.12-9.34-.24-14.79v-1.58c-.24-6.43-.61-13.58-1.33-20.86,0-.36-.12-.72-.12-1a22.11,22.11,0,0,1-.25-3c0-.36-.12-.73-.12-1.09-.72-6.31-1.57-12.61-2.66-18.67-.12-.37-.12-.73-.25-1.09a19.06,19.06,0,0,0-.6-2.79c-.12-.37-.12-.61-.24-1-.85-4-1.82-7.89-2.91-11.52-.73-4-1.21-6.79-1.46-9.1v-1.69a51.91,51.91,0,0,1,.12-8.61c.13-3.76.37-7.4.37-10.92v-1c.12-2.66.12-5.21.12-7.64v-1.21c0-1.94-.12-3.76-.12-5.58-.12-1.57,0-3.63,0-6.18v-.85c.12-3.88.12-8.61-.24-14.19V266.1c-.13-1.82-.25-3.76-.49-5.7,0-.36-.12-.72-.12-1a159.78,159.78,0,0,0-2.79-15.88c-.12-.37-.12-.61-.24-1-.61-2.43-1.21-4.85-1.94-7.4-.12-.36-.24-.85-.36-1.21a109.68,109.68,0,0,0-3.64-10.67c-.12-.24-.24-.61-.36-.85-1.58-4.12-3.4-8.49-5.58-13.1l-6.78,2.31-1.22.36-8,2.67-.85.24L243.27,221l-1.46.49-.6.24c-.25-.36-.37,0-.37,1.21A3.44,3.44,0,0,0,241,224c.13.72.13,1.69.37,2.79A170.63,170.63,0,0,0,243.51,244Z" style="fill:#110e0a"/><path d="M302.41,452.35a14.9,14.9,0,0,1-10.67,1.46c-.72-.13-1.09,1-.36,1.09a15.81,15.81,0,0,0,11.51-1.58C303.74,453,303.14,452,302.41,452.35Z" style="fill:#5c544b"/><path d="M275.63,336.07a20.5,20.5,0,0,1-12.25,2.3c-.48,0-.36-.85.13-.73a19.74,19.74,0,0,0,11.75-2.3C275.75,335.22,276.11,335.82,275.63,336.07Z" style="fill:#5c544b"/><path d="M286.29,229.85s-6.79-28.38-18.3-46.69c0,0-33.81,14.8-60.59,6.79,0,0-6.55,13.1-6.06,52.75C201.21,242.82,270.54,261.25,286.29,229.85Z" style="fill:#110e0a"/><path d="M272.72,191.17s-1-6.55-5.34-10.55c-2.9.85-37.2,11.64-58.89,4.73a19.45,19.45,0,0,0-3.4,12.36C205.21,197.71,235.15,207.17,272.72,191.17Z" style="fill:#110e0a"/><path d="M272.23,192.5c-2.54,1-5.21,1.94-7.88,2.79-.24.12-.6.12-.84.24a121.63,121.63,0,0,1-57.93,3.15c-.61-.12-.37-1.09.24-1a121.75,121.75,0,0,0,57.2-3.15c.24-.12.61-.12.85-.24,2.79-.85,5.45-1.82,8.12-2.79C272.6,191.29,272.84,192.26,272.23,192.5Z" style="fill:#5c544b"/><path d="M261.69,182.44a22.71,22.71,0,0,1,3.76,12c0,.24-.25.36-.49.36.12-.24.12-.48.24-.72h.12c-.12.24-.12.48-.24.72-.48-.12-.24-.85.24-.72s.25.84-.24.72H265c-.48-.12-.24-.85.24-.72a1.66,1.66,0,0,1-.48.36,21.59,21.59,0,0,0-3.64-11.64A.35.35,0,1,1,261.69,182.44Z" style="fill:#5c544b"/><path d="M251.14,184.74a25.62,25.62,0,0,1,2.91,12.61.36.36,0,1,1-.72,0,23.81,23.81,0,0,0-2.91-12.25C250.3,184.74,251,184.38,251.14,184.74Z" style="fill:#5c544b"/><path d="M240.36,186.44a42.89,42.89,0,0,1,1.57,13.09.36.36,0,1,1-.72,0,46.08,46.08,0,0,0-1.46-12.85C239.63,186.19,240.24,186,240.36,186.44Z" style="fill:#5c544b"/><path d="M229.94,187.53a62.32,62.32,0,0,0-.49,12.61.37.37,0,0,1-.73,0,63.85,63.85,0,0,1,.49-12.73C229.33,186.92,230.06,187,229.94,187.53Z" style="fill:#5c544b"/><path d="M219.88,187.65a31.56,31.56,0,0,0-1.34,12.13.36.36,0,0,1-.72,0,32.23,32.23,0,0,1,1.33-12.25C219.39,186.92,220.12,187.16,219.88,187.65Z" style="fill:#5c544b"/><path d="M211.27,186.32a27.21,27.21,0,0,0-1.94,12.36.36.36,0,1,1-.72,0,27.26,27.26,0,0,1,1.94-12.49C210.79,185.71,211.39,185.83,211.27,186.32Z" style="fill:#5c544b"/><path d="M192.49,490.18c2.54-4.12,25.45-26.07,25.45-26.07s4.73,3.64,4.48,7.76c-.24,3.88,0,24-.12,26.19h-2.79l-1.57-9.21s-6.3,10.06-11,13.58-20.72,2.79-24.6,2.3S189.94,494.3,192.49,490.18Z" style="fill:#fa9f33"/><path d="M217.94,453.2l-.36,9.94a11,11,0,0,1,0,7.28c-1.34,4.36-6.19,11.27-10.79,16.37-4,4.48-12.6,8.85-15.15,7.64s4.85-10.07,7-14.68a86.09,86.09,0,0,0,4.73-13c1.21-4.37,1.33-14.79,1.33-14.79Z" style="fill:#c7614d"/><path d="M197.22,337.88v1c0,.48.12,1,.12,1.45s.12,1.33.24,2.06c0,.37.12.85.12,1.21.48,4.49,1,10.07,1.45,16.37a2.48,2.48,0,0,0,.13,1c.12,2.55.36,5.1.48,7.76a3.44,3.44,0,0,0,.12,1.1c.24,4.12.49,8.48.73,12.85v1c.24,3.51.36,7,.48,10.55v1.09c.12,3.39.37,6.91.49,10.31v1c.24,4.36.36,8.73.6,12.85v1.09c.13,2.79.25,5.58.37,8.25v1c.24,5.45.36,10.54.6,14.79v1.21c.12,2.43.12,4.49.25,6.31v1c.12,1.94.12,3.51.24,4.48,3,2.43,8.36,2.91,12.48,1.09.12,0,.12-.12.24-.12a.12.12,0,0,0,.12-.12c.13,0,.13-.12.25-.12l1.09-.73c.48-1.94,1.94-9.21,3.39-17.94,0-.25.12-.61.12-.85.24-1.46.49-3,.85-4.61.12-.36.12-.85.24-1.33.85-4.73,1.58-9.58,2.18-14.07,0-.36.13-.61.13-1s.12-1,.24-1.45c.48-3.28.85-6.79,1.21-10.55,0-.37.12-.73.12-1.09v-.13c.24-2.42.49-5.09.73-7.63a2.67,2.67,0,0,1,.12-1c.48-5.22.85-10.68,1.09-16.25v-1.09c0-1.46.12-3,.12-4.49v-1.09c.12-5.82.12-11.76-.12-17.71v-1.09a6.93,6.93,0,0,0-.12-1.57c.12-.85.36-1.82.48-2.67v-.24a5,5,0,0,1,.12-.61c1.58-7.76,3-13.34,4.25-18.92.12-.24.12-.6.24-.84.36-1.46.6-2.91,1-4.37a5.18,5.18,0,0,0,.24-1.33c.36-1.82.73-3.64,1.09-5.7.36-2.31,1-5,1.46-7.76,0-.25.12-.61.12-.85.85-4.37,1.69-9.1,2.3-13.82,0-.37.12-.85.12-1.22.12-1.21.24-2.3.36-3.51,0-.49.13-1.09.13-1.58a2.7,2.7,0,0,1,.12-1c.24-4.73.48-11.16.72-18.19v-1.09a25.58,25.58,0,0,1,.12-3v-1.09c.13-6.43.25-13.22.37-19.52v-4.37c0-6.91-.12-12.85-.24-16.85a14.29,14.29,0,0,0-.25-2.55,2.09,2.09,0,0,0-.12-.85h-.12l-18.66-4.36-.85-.25-5.94-1.33-1.33-.36-11.39-2.67-.37-.12V212c-.24,1.58-.85,6.43-1.33,12.13,0,.36-.12.6-.12,1-.37,4.24-.85,8.73-1,12.49v3.63c0,.73-.12,2.79-.24,5.7v1c-.12,3.88-.37,9.1-.73,14.8v1.09c-.12,1.94-.24,4-.36,6.06v1c-.25,5.82-.61,11.76-.85,17.22v1.09c-.12,1.21-.12,2.43-.24,3.64v1c-.37,7.39-.61,13-.73,14.31-.12,1.69-.12,3.51-.24,5.21v3.64A209.31,209.31,0,0,0,197.22,337.88Z" style="fill:#110e0a"/><path d="M218.91,450.77a13.77,13.77,0,0,1-14.3-.24c-.61-.36-1.21.61-.61,1a15.2,15.2,0,0,0,15.39.24A.55.55,0,1,0,218.91,450.77Z" style="fill:#5c544b"/><path d="M209.58,213.36a52.55,52.55,0,0,1-7.27,9.09c-.37.36-1-.24-.61-.61a61.7,61.7,0,0,0,7.15-8.85C209.21,212.51,209.94,213,209.58,213.36Z" style="fill:#5c544b"/><path d="M242.42,247.31a14.07,14.07,0,0,1-5.21-3.64,22,22,0,0,1-4.85-7.15c-.24-.49.61-.73.85-.25a22,22,0,0,0,4.73,6.79c1.33,1.34,2.9,2.91,4.84,3.4C243.15,246.58,243,247.43,242.42,247.31Z" style="fill:#5c544b"/><path d="M209.46,343.22a11.91,11.91,0,0,1-11.4-.73c-.36-.24,0-.85.37-.6a11.21,11.21,0,0,0,10.54.72C209.58,342.37,209.94,343,209.46,343.22Z" style="fill:#5c544b"/><path d="M301.56,444.59c0,2.43-.12,5-.24,7.4,0,.6-.85.48-.85-.12a410.61,410.61,0,0,0-1.58-56c-1-9.1-2.3-18.19-4.12-27.29-1.81-9.58-4.6-18.91-6.42-28.37s-2.06-19.16-2.06-28.74c0-6.91.12-13.82.12-20.73,0-14.31-.48-28.74-3-42.93a153.33,153.33,0,0,0-16.84-47.29c-1-1.69-1.94-3.39-2.91-5-.12-.24-.37-.6-.49-.85.25-.12.61-.12.85-.24.12.24.36.61.49.85a160.44,160.44,0,0,1,18.42,45.83c3.15,14.31,4.24,29,4.36,43.66.12,6.91,0,13.7-.12,20.61,0,9.21-.12,18.43,1,27.52,1.21,9.83,4.12,19.28,6.18,28.86,2.06,9.22,3.63,18.55,4.85,28A394.23,394.23,0,0,1,301.56,444.59Z" style="fill:#5c544b"/><path d="M239.87,246c-1,26.56-4,53-10.3,78.82-1.81,7.28-4.24,14.55-5.81,21.83-1.58,7.51-1.22,15-.85,22.55a280.74,280.74,0,0,1-1.34,45.11c-.84,7-2.06,13.94-2.78,21-.61,5.82-1.21,11.64-2.18,17.34-.13.61-1,.37-.85-.24.85-5.33,1.45-10.67,1.94-16,.6-5.69,1.45-11.39,2.3-17.09a257.59,257.59,0,0,0,2.18-45.35c-.24-7.52-1.09-15-.24-22.56.85-7.15,3.27-13.94,5.09-20.85a328.66,328.66,0,0,0,8.36-43.17c1.82-13.7,2.91-27.64,3.39-41.47C239,245.37,240,245.37,239.87,246Z" style="fill:#5c544b"/><path d="M259.87,208.87A48.64,48.64,0,0,0,275,226.21c.48.36-.12,1-.49.73a49.22,49.22,0,0,1-15.39-17.71C258.78,208.75,259.51,208.38,259.87,208.87Z" style="fill:#5c544b"/><path d="M269.69,82.52c-6.06,7.64-8.73,18-17.21,23.4a18.78,18.78,0,0,1-13,2.91,10.68,10.68,0,0,1-5.57-2.54,7.33,7.33,0,0,1-2.19-5.34c-.24-5.82,1.22-11.88,3.16-17.34.24-.6,1.21-.36,1.09.25A56.32,56.32,0,0,0,233.09,98c-.12,2.19-.37,4.61,1,6.43a9,9,0,0,0,5.69,3.15,17.48,17.48,0,0,0,12.73-3,30.85,30.85,0,0,0,8.6-9.94c2.55-4.37,4.73-9,7.88-13C269.44,81.31,270.17,82,269.69,82.52Z" style="fill:#fff"/><path d="M265.08,195.29a74.88,74.88,0,0,1,12.61-70.94c.36-.48-.25-1.21-.73-.72a75.92,75.92,0,0,0-16.48,54.56,70.34,70.34,0,0,0,3.75,17.22C264.35,196.14,265.32,195.9,265.08,195.29Z" style="fill:#110e0a"/><path d="M282.9,225.36s-5.46,5.58-6.55,8,4,7.64,5.33,6.55,1.22-14.06,1.22-14.06Z" style="fill:#c7614d"/><path d="M251.14,316.42h81.69a4,4,0,0,0,4-4V252.88a4,4,0,0,0-4-4H251.14a4,4,0,0,0-4,4v59.54A4,4,0,0,0,251.14,316.42Z" style="fill:#134eaa"/><path d="M248.36,281.74h87.38a.73.73,0,0,0,0-1.45H248.36a.78.78,0,0,0-.73.73A.64.64,0,0,0,248.36,281.74Z" style="fill:#110e0a"/><path d="M330.28,281.74A.78.78,0,0,0,331,281V249.85a.73.73,0,0,0-1.45,0V281C329.43,281.5,329.8,281.74,330.28,281.74Z" style="fill:#110e0a"/><path d="M253.57,281.74a.78.78,0,0,0,.73-.72V249.85a.73.73,0,0,0-1.46,0V281A.7.7,0,0,0,253.57,281.74Z" style="fill:#110e0a"/><path d="M316.35,287.56h4.48a.78.78,0,0,0,.73-.72v-11.4a.79.79,0,0,0-.73-.73h-4.48a.78.78,0,0,0-.73.73v11.4A.78.78,0,0,0,316.35,287.56Z" style="fill:#fca133"/><path d="M262.66,287.56h4.48a.78.78,0,0,0,.73-.72v-11.4a.78.78,0,0,0-.73-.73h-4.48a.78.78,0,0,0-.73.73v11.4A.78.78,0,0,0,262.66,287.56Z" style="fill:#fca133"/><path d="M307.74,316.18a.79.79,0,0,0,.73-.73V281a.73.73,0,1,0-1.46,0v34.43A.65.65,0,0,0,307.74,316.18Z" style="fill:#110e0a"/><path d="M276.35,316.18a.78.78,0,0,0,.73-.73V281a.73.73,0,1,0-1.45,0v34.43A.69.69,0,0,0,276.35,316.18Z" style="fill:#110e0a"/><path d="M276.84,233.73H281a5,5,0,0,1-.61,3.27h-1.94v11.64a1.58,1.58,0,1,1-3.15,0V235.3A1.6,1.6,0,0,1,276.84,233.73Z" style="fill:#fca133"/><path d="M302.29,237h1.33v11.64a1.58,1.58,0,1,0,3.15,0V235.3a1.6,1.6,0,0,0-1.57-1.57h-3.88Z" style="fill:#fca133"/><path d="M309.32,165.7c0,1.58-.12,3-.12,4.49l-.37,4.85a18.33,18.33,0,0,0-.24,2.55c0,.36-.12.6-.12,1-.73,5.45-1.58,10.91-2.55,16.24-.72,4-1.57,7.89-2.42,11.89,0,.24-.12.48-.12.72-.24,1.1-.49,2.19-.73,3.28-.61,2.42-1.09,4.85-1.7,7.39,0,.13-.12.37-.12.49l-.12.24-1,3.64-1.09,3.88a7.12,7.12,0,0,1-13.94-2.79v-.12l.49-3.88.48-3.88c.25-1.58.37-3.27.61-4.85,0-.36.12-.73.12-1.21s.12-1.22.24-1.82c.12-1.34.37-2.67.49-4,0-.37.12-.61.12-1,.36-3.52.85-7,1.21-10.55.49-5.22,1-10.31,1.21-15.4.12-2.55.25-5,.25-7.4v-1a16.57,16.57,0,0,0-.13-2.54c-.12-1.1-.12-2.19-.24-3.16l-.12-.6v-.49l-.36-1.58c-.37-1.21-.61-2.42-1-3.63-.73-2.43-1.46-4.85-2.18-7.28s-1.58-5-2.31-7.39-1.69-5-2.42-7.4c-.48-1.58-1-3-1.58-4.61-.36-1-.6-1.94-1-2.79-.85-2.42-1.7-5-2.55-7.39L271,104.83v-.12A11.69,11.69,0,0,1,275.75,91a2.36,2.36,0,0,0,.72-.49,12.8,12.8,0,0,1,1.82-.84,11.53,11.53,0,0,1,7.27-.13,11.83,11.83,0,0,1,6.06,4.25c.12.24.24.36.37.6a18.46,18.46,0,0,1,1.33,2.67v.12l1.21,3.88.36,1.22.25.72.6,1.94c.85,2.55,1.58,5.1,2.31,7.64s1.45,5.1,2.3,7.76,1.45,5.22,2.18,7.76c.48,1.82,1,3.76,1.45,5.58.13.49.25.85.37,1.33s.12.61.24,1c.48,2.07,1.09,4.13,1.58,6.31,0,.24.12.49.12.73s.12.6.24,1c.6,2.67,1.21,5.33,1.7,8,.24,1.33.48,2.79.72,4.12l.12,1.09.13.49.12.73v.72l.12.73c0,.49.12.85.12,1.34A28,28,0,0,0,309.32,165.7Z" style="fill:#fca133"/><path d="M303.86,134.9c-2.54-2.42-5.09-5-7.51-7.51a80,80,0,0,1-7-8.49,17.52,17.52,0,0,1-1.94-3.64c0-.12-.12-.24-.12-.36a10,10,0,0,1-.61-5.34,8.31,8.31,0,0,1,5.21-6.55,7.84,7.84,0,0,0,1-.36H293l1.57-.36.24.72a10.14,10.14,0,0,0-1.81.49h-.13a9.77,9.77,0,0,0-2.3,1.09c-3.15,2.18-3.76,6.06-2.66,9.46,0,.12.12.24.12.36a6.17,6.17,0,0,0,.6,1.58c1.82,3.64,4.73,6.79,7.52,9.82,2.42,2.67,5,5.21,7.51,7.76A6.27,6.27,0,0,0,303.86,134.9Z" style="fill:#bd6500"/><path d="M276.23,121.69a15.32,15.32,0,0,1,2.55,2.3,19.5,19.5,0,0,1,1.94,2.3,29.38,29.38,0,0,1,6,15.65,36.53,36.53,0,0,1-.48,9.7c.12.48.24,1.09.36,1.57,2.06-9.58.49-20-5.57-27.52a21.18,21.18,0,0,0-2.79-2.91c-.6-.49-1.21-1.09-1.82-1.58C276.23,120.84,275.87,121.44,276.23,121.69Z" style="fill:#bd6500"/><path d="M271.87,109.08c1.82,5,3.39,9.94,4.72,15,.13.61,1.1.49,1-.12-1.45-5.21-3-10.31-4.84-15.28C272.47,108.11,271.63,108.59,271.87,109.08Z" style="fill:#110e0a"/><path d="M308.71,175a18.33,18.33,0,0,0-.24,2.55,42.69,42.69,0,0,0-1.58-6.79,59.63,59.63,0,0,0-5.81-13c-1.94-3.27-5.22-7.15-3.4-11.15,1.46-3.16,4.61-4.25,7.88-4.61,0,.24.12.48.12.73-3.39.36-6.91,1.57-7.76,5.21-.6,2.55.85,5,2.06,6.91s2.31,3.76,3.4,5.7A53.39,53.39,0,0,1,308.71,175Z" style="fill:#bd6500"/><path d="M297,184.25c-.72,6.67-2.9,14.19-8.36,18.56l-1.45,1.09c0-.37.12-.61.12-1,3.88-2.79,6.54-7.76,7.76-12.37,1.93-6.91,2.66-17.58-5.22-21.1a.12.12,0,0,1-.12-.12v-.85h.12C295.86,171.16,297.56,178.19,297,184.25Z" style="fill:#bd6500"/><path d="M303.38,206.69c0,.24-.12.48-.12.72a16.43,16.43,0,0,0-9.94-.72,15.83,15.83,0,0,0-7,4.12c0-.36.12-.73.12-1.21a15.64,15.64,0,0,1,6.67-3.64A16.62,16.62,0,0,1,303.38,206.69Z" style="fill:#bd6500"/><path d="M300.71,218c0,.12-.12.37-.12.49l-.12.24a12.77,12.77,0,0,0-5.09,1.82,15.65,15.65,0,0,0-7,10.19,3.47,3.47,0,0,1-.61-.37A16.1,16.1,0,0,1,295,219.9,19.87,19.87,0,0,1,300.71,218Z" style="fill:#bd6500"/><path d="M291.38,94.28l-.36.37c-2.55,2.42-5.58,4-9.34,3.27a7.62,7.62,0,0,1-6.18-5.33c0-.13-.12-.25-.12-.37a4.15,4.15,0,0,1-.12-1.21,10.33,10.33,0,0,1,1.09-5c.12.12.37.12.49.24H277a10.41,10.41,0,0,0-1.09,4.24,3.44,3.44,0,0,0,.12,1.1V92a7.13,7.13,0,0,0,6.66,5.46c3.16.24,5.7-1.22,7.88-3.28l.37-.36C291.14,93.92,291.26,94.16,291.38,94.28Z" style="fill:#bd6500"/><path d="M297.68,162.91a14.61,14.61,0,0,0-7.63,2.67c-.37.24-.73-.36-.37-.6a15.86,15.86,0,0,1,8-2.79A.36.36,0,1,1,297.68,162.91Z" style="fill:#110e0a"/><path d="M295.26,160.85a18.1,18.1,0,0,0-3,3c-.24.37-1,0-.61-.36a16.6,16.6,0,0,1,3.27-3.27C295.26,160,295.62,160.61,295.26,160.85Z" style="fill:#110e0a"/><path d="M299.38,223.91s3.88,11.15,4,13.82-2.91,7.64-4,8.73-2.55-.73-2.55-.73-1.81,1.82-3.15,1.58-1.21-1.82-1.21-1.82-2.18,2.18-3.63,1.94-1.1-1.94-1.1-1.94-1.57,2.91-3.15,2.06-3.27-4.24-3.63-6.55a66.48,66.48,0,0,1,0-7.15s.12-8.37,3.39-10.67C287.62,220.51,299.38,223.91,299.38,223.91Z" style="fill:#c7614d"/><path d="M120.5,14.86C106.56-.66,80.87,6.25,76.15,26.62c0,.12-.13.37-.13.49C72.15,44.81,83.54,68,72.27,87.74s-25,42.31-5.21,53.23,42.78-16.13,62.77-13.83,9.94-39.4,3.88-47-8.48-14.68-8.24-21.59,3.51-25.58.85-33.83A30.2,30.2,0,0,0,120.5,14.86Z" style="fill:#009580"/><path d="M132.74,164.61c1.94-2.54,3.88-5,5.7-7.64,2.18-3,4.24-6.18,6.18-9.33s3.76-6.43,5.45-9.7c.85-1.58,1.7-3.28,2.43-5,0-.12.12-.24.12-.36a9.93,9.93,0,0,0-.85-1.45q-1.64-2.55-3.64-5.46c-2.66-3.64-5.69-7.28-8.72-10.91s-6.3-7.16-9.58-10.67c-1.57-1.82-3.27-3.52-5-5.22l-2.54-2.54L121.11,95,119.9,93.8l-.13-.12A10.12,10.12,0,0,1,134.2,79.49l1.33,1.33,1.33,1.34,2.67,2.67c1.7,1.81,3.51,3.63,5.21,5.45,3.39,3.64,6.79,7.52,10.06,11.28s6.54,7.88,9.69,12.12a77,77,0,0,1,4.61,6.92c.73,1.21,1.45,2.54,2.18,4a27.41,27.41,0,0,1,2.06,5.21,9.34,9.34,0,0,1-.61,7V137a.37.37,0,0,0-.12.24l-.12.24-.24.36-.48.73a15,15,0,0,1-.85,1.34c-.61.84-1.21,1.81-1.82,2.66l-3.64,5.1c-2.42,3.27-5.09,6.54-7.75,9.57s-5.46,6.07-8.24,9-5.82,5.7-8.73,8.36Z" style="fill:#ffb090"/><path d="M160,129.21a11.34,11.34,0,0,0-7,3.63c-.36.37-1-.12-.61-.48a12.27,12.27,0,0,1,7.52-3.88A.37.37,0,1,1,160,129.21Z" style="fill:#e1695c"/><path d="M157.1,126.66c-.85,1.45-1.7,2.79-2.42,4.24-.24.37-1,.12-.73-.36.85-1.46,1.7-2.79,2.42-4.24C156.74,125.93,157.46,126.3,157.1,126.66Z" style="fill:#e1695c"/><path d="M118.56,289.26c-.36,7.4-1.09,16-2.06,25.95-.48,5.09-1.09,10.43-1.69,16,0,0,2.3,16-1.58,41.83-2.67,18.55-10.06,73.24-11.88,87.67-3.87,4.12-5.93,2.79-11.39-2.55-1-9-4.72-32.37-5.94-45.83-1.81-19-9.93-61.36,0-78-1.33-6.91-2.66-13.46-3.87-19.52-1.94-10-3.4-18.8-4.13-26.32-1-10.54-.72-18.79,1.82-24.85l39,.72C119.05,260.52,119.65,270.22,118.56,289.26Z" style="fill:#ffb090"/><path d="M89.23,460.84s-5.33,2.18-5.45,9.58,0,26.67,0,26.67h2.67l1.45-6.79s1,7.4,4.61,12.13,11.75,4.85,17.08,4.12,1.34-10.55-.72-16.13-6.67-18.67-6.67-18.67Z" style="fill:#de4c36"/><path d="M90.69,450.17s.12,9.09-1.46,10.67-3.75,6.67-2.18,13,2.67,15.4,6.31,19.4,13.2,4,13.93,1-4.85-14.79-5.09-20.85-1.33-22.19-1.33-22.19Z" style="fill:#ffb090"/><path d="M117,311.21c.72-8.25,1.33-15.64,1.69-22.07l-42.29-.61c.6,6.19,1.7,13.1,3,20.74C83.9,310.85,105.84,312.18,117,311.21Z" style="fill:#e1695c"/><path d="M101.23,333.4a21.42,21.42,0,0,0,12.61.61c.48-.13.24-.85-.25-.73a20.09,20.09,0,0,1-12.24-.61C101,332.55,100.87,333.28,101.23,333.4Z" style="fill:#e1695c"/><path d="M160.86,336.79c-3.52,27-7.27,108-7.88,121-3.63,2.79-7.51,3.15-11.88,0-.84-3.76-6.54-27.53-8.72-43.17-2.3-17-11.64-49-1.82-65.48-3.64-12-7-22.55-9.21-34.68a145.5,145.5,0,0,1-2.18-25.34,205.83,205.83,0,0,1,1.7-25.83l36.23-2.54s2.06,12.73,3.39,29c.37,4.73.73,9.94,1,15A173.64,173.64,0,0,1,160.86,336.79Z" style="fill:#ffb090"/><path d="M166,489.58C163.4,485.33,140,463,140,463s-4.72,3.76-4.48,7.88c.24,3.88,0,24.5.12,26.68h2.79l1.57-9.46s6.43,10.31,11.27,13.82,21.21,2.91,25.09,2.43S168.49,493.82,166,489.58Z" style="fill:#de4c36"/><path d="M140,451.87l.37,10.06a11.62,11.62,0,0,0,0,7.52c1.33,4.48,6.3,11.52,11,16.73,4.12,4.49,12.84,9,15.39,7.88s-5-10.18-7.15-14.91a89.12,89.12,0,0,1-4.85-13.22c-1.21-4.49-1.33-15-1.33-15Z" style="fill:#ffb090"/><path d="M120.87,310.6a143.06,143.06,0,0,1-1.58-21.34l41.45.61c.36,4.73.72,9.7,1,14.79C161.59,304.66,147.77,308.3,120.87,310.6Z" style="fill:#e1695c"/><path d="M148.62,339.7a12.11,12.11,0,0,0,11.51-.72c.36-.25,0-1-.36-.61a11.4,11.4,0,0,1-10.79.73C148.62,338.86,148.13,339.46,148.62,339.7Z" style="fill:#e1695c"/><path d="M175.64,291.32a139.67,139.67,0,0,1-28,9.1c-.24.12-.61.12-.85.24a181,181,0,0,1-18.54,3c-.37,0-.61.12-1,.12a132.84,132.84,0,0,1-43.15-2.67c-.24-.12-.48-.12-.72-.24a110.59,110.59,0,0,1-23-8.36s3.76-14.07,8.61-33.11c.12-.24.12-.48.24-.72,1.57-6.07,3.27-12.74,4.85-19.53.12-.36.12-.6.24-1,1.94-7.76,3.88-15.76,5.69-23.52a8.39,8.39,0,0,0,.25-1c1.09-4.73,2.18-9.22,3.15-13.7,0-.24.12-.49.12-.73,1.33-6.06,2.66-11.76,3.76-17.1,0-.24.12-.6.12-.85,2.42-12,4-21.22,3.63-24.73a54.24,54.24,0,0,0-1.33-6.79,117.51,117.51,0,0,0-8-19.28,2.72,2.72,0,0,0-.36-.61c-3.27-6.42-6.79-12.85-9.82-18.31-.12-.24-.24-.36-.36-.6-.37-.61-.61-1.09-1-1.58-.12-.24-.37-.61-.49-.85l-1.09-1.82c-2.42-4.36-4.6-7.52-4.85-9.09a25.35,25.35,0,0,1-.36-6.06c0-.37.12-.61.12-1A12,12,0,0,1,64,88.58a9.28,9.28,0,0,1,.36-1c1.21-2.54,3.39-4.85,7.51-6.91.37-.12.73-.36,1.1-.48s.6-.24.84-.37a1.79,1.79,0,0,1,.73-.24,8.34,8.34,0,0,0,1.21-.48,50.06,50.06,0,0,0,8.73-4c.24-.12.6-.36.85-.48,5-3.15,5.93-5.7,5.93-5.7l24,2.79a43.91,43.91,0,0,0,7.15,3.39c.36.13.85.25,1.21.37a11.29,11.29,0,0,0,3.4.61c1,.12,1.94.12,2.9.24a1.54,1.54,0,0,1,.73.12,8.53,8.53,0,0,1,5,1.82l.73.73A10.27,10.27,0,0,1,138,82.28a4.35,4.35,0,0,1,.25,1.21c0,.37.12.73.12,1a53.22,53.22,0,0,1-.25,7.76,15,15,0,0,0,.13,4.12,7.28,7.28,0,0,0,.24.85,3.86,3.86,0,0,0,.6,1.22c1,1.33,2.55,2.78,4.12,4.72a2.23,2.23,0,0,0,.49.61l1.09,1.46c.12.12.12.24.24.36s.24.36.37.61.12.12.12.24a14.6,14.6,0,0,1,1.94,5.7c0,.24.12.6.12,1v1.7a23,23,0,0,1-.85,4.85c-.12.36-.12.6-.24,1-.37,1-.61,1.94-1.09,3a5,5,0,0,1-.49,1.09c-.48,1.21-1,2.3-1.45,3.51-.12.25-.12.37-.25.61a38.56,38.56,0,0,0-2.06,5.82c-.12.36-.12.61-.24,1a13.31,13.31,0,0,0-.36,2.31,40.14,40.14,0,0,0,.48,9.7c0,.24.12.48.12.72a53.16,53.16,0,0,0,1.09,5.58c.13.36.13.85.25,1.21v.25c0,.24.12.48.12.72.85,3.52,1.7,7,2.66,10.31.13.24.13.49.25.73.36,1.21.72,2.42,1.09,3.64,1,3.15,2.3,7.51,3.63,12.61.12.24.12.6.25.84,4,15.16,9.09,37.11,13.69,57.12a5.2,5.2,0,0,0,.12.6c1.33,5.94,2.67,11.76,3.88,17.1,0,.24.12.48.12.73.61,2.91,1.33,5.82,1.82,8.36,0,.25.12.49.12.73C173.7,282.23,175.64,291.32,175.64,291.32Z" style="fill:#110e0a"/><path d="M138.92,97.19a12.78,12.78,0,0,1-5.45-4,17.32,17.32,0,0,1-3.39-9.09,27.33,27.33,0,0,1,.36-7.76,1.58,1.58,0,0,1,.73.12,24.63,24.63,0,0,0,.72,12.25,12.71,12.71,0,0,0,6.91,7.63A1.07,1.07,0,0,0,138.92,97.19Z" style="fill:#5c544b"/><path d="M103.78,153.7c3.75,7.27-2.31,14.55-6.55,19.88a33.36,33.36,0,0,1-9.69,8.73c0-.24.12-.6.12-.84,4.6-2.67,8.48-7.52,11.51-11.52,2.3-3,4.61-6.43,5-10.31a8.66,8.66,0,0,0-4.36-8.85c-1.21-.73-2.67-1.46-3.4-2.67a5.15,5.15,0,0,1-.36-4c1-3.52,4.36-5.34,6.91-7.76s4.48-7.52.61-9.7c-3.16-1.82-7.76-.61-11,.12a48.94,48.94,0,0,0-10.67,3.88,2.72,2.72,0,0,0-.36-.61,46.64,46.64,0,0,1,14.9-4.73c3-.48,6.91-.6,8.85,2.07s.73,6.3-1.21,8.6c-2.55,3.16-7.76,5.1-7.76,9.83,0,2.54,1.94,3.51,3.88,4.6A7.41,7.41,0,0,1,103.78,153.7Z" style="fill:#5c544b"/><path d="M142.07,127a12.9,12.9,0,0,0,1.82,1c-.12.24-.12.37-.24.61a13,13,0,0,1-4.24-3,14.12,14.12,0,0,1-3.88-9.58,14.6,14.6,0,0,1,8.12-13,2,2,0,0,0,.48.61,17.31,17.31,0,0,0-5.33,4.49A13.48,13.48,0,0,0,142.07,127Z" style="fill:#5c544b"/><path d="M105.72,84.34c-.73,3.15-3.4,5.58-6.31,6.79-3.63,1.46-7.51.85-11-.61A40.63,40.63,0,0,1,78,83.37c-1.33-1.21-2.54-2.42-3.75-3.76a1.71,1.71,0,0,1,.72-.24c1.22,1.21,2.43,2.42,3.76,3.64,5.21,4.73,12.6,10.3,20,7.64,3-1.1,5.81-3.52,6.42-6.79.73-4-2.18-7.64-4.48-10.43-.25-.37.24-.85.48-.49C103.78,76.09,106.81,80,105.72,84.34Z" style="fill:#5c544b"/><path d="M141.59,148.12a29.1,29.1,0,0,1-7.52-3.76c-11.27-7.64-17.2-20.49-27.26-29.34-5.58-4.85-12.49-7.88-20-7.64a33.09,33.09,0,0,0-15,4.24c-.12-.24-.24-.36-.36-.6a32.43,32.43,0,0,1,16.48-4.25,29.89,29.89,0,0,1,18.79,7.4c5.21,4.36,9.33,9.94,13.45,15.28s8.72,10.79,14.54,14.67a29.33,29.33,0,0,0,6.79,3.39A6,6,0,0,1,141.59,148.12Z" style="fill:#5c544b"/><path d="M143,156a25.61,25.61,0,0,0-10.3,3.15c-10.66,5.7-16.72,16.62-24,25.71-6.18,7.64-14.91,15-25.09,15.16,0-.24.12-.49.12-.73,5.58-.12,10.67-2.55,15.15-5.82,9.82-7.28,15.27-18.67,23.63-27.4,5.21-5.46,12.61-10.31,20.36-10.92A2.42,2.42,0,0,1,143,156Z" style="fill:#5c544b"/><path d="M146,166.92a24.72,24.72,0,0,0-8.12,4.6,35.72,35.72,0,0,0-9.94,14.55,158.52,158.52,0,0,0-5,16.37,109.63,109.63,0,0,1-5.22,15,79.89,79.89,0,0,1-17.33,25.22,64.61,64.61,0,0,1-26.54,15.52A30.41,30.41,0,0,1,69,259.31c.12-.24.12-.48.24-.73a55.18,55.18,0,0,0,15-5.21c18.42-9.22,30.66-27.28,36.72-46.56,3.15-9.94,4.72-20.86,10.78-29.59,3.4-4.85,8.36-9.09,13.94-10.91A2,2,0,0,1,146,166.92Z" style="fill:#5c544b"/><path d="M105.84,214.08a51.9,51.9,0,0,1-6.43,7.16,98.51,98.51,0,0,1-25.08,17.82c.12-.36.12-.6.24-1a91.62,91.62,0,0,0,10.06-5.82,98.06,98.06,0,0,0,14.18-11.4,66,66,0,0,0,6.3-6.79c.85-1.21,1.82-2.91,1.33-4.48a3.37,3.37,0,0,0-3.27-2.31c-2.79-.24-5.57.85-8.24,1.58-3,1-6.06,2.06-9,3.27-1.94.85-3.75,1.7-5.69,2.55.12-.24.12-.61.24-1A79.62,79.62,0,0,1,89.36,210a75,75,0,0,1,10-3.15c2.06-.49,4.61-.73,6.31.6C107.9,209.11,107.17,212.14,105.84,214.08Z" style="fill:#5c544b"/><path d="M164.74,241.85a20,20,0,0,1-14.43-1.7c-6.54-3.63-9.93-11-11.15-18.18-2.3-13.71,2.55-28.14,11.4-38.81.12.25.12.61.24.85a49.72,49.72,0,0,0-9.21,16.86c-2.43,7.51-3.15,16-1.21,23.64,1.81,7.28,6.42,14.31,13.93,16.37a21.67,21.67,0,0,0,10.06.12A1.69,1.69,0,0,1,164.74,241.85Z" style="fill:#5c544b"/><path d="M168.74,259.55c-1,.13-2.06.25-3,.37a36,36,0,0,1-12.49-1.09c-4.48-1.22-8.48-3.52-12.48-5.82-4.6-2.55-9.33-4.73-14.66-4.61-5.7.12-11.15,2.3-16.12,4.85a103.36,103.36,0,0,0-41.81,39.53c-.24.36-.85,0-.61-.37A101.15,101.15,0,0,1,88,267.56a96.27,96.27,0,0,1,24-16c4.72-2.18,9.69-3.88,14.9-3.76,5,.12,9.34,2.06,13.58,4.37s8.48,4.85,13.21,6.18a35.87,35.87,0,0,0,13,1c.6-.12,1.21-.12,1.81-.24C168.61,259.07,168.61,259.31,168.74,259.55Z" style="fill:#5c544b"/><path d="M170.8,268.77a21.53,21.53,0,0,0-4.61,3.39,69.1,69.1,0,0,0-18.42,28.26c-.24.12-.61.12-.85.24.24-.61.49-1.33.73-1.94a78.3,78.3,0,0,1,12.12-20.86c2.91-3.51,6.54-7.64,10.9-9.94A1.7,1.7,0,0,0,170.8,268.77Z" style="fill:#5c544b"/><path d="M133.35,294.84a53.72,53.72,0,0,1-5,8.85c-.36,0-.61.12-1,.12a49.4,49.4,0,0,0,6.18-11.4,29.61,29.61,0,0,0,2.55-11.64,9.5,9.5,0,0,0-6.79-9.21c-4.24-1.34-8.73-.12-12.61,1.7a85.17,85.17,0,0,0-10.3,5.82A82.93,82.93,0,0,0,84.27,301c-.25-.12-.49-.12-.73-.24a78.9,78.9,0,0,1,8-9.94,81.05,81.05,0,0,1,19.27-15.28c6.42-3.76,15.87-8.37,22.66-2.67C139.77,278.23,136.14,288.53,133.35,294.84Z" style="fill:#5c544b"/><path d="M113.71,97c-3,1.58-3.75,5.58-2.54,8.61,1.45,3.64,4.61,6.55,7.88,8.49,2.91,1.82,7.63,2.54,9.69-1s-1.45-8.25-3.63-10.79a22.09,22.09,0,0,0-5.46-4.61c-1.81-1.09-4-1.82-5.94-.73-.36.24,0,.85.37.61,2.3-1.34,4.85.36,6.79,1.69a20.64,20.64,0,0,1,4.84,4.85,15.12,15.12,0,0,1,2.91,6c.49,2.66-1.45,4.6-4,4.85s-4.6-1-6.42-2.31a20.13,20.13,0,0,1-4.61-4.48,9.43,9.43,0,0,1-2.18-5.58,5.4,5.4,0,0,1,2.67-5C114.44,97.44,114.08,96.83,113.71,97Z" style="fill:#5c544b"/><path d="M121,36.2s2.54-.12,3.39,3S124.26,48,121,47.6C117.59,47.48,121,36.2,121,36.2Z" style="fill:#e1695c"/><path d="M121.59,45.9l-2.06,14a3.08,3.08,0,1,0,6.06-.25l-3-14.18A.63.63,0,0,0,121.59,45.9Z" style="fill:#fff"/><path d="M89.6,74.28s5.33,7.76,14.9,8c12.12.36,12.85-5,12.85-5a22.52,22.52,0,0,1-1.57-4.85c-.13-.61-.25-1.34-.37-2.06a51.78,51.78,0,0,1-.36-6.43V62.15c-8.49-1-15.64-3.88-21-9.46l-1.33-.6-.85-.37-.12.49.36,1.57C93.72,60.94,92.75,67.12,89.6,74.28Z" style="fill:#ffb090"/><path d="M100.51,58.51c2.18,3.76,7,10.19,14.9,11.89a51.78,51.78,0,0,1-.36-6.43v-1.7c-.12,0-.37.12-.49.12C110.08,63.24,105,61.42,100.51,58.51Z" style="fill:#110e0a"/><path d="M80.39,41.05c.24,4.49,4.36,9.82,10.3,9.7h.12l.36.73c0,.12.12.24.12.36,4.13,7.52,15.27,11.4,21.09,11.28a12.71,12.71,0,0,0,4-.73c6.18-1.69,6.91-10.18,5.58-16.61-.25-1-.49-1.82-.73-2.67V43s1.57-9.09,1.94-13.09c.48-7.64-4.24-15.28-21.09-15.89S81.84,24,80.87,29.53c-.12,1,.37,6.43,1.34,7.28C80.63,37.66,80.39,39.6,80.39,41.05Z" style="fill:#ffb090"/><path d="M86.57,48.69l-3.39,13.7a3.14,3.14,0,0,0,2.54,3.88,3,3,0,0,0,3.51-3.39L87.66,48.45A.6.6,0,0,0,86.57,48.69Z" style="fill:#fff"/><path d="M111.78,40.57c.48,1.21,1,2.42,1.57,3.63.24.37.85,0,.61-.36a17,17,0,0,1-1.46-3.39C112.38,40,111.65,40.2,111.78,40.57Z" style="fill:#e1695c"/><path d="M113.71,44.33a18.35,18.35,0,0,0,2.55-.25c-.12-.24-.24-.36-.36-.6-.49,1-1.09,2.06-1.58,3-.24.36.36.73.61.36.48-1,1.09-2.06,1.57-3a.41.41,0,0,0-.36-.61,16.94,16.94,0,0,1-2.55.25C113.23,43.72,113.23,44.45,113.71,44.33Z" style="fill:#e1695c"/><path d="M118.44,40.57c-.12,1.21-.73,2.18-1.45,2.18s-1.09-1.09-1-2.42.72-2.19,1.45-2.19S118.56,39.36,118.44,40.57Z" style="fill:#110e0a"/><path d="M115.17,39.35a.12.12,0,0,1-.12-.12c-.12-.12,0-.36.12-.48s3.15-2.06,5.82-.12a.72.72,0,0,1,.12.48.75.75,0,0,1-.49.12c-2.3-1.69-5.09.12-5.09.12A.21.21,0,0,1,115.17,39.35Z" style="fill:#110e0a"/><path d="M107.53,39.72c-.12,1.21-.72,2.18-1.45,2.18s-1.09-1.09-1-2.42.73-2.19,1.45-2.19S107.66,38.38,107.53,39.72Z" style="fill:#110e0a"/><path d="M103.66,38.87c-.12,0-.12,0-.12-.12a.36.36,0,0,1,0-.49c.12-.12,2.9-2.42,5.81-.85.12.13.24.25.12.49s-.24.24-.48.12c-2.43-1.33-5,.73-5,.73A.44.44,0,0,1,103.66,38.87Z" style="fill:#110e0a"/><path d="M114.56,52.81H114a5.79,5.79,0,0,1-3.52-2.3.61.61,0,1,1,1-.73,4.63,4.63,0,0,0,2.67,1.82,2.11,2.11,0,0,0,2.18-.73.6.6,0,0,1,.85-.12c.24.25.36.61.12.85A3.07,3.07,0,0,1,114.56,52.81Z" style="fill:#e1695c"/><path d="M91.05,47.24a.53.53,0,0,1-.48-.49c-1.09-4.24-6.18-5.82-6.3-5.82a.57.57,0,1,1,.36-1.09c.24.12,5.82,1.82,7,6.67.12.36-.12.61-.49.73Z" style="fill:#e1695c"/><path d="M85.6,45.17c-.12,0-.12,0-.24-.12a.69.69,0,0,1-.25-.85,4.15,4.15,0,0,1,3.52-2.06.61.61,0,0,1,0,1.22,2.92,2.92,0,0,0-2.55,1.33A.44.44,0,0,1,85.6,45.17Z" style="fill:#e1695c"/><g style="opacity:0.5"><g style="opacity:0.5"><g style="opacity:0.5"><g style="opacity:0.5"><g style="opacity:0.5"><g style="opacity:0.5"><g style="opacity:0.5"><g style="opacity:0.5"><g style="opacity:0.5"><g style="opacity:0.5"><g style="opacity:0.5"><g style="opacity:0.5"><path d="M118.56,44.57c0,.73,1.58,1.09,3.52,1.09-.25-1-.49-1.82-.73-2.67C119.65,43.36,118.56,44,118.56,44.57Z" style="fill:#e1695c;opacity:0.5;isolation:isolate"/></g></g></g></g></g></g></g></g></g></g></g></g><g style="opacity:0.5"><g style="opacity:0.5"><g style="opacity:0.5"><g style="opacity:0.5"><g style="opacity:0.5"><g style="opacity:0.5"><g style="opacity:0.5"><g style="opacity:0.5"><g style="opacity:0.5"><g style="opacity:0.5"><g style="opacity:0.5"><g style="opacity:0.5"><path d="M108.14,45.3c0,.72-1.82,1.57-4.12,1.69s-4.24-.36-4.36-1.09,1.81-1.57,4.12-1.69S108.14,44.57,108.14,45.3Z" style="fill:#e1695c;opacity:0.5;isolation:isolate"/></g></g></g></g></g></g></g></g></g></g></g></g><path d="M90.69,50.75h.12l.36.73c0,.12.12.24.12.36a6.61,6.61,0,0,0,2.19-1,3,3,0,0,0,1.09-1.33.62.62,0,0,0-1.09-.61,3.5,3.5,0,0,1-1.34,1.34,1.94,1.94,0,0,1-1.09.36C91.05,50.75,90.81,50.75,90.69,50.75Z" style="fill:#e1695c"/><path d="M113.11,55.72a3.8,3.8,0,0,1-1.46-.72.43.43,0,0,1,.61-.61,1.82,1.82,0,0,0,1.82.36c.24-.12.48,0,.48.25s0,.48-.24.48A2.2,2.2,0,0,1,113.11,55.72Z" style="fill:#e1695c"/><path d="M85.11,19.83c3.4-3.88,8.25-7.15,14.3-7.15,8.49,0,16.49,2.55,21,6.91a11.69,11.69,0,0,1,3.88,7.4c1,8.73-1.09,7.15-1.09,7.15a19.2,19.2,0,0,0-.37-2.06c-.24-1.09-.6-2.79-1.21-5.46-1.45-6.3-21.57-5.94-20.12-1.94A5.75,5.75,0,0,1,101.6,26a8.1,8.1,0,0,1-.61,3.15c-.12,0-.36.12-.48.12a17.07,17.07,0,0,0-5,1.94c-.12.12-3.15,2.55-2.55,5.7s2.06,7.52-.24,6.79a5.6,5.6,0,0,1-3.15-3.4,9.78,9.78,0,0,0-5.09-3.39C83.66,31.35,83.18,25.41,85.11,19.83Z" style="fill:#009580"/><path d="M84.14,23.71c5.94-2.42,15.88,1.58,17.58,2.43a7.92,7.92,0,0,1-.61,3.15c-.12,0-.36.12-.48.12a17.07,17.07,0,0,0-5,1.94c-.12.12-3.15,2.55-2.55,5.7s4.61,20.74,1.46,23.65c-6.55,5.94-5.7-20.13-5.7-20.13-1.21-1.46-1.94-2.79-4.12-3.4C82.21,32.56,82.81,28.08,84.14,23.71Z" style="fill:#009580"/><path d="M85.48,23.23s-3.4,5.45-.73,13.82c0,0-2.91-.61-4.36,0s-3-4.36-1.94-9.09,7.39-10.79,7.39-10.79S86.69,21.65,85.48,23.23Z" style="fill:#009580"/><path d="M109.23,34.75c1.09.72,2.55-.61,1.7-1.7a3.23,3.23,0,0,0-2.18-1.33A9.12,9.12,0,0,0,101,33.53s4.73-.24,7,.61A11.44,11.44,0,0,0,109.23,34.75Z" style="fill:#110e0a"/><path d="M116,34.87a1.24,1.24,0,0,1-1.46-1.94,3.75,3.75,0,0,1,2.31-1.09c4.6-.61,5.93,2.42,5.93,2.42a16.34,16.34,0,0,0-5.45.12A7.65,7.65,0,0,0,116,34.87Z" style="fill:#110e0a"/><path d="M86.2,74a85.14,85.14,0,0,0,9.34,9.46,44.78,44.78,0,0,0,9.57,7c3,1.58,6.79,2.79,10.3,1.94s4.85-3.88,5.09-7.27A24.43,24.43,0,0,0,118,72.09c-.37-.6-1.22-.12-1,.61a24,24,0,0,1,2.54,10.79,11.61,11.61,0,0,1-1,5.34,5.19,5.19,0,0,1-4.12,2.66c-7,1.1-13.57-4.6-18.42-9a95.16,95.16,0,0,1-9.09-9.33C86.45,72.7,85.72,73.43,86.2,74Z" style="fill:#fca133"/><path d="M89.23,173.58c.49-1.94.61-4,1.22-7.27-2.31-1.58-3.15-1.94-5.46-3.52-3-2.18-5.94-4.61-8.84-6.91s-5.58-4.85-8.24-7.4c-1.34-1.33-2.67-2.54-3.88-3.88l-.25-.24c.13-.48.25-1.09.37-1.57.48-1.94,1.09-4.13,1.69-6.31,1.34-4.36,3-8.73,4.85-13.1s3.64-8.85,5.7-13.21c1-2.18,1.94-4.37,3-6.55L81,100.35l.73-1.58.73-1.58v-.12a10.14,10.14,0,1,0-18.18-9l-.85,1.7-.85,1.69L61,94.89c-1.09,2.3-2.18,4.61-3.15,6.79-2.06,4.61-4.12,9.22-5.94,13.94s-3.76,9.58-5.33,14.55a70.43,70.43,0,0,0-2.19,8c-.36,1.45-.6,2.91-.84,4.48a26.14,26.14,0,0,0-.25,5.58,9.49,9.49,0,0,0,2.79,6.43l.24.24.12.12.37.24.6.61A11.16,11.16,0,0,1,48.64,157a31.14,31.14,0,0,0,2.54,1.94c1.7,1.34,3.39,2.55,5.09,3.64,3.39,2.43,6.91,4.61,10.42,6.67s7,4.12,10.67,5.94c3.15,1.58,6.42,3.15,9.69,4.61A33.3,33.3,0,0,0,89.23,173.58Z" style="fill:#ffb090"/><path d="M55.79,143.39a11.92,11.92,0,0,1,7.87,1.21c.49.25.85-.48.37-.6a12.51,12.51,0,0,0-8.37-1.34C55.06,142.66,55.3,143.39,55.79,143.39Z" style="fill:#e1695c"/><path d="M57.73,140l3.63,3.27c.36.36,1-.24.49-.48l-3.64-3.28C58,139.15,57.36,139.75,57.73,140Z" style="fill:#e1695c"/><path d="M90,168.86s-5,.36-5.45,3.63,5.09,8.85,7.15,10.67,1.09-4.6-.73-6.79-1.45-4-1.45-4Z" style="fill:#ffb090"/><path d="M87.54,179.89s-4.85,0-5.33,3.27,5.09,8.85,7.15,10.67,1.09-4.6-.73-6.79-1.33-3.76-1.33-3.76Z" style="fill:#ffb090"/><path d="M85.6,184.86s-4.24,0-4.73,2.91,4.49,7.76,6.3,9.34,1-4-.6-6.07-1.21-3.27-1.21-3.27Z" style="fill:#ffb090"/><path d="M89.11,174.55s-4.84,0-5.33,3.28,5.09,8.85,7.15,10.67,1.09-4.61-.73-6.79S88.87,178,88.87,178Z" style="fill:#ffb090"/><path d="M89.72,168.61a5,5,0,0,0-5,7.28c.12-.12.12-.37.24-.49a2.56,2.56,0,0,0-1.69,2.91c.12.49.84.25.72-.24a1.58,1.58,0,0,1,1.22-1.94c.24-.12.36-.36.24-.48a4.26,4.26,0,0,1,4.36-6.19C90.2,169.46,90.2,168.73,89.72,168.61Z" style="fill:#e1695c"/><path d="M144.38,161.09s4.48-.48,5.33,2.79-4,9.34-5.82,11.4-1.57-4.36-.12-6.91a6.2,6.2,0,0,0,1.09-4.12Z" style="fill:#ffb090"/><path d="M144.62,160.73a4.47,4.47,0,0,1,4,5.7c-.12.49.6.61.73.24a5.26,5.26,0,0,0-4.73-6.67C144.13,159.88,144.13,160.61,144.62,160.73Z" style="fill:#e1695c"/><path d="M147.65,171.52s4.85-.6,5.69,2.55-4,9.34-5.81,11.4-1.58-4.37-.12-6.91,1-3.88,1-3.88Z" style="fill:#ffb090"/><path d="M150.19,176.25s4.24-.48,5,2.31-3.51,8.24-5.09,10.06-1.45-3.88-.12-6.06.85-3.4.85-3.4Z" style="fill:#ffb090"/><path d="M145.35,166.55s4.84-.6,5.69,2.55-4,9.33-5.82,11.4-1.57-4.37-.12-6.92,1-3.88,1-3.88Z" style="fill:#ffb090"/><g style="opacity:0.6000000238418579"><path d="M125.71,43c0,2.31-2.54,4.13-5.81,4.13s-5.82-1.82-5.82-4.13,2.54-4.12,5.82-4.12S125.71,40.69,125.71,43Z" style="fill:#fff;opacity:0.6000000238418579;isolation:isolate"/></g><g style="opacity:0.6000000238418579"><path d="M106.08,47.24c3.48,0,6.3-2,6.3-4.49s-2.82-4.49-6.3-4.49-6.3,2-6.3,4.49S102.6,47.24,106.08,47.24Z" style="fill:#fff;opacity:0.6000000238418579;isolation:isolate"/></g><path d="M114.68,43.11c-.12,0-.12,0-.24-.12a1.39,1.39,0,0,0-2.18,0,.36.36,0,0,1-.48,0,.34.34,0,0,1,0-.48,2.34,2.34,0,0,1,3.27,0,.37.37,0,0,1,0,.48C114.81,43.11,114.81,43.11,114.68,43.11Z" style="fill:#fff"/><path d="M100.51,42.26h-.25a19.69,19.69,0,0,0-8.6-2.42.37.37,0,1,1,0-.73,18.24,18.24,0,0,1,9,2.55c.12.12.24.36.12.48A.42.42,0,0,1,100.51,42.26Z" style="fill:#fff"/><path d="M125.71,43.36c-.12,0-.24,0-.24-.12-.73-1-3-1.34-3.88-1.46a.37.37,0,0,1,0-.73c.12,0,3.4.37,4.49,1.7a.31.31,0,0,1-.12.49C126,43.36,125.83,43.36,125.71,43.36Z" style="fill:#fff"/></g></svg>