<svg id="Layer_1" data-name="Layer 1" xmlns="http://www.w3.org/2000/svg" xmlns:xlink="http://www.w3.org/1999/xlink" viewBox="0 0 557 409"><defs><clipPath id="clip-path"><rect x="0.45" y="4.56" width="556.6" height="404.1" style="fill:none"/></clipPath></defs><g style="clip-path:url(#clip-path)"><g style="opacity:0.5"><path d="M209.55,359.16a13.92,13.92,0,0,0-2-9c-3.7-5.5-20.4-24.3-28.6-27.6-9.4-3.8,5.9,36.1,16.3,41.9C203.15,368.76,208.85,364.56,209.55,359.16Z" style="fill:#ceb899;opacity:0.5;isolation:isolate"/></g><path d="M217.45,403.36h.7a139.17,139.17,0,0,0-19.1-49,134.49,134.49,0,0,0-10-13.8c-.3-.4-.8.2-.5.5a136.86,136.86,0,0,1,26.8,53.1A72.09,72.09,0,0,1,217.45,403.36Z" style="fill:#ceb899"/><g style="opacity:0.5"><path d="M215.45,377.06c-2.3-2.3-2-8.7-1.8-10.5.6-5.5,3.9-22.4,8.3-28.2,5.1-6.6,10.8,28.1,5.9,36.5C224.05,381.26,218.65,380.26,215.45,377.06Z" style="fill:#ceb899;opacity:0.5;isolation:isolate"/></g><path d="M221.75,359.56c0,5.6-1.3,11.3-2.5,16.8a134.09,134.09,0,0,1-4.1,16.6.36.36,0,0,0,.7.2,162.24,162.24,0,0,0,4.2-17c1.1-5.4,2.4-11.1,2.4-16.7C222.55,359.06,221.75,359.06,221.75,359.56Z" style="fill:#ceb899"/><g style="opacity:0.5"><path d="M203,374.16a8.23,8.23,0,0,0-3.9-3.7c-5.1-2-26.1-10.2-33.3-9-8.2,1.3,19.9,23.3,29.6,22.9C202.85,384.16,205.35,378.76,203,374.16Z" style="fill:#ceb899;opacity:0.5;isolation:isolate"/></g><path d="M185.85,373.86a92.7,92.7,0,0,0,25.7,8.1c.5.1.7-.6.2-.7a87.27,87.27,0,0,1-25.5-8.1C185.75,373,185.35,373.66,185.85,373.86Z" style="fill:#ceb899"/><g style="opacity:0.5"><path d="M372.35,359.16a13.92,13.92,0,0,1,2-9c3.7-5.5,20.4-24.3,28.6-27.6,9.4-3.8-5.9,36.1-16.3,41.9C378.75,368.76,373.05,364.56,372.35,359.16Z" style="fill:#ceb899;opacity:0.5;isolation:isolate"/></g><path d="M364.35,403.36h-.7a139.17,139.17,0,0,1,19.1-49,134.49,134.49,0,0,1,10-13.8c.3-.4.8.2.5.5a136.86,136.86,0,0,0-26.8,53.1C365.65,397.16,365,400.26,364.35,403.36Z" style="fill:#ceb899"/><g style="opacity:0.5"><path d="M366.45,377.06c2.3-2.3,2-8.7,1.8-10.5-.6-5.5-3.9-22.4-8.3-28.2-5.1-6.6-10.8,28.1-5.9,36.5C357.85,381.26,363.25,380.26,366.45,377.06Z" style="fill:#ceb899;opacity:0.5;isolation:isolate"/></g><path d="M360.15,359.56c0,5.6,1.3,11.3,2.5,16.8a134.09,134.09,0,0,0,4.1,16.6.36.36,0,0,1-.7.2,162.24,162.24,0,0,1-4.2-17c-1.1-5.4-2.4-11.1-2.4-16.7C359.35,359.06,360.15,359.06,360.15,359.56Z" style="fill:#ceb899"/><g style="opacity:0.5"><path d="M379,374.16a8.23,8.23,0,0,1,3.9-3.7c5.1-2,26.1-10.2,33.3-9,8.2,1.3-19.9,23.3-29.6,22.9C379.05,384.16,376.55,378.76,379,374.16Z" style="fill:#ceb899;opacity:0.5;isolation:isolate"/></g><path d="M396.05,373.86a92.7,92.7,0,0,1-25.7,8.1c-.5.1-.7-.6-.2-.7a87.27,87.27,0,0,0,25.5-8.1C396.15,373,396.45,373.66,396.05,373.86Z" style="fill:#ceb899"/><path d="M284.15,408.76c150.72,0,272.9-3.54,272.9-7.9S434.87,393,284.15,393s-272.9,3.54-272.9,7.9S133.43,408.76,284.15,408.76Z" style="fill:#ceb899"/><path d="M55.55,397s-9-2.2-7.6-20.1c0,0,10.1,6.6,10.1,15.6,0,0,.3-5,8.2-8.6a14.18,14.18,0,0,1-3.1,13.1Z" style="fill:#ceb899"/><path d="M516,398.46s-9-2.2-7.6-20.1c0,0,10.1,6.6,10.1,15.6,0,0,.3-5,8.2-8.6a14.18,14.18,0,0,1-3.1,13.1Z" style="fill:#ceb899"/><path d="M107.65,62.16h-1.4l-.4-1.7-.4,1.7h-26l-2.3-2.3.2,2.3h-3.9s-12.1-26.9,2.3-37.5h0c10.2-7.7,24.9-1.9,28.4,5.9C108.65,40.36,107.65,62.16,107.65,62.16Z" style="fill:#2c2f37"/><path d="M102.85,58.06a.43.43,0,0,1-.4-.4v-9.4a.4.4,0,1,1,.8,0v9.4A.43.43,0,0,1,102.85,58.06Z" style="fill:#fff"/><path d="M105.25,59.06l-1.6,2.4a1,1,0,0,1-1.7,0l-1.6-2.4a1.08,1.08,0,0,1,0-1.1l1.6-2.7a1,1,0,0,1,1.7,0l1.6,2.7A.78.78,0,0,1,105.25,59.06Z" style="fill:#fff"/><path d="M22.65,104.26s-1.8-.6,1.5-5.1,10.6-11.3,10.6-11.3S38.35,99.76,22.65,104.26Z" style="fill:#2c2f37"/><path d="M36.25,93.66l-11.1-16.6-6.7,3,9.7,21Z" style="fill:#9e4825"/><path d="M26.35,76.86s0-3.7-2.1-5.9-3.3-4.5-5-6-1.4,1.6-.8,3.2,1.2,3.4-.1,3.6-11.6-3.4-13.3-2.9-.2,1.6-.2,1.6-2.3-.8-3.1.1.5,1.8.5,1.8-1.6-.4-1.8.7,8.2,5.4,7.8,6-4-3.3-5.2-2.3S4.75,79.36,7,81a11.52,11.52,0,0,0,7.6,2.4c2.7-.2,7.4,1,9.2-1.6A30,30,0,0,0,26.35,76.86Z" style="fill:#9e4825"/><path d="M2.25,72.06c2.7,1,5.5,2,8.1,3.2.3.1,0,.6-.3.5-2.6-1.1-5.3-2.2-8-3.1C1.75,72.46,2,72,2.25,72.06Z" style="fill:#612525"/><path d="M5.05,70.46a27.18,27.18,0,0,1,6.2,2.3c.3.2,0,.6-.3.5A25.66,25.66,0,0,0,5,71C4.45,70.86,4.65,70.36,5.05,70.46Z" style="fill:#612525"/><path d="M9.15,77.76a15.5,15.5,0,0,1,3.1-6.3c.2-.3.7,0,.5.3a15.15,15.15,0,0,0-3,6.1A.31.31,0,0,1,9.15,77.76Z" style="fill:#612525"/><path d="M13.65,74.76c3.5-.6,6.6.8,8,3.7.1.3-.4.6-.5.3-1.3-2.7-4.1-4-7.4-3.4C13.35,75.36,13.25,74.86,13.65,74.76Z" style="fill:#612525"/><path d="M22.65,104.26s6.3,5.2,13.4,16.9a33.6,33.6,0,0,0,4.3,5.8c5.6,6.3,12,8.6,16.8,5.2a9.47,9.47,0,0,0,2-2c1.9-2.3,4-6.6,6.1-11.4,4.4-10.2,8.5-22.7,8.5-22.7l-5.7-13.5-8.3-5-.7,1.9-3,10.1-6.6,19-14.6-20.7v.2a24.71,24.71,0,0,1-4.2,9.5A26,26,0,0,1,22.65,104.26Z" style="fill:#467b6c"/><path d="M40.35,127c5.6,6.3,12,8.6,16.8,5.2-3-2.7-9.6-7.7-15.4-5.8C41.25,126.56,40.75,126.76,40.35,127Z" style="fill:#64653d"/><path d="M49.85,108.36a57,57,0,0,1,4.7,11.4c.1.4-.5.6-.7.2a55,55,0,0,0-4.6-11.2C49.05,108.26,49.65,108,49.85,108.36Z" style="fill:#64653d"/><path d="M51.65,112.06c1.2,1,2.2,2.1,3.4,3.1a.35.35,0,0,1-.5.5c-1.2-1-2.2-2.1-3.4-3.1C50.85,112.26,51.35,111.76,51.65,112.06Z" style="fill:#64653d"/><path d="M158.05,106.16s2-.6-1.6-5.4-11.4-12.1-11.4-12.1S141.35,101.36,158.05,106.16Z" style="fill:#2c2f37"/><path d="M143.55,94.76,155.35,77l7.2,3.3-10.3,22.5Z" style="fill:#9e4825"/><path d="M155.05,77.16s-.1-3.5,1.8-5.6,3-4.3,4.6-5.8,1.3,1.4.8,2.9-1,3.2.2,3.4,10.8-3.5,12.5-3.1.2,1.5.2,1.5,2.2-.8,3,0-.4,1.7-.4,1.7,1.5-.5,1.7.6-7.6,5.3-7.2,5.9,3.7-3.2,4.9-2.3-1.6,2.5-3.6,4a11,11,0,0,1-7.1,2.5c-2.6-.1-6.9,1.1-8.7-1.3A22.14,22.14,0,0,1,155.05,77.16Z" style="fill:#9e4825"/><path d="M177.74,72.06c-2.6,1-5.1,2.1-7.6,3.2-.3.1.1.6.3.4,2.4-1.1,4.9-2.2,7.4-3.2C178.24,72.46,178,72,177.74,72.06Z" style="fill:#612525"/><path d="M175.05,70.56a29.53,29.53,0,0,0-5.8,2.4c-.3.2.1.6.3.4a22.79,22.79,0,0,1,5.6-2.3A.26.26,0,1,0,175.05,70.56Z" style="fill:#612525"/><path d="M171.34,77.56a16,16,0,0,0-3.1-5.9c-.2-.3-.7,0-.4.3a16,16,0,0,1,3,5.6C170.84,78,171.34,77.86,171.34,77.56Z" style="fill:#612525"/><path d="M167.05,74.86c-3.4-.5-6.2.9-7.5,3.7-.1.3.4.5.5.2a6.18,6.18,0,0,1,6.9-3.4C167.35,75.36,167.45,74.86,167.05,74.86Z" style="fill:#612525"/><path d="M158.05,106.16s-6.8,5.6-14.4,18.1a34.43,34.43,0,0,1-4.6,6.2c-6,6.7-12.9,9.2-18,5.5a10.82,10.82,0,0,1-2.2-2.1c-2-2.5-4.3-7.1-6.5-12.2-4.8-11-9.1-24.3-9.1-24.3l6.1-14.5,4.5-10.6,1.7,4.3,5.5,13.8,8.1,20.3,15.7-22.1v.2a25.7,25.7,0,0,0,4.5,10.1A26.35,26.35,0,0,0,158.05,106.16Z" style="fill:#467b6c"/><path d="M139.05,130.56c-6,6.7-12.9,9.2-18,5.5,3.2-2.9,10.3-8.2,16.5-6.2A10.74,10.74,0,0,1,139.05,130.56Z" style="fill:#64653d"/><path d="M128.94,110.56a61.4,61.4,0,0,0-5,12.2c-.1.5.6.7.7.2a57.4,57.4,0,0,1,5-12C129.84,110.56,129.14,110.16,128.94,110.56Z" style="fill:#64653d"/><path d="M127,114.56c-1.3,1.1-2.4,2.3-3.7,3.3-.4.3.2.8.5.5,1.3-1.1,2.4-2.3,3.7-3.3C127.85,114.76,127.35,114.26,127,114.56Z" style="fill:#64653d"/><path d="M147.45,363.56l-.6,25.6-8.9.1-5.8-25.7Z" style="fill:#9e4825"/><path d="M131.75,364.06a9.36,9.36,0,0,0-.4,5.1,7.24,7.24,0,0,0,2.9,4.7l12.9-.8s4.3-4,.9-10.2Z" style="fill:#2c2f37"/><path d="M146.84,386.86s3.8,3.6,6.3,4.8,8,1.4,9.1,1.7,4.9-.7,6.2,1.3c1.5,2.3-.2,3.1-.2,3.1s-16.8.6-20.8.8c-4.9.2-7,.1-9-.8s-1-10.3-1-10.3Z" style="fill:#9e4825"/><path d="M137.65,396.46s-2.9,4.9,0,5H169s2-1.8,0-4.5Z" style="fill:#6059c9"/><path d="M162.25,393.46a14.09,14.09,0,0,0-8.1,4.3h-3.1s1.8-4.2,5.3-5.2C156.25,392.56,160.45,392,162.25,393.46Z" style="fill:#6059c9"/><path d="M89.65,363.56l.2,26.9-8.9.4L74.25,365Z" style="fill:#9e4825"/><path d="M74.34,365.26a9.36,9.36,0,0,0-.4,5.1,7.24,7.24,0,0,0,2.9,4.7l12.9-.8s4.3-4,.9-10.2Z" style="fill:#2c2f37"/><path d="M80.64,389.56s-.9,5.1-1.9,5.7-3.3,0-3.9,4.6h20.3s-1.5-3.5-2.5-4.4a5.77,5.77,0,0,0-2.2-1.2l-.6-4.8h-9.2Z" style="fill:#9e4825"/><path d="M82.75,394.86c-.4.8-1.7,3.7-1.3,5.8h2.7s.6-4.8,1.8-5.8Z" style="fill:#6059c9"/><path d="M77.34,395.76s1.4-2.9,3.8-3.2,10.4-2.1,11.6,2.9A105.55,105.55,0,0,1,77.34,395.76Z" style="fill:#6059c9"/><path d="M74.84,399.86a3.18,3.18,0,0,0-1.6,3.3h23s1.2-1.2-1.1-3.3Z" style="fill:#6059c9"/><path d="M109.05,122.86l-.2.9-.6,3.2-1.1,6.2c-20.7,8-38-2.5-38-2.5a11.29,11.29,0,0,0,.8-3.6,34.85,34.85,0,0,0,.1-5.5,7.31,7.31,0,0,0-.1-1.3Z" style="fill:#9e4825"/><path d="M108.85,123.86l-.6,3.2c-10.4,1.6-23.3,1.4-38.3,0a34.85,34.85,0,0,0,.1-5.5Z" style="fill:#612525"/><path d="M66.55,136.26a44.5,44.5,0,0,0-10.9,27.4c-.7,22.5,5.4,108.3,6.5,124.7,1,15.8,3.9,52.8,5.2,69.8a9,9,0,0,0,9.5,8.3l13.7-.7a9,9,0,0,0,8.5-9.5c-1.9-36.8-8.8-174.9-8.4-186.3.5-13.2-.5-29.2-.5-29.2Z" style="fill:#2c2f37"/><path d="M72.35,257.76a19.1,19.1,0,0,0,15.7-.5c.4-.2.1-.8-.4-.6a18.49,18.49,0,0,1-15.1.4C72.05,256.86,71.85,257.56,72.35,257.76Z" style="fill:#63636c"/><path d="M130.05,194.26c-3.3-12.5-3.7-18.6-6.2-27.8-2.1-.9-6.9-13.5-9-14.7-2.8-1.6-5.6-3.3-8.5-4.9-2.1-1.2-4.3-2.4-6.3-3.7-4.2-2.6-8.5-5.7-11.4-9.9-2.2,3.3-3.6,9.3-3.5,19.2l38.1,207.4a6.83,6.83,0,0,0,6.5,5.5,131.24,131.24,0,0,0,20.5-1.1,6.63,6.63,0,0,0,5.5-7.5C152,330.36,135.15,213.76,130.05,194.26Z" style="fill:#2c2f37"/><path d="M124.85,255.86a15.75,15.75,0,0,0,14-1.5c.4-.3,0-.9-.4-.6a14.79,14.79,0,0,1-13.4,1.4C124.55,255,124.35,255.66,124.85,255.86Z" style="fill:#63636c"/><path d="M93.38,178.84l-.69.13,34.75,183,.68-.13Z" style="fill:#63636c"/><path d="M62.85,143.16a63.71,63.71,0,0,0,6.4-14.4s14.8,6.9,38.8,3a201.06,201.06,0,0,1,15.8,34.6S68.25,153.16,62.85,143.16Z" style="fill:#2c2f37"/><path d="M102.45,139.16c.9,11.7,9.9,21.4,20.5,25.5.4.2.6-.5.2-.7-10.4-3.9-19.2-13.4-20-24.7C103.15,138.76,102.45,138.76,102.45,139.16Z" style="fill:#63636c"/><path d="M77.75,139a21.61,21.61,0,0,1-6.6,14.9,21.36,21.36,0,0,1-15.2,5.7.35.35,0,1,0,0,.7,21.71,21.71,0,0,0,15.7-5.9,22.36,22.36,0,0,0,6.8-15.4C78.45,138.56,77.75,138.56,77.75,139Z" style="fill:#63636c"/><path d="M87.75,155.76c.7,8.9,1.7,17.9,2.4,26.8,0,.5.8.5.7,0-.7-8.9-1.7-17.9-2.4-26.8A.35.35,0,1,0,87.75,155.76Z" style="fill:#63636c"/><path d="M91.35,156.46c.4,2.5.7,5.1.9,7.7a19.33,19.33,0,0,1,.1,3.4c-.1,1.3-.8,3.7-2.6,2.8-.4-.2-.8.4-.4.6,2.4,1.2,3.7-1.7,3.7-3.6a67.15,67.15,0,0,0-1-11C92,155.76,91.25,156,91.35,156.46Z" style="fill:#63636c"/><path d="M68,135.76c2.3,2.3,6,2.6,9,3.1a111.43,111.43,0,0,0,11.6,1.5c7.4.4,15.1-.2,22-3.2.4-.2.1-.8-.4-.6-6.6,2.8-14,3.5-21.2,3.1a106.73,106.73,0,0,1-11.2-1.3c-3-.5-7.1-.8-9.4-3.1C68.15,135,67.55,135.46,68,135.76Z" style="fill:#63636c"/><path d="M116.65,86.26v3.1a144.92,144.92,0,0,1-2.1,21.3c-.6,3.3-1.5,8.1-2.1,11.2-.4,1.9-.6,3.3-.6,3.3-5.4,1.9-25.5-.2-43.5-1a135.13,135.13,0,0,0-2.3-18.3,38.26,38.26,0,0,0-2.3-7.6c-2.1-4.7-4.6-10.8-4.8-15.7a9.54,9.54,0,0,1,.9-5.2,6.41,6.41,0,0,1,3.9-3,170.66,170.66,0,0,0,17.6-6.7c.8-.3,1.2-.5,1.2-.5s10.1-1.6,18.1-1.9c3.9-.2,7.4,0,8.9.8,2.9,1.6,5,5.6,6.1,10.7A40.73,40.73,0,0,1,116.65,86.26Z" style="fill:#467b6c"/><path d="M75.05,70.26a9.81,9.81,0,0,1-9.8,9.4,10.15,10.15,0,0,1-5.7-1.8c-.1.2-.2.5-.3.7a10,10,0,0,0,5.9,1.8,10.5,10.5,0,0,0,10.5-10.5A.92.92,0,0,1,75.05,70.26Z" style="fill:#253f3d"/><path d="M116.65,79.06c-.2.1-.3.1-.5.2a8.59,8.59,0,0,1-3.2.5,12.31,12.31,0,0,1-2-.2,9.78,9.78,0,0,1-7.7-9.6,9.94,9.94,0,0,1,1.3-4.9h-.8a10.16,10.16,0,0,0-1.2,4.9,10.61,10.61,0,0,0,8.2,10.3,9.08,9.08,0,0,0,2.3.3,11.42,11.42,0,0,0,3.3-.5,1.45,1.45,0,0,1,.7-.2Z" style="fill:#253f3d"/><path d="M85.05,78.16a10.5,10.5,0,1,0,10.5,10.5A10.5,10.5,0,0,0,85.05,78.16Zm0,20.3a9.8,9.8,0,1,1,9.8-9.8A9.82,9.82,0,0,1,85.05,98.46Z" style="fill:#253f3d"/><path d="M119.94,96.66a9.62,9.62,0,0,1-4.3,5.9,10.19,10.19,0,0,1-5.2,1.5,9.77,9.77,0,0,1-1.7-19.4,9.85,9.85,0,0,1,1.7-.2,10.19,10.19,0,0,1,5.2,1.5.48.48,0,0,0,.6-.2.4.4,0,0,0-.2-.4,10.75,10.75,0,0,0-5.6-1.6,6.6,6.6,0,0,0-1.4.1,10.5,10.5,0,0,0-3.8,19.6,10.11,10.11,0,0,0,5.2,1.4,11,11,0,0,0,5.1-1.3,10.57,10.57,0,0,0,4.9-5.9A3.13,3.13,0,0,0,119.94,96.66Z" style="fill:#253f3d"/><path d="M70.05,99.86h-.9c.1.2.1.5.2.7h.7a9.82,9.82,0,0,1,1.6,19.5c0,.3-.1.5-.1.8a10.56,10.56,0,0,0,9.1-10.4A10.67,10.67,0,0,0,70.05,99.86Z" style="fill:#253f3d"/><path d="M107.35,118.46a9,9,0,0,1-1.2,4.6c.3,0,.6-.1.9-.1a9.88,9.88,0,0,0,1-4.5,10.5,10.5,0,0,0-21,0,11.66,11.66,0,0,0,.7,3.8h.8a10.06,10.06,0,0,1-.8-3.9,9.82,9.82,0,0,1,9.8-9.8A10,10,0,0,1,107.35,118.46Z" style="fill:#253f3d"/><path d="M81.05,68.16s5.2,8.8,12.9,10,4.1-9.5,4.1-9.5S83.25,65.46,81.05,68.16Z" style="fill:#9e4825"/><path d="M112.25,122.46a140.28,140.28,0,0,1-21.5,0c-7.4-.4-14.8-.7-22.2-1.2a.35.35,0,1,0,0,.7c7.4.5,14.8.7,22.2,1.2a140.28,140.28,0,0,0,21.5,0C112.65,123.16,112.65,122.46,112.25,122.46Z" style="fill:#64653d"/><path d="M67.85,97.36a87.91,87.91,0,0,1,2.9,24.5.35.35,0,1,0,.7,0,86.11,86.11,0,0,0-2.9-24.7C68.45,96.66,67.75,96.86,67.85,97.36Z" style="fill:#64653d"/><path d="M117.55,90.16c-.1-.2-.3-.5-.4-.7l-1.1-.3c2.1,3.6,4.4,7.2,4.3,11.6-.1,4.6-2.6,7.9-5.4,11.3a11.82,11.82,0,0,0-2.6,4.3,16.85,16.85,0,0,0-.4,5.5c0,.5.8.5.7,0a14.21,14.21,0,0,1,.6-5.8c.8-2,2.4-3.6,3.7-5.2,2.3-2.9,4-6.1,4.1-10C121.15,96.76,119.45,93.36,117.55,90.16Z" style="fill:#64653d"/><path d="M81,68.06s9,7.5,17,.6l-1.1-5-1.2-5.5-.8-3.8-12-6.3Z" style="fill:#9e4825"/><path d="M85.65,54.36c5.3,9.3,10.3,12.5,11.8,12.2l-1.9-8.4Z" style="fill:#2c2f37"/><path d="M78.85,45.66c1.5,3.7,2.7,4.8,5.9,8.3a14.14,14.14,0,0,0,9.5,4.2c8.1-.2,11.4-3.8,9.4-14.5-1.3-6.7.2-10.6-1.8-13-.1-.1-.3-.2-.4-.3a14.86,14.86,0,0,0-10.9-3.2C71.15,28.86,76.75,40.36,78.85,45.66Z" style="fill:#9e4825"/><path d="M96.85,51.26a1.9,1.9,0,1,0-1.9-1.9A1.9,1.9,0,0,0,96.85,51.26Z" style="fill:#fff"/><path d="M77.15,44.56s4.5.8,6.6-1,0-5,2-4.9c6.9.2-.3-5.9,2.5-5.6s6.4,1.9,9,1.5c0,0-2.4-1.5-2.4-3.2,0,0,6.1,4.3,9.2,3.7,0,0-1.2-6.6-7.5-8.5s-17.9.2-20.8,3.7C72.65,33.76,77.15,44.56,77.15,44.56Z" style="fill:#2c2f37"/><path d="M98.85,52.76a2.13,2.13,0,0,1-2.3,0,.32.32,0,1,1,.4-.5,1.53,1.53,0,0,0,1.6,0C99.05,52,99.25,52.56,98.85,52.76Z" style="fill:#612525"/><path d="M89,45.76c.1.6,1,.9,2.1.8s1.9-.7,1.9-1.3-1-.9-2.1-.8S88.85,45.16,89,45.76Z" style="fill:#612525"/><path d="M100.45,44.86c.1.6,1,.9,2.1.8a4,4,0,0,0,1.3-.4l-.3-1.5v-.1a5.28,5.28,0,0,0-1.3-.1C101.15,43.66,100.35,44.26,100.45,44.86Z" style="fill:#612525"/><path d="M93.15,41.76a1.06,1.06,0,0,0,.9.9.89.89,0,0,0,.6-1.1,1.06,1.06,0,0,0-.9-.9C93.35,40.76,93.15,41.16,93.15,41.76Z" style="fill:#2c2f37"/><path d="M99.85,41.16a1.06,1.06,0,0,0,.9.9.89.89,0,0,0,.6-1.1,1.06,1.06,0,0,0-.9-.9A1,1,0,0,0,99.85,41.16Z" style="fill:#2c2f37"/><path d="M93,38.16a1.72,1.72,0,0,0-2.1,1c-.2.9-1.6.7-1.4-.2a3,3,0,0,1,3.6-2.2C94.05,37.06,93.85,38.36,93,38.16Z" style="fill:#2c2f37"/><path d="M101.35,38.76c-.6-.6-1.4-1.4-2.3-1.1s-1.4-1-.5-1.3c1.5-.6,2.7.3,3.7,1.3C102.85,38.36,102.05,39.46,101.35,38.76Z" style="fill:#2c2f37"/><path d="M97.85,46.06a3.59,3.59,0,0,1-1.1.2c-.2,0-.4-.1-.4-.3s.1-.4.3-.4a3.35,3.35,0,0,0,1.4-.4,5.92,5.92,0,0,1-1.6-2.3c-.1-.2,0-.4.2-.4s.4,0,.4.2a6,6,0,0,0,1.7,2.3l.2.2a.37.37,0,0,1-.1.3C99,45.46,98.55,45.86,97.85,46.06Z" style="fill:#2c2f37"/><path d="M86.85,47.76a5,5,0,0,0-1.1-4.1c-1.2-1.5-3.5-3.7-5.3-3.2-2.7.7-2.7,3.2-2.1,5.6s2.6,5.5,5.9,4.5A3.52,3.52,0,0,0,86.85,47.76Z" style="fill:#9e4825"/><path d="M85.65,38.66s-1.2,1.2.3,4.4a15.55,15.55,0,0,1,1.3,3.8s-1.9-.8-4.5-5.7C82.25,40.66,83.25,38.46,85.65,38.66Z" style="fill:#2c2f37"/><path d="M83.05,47.86a6.15,6.15,0,0,0-.5-3c-.4-.8-1.5-2-2.6-1.5-.4.2-.7-.4-.3-.5a2.42,2.42,0,0,1,2.8.9,6.29,6.29,0,0,1,1.2,4.2C83.65,48.36,83.05,48.26,83.05,47.86Z" style="fill:#2c2f37"/><path d="M82.45,57.86a.27.27,0,0,1-.3-.3v-9.4a.3.3,0,1,1,.6,0v9.4A.32.32,0,0,1,82.45,57.86Z" style="fill:#fff"/><path d="M84.85,59l-1.6,2.4a1,1,0,0,1-1.7,0L80,59a1.08,1.08,0,0,1,0-1.1l1.6-2.7a1,1,0,0,1,1.7,0l1.6,2.7A1.08,1.08,0,0,1,84.85,59Z" style="fill:#fff"/><path d="M302.05,28.26s-8-6.7-11.8-6.2.7,9.7.7,9.7l4.8,5.3L301,35Z" style="fill:#d06828"/><path d="M299.25,27.76s39.7,8,49.7,11.3c15.8,5.2,26.7,20.4-9.6,43.6l-15.8-17.8,16.3-13.2c-9.9-3.4-30.5-12.8-40.7-17.3v-6.6Z" style="fill:#d06828"/><path d="M340,52c2.1,1.2,4.2,2.3,6.4,3.3.4.2.8-.4.4-.6-2.2-1-4.3-2.1-6.4-3.3C339.85,51.06,339.45,51.66,340,52Z" style="fill:#9e4825"/><path d="M341.75,53.06c.7,1.2,1.4,2.5,2.1,3.7.2.4.9,0,.6-.4-.7-1.2-1.4-2.5-2.1-3.7C342.15,52.26,341.55,52.66,341.75,53.06Z" style="fill:#9e4825"/><path d="M357.55,74.06a34.31,34.31,0,0,1-4.2,5.3c-.2.2-.3.4-.5.5a60.23,60.23,0,0,1-14.6,11,5.74,5.74,0,0,0-.7.4c-1.9,1-3.9,2-6.1,3l-23.7-32.9s17.5.3,29.4-8.3Z" style="fill:#6059c9"/><path d="M353.35,79.36c-.2.2-.3.4-.5.5a16.08,16.08,0,0,0-7.4-5.5c-3-1-7.5-1.7-10,.7-3,2.8-1.9,8.2-.3,11.4a16,16,0,0,0,3.2,4.5,5.74,5.74,0,0,0-.7.4,18.62,18.62,0,0,1-3.2-4.7,13,13,0,0,1-1.1-9.3c.8-2.8,3.2-4.2,6-4.4C344.65,72.26,350.05,75.06,353.35,79.36Z" style="fill:#8b8efb"/><path d="M334.35,55.26a221.48,221.48,0,0,0,20.3,20.8c.4.3.9-.2.5-.5a221.48,221.48,0,0,1-20.3-20.8C334.55,54.36,334.05,55,334.35,55.26Z" style="fill:#221d58"/><path d="M275.65,110.46s-17.7,36.3-34.7,32.9c-14-2.8-23.5-50-23.5-50l8.7-2.5,14.6,26,22.3-39.8C263.15,77.16,276.15,101.06,275.65,110.46Z" style="fill:#d06828"/><path d="M261.05,131.36v1.2c-7.1-6.9-17.8-26-17.8-26l2.4-3.8.4-.7,8.9-13.9.5-.7,7.8-12.2C271.25,94.76,261.05,131.36,261.05,131.36Z" style="fill:#6059c9"/><path d="M256.05,99.86c-2.5,3.3-6.5,3.6-10.3,2.9l.4-.7c3.4.6,6.8.3,9.1-2.5,2.8-3.4,1.5-7.8-.3-11.5l.5-.7C257.45,91.46,259,96.06,256.05,99.86Z" style="fill:#8b8efb"/><path d="M244.75,104.86c5,7.5,9.5,15.4,14.6,23,.3.4.9,0,.6-.4-5-7.5-9.5-15.4-14.6-23C245.15,104.16,244.55,104.46,244.75,104.86Z" style="fill:#221d58"/><path d="M226.15,91l-1.3-5.8s2.2-3.3,1.1-5.4c-3.1-5.9-10.1-9-10.7-7.4-.1.3-3.6,8.7-3.6,8.7l5.7,12.3Z" style="fill:#d06828"/><path d="M214.45,87.66l8.7,1.8c1.5.3,2.5-1.1,2-2.8l-5.6-20.4a3.06,3.06,0,0,0-2.2-2.2l-8.7-1.8c-1.5-.3-2.5,1.1-2,2.8l5.6,20.4A3.06,3.06,0,0,0,214.45,87.66Z" style="fill:#63636c"/><path d="M213.55,87.46l8.7,1.8c1.5.3,2.5-1.1,2-2.8l-5.6-20.4a3.06,3.06,0,0,0-2.2-2.2l-8.7-1.8c-1.5-.3-2.5,1.1-2,2.8l5.6,20.4A3.06,3.06,0,0,0,213.55,87.46Z" style="fill:#2c2f37"/><path d="M212.25,75.16a3.38,3.38,0,0,0,2.1,2.6c.9.2,1.5-.7,1.3-1.9a3.38,3.38,0,0,0-2.1-2.6C212.55,73.06,212.05,73.86,212.25,75.16Z" style="fill:#63636c"/><path d="M215.55,66.76a2.08,2.08,0,0,0,1.2,1.5c.5.1.8-.4.7-1.1a2.08,2.08,0,0,0-1.2-1.5C215.75,65.56,215.45,66.06,215.55,66.76Z" style="fill:#63636c"/><path d="M208.15,73.06s5.7-.8,6.7.3-4.6,2.7-4.6,2.7,3.4-.4,4.3.3-3.2,2.4-3.2,2.4,2.3-.2,2.5,1.1-.6,1.8-1.9,2.2a3.86,3.86,0,0,1-3.1-.4c-.5-.5-.2-1.8-.2-1.8s-2.3-.9-2.4-1.7a1.58,1.58,0,0,1,.4-1.4,2.08,2.08,0,0,1-1.5-1,1.47,1.47,0,0,1,0-1.6s-1-1.8-1.4-2.8,1.5-2.1,2.5-2.8,3.4,1.4,5.3,1.7c0,0,1,.5,0,1.3s-3.3-.1-3.8,0C207.45,71.56,208.15,73.06,208.15,73.06Z" style="fill:#d06828"/><path d="M241,117.26a72.6,72.6,0,0,0,.6,9.3c0,.4-.5.4-.6,0a72.6,72.6,0,0,1-.6-9.3A.3.3,0,0,1,241,117.26Z" style="fill:#9e4825"/><path d="M241,120.36c.8,1.1,1.6,2.3,2.3,3.4.2.3-.3.6-.5.3-.8-1.1-1.6-2.3-2.3-3.4C240.25,120.36,240.75,120.06,241,120.36Z" style="fill:#9e4825"/><path d="M315,360.26l4,27.9,11.3.9,1.8-26.1Z" style="fill:#d06828"/><path d="M341.35,401.56h-24.7s-.7-12,.4-15.1,4.1,2.2,4.1,2.2,2.7-7.8,6.6-6.8c1.8.4,2.9,2,3.6,3.6.3-.6.7-1.2,1.2-1.1.9.3,1.3,6.4,1.3,6.6,1.1,1.1,2.5,2.4,3.8,2.6C340.55,393.86,342.85,397,341.35,401.56Z" style="fill:#d03f23"/><path d="M325.55,389.66a4.61,4.61,0,0,1,6.3-1.1c.3.2.6-.3.3-.5a5.21,5.21,0,0,0-7.1,1.2C324.85,389.46,325.25,390,325.55,389.66Z" style="fill:#fff"/><path d="M326,391.56a4.61,4.61,0,0,1,6.3-1.1c.3.2.6-.3.3-.5a5.21,5.21,0,0,0-7.1,1.2C325.35,391.46,325.75,391.86,326,391.56Z" style="fill:#fff"/><path d="M327.15,393.76a3.73,3.73,0,0,1,5.5-1c.3.2.6-.3.3-.5a4.35,4.35,0,0,0-6.3,1.2C326.35,393.76,327,394.06,327.15,393.76Z" style="fill:#fff"/><path d="M316.45,390a10.94,10.94,0,0,1,2.6,8.3.3.3,0,1,0,.6,0,11.84,11.84,0,0,0-2.8-8.8C316.55,389.16,316.15,389.66,316.45,390Z" style="fill:#2c2f37"/><path d="M316.75,398.76l24,.3a.3.3,0,1,0,0-.6l-24-.3A.3.3,0,1,0,316.75,398.76Z" style="fill:#2c2f37"/><path d="M335.05,374.76c5.2-17.6,4.3-69,3.1-84.9-1.5-19.1-.7-104.8-.7-104.8s-38.4,4-45.1,14.2,6.2,75.2,6.8,94.8c.5,15.2,9.6,62.3,14.3,79.8Z" style="fill:#2c2f37"/><path d="M320.15,189.76a23.23,23.23,0,0,0,16.6,21.2c.5.1.7-.6.2-.7a22.48,22.48,0,0,1-16-20.5C320.85,189.36,320.15,189.26,320.15,189.76Z" style="fill:#63636c"/><path d="M324.75,286.56a39.89,39.89,0,0,1-5.1-.3c-.3,0-.4-.3-.4-.6s.3-.4.6-.4a42.05,42.05,0,0,0,10.4,0,.45.45,0,1,1,.1.9A39.71,39.71,0,0,1,324.75,286.56Z" style="fill:#63636c"/><path d="M315.85,366.86a.51.51,0,0,1-.5-.4c-4.3-15.4-11.4-70-11.2-76.5.2-6.8-8.3-67-8.4-67.6a.51.51,0,0,1,1-.2c.4,2.5,8.6,60.9,8.4,67.8-.2,6.5,6.9,60.8,11.2,76.2a.49.49,0,0,1-.3.6Z" style="fill:#63636c"/><path d="M336.05,367.76l-23.7-.9a.5.5,0,0,1,0-1l23.6.9a.47.47,0,0,1,.5.5A.4.4,0,0,1,336.05,367.76Z" style="fill:#63636c"/><path d="M270.15,360.46v27.7l-11.2.9-5.5-26Z" style="fill:#d06828"/><path d="M262.25,386.46s-3.5-6.8-5.6-6-2.9,8.9-2.9,8.9-11.3,3.8-14.5,4-5.7,2-6.1,8.2h38.6s-.3-13.9-.3-16.3-3.5.6-3.5.6Z" style="fill:#d03f23"/><path d="M271.25,390.46a5.71,5.71,0,0,0-2.1,8.1c.2.4-.3.7-.5.3a6.42,6.42,0,0,1,2.2-9C271.25,389.76,271.55,390.26,271.25,390.46Z" style="fill:#2c2f37"/><path d="M271.35,399.26l-30.3.3c-2.3,0-4.7,0-7,.1-.4,0-.5-.6-.1-.6l30.3-.3c2.3,0,4.7,0,7-.1C271.65,398.66,271.75,399.26,271.35,399.26Z" style="fill:#2c2f37"/><path d="M255.35,391.76c-1.6-1.9-3.9-2.4-5.6-1-.3.2-.7-.3-.4-.5,2-1.6,4.7-.9,6.5,1.2C256.05,391.86,255.65,392.16,255.35,391.76Z" style="fill:#fff"/><path d="M252.15,392.76c-1.6-1.9-3.9-2.4-5.6-1-.3.2-.7-.3-.4-.5,2-1.6,4.7-.9,6.5,1.2C252.85,392.86,252.45,393.16,252.15,392.76Z" style="fill:#fff"/><path d="M248.85,393.76c-1.6-1.9-3.9-2.4-5.6-1-.3.2-.7-.3-.4-.5,2-1.6,4.7-.9,6.5,1.2C249.55,393.86,249.05,394.16,248.85,393.76Z" style="fill:#fff"/><path d="M274.25,375.06c2.7-23.9,2.7-89,5.1-94.5,11.5-27.2,19.9-91.8,19.9-91.8s-35.1-17.7-40-12.1-16,81.7-17.1,98.6c-.9,13.4,7.7,78,10.3,98.5Z" style="fill:#2c2f37"/><path d="M269.05,191.16a21.59,21.59,0,0,1-5.4,13.2,19.88,19.88,0,0,1-12.1,5.9c-.5.1-.5.8,0,.7a20.11,20.11,0,0,0,12.6-6.1,22.39,22.39,0,0,0,5.6-13.8C269.75,190.66,269.05,190.66,269.05,191.16Z" style="fill:#63636c"/><path d="M295.05,219a.47.47,0,0,1-.5-.5v-22.2a.5.5,0,0,1,1,0v22.2A.64.64,0,0,1,295.05,219Z" style="fill:#63636c"/><path d="M292.25,208.56a2.74,2.74,0,0,1-2.2-.9c-1.5-1.8-.7-11.3-.6-12.4,0-.3.3-.5.5-.4s.5.3.4.5c-.3,3.9-.5,10.6.4,11.7,1.1,1.4,3.9-.1,3.9-.1a.51.51,0,0,1,.5.9A7.38,7.38,0,0,1,292.25,208.56Z" style="fill:#63636c"/><path d="M254.85,182.76s-2.9,8.9-2.4,10,2.2-1.7,9.4,2.5c8.7,4.9,29.4,10.5,43.2,6.4s28.4-10.8,33.2-9.9-.7-8-.7-8S290.65,198.86,254.85,182.76Z" style="fill:#fff"/><path d="M253.35,185.06c10,5.8,31.4,16.4,51.7,9.4,32.4-11.3,35.8-6.6,35.8-6.6s-3.3-31.6-6.6-61.9c-1.3-11.5-3.4-49.5-5.6-52.1-3.5-4.1-13.6-9.5-22.4-13.2-.3-.1-.5-.2-.8-.3-.1-.1-.3-.1-.4-.2-1.5-.6-3-1.2-4.3-1.7l-14.4,3.6s-.8.4-2.1,1.1c-.1.1-.2.1-.4.2s-.3.2-.5.3c-5.6,3-17.4,9.3-20,11.6-3.5,3-3.7,16.2-1.9,26.5S253.35,185.06,253.35,185.06Z" style="fill:#6059c9"/><path d="M334.65,130.56c-13.6,9.7-30.7,10.5-46.8,10.7-8.6.1-17.5.5-25.5,4.1a37.51,37.51,0,0,0-4.4,2.4c0-.3.1-.6.1-.9a23.84,23.84,0,0,1,4.5-2.3c7.6-3.3,16-3.8,24.2-4,8.9-.2,17.9-.2,26.6-2a54.51,54.51,0,0,0,21.2-8.9A2.77,2.77,0,0,1,334.65,130.56Z" style="fill:#8b8efb"/><path d="M339.85,179a73.38,73.38,0,0,1-11.2,2.8c-6.7,1.1-15.7,2.1-20.6-3.7-5.3-6.2-2.2-15.1,1.7-21.1,5.8-9.1,15.5-15.3,25.9-17.8,0,.2.1.5.1.7a45.52,45.52,0,0,0-11.7,4.7,39.47,39.47,0,0,0-14.4,14c-2,3.4-3.7,7.3-3.7,11.3a11.44,11.44,0,0,0,5.2,9.9c3.1,1.8,6.9,2.2,10.4,2.1a58,58,0,0,0,11.7-1.7c2.2-.5,4.5-1.2,6.6-1.9Z" style="fill:#8b8efb"/><path d="M300.85,195.66c-.2.1-.5.1-.7.2-1.7-4.7-1.9-9.9-2.7-14.8a26.19,26.19,0,0,0-4-10.8,24.25,24.25,0,0,0-7.7-6.9c-9.4-5.5-20-4.6-29.5-.7,0-.3.1-.6.1-1a40.46,40.46,0,0,1,10.2-2.7,31,31,0,0,1,19.6,3.7,23.86,23.86,0,0,1,11.5,15.8C298.85,184.06,298.85,190.26,300.85,195.66Z" style="fill:#8b8efb"/><path d="M282.85,196.16c-.3,0-.5-.1-.8-.1a24.4,24.4,0,0,0-14-16.5,27.15,27.15,0,0,0-13.8-1.8c0-.2.1-.5.1-.8a21.14,21.14,0,0,1,3.5-.2,25.38,25.38,0,0,1,21,10.7A26.42,26.42,0,0,1,282.85,196.16Z" style="fill:#8b8efb"/><path d="M333,111.26a21,21,0,0,1-8.1,2.7,12.07,12.07,0,0,1-10.3-3.9c-2.5-3-3.2-7.1-2.7-11a33.66,33.66,0,0,1,4.7-12.2,39,39,0,0,1,8.3-9.8c.4-.3.9.2.5.5a42,42,0,0,0-8.5,10.2c-3.8,6.4-7.3,16.4-1,22.5,4.9,4.8,11.6,3,17.1,0A1.7,1.7,0,0,0,333,111.26Z" style="fill:#8b8efb"/><path d="M320.45,67.76a34.85,34.85,0,0,1-4.3,5.8,59,59,0,0,1-14.5,11.3,88.45,88.45,0,0,1-17.1,7.9c-7.8,2.4-16.8,2.8-24.2-.7v-.9a28.61,28.61,0,0,0,9.9,2.7c11.8.9,23.5-4.9,33.2-10.9,6.4-4,12.4-9.1,16.3-15.5C320,67.56,320.25,67.66,320.45,67.76Z" style="fill:#8b8efb"/><path d="M276,72.66a9.74,9.74,0,0,1-5.7,7.7,9.46,9.46,0,0,1-9.1-.7c.1-.3.1-.5.2-.8a8.8,8.8,0,0,0,9.5.3,9.38,9.38,0,0,0,4.5-8.5,21.12,21.12,0,0,0-.2-2.6,5.74,5.74,0,0,0,.7-.4A21,21,0,0,1,276,72.66Z" style="fill:#8b8efb"/><path d="M333.65,120.16a25,25,0,0,1-9.7,1.9c-14.3.2-26.1-9.6-38.4-15.5-6.2-3-13.1-5.3-20.1-4.9a27.61,27.61,0,0,0-4,.6.6.6,0,0,0-.1-.4.76.76,0,0,0-.1-.4c1.1-.2,2.2-.4,3.4-.5,14.4-1.4,26.7,8.3,38.8,14.5,6.3,3.3,13.2,5.9,20.4,5.8a27,27,0,0,0,9.7-1.9C333.55,119.66,333.65,119.86,333.65,120.16Z" style="fill:#8b8efb"/><path d="M283.25,129.66c-3.6,3.7-9.1,4.9-13.9,5.9a89.6,89.6,0,0,1-10.2,1.5c0-.3.1-.5.1-.7a93.41,93.41,0,0,0,10.6-1.6c4.5-.9,9.5-2.1,12.8-5.4,3.5-3.5,3.6-8.8,1.2-13s-7.3-6.5-12.1-7a26.47,26.47,0,0,0-10.4,1.4V110a24.14,24.14,0,0,1,12.5-1c4.7,1,9.2,3.8,11.2,8.3C287,121.46,286.55,126.36,283.25,129.66Z" style="fill:#8b8efb"/><path d="M303.15,121.56c-3.5-.4-7.3.3-9.5,3.3a6.41,6.41,0,0,0,.6,8.4c2.7,2.7,6.7,2.9,10.2,1.9,3.1-.9,6.2-2.8,6.1-6.4.1-4.2-3.5-6.7-7.4-7.2-.4-.1-.6.7-.1.7,3.8.6,7.8,3.5,6.6,7.8-1.1,3.9-6.7,5.2-10.2,4.8-3.8-.4-7.5-3.8-6.2-7.8s6-5.2,9.9-4.7A.4.4,0,0,0,303.15,121.56Z" style="fill:#8b8efb"/><path d="M280.55,72.56c1.7,3.4,5.4,5.2,9.1,5.3,4.5,0,8.7-2.5,12.1-5.2.4-.3-.2-.8-.5-.5-3.2,2.6-7,4.9-11.2,5a9.31,9.31,0,0,1-8.8-4.9A.38.38,0,1,0,280.55,72.56Z" style="fill:#221d58"/><path d="M331.35,93.56c-4.4,1.3-8.8,2.5-13.3,3.5-.5.1-.3.8.2.7,4.5-1,8.9-2.2,13.3-3.5C332.05,94.16,331.85,93.46,331.35,93.56Z" style="fill:#221d58"/><path d="M293.15,70.76c8.1-2.3,10.3-7.8,11.8-10.5-1.5-.6-3-1.2-4.3-1.7l-14.4,3.6s-.8.4-2.1,1.1c-.1.1-.2.1-.4.2s-.3.2-.5.3C282.35,67.46,285.35,73,293.15,70.76Z" style="fill:#fff"/><path d="M261.05,101.26a149,149,0,0,1-2.2,29.1c-.1.5.6.7.7.2a144.13,144.13,0,0,0,2.2-29.3C261.75,100.86,261.05,100.86,261.05,101.26Z" style="fill:#221d58"/><path d="M295.45,35.56a34.6,34.6,0,0,1,5.3,2.4c2.4,1.5,1.4,4.7-.8,4.7,0,0,3.2,3.8,2,5.3a1.79,1.79,0,0,1-2.7.1s1.5,3.7-1.7,4.5-6.1-5.7-6.1-5.7Z" style="fill:#2c2f37"/><path d="M278.65,43.06a25.89,25.89,0,0,0-4.5,3.6c-1.9,2-.2,4.9,1.9,4.4,0,0-2.2,4.5-.6,5.6a1.82,1.82,0,0,0,2.7-.5s-.6,3.9,2.7,4,4.6-7,4.6-7Z" style="fill:#2c2f37"/><path d="M302.75,59.56s-5.2,10-14.4,8.7a4.59,4.59,0,0,1-3.9-4.3l-.2-4.6-.3-5.2-.2-3.6,12.5-6.9A45.3,45.3,0,0,0,302.75,59.56Z" style="fill:#d06828"/><path d="M294.75,49.76c-3.5,9.1-8.5,11.7-10.5,11.6l-.4-7.1Z" style="fill:#2c2f37"/><path d="M270.65,35.26a12.88,12.88,0,0,0,.7,4.1c.6,1.7,2.9,3.5,2.9,3.5S274.35,36.36,270.65,35.26Z" style="fill:#2c2f37"/><path d="M296.35,39.66c.1.6.2,1.1.3,1.6a12,12,0,0,1-.1,3.3,30.11,30.11,0,0,1-1.8,5.3c-1.4,3.4-4.5,5.4-7.9,6.3-8.9,2.4-11.4-3.4-13.1-12.8-1.1-5.8-3.5-8.6-2.7-11.2.1-.1.1-.3.2-.4a13.54,13.54,0,0,1,7.8-6.1c.6-.2,1.2-.3,1.8-.5.1,0,.3-.1.4-.1h.2c.2,0,.3-.1.4-.1a.37.37,0,0,0,.3-.1c.2,0,.5-.1.7-.1,7.4-.9,10.4,2.9,11.8,7.1A63.34,63.34,0,0,1,296.35,39.66Z" style="fill:#d06828"/><path d="M282.75,47.86a1.9,1.9,0,1,1-1.9-1.9A1.9,1.9,0,0,1,282.75,47.86Z" style="fill:#fff"/><path d="M281.15,40.06a.85.85,0,0,0,1,.6c.4-.1.5-.6.3-1.1a.85.85,0,0,0-1-.6C281.15,39.06,281.05,39.56,281.15,40.06Z" style="fill:#2c2f37"/><path d="M275.35,41.66a.85.85,0,0,0,1,.6c.4-.1.5-.6.3-1.1a.85.85,0,0,0-1-.6A.91.91,0,0,0,275.35,41.66Z" style="fill:#2c2f37"/><path d="M286.75,41.36c.1.5-.5,1.1-1.5,1.3s-1.8,0-1.9-.5.5-1.1,1.5-1.3S286.65,40.86,286.75,41.36Z" style="fill:#9e4825"/><path d="M274.25,45.66a3.3,3.3,0,0,0,1.4,0c.9-.2,1.6-.8,1.5-1.3s-1-.7-1.9-.5a2.68,2.68,0,0,0-1.2.6Z" style="fill:#9e4825"/><path d="M281.35,36.56a1.25,1.25,0,0,1,1.7.3.81.81,0,0,0,1.1.4.76.76,0,0,0,.4-1.1,2.81,2.81,0,0,0-3.8-1.2.81.81,0,0,0-.4,1.1A.69.69,0,0,0,281.35,36.56Z" style="fill:#2c2f37"/><path d="M274.75,39.56a1.61,1.61,0,0,1,1.2-1.3.82.82,0,0,0-.3-1.6,3.1,3.1,0,0,0-2.5,2.4C273.05,40.06,274.55,40.56,274.75,39.56Z" style="fill:#2c2f37"/><path d="M280.35,44a.52.52,0,0,0,.2-.4c0-.2-.2-.2-.4-.2a2,2,0,0,1-1.3.1,6.33,6.33,0,0,0,.3-2.8c0-.2-.2-.3-.3-.2s-.3.2-.2.3a4.22,4.22,0,0,1-.4,2.7.19.19,0,0,0,0,.3.22.22,0,0,0,.2.2C278.25,44,279.15,44.36,280.35,44Z" style="fill:#2c2f37"/><path d="M293.75,43a4.85,4.85,0,0,0,2.9-1.8,12,12,0,0,1-.1,3.3A4.35,4.35,0,0,1,293.75,43Z" style="fill:#2c2f37"/><path d="M292.65,32.36c-3.3,1.9-2.1,8.1-4.2,7.5s-1.2-11.4-5.8-9.9-3.8,2.2-6,2.9c-3.6,1.2-4.1-.6-5.6-.7.1-.1.1-.3.2-.4a13.54,13.54,0,0,1,7.8-6.1c.6-.2,1.2-.3,1.8-.5.1,0,.3-.1.4-.1h.2c.2,0,.3-.1.4-.1a.37.37,0,0,0,.3-.1c.2,0,.5-.1.7-.1,7.4-.9,10.4,2.9,11.8,7.1A4.47,4.47,0,0,0,292.65,32.36Z" style="fill:#2c2f37"/><path d="M288.45,39.86c2.1.6.9-5.6,4.2-7.5a3,3,0,0,1,2-.4c1,2.9,1.2,5.9,1.7,7.7l.3,1.5c.4-4.1.9-8.8.7-10.8a4.25,4.25,0,0,0-.2-1.1c-.1-.1-.2-.1-.3-.2a4.71,4.71,0,0,0-1.5-.6,10.9,10.9,0,0,0-2.6-.3,20.15,20.15,0,0,0-8.1,2.1C287.05,32.06,286.75,39.36,288.45,39.86Z" style="fill:#2c2f37"/><path d="M269.55,30.66l27.5-2.5c-.3-3.8-3.1-6.8-7-8.3-.4-.1-.7-.3-1.1-.4a20.94,20.94,0,0,0-3.6-.8,1.7,1.7,0,0,1-.7-.1,19.3,19.3,0,0,0-3.4,0,1.27,1.27,0,0,0-.6.1,24.91,24.91,0,0,0-3.7.9,3.55,3.55,0,0,0-.9.4,4.67,4.67,0,0,0-1,.5A10.65,10.65,0,0,0,269.55,30.66Z" style="fill:#e2809b"/><path d="M288.84,19.46a16.52,16.52,0,0,1,3.9,8.6c0,.4.7.3.6,0a18,18,0,0,0-3.4-8.2A3.58,3.58,0,0,0,288.84,19.46Z" style="fill:#ac4477"/><path d="M286.35,27.46c0,.4.6.5.6.1a17,17,0,0,0-1.6-8.9,1.7,1.7,0,0,1-.7-.1A17.12,17.12,0,0,1,286.35,27.46Z" style="fill:#ac4477"/><path d="M280.55,27.76c0,.4.6.3.6,0,.2-3-.3-6.1,0-9.1a1.27,1.27,0,0,0-.6.1C280.25,21.76,280.75,24.76,280.55,27.76Z" style="fill:#ac4477"/><path d="M273.65,29.56c.1.4.7.2.6-.2a12.82,12.82,0,0,1,1.7-9.5,4.67,4.67,0,0,0-1,.5A13.53,13.53,0,0,0,273.65,29.56Z" style="fill:#ac4477"/><path d="M297,28c.7.3,2,5.2.6,5.8,0,0-10.6-3-17.3-1.9s-9.2,4.5-10.2,4c-1.9-1-1.5-5.8-.8-6.6C269.25,29.26,284.65,22.46,297,28Z" style="fill:#ac4477"/><path d="M281.15,52.26a1.82,1.82,0,0,0,1.9-.8c.2-.3-.3-.6-.5-.3-.3.5-.8.5-1.3.5S280.75,52.26,281.15,52.26Z" style="fill:#9e4825"/><path d="M290.35,41.46a5.45,5.45,0,0,1-.5-4.5c.7-1.9,2-5,4-5.2,2.9-.3,3.9,2.1,4.2,4.7s-.5,6.4-4.1,6.7A3.43,3.43,0,0,1,290.35,41.46Z" style="fill:#d06828"/><path d="M297.15,42.36a1.2,1.2,0,1,1-1.2-1.2A1.16,1.16,0,0,1,297.15,42.36Z" style="fill:#fff"/><path d="M293.65,40.16a6.1,6.1,0,0,1-.6-3.3c.1-1,.8-2.6,2.1-2.5a.36.36,0,0,0,.1-.7,2.76,2.76,0,0,0-2.6,1.9,6.38,6.38,0,0,0,.4,4.7C293.15,40.86,293.75,40.56,293.65,40.16Z" style="fill:#2c2f37"/><path d="M273.75,47.36a4.2,4.2,0,1,1,4.2-4.2A4.16,4.16,0,0,1,273.75,47.36Zm0-7.7a3.6,3.6,0,1,0,3.6,3.6A3.59,3.59,0,0,0,273.75,39.66Z" style="fill:#fff"/><path d="M283.35,44.56a4.2,4.2,0,1,1,4.2-4.2A4.23,4.23,0,0,1,283.35,44.56Zm0-7.8a3.6,3.6,0,1,0,3.6,3.6A3.59,3.59,0,0,0,283.35,36.76Z" style="fill:#fff"/><path d="M277.55,41.56a1.26,1.26,0,0,1,1.6-.6.26.26,0,1,0,.1-.5,1.74,1.74,0,0,0-2.2.8C277,41.56,277.35,41.86,277.55,41.56Z" style="fill:#fff"/><path d="M287.15,38.26a5.26,5.26,0,0,1,3.4-3.1c.3-.1.2-.6-.1-.5a5.79,5.79,0,0,0-3.7,3.3C286.55,38.26,287.05,38.56,287.15,38.26Z" style="fill:#fff"/><path d="M270.55,369.76a.47.47,0,0,1-.5-.5c0-.8,1.4-84.4,1.1-89.3s17.3-58.8,18-61.1a.47.47,0,0,1,.9.3c-6.3,19.3-18.2,56.9-18,60.7.3,4.9-1,85.9-1.1,89.3C271.05,369.56,270.85,369.76,270.55,369.76Z" style="fill:#63636c"/><path d="M274.75,370.46l-22.4-1.8a.5.5,0,1,1,0-1l22.3,1.8a.54.54,0,0,1,.5.5A.46.46,0,0,1,274.75,370.46Z" style="fill:#63636c"/><path d="M248.55,279a39.89,39.89,0,0,1-5.1-.3c-.3,0-.4-.3-.4-.6s.3-.4.6-.4a42.05,42.05,0,0,0,10.4,0,.45.45,0,0,1,.1.9A29.88,29.88,0,0,1,248.55,279Z" style="fill:#63636c"/><path d="M18.45,177.16a9.1,9.1,0,1,1,9.1-9.1A9.13,9.13,0,0,1,18.45,177.16Zm0-16.7a7.6,7.6,0,1,0,7.6,7.6A7.6,7.6,0,0,0,18.45,160.46Z" style="fill:#ceb899"/><path d="M339.75,22.76a9.1,9.1,0,1,1,9.1-9.1A9.13,9.13,0,0,1,339.75,22.76Zm0-16.7a7.6,7.6,0,1,0,7.6,7.6A7.6,7.6,0,0,0,339.75,6.06Z" style="fill:#ceb899"/><path d="M526.75,176.46a9.1,9.1,0,1,1,9.1-9.1A9.13,9.13,0,0,1,526.75,176.46Zm0-16.7a7.6,7.6,0,1,0,7.6,7.6A7.6,7.6,0,0,0,526.75,159.76Z" style="fill:#ceb899"/><path d="M421.65,50.66c-3.7,0-6.5-1.9-6.5-5.7,0-3.1,2.3-5.1,5.7-5.2l.2-1.9h5.2l.2,5.6h-2.2c-2,0-3.3.4-3.2,1.5a.92.92,0,0,0,.9,1c.8,0,1-.6,1-1.2h5.5C428.45,47.86,426.35,50.66,421.65,50.66Zm1.9-20.6c2.1,0,3.4,1.3,3.4,2.9s-1.3,2.9-3.4,2.9-3.3-1.3-3.3-2.9S421.45,30.06,423.55,30.06Z" style="fill:#ceb899"/><path d="M491.25,67.06h5.5c0,.6.3,1.2,1,1.2a.87.87,0,0,0,.9-1c.1-1.1-1.2-1.5-3.2-1.5h-2.2l.2-5.6h5.2l.2,1.9c3.3.1,5.7,2.1,5.7,5.2,0,3.9-2.7,5.7-6.5,5.7C493.25,73,491.15,70.16,491.25,67.06Zm8.2-11.8a3,3,0,0,1-3.3,2.9c-2.1,0-3.4-1.3-3.4-2.9s1.3-2.9,3.4-2.9A3,3,0,0,1,499.45,55.26Z" style="fill:#ceb899"/><path d="M147.25,18.56c3.5,0,6.1,1.7,6.1,5.4,0,2.9-2.2,4.8-5.3,4.9l-.1,1.7h-4.8l-.1-5.2h2.1c1.9,0,3.1-.4,3-1.4a.84.84,0,0,0-.9-.9,1,1,0,0,0-1,1.1h-5.1C140.85,21.16,142.85,18.56,147.25,18.56Zm-1.7,19.2c-1.9,0-3.2-1.2-3.2-2.7s1.2-2.7,3.2-2.7a2.73,2.73,0,1,1,0,5.4Z" style="fill:#2c2f37"/><path d="M133,37.76c-3.5,0-6.1-1.7-6.1-5.4,0-2.9,2.2-4.8,5.3-4.9l.1-1.7h4.8l.1,5.2h-2.1c-1.9,0-3.1.4-3,1.4a.84.84,0,0,0,.9.9,1,1,0,0,0,1-1.1h5.1C139.35,35.16,137.35,37.76,133,37.76Zm1.7-19.2c1.9,0,3.2,1.2,3.2,2.7s-1.2,2.7-3.2,2.7a2.8,2.8,0,0,1-3.1-2.7C131.55,19.66,132.75,18.56,134.65,18.56Z" style="fill:#2c2f37"/><path d="M207,21.66h25.6a3,3,0,0,1,3,3v18.7a3,3,0,0,1-3,3H207a3,3,0,0,1-3-3V24.76A3,3,0,0,1,207,21.66Z" style="fill:#467b6c"/><path d="M220.35,25.86c3.2,0,5.5,1.6,5.5,4.9,0,2.7-2,4.4-4.8,4.4l-.1,1.6h-4.4l-.1-4.8h1.9c1.7,0,2.8-.3,2.7-1.3a.79.79,0,0,0-.8-.8c-.7,0-.9.5-.9,1h-4.7C214.55,28.26,216.35,25.86,220.35,25.86Zm-1.5,17.6c-1.8,0-2.9-1.1-2.9-2.4a2.93,2.93,0,0,1,5.8,0A2.7,2.7,0,0,1,218.85,43.46Z" style="fill:#fff"/><path d="M209.65,46.46l3.1,8.6,4.3-8.6Z" style="fill:#467b6c"/><path d="M537.65,82.36a14.8,14.8,0,1,0-14.8-14.8A14.8,14.8,0,0,0,537.65,82.36Z" style="fill:#d03f23"/><path d="M534.15,78.66l5.4,10.3,4.2-10.8Z" style="fill:#d03f23"/><path d="M533.15,67.56a2.3,2.3,0,1,1-4.6,0,2.4,2.4,0,0,1,2.3-2.3A2.2,2.2,0,0,1,533.15,67.56Z" style="fill:#fff"/><path d="M546.85,67.56a2.33,2.33,0,0,1-2.3,2.3,2.3,2.3,0,1,1,0-4.6A2.33,2.33,0,0,1,546.85,67.56Z" style="fill:#fff"/><path d="M540.05,67.56a2.3,2.3,0,1,1-4.6,0,2.4,2.4,0,0,1,2.3-2.3A2.26,2.26,0,0,1,540.05,67.56Z" style="fill:#fff"/><path d="M487.65,87.66s12.8,28.4,18.3,35.5c0,0,12.8-4.9,20.2-10.1s7.7-3.5,7.7-3.5,4.1,2.9,5.2,7.1-24.2,28.9-36.9,28.9c-9.4,0-22.2-22.6-22.2-22.6Z" style="fill:#467b6c"/><path d="M532.05,123.66a.9.9,0,1,0-.9-.9A.9.9,0,0,0,532.05,123.66Z" style="fill:#253f3d"/><path d="M524.45,114.26a12,12,0,0,0,7,12.6c.4.2.6-.5.2-.7-4.6-1.9-7.1-7-6.5-11.8A.36.36,0,1,0,524.45,114.26Z" style="fill:#253f3d"/><path d="M532.45,117.16a29,29,0,0,0-6,5.1c-.3.3.2.9.5.5a30.14,30.14,0,0,1,5.8-4.9A.38.38,0,1,0,532.45,117.16Z" style="fill:#253f3d"/><path d="M505.55,123a18,18,0,0,0-4.4,4.7c-.3.4.4.8.6.4a17.19,17.19,0,0,1,4.1-4.4C506.25,123.26,506,122.66,505.55,123Z" style="fill:#64653d"/><path d="M504.55,123.76a14.05,14.05,0,0,0-2.9,0c-.5,0-.5.8,0,.7a14.05,14.05,0,0,1,2.9,0C505,124.56,505,123.86,504.55,123.76Z" style="fill:#64653d"/><path d="M499.15,144.26a8.23,8.23,0,0,1,12.1-1.8c.4.3.9-.2.5-.5a9.1,9.1,0,0,0-13.3,1.9A.41.41,0,0,0,499.15,144.26Z" style="fill:#253f3d"/><path d="M532.85,118.86l-2.2-2.8s-1.6-4,0-5.9c4.5-5.5,12.5-7.3,12.8-5.5,0,.3,1.9,10,1.9,10l-4,5.4Z" style="fill:#fe8c68"/><path d="M541.15,120.86h-9.5c-1.6,0-2.4-1.7-1.6-3.3l10.2-20.3a3.42,3.42,0,0,1,2.8-1.9h9.5c1.6,0,2.4,1.7,1.6,3.3L544,119A3.35,3.35,0,0,1,541.15,120.86Z" style="fill:#2c2f37"/><path d="M542.05,120.86h-9.5c-1.6,0-2.4-1.7-1.6-3.3l10.2-20.3a3.42,3.42,0,0,1,2.8-1.9h9.5c1.6,0,2.4,1.7,1.6,3.3L544.85,119A3.23,3.23,0,0,1,542.05,120.86Z" style="fill:#fff"/><path d="M546,108.16a3.41,3.41,0,0,1-2.7,2.3c-1,0-1.4-1-.9-2.3a3.41,3.41,0,0,1,2.7-2.3C546.14,105.86,546.54,107,546,108.16Z" style="fill:#2c2f37"/><path d="M544.35,98.66a2.09,2.09,0,0,1-1.5,1.3c-.6,0-.8-.6-.5-1.3a2.09,2.09,0,0,1,1.5-1.3C544.35,97.36,544.65,98,544.35,98.66Z" style="fill:#2c2f37"/><path d="M550.75,106.86s-5.8-2.1-7.1-1.1,4.3,3.9,4.3,3.9-3.5-1.1-4.6-.6,2.8,3.2,2.8,3.2-2.4-.7-2.8.6.3,2,1.5,2.7a3.56,3.56,0,0,0,3.3.2c.7-.4.6-1.8.6-1.8s2.6-.4,2.9-1.3a2.09,2.09,0,0,0-.1-1.6,2.18,2.18,0,0,0,1.8-.8,1.85,1.85,0,0,0,.4-1.7,18,18,0,0,0,2.1-2.7c.6-1-1.1-2.5-2.1-3.5s-3.8.8-5.9.6c0,0-1.2.3-.3,1.4s3.5.6,4,.8C551.85,105.46,550.75,106.86,550.75,106.86Z" style="fill:#fe8c68"/><path d="M445.35,43.86a23,23,0,0,1-9,17.5c-9.2,6.9-21.9,5-26.2,20.5-3,10.9,5.6,18.4,19.7,19.7s19.2-18,33.6-7.8,20.9,5.7,21.1-2.7-7.9-15-8.3-25.7a58.76,58.76,0,0,1,3.5-20.8Z" style="fill:#d03f23"/><path d="M443.25,53.56a40.15,40.15,0,0,0,2.2-9.7,44.47,44.47,0,0,1,1.4-8.1,16.8,16.8,0,0,1,3.9-7.1,17.13,17.13,0,0,1,21.6-2.7c3.4,2.1,7.8,3.9,9,11.4.8,4.8-5.2,15.3-8.5,25.4Z" style="fill:#d03f23"/><path d="M464.15,24.36s4.9-7.5-1.2-10.6-8.2,1.9-8.2,1.9a5.59,5.59,0,0,0-6.4,3.9c-1.7,4.9,2.9,6.9,4.3,7.4S464.15,24.36,464.15,24.36Z" style="fill:#d03f23"/><path d="M464.05,24a12.92,12.92,0,0,0-10.2,2.9c-.6.5-1.3-.4-.8-.8a14.16,14.16,0,0,1,11-3.2C464.75,23,464.75,24.06,464.05,24Z" style="fill:#2c2f37"/><path d="M473.25,55.36a3.44,3.44,0,0,1,1,3c-.2,1.7-1.3,2.9-2.5,2.8s-1.9-1.6-1.7-3.3a3.79,3.79,0,0,1,1.3-2.5c-.1-.1-.1-.2-.2-.4a.1.1,0,0,0-.1-.1,3.82,3.82,0,0,0-1.6,2.9c-.3,2,.7,3.7,2.2,3.9s2.9-1.3,3.1-3.2c.2-1.7-.5-3.3-1.7-3.8C473.05,54.66,472.85,55,473.25,55.36Z" style="fill:#fff"/><path d="M476.85,104c-.1.3-.2.5-.3.8a80.21,80.21,0,0,0-2.5,8.9c-.1.3-.1.6-.2.9a54.27,54.27,0,0,0-.9,6.2c0,.3-.1.6-.1.9a60.12,60.12,0,0,0,0,10.4c.1,1-1.4,1.8-3.7,2.4a3,3,0,0,1-1,.2,68.25,68.25,0,0,1-12.3,1.3h-1.1c-9.6.1-19.7-1.5-20.6-5.3-.3-1.2-.9-3.4-1.8-6.1-4.5-14.4-14.6-45.2-9.5-48.3,6.1-3.7,25.8-10.9,25.8-10.9l14,3.3s2.6,1.4,5.9,3.5a4.35,4.35,0,0,0,.7.4c5.4,3.4,12.2,8.4,13.1,12.1C483.55,89.66,480,95.36,476.85,104Z" style="fill:#fff"/><path d="M477.15,146.26c-29.8,17.1-47.8,1.6-47.8,1.6,4.5-14.1,2.8-23.4,2.8-23.4h.2l25.6,4.7.8.2,5.9,1.1,1,.2,7.1,1.3,1.4,4.8.3.9Z" style="fill:#fff"/><path d="M439.85,71.86c8.5-1.1,17.4,3.6,20.8,11.6,3,7,.1,16.3-7.6,18.7a.41.41,0,0,0,.2.8c5.8-1.8,9.6-7.7,9.5-13.7-.1-6.7-4.7-12.8-10.5-15.9a21.27,21.27,0,0,0-12.4-2.3A.4.4,0,0,0,439.85,71.86Z" style="fill:#2c2f37"/><path d="M476.85,104c-.1.3-.2.5-.3.8a28,28,0,0,1-8.9-13.2,29,29,0,0,1-1.1-13.1c.3-2,.8-4.7,2.2-6.4a4.65,4.65,0,0,1,2.8-1.6c.5-.1.5.8,0,.8a3.25,3.25,0,0,0-2.2,1.2c-1.9,2.1-2.2,6.6-2.3,8.8a28.25,28.25,0,0,0,2,11.8A26.71,26.71,0,0,0,476.85,104Z" style="fill:#2c2f37"/><path d="M474.05,113.66c-.1.3-.1.6-.2.9A35.82,35.82,0,0,0,468,111c-3.7-1.7-7.9-2.6-11.9-1.6a11.69,11.69,0,0,0-8.3,7.1c-.2.5-1,.3-.8-.2,2.6-7.6,11.9-9.5,18.7-7.1A27.14,27.14,0,0,1,474.05,113.66Z" style="fill:#2c2f37"/><path d="M444.15,122.36a6.7,6.7,0,0,1,8.5-2.5,9,9,0,0,1,5.4,7.4c.6,7-5.4,12-11.7,13.4-.5.1-.3.9.2.8,7.2-1.5,14.1-7.9,12-15.9a9.76,9.76,0,0,0-6.7-6.8,7.55,7.55,0,0,0-8.5,3.2C443.15,122.36,443.85,122.76,444.15,122.36Z" style="fill:#2c2f37"/><path d="M475.25,123c-.7-.4-1.5-.9-2.3-1.4-2.3-1.2-5-2-7.1-.2-2.4,2.1-1.6,6-.3,8.5.1.3.3.5.4.8a11.86,11.86,0,0,0,3.3,3.7,12.23,12.23,0,0,0,5.2,2.3l.3.9a12.67,12.67,0,0,1-6.4-3,12.84,12.84,0,0,1-3.4-4.2,14.17,14.17,0,0,1-.8-1.8c-1-2.8-1-6.8,1.9-8.5,2.3-1.3,4.8-.7,7,.4.9.5,1.8,1,2.6,1.5C476.05,122.56,475.65,123.26,475.25,123Z" style="fill:#2c2f37"/><path d="M477.55,91.06s-.2,3.9,4,11.1c5.1,8.6-7.5,16.9-10,18.9S477.55,91.06,477.55,91.06Z" style="fill:#fff"/><path d="M431,100.16a50.18,50.18,0,0,1,7.3,35.6c-.1.4.6.5.7.1a50.44,50.44,0,0,0-7.4-36.1C431.25,99.46,430.75,99.86,431,100.16Z" style="fill:#2c2f37"/><path d="M448.25,67.76s7.7,8.1,16.8,2.8l-.2-5.1-.2-5.6-.1-3.9L454,47.66Z" style="fill:#fe8c68"/><path d="M455.65,54.26c3.5,10.1,7.8,14.1,9.4,14.1l-.3-8.5Z" style="fill:#2c2f37"/><path d="M451.85,43.86c.2,4,1,5.4,2.9,9.6a14,14,0,0,0,7.7,7c7.6,2.4,12,0,13.4-10.7.9-6.7,3.5-9.9,2.4-12.9-.1-.1-.2-.3-.3-.4a15.14,15.14,0,0,0-9.3-6.5C449.85,25.56,451.45,38.26,451.85,43.86Z" style="fill:#fe8c68"/><path d="M465.65,52.46a5,5,0,0,1,3.9,2.1c.3.4.9,0,.6-.4a5.83,5.83,0,0,0-4.5-2.4A.35.35,0,1,0,465.65,52.46Z" style="fill:#2c2f37"/><path d="M477.65,44.76s3.6-4.9,2.7-9.1-5.7-7.9-5.7-7.9-2.4-.3-2.5,4.6C472.15,32.46,478.65,36.86,477.65,44.76Z" style="fill:#d03f23"/><path d="M474.25,33.16s-.7,5-5.6,5.3c0,0,2.8-2.8,2.3-5.4,0,0-3.8,7.5-10.9,5.5,0,0-1.3,6.1-3.7,6.4s-6.2-3.1-5.9-8,5.9-11.2,14.6-10S474.25,33.16,474.25,33.16Z" style="fill:#d03f23"/><path d="M468.45,56.86a2.3,2.3,0,0,1-2.2-.8c-.3-.4.3-.7.6-.4a1.74,1.74,0,0,0,1.5.5C468.85,56.16,469,56.86,468.45,56.86Z" style="fill:#b4572a"/><path d="M461.25,47.06c-.1.6.7,1.2,1.8,1.4s2.1-.1,2.2-.6-.7-1.2-1.8-1.4S461.45,46.56,461.25,47.06Z" style="fill:#b4572a"/><path d="M472.45,49.86c-.1.6.7,1.2,1.8,1.4a3.3,3.3,0,0,0,1.4,0,7.72,7.72,0,0,0,.2-1.5v-.1a3.34,3.34,0,0,0-1.2-.5C473.55,49.06,472.55,49.36,472.45,49.86Z" style="fill:#b4572a"/><path d="M466.35,44.86a.89.89,0,0,0,.5,1.1c.4.1.8-.3.9-.8a.89.89,0,0,0-.5-1.1C466.85,44,466.45,44.36,466.35,44.86Z" style="fill:#2c2f37"/><path d="M472.75,46.46a.89.89,0,0,0,.5,1.1c.4.1.8-.3.9-.8a.89.89,0,0,0-.5-1.1C473.25,45.56,472.85,46,472.75,46.46Z" style="fill:#2c2f37"/><path d="M469.65,50.26a4.48,4.48,0,0,1-1.1-.1c-.2,0-.3-.2-.2-.4s.2-.3.4-.2a2.53,2.53,0,0,0,1.5,0,6.63,6.63,0,0,1-.8-2.7.3.3,0,0,1,.6,0,5.9,5.9,0,0,0,.9,2.7.37.37,0,0,1,.1.3.22.22,0,0,1-.2.2C470.85,50,470.45,50.26,469.65,50.26Z" style="fill:#2c2f37"/><path d="M458.65,48.36a4.77,4.77,0,0,0,.19-4.2c-.7-1.8-2.1-4.6-4-4.7-2.8-.2-3.49,2.2-3.79,4.6s.69,6,4.19,6.1A3.2,3.2,0,0,0,458.65,48.36Z" style="fill:#fe8c68"/><path d="M453.75,48.06a3.44,3.44,0,0,1,1,3c-.2,1.7-1.3,2.9-2.5,2.8s-1.9-1.6-1.7-3.3a3.79,3.79,0,0,1,1.3-2.5c-.1-.1-.1-.2-.2-.4a.1.1,0,0,0-.1-.1,3.82,3.82,0,0,0-1.6,2.9c-.3,2,.7,3.7,2.2,3.9s2.9-1.3,3.1-3.2c.2-1.7-.5-3.3-1.7-3.8C453.65,47.36,453.35,47.66,453.75,48.06Z" style="fill:#fff"/><path d="M455.05,47.26a7.89,7.89,0,0,0,.5-3c-.1-.9-.8-2.4-2-2.2-.4,0-.5-.6-.1-.6a2.46,2.46,0,0,1,2.4,1.7,5.8,5.8,0,0,1-.2,4.3C455.55,47.86,455,47.66,455.05,47.26Z" style="fill:#2c2f37"/><path d="M483.75,354.76l-.4,31.9,10.1.2,4.3-30.7Z" style="fill:#fe8c68"/><path d="M490.15,386.66s3-5.3,5.1-4.5,4.5,6.2,4.5,6.2,11,3.9,14.1,4.1,5.8,2.2,7,9.1h-37.4s-1.5-15.6-1.7-18.2,3.1,2.2,3.1,2.2Z" style="fill:#e2809b"/><path d="M483.15,392.86a43,43,0,0,0,11.3,1.2,21,21,0,0,1,5.6,0c1.9.4,3.7,1.9,3.5,4a.4.4,0,0,0,.8,0c.3-3.6-3.6-5-6.6-5-2.3,0-4.5.2-6.8.1a39.71,39.71,0,0,1-7.7-1.1C482.85,392,482.65,392.76,483.15,392.86Z" style="fill:#ac4477"/><path d="M514.85,393a6.11,6.11,0,0,0-5.3,5.8.35.35,0,1,0,.7,0,5.24,5.24,0,0,1,4.5-5C515.35,393.66,515.35,393,514.85,393Z" style="fill:#ac4477"/><path d="M483.45,401.56s-2.3-3.3-.5-5.3,7.6-1.4,11.5.3c2.2,1,8,1.9,10.1,1.5s11.1-.9,15.2-.1a2.44,2.44,0,0,1,1.2,3.6Z" style="fill:#fff"/><path d="M488.35,161.56s10.6,38.7,18.3,104.5c-5,87.6-7.9,95-7.9,95h-16s-6.1-84.2-9.3-95.9c-3.8-13.5-29-89.5-29-89.5Z" style="fill:#6059c9"/><path d="M485.25,358.16v-.7a.4.4,0,0,1,.8,0v.7a.43.43,0,0,1-.4.4A.78.78,0,0,1,485.25,358.16Zm-.2-4.3-.2-3.5a.4.4,0,1,1,.8,0l.2,3.5a.4.4,0,0,1-.8,0Zm-.4-7.1-.2-3.5a.4.4,0,0,1,.8,0l.2,3.5a.43.43,0,0,1-.4.4C484.85,347.16,484.75,347,484.65,346.76Zm-.3-7-.2-3.5a.4.4,0,0,1,.8,0l.2,3.5a.43.43,0,0,1-.4.4C484.55,340.06,484.35,340,484.35,339.76Zm-.4-7.1-.2-3.5a.4.4,0,0,1,.8,0l.2,3.5a.4.4,0,1,1-.8,0Zm-.4-7.1-.2-3.5a.4.4,0,1,1,.8,0l.2,3.5a.4.4,0,0,1-.8,0Zm-.4-7c-.1-1.2-.1-2.4-.2-3.5a.4.4,0,0,1,.8,0c.1,1.2.1,2.4.2,3.5a.4.4,0,1,1-.8,0Zm-.4-7.1c-.1-1.2-.1-2.4-.2-3.5a.4.4,0,0,1,.8,0c.1,1.2.1,2.3.2,3.5a.4.4,0,0,1-.8,0Zm-.5-7.1c-.1-1.2-.1-2.4-.2-3.5a.4.4,0,1,1,.8,0c.1,1.2.1,2.3.2,3.5a.43.43,0,0,1-.4.4C482.45,304.76,482.35,304.66,482.25,304.36Zm-.4-7c-.1-1.2-.2-2.4-.2-3.5a.4.4,0,1,1,.8,0c.1,1.2.2,2.3.2,3.5a.4.4,0,0,1-.8,0Zm-.5-7.1c-.1-1.2-.2-2.4-.2-3.5a.4.4,0,0,1,.8,0c.1,1.1.2,2.3.2,3.5a.43.43,0,0,1-.4.4C481.55,290.66,481.45,290.46,481.35,290.26Zm-.4-7c-.1-1.2-.2-2.4-.3-3.5a.43.43,0,0,1,.4-.4.37.37,0,0,1,.4.4c.1,1.1.2,2.3.3,3.5a.43.43,0,0,1-.4.4C481.05,283.56,481,283.46,481,283.26Zm-.6-7.1c-.1-1.3-.2-2.5-.3-3.5a.4.4,0,0,1,.8,0c.1,1,.2,2.2.3,3.5a.37.37,0,0,1-.4.4A.43.43,0,0,1,480.35,276.16Zm-.7-7a8.66,8.66,0,0,0-.2-1q-.15-.75-.6-2.4c-.1-.2.1-.4.3-.5s.4.1.5.3c.3,1,.5,1.9.6,2.4.1.3.1.6.2,1.1a.55.55,0,0,1-.3.5h-.1C479.85,269.46,479.65,269.36,479.65,269.16Zm-1.8-6.8c-.3-1-.7-2.2-1.1-3.4-.1-.2.1-.4.3-.5s.4.1.5.3c.4,1.2.7,2.3,1.1,3.4.1.2-.1.4-.3.5h-.1C478.05,262.66,477.85,262.56,477.85,262.36Zm-2.2-6.8c-.3-1.1-.7-2.2-1.1-3.4-.1-.2,0-.4.3-.5s.4,0,.5.3c.4,1.2.7,2.3,1.1,3.4.1.2,0,.4-.3.5h-.1A.54.54,0,0,1,475.65,255.56Zm-2.1-6.7c-.4-1.1-.7-2.2-1.1-3.4-.1-.2,0-.4.3-.5s.4,0,.5.3c.4,1.1.7,2.3,1.1,3.4.1.2,0,.4-.3.5H474C473.75,249.16,473.55,249.06,473.55,248.86Zm-2.2-6.7c-.4-1.1-.7-2.2-1.1-3.4-.1-.2,0-.4.3-.5s.4,0,.5.3c.4,1.1.7,2.2,1.1,3.4.1.2,0,.4-.3.5h-.1C471.55,242.46,471.35,242.36,471.35,242.16Zm-2.3-6.7c-.4-1.1-.8-2.3-1.1-3.4-.1-.2,0-.4.3-.5s.4,0,.5.3c.4,1.1.7,2.2,1.1,3.4.1.2,0,.4-.3.5h-.1C469.25,235.76,469.15,235.66,469.05,235.46Zm-2.2-6.7c-.4-1.2-.8-2.3-1.1-3.4-.1-.2,0-.4.3-.5s.4,0,.5.3c.4,1.1.7,2.2,1.1,3.4.1.2,0,.4-.3.5h-.1A.45.45,0,0,1,466.85,228.76Zm-2.3-6.7c-.4-1.2-.8-2.3-1.1-3.4-.1-.2,0-.4.3-.5s.4,0,.5.3c.3,1,.7,2.2,1.1,3.4.1.2,0,.4-.3.5H465A1.38,1.38,0,0,1,464.55,222.06Zm-2.3-6.7c-.7-2.1-1.1-3.4-1.1-3.4-.1-.2,0-.4.3-.5s.4,0,.5.3c0,0,.4,1.2,1.1,3.4.1.2,0,.4-.3.5h-.1A1.38,1.38,0,0,1,462.25,215.36Z" style="fill:#221d58"/><path d="M506.35,270.86l.3-4.8c-.2-1.7-.4-3.4-.6-5-6-.1-11.8.2-15.8,2.9C485.35,267.16,496.45,272.26,506.35,270.86Z" style="fill:#fe8c68"/><path d="M499.85,359.86l-19.2-1.7v9.3l18.8,1.7Z" style="fill:#221d58"/><path d="M473.85,135s-19.3,12.1-42.3,4.9c0,0-7.5,20-6.4,32.6s55.9,4.7,62.7-6.1C492.05,160,473.85,135,473.85,135Z" style="fill:#6059c9"/><path d="M439.65,150.36a25.34,25.34,0,0,1-13.8,18.8c-.5.2-.9-.5-.4-.7a24.56,24.56,0,0,0,13.5-18.3C439,149.56,439.75,149.76,439.65,150.36Z" style="fill:#221d58"/><path d="M471,149.86a19.18,19.18,0,0,0,17,13,.4.4,0,0,1,0,.8,20.42,20.42,0,0,1-17.8-13.6A.41.41,0,0,1,471,149.86Z" style="fill:#221d58"/><path d="M475.75,139.66a53.87,53.87,0,0,1-45.5,6.7c-.4-.1-.7.5-.2.6a54.48,54.48,0,0,0,36.7-1.8,60.16,60.16,0,0,0,9.4-5C476.55,140,476.15,139.46,475.75,139.66Z" style="fill:#221d58"/><path d="M470.25,137.46a11.56,11.56,0,0,1,1.9,4.4c.1.4.8.3.7-.1a13.11,13.11,0,0,0-2-4.7C470.55,136.66,470.05,137.16,470.25,137.46Z" style="fill:#221d58"/><path d="M437.85,141.76a21.54,21.54,0,0,0-.8,6.2c0,.4.7.3.7-.1a19.86,19.86,0,0,1,.7-5.9C438.65,141.56,438,141.36,437.85,141.76Z" style="fill:#221d58"/><path d="M450.35,142.56a15.6,15.6,0,0,0,0,5.7c.1.4.8.3.7-.1a13.22,13.22,0,0,1,0-5.6C451.15,142.16,450.45,142.06,450.35,142.56Z" style="fill:#221d58"/><path d="M457.45,144.06a1.67,1.67,0,1,0,1.4-1.9A1.56,1.56,0,0,0,457.45,144.06Z" style="fill:#221d58"/><path d="M449.15,358.06l.4,29.7-9.3.2-4-28.6Z" style="fill:#fe8c68"/><path d="M426.05,398.86a2.49,2.49,0,0,0,.1.8,12.86,12.86,0,0,0,.4,1.9h27a10.76,10.76,0,0,1-.1-1.6,2.49,2.49,0,0,0-.1-.8c-.3-3.5-1.1-9.9-1.9-12.2-1.3-3.3-2.9.6-2.9.6a8.09,8.09,0,0,0-6.3-3.6,5.08,5.08,0,0,0-4.6,2.8c-.3-.7-.1-1.8-.6-1.6-1,.4-2.3,4.7-2.3,4.9-1.2,1.2-2.8,2.6-4.1,2.8C428.05,393.06,426,395.36,426.05,398.86Z" style="fill:#e2809b"/><path d="M447.85,398.66a10.61,10.61,0,0,1,4.3-7.6c.3-.2,0-.8-.3-.5a11.11,11.11,0,0,0-4.6,8.1A.3.3,0,0,0,447.85,398.66Z" style="fill:#ac4477"/><path d="M431.65,393.06a9.41,9.41,0,0,1,10.5,6c.1.4.7.2.6-.2a10,10,0,0,0-11.3-6.4C431.15,392.56,431.25,393.16,431.65,393.06Z" style="fill:#ac4477"/><path d="M426.55,401.56a2.25,2.25,0,0,1-.5-2.7c.7-1.8,9.4-1.1,13.3-.4s4.6,1.8,7.3-.3c2.2-1.6,2.9-3.2,6.4-2.1,1.5,1.5,1.6,3.7,1.3,5.5Z" style="fill:#fff"/><path d="M425.15,171.76c-2.1,63.8,2.8,133.1,9.8,197.5h16.5l3.9-79.6,12.3-114.8Z" style="fill:#6059c9"/><path d="M426.35,265.46l.6,9.9c9.9.9,20-4.7,13.6-8C436.25,265.16,432.35,265.36,426.35,265.46Z" style="fill:#fe8c68"/><path d="M458.65,156.76c.4,8.7.7,17.4,1.1,26.1.4,10.5.8,20.9,1.2,31.4l.6,12.9c0,.4.6.3.6-.1-.4-8.7-.7-17.4-1.1-26.1-.4-10.5-.8-20.9-1.2-31.4l-.6-12.9C459.25,156.36,458.65,156.36,458.65,156.76Z" style="fill:#221d58"/><path d="M462.55,155.46a90.59,90.59,0,0,1,1.3,9.1c.1,1.4.4,3.1-.5,4.3s-2.4,1.4-3.7,1.5c-.4,0-.3.7.1.6a6.07,6.07,0,0,0,3.7-1.2,4.06,4.06,0,0,0,1.2-3.1,47.07,47.07,0,0,0-1.4-11.2C463.15,155.06,462.45,155.06,462.55,155.46Z" style="fill:#221d58"/><path d="M452.85,362.26l-20.4.8.9,7.7,19.9-.6Z" style="fill:#221d58"/><path d="M479.75,98a20.17,20.17,0,0,1-1.1-10.6c.1-.4-.6-.5-.7-.1a20.68,20.68,0,0,0,1.2,11A.34.34,0,1,0,479.75,98Z" style="fill:#2c2f37"/><path d="M451.65,139.06c.1,4,.4,10,.7,17a3.74,3.74,0,0,1-3.7,3.9h-25.4a2.58,2.58,0,0,1-2.5-3.2c.9-3.3,1.7-6.2,2.3-8.5,4.4-17.3,3.1-41.3,2.2-49.8s-7.8-17.1-2-22.9c8-8,27-9.5,27-9.5,3.2,14.3,11.1,30.6,8.4,42.7C455.75,120.86,451.35,120.16,451.65,139.06Z" style="fill:#467b6c"/><path d="M443.65,128a21.1,21.1,0,0,1-15.1,15.3c-.5.1-.3.9.2.8a22.16,22.16,0,0,0,15.7-15.9A.42.42,0,0,0,443.65,128Z" style="fill:#253f3d"/><path d="M422.15,155a177.69,177.69,0,0,0,24.2-.2.4.4,0,0,0,0-.8,177.56,177.56,0,0,1-24.2.2C421.65,154.06,421.65,154.86,422.15,155Z" style="fill:#253f3d"/><path d="M450.55,60a9.74,9.74,0,0,0-6.6,7.2s2.7,15.1,6,18.5,6.4,2.3,6.4,2.3S449.65,64.86,450.55,60Z" style="fill:#253f3d"/><path d="M449.55,119.36a74.53,74.53,0,0,0-2.2,14.8c-.5,8.5,0,17.1.1,25.7h-.8c-.1-7.2-.4-14.4-.3-21.6a103.88,103.88,0,0,1,1.1-13.6c.8-4.8,2.4-9.4,3.5-14.1,2.4-10.1,1.9-21.8-3.9-30.7-.3-.4.4-.8.7-.4,4.9,7.4,6.2,17.2,5,25.9C452.25,110.16,450.75,114.76,449.55,119.36Z" style="fill:#253f3d"/><path d="M498.05,157.06c.5,1,1.1,2,1.6,3h-12.4c-3.1-5.7-8.7-11.3-13.2-21.2-5.8-12.6.7-27.9-.2-43.1a52,52,0,0,0-8.7-25.7s24.4,11.1,22.5,19.2,4.1,15.2,4,22c-.1,7.2-8.5,11.4-5.1,21.9C488,137.66,492.65,147.06,498.05,157.06Z" style="fill:#467b6c"/><path d="M485.55,89.76c-.2,3.6-.5,7.2,1.3,10.5s5.2,6.1,5.2,10.3c0,4.4-3,7.8-4.9,11.5a16.56,16.56,0,0,0-.7,13.6c.2.5-.6.7-.8.2a17.65,17.65,0,0,1-.1-12.4c1.6-4.2,5.4-7.7,5.6-12.4.2-4.5-3.9-7.5-5.5-11.3-1.4-3.2-1.1-6.6-.9-10C484.85,89.26,485.65,89.26,485.55,89.76Z" style="fill:#64653d"/><path d="M499.65,160c-.7-.8-1.3-1.6-2-2.4-4.8-6-9.6-12.1-13.3-18.7a53.27,53.27,0,0,1-4.4-10.1,55.25,55.25,0,0,1-1.9-11.5c-1-14.4,1.9-31.2-8.1-43.3-.3-.3.2-.8.4-.4,4.9,5.9,6.9,13.5,7.6,21,.7,7.8.2,15.6.7,23.3A49.78,49.78,0,0,0,481,130a48.66,48.66,0,0,0,4.9,10.3A142,142,0,0,0,498,157C498.55,158,499.15,159,499.65,160Z" style="fill:#253f3d"/><path d="M464.85,62.66s9.8,3.3,11,13.2c0,0,.9,7-3.7,9.8-.2.1-3.5-10.1-7.1-15.6C465,68,464.75,65.26,464.85,62.66Z" style="fill:#253f3d"/><path d="M461.15,187.36l-38,5.9a3,3,0,0,1-3.2-2l-12.5-30.2a3.23,3.23,0,0,1,2.2-4.5l38.5-6a4,4,0,0,1,4.2,2.5l11.7,28.3C465.15,184.06,463.65,187,461.15,187.36Z" style="fill:#fff"/><path d="M458.05,187.86l-38,5.9a3,3,0,0,1-3.2-2l-12.5-30.2a3.23,3.23,0,0,1,2.2-4.5l38.5-6a4,4,0,0,1,4.2,2.5l11.7,28.3C462.05,184.56,460.55,187.46,458.05,187.86Z" style="fill:#fff"/><path d="M437.25,174.06c.8,2.5-.4,4.8-2.6,5.1s-4.7-1.4-5.5-3.9.4-4.8,2.6-5.1S436.45,171.56,437.25,174.06Z" style="fill:#221d58"/><path d="M449.45,153.36c4.1,10.1,8.2,20.2,12.4,30.3a.34.34,0,1,1-.6.3c-4.1-10.1-8.2-20.2-12.4-30.3A.34.34,0,0,1,449.45,153.36Z" style="fill:#221d58"/><path d="M421.65,77.86s-12.5,25-17.7,49.1c-.8,3.5-.4,32.7,11.8,50.5,3.6,5.2,9.7,8.9,13.6,1.3,3.3-6.4-8.3-43.4-5.3-47.4s10.5-20,13.5-27.2S431.55,83.46,421.65,77.86Z" style="fill:#467b6c"/><path d="M424.35,140.76c.7,4.3,1.3,8.6,2,12.9.1.5.9.3.8-.2-.7-4.3-1.3-8.6-2-12.9A.41.41,0,1,0,424.35,140.76Z" style="fill:#64653d"/><path d="M427.75,76.46c6.4.8,11,7.7,12.3,13.5.1.5.9.3.8-.2-1.4-6.2-6.3-13.2-13.1-14C427.25,75.56,427.25,76.36,427.75,76.46Z" style="fill:#253f3d"/><path d="M404.45,125.86c2.4.7,2.7,4.8,2.6,6.9a12.06,12.06,0,0,1-2.6,7c-.3.4.3,1,.6.6A13.38,13.38,0,0,0,408,132c0-2.3-.6-6.1-3.2-6.9A.43.43,0,1,0,404.45,125.86Z" style="fill:#253f3d"/><path d="M419.45,172.46a1.3,1.3,0,1,1-1.3-1.3A1.21,1.21,0,0,1,419.45,172.46Z" style="fill:#253f3d"/><path d="M413,171.36a16.56,16.56,0,0,1,15.7-4.3c.5.1.7-.7.2-.8a17.33,17.33,0,0,0-16.5,4.5A.42.42,0,0,0,413,171.36Z" style="fill:#253f3d"/><path d="M424.55,166.16a29,29,0,0,0,2.6,10c.2.5.9.1.7-.4a29,29,0,0,1-2.5-9.6A.4.4,0,0,0,424.55,166.16Z" style="fill:#253f3d"/><path d="M427,128c4.9-9.6,9.8-19.2,14.7-28.9.2-.5-.5-.9-.7-.4-4.9,9.6-9.8,19.2-14.7,28.9C426,128,426.65,128.46,427,128Z" style="fill:#64653d"/><path d="M442.45,100.86c-1,.2-1.9.6-2.9.8-.5.1-.3.9.2.8,1-.2,1.9-.6,2.9-.8A.41.41,0,0,0,442.45,100.86Z" style="fill:#64653d"/><path d="M427.15,173.06s1.7,4,5.3,5.5c3.1,1.2,5.1,5.1,6,7.1s2.2,3.7,1.6,4.7c-1.2,2-2.6.7-2.6.7.4.3.3,1.7-1.3,1.7a5.37,5.37,0,0,1-2.2-.7s.5,2.1-.8,2.3-2.7-1.2-2.7-1.2-.3,1.5-1.5,1.8a3.74,3.74,0,0,1-2.5-.9s1,2.9-1.4,1.6c-3.5-1.9-7.8-18.5-7.8-18.5C417.75,175.56,422,172.26,427.15,173.06Z" style="fill:#fe8c68"/><path d="M433.75,183.36a69.13,69.13,0,0,0,3.6,7.8c.2.5.9,0,.7-.4a74.3,74.3,0,0,1-3.5-7.6C434.35,182.66,433.55,182.86,433.75,183.36Z" style="fill:#b4572a"/><path d="M473,44.36a1.71,1.71,0,0,1,2.6-.2c.5.5,1.4-.2.8-.7a3,3,0,0,0-4.4.3C471.55,44.26,472.45,45,473,44.36Z" style="fill:#2c2f37"/><path d="M465.35,42.06a3.47,3.47,0,0,0,4.3.4c.6-.4,0-1.3-.6-1a2.41,2.41,0,0,1-3-.2A.53.53,0,1,0,465.35,42.06Z" style="fill:#2c2f37"/></g></svg>