<svg id="Layer_1" data-name="Layer 1" xmlns="http://www.w3.org/2000/svg" viewBox="0 0 451 462"><path d="M34.24,372.55c9.91,21,26,39.76,46.57,50.89a85.58,85.58,0,0,0,34.52,10.13c12.8,1,25.73-.63,38.16-3.51,26.11-6.12,50.71-17.25,76.95-23.13a157.61,157.61,0,0,1,42.68-3.62c15.19.62,30.12,2.62,45.31,3.5,13.94.75,28.25.62,41.93-2.63A111.29,111.29,0,0,0,392,391.55a123,123,0,0,0,46.32-48.13A108.78,108.78,0,0,0,450,277.65a121.83,121.83,0,0,0-27.74-61.77,115.28,115.28,0,0,0-25.61-22.38c-10.67-6.75-22.47-11.13-34.27-15.38-12.43-4.5-25.23-8.88-36-16.63a76.44,76.44,0,0,1-9.66-8.25c-7.66-10.88-14.19-22.51-20.72-34-5-8.88-10.16-17.76-15.81-26.26C274.5,82.84,268,73.22,259.44,65a64.66,64.66,0,0,0-30-16.25,71.49,71.49,0,0,0-18.32-4.38,57.71,57.71,0,0,0-34.27,7.88C156,64.59,143.45,87.1,134.41,108.85c-10.17,24.88-18.08,51.64-37,71.52-9.67,10.13-21,18.51-31.13,28a137.27,137.27,0,0,0-23,28.13,149.29,149.29,0,0,0-21.6,67C20.18,327,24.07,351.17,34.24,372.55Z" style="fill:#ead5b9"/><path d="M381,412.93a3.15,3.15,0,0,1,.88-1.25l1-1a1.55,1.55,0,0,1,1-.5,2.09,2.09,0,0,1,1.26-.12,1.75,1.75,0,0,1,1.13.37,2,2,0,0,1,1,.75,2.89,2.89,0,0,0,.38.63,2.35,2.35,0,0,1,.25,1.62c0,.25-.12.5-.12.88a3.36,3.36,0,0,1-.88,1.25l-1,1a1.55,1.55,0,0,1-1,.5,2.08,2.08,0,0,1-1.26.13,1.77,1.77,0,0,1-1.13-.38,1.91,1.91,0,0,1-1-.75l-.38-.62a2.42,2.42,0,0,1-.25-1.63A1.8,1.8,0,0,1,381,412.93Z" style="fill:#6059c9"/><path d="M370.65,435.44a2,2,0,0,1,.76-1,1.53,1.53,0,0,1,1-.5,2.09,2.09,0,0,1,1.26-.12c.25,0,.5.12.87.12a3.12,3.12,0,0,1,1.26.88,2.57,2.57,0,0,0,.38.62,2.42,2.42,0,0,1,.25,1.63v1a1.74,1.74,0,0,1-.38,1.12,1.92,1.92,0,0,1-.75,1,1.56,1.56,0,0,1-1,.5,2.05,2.05,0,0,1-1.25.13c-.25,0-.5-.13-.88-.13a3.36,3.36,0,0,1-1.26-.87l-.37-.63a2.35,2.35,0,0,1-.25-1.62v-1A2,2,0,0,1,370.65,435.44Z" style="fill:#6059c9"/><path d="M417.6,414.06a3.12,3.12,0,0,1,2.89,3.38,3.29,3.29,0,0,1-3.39,2.87,3.11,3.11,0,0,1-2.89-3.37A3.19,3.19,0,0,1,417.6,414.06Z" style="fill:#6059c9"/><path d="M430.15,179.37a3.25,3.25,0,0,1,.88-1.25,2.91,2.91,0,0,0,.63-.37,2.36,2.36,0,0,1,1.63-.25h2.14a1.78,1.78,0,0,1,1.13.37,2,2,0,0,1,1,.75,1.55,1.55,0,0,1,.5,1,2.06,2.06,0,0,1,.13,1.25l-.13.88a3.15,3.15,0,0,1-.88,1.25l-.62.37a2.4,2.4,0,0,1-1.64.25h-2.13a1.75,1.75,0,0,1-1.13-.37,2,2,0,0,1-1-.75,1.52,1.52,0,0,1-.51-1,2.06,2.06,0,0,1-.12-1.25A1.94,1.94,0,0,1,430.15,179.37Z" style="fill:#6059c9"/><path d="M399.78,162.74a3.11,3.11,0,0,1,2.88,3.38,3.27,3.27,0,0,1-3.39,2.87,3.1,3.1,0,0,1-2.88-3.37A3.18,3.18,0,0,1,399.78,162.74Z" style="fill:#6059c9"/><path d="M420.74,145a3.11,3.11,0,0,1,2.89,3.37,3.29,3.29,0,0,1-3.39,2.88,3.11,3.11,0,0,1-2.89-3.38A3.19,3.19,0,0,1,420.74,145Z" style="fill:#6059c9"/><path d="M25,219a3.15,3.15,0,0,1,.88-1.25,2.57,2.57,0,0,0,.62-.38,2.46,2.46,0,0,1,1.64-.25h1.13a1.77,1.77,0,0,1,1.13.38,1.91,1.91,0,0,1,1,.75,1.53,1.53,0,0,1,.5,1,2.05,2.05,0,0,1,.13,1.25c0,.25-.13.5-.13.87a3.15,3.15,0,0,1-.88,1.25l-.62.38a2.46,2.46,0,0,1-1.64.25h-1a1.75,1.75,0,0,1-1.13-.38,1.87,1.87,0,0,1-1-.75,1.54,1.54,0,0,1-.51-1,2.05,2.05,0,0,1-.12-1.25A1.94,1.94,0,0,1,25,219Z" style="fill:#6059c9"/><path d="M23.94,178.37a3.11,3.11,0,0,1,2.89,3.38,3.28,3.28,0,0,1-3.39,2.87,3.1,3.1,0,0,1-2.88-3.37A3.26,3.26,0,0,1,23.94,178.37Z" style="fill:#6059c9"/><path d="M10.26,215.88a3.15,3.15,0,0,1,.88-1.25l1-1a1.58,1.58,0,0,1,1-.5A2.06,2.06,0,0,1,14.4,213a1.75,1.75,0,0,1,1.13.37,2,2,0,0,1,1,.75,2.91,2.91,0,0,0,.37.63,2.35,2.35,0,0,1,.26,1.62c0,.25-.13.5-.13.88a3.15,3.15,0,0,1-.88,1.25l-1,1a1.56,1.56,0,0,1-1,.5,2.05,2.05,0,0,1-1.25.12,1.75,1.75,0,0,1-1.13-.37,2,2,0,0,1-1-.75l-.37-.63a2.35,2.35,0,0,1-.25-1.62Z" style="fill:#6059c9"/><path d="M402,429.81c6.4,0,5.52,10-.88,10S395.63,429.81,402,429.81Z" style="fill:#467b6c"/><path d="M416.72,392.3c6.4,0,5.53,10-.88,10S410.32,392.3,416.72,392.3Z" style="fill:#467b6c"/><path d="M437.69,147.24c6.4,0,5.52,10-.88,10S431.28,147.24,437.69,147.24Z" style="fill:#467b6c"/><path d="M416.72,170.24c6.4,0,5.53,10-.88,10S410.32,170.24,416.72,170.24Z" style="fill:#467b6c"/><path d="M29.34,155a6.88,6.88,0,0,1,.38-1.5,5.43,5.43,0,0,1,.63-1.25,3.13,3.13,0,0,1,1.13-1.13,6.68,6.68,0,0,1,4.26-1.37,5.86,5.86,0,0,1,5.53,4.75,5,5,0,0,1-.88,3.75,5.05,5.05,0,0,1-3.14,2,4,4,0,0,1-1.76,0,5.41,5.41,0,0,1-1.38.13,5,5,0,0,1-3.39-1.75A4.23,4.23,0,0,1,29.34,155Z" style="fill:#467b6c"/><path d="M5.37,175.49c6.4,0,5.52,10-.88,10S-1.16,175.49,5.37,175.49Z" style="fill:#467b6c"/><path d="M18.92,240.14c6.41,0,5.53,10-.88,10S12.52,240.14,18.92,240.14Z" style="fill:#467b6c"/><path d="M290.82,32.21,278.89,160.12,72.4,154.24,77.42.82Z" style="fill:#6059c9"/><path d="M118.09,461.7h77.7c-.37-7.75-1.63-19.51-3.39-33.26a14.35,14.35,0,0,1-.25-2.25c-1.88-14.26-4.27-30.76-6.78-47.27-.25-1.37-.37-2.62-.62-4-3.27-21.38-6.78-42.88-9.67-60-.12-.75-.25-1.63-.38-2.38-.62-3.37-1.13-6.62-1.63-9.63-.12-.75-.25-1.5-.37-2.25-2.14-13-3.64-21.25-3.77-21.75,0,0-7,12.63-14.31,17.38a8.11,8.11,0,0,1-2,1.12,6.9,6.9,0,0,1-2.13.63c-8.41,1.37-24.23-23.38-24.23-23.38s.38,8.25.75,21.63a17.69,17.69,0,0,0,.13,2.62c.5,20.38.88,51.27-.5,82.65,0,.88-.13,1.88-.13,2.75-.5,10.63-1.13,21.13-2,31.38-.12.76-.12,1.51-.25,2.26-.37,4.87-.88,9.75-1.5,14.37-.13,1-.26,1.88-.38,2.88A240.19,240.19,0,0,1,118.09,461.7Z" style="fill:#d03f23"/><path d="M154.62,347.92c2,8.37,9,13.38,15.69,18a78.89,78.89,0,0,1,14.94,13.13c-.25-1.38-.38-2.63-.63-4a84,84,0,0,0-11.92-10.13c-6.66-4.63-14.19-9.25-15.95-17.63-1.75-8.13,1.76-16.63,7-22.75A52.82,52.82,0,0,1,175,315.16c-.12-.75-.25-1.63-.37-2.38a52.53,52.53,0,0,0-14.31,12.51C155.5,331.41,152.74,340,154.62,347.92Z" style="fill:#fff"/><path d="M122.48,435.32a60.33,60.33,0,0,1,26-8.13c7.53-.5,16.07-.88,21.72-6.75,4.89-5.13,4.64-12.76,1.88-18.88-6.4-14.38-24.86-17.63-32-31.51-3.77-7.38-1.51-15.13,1.13-22.51,2.51-6.88,5.27-13.63,4.89-21.13a36.13,36.13,0,0,0-19.2-30A19.3,19.3,0,0,0,127,299a33.76,33.76,0,0,1,16.45,34.51c-1.38,7.62-5.4,14.5-7,22a23.28,23.28,0,0,0-.13,10.63,21.89,21.89,0,0,0,4.52,9c4.65,5.88,11.05,9.88,17.07,14.13s11.68,9.38,13.43,16.88c.76,3.38.76,7.13-1,10.26s-4.9,5.12-8.16,6.37c-3.76,1.38-7.91,1.63-11.92,1.88a67.63,67.63,0,0,0-11.3,1.5,60.92,60.92,0,0,0-16.07,6.12C122.74,433.44,122.61,434.31,122.48,435.32Z" style="fill:#fff"/><path d="M124.37,418.06a71.13,71.13,0,0,0,7.28-.37c4.77-.5,10.42-.88,14.43-3.88s3.77-8,1.26-11.88c-2.89-4.5-7.16-8.5-11.05-12.13-3.14-2.87-6.4-5.62-9.66-8.25,0,.88-.13,1.88-.13,2.75a102,102,0,0,1,8.79,7.63c3.51,3.25,7.28,6.88,9.91,10.88,1.26,2,2.39,4.5,1.39,6.75-.76,1.87-2.64,3-4.4,3.75-4.39,1.75-9.66,2.12-14.31,2.37a30.62,30.62,0,0,1-3.51.13A14.09,14.09,0,0,1,124.37,418.06Z" style="fill:#fff"/><path d="M132.9,461.7h2.39c1.38-3.63,4.89-6.5,8.53-7.88,9.92-3.88,21.85-.75,30.63-8,3.89-3.13,6.4-7.5,9.67-11.26,2.13-2.5,5-5.12,8.28-6.12a14.35,14.35,0,0,1-.25-2.25c-3.64,1-6.78,3.62-9.29,6.37-3.64,4.13-6.27,9.13-10.79,12.38-4.9,3.5-11,3.88-16.82,4.5s-11.68,1.25-16.45,4.63A14.73,14.73,0,0,0,132.9,461.7Z" style="fill:#fff"/><path d="M152.61,297.65a22.54,22.54,0,0,0,5.27,3.75A21.67,21.67,0,0,0,173,303c-.13-.75-.25-1.5-.38-2.25A20.34,20.34,0,0,1,159,299.53a17.78,17.78,0,0,1-4.52-3Z" style="fill:#fff"/><path d="M46.29,160.12s-3,76.77-2.89,83.39l44.81,64.77v16.38l7.54,57.14L84.83,461.7h33.26c14.19-63.77,8.16-186.93,8.16-186.93-9.41-14.88-11.93-2.75-11.93-2.75-3.64-8.63-8.41-5.25-8.41-5.25L80.56,246.26l-5.65-79-2.39-.62-18.83-4.75Z" style="fill:#467b6c"/><path d="M88.34,308.28,43.53,243.51c.12,6.51,44.81,81.15,44.81,81.15Z" style="fill:#2b2b39"/><path d="M68.38,126.23c.88.63,8.41,6.88,9.92,4.75a6.9,6.9,0,0,0,1-4.75s9.17,1.88.13-11.63c0,0,5.65-3.87,1-10.25s-6.27-6.63-6.27-6.63,1.38-7.12-1.26-12.87-7.28,10.62-7.28,10.62S57.08,103,57.21,108s0,40.13,0,40.13l-3.77,14,18.83,4.75V154.36C72.4,154.24,81.69,138.11,68.38,126.23Z" style="fill:#ea9949"/><path d="M265.21,169.87l-2.64-.88-32.26,78.9-45.44,24.26S179.1,268,176.08,277c0,0-6.4-4.37-7.15,2.13.25,1.75,25,143,26.86,182.67H233l-12.18-66.77V317.53l-5-11.37,43.06-39.27c1.63-2,2.88-3.62,4-4.87,9.29-10.75,26-84,26-84l-4.52-1.5Z" style="fill:#467b6c"/><path d="M215.63,306l5,11.38s25.73-35.14,38-50.64Z" style="fill:#2b2b39"/><path d="M265.21,160.62v9.25l19,6.5-1.5-24L279.9,152l-1,8.13Z" style="fill:#ea9949"/><path d="M278.52,128.48s-5.15,5.88-4.4,7.5a4.42,4.42,0,0,0,2.76,2.25s-1.75,2.76-.62,4,4.64.75,4.64.75l-1.13,8.87,2.76.38s12.05-15,7.53-21.76c0,0,2.26-5.37-1.25-7.37,0,0,3.64-7.63-2.76-8.63l-3.39-.38-.13,1.13s-7.91,8-7.4,10.63S278.52,128.48,278.52,128.48Z" style="fill:#ea9949"/><path d="M284.16,99.72l-1.5,14.63,3.39.38s2.38-9.88,3-12.63S286.93,97.35,284.16,99.72Z" style="fill:#ea9949"/><path d="M188,282.4c2.38,22.51,4.64,44.89,7,67.39s4.64,44.64,7,67c1.25,12.5,2.64,25.13,3.89,37.64.13.75-1,.87-1.13.25-2.38-22.51-4.64-44.89-7-67.4s-4.64-44.63-7-67c-1.25-12.5-2.63-25.13-3.89-37.63C186.88,281.9,188,281.65,188,282.4Z" style="fill:#2b2b39"/><path d="M114.32,277.15q2.09,34.5,3,69.14t1.13,69c0,12.88,0,25.88-.25,38.76,0,.75-1.13.63-1.13-.12q.38-34.51,0-69-.57-34.32-1.89-68.65c-.5-13-1.13-25.88-1.88-38.88C113.2,276.65,114.32,276.4,114.32,277.15Z" style="fill:#2b2b39"/><path d="M180.73,278.27l.12,13.38c0,.75-1.12.63-1.12-.12,0-4.5,0-9-.13-13.38C179.6,277.4,180.73,277.52,180.73,278.27Z" style="fill:#2b2b39"/><path d="M173.45,280.77c1.13,3.5,2.38,7.13,3.51,10.63.25.63-.75,1.13-1,.5-1.13-3.5-2.39-7.13-3.52-10.63C172.19,280.52,173.2,280,173.45,280.77Z" style="fill:#2b2b39"/><path d="M121.61,276.9c.12-.75,1.25-.63,1.13.12-.38,3.63-.88,7.25-1.26,10.88-.13.75-1.26.63-1.13-.12C120.73,284.15,121.23,280.52,121.61,276.9Z" style="fill:#2b2b39"/><path d="M107.42,272.77c.88,3.25,1.63,6.5,2.51,9.63.13.75-.88.87-1.13.25-.88-3.25-1.63-6.5-2.51-9.63C106,272.27,107.17,272,107.42,272.77Z" style="fill:#2b2b39"/><path d="M65.49,110.48a43.73,43.73,0,0,1,13.44,14.13c.37.62-.63,1.12-1,.5a42.3,42.3,0,0,0-13-13.63A.59.59,0,0,1,65.49,110.48Z" style="fill:#2b2b39"/><path d="M68.26,103.23a57.84,57.84,0,0,1,10.29,9.62c.5.5-.38,1.25-.88.75a51.06,51.06,0,0,0-10-9.37C67,103.73,67.63,102.73,68.26,103.23Z" style="fill:#2b2b39"/><path d="M67.25,94.85c.13-.25.5-.5.75-.38,1.76.88,3.65,1.63,5.4,2.5a.62.62,0,0,1,.38.75c-.13.25-.5.5-.75.38-1.76-.88-3.64-1.63-5.4-2.5A.53.53,0,0,1,67.25,94.85Z" style="fill:#2b2b39"/><path d="M277.51,137.86c3.64-2.5,7.28-5.13,10.92-7.63.63-.37,1.38.5.76.88-3.64,2.5-7.28,5.12-10.93,7.63C277.64,139.11,277,138.24,277.51,137.86Z" style="fill:#2b2b39"/><path d="M279.65,127.86c2.88-1.75,5.77-3.63,8.66-5.5.62-.38,1.13.62.5,1-2.89,1.87-5.78,3.62-8.66,5.5C279.52,129.23,279,128.23,279.65,127.86Z" style="fill:#2b2b39"/><path d="M282.28,115.35c.88-.75,1.88-1.5,2.76-2.12.25-.13.63-.13.76.12s.12.63-.13.75c-.88.75-1.88,1.5-2.76,2.13-.25.12-.63.12-.75-.13A.59.59,0,0,1,282.28,115.35Z" style="fill:#2b2b39"/><path d="M281,142.61c2.13-1.37,4.39-2.75,6.52-4.13a.57.57,0,0,1,.51,1c-2.14,1.37-4.4,2.75-6.53,4.12a.59.59,0,0,1-.75-.25C280.52,143.11,280.65,142.86,281,142.61Z" style="fill:#2b2b39"/><path d="M264.33,174.87c6.4,4.63,12.68,9.13,19.08,13.75a.54.54,0,1,1-.63.88c-6.4-4.63-12.67-9.13-19.08-13.75C263.08,175.37,263.83,174.37,264.33,174.87Z" style="fill:#2b2b39"/><path d="M282.28,179.62a1.75,1.75,0,0,1,1.88.5c.13.13.13.25.26.25.37,0,.5.25.5.63a2.13,2.13,0,0,1-.88,1.62,1.72,1.72,0,0,1-1.88.13,2,2,0,0,1-.76-.63,1.41,1.41,0,0,1-.37-1A2.14,2.14,0,0,1,282.28,179.62Z" style="fill:#2b2b39"/><path d="M50.93,174.49c7.16-.37,14.19-.62,21.34-1,.76,0,.88,1.13.25,1.13-7.15.37-14.18.62-21.34,1C50.43,175.62,50.18,174.49,50.93,174.49Z" style="fill:#2b2b39"/><path d="M51.18,168a2.07,2.07,0,0,1,1.89-1.25h.12a.61.61,0,0,1,.76.13c.25.37.62.62.87,1a.72.72,0,0,1,.13.5,2.35,2.35,0,0,1-2.89,1.25,2.72,2.72,0,0,1-.75-.5,1,1,0,0,1-.25-.63C51.06,168.37,51.18,168.12,51.18,168Z" style="fill:#2b2b39"/><path d="M101,380.55c2.26,3.13,4.64,6.25,6.9,9.38a.58.58,0,0,1-.88.75c-2.26-3.13-4.64-6.25-6.9-9.38C99.76,380.68,100.52,379.93,101,380.55Z" style="fill:#2b2b39"/><path d="M113.82,193.62a21.3,21.3,0,0,0-4.27,15.88,18.9,18.9,0,0,0,9.17,13.38,7.45,7.45,0,0,1,1.13-1.62c15.56-15.38,38.79-22.63,60.5-19a16.85,16.85,0,0,0-4.14-10,26.55,26.55,0,0,0-9.41-6.75,25.11,25.11,0,0,0-12.05-2.38c-6,.5-11.55,3.88-17.7,4.38-5,.37-10.17-1.25-14.94.12A17.17,17.17,0,0,0,113.82,193.62Z" style="fill:#6059c9"/><path d="M117.34,246.39a3.77,3.77,0,0,0-1,2.75c.25,2.25,3,3.13,4,5.13a13.64,13.64,0,0,1,.75,3.25,5.48,5.48,0,0,0,5.9,3.75l.51-9.38.25-4s-5-3.25-6.91-8.25a7.24,7.24,0,0,1-1.5,4.5C118.72,244.89,118,245.64,117.34,246.39Z" style="fill:#2b2b39"/><path d="M118.72,222.88a2.77,2.77,0,0,0,.12,2,39.52,39.52,0,0,0,2.26,7.38l.13.13a3.44,3.44,0,0,1,2.64-1.38,73.1,73.1,0,0,1,9.79-5.25,85.2,85.2,0,0,1,15.69-5.13,117.1,117.1,0,0,1,16.06-2.25q6.41-.37,12.81-.37a54.69,54.69,0,0,0,6.4-.13,1.64,1.64,0,0,0,.75-.12,1.89,1.89,0,0,0,.76-.25,1.2,1.2,0,0,0,.25-.88,33.75,33.75,0,0,0-1.51-11.13,4.92,4.92,0,0,0-1.13-2.12,6.4,6.4,0,0,0-3.14-1.25h-.12c-21.59-3.63-44.94,3.62-60.51,19A4.48,4.48,0,0,0,118.72,222.88Z" style="fill:#6059c9"/><path d="M123.74,231.13c1.88-.12,4.27.88,6.65,3.26l3.14-8.51A73.72,73.72,0,0,0,123.74,231.13Z" style="fill:#2b2b39"/><path d="M120.22,236.89a10.22,10.22,0,0,0,.63,2.75c1.89,5,6.91,8.25,6.91,8.25l-.25,4-.51,9.38-.75,13.63s15.94,24.75,24.23,23.38S168.93,279,168.93,279c-31.38,1.75-38.29-26.13-38.41-26.88.37.75,10,21.63,29.5,22a12.78,12.78,0,0,0,6.15-1.5c12.68-7,15.69-35.76,16.07-41.52-8-1.62-15.07-10.25-16.83-12.5a117.1,117.1,0,0,0-16.06,2.25A85.2,85.2,0,0,0,133.66,226l-3.14,8.5c-2.26-2.37-4.77-3.38-6.66-3.25a3.67,3.67,0,0,0-2.63,1.38A5.28,5.28,0,0,0,120.22,236.89Z" style="fill:#ea9949"/><path d="M159.89,274.15c-19.33-.38-29.12-21.26-29.5-22,.25.88,7,28.63,38.41,26.88L166,272.65A12.78,12.78,0,0,1,159.89,274.15Z" style="fill:#2b2b39"/><path d="M162.15,235.89l-2.26,13.88s9,3.12,13.56,0S166.17,248.14,162.15,235.89Z" style="fill:#d87319"/><path d="M182.11,231a13.16,13.16,0,0,0,3.89.25c10.92-1.13,0-8.75,0-8.75s5.78-2.5-1.5-4.5a36.13,36.13,0,0,1-6.41.12,109.53,109.53,0,0,0-12.8.38C167.05,220.76,174.08,229.38,182.11,231Z" style="fill:#2b2b39"/><path d="M122.86,235.39c.63-1.25,2.26-1,3.14-.25a9,9,0,0,1,1.38,1.62,9.84,9.84,0,0,1,1,2,3.33,3.33,0,0,1-1,3.63A2.41,2.41,0,0,1,124,242a2.6,2.6,0,0,1,1-3.75c.63-.37,1.13.63.51,1a1.46,1.46,0,0,0-.63,1.88,1.25,1.25,0,0,0,1.88.12,2.1,2.1,0,0,0,.5-2.37,6.32,6.32,0,0,0-1.5-2.5c-.38-.5-1.51-1.38-2-.5-.13.25-.5.25-.75.12S122.74,235.64,122.86,235.39Z" style="fill:#2b2b39"/><path d="M153.24,254.52a18.86,18.86,0,0,1,8.91,4.5c.5.5-.12,1.37-.63.87a18,18,0,0,0-8.41-4.25C152.49,255.52,152.49,254.39,153.24,254.52Z" style="fill:#2b2b39"/><path d="M119,221.38a76.31,76.31,0,0,1,21.34-13.5A78.91,78.91,0,0,1,164.79,202a68.52,68.52,0,0,1,14.31.38c.75.12.63,1.25-.13,1.12a75.49,75.49,0,0,0-24.85,1.25,77.63,77.63,0,0,0-23.23,9.13,73.37,73.37,0,0,0-11.29,8.38C119.22,222.76,118.47,221.88,119,221.38Z" style="fill:#2b2b39"/><path d="M179.6,205.13c.25,0,.63.12.63.5.12,1.87.25,3.75.5,5.62,0,.25-.13.63-.5.63s-.63-.13-.63-.5c-.13-1.88-.25-3.75-.5-5.63A.82.82,0,0,1,179.6,205.13Z" style="fill:#2b2b39"/><path d="M180.1,213.63c.38,0,.5.25.5.63v2.37c0,.25-.37.5-.62.5s-.51-.25-.51-.62v-2.38A.47.47,0,0,1,180.1,213.63Z" style="fill:#2b2b39"/><path d="M176.71,209.25c.38,0,.5.25.5.63,0,1.37.13,2.75.13,4.25,0,.25-.38.5-.63.5s-.5-.25-.5-.62c0-1.38-.13-2.76-.13-4.26C176.08,209.38,176.46,209.25,176.71,209.25Z" style="fill:#2b2b39"/><path d="M125,219.51c.38,0,.63.12.63.5.38,1.25.76,2.5,1.13,3.75.13.25-.12.62-.5.62s-.63-.12-.63-.5c-.37-1.25-.75-2.5-1.13-3.75A.82.82,0,0,1,125,219.51Z" style="fill:#2b2b39"/><path d="M128.76,221.63a.6.6,0,0,1,.75.25c.25.88.63,1.63.88,2.5a.56.56,0,1,1-1,.5c-.25-.87-.63-1.62-.88-2.5A.6.6,0,0,1,128.76,221.63Z" style="fill:#2b2b39"/><path d="M132.15,217.38c.38,0,.5.13.63.5.37,1,.63,2.13,1,3.13.13.25-.12.62-.5.62s-.5-.12-.63-.5c-.37-1-.63-2.12-1-3.12C131.52,217.76,131.77,217.38,132.15,217.38Z" style="fill:#2b2b39"/><path d="M178.09,224c2.14,1,4.15,1.87,6.28,2.87.63.25.25,1.38-.38,1L177.72,225C177.09,224.76,177.47,223.76,178.09,224Z" style="fill:#fff"/><path d="M176.46,221.38c2.26.25,4.65.63,6.91.88.75.12.62,1.25-.13,1.12-2.26-.25-4.64-.62-6.9-.87C175.58,222.38,175.71,221.26,176.46,221.38Z" style="fill:#fff"/><path d="M170.81,230.64c2.26-.25,4.52-.51,6.78-.88a1.72,1.72,0,1,1,.63,3.38c-2.26.25-4.52.5-6.78.87a1.71,1.71,0,0,1-2-1.37A1.92,1.92,0,0,1,170.81,230.64Z" style="fill:#2b2b39"/><path d="M145.33,227.38a1.64,1.64,0,0,1,2.13-1c3.14,1.13,6.28,2.25,9.42,3.5a1.66,1.66,0,0,1-1.13,3.13c-3.14-1.12-6.28-2.25-9.42-3.5A1.79,1.79,0,0,1,145.33,227.38Z" style="fill:#2b2b39"/><path d="M150.6,240.39c-1.59,0-2.88-1.63-2.88-3.63s1.29-3.62,2.88-3.62,2.89,1.62,2.89,3.62S152.2,240.39,150.6,240.39Z" style="fill:#2b2b39"/><path d="M173.83,241.64c-1.6,0-2.89-1.63-2.89-3.63s1.29-3.62,2.89-3.62,2.88,1.62,2.88,3.62S175.42,241.64,173.83,241.64Z" style="fill:#2b2b39"/><path d="M361.11,138.61,361,139l18.07,3.13,1.26-2.37-1.38-.38c-2-.63-4-1.5-5.15-3.25a3.31,3.31,0,0,1-.63-2.38,3.72,3.72,0,0,1,2.64-2.62,10.21,10.21,0,0,1,3.89-.13,6.6,6.6,0,0,1-3.39-3.25,2.75,2.75,0,0,1-.37-1.75,2.8,2.8,0,0,1,1.75-2,7,7,0,0,1,2.76-.25,9.43,9.43,0,0,1-3.26-3.75,1.53,1.53,0,0,1-.25-1.25c.13-.88,1.13-1.25,2-1.38a17.79,17.79,0,0,1,3.64-.25,13.56,13.56,0,0,1-4-4,2.61,2.61,0,0,1-.5-2.5,2.7,2.7,0,0,1,1.76-1.25l-8.29-1.75s-1.25-10.38-5-11.38-6.9,4.5-4.52,13.88S361.11,138.61,361.11,138.61Z" style="fill:#e69773"/><path d="M371,32.21h12.05V169.62H371Z" style="fill:#d03f23"/><path d="M438.31,22.45,428.4,96.1H319.06l-4.27-71.9Z" style="fill:#467b6c"/><path d="M373.16,133.73a3.31,3.31,0,0,0,.63,2.38c1.13,1.75,3.27,2.63,5.15,3.25l1.38.38c2.89.87,6,1.25,8.54-.25a7.22,7.22,0,0,0,1-.75,2.32,2.32,0,0,0-.13-2.38,4.74,4.74,0,0,0-1.88-1.63,8,8,0,0,0,3.52-.5,2.79,2.79,0,0,0,1.75-2.87c-.37-1.63-2.26-2.25-3.26-3.5,1.51-.88,3.77-.63,4.77-2.13.88-1.12.5-2.87-.5-4a11.34,11.34,0,0,0-3.64-2.25,6.46,6.46,0,0,0,3.26-2.75,4.05,4.05,0,0,0-.25-3.38,21.32,21.32,0,0,0-5.4-3.25,12.68,12.68,0,0,0-8.28-.87,3,3,0,0,0-1.76,1.25,3,3,0,0,0,.5,2.5,12.39,12.39,0,0,0,4,4,17.79,17.79,0,0,0-3.64.25c-.88.12-1.88.5-2,1.37a2,2,0,0,0,.25,1.25,10.34,10.34,0,0,0,3.26,3.76,10.37,10.37,0,0,0-2.76.25,2.41,2.41,0,0,0-1.75,2,2.76,2.76,0,0,0,.37,1.75,7.81,7.81,0,0,0,3.39,3.25,10.12,10.12,0,0,0-3.89.12A3.72,3.72,0,0,0,373.16,133.73Z" style="fill:#e69773"/><path d="M377.56,130.36a6,6,0,0,1-1.38-4.25,3.64,3.64,0,0,1,2.26-2.75c-1.13-1.38-2-3.13-1.38-5a2.93,2.93,0,0,1,2-2,4.67,4.67,0,0,1,.76-6.75.58.58,0,0,1,.75.88,3.5,3.5,0,0,0,.38,6c2.63.75,5.27,1.37,8,2.12.75.25.25,1.25-.38,1-2.51-.62-4.89-1.37-7.4-2h-.38a.46.46,0,0,1-.25-.12c-.13,0-.25-.13-.38-.13a.12.12,0,0,1-.12-.12c-1-.13-1.88,1-2,2.12-.13,1.63,1,2.88,2,4l.12.12c3,1.13,5.9,2.25,8.92,3.38.62.25.25,1.37-.38,1-3.14-1.25-6.15-2.38-9.29-3.63-.12,0-.12-.12-.25-.12a2.4,2.4,0,0,0-1.88,2.37,5.88,5.88,0,0,0,1.75,3.63c2.64,1,5.28,2,7.91,2.87.63.25.25,1.25-.37,1-2.39-.87-4.9-1.75-7.28-2.75-.13.13-.26.13-.51,0a3,3,0,0,0-4.14,3.63c.63,2,2.89,3,4.65,3.75.62.25.25,1.38-.38,1-2.39-1-5.27-2.5-5.52-5.38C373.16,132.23,375.17,130.36,377.56,130.36Z" style="fill:#2b2b39"/><path d="M277.76,428.31l-22,33.39H357.35s-8-58.27-12.18-72.77c0,0,10.67-8.25,3.89-22.51-.37.88-18.83,55.89-50.46,57.14-10,.38-18.58-3.62-25.73-9.25Z" style="fill:#6059c9"/><path d="M334.5,333.54l-23.6,30.51L282,333.16l27.24,12.63Z" style="fill:#6059c9"/><path d="M245.75,344.42c0,7,6.91,27,18.2,44.51,7.79,12,17.7,22.75,28.75,27.38,17.7,7.13,41.55-25.63,56.24-49.76,8-13.13,13.3-23.63,13.3-23.63l-6.52-4.26-16.7-11,7.66-11.13s-2.89-22.75,3-27.75c1.38-1.13,2.64-2.13,3.77-2.88L383.71,143l-4.65-.75L361,139.11l-2.39-.37c-5,20.25-42.93,132.41-51.46,159.54a12.05,12.05,0,0,1-2.14.12l.88,3.63-14.69-.5L274,300.9l-3.14-.12-.5,9-.13,3.75C270.23,313.41,245.75,332.54,245.75,344.42Z" style="fill:#6059c9"/><path d="M264.08,388.8,273,414.31c7,5.63,15.69,9.63,25.74,9.25,31.63-1.25,50.21-56.26,50.46-57.14-14.69,24-38.66,56.89-56.24,49.77C281.65,411.68,271.86,400.81,264.08,388.8Z" style="fill:#2b2b39"/><path d="M282.16,333.16,311,364.05l23.47-30.51-25.1,12.25Z" style="fill:#2b2b39"/><path d="M304.5,303.15c.25,0,.63.13.63.5.12,2.13.25,4.13.37,6.26,0,.25-.12.62-.5.62s-.63-.12-.63-.5c-.12-2.12-.25-4.12-.37-6.25A.85.85,0,0,1,304.5,303.15Z" style="fill:#2b2b39"/><path d="M299.73,302.9c.38,0,.5.25.5.63v3.38c0,.25-.37.5-.63.5s-.5-.25-.5-.63V303.4C299.1,303,299.35,302.78,299.73,302.9Z" style="fill:#2b2b39"/><path d="M299.73,309.41c.38,0,.5.25.5.62v3.13c0,.25-.37.5-.63.5s-.5-.25-.5-.63v-3.12A.57.57,0,0,1,299.73,309.41Z" style="fill:#2b2b39"/><path d="M295,305.91c0-.25.38-.5.63-.5s.5.25.5.62c-.13,1.63-.13,3.38-.25,5,0,.25-.38.5-.63.5s-.5-.25-.5-.62C294.83,309.16,294.83,307.53,295,305.91Z" style="fill:#2b2b39"/><path d="M278.52,302.53c.25,0,.62.12.62.5.13,1.88.25,3.75.38,5.63,0,.25-.13.62-.5.62s-.63-.12-.63-.5c-.13-1.87-.25-3.75-.38-5.63A.63.63,0,0,1,278.52,302.53Z" style="fill:#2b2b39"/><path d="M283.54,305.91a.57.57,0,0,1,1.13.12c-.25,1.5-.38,3.13-.63,4.63a.57.57,0,1,1-1.13-.13C283.16,308.91,283.41,307.41,283.54,305.91Z" style="fill:#2b2b39"/><path d="M252.28,351.67c1.13,2.87,2.26,5.87,3.26,8.75.26.63-.75,1.13-1,.5l-3.26-8.75C251,351.42,252,350.92,252.28,351.67Z" style="fill:#2b2b39"/><path d="M257.93,364.8a.59.59,0,0,1,.75.25l3.39,5.87a.56.56,0,0,1-1,.5c-1.13-2-2.26-4-3.39-5.87A.59.59,0,0,1,257.93,364.8Z" style="fill:#2b2b39"/><path d="M259.06,356.92c1.25,2.25,2.51,4.63,3.76,6.88.38.62-.62,1.12-1,.5-1.25-2.25-2.51-4.63-3.77-6.88C257.68,356.79,258.68,356.29,259.06,356.92Z" style="fill:#2b2b39"/><path d="M340.65,370.55l3.64-5.5c.38-.63,1.26,0,.88.62-1.25,1.88-2.38,3.63-3.64,5.5C341.15,371.8,340.15,371.17,340.65,370.55Z" style="fill:#2b2b39"/><path d="M334.63,381.43c1-1.5,2.13-3.13,3.14-4.63.37-.63,1.38,0,.87.62l-3.13,4.63C335.13,382.68,334.12,382.05,334.63,381.43Z" style="fill:#2b2b39"/><path d="M333,373.92c1.13-2.12,2.39-4.12,3.52-6.25.13-.25.5-.25.75-.12a.6.6,0,0,1,.13.75l-3.52,6.25c-.12.25-.5.25-.75.12S332.87,374.17,333,373.92Z" style="fill:#2b2b39"/><path d="M359,150.49c.75-2.38,1.51-4.75,2.13-7.13.25-.75,1.26-.25,1,.38-.76,2.37-1.51,4.75-2.14,7.12A.54.54,0,1,1,359,150.49Z" style="fill:#2b2b39"/><path d="M356.85,161.12c.62-2.13,1.25-4.13,1.88-6.26.25-.75,1.25-.25,1,.38-.63,2.13-1.25,4.13-1.88,6.25A.54.54,0,1,1,356.85,161.12Z" style="fill:#2b2b39"/><path d="M361,156.86c.88-2.25,1.88-4.62,2.76-6.87.25-.63,1.38-.25,1,.37-.88,2.25-1.88,4.63-2.76,6.88C361.74,157.87,360.61,157.49,361,156.86Z" style="fill:#2b2b39"/><path d="M378.81,150.61l1.51-5.62a.89.89,0,0,1,.75-.38.77.77,0,0,1,.38.75c-.5,1.88-1,3.75-1.51,5.63a.88.88,0,0,1-.75.37C378.81,151.24,378.81,150.86,378.81,150.61Z" style="fill:#2b2b39"/><path d="M375.55,160.24c.5-1.62,1-3.37,1.51-5a.89.89,0,0,1,.75-.38.77.77,0,0,1,.38.75c-.51,1.63-1,3.38-1.51,5a.89.89,0,0,1-.75.37A.55.55,0,0,1,375.55,160.24Z" style="fill:#2b2b39"/><path d="M372.66,154.86c.63-2.12,1.38-4.25,2-6.25.25-.62,1.26-.25,1,.38-.62,2.12-1.38,4.25-2,6.25C373.54,156,372.41,155.61,372.66,154.86Z" style="fill:#2b2b39"/><path d="M346.93,421.06c.25,2.88.63,5.88.88,8.75a.58.58,0,0,1-1.13.25c-.25-2.87-.63-5.87-.88-8.75C345.8,420.44,346.93,420.31,346.93,421.06Z" style="fill:#2b2b39"/><path d="M347.68,433.06c.38,0,.5.25.5.63,0,2,0,4,.13,5.88,0,.25-.38.5-.63.5s-.5-.25-.5-.63c0-2,0-4-.13-5.88C347.05,433.19,347.31,433.06,347.68,433.06Z" style="fill:#2b2b39"/><path d="M342.66,428.06c.38,0,.5.25.5.63v5.88c0,.25-.37.5-.62.5s-.51-.25-.51-.63v-5.88A.57.57,0,0,1,342.66,428.06Z" style="fill:#2b2b39"/><path d="M273.49,442.82l4.9-7.5c.38-.63,1.26,0,.88.62q-2.44,3.75-4.9,7.5C274,444.07,273.12,443.44,273.49,442.82Z" style="fill:#2b2b39"/><path d="M267.47,451.07c1.13-1.38,2.13-2.63,3.26-4,.25-.25.51-.38.76-.13a.47.47,0,0,1,.12.75c-1.13,1.38-2.13,2.63-3.26,4-.25.26-.5.38-.76.13A.77.77,0,0,1,267.47,451.07Z" style="fill:#2b2b39"/><path d="M276.13,448.69c1-2,2.13-4,3.14-6a.6.6,0,0,1,.75-.37c.25.12.5.5.38.75-1,2-2.14,4-3.14,6a.6.6,0,0,1-.75.37C276.26,449.32,276,448.94,276.13,448.69Z" style="fill:#2b2b39"/><path d="M332.87,334.91c1.76-2.5,3.51-5.12,5.27-7.62.38-.63,1.38,0,.88.62-1.76,2.5-3.51,5.13-5.27,7.63C333.37,336.16,332.49,335.54,332.87,334.91Z" style="fill:#2b2b39"/><path d="M336.76,337.16c1-1.62,1.88-3.25,2.89-4.87.12-.25.5-.25.75-.13a.6.6,0,0,1,.13.75c-1,1.63-1.89,3.25-2.89,4.88-.13.25-.5.25-.75.12A.6.6,0,0,1,336.76,337.16Z" style="fill:#2b2b39"/><path d="M339.77,339.16q1.14-2.25,2.26-4.5a.61.61,0,0,1,.76-.37c.25.12.5.5.37.75q-1.12,2.25-2.26,4.5a.6.6,0,0,1-.75.37A.56.56,0,0,1,339.77,339.16Z" style="fill:#2b2b39"/><path d="M308.89,302.28c.63,3.13,1.13,6.25,1.76,9.38,7.91,7.25,15.94,14.38,23.85,21.63.5.5-.12,1.37-.63.87-7.78-7.12-15.56-14.13-23.34-21.25-.26.12-.76,0-.76-.38q-.94-5.05-1.88-10.13C307.64,301.78,308.77,301.53,308.89,302.28Z" style="fill:#2b2b39"/><path d="M321.7,242c.12.5,1,3.75,1.88,8.63A37.64,37.64,0,0,0,328,231.51c-.12-2-.75-4.5-2.63-4.88-1.13-.25-2.26.38-3.39.88a17.93,17.93,0,0,1-11.68.87c-4.14-1.12-7.65-3.75-11.54-5.37a29.94,29.94,0,0,0-31.51,5.37c-3.39,3.26-6,7.26-10,9.76-5.65,3.5-12.68,3.25-19.34,3.37s-13.93.88-18.32,5.75c-8.29,9-1.89,25.51-10.17,34.39-3.39,3.62-9.29,5.75-10.17,10.75-.75,3.88,2.14,7.63,5.53,9.63s7.4,2.75,11.17,4.13a32,32,0,0,1,10.54,6.62c2.76,2.63,5.15,5.75,8.41,7.38,4.65,2.37,10.42,1.37,14.94-1.25,3.77-2.25,6.9-5.63,11-6.88,3.26-1,6.9-.62,10-2.12l.5-9,3.14.13L276,273.77c-5.28-.75-8.67-15.88-2.77-19.38,4.4-2.62,7.41.75,8.54,2.5,1.88.38,3.77-1,5.15-2.37,2.51-2.63,4.39-6,7.53-7.88,3.64-2,8-1.75,12.17-1.13s8.54,1.25,12.31-.37C319.81,244.26,321.2,243.26,321.7,242Z" style="fill:#2b2b39"/><path d="M275.63,273.52l-1.51,27.26,17.2.62L281.9,286c2.77,3.63,12.56,12.63,23.23,12.26a18.57,18.57,0,0,0,12.55-5.5c8.29-7.76,8.41-23.51,7-35.39-.25-2.5-.63-4.87-1-6.87-.88-4.76-1.76-8.13-1.89-8.63a5.65,5.65,0,0,1-3.14,2.75c-3.89,1.5-8.15.87-12.3.37s-8.53-.87-12.17,1.13c-3.14,1.87-5.15,5.13-7.54,7.88-1.38,1.37-3.26,2.75-5.14,2.37-1.13-1.75-4.14-5.12-8.54-2.5C267,257.52,270.23,272.77,275.63,273.52Z" style="fill:#e69773"/><path d="M281.9,286l9.42,15.38,14.69.5-.88-3.62C294.46,298.53,284.54,289.53,281.9,286Z" style="fill:#2b2b39"/><path d="M293.08,263.64a5.51,5.51,0,1,0,0,11,5.51,5.51,0,1,0,0-11Z" style="fill:#af4e4a"/><path d="M306,277.52c-.51,3.38.75,6.5,3,6.75s4.27-2.25,4.77-5.62-.75-6.5-3-6.75C308.77,271.52,306.51,274.15,306,277.52Z" style="fill:#2b2b39"/><path d="M308.64,254.14a13.42,13.42,0,0,0-.75,5,6.37,6.37,0,0,0,1.76,4.75c1.13,1.13,2.76,1.38,4.26,1.63a15,15,0,0,0,5.78-.13,3.26,3.26,0,0,0,1.51-.62,1.75,1.75,0,0,0,.5-1.5c-.25-.75-1-1-1.63-1.38A28.51,28.51,0,0,1,308.64,254.14Z" style="fill:#af4e4a"/><path d="M223.66,254.27c.5-.5,1.26.37.75.87a12.24,12.24,0,0,0-3.26,9.75.58.58,0,0,1-1.13.25A13.34,13.34,0,0,1,223.66,254.27Z" style="fill:#fff"/><path d="M220.15,269.65c0-.75,1.12-.63,1.12.12-.12,2.13-.25,4.13-.25,6.25,0,.75-1.13.63-1.13-.12C219.89,273.77,220,271.77,220.15,269.65Z" style="fill:#fff"/><path d="M225.42,264c.12-.75,1.25-.63,1.13.12-.25,2-.63,4-.88,6-.13.75-1.26.62-1.13-.13C224.79,268,225,266,225.42,264Z" style="fill:#fff"/><path d="M255,306.28,265.71,304a.58.58,0,0,1,.25,1.12l-10.67,2.26C254.54,307.53,254.29,306.41,255,306.28Z" style="fill:#fff"/><path d="M247.26,313.53c1.51-1.37,2.89-2.75,4.39-4a.48.48,0,0,1,.76.13.47.47,0,0,1-.13.75c-1.51,1.37-2.89,2.75-4.39,4a.48.48,0,0,1-.76-.13C246.88,314.16,247,313.78,247.26,313.53Z" style="fill:#fff"/><path d="M247.51,307.91l5.65-3.76c.25-.12.63-.12.75.13s.13.62-.12.75l-5.65,3.75c-.25.13-.63.13-.76-.12S247.26,308,247.51,307.91Z" style="fill:#fff"/><path d="M283.66,248.89c2-2.38,4.14-4.88,6.15-7.25.51-.5,1.38.12.88.62-2,2.38-4.14,4.88-6.15,7.25C284,250,283.16,249.39,283.66,248.89Z" style="fill:#fff"/><path d="M280.78,247.26c1.25-2.25,2.51-4.5,3.76-6.87.13-.25.5-.25.75-.13a.57.57,0,0,1,.13.75l-3.77,6.88c-.12.25-.5.25-.75.12A.46.46,0,0,1,280.78,247.26Z" style="fill:#fff"/><path d="M314.42,251.52c2-.88,4-1.88,6-2.76a1.82,1.82,0,0,1,2.26.75,1.77,1.77,0,0,1-.75,2.26c-2,.87-4,1.87-6,2.75a1.82,1.82,0,0,1-2.26-.75A1.75,1.75,0,0,1,314.42,251.52Z" style="fill:#2b2b39"/><path d="M293.08,249.89a1.72,1.72,0,0,1,2.13-1c2.64.75,5.27,1.5,8,2.38a1.61,1.61,0,0,1,1,2.12,1.74,1.74,0,0,1-2.14,1c-2.63-.75-5.27-1.5-8-2.37A1.54,1.54,0,0,1,293.08,249.89Z" style="fill:#2b2b39"/><path d="M319.81,260c-1.24,0-2.26-1.29-2.26-2.88s1-2.87,2.26-2.87,2.26,1.28,2.26,2.87S321.06,260,319.81,260Z" style="fill:#2b2b39"/><path d="M298.6,260c-1.25,0-2.26-1.29-2.26-2.88s1-2.87,2.26-2.87,2.26,1.28,2.26,2.87S299.85,260,298.6,260Z" style="fill:#2b2b39"/><path d="M322,259.14S318.68,278.27,336,290.4l7.4-3.25C328.35,272.77,329,255.89,329,255.89,324.33,258,322,259.14,322,259.14Z" style="fill:#fff"/><path d="M343.41,287.15l3.27-1.5,15.81-6.88-3.89-5c-13.18-16.38-11.17-26.26-11.17-26.26-8,3.51-14.18,6.38-18.58,8.26C328.85,255.89,328.22,272.77,343.41,287.15Z" style="fill:#d03f23"/><path d="M346.68,285.65l29.25,32.51,7.4-7.63c-8.41-5.75-20.84-31.63-20.84-31.63Z" style="fill:#d03f23"/><path d="M347.43,247.51s-2.13,9.88,11.17,26.26l3.89,5s24.23-7.62,44.44-6.25a36.06,36.06,0,0,1-5.9-4.25c-7.4-6.5-13.3-16.13-16.69-27.38A61.82,61.82,0,0,1,382.08,213C377.81,219,361.74,241.26,347.43,247.51Z" style="fill:#fff"/><path d="M381.83,213.13A61.79,61.79,0,0,0,384.09,241c3.38,11.13,9.41,20.88,16.69,27.39a35.08,35.08,0,0,0,5.9,4.25A23.49,23.49,0,0,0,418.35,276a21,21,0,0,0,5.53-.75c14.81-4.5,21.09-27.26,13.93-50.64s-25.1-38.76-39.92-34.26C389.48,193,383.83,201.63,381.83,213.13Zm5.52,26.76C380.7,218.26,386,197.5,399,193.5a14.15,14.15,0,0,1,4.52-.63c12,0,25.36,13.51,31.26,32.64,6.65,21.63,1.38,42.39-11.68,46.39-6.15,1.87-13.3-.25-19.95-6.13C396.26,259.77,390.61,250.52,387.35,239.89Z" style="fill:#d03f23"/><path d="M399.15,193.62c-13.06,4-18.33,24.76-11.68,46.39,3.27,10.63,8.92,19.76,15.7,25.76-23.48-43.76.5-72.9.5-72.9A13.19,13.19,0,0,0,399.15,193.62Z" style="fill:#2b2b39"/><path d="M403.54,192.87s-23.85,29.14-.5,72.9c6.65,5.88,13.81,8,20,6.13,13.05-4,18.33-24.76,11.67-46.39C428.9,206.38,415.59,192.87,403.54,192.87Z" style="fill:#c8dbe8"/><path d="M353.71,285.77a25.54,25.54,0,0,0-3.77,2.88c-5.9,5-3,27.76-3,27.76l-7.66,11.13,16.7,11,4.26-15.26c9.29-3.25,8.29-14.37,8.29-14.37s3.77-3,6.4-5.51-3.14-4.87-3.14-4.87a22.07,22.07,0,0,0,2.26-5c.5-2.25-7.78-2-7.78-2l1.13-2c4.9-.25,7.41-7.76,0-7.63C361.62,282,357.85,283,353.71,285.77Z" style="fill:#e69773"/><path d="M355.84,298.9a13.61,13.61,0,0,1,8.79-7.12c.75-.13.88.87.25,1.12a12.29,12.29,0,0,0-7.91,6.38C356.59,299.9,355.59,299.53,355.84,298.9Z" style="fill:#2b2b39"/><path d="M360.11,303.65c3.26-1.75,6.65-3.62,9.92-5.37.62-.38,1.13.62.5,1l-9.92,5.38C359.86,305,359.48,304,360.11,303.65Z" style="fill:#2b2b39"/></svg>