<svg id="Layer_1" data-name="Layer 1" xmlns="http://www.w3.org/2000/svg" xmlns:xlink="http://www.w3.org/1999/xlink" viewBox="0 0 2048 2048"><defs><linearGradient id="linear-gradient" x1="537.55" y1="2029.23" x2="2050.25" y2="516.53" gradientUnits="userSpaceOnUse"><stop offset="0" stop-color="#6059c9"/><stop offset="0.99" stop-color="#8b8efb"/></linearGradient><linearGradient id="linear-gradient-2" x1="-79.89" y1="260.99" x2="1459.19" y2="1800.06" gradientUnits="userSpaceOnUse"><stop offset="0" stop-color="#6059c9"/><stop offset="0.31" stop-color="#5e57c6"/><stop offset="0.52" stop-color="#5950bd"/><stop offset="0.69" stop-color="#4f45ae"/><stop offset="0.85" stop-color="#423599"/><stop offset="0.99" stop-color="#322380"/></linearGradient></defs><path d="M2035.47,501.76c-56.27-56.1-171-152.43-322.86-156.14-182.34-4.45-310.86,127.32-448.39,268.33-206.66,211.88-360.1,488.82-509.2,757.92a997.83,997.83,0,0,1-71.72,112c-38.38,52-78.45,98.82-105.21,121-111.5,92.46-243.19,119.16-337.77,127.1,57.92,51.92,155.79,127.64,294.23,182.42,69,27.31,307.55,117.74,597.86,38.83,70.67-19.21,237.52-66.7,381.31-210.66,0,0,251.06-251.36,276.57-813.23.14-3.07.26-6.35.57-11.76,4.62-81.54,13.08-231.13,106.52-330.72C1920.21,562.56,1962.69,525.67,2035.47,501.76Z" style="fill:url(#linear-gradient)"/><path d="M122.63,58.46A1769.7,1769.7,0,0,0,369,239.7C583.54,370.5,694.08,374.4,968.43,487.63,1258.72,607.45,1403.87,667.36,1525.49,814c46.88,56.55,177.17,218.92,178.89,456.64,1.35,187.76-78.24,324.86-111.22,375.43-204.84,314.09-596.63,334.66-657.26,337.84-250.38,13.14-433.64-83.56-433.52-84s142.12,58.49,305,19.14c53.19-12.85,140.72-36.21,183-111.72,48.09-85.87,10.55-183.19,3.14-202.42-9.94-25.82-30.74-66.58-95.72-127.11C846.2,1429.71,799.61,1400,755,1371.87c-13.71-8.65-14.21-8.61-67.85-40.08-7.78-4.57-101.94-59.85-174.12-103.42-82.56-49.83-123.83-74.75-150.1-93-57.06-39.69-112.36-78.14-169.85-141.18C128,922.83,93.31,856.35,85.89,841.82,22.4,717.61,17.82,603.28,15.64,529.21,9.55,321.94,74.68,155.05,122.63,58.46Z" style="fill:url(#linear-gradient-2)"/><path d="M122.63,58.46C72.94,157.21,9.49,321.39,15.54,525.69c2.27,76.69,7.3,186.36,65.9,307.16,91.42,188.45,259,290.72,374.25,361.1,28.41,17.35,161.09,96.3,275.4,163.8L755,1371.87a547,547,0,0,0,37.85-210.66c-.47-23-3.84-115.38-51.19-219.3-58.5-128.4-127.27-149.57-342.17-347.48-209.59-193-249.33-269.72-268.25-340.61C110.25,175.06,115.29,104.83,122.63,58.46Z" style="fill:#8b8efb;fill-opacity:0.7000000000000001"/></svg>