<svg id="Layer_1" data-name="Layer 1" xmlns="http://www.w3.org/2000/svg" xmlns:xlink="http://www.w3.org/1999/xlink" viewBox="0 0 637 470"><defs><clipPath id="clip-path"><rect x="-0.08" y="2.68" width="637" height="464" style="fill:none"/></clipPath></defs><g style="clip-path:url(#clip-path)"><g style="opacity:0.4000000059604645"><path d="M192.34,362.77a164.39,164.39,0,0,1-82.26-37.25C80,299.81,52.89,258,73.71,195.79,113,77.91,291.62,58.34,372.92,85.53c129.2,43.28,188.4,218.19,10.89,274.91C339.62,374.51,240.44,370,192.34,362.77Z" style="fill:#c8baae;opacity:0.4000000059604645;isolation:isolate"/></g><path d="M60.71,201.29H60.6a.44.44,0,0,1-.31-.63c.31-.95.63-2,1-3a.5.5,0,0,1,.95.31c-.32,1-.63,1.91-.95,2.86A.54.54,0,0,1,60.71,201.29Zm2.11-6.56h-.21a.46.46,0,0,1-.31-.63,30,30,0,0,1,1.05-2.86c.11-.21.43-.42.64-.32s.42.43.32.64c-.32.95-.74,1.9-1.06,2.86C63.25,194.63,63,194.73,62.82,194.73Zm2.33-6.45h-.21c-.21-.11-.42-.42-.32-.64.32-.95.74-1.9,1.17-2.85.1-.21.42-.43.63-.32s.42.42.32.64c-.43.95-.74,1.9-1.17,2.85C65.57,188.17,65.36,188.28,65.15,188.28Zm2.64-6.35h-.21c-.21-.11-.42-.42-.31-.63.42-1,.84-1.91,1.26-2.76.11-.21.43-.42.64-.21s.42.43.21.64c-.42.95-.85,1.9-1.27,2.75C68.11,181.82,68,181.93,67.79,181.93Zm2.86-6.24h-.21a.51.51,0,0,1-.21-.64c.42-1,.84-1.8,1.37-2.75a.47.47,0,0,1,.85.42c-.43,1-.85,1.8-1.38,2.76A.83.83,0,0,1,70.65,175.69Zm3.06-6.14c-.1,0-.21,0-.21-.11a.51.51,0,0,1-.21-.63c.42-.95.95-1.8,1.48-2.75a.54.54,0,1,1,1,.53c-.53.84-1,1.8-1.48,2.64A1,1,0,0,1,73.71,169.55Zm3.28-6c-.1,0-.21,0-.21-.11a.6.6,0,0,1-.21-.74c.53-.84,1.06-1.8,1.59-2.64a.6.6,0,0,1,.74-.21.61.61,0,0,1,.21.74c-.53.84-1.06,1.69-1.59,2.64A1,1,0,0,1,77,163.52Zm3.49-5.93a.42.42,0,0,1-.32-.1.62.62,0,0,1-.21-.74c.53-.85,1.06-1.7,1.69-2.54a.5.5,0,0,1,.74-.11.49.49,0,0,1,.11.74c-.53.85-1.06,1.69-1.69,2.54C80.8,157.59,80.69,157.59,80.48,157.59Zm3.81-5.71a.38.38,0,0,1-.32-.11.51.51,0,0,1-.11-.74c.53-.84,1.17-1.69,1.8-2.54a.52.52,0,0,1,.74-.1c.21.21.32.53.11.74a29.44,29.44,0,0,0-1.69,2.54A2.15,2.15,0,0,1,84.29,151.88Zm4-5.61a.39.39,0,0,1-.31-.1c-.21-.22-.32-.53-.11-.75.64-.84,1.27-1.58,1.91-2.43a.53.53,0,1,1,.84.64c-.63.84-1.27,1.58-1.8,2.43C88.52,146.27,88.41,146.27,88.3,146.27Zm4.23-5.4a.39.39,0,0,1-.31-.1.66.66,0,0,1-.11-.74c.64-.74,1.27-1.59,2-2.33a.53.53,0,0,1,.85.63c-.64.75-1.27,1.59-1.91,2.33C92.75,140.87,92.64,140.87,92.53,140.87ZM97,135.69a.37.37,0,0,1-.31-.11.51.51,0,0,1,0-.74c.63-.74,1.37-1.48,2-2.22a.52.52,0,0,1,.74.74c-.64.74-1.38,1.48-2,2.22C97.19,135.58,97.08,135.69,97,135.69Zm4.66-5.08a.37.37,0,0,1-.32-.11.51.51,0,0,1,0-.74c.74-.74,1.48-1.48,2.11-2.22a.52.52,0,0,1,.74.74c-.74.74-1.48,1.48-2.11,2.22A.77.77,0,0,1,101.63,130.61Zm4.86-4.87c-.11,0-.32,0-.32-.1a.51.51,0,0,1,0-.74c.74-.74,1.48-1.38,2.22-2.12a.52.52,0,0,1,.74.74c-.74.64-1.48,1.38-2.22,2.12A.82.82,0,0,1,106.49,125.74Zm5.07-4.65a.87.87,0,0,1-.42-.21.53.53,0,0,1,0-.75l2.33-2c.21-.21.53-.1.74.11s.1.53-.11.74c-.74.64-1.58,1.27-2.32,2C111.78,121.09,111.67,121.09,111.56,121.09Zm5.18-4.34a.87.87,0,0,1-.42-.21c-.21-.21-.1-.53.11-.74.74-.64,1.58-1.27,2.43-1.91.21-.21.53-.1.74.11a.52.52,0,0,1-.11.74c-.84.63-1.58,1.27-2.43,1.9A.44.44,0,0,1,116.74,116.75Zm5.5-4.23a.82.82,0,0,1-.42-.22c-.21-.21-.11-.52.11-.74.84-.63,1.69-1.16,2.43-1.8.21-.21.53-.1.74.11s.1.53-.11.74c-.84.64-1.69,1.17-2.43,1.8A.38.38,0,0,1,122.24,112.52Zm5.61-4a.54.54,0,0,1-.43-.21.66.66,0,0,1,.11-.74c.84-.53,1.69-1.16,2.54-1.69a.63.63,0,0,1,.74.11.67.67,0,0,1-.11.74c-.85.52-1.69,1.16-2.54,1.69A.39.39,0,0,1,127.85,108.49Zm5.71-3.7a.54.54,0,0,1-.43-.21.57.57,0,0,1,.21-.74c.85-.53,1.7-1.06,2.65-1.59a.54.54,0,1,1,.53,1c-.85.53-1.7,1.06-2.65,1.59Zm5.92-3.49a.5.5,0,0,1-.22-1c.85-.53,1.8-1.06,2.65-1.48a.69.69,0,0,1,.74.21.71.71,0,0,1-.21.74c-.85.53-1.8,1-2.65,1.48C139.69,101.19,139.58,101.3,139.48,101.3Zm6-3.28c-.21,0-.31-.11-.42-.32a.5.5,0,0,1,.21-.63c1-.43,1.8-1,2.75-1.38a.51.51,0,0,1,.63.21.51.51,0,0,1-.21.64c-1,.42-1.79.95-2.75,1.37A.34.34,0,0,1,145.5,98ZM151.74,95c-.21,0-.42-.11-.42-.32a.5.5,0,0,1,.21-.63c.95-.42,1.9-.85,2.75-1.27a.5.5,0,0,1,.63.21.51.51,0,0,1-.21.64c-.95.42-1.9.84-2.75,1.26A.31.31,0,0,1,151.74,95ZM158,92.2c-.21,0-.42-.11-.42-.32a.46.46,0,0,1,.31-.63c.95-.43,1.91-.74,2.86-1.17a.47.47,0,0,1,.63.32A.47.47,0,0,1,161,91c-.95.42-1.9.74-2.85,1.16C158.08,92.09,158.08,92.2,158,92.2Zm6.34-2.54a.6.6,0,0,1-.53-.32.47.47,0,0,1,.32-.63c.95-.32,1.9-.74,2.85-1.06a.5.5,0,1,1,.32.95c-.95.32-1.9.64-2.85,1.06C164.53,89.55,164.43,89.66,164.32,89.66Zm6.56-2.33a.57.57,0,0,1-.53-.32.5.5,0,0,1,.32-.63c1-.32,2-.64,3-.95a.51.51,0,0,1,.63.31.52.52,0,0,1-.32.64l-2.85,1Zm6.55-2a.54.54,0,0,1-.53-.42.53.53,0,0,1,.32-.64c.95-.31,2-.53,3-.74a.51.51,0,0,1,.63.32.5.5,0,0,1-.31.63c-.95.22-1.91.53-3,.75C177.54,85.32,177.54,85.32,177.43,85.32Zm6.66-1.69a.71.71,0,0,1-.53-.42c-.1-.32.11-.53.43-.64,2-.32,3.06-.53,3.06-.53.32,0,.53.11.53.42s-.1.53-.42.53l-3,.64Z" style="fill:#c8baae"/><g style="opacity:0.4000000059604645"><path d="M554,89.77c-23.16-21.91-62.7-25.4-83-.11-10.25,12.8-10.89,31.22-7.29,41.27,11,31.32,64.07,80.1,102.87,44.86C591.77,153,579.51,114,554,89.77Z" style="fill:#c8baae;opacity:0.4000000059604645;isolation:isolate"/></g><path d="M577.29,181.19a.38.38,0,0,1-.32-.11.64.64,0,0,1-.1-.74,20.43,20.43,0,0,0,1.79-2.32.52.52,0,0,1,.74-.11c.21.21.32.53.11.74-.64.74-1.27,1.59-1.9,2.33C577.61,181.08,577.5,181.19,577.29,181.19Zm4.12-5.4a.42.42,0,0,1-.32-.1.5.5,0,0,1-.1-.74l1.58-2.54a.61.61,0,0,1,.74-.21.6.6,0,0,1,.22.74c-.53.84-1.06,1.8-1.59,2.64A1.62,1.62,0,0,1,581.41,175.79Zm3.28-6h-.21a.5.5,0,0,1-.21-.63c.42-1,.84-1.8,1.16-2.75.1-.22.42-.43.63-.32s.43.42.32.63a31.23,31.23,0,0,1-1.27,2.86C585.11,169.66,584.9,169.76,584.69,169.76Zm2.54-6.45h-.11a.45.45,0,0,1-.32-.64c.32-.95.53-1.9.85-3a.54.54,0,0,1,1.06.21c-.22,1-.53,2-.85,3A.76.76,0,0,1,587.23,163.31Zm1.48-6.67a.59.59,0,0,1-.53-.63c.21-1,.31-2,.42-3,0-.31.32-.53.53-.42s.53.32.42.53a29.39,29.39,0,0,1-.42,3.07C589.23,156.53,589,156.64,588.71,156.64Zm.74-6.77a.5.5,0,0,1-.53-.53v-3.07a.5.5,0,0,1,.53-.53.5.5,0,0,1,.53.53v.53a19.63,19.63,0,0,1-.11,2.54C590,149.66,589.76,149.87,589.45,149.87Zm-.11-6.88a.48.48,0,0,1-.53-.42,29.14,29.14,0,0,0-.32-3.07.48.48,0,0,1,1-.11c.1,1.06.21,2,.31,3.07C589.87,142.67,589.66,143,589.34,143Zm-.74-6.88a.71.71,0,0,1-.53-.42c-.21-.95-.32-2-.53-3-.1-.32.11-.53.43-.64s.52.11.63.42c.21,1.06.42,2,.53,3.07A.56.56,0,0,1,588.6,136.11Zm-1.48-6.66a.55.55,0,0,1-.53-.43c-.21-1-.53-2-.74-3a.51.51,0,0,1,.32-.63.5.5,0,0,1,.63.31c.32,1,.53,2,.85,3a.52.52,0,0,1-.32.63C587.23,129.45,587.23,129.45,587.12,129.45Zm-1.9-6.67a.58.58,0,0,1-.53-.32c-.32-.95-.64-1.9-1-2.85a.47.47,0,0,1,.31-.64.45.45,0,0,1,.64.32,28.85,28.85,0,0,1,.95,2.85.52.52,0,0,1-.32.64Zm-2.33-6.45c-.21,0-.42-.11-.42-.32-.42-1-.74-1.91-1.16-2.86a.47.47,0,0,1,.84-.42c.42,1,.85,1.9,1.16,2.85a.47.47,0,0,1-.31.64C583,116.33,583,116.33,582.89,116.33Zm-2.75-6.25c-.21,0-.42-.1-.42-.32-.42-1-.85-1.79-1.37-2.75a.47.47,0,1,1,.84-.42c.42,1,.95,1.8,1.38,2.75a.52.52,0,0,1-.22.64A.32.32,0,0,1,580.14,110.08ZM577,103.94c-.21,0-.32-.1-.42-.31-.53-.85-.95-1.8-1.48-2.65a.55.55,0,0,1,.21-.74.57.57,0,0,1,.74.21c.53.85,1.06,1.8,1.48,2.65a.69.69,0,0,1-.21.74A.41.41,0,0,1,577,103.94ZM573.48,98a.55.55,0,0,1-.42-.21l-1.69-2.54a.53.53,0,1,1,.84-.64l1.69,2.54a.64.64,0,0,1-.1.74C573.69,97.91,573.59,98,573.48,98Z" style="fill:#c8baae"/><g style="opacity:0.4000000059604645"><path d="M499.9,249.33c-2.33-27.4,18.39-50.79,45.78-47.19,16.28,2.12,24.1,11.75,29,19.58,15.23,24.33,16,81.79-29.28,81.69C513.43,303.19,502.43,279.6,499.9,249.33Z" style="fill:#c8baae;opacity:0.4000000059604645;isolation:isolate"/></g><path d="M318.36,466.57c175.88,0,318.45-5,318.45-11.21s-142.57-11.22-318.45-11.22S-.08,449.16-.08,455.36,142.49,466.57,318.36,466.57Z" style="fill:#c8baae"/><path d="M303.14,442.34h-.32a13.94,13.94,0,0,0-.53-1.8C302.61,441.18,302.82,441.81,303.14,442.34Z" style="fill:#dbccc1"/><path d="M479.6,444.46h.31a17.31,17.31,0,0,1,.53-1.8C480.13,443.29,479.81,443.93,479.6,444.46Z" style="fill:#dbccc1"/><path d="M28.15,389s-12.06-17.35-7.51-28.89c4.86-12.38,14.48-5.39,12.79,10.16A60.64,60.64,0,0,1,28.15,389Z" style="fill:#dbccc1"/><path d="M55.21,454.72A175.32,175.32,0,0,1,40.83,430a136.71,136.71,0,0,1-11.2-36.5,185.69,185.69,0,0,1-2.22-23.07c0-1.17-1.91-1.17-1.8,0,.53,13.44,2.11,26.87,5.92,39.89a149.81,149.81,0,0,0,16.28,36.4q2.53,4.13,5.39,8.25Z" style="fill:#c8baae"/><path d="M32.8,411.44S12,408,6.9,396.74c-5.5-12.07,6.23-14.08,16.17-2.12A61.22,61.22,0,0,1,32.8,411.44Z" style="fill:#dbccc1"/><path d="M37.45,424s16.28-13.55,15-25.82c-1.37-13.23-12.47-9.1-15,6.35A62.79,62.79,0,0,0,37.45,424Z" style="fill:#dbccc1"/><path d="M47.71,443.61s16.28-13.54,15-25.82c-1.38-13.22-12.48-9.1-15,6.35A59,59,0,0,0,47.71,443.61Z" style="fill:#dbccc1"/><path d="M42.84,436.42s-21,2-28.86-7.52c-8.35-10.26,2.33-15.23,15.12-6.13A59.77,59.77,0,0,1,42.84,436.42Z" style="fill:#dbccc1"/><path d="M520.94,382.56s10.67-18.31,5.18-29.42c-5.82-12-14.81-4.23-12,11.11A59.82,59.82,0,0,0,520.94,382.56Z" style="fill:#dbccc1"/><path d="M499.16,450.28a182.59,182.59,0,0,0,12.37-25.82,135.77,135.77,0,0,0,8.24-37.25,186.64,186.64,0,0,0,.32-23.17c0-1.17,1.8-1.38,1.8-.21.53,13.44,0,27-2.65,40.21a146.94,146.94,0,0,1-13.32,37.56c-1.48,3-3.06,5.82-4.65,8.68Z" style="fill:#c8baae"/><path d="M518.08,405.31s20.51-5.19,24.64-16.83c4.44-12.48-7.3-13.54-16.29-.74A63.61,63.61,0,0,0,518.08,405.31Z" style="fill:#dbccc1"/><path d="M514.49,418.22s-17.34-12.17-17-24.55c.32-13.23,11.74-10.06,15.44,5.08A60,60,0,0,1,514.49,418.22Z" style="fill:#dbccc1"/><path d="M505.82,438.53s-17.34-12.17-17-24.55c.31-13.22,11.73-10.05,15.43,5.08A60,60,0,0,1,505.82,438.53Z" style="fill:#dbccc1"/><path d="M510.15,430.91s21.15.32,28.13-9.84c7.5-10.9-3.6-15-15.55-5A62.66,62.66,0,0,0,510.15,430.91Z" style="fill:#dbccc1"/><path d="M151.21,151.56c-.21,0-.32.11-.53.11-4.86,1.06-9.51-1.7-13.85-4.76a126.57,126.57,0,0,1-11-9.21c-7.19-6.45-13.54-13-13.75-13.23a8.45,8.45,0,0,1,12.06-11.85c.1.11,5.28,5.4,11.31,10.9A147.43,147.43,0,0,0,147.93,134a85.2,85.2,0,0,0,8.89-12c4-6.35,7.29-12.17,7.29-12.28a8.42,8.42,0,1,1,14.8,8c-.21.31-4,7.4-8.88,14.7a120.84,120.84,0,0,1-8,11C158,148.18,154.7,150.61,151.21,151.56Z" style="fill:#6059c9"/><path d="M162.74,112.41a14.13,14.13,0,0,0,13.95,8.89.43.43,0,0,0,0-.85,13.33,13.33,0,0,1-13.21-8.36C163.26,111.67,162.52,111.88,162.74,112.41Z" style="fill:#6059c9"/><path d="M184.52,108.49s-3,6.88-7.41,7.52c-6,.95-9.51-4.55-9.51-4.55-1.9-3.28-2-5.08-2.22-8.47s5.6-5.92,5.6-5.92,6.45-12.07,8.67-12.7-2.54,11.43-2.54,11.43a2.2,2.2,0,0,1,2.12-.11,20.37,20.37,0,0,1,6.77,6.46C187.26,104.26,184.52,108.49,184.52,108.49Z" style="fill:#eaad8f"/><path d="M167,104.79c2.65-.53,6-1.06,8.15-3,.74-.74,1.48-2,.84-3.07-.63-.85-1.9-1.06-2.85-1.27a.38.38,0,0,0-.21.74c.84.21,2.32.32,2.53,1.27.11.74-.74,1.59-1.37,2a11.18,11.18,0,0,1-1.59.85,34.43,34.43,0,0,1-5.71,1.58A.44.44,0,0,0,167,104.79Z" style="fill:#c6695d"/><path d="M175.21,101.09a21.54,21.54,0,0,0,8.67,6.66c.42.22.85-.53.42-.63a21.58,21.58,0,0,1-8.35-6.35C175.63,100.35,174.89,100.66,175.21,101.09Z" style="fill:#c6695d"/><path d="M177,105.43a9,9,0,0,0-3.38,8.14c0,.53.84.53.74,0a8.48,8.48,0,0,1,3.17-7.61C178,105.64,177.43,105.11,177,105.43Z" style="fill:#c6695d"/><path d="M177.22,102.25a17.18,17.18,0,0,1,3.59-5.08c.43-.31-.21-.84-.52-.53a16,16,0,0,0-3.7,5.19C176.27,102.36,177,102.78,177.22,102.25Z" style="fill:#c6695d"/><path d="M179.65,104.79a22.48,22.48,0,0,1,3.6-5.18c.31-.32-.21-1-.53-.53a21.45,21.45,0,0,0-3.81,5.39C178.7,104.9,179.44,105.32,179.65,104.79Z" style="fill:#c6695d"/><path d="M182.3,106.06c0,.11-.11.11-.11.21a2.14,2.14,0,0,1,.63.43,11.43,11.43,0,0,1,3-4.13c.43-.32-.21-.85-.52-.53a12.05,12.05,0,0,0-3.07,4.23c-.21.43.42.85.63.43,0-.11.11-.11.11-.22C183.25,106,182.61,105.64,182.3,106.06Z" style="fill:#c6695d"/><path d="M176.48,95.9a7.69,7.69,0,0,0-1.37,3,.39.39,0,0,0,.74.21,9.44,9.44,0,0,1,1.37-2.75A.43.43,0,0,0,176.48,95.9Z" style="fill:#c6695d"/><path d="M148.15,134.21a8.7,8.7,0,0,0-1.48,5.82.31.31,0,0,0,.63,0,7.81,7.81,0,0,1,1.48-5.5C148.89,134.21,148.36,133.89,148.15,134.21Z" style="fill:#6059c9"/><path d="M147.3,135.69a3.44,3.44,0,0,0-2.43,2.22c-.11.42.42.53.63.21a3.15,3.15,0,0,1,2-1.8C147.83,136.22,147.62,135.58,147.3,135.69Z" style="fill:#6059c9"/><path d="M106.38,283q-.47,8.89-1.58,21c-.43,4.12-.85,8.35-1.38,12.91,0,0,1.8,12.9-1.27,33.75-2.22,14.92-8,59-9.51,70.68-3.07,3.28-4.86,2.23-9.2-2-.74-7.3-3.8-26-4.76-36.93-1.48-15.34-7.93-49.52,0-62.85-1.16-5.61-2.11-10.9-3.06-15.77-1.48-8-2.75-15.13-3.28-21.26-.85-8.47-.53-15.14,1.48-20.11l31.51.64C106.81,259.81,107.34,267.64,106.38,283Z" style="fill:#eaad8f"/><path d="M82.81,421.28S78.58,423,78.37,429s0,21.48,0,21.48h2.22l1.16-5.5s.74,5.92,3.81,9.73,9.51,3.92,13.74,3.28,1.06-8.57-.63-13-5.4-15-5.4-15Z" style="fill:#171612"/><path d="M83.86,412.61s.11,7.3-1.16,8.57-3,5.4-1.69,10.47,2.11,12.49,5.07,15.67,10.68,3.28,11.32.74-3.91-12-4.13-16.83-1-17.88-1-17.88Z" style="fill:#eaad8f"/><path d="M105.11,300.66c.64-6.67,1.06-12.6,1.38-17.78l-34.15-.53c.53,5,1.37,10.47,2.43,16.72C78.47,300.34,96.13,301.4,105.11,300.66Z" style="fill:#c6695d"/><path d="M92.43,318.64a17.74,17.74,0,0,0,10.25.53c.53-.1.32-.84-.21-.74a16.35,16.35,0,0,1-9.83-.53C92.22,317.69,92,318.43,92.43,318.64Z" style="fill:#c6695d"/><path d="M140.53,321.29c-2.85,21.8-5.81,87.09-6.34,97.56-3,2.22-6.13,2.54-9.52,0-.74-3.07-5.28-22.22-7-34.81-1.8-13.76-9.41-39.47-1.48-52.8-2.86-9.63-5.71-18.2-7.4-27.94a118,118,0,0,1-1.8-20.42A173.32,173.32,0,0,1,108.39,262l29.18-2s1.59,10.27,2.75,23.39c.32,3.81.64,7.93.85,12.17A171.2,171.2,0,0,1,140.53,321.29Z" style="fill:#eaad8f"/><path d="M144.55,444.46c-2.11-3.39-20.93-21.38-20.93-21.38s-3.81,3-3.7,6.35c.21,3.18,0,19.79.1,21.59h2.33l1.27-7.62s5.18,8.36,9.09,11.22,17.13,2.32,20.19,1.9C156.18,456,146.67,447.84,144.55,444.46Z" style="fill:#171612"/><path d="M123.62,414.09l.31,8.15a9.52,9.52,0,0,0,0,6c1.06,3.6,5.08,9.31,8.89,13.54,3.27,3.6,10.36,7.3,12.47,6.35s-4-8.25-5.81-12.06a63.91,63.91,0,0,1-3.92-10.69c-.95-3.6-1.16-12.17-1.16-12.17Z" style="fill:#eaad8f"/><path d="M108.29,300.13A122.16,122.16,0,0,1,107,282.88l33.41.53c.31,3.81.63,7.83.74,11.95C141.17,295.36,130,298.33,108.29,300.13Z" style="fill:#c6695d"/><path d="M130.6,323.72a9.87,9.87,0,0,0,9.4-.53c.43-.31,0-.95-.42-.63a9.11,9.11,0,0,1-8.56.53A.38.38,0,1,0,130.6,323.72Z" style="fill:#c6695d"/><path d="M74.24,104.16c12.48,3.38,26,2.85,40,0-1.17-9-1.8-20.53-1.06-25.29C115.69,63,101.41,52.62,84.29,56.54S70.12,84.16,72.13,92.41C72.55,94.1,73.4,99.08,74.24,104.16Z" style="fill:#e59f3f"/><path d="M62.51,128.39c.21,1.27,1.9,3.81,3.91,7.41.32.52.53.95.85,1.48a5.74,5.74,0,0,0,.42.74c5.18,9.2,12.79,22.64,15.65,32.59a29.63,29.63,0,0,1,1,5.5c1.17,12.17-5.18,23.7-5.18,23.7,31.4,19.47,57.09,18.1,57.09,18.1s-.42-10.37-6.87-30.58c-1.16-3.6-2.43-8.15-3.38-12.49-.11-.32-.11-.63-.21-1.06-.32-1.58-.64-3.07-.85-4.55a29.9,29.9,0,0,1-.42-8.46c.1-.64.21-1.17.32-1.8.1-.21.1-.53.21-.74a61.65,61.65,0,0,1,3.06-7.94l.32-.95a24.27,24.27,0,0,0,.85-2.43c.1-.22.1-.53.21-.74a16.69,16.69,0,0,0,.63-3.92v-1.38a1.92,1.92,0,0,0-.1-.74,12.86,12.86,0,0,0-1.59-4.65c0-.11-.11-.11-.11-.21s-.21-.32-.31-.53-.11-.21-.21-.32c-1.59-2.33-3.49-4-4.55-5.4-.85-1.16-1-3-.85-5a40.25,40.25,0,0,0,.22-6.24c0-.32-.11-.53-.11-.85s-.11-.63-.21-.95a6.89,6.89,0,0,0-1.27-2.65l-.63-.63c-1.7-1.48-4-1.48-6.88-1.59a14.26,14.26,0,0,1-2.75-.53l-.95-.32a33,33,0,0,1-5.81-2.75l-19.35-2.22s-.74,2-4.76,4.55a3.82,3.82,0,0,1-.74.42,39.74,39.74,0,0,1-7,3.18c-.84.32-1.58.63-2.22.84a6.49,6.49,0,0,0-.84.43c-3.28,1.69-5.08,3.6-6,5.61-.1.31-.21.53-.31.84a8.54,8.54,0,0,0-.43,1.59c0,.32-.1.53-.1.85A17.71,17.71,0,0,0,62.51,128.39Z" style="fill:#fff"/><path d="M113.57,128.92c.53,3.49,3.39,5.82,6.66,6.77a15.19,15.19,0,0,0,8.14-.32c0-.1-.1-.1-.1-.21s-.21-.32-.32-.53a16.14,16.14,0,0,1-6.76.42c-3.49-.74-6.67-3.17-6.88-6.87s2.22-7.09,5.29-8.89a15.79,15.79,0,0,1,3.07-1.48c0-.32-.11-.53-.11-.85a15.25,15.25,0,0,0-4.65,2.54C115.16,121.72,113,125.32,113.57,128.92Z" style="fill:#dbccc1"/><path d="M62.72,121.09a34.37,34.37,0,0,1,4.76,0A40.72,40.72,0,0,1,87.35,128c6,3.92,11.32,8.89,16.92,13.44,5,4,10.47,8.26,17,9.32a14.77,14.77,0,0,0,6.77-.53c.1-.32.21-.64.31-1-4.12,1.49-9.19.53-13.11-1.37-6.23-3.07-11.52-7.94-16.91-12.38-5-4.23-10.15-8.36-16.07-11.22a39.16,39.16,0,0,0-19-3.91H63C62.93,120.56,62.82,120.88,62.72,121.09Z" style="fill:#dbccc1"/><path d="M110.4,163.1a56.54,56.54,0,0,0,15.65,11.64c-.11-.32-.11-.64-.21-1.06a62.38,62.38,0,0,1-6.56-4,57.77,57.77,0,0,1-5.5-4.45c-1.58-1.48-4.12-3.28-4.33-5.5-.42-4.87,10.26-2.22,12.79-1.59a19.1,19.1,0,0,1,2.65.85c.1-.21.1-.53.21-.74a21,21,0,0,0-2.43-.74,35.29,35.29,0,0,0-5.82-1.17,16.12,16.12,0,0,0-5.5,0,3.15,3.15,0,0,0-2.64,2.65C108.39,160.56,109.34,161.93,110.4,163.1Z" style="fill:#dbccc1"/><path d="M86.08,171.14c3.28-1.59,6.77,0,9.41,1.9a34.12,34.12,0,0,1,7.72,7.41,37.22,37.22,0,0,1,7.61,19.36.37.37,0,1,1-.74,0,36.35,36.35,0,0,0-6.76-17.88,35.28,35.28,0,0,0-6.66-7c-2.75-2.23-6.66-4.87-10.15-3.07C86.08,172.09,85.66,171.35,86.08,171.14Z" style="fill:#dbccc1"/><path d="M118.65,186.8c-1.48-5.08-3.28-10.16-6.45-14.39a22.63,22.63,0,0,0-5.6-5.4,23,23,0,0,0-7-2.86c-3.91-1.05-8.78-2.54-10.05-6.87-.74-2.44-.1-4.87-.21-7.41a11.51,11.51,0,0,0-2.22-6.46,7.11,7.11,0,0,0-6.34-2.85,5.83,5.83,0,0,0-5.29,4c-.1.53-1,.32-.74-.21,1.06-3.5,5-5.29,8.46-4.45,4.12,1,6.56,5.29,7,9.21.32,3.07-.85,6.35.74,9.2,1.37,2.44,4.12,3.71,6.66,4.45s5.39,1.37,7.82,2.64a22.26,22.26,0,0,1,5.82,4.55c4.23,4.66,6.45,10.69,8.14,16.62C119.6,187.12,118.86,187.33,118.65,186.8Z" style="fill:#dbccc1"/><path d="M71.39,132.3a6.81,6.81,0,0,1-4.12,5,5.74,5.74,0,0,0,.42.74,7.42,7.42,0,0,0,4.54-6.35c.43-5.72-4.75-9.63-9.93-8.89,0,.32-.11.53-.11.85A7.65,7.65,0,0,1,71.39,132.3Z" style="fill:#dbccc1"/><path d="M69.06,114.74a27.15,27.15,0,0,0,6.13,2.75c2.12.63,5.82,1.59,6.24-1.69a10.48,10.48,0,0,0-1.48-6,4.4,4.4,0,0,1-.74.43c.21.42.43.84.64,1.37.53,1.27,1.37,3.6.63,5s-3.06.74-4.33.31a28.94,28.94,0,0,1-4.23-1.58l-1.91-1C69.7,114.42,69.38,114.63,69.06,114.74Z" style="fill:#dbccc1"/><path d="M109.87,110.29c1.06,2.44,2.33,4.66,5,5.4,2.43.64,4.55-.53,6.24-2.33l-.63-.63c-1.91,2.11-4.34,3.28-7,1.37a10.83,10.83,0,0,1-2.75-3.49C110.51,110.51,110.19,110.4,109.87,110.29Z" style="fill:#dbccc1"/><path d="M108.71,117.59a3.48,3.48,0,0,1-1.59,3.81c-1.9,1.06-4.33.85-6.45.74a40.41,40.41,0,0,1-14.06-3.59c-.42-.21-.1-.85.43-.64a40.29,40.29,0,0,0,10.89,3.28,32.17,32.17,0,0,0,5.6.43c2,0,5.29-.85,4.44-3.6C107.76,117.28,108.5,117.07,108.71,117.59Z" style="fill:#dbccc1"/><path d="M72.87,140.13A139.15,139.15,0,0,1,91,187.54c.1.53-.64.74-.74.21a139.83,139.83,0,0,0-18-47.19A.39.39,0,1,1,72.87,140.13Z" style="fill:#dbccc1"/><path d="M108.39,79s2-.1,2.75,2.44-.1,7-2.75,6.77S108.39,79,108.39,79Z" style="fill:#c6695d"/><path d="M105.86,89.24a3.55,3.55,0,1,1,3.8,3.28A3.49,3.49,0,0,1,105.86,89.24Zm1-.11a2.54,2.54,0,1,0,2.32-2.75A2.75,2.75,0,0,0,106.81,89.13Z" style="fill:#fff"/><path d="M83,109.55s4.33,6.25,12,6.46c9.72.21,10.36-4,10.36-4a23.32,23.32,0,0,1-1.27-3.92c-.11-.53-.21-1.06-.32-1.59a36.9,36.9,0,0,1-.32-5.18V99.82C96.55,99,90.84,96.75,86.51,92.2l-1.06-.53-.74-.32-.11.43.32,1.27C86.4,98.87,85.66,103.84,83,109.55Z" style="fill:#eaad8f"/><path d="M91.9,96.86c1.8,3,5.71,8.25,12,9.62a36.9,36.9,0,0,1-.32-5.18V99.92c-.1,0-.21.11-.42.11C99.62,100.66,95.49,99.29,91.9,96.86Z" style="fill:#171612"/><path d="M75.72,82.89c.21,3.6,3.49,7.93,8.25,7.83h.11l.31.63c0,.11.11.21.11.32,3.28,6,12.26,9.21,17,9a8.5,8.5,0,0,0,3.17-.63c5-1.38,5.61-8.25,4.44-13.44a11.34,11.34,0,0,0-.53-2.12v-.1s1.27-7.41,1.48-10.58c.43-6.25-3.38-12.28-17-12.81S76.78,69,76,73.58c-.1.74.32,5.18,1.06,5.82A3.47,3.47,0,0,0,75.72,82.89Z" style="fill:#eaad8f"/><path d="M107.12,82.57c-.1,1.06-.63,1.8-1.16,1.69s-.85-1-.74-1.9.64-1.8,1.16-1.69S107.23,81.62,107.12,82.57Z" style="fill:#171612"/><path d="M103.74,81.51l-.11-.1c-.1-.11,0-.32.11-.43s2.54-1.69,4.65-.1c.11.1.11.21.11.42s-.21.11-.42.11c-1.8-1.38-4,.1-4.13.1Z" style="fill:#171612"/><path d="M98.24,81.83c-.1,1.06-.63,1.8-1.16,1.69s-.85-1-.74-1.9.63-1.8,1.16-1.7S98.35,80.77,98.24,81.83Z" style="fill:#171612"/><path d="M94.44,81.09c-.11,0-.11,0-.11-.11a.33.33,0,0,1,0-.42c.11-.11,2.33-2,4.65-.74.11.1.21.21.11.32s-.21.21-.32.1c-2-1.06-4,.64-4,.64C94.54,81.09,94.54,81.09,94.44,81.09Z" style="fill:#171612"/><path d="M103.11,92.31h-.53c-1.59-.22-2.75-1.8-2.86-1.8a.52.52,0,0,1,.11-.74c.21-.22.53-.11.74.1a3.66,3.66,0,0,0,2.11,1.38,1.89,1.89,0,0,0,1.8-.64c.21-.21.53-.32.74-.1a.49.49,0,0,1,.11.74C105.43,91.35,104.69,92.31,103.11,92.31Z" style="fill:#c6695d"/><path d="M84.29,87.76a.47.47,0,0,1-.43-.43c-.84-3.38-5-4.65-5.07-4.65a.51.51,0,1,1,.32-1c.21.11,4.75,1.38,5.71,5.4.1.21-.11.53-.32.64S84.29,87.86,84.29,87.76Z" style="fill:#c6695d"/><path d="M79.85,86.17c-.11,0-.11,0-.21-.11a.5.5,0,0,1-.22-.63,3.09,3.09,0,0,1,2.86-1.59.53.53,0,0,1,0,1.06,2.4,2.4,0,0,0-2,1.06C80.27,86.06,80.06,86.17,79.85,86.17Z" style="fill:#c6695d"/><g style="opacity:0.5"><g style="opacity:0.5"><g style="opacity:0.5"><g style="opacity:0.5"><g style="opacity:0.5"><g style="opacity:0.5"><g style="opacity:0.5"><g style="opacity:0.5"><g style="opacity:0.5"><g style="opacity:0.5"><path d="M106.38,85.74c0,.53,1.27,1,2.86.85a13.14,13.14,0,0,0-.53-2.12C107.34,84.79,106.38,85.22,106.38,85.74Z" style="fill:#c6695d;opacity:0.5;isolation:isolate"/></g></g></g></g></g></g></g></g></g></g><g style="opacity:0.5"><g style="opacity:0.5"><g style="opacity:0.5"><g style="opacity:0.5"><g style="opacity:0.5"><g style="opacity:0.5"><g style="opacity:0.5"><g style="opacity:0.5"><g style="opacity:0.5"><g style="opacity:0.5"><path d="M98,86.27c0,.64-1.48,1.27-3.38,1.38s-3.49-.21-3.49-.85,1.48-1.27,3.38-1.37S97.93,85.64,98,86.27Z" style="fill:#c6695d;opacity:0.5;isolation:isolate"/></g></g></g></g></g></g></g></g></g></g><path d="M84,90.61h.11l.31.64c0,.1.11.21.11.31a3.86,3.86,0,0,0,1.8-.84,11.38,11.38,0,0,0,1-1.06A.53.53,0,0,0,87,89a.51.51,0,0,0-.64.22,2.73,2.73,0,0,1-1.16,1.05c-.32.11-.53.22-.85.32Z" style="fill:#c6695d"/><path d="M85.13,90.51a3.92,3.92,0,0,1-1,.21,2.55,2.55,0,1,1-5.08.42,2.52,2.52,0,0,1,1.9-2.64c.32-.43.32-.74-.1-1.06a3.59,3.59,0,0,0-3,3.81,3.55,3.55,0,1,0,7.08-.53C85.13,90.61,85.13,90.51,85.13,90.51Z" style="fill:#fff"/><path d="M102.05,94.63a1.78,1.78,0,0,1-1.16-.63.3.3,0,1,1,.42-.42,1.36,1.36,0,0,0,1.48.31c.21-.1.32,0,.42.21s0,.32-.21.43A1,1,0,0,1,102.05,94.63Z" style="fill:#c6695d"/><path d="M79.42,65.75C82.17,62.57,86.08,59.93,91,60c6.87,0,13.21,2.12,16.91,5.61a9.45,9.45,0,0,1,3.18,6c.74,7.09-.85,5.72-.85,5.72s0-.22-.21-1.7c-.21-1-.42-2.33-1-4.44-1.17-5.08-17.45-4.76-16.18-1.59A4.6,4.6,0,0,1,93,70.72a6.47,6.47,0,0,1-.53,2.54c-.11,0-.21.1-.32.1a16.5,16.5,0,0,0-4,1.59c-.1.11-2.53,2-2,4.55s1.7,6-.21,5.5a4.47,4.47,0,0,1-2.53-2.64,9.11,9.11,0,0,0-4-2.75C78.26,75.06,77.84,70.3,79.42,65.75Z" style="fill:#e59f3f"/><path d="M78.68,68.81c4.76-1.9,12.8,1.27,14.17,1.91a6.3,6.3,0,0,1-.53,2.54c-.1,0-.21.1-.31.1A16.34,16.34,0,0,0,88,75c-.11.11-2.54,2-2,4.55s3.81,16.72,1.16,19c-5.28,4.76-4.65-16.19-4.65-16.19-1.06-1.17-1.59-2.33-3.38-2.75C77.1,76,77.52,72.41,78.68,68.81Z" style="fill:#e59f3f"/><path d="M79.74,68.5S77,72.84,79.11,79.71a9.16,9.16,0,0,0-3.49,0c-1.06.43-2.43-3.59-1.59-7.4s6-8.68,6-8.68S80.69,67.23,79.74,68.5Z" style="fill:#e59f3f"/><path d="M103.32,87.65c.1,0,.1,0,.21-.11l1.8-1.16c.1-.11.21-.21.21-.32s-.11-.32-.21-.32a5.71,5.71,0,0,1-3-4,.59.59,0,0,0-.53-.31.57.57,0,0,0-.32.53,7.28,7.28,0,0,0,2.85,4.23l-1.26.84a.36.36,0,0,0-.11.53A1,1,0,0,0,103.32,87.65Z" style="fill:#c6695d"/><path d="M98.35,77.17a1,1,0,0,0,1.37-1.37A2.85,2.85,0,0,0,98,74.74a7,7,0,0,0-6.24,1.48s3.81-.21,5.61.53C97.71,76.86,98,77.07,98.35,77.17Z" style="fill:#171612"/><path d="M104.37,77.7a1,1,0,0,1-1.16-1.58,2.81,2.81,0,0,1,1.8-.85c3.7-.42,4.86,2,4.86,2a12.3,12.3,0,0,0-4.44.11C105,77.49,104.69,77.6,104.37,77.7Z" style="fill:#171612"/><g style="opacity:0.6000000238418579"><path d="M107.86,87.12c2.63,0,4.76-1.52,4.76-3.39s-2.13-3.38-4.76-3.38-4.75,1.51-4.75,3.38S105.24,87.12,107.86,87.12Z" style="fill:#fff;opacity:0.6000000238418579;isolation:isolate"/></g><g style="opacity:0.6000000238418579"><path d="M101.73,83.52c0,2-2.32,3.71-5.18,3.71s-5.18-1.7-5.18-3.71,2.33-3.7,5.18-3.7S101.73,81.41,101.73,83.52Z" style="fill:#fff;opacity:0.6000000238418579;isolation:isolate"/></g><path d="M103.53,83.73c-.11,0-.11,0-.21-.1a1.18,1.18,0,0,0-1.8,0,.33.33,0,0,1-.42,0,.31.31,0,0,1,0-.42,1.79,1.79,0,0,1,2.64,0,.31.31,0,0,1,0,.42C103.74,83.73,103.63,83.73,103.53,83.73Z" style="fill:#fff"/><path d="M91.9,83h-.11a16.52,16.52,0,0,0-7.08-2,.28.28,0,0,1-.32-.31.28.28,0,0,1,.32-.32,15.53,15.53,0,0,1,7.4,2c.11.1.21.32.11.42S92,83,91.9,83Z" style="fill:#fff"/><path d="M112.73,84c-.11,0-.21,0-.21-.11-.64-.74-2.54-1.06-3.28-1.16a.35.35,0,0,1-.32-.32.34.34,0,0,1,.32-.32c.1,0,2.75.32,3.7,1.38a.33.33,0,0,1,0,.42A.33.33,0,0,1,112.73,84Z" style="fill:#fff"/><path d="M142.86,291.34c-1.38.43-2.75.85-4.23,1.27a4.93,4.93,0,0,1-.74.21A115.88,115.88,0,0,1,109.45,297h-.74a92.09,92.09,0,0,1-13.32-.63c-.32,0-.53-.11-.85-.11a111.35,111.35,0,0,1-14.48-2.54c-.21-.1-.53-.1-.74-.21-2.54-.64-5-1.38-7.51-2.12,0,0-9.83-45.71-2.85-68.78,4.33-14.49,13.32-30.89,13.32-30.89,17,5.6,28.86,5.71,36.58,4.44.32,0,.53-.11.85-.11,7.5-1.48,10.67-4.23,10.67-4.23a112.15,112.15,0,0,1,5.71,18.84c.11.21.11.53.21.74,1.06,4.55,1.91,9.2,2.65,14,0,.32.1.53.1.85.64,4.55,1.27,9.1,1.69,13.65a1.34,1.34,0,0,0,.11.64c.21,2.11.42,4.23.53,6.35a3.11,3.11,0,0,0,.1.95c.22,2.22.32,4.34.43,6.45v.85c.21,4.13.42,8,.53,11.64v1.16C143.28,281.82,142.86,291.34,142.86,291.34Z" style="fill:#c04d3a"/><path d="M136.52,211.35c-4.34-1.38-9.1-1.91-12.8-4.24-2.53-1.58-4.75-4.12-5.07-7.19a8,8,0,0,1,.42-3.6c.32,0,.53-.1.85-.1a7.56,7.56,0,0,0,.21,6.24c3.06,5.92,10.36,6.67,16.28,8.36A1.24,1.24,0,0,1,136.52,211.35Z" style="fill:#7e231a"/><path d="M139.26,226.06c-.63-.22-1.16-.53-1.79-.75-9.62-4.55-16.6-13.12-25-19.57s-19.77-11.53-29.92-6.35c-.43.21-.85-.42-.43-.63a22.79,22.79,0,0,1,16.07-1.38c10.26,2.65,17.87,10.48,25.59,17.35,4.12,3.6,8.35,7.2,13.32,9.74a14.31,14.31,0,0,0,1.9.84A1.93,1.93,0,0,1,139.26,226.06Z" style="fill:#7e231a"/><path d="M141,239.71c-8.46.21-16.5-5.3-22.42-11-7.4-7.19-13.85-16-23.68-20.21-5-2.12-10.68-2.86-15.86-1.16v.1c-.1.21-.21.53-.32.74,10.89-4,21.47,3,29,10.27s14,16,23.79,20a23.41,23.41,0,0,0,9.73,1.9C141.06,240.23,141.06,240,141,239.71Z" style="fill:#7e231a"/><path d="M141.7,247.75a21.42,21.42,0,0,0-14.7-4.34c-3.07.21-6.66,1.27-8.35,4-1.91,3.07.32,6.56-.21,9.95-.43,2.75-2.75,4.65-5.08,6.13-2.85,1.8-5.92,3.28-8.67,5.4A22.36,22.36,0,0,0,98,277a16.12,16.12,0,0,0-1.37,5.51,34.38,34.38,0,0,0,.42,5.71,12.77,12.77,0,0,1-1.8,8.15c-.31,0-.53-.11-.84-.11a5.87,5.87,0,0,0,1-1.8c1.9-4.23,0-8.78.53-13.22.84-7,6.34-12.07,12-15.56,2.75-1.69,6-3,8.14-5.5a6.19,6.19,0,0,0,1.37-4.87,31.08,31.08,0,0,1-.63-5.5c.53-6.24,8.78-7.51,13.75-7.09a23.09,23.09,0,0,1,10.67,4A1.25,1.25,0,0,1,141.7,247.75Z" style="fill:#7e231a"/><path d="M141.17,270.6a29.71,29.71,0,0,0-2.75,21.27c.1.21.1.53.21.74a6.28,6.28,0,0,1-.74.22,29.94,29.94,0,0,1-.74-13.34,31.53,31.53,0,0,1,5.5-12.8v1.16C142.22,268.8,141.7,269.65,141.17,270.6Z" style="fill:#7e231a"/><path d="M142.22,255.05c-4-.53-8.35.1-10.14,4.23-1,2-.85,4.34-1.48,6.46a10.56,10.56,0,0,1-3.18,4.86c-3.27,2.86-7.5,4-11.1,6.25A15,15,0,0,0,109.45,288a31.86,31.86,0,0,0,.11,9h-.74a30.24,30.24,0,0,1,.1-10.69,15.65,15.65,0,0,1,7.3-10.37c4.12-2.43,9.41-3.59,12.37-7.72,2.64-3.7,1.16-9,5-12.06,2.53-2,5.6-2.33,8.66-2Z" style="fill:#7e231a"/><path d="M103.21,246.37c-.42-3.17-2.32-5.82-3.7-8.57A12.6,12.6,0,0,1,98,233a16.36,16.36,0,0,1,1-5.5c.85-3,1.48-6-.31-8.89s-5-4.45-8.14-5.5a33.22,33.22,0,0,0-12.9-1.59c-.43,0-.43.74,0,.74a33.42,33.42,0,0,1,11.63,1.16c3.06.85,6.23,2.23,8.24,4.87,2.43,3.07,1.38,6.56.43,9.95a13.77,13.77,0,0,0-.74,4.76,13,13,0,0,0,1,4.13c1.17,2.75,3.07,5.29,3.81,8.25a10.67,10.67,0,0,1-2.54,9.42c-4.23,5.18-10.89,7.09-15.86,11.21-5.49,4.55-7.08,11.43-7.29,18.2.1.53.32,1.06.42,1.49.11,0,.21-.11.21-.32.11-7.2,1.59-14.39,7.4-19.15,5.18-4.13,12-6.14,16.07-11.64A9.94,9.94,0,0,0,103.21,246.37Z" style="fill:#7e231a"/><path d="M75.3,219.39a19.57,19.57,0,0,1,11.21,14A18.59,18.59,0,0,1,81.12,250a18.18,18.18,0,0,1-8.78,4.87.39.39,0,0,0,.21.74A20.12,20.12,0,0,0,86.3,243.73a19.66,19.66,0,0,0-10.79-25C75.09,218.54,74.88,219.18,75.3,219.39Z" style="fill:#7e231a"/><path d="M76.89,214.84A123.36,123.36,0,0,0,72,255.58a122,122,0,0,0,8.14,38.2c-.21-.11-.52-.11-.74-.21a125.32,125.32,0,0,1-5.92-20.32A124.1,124.1,0,0,1,84.92,193c.21-.32.74,0,.53.32A120.85,120.85,0,0,0,76.89,214.84Z" style="fill:#171612"/><path d="M81.12,194.21s.63-7.41,2.85-8.79c0,0,22.2,9.1,44.4-1.27,0,0,3.39,3.07,2.75,9.1C131.23,193.15,115.48,204.89,81.12,194.21Z" style="fill:#7e231a"/><path d="M85.56,101.41s-5.4,1.27-6.88,9.2c0,0-9.62,2.86-12.15,4.87s-5.71,4.23-5.5,7.62c.63,11,17.13,35.34,18.71,42s-8.46,30.47-8.46,30.47c7.3,6,18.51,8.78,33.52,8.15,0,0-2.54-64-7.3-74.39S88.31,111.14,85.56,101.41Z" style="fill:#6059c9"/><path d="M78.26,111.25A23.55,23.55,0,0,0,92.64,129c.63.21.85-.74.32-1a22.7,22.7,0,0,1-13.64-17A.54.54,0,0,0,78.26,111.25Z" style="fill:#6059c9"/><path d="M91.05,128.39a172.84,172.84,0,0,1,6.35,55c-.21,5.4-.74,10.69-1.48,16.09-.11.63,1,.95,1,.31a176.16,176.16,0,0,0-1.16-55.76c-1-5.29-2.22-10.58-3.7-15.77C91.79,127.44,90.84,127.75,91.05,128.39Z" style="fill:#6059c9"/><path d="M73.08,192.62a41.26,41.26,0,0,0,30.55,7.19c.64-.1.43-1.05-.31-.95a40.11,40.11,0,0,1-29.71-7.09C73.08,191.35,72.55,192.19,73.08,192.62Z" style="fill:#6059c9"/><path d="M103.53,103.1s1.37,11.11,2.33,18.3c1,7.73,9.93,29.74,11,44.24s4.55,34.81,4.55,34.81,11.84-.85,19.66-8.68c0,0-10.25-22-12.37-30.9s4.34-20.1,2.75-25-6.55-6.67-7-11.11,1.59-11.32-1.58-13.33-12.16-1.59-13.32-2.44C109.56,108.92,106.91,103.52,103.53,103.1Z" style="fill:#6059c9"/><path d="M123.3,118c.21,3.81.53,7.83,2.85,11.11,1.27,1.8,2.75,3.28,3.49,5.29a11.64,11.64,0,0,1,.43,6.56c-.11.63.84,1,1,.32a12.55,12.55,0,0,0-2.54-10.69c-1.37-1.9-2.64-3.49-3.28-5.82a28.68,28.68,0,0,1-.84-6.67C124.36,117.28,123.3,117.28,123.3,118Z" style="fill:#6059c9"/><path d="M109.45,111c.42,4.55.21,9.63-2.11,13.76-.32.53.52,1.06.84.53,2.43-4.23,2.75-9.52,2.33-14.18C110.51,110.4,109.45,110.29,109.45,111Z" style="fill:#6059c9"/><path d="M108.39,122.78a299.38,299.38,0,0,1,13.22,60.74c.53,4.65,1,9.31,1.37,14,.11.63,1.06.63,1.06,0-1.69-18.63-4.12-37-8.78-55.24-1.69-6.67-3.7-13.23-5.81-19.79C109.13,121.83,108.18,122.14,108.39,122.78Z" style="fill:#6059c9"/><path d="M121.61,198.54a41.39,41.39,0,0,0,17.65-8.78c.53-.42-.21-1.16-.74-.74a40.92,40.92,0,0,1-17.12,8.57C120.66,197.7,121,198.65,121.61,198.54Z" style="fill:#6059c9"/><path d="M60,124.79l-.53,3.07c-.21,1.06-.32,2-.53,3.07-.31,2-.63,4-.84,6-.53,4-1.06,8-1.48,12.17s-.74,8.25-.85,12.48c-.1,2.12-.1,4.34,0,6.56a49.27,49.27,0,0,0,.74,7.31c.11.63.32,1.37.53,2.22a19.82,19.82,0,0,0,1,2.54c.21.42.42,1.06.74,1.58a14.15,14.15,0,0,0,1.27,1.8,12.81,12.81,0,0,0,2.11,2,11.09,11.09,0,0,0,1.59,1l.21.1.11.11.32.1c.21.11.42.11.52.22a15.5,15.5,0,0,0,3.81.74,11.58,11.58,0,0,0,2.75-.11,22.43,22.43,0,0,0,4.23-.85,55.24,55.24,0,0,0,6.66-2.32c2-.85,4-1.8,5.81-2.76s3.7-1.9,5.5-3a53.61,53.61,0,0,0,5.29-3.17L104,172.2c.85-.64,1.59-1.27,2.43-1.91.43-.32.74-.63,1.17-.95.21-.21.42-.32.63-.53l.64-.53a5.73,5.73,0,0,0,.31-8.15,5.85,5.85,0,0,0-6-1.58l-.32.1a8.13,8.13,0,0,0-1.38.53c-.42.21-1,.32-1.37.53-1,.32-1.8.74-2.75,1.06-1.8.74-3.59,1.48-5.39,2.33s-3.49,1.58-5.29,2.32-3.49,1.59-5.18,2.23-3.49,1.37-5.07,1.9a31.71,31.71,0,0,1-4.76,1.27,11.52,11.52,0,0,1-1.69.21H69.7a2.13,2.13,0,0,1,.84.21c.11,0,.11,0,.21.11h.11l.21.1c.32.22.64.32,1,.53a11.08,11.08,0,0,1,1.06,1,5.2,5.2,0,0,1,.42.63.33.33,0,0,1,.11.21v-.21c0-.21-.11-.42-.11-.74a14.29,14.29,0,0,1-.1-2.12v-2.43c0-1.69.21-3.49.31-5.4.32-3.7.85-7.4,1.38-11.21s1.16-7.62,1.9-11.43c.32-1.91.64-3.81,1.06-5.71l.53-2.86.53-2.75v-.21a10,10,0,1,0-19.56-3.92C60,124.68,60,124.79,60,124.79Z" style="fill:#6059c9"/><path d="M98.45,160a8.55,8.55,0,0,0-1.48,8c1,2.54,3.39,5.08,6.24,5a.42.42,0,0,0,0-.84c-2.64.21-4.86-2.44-5.6-4.77A7.32,7.32,0,0,1,99,160.56C99.3,160.24,98.77,159.71,98.45,160Z" style="fill:#6059c9"/><path d="M76.36,153.36l2.85-20-.95-.32c-.1.64.95,1,.95.32s-.95-1-.95-.32l-2.85,20C75.3,153.78,76.25,154.1,76.36,153.36Z" style="fill:#6059c9"/><path d="M71.6,170.71c-1.06,0-2-.1-3.07-.1a.42.42,0,0,0,0,.84c1.06,0,2,.11,3.07.11A.43.43,0,0,0,71.6,170.71Z" style="fill:#6059c9"/><path d="M73.4,170.93a7.19,7.19,0,0,0-3.81,3.28c-.32.53-1.06,0-.74-.43a8.75,8.75,0,0,1,4.34-3.7C73.71,169.87,73.93,170.71,73.4,170.93Z" style="fill:#6059c9"/><path d="M118.69,131.56l-9,47.3,36.36,6.91,9-47.3Z" style="fill:#171612"/><path d="M117,131.26l-9,47.3,36.35,6.91,9-47.29Z" style="fill:#171612"/><path d="M126.15,132.94s1.48-2.65,4.13-2.12c0,0,1.06-2.64,3.59-2.64a16.35,16.35,0,0,1,6.56,1.37c1.58.74,1.58,3.28,1.58,3.28a4.89,4.89,0,0,1,2.44,1.48,3.67,3.67,0,0,1,.52,2.12Z" style="fill:#171612"/><path d="M101,166.59a6.79,6.79,0,0,0,9.09,1.9,14.87,14.87,0,0,1,5.08-2.11c3.91-.74,8.77-.43,10.68-1.27,2.75-1.38-.32-2.54-.74-2.65a45.16,45.16,0,0,0-6.35-.85s6.66-1.27,9.31-.63,4.44-.85,2.32-2.86-9.72-2.11-11.84-1.59a14.78,14.78,0,0,1,7.51-1.16c3.59.64,4.86.42,6.34,0s.11-3.17-4.86-4a16.07,16.07,0,0,0-9.41.85,27.1,27.1,0,0,1,4.44-2.86c2.85-1.48,7-.42,8.14-2s-3.49-2.75-6.34-2.12-5,.74-8.14,2.75a47.16,47.16,0,0,0-7.62,5.82c-1.58,1.7-7.93,6.88-8.24,10.27A3.41,3.41,0,0,0,101,166.59Z" style="fill:#eaad8f"/><path d="M104.06,158.33s2.75-6.45,4.65-7.83,4-4.55,5.07-3.38-1.69,5-1.69,5Z" style="fill:#eaad8f"/><path d="M601.39,451.34v.74a24.83,24.83,0,0,1-.21,2.85c-5.39.74-10.68,1.27-16,1.7h-.74c-7.62.53-15.23.84-22.73.63H561c-2.33,0-4.66-.1-7-.21h-.95c-7.19-.42-14.28-1.06-21.36-2.12a36.2,36.2,0,0,1,.11-10.26c0-.21.1-.53.1-.74,1.27-6,4.55-9.1,9.09-11.53l.64-.32a28.42,28.42,0,0,1,3.06-1.38c8.25-3.6,6.77-10.26-2.43-15.34-5.5-3.07-7.5-7.2-7.82-11.11v-.64a22.55,22.55,0,0,1,3.28-11.53l24.74.74h.74l3.17.11,19.66-.64h.85l8.25-.21a28.17,28.17,0,0,1,2.32,5,5.3,5.3,0,0,1,.21.74c1.27,4.34,1.59,10.48-3.59,15.14-.21.1-.32.31-.53.42a16.63,16.63,0,0,1-3,2,21.48,21.48,0,0,0-6.13,4.76c-.11.21-.21.32-.32.53-2.64,3.81-1.48,7.62,4,10.05C596.42,434.3,601.92,438.11,601.39,451.34Z" style="fill:#e59f3f"/><path d="M560.58,433.14c-2.32,2-5.49,2.75-8.46,3a13.34,13.34,0,0,1-9.4-2.22c-.53-.43-1.06-1-1.59-1.48l.63-.32a9.71,9.71,0,0,0,3.6,2.54,16.81,16.81,0,0,0,10.47.1c3-.84,5.6-2.54,6.34-5.71a7.82,7.82,0,0,0-3.7-8.25c-2.43-1.59-5.5-1.59-7.72-3.28a4.8,4.8,0,0,1-1.69-5.82,7.7,7.7,0,0,1,2-2.86c.84-.74,2.43-1.38,2.75-2.54.74-2.54-8.14-2.65-9.62-2.75a48.27,48.27,0,0,0-9.63.74v-.64a48,48,0,0,1,12.9-.53,31.32,31.32,0,0,1,5.29.85c1,.32,1.9.95,1.9,2s-1,1.91-2,2.54a6.93,6.93,0,0,0-3.06,4c-1.17,4.66,4.23,5.61,7.29,6.77a9.54,9.54,0,0,1,5.82,5.93A7.74,7.74,0,0,1,560.58,433.14Z" style="fill:#b56d25"/><path d="M586.91,392.29c-1.06,1.8-2.22,3.6-3.38,5.29-3.49,5-8.57,12.7-15.76,10.58-6.55-1.9-8.35-9.84-5.28-15.34h.74a10.38,10.38,0,0,0,.52,11.85A8.27,8.27,0,0,0,575,406.26c3.49-2.33,6-6.14,8.35-9.52,1-1.49,1.91-2.86,2.75-4.45Z" style="fill:#b56d25"/><path d="M597.69,397.79c-2.64,2.33-4.23,6.88-4.54,9.63a10.18,10.18,0,0,0,1,5.61c-.21.11-.32.32-.53.42a10.29,10.29,0,0,1-1.16-5.6c.21-3.07,2.11-8.15,5.07-10.69A4.82,4.82,0,0,0,597.69,397.79Z" style="fill:#b56d25"/><path d="M601.39,451.34v.74a10.83,10.83,0,0,1-4.54.42c-2.12-.32-4.55-1.59-4.87-3.91-.21-1.59.85-2.86,1.27-4.24a3.79,3.79,0,0,0-1.69-4.65c-3.28-2.23-7.61,0-11.1.31a8.72,8.72,0,0,1-8-3.28,10.93,10.93,0,0,1,2.33-15.45,10.49,10.49,0,0,1,9.62-1.16c-.1.21-.21.32-.32.53a17,17,0,0,0-2.43-.53,9.71,9.71,0,0,0-8.35,3.49c-3.91,4.66-2.75,13.34,3.49,15.45,5.18,1.8,12-3.91,16.39.95,1.58,1.8,1.27,3.71.21,5.72-.74,1.59-1.06,3.07.21,4.34a5.88,5.88,0,0,0,3.7,1.58A7.5,7.5,0,0,0,601.39,451.34Z" style="fill:#b56d25"/><path d="M585.22,456.73h-.74a25.16,25.16,0,0,0-.74-6.24c-.53-1.9-1.27-3.6-3.28-4.13a8.8,8.8,0,0,0-4.65.32c-5.92,1.48-11.74,4.87-14.06,10.79H561c2.43-6.56,9.3-10.58,16-11.64a7.69,7.69,0,0,1,4.34.32,5.15,5.15,0,0,1,2.85,3.7A20.48,20.48,0,0,1,585.22,456.73Z" style="fill:#b56d25"/><path d="M555.4,455.67a9.21,9.21,0,0,1-1.37,1.49h-.95a10,10,0,0,0,2.75-3.5c1.58-3.28,1-7.3-2.33-9.1s-7.51-.63-11,.22c-3.17.84-6.76,1.58-9.93.21a6,6,0,0,0-.74-.32c0-.21.1-.53.1-.74.11.1.21.1.32.21,2.11,1.16,4.54,1.06,6.87.74,3.7-.63,7.4-2.33,11.21-1.9,2.75.31,5.6,1.69,6.66,4.34S557.09,453.35,555.4,455.67Z" style="fill:#b56d25"/><path d="M566.4,394c15.88,0,28.76-.85,28.76-1.9s-12.88-1.9-28.76-1.9-28.76.85-28.76,1.9S550.52,394,566.4,394Z" style="fill:#1e1d12"/><path d="M569.57,384.67s-3.38-19.57,7.93-23.49c19.45-6.77,18.71-16.61,15.65-25.82,0,0,14.8,10.69,13.85,22.44s-28.13,11.95-27.7,34.07h-8.46Z" style="fill:#365f54"/><path d="M557.2,315.79a8.45,8.45,0,0,0-.21,11.32c7.93,10.26.21,14.28.21,14.28s15,4.55,22.94-3.81c6.24-6.56,3.17-21.79,3.17-21.79Z" style="fill:#365f54"/><path d="M555.61,391.87s-13.42.63-17.44-20.42.21-42.65-10.89-48.57c0,0,24.53,4.55,31.72,24.55s4.54,39.25,11.84,44.54H555.61Z" style="fill:#365f54"/><path d="M559,391.87s-11.32-11.32-1.8-29.1,11.1-43,0-47c8.35-3.92,17.13-3,26.11,0,0,0,13.64,15.45,5.71,31.74s-22.2,37.88-16.6,44.23H559Z" style="fill:#539380"/><path d="M577.08,324.15c4.54,9.52.31,20.1-4.34,28.67-4.44,8.15-9.73,16.4-10,26a18.52,18.52,0,0,0,3.91,12.81c.32.31.74-.11.53-.53-6-7.62-3.7-18.2,0-26.35,4-8.78,10.15-16.72,12.05-26.35a23.39,23.39,0,0,0-1.48-14.71C577.5,323.41,576.86,323.83,577.08,324.15Z" style="fill:#365f54"/><path d="M331.9,235.58c-.21.95-.43,1.9-.64,2.86l-.63,2.85c-.42,1.91-.95,3.81-1.38,5.61-.95,3.81-2,7.51-3.06,11.22-.53,1.9-1.16,3.7-1.69,5.61s-1.17,3.7-1.8,5.6-1.27,3.71-1.9,5.61-1.38,3.71-2.12,5.61-1.58,3.81-2.43,5.71c-.42,1-.95,1.91-1.48,3a33.22,33.22,0,0,1-1.8,3.17,13.2,13.2,0,0,1-1.27,1.8c-.21.32-.52.64-.84,1.06a7.24,7.24,0,0,1-1.27,1.27l-.21.21-.11.11-.1.1-.32.21-.32.22-.21.21a3.87,3.87,0,0,1-1.06.74c-.63.42-1.27.74-1.9,1.16-1.27.64-2.43,1.17-3.49,1.59s-2.22.74-3.28,1.06c-2.11.63-4.23,1.05-6.23,1.48s-4.13.63-6.14.84-4,.32-6,.43h-6.13a6.31,6.31,0,0,1-5.93-6.46,6.14,6.14,0,0,1,3.92-5.5l.53-.21c.21-.11.42-.11.63-.21l.63-.21c.43-.11.85-.32,1.38-.43l2.64-.84,5.29-1.7c1.69-.53,3.49-1.16,5.07-1.69a48.73,48.73,0,0,0,4.76-1.8c.74-.32,1.48-.63,2.11-.95s1.17-.64,1.7-.95a2.46,2.46,0,0,0,.53-.43l.1-.1-.1.1c-.22.21-.22.21-.32.21a2.5,2.5,0,0,0,.32-.52,17.87,17.87,0,0,0,.95-1.91c.31-.74.63-1.48,1-2.22.63-1.59,1.27-3.28,1.9-5s1.27-3.39,1.9-5.19,1.27-3.49,1.8-5.29,1.16-3.6,1.8-5.29l1.8-5.4,3.49-10.79,1.79-5.4,1-2.64c.32-.85.64-1.8,1-2.65v-.1a8.39,8.39,0,0,1,10.78-5.19A8,8,0,0,1,331.9,235.58Z" style="fill:#6059c9"/><path d="M297.85,283.72a14.66,14.66,0,0,1,7.19,2.12c.43.21.85-.42.43-.63a16,16,0,0,0-7.62-2.23C297.43,282.88,297.43,283.72,297.85,283.72Z" style="fill:#6059c9"/><path d="M412.36,455.15A1.28,1.28,0,0,0,413,455a1.87,1.87,0,0,0,1.06-2.43l-37.32-94.92a1.88,1.88,0,1,0-3.49,1.38L410.56,454A2,2,0,0,0,412.36,455.15Z" style="fill:#5a554d"/><path d="M313.4,455.15a1.72,1.72,0,0,0,1.69-1.17l37.32-94.91a1.88,1.88,0,1,0-3.49-1.38L311.6,452.61a1.86,1.86,0,0,0,1.06,2.43A2,2,0,0,0,313.4,455.15Z" style="fill:#5a554d"/><path d="M330.63,411.23a1.39,1.39,0,0,0,.63-.1l56.57-19.9a1.9,1.9,0,1,0-1.27-3.59L330,407.53a1.92,1.92,0,0,0-1.16,2.43A1.9,1.9,0,0,0,330.63,411.23Z" style="fill:#5a554d"/><path d="M395,411.23a2,2,0,0,0,1.79-1.27,2,2,0,0,0-1.16-2.43l-56.56-19.89a1.9,1.9,0,1,0-1.27,3.59l56.56,19.9A1.41,1.41,0,0,0,395,411.23Z" style="fill:#5a554d"/><path d="M342.58,455.15a1.28,1.28,0,0,0,.63-.11,1.87,1.87,0,0,0,1.06-2.43L307,357.69a1.88,1.88,0,1,0-3.49,1.38L340.78,454A2,2,0,0,0,342.58,455.15Z" style="fill:#5a554d"/><path d="M243.62,455.15a1.72,1.72,0,0,0,1.69-1.17l37.32-94.91a1.88,1.88,0,1,0-3.49-1.38l-37.32,94.92a1.86,1.86,0,0,0,1.06,2.43A2,2,0,0,0,243.62,455.15Z" style="fill:#5a554d"/><path d="M260.85,411.23a1.39,1.39,0,0,0,.63-.1l56.57-19.9a1.9,1.9,0,1,0-1.27-3.59l-56.56,19.89a1.93,1.93,0,0,0-1.17,2.43A1.9,1.9,0,0,0,260.85,411.23Z" style="fill:#5a554d"/><path d="M325.24,411.23A2,2,0,0,0,327,410a2,2,0,0,0-1.16-2.43l-56.56-19.89a1.9,1.9,0,0,0-1.27,3.59l56.56,19.9A1.43,1.43,0,0,0,325.24,411.23Z" style="fill:#5a554d"/><path d="M258.73,346.79a14.06,14.06,0,0,0,5.61,21.27c25.37,11,77.07,27.83,113.44,1.16,2-1.48,3.91-3.07,5.82-4.76.63-.63,1.27-1.16,1.9-1.8,36.58-35.76,1.59-90.26-8.88-104.75a5.78,5.78,0,0,0-7-1.91c-.53.21-.95.42-1.48.64C312.13,282,275,324.89,258.73,346.79Z" style="fill:#171612"/><path d="M383.28,281.08c6.45,13,13.64,32.48,10.68,51.43-2.54,16.4-8.46,28.35-16.18,36.82,2-1.48,3.91-3.07,5.82-4.76,6-8.68,10-19.26,12-31.85A72.32,72.32,0,0,0,394,304.89a118.85,118.85,0,0,0-9.2-24.55,146.77,146.77,0,0,0-15.12-24.23c-.53.21-.95.42-1.48.63,0,.11.11.21.11.32A144.6,144.6,0,0,1,383.28,281.08Z" style="fill:#5a554d"/><path d="M357.17,283.83s16.7,52.06,2.22,70.69c-13.11,16.93-38.59,18.09-80-1.49-5.92-2.85-8.67-5-5.28-10.26C301.34,311,328.83,285,357.17,283.83Z" style="fill:#171612"/><path d="M271.85,328.91S255.56,350,234.31,354.2l-42.92,25.71-1.27-12.49s56.67-58.83,67.24-60.1S284.74,314,284.74,314Z" style="fill:#eaad8f"/><path d="M161.47,378c3.91-.53,29.49,2.54,29.49,2.54s.11,4.86-2.53,6.77-15.23,12.38-16.6,13.44l-1.48-1.8,5-5.72s-9.62,1.27-14.28,0S148.57,381.6,146.88,379,157.56,378.54,161.47,378Z" style="fill:#171612"/><path d="M197.84,375l-6.45,4.87a9.33,9.33,0,0,1-4.65,3.81c-3.39,1.48-10.26,2-15.86,1.69-4.87-.21-12.06-3.38-12.69-5.6s8.77-2.12,12.9-3.07A77.81,77.81,0,0,0,181.77,373c3.38-1.48,10-6.77,10-6.77Z" style="fill:#eaad8f"/><path d="M275,340s-2.43,26.56-18,41.58l-20.4,46.46-8.78-3.49c9.41-23.6,14.17-94.6,20.73-98,9.4-4.87,29.18-6.14,29.18-6.14Z" style="fill:#eaad8f"/><path d="M273,321.08c-4.23.53-8.35.95-12.58,1.69-3.92.74-7.83,1.91-10.79,4.66s-3.91,7-4.86,10.9c-.95,4.44-1.9,8.88-3,13.33a.38.38,0,1,1-.74-.11q1.59-7.14,3.17-14.28c.85-3.71,1.8-7.52,4.65-10.16s6.56-4.13,10.26-4.87c4.54-.95,9.2-1.37,13.74-2C273.43,320.23,273.43,321.08,273,321.08Z" style="fill:#c6695d"/><path d="M216.34,446.26c2.22-3.28,21.57-20.32,21.57-20.32s3.7,3.18,3.38,6.46-.85,19.57-.95,21.37l-2.22-.11-1-7.61s-5.5,8-9.52,10.68-17,1.59-20.09,1.06S214.12,449.54,216.34,446.26Z" style="fill:#171612"/><path d="M241.71,416.31l-4,8.78a9.33,9.33,0,0,1-.22,5.93c-1.16,3.49-5.39,9-9.3,13-3.38,3.49-10.57,6.77-12.58,5.71s4.33-7.94,6.24-11.64a74.08,74.08,0,0,0,4.33-10.48c1.16-3.59,5.18-14.49,5.18-14.49Z" style="fill:#eaad8f"/><path d="M262.33,307.22c7.51,3.17,10.68,10.58,11.84,18.51.11.53.11,1.06.21,1.7,1.38,11.95-1.58,24.33-1.58,24.33,2.11,1,4.33,1.91,6.76,2.86.21.11.53.21.74.32,3.39,1.27,7,2.43,10.79,3.6.31.1.53.1.84.21a179.63,179.63,0,0,0,21.47,4.65c.42.11.74.11,1.16.22a103.73,103.73,0,0,0,23.89,1.05,2.48,2.48,0,0,0,.85-.1,44.65,44.65,0,0,0,8.14-1.59,2.41,2.41,0,0,1,.84-.21c4-1.38,7.09-3.49,8.78-6.35a49.41,49.41,0,0,0,5.5-14.07c.1-.32.1-.64.21-1a65.7,65.7,0,0,0,1.16-8.67v-.85a68.76,68.76,0,0,0-.21-10.58,2.48,2.48,0,0,0-.1-.85A59.3,59.3,0,0,0,361.71,310,70.79,70.79,0,0,1,332,307.11a2.36,2.36,0,0,0-.84-.21,83.24,83.24,0,0,1-11.63-5,11.9,11.9,0,0,1-3,2.53,4.84,4.84,0,0,1-.74.43,27.27,27.27,0,0,1-3.49,1.69c-.21.11-.53.21-.74.32a45.33,45.33,0,0,1-14.7,2.33c-2,0-4.12,0-6.24-.11h-1c-2.32-.11-4.65-.11-7-.32a7.42,7.42,0,0,1-1.48-.1C271.1,308.06,262.33,307.22,262.33,307.22Z" style="fill:#c04d3a"/><path d="M347.33,362.77a2.41,2.41,0,0,1,.85-.21A25,25,0,0,1,353,348.91a20.67,20.67,0,0,1,9.41-6.77c.11-.32.11-.64.21-1a21.55,21.55,0,0,0-13,11.85A29.25,29.25,0,0,0,347.33,362.77Z" style="fill:#7e231a"/><path d="M281.25,308.59a27.42,27.42,0,0,1,8.57,11.22c2.75,6.35,4,13.33,7.61,19.36,3.17,5.29,8.25,9,14.49,9.1,3.7,0,7.4-.74,11.1-.1a17.18,17.18,0,0,1,8.45,4.44,25.77,25.77,0,0,1,6.88,12,2.21,2.21,0,0,0,.84-.11c-1.37-4.87-3.59-9.42-7.5-12.8a17.26,17.26,0,0,0-7.72-4.13c-3.6-.84-7.19-.21-10.79-.1a15.81,15.81,0,0,1-10.36-3.07,23.35,23.35,0,0,1-6.55-8.79c-3-6.45-4.13-13.54-7.72-19.78a25.46,25.46,0,0,0-5.92-7A3.14,3.14,0,0,0,281.25,308.59Z" style="fill:#7e231a"/><path d="M274.17,325.73c.11.53.11,1.06.21,1.7a33.48,33.48,0,0,1,5.08,11.21,34.92,34.92,0,0,1,.1,15.88c.21.1.53.21.74.31a35.8,35.8,0,0,0-.1-16.72A36.65,36.65,0,0,0,274.17,325.73Z" style="fill:#7e231a"/><path d="M291.09,358.43c.31.11.53.11.84.21a6,6,0,0,1,1.69-4.55c1.59-1.37,3.92-1.27,5.82-.84,6,1.16,10.36,5.29,14,10.05.42.1.74.1,1.16.21a34.8,34.8,0,0,0-3.6-4.23,24.07,24.07,0,0,0-9.41-6.14c-2.74-.85-6.45-1.48-8.67.74A5.79,5.79,0,0,0,291.09,358.43Z" style="fill:#7e231a"/><path d="M289.71,308.91c1.69,2.33,3.39,4.55,5.08,6.77A83.2,83.2,0,0,0,306,328.06c2.75,2.22,8.57,6,11.85,2.65a6.84,6.84,0,0,0,1.37-5.08,41.42,41.42,0,0,0-1.37-7.2,45.18,45.18,0,0,0-5.4-11.95c-.21.1-.52.21-.74.31a43.52,43.52,0,0,1,5.61,12.81c.84,3.38,3.17,11.74-2.75,11.64-4.87-.11-9.09-4.45-12.16-7.73A138.77,138.77,0,0,1,290.77,309,4.18,4.18,0,0,0,289.71,308.91Z" style="fill:#7e231a"/><path d="M315.83,304.78a30.61,30.61,0,0,1,7.82,12.91c1.59,5.08,1.38,10.79,4,15.56a12.52,12.52,0,0,0,11.95,6.24c5.18-.42,9.62-3.7,14.37-5.61a22.44,22.44,0,0,1,9.84-1.27v-.84a21,21,0,0,0-9.52,1.16c-5,1.8-9.41,5.29-14.8,5.71-6.13.53-10.89-3.7-12.58-9.31-.74-2.75-1.06-5.5-1.69-8.36a35.49,35.49,0,0,0-2.33-7.19,28.61,28.61,0,0,0-6.45-9.42A6.13,6.13,0,0,0,315.83,304.78Z" style="fill:#7e231a"/><path d="M331.16,306.79a12.73,12.73,0,0,0,2,7c3.91,6.35,12.05,9.31,19.24,9.41a28.7,28.7,0,0,0,11.21-2,2.21,2.21,0,0,0-.11-.84,28,28,0,0,1-15.86,1.58,22.61,22.61,0,0,1-12.16-6.34A12.79,12.79,0,0,1,331.9,307,2.49,2.49,0,0,1,331.16,306.79Z" style="fill:#7e231a"/><path d="M330.1,216.11c5.29,1.8,25.16,6,40.39,0,.74-3.49,1.37-6.56,1.79-7.73,2.33-8.25,6.14-31.74-10.88-36.29s-31.51,5.29-29.61,21.27C332.32,197.59,331.37,207.54,330.1,216.11Z" style="fill:#e59f3f"/><path d="M380.53,244.57c-.21,1.27-2.11,3.81-4.23,7.2-.31.42-.63.95-.95,1.48-.1.21-.32.42-.42.63-5.5,9-13.64,22.23-16.81,32.07a29.59,29.59,0,0,0-1.27,5.39,206.28,206.28,0,0,0-1.16,27.3c-39.55.64-49.17-10.15-49.17-10.15s5.92-7.83,6.66-12.6c.64-3.7,1-3.07,2.12-7.51a3.27,3.27,0,0,0,.21-1.06,38.92,38.92,0,0,0,.95-4.55,31.3,31.3,0,0,0,.74-8.36,10.15,10.15,0,0,0-.21-1.8,2.12,2.12,0,0,0-.21-.74,83,83,0,0,0-2.75-8l-.32-.95a23.2,23.2,0,0,1-.74-2.43c-.1-.22-.1-.53-.21-.75a16.42,16.42,0,0,1-.53-3.91,5.44,5.44,0,0,1,.11-1.38c0-.21.1-.53.1-.74a12.62,12.62,0,0,1,1.8-4.55c0-.1.11-.1.11-.21s.21-.32.31-.53.11-.21.22-.31a48.29,48.29,0,0,1,4.75-5.19c.95-1.16,1.06-3,.95-5a41,41,0,0,1,.11-6.25c0-.31.11-.53.11-.84s.1-.64.21-1a6.74,6.74,0,0,1,1.37-2.64c.21-.21.43-.42.64-.64,1.69-1.37,4.12-1.27,7-1.37a13.42,13.42,0,0,0,2.75-.42l.95-.32a31.34,31.34,0,0,0,5.93-2.54l19.45-1.59s.74,2.12,4.65,4.76c.21.11.42.32.64.43a41.8,41.8,0,0,0,6.87,3.49c.84.32,1.48.63,2.22.95a7.26,7.26,0,0,1,.84.42c3.18,1.8,5,3.71,5.82,5.82.1.32.21.53.32.85a4.28,4.28,0,0,1,.31,1.59c0,.31.11.53.11.84A19.37,19.37,0,0,1,380.53,244.57Z" style="fill:#fff"/><path d="M329.36,243.3c-.63,3.5-3.59,5.72-6.87,6.56a16.17,16.17,0,0,1-8.14-.53c0-.1.1-.1.1-.21s.21-.31.32-.53a14.66,14.66,0,0,0,6.77.64c3.49-.64,6.76-2.86,7.08-6.67s-2-7.19-4.86-9.1a16.81,16.81,0,0,0-3.07-1.58c0-.32.11-.53.11-.85a15,15,0,0,1,4.54,2.64C328.2,236,330.1,239.71,329.36,243.3Z" style="fill:#dbccc1"/><path d="M380.53,237.38c-1.58-.11-3.17-.21-4.76-.21a39.86,39.86,0,0,0-20.08,6.13c-6.14,3.71-11.63,8.47-17.45,12.81-5.07,3.81-10.78,7.93-17.34,8.67a16.13,16.13,0,0,1-6.76-.74c-.11-.31-.22-.63-.32-1,4.12,1.59,9.2,1,13.21-.85,6.35-2.85,11.85-7.51,17.34-11.74,5.18-4,10.47-7.94,16.39-10.69a39.71,39.71,0,0,1,19.14-3.28h.21A2.06,2.06,0,0,1,380.53,237.38Z" style="fill:#dbccc1"/><path d="M331.37,277.48a58.84,58.84,0,0,1-16.07,11.11,3.21,3.21,0,0,0,.21-1.06,65.42,65.42,0,0,0,6.66-3.81,55.83,55.83,0,0,0,5.71-4.23c1.59-1.37,4.23-3.17,4.55-5.39.63-4.87-10.15-2.65-12.69-2a25.47,25.47,0,0,0-2.75.74,2,2,0,0,0-.21-.74,21,21,0,0,1,2.54-.64,55.78,55.78,0,0,1,5.81-.95,15.81,15.81,0,0,1,5.5.21,3.41,3.41,0,0,1,2.54,2.75C333.48,275.05,332.43,276.42,331.37,277.48Z" style="fill:#dbccc1"/><path d="M355.26,286.48c-3.17-1.7-6.76-.32-9.51,1.58a33.9,33.9,0,0,0-7.93,7.09,37.37,37.37,0,0,0-8.35,19.16c-.11.52.74.52.74,0a36.92,36.92,0,0,1,7.4-17.68,37.94,37.94,0,0,1,6.87-6.77c2.75-2.11,6.77-4.55,10.25-2.64C355.37,287.43,355.79,286.69,355.26,286.48Z" style="fill:#dbccc1"/><path d="M322.17,300.87c1.69-5,3.7-9.95,7-14.18a24.08,24.08,0,0,1,5.71-5.19,23.79,23.79,0,0,1,7.08-2.64c4-.95,8.88-2.12,10.26-6.56.74-2.33.31-4.87.53-7.3a10.88,10.88,0,0,1,2.53-6.35,7.14,7.14,0,0,1,6.45-2.65,6.17,6.17,0,0,1,5.18,4.23c.11.53.95.32.74-.21-.95-3.49-4.86-5.39-8.24-4.76-4.23.74-6.77,5-7.3,9-.42,3,.53,6.35-1.06,9.1-1.48,2.33-4.23,3.5-6.76,4.24s-5.39,1.16-7.93,2.33a21.77,21.77,0,0,0-5.92,4.33c-4.34,4.55-6.87,10.48-8.78,16.3C321.22,301.18,322.06,301.4,322.17,300.87Z" style="fill:#dbccc1"/><path d="M371.44,248.17a6.69,6.69,0,0,0,3.91,5.08c-.1.21-.32.42-.42.63a7.63,7.63,0,0,1-4.34-6.56,8.47,8.47,0,0,1,10.26-8.46c0,.32.1.53.1.85C376,238.54,370.7,242.67,371.44,248.17Z" style="fill:#dbccc1"/><path d="M374.4,230.71a31.78,31.78,0,0,1-6.24,2.54c-2.11.64-5.92,1.38-6.13-1.9a10.72,10.72,0,0,1,1.69-6c.21.11.42.32.64.43a13.68,13.68,0,0,0-.64,1.37c-.53,1.27-1.48,3.6-.74,5s3.07.84,4.34.53a28.5,28.5,0,0,0,4.22-1.49l1.91-.95A8.26,8.26,0,0,0,374.4,230.71Z" style="fill:#dbccc1"/><path d="M333.8,224.79c-1.16,2.43-2.43,4.55-5.18,5.18-2.43.53-4.44-.63-6.13-2.54l.63-.63c1.91,2.11,4.23,3.38,6.87,1.69a9.83,9.83,0,0,0,2.86-3.39A3.2,3.2,0,0,1,333.8,224.79Z" style="fill:#dbccc1"/><path d="M334.75,232.09a3.28,3.28,0,0,0,1.48,3.81c1.8,1.16,4.34.95,6.35.95a38.33,38.33,0,0,0,14.16-3.18c.43-.21.11-.84-.42-.74a39.13,39.13,0,0,1-11,2.86,32.8,32.8,0,0,1-5.6.21c-2-.1-5.18-1.06-4.33-3.7C335.7,231.77,334.86,231.56,334.75,232.09Z" style="fill:#dbccc1"/><path d="M369.75,256A139.07,139.07,0,0,0,350,302.67c-.11.52.63.74.74.21a139.16,139.16,0,0,1,19.66-46.46C370.7,256,370.06,255.58,369.75,256Z" style="fill:#dbccc1"/><path d="M336.44,193.57a3,3,0,0,0-2.85,2.33c-.74,2.54-.21,7,2.54,6.88S336.44,193.57,336.44,193.57Z" style="fill:#c6695d"/><path d="M334.75,207a3.56,3.56,0,1,1,3.91-3.18A3.55,3.55,0,0,1,334.75,207Zm.64-6a2.5,2.5,0,1,0,2.22,2.75A2.43,2.43,0,0,0,335.39,201Z" style="fill:#fff"/><path d="M360.66,225.1s-4.55,6-12.27,6c-9.73-.1-10.25-4.44-10.25-4.44a16.67,16.67,0,0,0,1.37-3.81c.11-.53.21-1.06.32-1.59.21-1.48.42-3.17.53-5.08a6.33,6.33,0,0,1,.1-1.37v-.11c6.87-.53,12.69-2.64,17.23-7l1.06-.42.74-.32.11.42-.32,1.17C357.69,214.2,358.22,219.18,360.66,225.1Z" style="fill:#eaad8f"/><path d="M352.3,212.09c-1.9,3-6,8-12.37,9.2.21-1.48.43-3.17.53-5.08a5.76,5.76,0,0,1,.11-1.37c.1,0,.21.1.42.1C344.48,215.58,348.6,214.31,352.3,212.09Z" style="fill:#171612"/><path d="M369,198.65c-.32,3.6-3.81,7.83-8.57,7.51h-.1c-.11.21-.21.43-.32.64a.39.39,0,0,1-.1.21c-3.49,5.92-12.59,8.68-17.34,8.36a11.8,11.8,0,0,1-3.18-.74c-5-1.59-5.28-8.47-4-13.55.21-.74.42-1.48.63-2.11v-.11s-1.06-7.41-1.16-10.58c-.21-6.24,3.91-12.17,17.44-12.17s16.07,8.68,16.6,13.23c.11.74-.42,5.18-1.27,5.82A3.47,3.47,0,0,1,369,198.65Z" style="fill:#eaad8f"/><path d="M337.61,197.17c.1,1.06.53,1.8,1.05,1.8s1-.85.85-1.91-.53-1.8-1.06-1.8S337.5,196.11,337.61,197.17Z" style="fill:#171612"/><path d="M341.1,196.22a.1.1,0,0,0,.1-.11.26.26,0,0,0-.1-.42c-.11-.11-2.54-1.8-4.66-.32-.1.1-.1.21-.1.42s.21.11.42.11a3.51,3.51,0,0,1,4,.32Z" style="fill:#171612"/><path d="M346.49,196.74c.1,1.06.53,1.8,1.06,1.8s.95-.84.84-1.9-.53-1.8-1.06-1.8S346.38,195.79,346.49,196.74Z" style="fill:#171612"/><path d="M350.4,196.22c.11,0,.11,0,.11-.11a.33.33,0,0,0,0-.42,4.39,4.39,0,0,0-4.66-.85c-.1.11-.21.21-.1.32s.21.21.31.1c2-1,4,.74,4,.74C350.19,196.22,350.29,196.22,350.4,196.22Z" style="fill:#171612"/><path d="M341.2,207.11h.53a4.35,4.35,0,0,0,2.85-1.69c.22-.21.11-.53-.1-.74s-.53-.1-.74.11a3.61,3.61,0,0,1-2.12,1.37,1.7,1.7,0,0,1-1.69-.63.6.6,0,0,0-.74-.21.61.61,0,0,0-.21.74A3.39,3.39,0,0,0,341.2,207.11Z" style="fill:#c6695d"/><path d="M360.23,203.2c.21,0,.43-.11.43-.32.95-3.38,5.18-4.44,5.18-4.44a.51.51,0,0,0,.31-.64.5.5,0,0,0-.63-.31c-.21,0-4.76,1.27-5.92,5.18-.11.21.1.53.32.64A.78.78,0,0,1,360.23,203.2Z" style="fill:#c6695d"/><path d="M364.67,201.72h.21a.52.52,0,0,0,.22-.64,3.33,3.33,0,0,0-2.86-1.69.48.48,0,1,0-.1,1,2.67,2.67,0,0,1,2,1.17A.85.85,0,0,0,364.67,201.72Z" style="fill:#c6695d"/><g style="opacity:0.5"><g style="opacity:0.5"><g style="opacity:0.5"><g style="opacity:0.5"><g style="opacity:0.5"><g style="opacity:0.5"><g style="opacity:0.5"><g style="opacity:0.5"><g style="opacity:0.5"><g style="opacity:0.5"><path d="M338.24,200.34c-.1.53-1.27.85-2.85.74.21-.74.42-1.48.63-2.11C337.29,199.28,338.24,199.81,338.24,200.34Z" style="fill:#c6695d;opacity:0.5;isolation:isolate"/></g></g></g></g></g></g></g></g></g></g><g style="opacity:0.5"><g style="opacity:0.5"><g style="opacity:0.5"><g style="opacity:0.5"><g style="opacity:0.5"><g style="opacity:0.5"><g style="opacity:0.5"><g style="opacity:0.5"><g style="opacity:0.5"><g style="opacity:0.5"><path d="M346.59,201.19c-.1.63,1.38,1.27,3.28,1.48s3.49-.11,3.49-.74-1.37-1.27-3.28-1.48S346.59,200.55,346.59,201.19Z" style="fill:#c6695d;opacity:0.5;isolation:isolate"/></g></g></g></g></g></g></g></g></g></g><path d="M360.44,206.16h-.1c-.11.21-.21.43-.32.64a.39.39,0,0,1-.1.21,5.36,5.36,0,0,1-1.8-.85,3.27,3.27,0,0,1-.85-1.16.53.53,0,0,1,.21-.64.52.52,0,0,1,.64.22,2.87,2.87,0,0,0,1.05,1.16,1.43,1.43,0,0,0,.85.32A.64.64,0,0,1,360.44,206.16Z" style="fill:#c6695d"/><path d="M359.28,205.84a3.65,3.65,0,0,0,1.06.22,2.5,2.5,0,0,0,5,.53,2.57,2.57,0,0,0-1.91-2.76.7.7,0,0,1,.11-1.05,3.52,3.52,0,0,1,2.75,3.91,3.56,3.56,0,1,1-7.08-.74C359.28,206.06,359.28,206,359.28,205.84Z" style="fill:#fff"/><path d="M342.26,209.44a2.12,2.12,0,0,0,1.16-.53.3.3,0,1,0-.42-.42,1.44,1.44,0,0,1-1.48.21c-.21-.1-.32,0-.42.21s0,.32.21.43A3,3,0,0,0,342.26,209.44Z" style="fill:#c6695d"/><path d="M365.84,181.4c-2.65-3.28-6.45-6-11.32-6.14-6.87-.21-13.32,1.59-17.12,5a9.7,9.7,0,0,0-3.39,5.92c-1.06,7,.64,5.82.64,5.82a14.68,14.68,0,0,1,.31-1.69c.22-.85.53-2.22,1.17-4.34,1.37-5,17.55-4.13,16.28-.95a4.6,4.6,0,0,0-.11,1.06,9.54,9.54,0,0,0,.43,2.64c.1,0,.21.11.31.11A14.86,14.86,0,0,1,357,190.5c.11.11,2.44,2.12,1.8,4.66s-1.9,6,0,5.5A4.46,4.46,0,0,0,361.4,198a8.69,8.69,0,0,1,4.12-2.64C366.68,190.71,367.32,186,365.84,181.4Z" style="fill:#e59f3f"/><path d="M366.58,184.47c-4.66-2.12-12.8.74-14.28,1.38a9.54,9.54,0,0,0,.43,2.64c.1,0,.21.11.31.11a14.86,14.86,0,0,1,3.91,1.69c.11.11,2.44,2.12,1.8,4.66s-4.33,16.5-1.8,19c5.19,5,5.19-16.08,5.19-16.08,1.05-1.06,1.58-2.22,3.48-2.65C367.84,191.67,367.53,188.07,366.58,184.47Z" style="fill:#e59f3f"/><path d="M365.52,184.15s2.54,4.45.21,11.22c0,0,2.43-.42,3.49.1s2.64-3.49,1.8-7.3-5.71-8.88-5.71-8.88S364.57,182.78,365.52,184.15Z" style="fill:#e59f3f"/><path d="M341.2,202.35c-.1,0-.1,0-.21-.1l-1.8-1.27a.57.57,0,0,1-.21-.43c0-.1.11-.31.21-.31a6.31,6.31,0,0,0,3.17-3.92.44.44,0,0,1,.85.21,7.26,7.26,0,0,1-3,4.13l1.16.85a.38.38,0,0,1,.11.53A.33.33,0,0,1,341.2,202.35Z" style="fill:#c6695d"/><path d="M346.59,192.19a1,1,0,0,1-1.27-1.48,3.3,3.3,0,0,1,1.8-1.05,7.4,7.4,0,0,1,6.24,1.69s-3.81-.32-5.6.32A2,2,0,0,0,346.59,192.19Z" style="fill:#171612"/><path d="M340.46,192.41a1,1,0,0,0,1.27-1.49,3,3,0,0,0-1.8-.95c-3.7-.63-4.86,1.8-4.86,1.8a13.5,13.5,0,0,1,4.44.21A4.12,4.12,0,0,1,340.46,192.41Z" style="fill:#171612"/><g style="opacity:0.6000000238418579"><path d="M332,198.12c-.1,1.9,2,3.49,4.66,3.6s4.86-1.38,4.86-3.28-2-3.49-4.65-3.6S332.11,196.22,332,198.12Z" style="fill:#fff;opacity:0.6000000238418579;isolation:isolate"/></g><g style="opacity:0.6000000238418579"><path d="M343,198.23c-.11,2,2.22,3.81,5.07,3.91s5.29-1.48,5.29-3.49-2.22-3.81-5.08-3.92S343.1,196.22,343,198.23Z" style="fill:#fff;opacity:0.6000000238418579;isolation:isolate"/></g><path d="M341.1,198.54c.1,0,.1,0,.21-.1a1.24,1.24,0,0,1,1.79,0,.3.3,0,0,0,.43-.43,1.89,1.89,0,0,0-2.65-.1.33.33,0,0,0,0,.42Z" style="fill:#fff"/><path d="M352.73,198.23h.21a15.56,15.56,0,0,1,7.19-1.7.27.27,0,0,0,.31-.31c0-.22-.1-.32-.31-.32a15.93,15.93,0,0,0-7.51,1.8c-.11.1-.21.31-.11.42S352.62,198.12,352.73,198.23Z" style="fill:#fff"/><path d="M332,198.33c.11,0,.21,0,.21-.1.64-.74,2.54-1.06,3.28-1.06a.32.32,0,0,0,0-.64c-.1,0-2.75.21-3.7,1.27a.35.35,0,0,0,0,.43C331.9,198.33,331.9,198.33,332,198.33Z" style="fill:#fff"/><path d="M358.43,216.74s5.29,1.49,6.56,9.42c0,0,9.52,3.18,11.95,5.4s5.49,4.44,5.18,7.83c-1.06,11-18.4,34.71-20.3,41.27S369.43,313,369.43,313c-8.25,8.36-22,9.73-34.15,6.66,0,0,5-65.39,10.15-75.55S355.26,226.48,358.43,216.74Z" style="fill:#6059c9"/><path d="M365.41,226.9a23.61,23.61,0,0,1-15,17.25c-.63.21-.85-.74-.21-1a22.78,22.78,0,0,0,14.27-16.51C364.57,226,365.52,226.27,365.41,226.9Z" style="fill:#6059c9"/><path d="M352,243.83a168.82,168.82,0,0,0-8.36,54.71c0,5.4.32,10.69.85,16.08.1.64-1,.85-1,.21a176.21,176.21,0,0,1,3.17-55.76c1.16-5.29,2.64-10.48,4.33-15.66C351.25,242.88,352.2,243.2,352,243.83Z" style="fill:#6059c9"/><path d="M367.84,309.12a42.37,42.37,0,0,1-31.71,6.24c-.64-.1-.32-1.16.31-1.05a41.81,41.81,0,0,0,30.88-6.14A.54.54,0,1,1,367.84,309.12Z" style="fill:#6059c9"/><path d="M340.46,217.8s-1.8,11-3.06,18.2c-1.38,7.73-11.11,29.31-12.69,43.81s-5.82,34.6-5.82,34.6-11.84-1.27-19.24-9.42c0,0,11.1-21.58,13.53-30.37s-3.59-20.31-1.79-25.07,6.76-6.46,7.4-10.8-1.17-11.32,2.11-13.33,12.16-1.06,13.32-2C334.22,223.41,337.08,218.12,340.46,217.8Z" style="fill:#6059c9"/><path d="M318.47,232.51a42.83,42.83,0,0,1-1.16,6.35,21.68,21.68,0,0,1-3.17,5.92c-2.33,3.6-3.92,7.2-3,11.54.52,2.22,1.37,4.44,1.9,6.67a31.06,31.06,0,0,1,.63,7,29,29,0,0,1-3.8,13.54c-.21.43.42.85.63.43a30.21,30.21,0,0,0,3.81-12.38c.42-4.77-.64-9.1-1.91-13.65-.74-2.54-1.16-5-.31-7.52a26.52,26.52,0,0,1,3.27-6.13,21.59,21.59,0,0,0,2.75-5.72c.53-2,.85-4.13,1.17-6.14C319.32,232,318.58,232,318.47,232.51Z" style="fill:#6059c9"/><path d="M334.12,225.53c-.64,4.55-.53,9.63,1.69,13.75.32.64-.63,1.06-.95.53-2.33-4.34-2.43-9.52-1.8-14.28C333.27,224.79,334.22,224.79,334.12,225.53Z" style="fill:#6059c9"/><path d="M334.86,237.27a303.71,303.71,0,0,0-15.44,60.21c-.63,4.66-1.27,9.21-1.9,13.86-.11.64-1.16.64-1.06,0,2.43-18.52,5.5-36.93,10.89-54.81,2-6.56,4.12-13.12,6.56-19.58A.5.5,0,0,1,334.86,237.27Z" style="fill:#6059c9"/><path d="M318.79,312.51a42.27,42.27,0,0,1-17.34-9.42c-.53-.42.32-1.16.74-.74a40.9,40.9,0,0,0,16.81,9.2A.49.49,0,1,1,318.79,312.51Z" style="fill:#6059c9"/><path d="M323.44,316.32l-68-6.56a.23.23,0,0,1-.21-.22l.84-8.46a.23.23,0,0,1,.21-.21l68,6.56a.23.23,0,0,1,.21.21l-.85,8.46A.23.23,0,0,1,323.44,316.32Z" style="fill:#5a554d"/><path d="M248.06,309a5.72,5.72,0,0,1-5.08-4.76l-8.14-49.2a4.68,4.68,0,0,1,5.08-5.4l30.66,3a4.7,4.7,0,0,1,4.12,3.8l10,56.19Z" style="fill:#171612"/><path d="M251.23,280.13c.74,3.17,3.59,6,6.45,6.24s4.65-2.12,3.91-5.4-3.59-6-6.45-6.24S250.49,276.85,251.23,280.13Z" style="fill:#e59f3f"/><path d="M257,279.49c.11.64.43,1.17.74,1.17s.32-.53.21-1.17-.42-1.16-.74-1.16S256.94,278.86,257,279.49Z" style="fill:#171612"/><path d="M254.29,279.28c.11.64.43,1.16.74,1.16s.32-.52.22-1.16-.43-1.16-.74-1.16S254.19,278.65,254.29,279.28Z" style="fill:#171612"/><path d="M257,283.41c2.22.21,2.22-2.22,2.22-2.33s-.1-.32-.21-.32-.21,0-.21.21,0,2.12-1.8,1.91a3.65,3.65,0,0,1-2.75-2.33c-.1-.11-.21-.21-.31-.21s-.21.1-.11.32A4.14,4.14,0,0,0,257,283.41Z" style="fill:#171612"/><path d="M274.59,256.42l9.94,55.66,3.49.32-9.94-55.66a4.6,4.6,0,0,0-4.12-3.81l-3.49-.31A4.48,4.48,0,0,1,274.59,256.42Z" style="fill:#171612"/><path d="M284.32,311.77c.42-.11.53-.32.53-.64L275,255.58c0-.32-.32-.43-.64-.43s-.42.32-.42.64l9.83,55.55A.49.49,0,0,0,284.32,311.77Z" style="fill:#5a554d"/><path d="M381.48,243.2l-.31,1L381,245l-.52,1.69c-.32,1.16-.74,2.22-1.17,3.39-.74,2.22-1.58,4.44-2.32,6.66-1.69,4.45-3.39,8.78-5.4,13.23s-4,8.68-6.44,13a73.24,73.24,0,0,1-4,6.56c-.74,1.06-1.48,2.23-2.33,3.29a40.59,40.59,0,0,1-2.85,3.38,28.71,28.71,0,0,1-4.13,3.6,2.1,2.1,0,0,1-.63.42c-.21.11-.42.32-.63.43l-.64.31-.32.21-.31.11-.64.32-.63.32a1.61,1.61,0,0,1-.64.21l-.53.21a50.42,50.42,0,0,1-8.35,2.33,67.27,67.27,0,0,1-7.61.95c-2.54.21-5,.32-7.4.32-4.86.1-9.62-.11-14.38-.43l-7.08-.63c-1.17-.11-2.33-.32-3.49-.43l-1.8-.21-.85-.1-.95-.11a6.14,6.14,0,0,1-5.07-7.09,6,6,0,0,1,5.5-5.08h.21l6.66-.63,6.66-.64c4.44-.42,8.88-1,13.11-1.58,2.11-.32,4.23-.64,6.34-1.06s4-.85,5.92-1.38a20.54,20.54,0,0,0,2.65-.84,13.86,13.86,0,0,0,2.11-1l.21-.1c.11,0,.11-.11.21-.11s.11-.1.22-.1l.1-.11h.21l.11-.11.1-.1.11-.11c.11-.1.42-.53.85-1.06a14.19,14.19,0,0,0,1.37-1.9c.53-.74.95-1.59,1.48-2.33s.95-1.69,1.48-2.64.95-1.8,1.48-2.75q2.85-5.72,5.39-11.75c1.69-4,3.39-8.15,5.08-12.28l2.43-6.24,2.43-6.14v-.1a10.14,10.14,0,0,1,13.11-5.72A10,10,0,0,1,381.48,243.2Z" style="fill:#6059c9"/><path d="M311,290.6a31.08,31.08,0,0,1,1.7,16.09c-.11.53.63.74.74.21a32.56,32.56,0,0,0-1.7-16.51C311.49,290,310.75,290.18,311,290.6Z" style="fill:#6059c9"/><path d="M345.64,288.7a12,12,0,0,0-4.76-5.5c-.42-.32-.84.42-.42.63A12.44,12.44,0,0,1,344.9,289C345.22,289.54,346,289.12,345.64,288.7Z" style="fill:#6059c9"/><path d="M340.67,283.72a6.79,6.79,0,0,1,4.55.43c.42.21.84-.43.42-.64a7.38,7.38,0,0,0-5.18-.53C339.93,283.09,340.14,283.83,340.67,283.72Z" style="fill:#6059c9"/><path d="M304.3,293.25s-7.93-2.86-13.11-2.22-6.34,2.64-6.34,2.64l1.69,9.95,18.82,2.11A15.51,15.51,0,0,0,304.3,293.25Z" style="fill:#eaad8f"/><path d="M358,248.7c-2.64,6.24-5.5,12.49-8.56,18.52a142.53,142.53,0,0,1-9.2,16c-.32.42.42.84.63.42a154.65,154.65,0,0,0,9.41-16.3c3.07-6,5.92-12.06,8.46-18.3C359,248.49,358.22,248.28,358,248.7Z" style="fill:#6059c9"/><path d="M336.76,305.1c10.57-.53,21-7.09,25.8-16.51.21-.42-.42-.84-.64-.42a30.64,30.64,0,0,1-25.05,16.19C336.34,304.36,336.34,305.1,336.76,305.1Z" style="fill:#6059c9"/><path d="M451.16,122.46l-.85,1.27-.85,1.17a28.32,28.32,0,0,1-1.69,2.32c-1,1.59-2.22,3.07-3.38,4.66-2.33,3.07-4.76,6-7.4,8.89a93.09,93.09,0,0,1-8.67,8.46,44.09,44.09,0,0,1-5.39,3.92,34.39,34.39,0,0,1-3.28,1.8,27.55,27.55,0,0,1-4.23,1.48,18.93,18.93,0,0,1-2.64.42,15.27,15.27,0,0,1-3.07-.1c-.32,0-.53-.11-.84-.11s-.53-.11-.74-.21-.53-.11-.74-.21l-.64-.21a13.86,13.86,0,0,1-2.11-1,19.62,19.62,0,0,1-3.17-2c-1-.63-1.8-1.37-2.65-2a57.65,57.65,0,0,1-4.44-4.23c-1.37-1.38-2.75-2.86-4-4.23s-2.53-2.86-3.7-4.34l-3.49-4.45c-1.16-1.48-2.32-3-3.38-4.55l-1.58-2.32-.85-1.17-.85-1.16a6,6,0,0,1,9.31-7.51l.1.1,3.7,3.92c1.27,1.27,2.54,2.54,3.7,3.81l3.81,3.81c1.27,1.27,2.54,2.43,3.81,3.7l3.8,3.49C406,137,407.28,138,408.55,139c.63.42,1.27.85,1.8,1.27s1,.63,1.48.85a.84.84,0,0,0,.31.1h-.31c-.32-.1-.43,0-.21-.1s.52-.22.95-.43a8.74,8.74,0,0,0,1.48-.95c1.05-.74,2.22-1.69,3.38-2.65s2.33-2.22,3.49-3.38,2.32-2.43,3.38-3.7c2.22-2.54,4.44-5.3,6.56-8l3.17-4.12,1.58-2.12.74-1.06.75-.95.1-.21A8.46,8.46,0,0,1,449,111.56C452.74,113.68,453.69,118.76,451.16,122.46Z" style="fill:#6059c9"/><path d="M389.52,122.15a11,11,0,0,1-8.67,7.19c-.53.11-.32.85.21.74a11.69,11.69,0,0,0,9.2-7.72C390.47,121.83,389.73,121.62,389.52,122.15Z" style="fill:#6059c9"/><path d="M411.09,141.09a35.85,35.85,0,0,0-1.48,5.92c-.11.53.74.74.74.21a28,28,0,0,1,1.48-5.92C412,140.87,411.3,140.66,411.09,141.09Z" style="fill:#6059c9"/><path d="M410.66,142a24.84,24.84,0,0,0-3,2.86c-.31.42.21.95.53.52a19,19,0,0,1,3-2.85C411.62,142.25,411,141.72,410.66,142Z" style="fill:#6059c9"/><path d="M385.39,121a8.57,8.57,0,0,0-2-10.37c-.85-.63-1.8-1.37-3-2.12-2.22-1.37-7.19-5-9.1-6.34s-3-2.76-3.8-1.27,5.39,7.83,5.39,7.83-12.69-4.77-14.8-3,2.54,3,2.54,3-5.61-.85-6.14.84,5.39,2.75,5.39,2.75-4.86-.31-5.39,1,3.07,2.11,5,2.43c0,0-4.54.21-4.65,1.69s4.12,1.06,6.87,1.38,9.31,1.27,11.32,4a6.88,6.88,0,0,0,3.06,2.22A8,8,0,0,0,385.39,121Z" style="fill:#eaad8f"/><path d="M360.34,108.92a21.82,21.82,0,0,1,6.87,1.16c.42.11.63-.53.21-.63a20.31,20.31,0,0,0-7.08-1.27C359.92,108.28,359.92,108.92,360.34,108.92Z" style="fill:#c6695d"/><path d="M359.28,112.41a18.86,18.86,0,0,1,6.34,1.16c.43.22.64-.42.22-.63a19.08,19.08,0,0,0-6.45-1.16A.32.32,0,1,0,359.28,112.41Z" style="fill:#c6695d"/><path d="M359.07,115.9a15.5,15.5,0,0,1,5.81.85c.43.1.64-.53.22-.64a16.15,16.15,0,0,0-5.93-.84C358.65,115.27,358.54,115.9,359.07,115.9Z" style="fill:#c6695d"/><path d="M372.81,108.81a15,15,0,0,0,5.82,4.76c.42.22.63-.42.21-.63a14.34,14.34,0,0,1-5.5-4.55C373,108,372.6,108.39,372.81,108.81Z" style="fill:#c6695d"/><path d="M374.19,111.35a10.52,10.52,0,0,0,4.54,10.05c.32.22.74-.31.43-.52a10.08,10.08,0,0,1-4.34-9.42C374.93,110.93,374.19,110.82,374.19,111.35Z" style="fill:#c6695d"/><path d="M367.74,108.81a8.93,8.93,0,0,0-2.33,8.47c.11.42.74.31.64-.11a8.48,8.48,0,0,1,2.11-7.83C368.48,109,368.06,108.49,367.74,108.81Z" style="fill:#c6695d"/><path d="M505.61,417.48s4.54.52,6.34,6.34,5.71,20.74,5.71,20.74l-2.12.53-2.53-5s.84,5.93-1.06,10.37-8.14,6.35-12.37,6.88-3.28-7.94-2.86-12.7,1.17-15.87,1.17-15.87Z" style="fill:#171612"/><path d="M502.33,409.43s1.8,7.09,3.38,8.05,4.34,4.33,4.44,9.62,1.27,12.6-.74,16.41-9.41,5.92-10.68,3.7.64-12.49-.53-17.25-3.7-17.56-3.7-17.56Z" style="fill:#eaad8f"/><path d="M454.43,284s.11,2.33.53,6.25c.21,2.11.43,4.76.74,7.61,1.27,12.38,3.81,30.58,8.25,44.45,6.87,21.58,31.61,75.13,31.61,75.13l7.61-5.19c-5.07-16.4-3.17-40.42-6.87-55.24s-11.21-23.17-11.21-23.17a169.44,169.44,0,0,0,1.59-37,67.18,67.18,0,0,0-2.11-12.38c0-.11-.11-.22-.11-.32h-30Z" style="fill:#eaad8f"/><path d="M471.77,337a11,11,0,0,1-8.14,1.48c-.53-.1-.74.64-.21.74a10.93,10.93,0,0,0,8.67-1.59C472.62,337.37,472.3,336.74,471.77,337Z" style="fill:#c6695d"/><path d="M455.81,299.39c3.28.52,21.46-.32,30.76-2.65a66.49,66.49,0,0,0-2.11-12.38l-29.6,5.93Z" style="fill:#c6695d"/><path d="M420.92,321.08c2.85,21.8,5.81,87.08,6.34,97.56,3,2.22,6.13,2.54,9.52,0,.74-3.07,5.28-22.22,7-34.81,1.79-13.76,9.41-39.47,1.48-52.81,2.85-9.62,5.71-18.2,7.4-27.93a119.09,119.09,0,0,0,1.79-20.42,173.32,173.32,0,0,0-1.37-20.85l-29.18-2s-1.59,10.26-2.75,23.39c-.32,3.81-.63,7.93-.85,12.16A157.87,157.87,0,0,0,420.92,321.08Z" style="fill:#eaad8f"/><path d="M416.8,444.25c2.11-3.39,20.93-21.38,20.93-21.38s3.81,3,3.7,6.35c-.21,3.18,0,19.79-.11,21.59H439l-1.27-7.62s-5.18,8.36-9.09,11.21-17.13,2.33-20.2,1.91S414.79,447.63,416.8,444.25Z" style="fill:#171612"/><path d="M437.84,413.88l-.32,8.15a9.44,9.44,0,0,1,0,6c-1.06,3.59-5.08,9.31-8.88,13.54-3.28,3.6-10.36,7.3-12.48,6.35s4-8.25,5.82-12.06a65,65,0,0,0,3.91-10.69c.95-3.6,1.16-12.17,1.16-12.17Z" style="fill:#eaad8f"/><path d="M453.17,299.91a122.09,122.09,0,0,0,1.26-17.24L421,283.2c-.31,3.81-.63,7.83-.74,11.95C420.28,295.15,431.49,298.12,453.17,299.91Z" style="fill:#c6695d"/><path d="M430.43,322.77a9.09,9.09,0,0,1-8.56-.53c-.42-.32-.85.42-.42.64a9.62,9.62,0,0,0,9.41.53C431.28,323.3,431,322.56,430.43,322.77Z" style="fill:#c6695d"/><path d="M447.56,101.83c6.66,1.9,19.56,3.6,40.07,0,.74-4.23,1.38-8.15,1.8-9.63,2-8.25,5-31.85-12.16-35.87S446,62.78,448.51,78.66C449,83,448.51,93.15,447.56,101.83Z" style="fill:#e59f3f"/><path d="M498.94,128.18c-.21,1.27-1.9,3.81-3.91,7.4-.31.53-.53,1-.84,1.48a5.38,5.38,0,0,1-.43.75c-5.18,9.2-12.79,22.64-15.64,32.59a29.71,29.71,0,0,0-1.06,5.5c-1.16,12.17,5.18,23.7,5.18,23.7-31.4,19.47-57.09,18.1-57.09,18.1s.42-10.37,6.87-30.58c1.16-3.6,2.43-8.15,3.38-12.49.11-.32.11-.64.21-1.06.32-1.59.64-3.07.85-4.55a29.9,29.9,0,0,0,.42-8.46c-.1-.64-.21-1.17-.31-1.8-.11-.21-.11-.53-.22-.74a61.65,61.65,0,0,0-3.06-7.94l-.32-1a21.36,21.36,0,0,1-.84-2.44c-.11-.21-.11-.52-.22-.74a17.14,17.14,0,0,1-.63-3.91v-1.38a1.73,1.73,0,0,1,.11-.74,12.66,12.66,0,0,1,1.58-4.65c0-.11.11-.11.11-.22s.21-.31.31-.52.11-.22.22-.32c1.58-2.33,3.49-4,4.54-5.4.85-1.16,1-3,.85-5a40.35,40.35,0,0,1-.21-6.25c0-.31.1-.52.1-.84a3.18,3.18,0,0,1,.21-1,6.89,6.89,0,0,1,1.27-2.65l.64-.63c1.69-1.49,4-1.49,6.87-1.59a14.12,14.12,0,0,0,2.75-.53l.95-.32a33.35,33.35,0,0,0,5.81-2.75l19.35-2.22s.74,2,4.76,4.55a4.42,4.42,0,0,0,.74.42,40.44,40.44,0,0,0,7,3.18c.84.31,1.58.63,2.22.84a5.9,5.9,0,0,1,.84.43c3.28,1.69,5.08,3.59,6,5.6.11.32.21.53.32.85a9.34,9.34,0,0,1,.42,1.59c0,.32.11.53.11.84A17.77,17.77,0,0,1,498.94,128.18Z" style="fill:#fff"/><path d="M447.77,128.71c-.53,3.49-3.38,5.82-6.66,6.77a15.19,15.19,0,0,1-8.14-.32c0-.11.11-.11.11-.21s.21-.32.31-.53a16.19,16.19,0,0,0,6.77.42c3.49-.74,6.66-3.17,6.87-6.88s-2.22-7.08-5.28-8.88a16.43,16.43,0,0,0-3.07-1.49c0-.31.11-.52.11-.84a15.15,15.15,0,0,1,4.65,2.54C446.29,121.51,448.3,125.11,447.77,128.71Z" style="fill:#dbccc1"/><path d="M498.73,120.88a34.23,34.23,0,0,0-4.75,0,40.79,40.79,0,0,0-19.88,6.87c-6,3.92-11.31,8.89-16.92,13.44-5,4-10.46,8.26-17,9.31a14.51,14.51,0,0,1-6.77-.53c-.1-.31-.21-.63-.31-.95,4.12,1.48,9.2.53,13.11-1.37,6.24-3.07,11.52-7.94,16.91-12.38,5-4.24,10.15-8.36,16.07-11.22a39.28,39.28,0,0,1,19-3.92h.22C498.52,120.35,498.63,120.66,498.73,120.88Z" style="fill:#dbccc1"/><path d="M451.05,162.88a56.14,56.14,0,0,1-15.65,11.64c.11-.31.11-.63.21-1.05a59,59,0,0,0,6.56-4,55,55,0,0,0,5.5-4.44c1.58-1.48,4.12-3.28,4.33-5.5.43-4.87-10.25-2.22-12.79-1.59a18.54,18.54,0,0,0-2.64.85c-.11-.21-.11-.53-.22-.74a20.6,20.6,0,0,1,2.44-.74,35,35,0,0,1,5.81-1.17,16.12,16.12,0,0,1,5.5,0,3.15,3.15,0,0,1,2.64,2.65C453.06,160.34,452.11,161.72,451.05,162.88Z" style="fill:#dbccc1"/><path d="M475.37,170.93c-3.28-1.59-6.77,0-9.41,1.9a34.12,34.12,0,0,0-7.72,7.41,37.3,37.3,0,0,0-7.61,19.36.37.37,0,1,0,.74,0,36.31,36.31,0,0,1,6.76-17.88,34.78,34.78,0,0,1,6.67-7c2.74-2.23,6.66-4.87,10.14-3.07C475.37,171.88,475.79,171.14,475.37,170.93Z" style="fill:#dbccc1"/><path d="M442.8,186.59c1.48-5.08,3.28-10.16,6.45-14.39a20.43,20.43,0,0,1,12.59-8.26c3.91-1.06,8.77-2.54,10-6.88.74-2.43.1-4.86.21-7.4a11.66,11.66,0,0,1,2.22-6.46,7.13,7.13,0,0,1,6.34-2.85,5.81,5.81,0,0,1,5.29,4,.39.39,0,1,0,.74-.22c-1.06-3.49-5-5.29-8.46-4.44-4.12.95-6.55,5.29-7,9.21-.31,3.06.85,6.35-.74,9.2-1.37,2.44-4.12,3.71-6.66,4.45s-5.39,1.37-7.82,2.64a22.22,22.22,0,0,0-5.81,4.55c-4.23,4.66-6.45,10.69-8.15,16.61C441.85,186.9,442.59,187.12,442.8,186.59Z" style="fill:#dbccc1"/><path d="M490.06,132.09a6.79,6.79,0,0,0,4.13,5,5.38,5.38,0,0,1-.43.75,7.43,7.43,0,0,1-4.54-6.35c-.42-5.72,4.76-9.63,9.94-8.89,0,.32.1.53.1.84A7.66,7.66,0,0,0,490.06,132.09Z" style="fill:#dbccc1"/><path d="M492.28,114.53a26.76,26.76,0,0,1-6.13,2.75c-2.11.63-5.81,1.58-6.24-1.7a10.53,10.53,0,0,1,1.48-6,5.38,5.38,0,0,0,.74.43c-.21.42-.42.84-.63,1.37-.53,1.27-1.37,3.6-.63,5s3.06.74,4.33.31a29.37,29.37,0,0,0,4.23-1.58l1.9-1A3.93,3.93,0,0,1,492.28,114.53Z" style="fill:#dbccc1"/><path d="M451.58,110.08c-1.06,2.44-2.33,4.66-5,5.4-2.43.63-4.55-.53-6.24-2.33l.64-.63c1.9,2.11,4.33,3.28,7,1.37a10.83,10.83,0,0,0,2.75-3.49A7.76,7.76,0,0,1,451.58,110.08Z" style="fill:#dbccc1"/><path d="M452.74,117.38a3.48,3.48,0,0,0,1.59,3.81c1.9,1.06,4.33.85,6.45.74a40.41,40.41,0,0,0,14.06-3.59c.42-.22.11-.85-.42-.64A40.29,40.29,0,0,1,463.53,121a32.29,32.29,0,0,1-5.61.42c-2,0-5.28-.84-4.44-3.59C453.69,117.07,453,116.85,452.74,117.38Z" style="fill:#dbccc1"/><path d="M488.58,140a139,139,0,0,0-18.08,47.4c-.1.53.64.74.74.21a140,140,0,0,1,18-47.19C489.54,139.92,488.9,139.5,488.58,140Z" style="fill:#dbccc1"/><path d="M453.06,78.76a2.92,2.92,0,0,0-2.75,2.43c-.74,2.54.11,7,2.75,6.78S453.06,78.76,453.06,78.76Z" style="fill:#c6695d"/><path d="M451.79,92.31A3.55,3.55,0,1,1,455.6,89,3.49,3.49,0,0,1,451.79,92.31Zm.42-6.14a2.55,2.55,0,1,0,2.33,2.75A2.57,2.57,0,0,0,452.21,86.17Z" style="fill:#fff"/><path d="M478.33,109.34s-4.34,6.24-11.95,6.46c-9.73.21-10.36-4-10.36-4a24.26,24.26,0,0,0,1.27-3.92c.1-.53.21-1.06.32-1.59a37,37,0,0,0,.31-5.18V99.61c6.88-.85,12.58-3.07,16.92-7.62l1.06-.53.74-.32.1.42-.31,1.27C475.05,98.65,475.79,103.63,478.33,109.34Z" style="fill:#eaad8f"/><path d="M469.55,96.64c-1.79,3-5.71,8.26-12.05,9.63a36.9,36.9,0,0,0,.32-5.18V99.71c.1,0,.21.11.42.11C461.84,100.45,466,99.08,469.55,96.64Z" style="fill:#171612"/><path d="M485.73,82.68c-.21,3.59-3.49,7.93-8.25,7.83h-.1l-.32.63c0,.11-.11.21-.11.32-3.27,6-12.26,9.2-17,9a8.72,8.72,0,0,1-3.17-.63c-5-1.38-5.6-8.26-4.44-13.44a13.14,13.14,0,0,1,.53-2.12v-.1s-1.27-7.41-1.48-10.58c-.42-6.25,3.38-12.28,17-12.81s16.39,8,17,12.59c.11.75-.32,5.19-1.06,5.82A3.69,3.69,0,0,1,485.73,82.68Z" style="fill:#eaad8f"/><path d="M454.33,82.36c.1,1.06.63,1.8,1.16,1.69s.85-1,.74-1.9-.63-1.8-1.16-1.7S454.22,81.41,454.33,82.36Z" style="fill:#171612"/><path d="M457.71,81.3l.11-.11c.1-.1,0-.31-.11-.42s-2.54-1.69-4.65-.1c-.11.1-.11.21-.11.42s.22.1.43.1c1.79-1.37,4,.11,4.12.11Z" style="fill:#171612"/><path d="M463.21,81.62c.11,1.06.63,1.8,1.16,1.69s.85-1,.74-1.9-.63-1.8-1.16-1.7S463.1,80.67,463.21,81.62Z" style="fill:#171612"/><path d="M467,80.88c.1,0,.1,0,.1-.11a.31.31,0,0,0,0-.42c-.1-.11-2.32-2-4.65-.74-.11.1-.21.21-.11.31s.22.22.32.11c2-1.06,4,.64,4,.64A.29.29,0,0,0,467,80.88Z" style="fill:#171612"/><path d="M458.24,92.2h.53c1.58-.21,2.75-1.8,2.85-1.8.22-.21.11-.53-.1-.74a.52.52,0,0,0-.74.11,3.61,3.61,0,0,1-2.12,1.37,1.86,1.86,0,0,1-1.79-.63c-.22-.22-.53-.32-.74-.11a.49.49,0,0,0-.11.74A2.8,2.8,0,0,0,458.24,92.2Z" style="fill:#c6695d"/><path d="M477.17,87.65a.45.45,0,0,0,.42-.42c.84-3.39,5-4.66,5.07-4.66a.51.51,0,0,0,.32-.63.5.5,0,0,0-.63-.32c-.22.1-4.76,1.37-5.71,5.39-.11.22.1.53.31.64Z" style="fill:#c6695d"/><path d="M481.61,86c.1,0,.1,0,.21-.11a.51.51,0,0,0,.21-.63,3.09,3.09,0,0,0-2.86-1.59.53.53,0,0,0,0,1.06,2.41,2.41,0,0,1,2,1C481.18,85.85,481.39,86,481.61,86Z" style="fill:#c6695d"/><g style="opacity:0.5"><g style="opacity:0.5"><g style="opacity:0.5"><g style="opacity:0.5"><g style="opacity:0.5"><g style="opacity:0.5"><g style="opacity:0.5"><g style="opacity:0.5"><g style="opacity:0.5"><g style="opacity:0.5"><path d="M455.07,85.53c0,.53-1.27,1-2.86.85a13.14,13.14,0,0,1,.53-2.12C454.12,84.58,455.07,85,455.07,85.53Z" style="fill:#c6695d;opacity:0.5;isolation:isolate"/></g></g></g></g></g></g></g></g></g></g><g style="opacity:0.5"><g style="opacity:0.5"><g style="opacity:0.5"><g style="opacity:0.5"><g style="opacity:0.5"><g style="opacity:0.5"><g style="opacity:0.5"><g style="opacity:0.5"><g style="opacity:0.5"><g style="opacity:0.5"><path d="M463.42,86.06c0,.64,1.48,1.27,3.38,1.38s3.49-.21,3.49-.85-1.48-1.27-3.38-1.37S463.42,85.43,463.42,86.06Z" style="fill:#c6695d;opacity:0.5;isolation:isolate"/></g></g></g></g></g></g></g></g></g></g><path d="M477.48,90.51h-.1l-.32.63c0,.11-.11.21-.11.32a4,4,0,0,1-1.79-.85,8.35,8.35,0,0,1-1-1.06.47.47,0,0,1,.84-.42,2.76,2.76,0,0,0,1.16,1.06c.32.1.53.21.85.32A.31.31,0,0,1,477.48,90.51Z" style="fill:#c6695d"/><path d="M476.32,90.29a3.65,3.65,0,0,0,1.06.22,2.54,2.54,0,1,0,5.07.42,2.53,2.53,0,0,0-1.9-2.65c-.32-.42-.32-.74.1-1a3.58,3.58,0,0,1,3,3.81,3.55,3.55,0,1,1-7.08-.53C476.32,90.4,476.32,90.29,476.32,90.29Z" style="fill:#fff"/><path d="M459.4,94.42a1.85,1.85,0,0,0,1.17-.63.3.3,0,1,0-.43-.43,1.35,1.35,0,0,1-1.48.32c-.21-.1-.31,0-.42.21s0,.32.21.43A1,1,0,0,0,459.4,94.42Z" style="fill:#c6695d"/><path d="M481.92,65.53c-2.75-3.17-6.66-5.82-11.52-5.71-6.87,0-13.22,2.12-16.92,5.61a9.43,9.43,0,0,0-3.17,6c-.74,7.09.85,5.71.85,5.71s0-.21.21-1.69c.21-1,.42-2.33.95-4.44,1.16-5.08,17.44-4.77,16.18-1.59a4.6,4.6,0,0,0-.11,1.06,6.5,6.5,0,0,0,.53,2.54c.1,0,.21.1.32.1a16.25,16.25,0,0,1,4,1.59c.11.11,2.54,2,2,4.55s-1.69,6,.21,5.5A4.49,4.49,0,0,0,478,82.15a9,9,0,0,1,4-2.75C483.19,74.85,483.61,70.08,481.92,65.53Z" style="fill:#e59f3f"/><path d="M482.77,68.6C478,66.7,470,69.87,468.6,70.51a6.5,6.5,0,0,0,.53,2.54c.11,0,.21.1.32.1a16.5,16.5,0,0,1,4,1.59c.1.11,2.53,2,2,4.55s-3.8,16.72-1.16,19C479.6,103.1,479,82.15,479,82.15c1.06-1.17,1.59-2.33,3.39-2.75C484.35,75.8,483.83,72.2,482.77,68.6Z" style="fill:#e59f3f"/><path d="M481.71,68.29s2.75,4.33.64,11.21a9.1,9.1,0,0,1,3.48,0c1.06.42,2.44-3.6,1.59-7.41s-6-8.67-6-8.67S480.76,67,481.71,68.29Z" style="fill:#e59f3f"/><path d="M458.13,87.44c-.1,0-.1,0-.21-.11l-1.79-1.16c-.11-.11-.22-.21-.22-.32s.11-.32.22-.32a5.73,5.73,0,0,0,3-4,.57.57,0,0,1,.52-.32.58.58,0,0,1,.32.53A7.31,7.31,0,0,1,457.08,86l1.27.84a.37.37,0,0,1,.1.53C458.35,87.33,458.24,87.44,458.13,87.44Z" style="fill:#c6695d"/><path d="M463.1,77.07a1,1,0,0,1-1.37-1.38,3,3,0,0,1,1.69-1.06,6.94,6.94,0,0,1,6.24,1.49s-3.81-.22-5.6.52A1.37,1.37,0,0,0,463.1,77.07Z" style="fill:#171612"/><path d="M457.08,77.49a1,1,0,0,0,1.16-1.59,2.85,2.85,0,0,0-1.8-.84c-3.7-.43-4.86,2-4.86,2a12.2,12.2,0,0,1,4.44.1C456.44,77.28,456.76,77.39,457.08,77.49Z" style="fill:#171612"/><g style="opacity:0.6000000238418579"><path d="M453.59,86.91c2.63,0,4.76-1.52,4.76-3.39s-2.13-3.38-4.76-3.38-4.76,1.51-4.76,3.38S451,86.91,453.59,86.91Z" style="fill:#fff;opacity:0.6000000238418579;isolation:isolate"/></g><g style="opacity:0.6000000238418579"><path d="M459.72,83.31c0,2,2.33,3.7,5.18,3.7s5.18-1.69,5.18-3.7-2.32-3.7-5.18-3.7S459.72,81.19,459.72,83.31Z" style="fill:#fff;opacity:0.6000000238418579;isolation:isolate"/></g><path d="M457.92,83.52c.11,0,.11,0,.21-.1a1.18,1.18,0,0,1,1.8,0,.33.33,0,0,0,.42,0,.32.32,0,0,0,0-.43,1.81,1.81,0,0,0-2.64,0,.35.35,0,0,0,0,.43C457.71,83.52,457.82,83.52,457.92,83.52Z" style="fill:#fff"/><path d="M469.55,82.78h.11a16.52,16.52,0,0,1,7.08-2,.28.28,0,0,0,.32-.32.28.28,0,0,0-.32-.31,15.53,15.53,0,0,0-7.4,2c-.1.1-.21.31-.1.42S469.45,82.78,469.55,82.78Z" style="fill:#fff"/><path d="M448.72,83.73c.11,0,.22,0,.22-.1.63-.74,2.53-1.06,3.27-1.17a.33.33,0,0,0,.32-.31.34.34,0,0,0-.32-.32c-.1,0-2.75.32-3.7,1.38a.33.33,0,0,0,0,.42A.34.34,0,0,0,448.72,83.73Z" style="fill:#fff"/><path d="M418.49,291.24c1.37.42,2.75.84,4.23,1.27.21.1.42.1.74.21a116.84,116.84,0,0,0,28.44,4.13h.74a93.6,93.6,0,0,0,13.32-.64c.32,0,.53-.1.84-.1a112.92,112.92,0,0,0,14.49-2.54c.21-.11.53-.11.74-.22,2.54-.63,5-1.37,7.51-2.11,0,0,9.83-45.71,2.85-68.78-4.33-14.5-13.32-30.9-13.32-30.9-17,5.61-28.86,5.71-36.58,4.44-.32,0-.53-.1-.85-.1-7.51-1.48-10.68-4.23-10.68-4.23a113,113,0,0,0-5.71,18.83c-.1.21-.1.53-.21.74-1.05,4.55-1.9,9.21-2.64,14,0,.32-.11.53-.11.85-.63,4.55-1.27,9.1-1.69,13.65a1.39,1.39,0,0,1-.1.63c-.22,2.12-.43,4.23-.53,6.35a2.81,2.81,0,0,1-.11.95c-.21,2.22-.32,4.34-.42,6.46v.84c-.21,4.13-.42,8.05-.53,11.64v1.17C418.17,281.61,418.49,291.24,418.49,291.24Z" style="fill:#c04d3a"/><path d="M424.83,211.14c4.34-1.38,9.09-1.91,12.79-4.24,2.54-1.58,4.76-4.12,5.08-7.19a8.19,8.19,0,0,0-.42-3.6c-.32,0-.53-.11-.85-.11a7.58,7.58,0,0,1-.21,6.25c-3.07,5.92-10.36,6.66-16.28,8.36A1.81,1.81,0,0,1,424.83,211.14Z" style="fill:#7e231a"/><path d="M422.19,225.84c.63-.21,1.16-.53,1.8-.74,9.62-4.55,16.59-13.12,24.95-19.57s19.77-11.54,29.92-6.35c.42.21.84-.42.42-.64a22.78,22.78,0,0,0-16.07-1.37c-10.26,2.64-17.87,10.47-25.59,17.35-4.12,3.6-8.35,7.2-13.32,9.74a15.74,15.74,0,0,1-1.9.84A1,1,0,0,0,422.19,225.84Z" style="fill:#7e231a"/><path d="M420.39,239.6c8.46.21,16.49-5.29,22.41-11,7.41-7.2,13.85-16,23.69-20.22,5-2.11,10.68-2.85,15.86-1.16v.11c.1.21.21.53.31.74-10.89-4-21.46,3-29,10.26s-13.95,16-23.78,20a23.44,23.44,0,0,1-9.73,1.9A.77.77,0,0,0,420.39,239.6Z" style="fill:#7e231a"/><path d="M419.76,247.54a21.34,21.34,0,0,1,14.69-4.34c3.07.21,6.66,1.27,8.35,4,1.91,3.07-.31,6.56.22,10,.42,2.75,2.74,4.65,5.07,6.13,2.86,1.8,5.92,3.28,8.67,5.4a22.36,22.36,0,0,1,6.66,8,16.31,16.31,0,0,1,1.38,5.5,35.54,35.54,0,0,1-.43,5.72,12.77,12.77,0,0,0,1.8,8.15c.32,0,.53-.11.85-.11a5.9,5.9,0,0,1-1-1.8c-1.9-4.23,0-8.78-.52-13.23-.85-7-6.35-12.06-12.06-15.55-2.75-1.69-6-3-8.14-5.5a6.22,6.22,0,0,1-1.37-4.87,31.08,31.08,0,0,0,.63-5.5c-.53-6.25-8.77-7.52-13.74-7.09a23.08,23.08,0,0,0-10.68,4A1.26,1.26,0,0,0,419.76,247.54Z" style="fill:#7e231a"/><path d="M420.28,270.39A29.71,29.71,0,0,1,423,291.66c-.1.21-.1.53-.21.74a4.93,4.93,0,0,0,.74.21,29.9,29.9,0,0,0,.74-13.33,31.34,31.34,0,0,0-5.5-12.8v1.16C419.23,268.59,419.76,269.44,420.28,270.39Z" style="fill:#7e231a"/><path d="M419.23,254.84c4-.53,8.35.1,10.15,4.23.95,2,.84,4.34,1.48,6.45a10.52,10.52,0,0,0,3.17,4.87c3.28,2.86,7.51,4,11.1,6.25A15,15,0,0,1,452,287.75a31.86,31.86,0,0,1-.1,9h.74a30.24,30.24,0,0,0-.11-10.69,15.64,15.64,0,0,0-7.29-10.37c-4.13-2.43-9.41-3.59-12.37-7.72-2.65-3.71-1.17-9-5-12.06-2.54-2-5.61-2.33-8.67-2Z" style="fill:#7e231a"/><path d="M458.24,246.16c.42-3.17,2.33-5.82,3.7-8.57a12.42,12.42,0,0,0,1.48-4.76,16.07,16.07,0,0,0-.95-5.5c-.85-3-1.48-6,.32-8.89s5-4.45,8.14-5.51a33.36,33.36,0,0,1,12.9-1.58c.42,0,.42.74,0,.74a33.13,33.13,0,0,0-11.63,1.16c-3.07.85-6.24,2.22-8.25,4.87-2.43,3.07-1.37,6.56-.42,9.95a14.22,14.22,0,0,1,.74,4.76,13.22,13.22,0,0,1-1.06,4.12c-1.16,2.76-3.07,5.3-3.81,8.26a10.68,10.68,0,0,0,2.54,9.42c4.23,5.18,10.89,7.09,15.86,11.21,5.5,4.55,7.08,11.43,7.29,18.2-.1.53-.31,1.06-.42,1.48-.1,0-.21-.1-.21-.31-.11-7.2-1.59-14.39-7.4-19.16-5.18-4.12-11.95-6.13-16.07-11.64A9.58,9.58,0,0,1,458.24,246.16Z" style="fill:#7e231a"/><path d="M486.15,219.18a19.57,19.57,0,0,0-11.21,14,18.57,18.57,0,0,0,5.4,16.61,18.18,18.18,0,0,0,8.77,4.87.38.38,0,0,1-.21.74,20.13,20.13,0,0,1-13.74-11.85,19.65,19.65,0,0,1,10.78-25C486.36,218.33,486.57,219,486.15,219.18Z" style="fill:#7e231a"/><path d="M484.57,214.63a125.58,125.58,0,0,1,4.75,40.63,121.39,121.39,0,0,1-8.14,38.2c.21-.11.53-.11.74-.21a123.35,123.35,0,0,0-5.49-100.53c-.22-.31-.75,0-.53.32A118.94,118.94,0,0,1,484.57,214.63Z" style="fill:#171612"/><path d="M480.23,194s-.63-7.4-2.85-8.78c0,0-22.21,9.1-44.41-1.27,0,0-3.38,3.07-2.75,9.1C430.22,192.94,446,204.68,480.23,194Z" style="fill:#7e231a"/><path d="M475.9,101.19s5.39,1.27,6.87,9.21c0,0,9.62,2.86,12.16,4.87s5.71,4.23,5.49,7.62c-.63,11-17.12,35.34-18.71,42s8.46,30.48,8.46,30.48c-7.3,6-18.5,8.78-33.52,8.15,0,0,2.54-64,7.3-74.39S473.15,110.93,475.9,101.19Z" style="fill:#6059c9"/><path d="M483.19,111a23.53,23.53,0,0,1-14.38,17.78c-.63.21-.84-.74-.31-1a22.69,22.69,0,0,0,13.63-17A.54.54,0,0,1,483.19,111Z" style="fill:#6059c9"/><path d="M470.4,128.18a172.55,172.55,0,0,0-6.34,55c.21,5.4.74,10.69,1.48,16.08.1.64-1,1-1,.32a176.16,176.16,0,0,1,1.17-55.76c.95-5.29,2.22-10.58,3.7-15.77C469.66,127.22,470.61,127.54,470.4,128.18Z" style="fill:#6059c9"/><path d="M488.37,192.41a41.28,41.28,0,0,1-30.55,7.19c-.64-.1-.43-1.06.31-.95a40.09,40.09,0,0,0,29.71-7.09C488.37,191.14,488.9,192,488.37,192.41Z" style="fill:#6059c9"/><path d="M457.92,102.89s-1.37,11.11-2.32,18.3c-1.06,7.73-9.94,29.74-11,44.23s-4.54,34.82-4.54,34.82-11.85-.85-19.67-8.68c0,0,10.26-22,12.37-30.9s-4.33-20.1-2.75-25,6.56-6.67,7-11.11-1.59-11.32,1.59-13.33,12.15-1.59,13.32-2.44C451.9,108.71,454.54,103.31,457.92,102.89Z" style="fill:#6059c9"/><path d="M438.15,117.81c-.21,3.81-.53,7.83-2.85,11.11-1.27,1.8-2.75,3.28-3.49,5.29a11.54,11.54,0,0,0-.42,6.56c.1.63-.85.95-1,.32A12.55,12.55,0,0,1,433,130.4c1.38-1.91,2.64-3.49,3.28-5.82a29.31,29.31,0,0,0,.85-6.67C437.1,117.17,438.15,117.07,438.15,117.81Z" style="fill:#6059c9"/><path d="M451.9,110.82c-.43,4.55-.21,9.63,2.11,13.76.32.53-.53,1.06-.84.53-2.44-4.23-2.75-9.53-2.33-14.18C451,110.19,452,110.19,451.9,110.82Z" style="fill:#6059c9"/><path d="M453.06,122.57a299.38,299.38,0,0,0-13.22,60.74c-.52,4.65-.95,9.31-1.37,14-.11.64-1.06.64-1.06,0,1.69-18.62,4.13-37,8.78-55.23,1.69-6.67,3.7-13.23,5.81-19.79C452.21,121.62,453.27,121.93,453.06,122.57Z" style="fill:#6059c9"/><path d="M439.84,198.33a41.39,41.39,0,0,1-17.65-8.78c-.53-.42.21-1.16.74-.74a41,41,0,0,0,17.13,8.57A.49.49,0,1,1,439.84,198.33Z" style="fill:#6059c9"/><path d="M516.28,178.65v-1.16a1.41,1.41,0,0,0-.1-.64.78.78,0,0,0-.11-.53l-.1-.53-.11-.53c0-.31-.1-.63-.1-.95-.22-1.16-.43-2.22-.64-3.28s-.42-2.11-.63-3.07c-1-4-2-7.93-3.07-11.74s-2.22-7.73-3.28-11.54c-.53-1.9-1.16-3.81-1.69-5.71s-1.16-3.81-1.8-5.71-1.16-3.81-1.79-5.72-1.27-3.81-1.91-5.71A9.59,9.59,0,0,0,482.77,128l3.7,11.12,3.7,11.11c1.27,3.7,2.43,7.4,3.59,11.11s2.33,7.4,3.39,11c.21.85.53,1.8.74,2.65l.63,2.54.11.53v.42l.1.32V180a17.64,17.64,0,0,1-1.05,4c-.53,1.48-1.17,3-1.91,4.55a50.66,50.66,0,0,1-2.53,4.65c-1,1.59-1.91,3.18-2.86,4.66s-2,3.07-3.17,4.65a14.4,14.4,0,0,0-.95,1.38,117.49,117.49,0,0,0,5.07,13.23,8,8,0,0,0,2-1.27l1.16-1.17c.43-.31.74-.74,1.17-1l2.22-2.23c1.48-1.48,2.85-3.07,4.23-4.65a62.72,62.72,0,0,0,4-5c1.27-1.69,2.54-3.49,3.7-5.39a64.38,64.38,0,0,0,3.39-6,35,35,0,0,0,2.54-7.31,28.88,28.88,0,0,0,.63-4.55v-.1Z" style="fill:#6059c9"/><path d="M499.37,180a11.57,11.57,0,0,1,6.55-.64c.53.11.74-.63.21-.74a13.15,13.15,0,0,0-7,.64C498.73,179.5,498.94,180.24,499.37,180Z" style="fill:#6059c9"/><path d="M504.13,176.32a18.12,18.12,0,0,0-3.28,2.33c-.43.32.21.95.53.53a16.66,16.66,0,0,1,3.17-2.22C505,176.75,504.55,176,504.13,176.32Z" style="fill:#6059c9"/><path d="M484.14,201.51s4-.74,5.08,2.11-2.86,8.79-4.34,10.8-1.79-3.92-.63-6.25a6,6,0,0,0,.74-3.91Z" style="fill:#eaad8f"/><path d="M487.84,210.71s4.34-1,5.4,1.91-2.86,8.78-4.34,10.79-1.8-3.91-.63-6.24.53-3.6.53-3.6Z" style="fill:#eaad8f"/><path d="M490.59,214.84s3.81-.85,4.76,1.69-2.54,7.83-3.91,9.53-1.59-3.5-.53-5.51.42-3.17.42-3.17Z" style="fill:#eaad8f"/><path d="M485.52,206.27s4.33-1,5.39,1.9-2.85,8.79-4.34,10.8-1.79-3.92-.63-6.25.53-3.59.53-3.59Z" style="fill:#eaad8f"/><path d="M482.87,130.61q2.86,8.89,5.71,17.78c.11.53,1,.31.74-.21q-2.85-8.9-5.71-17.78C483.51,130,482.77,130.19,482.87,130.61Z" style="fill:#6059c9"/><path d="M482.87,136a35.37,35.37,0,0,1,2.65,3.07c.31.42.84-.22.53-.53a37.18,37.18,0,0,0-2.65-3.07C483.09,135.05,482.56,135.69,482.87,136Z" style="fill:#6059c9"/><path d="M253.87,61.62H157.34a9.54,9.54,0,0,1-9.51-9.52V43.31a9.48,9.48,0,0,1,9.51-9.52h96.53a9.55,9.55,0,0,1,9.52,9.52V52.1A9.62,9.62,0,0,1,253.87,61.62Z" style="fill:#fff"/><path d="M162.84,55.9a9.1,9.1,0,1,0-9.09-9.1A9.09,9.09,0,0,0,162.84,55.9Z" style="fill:#539380"/><path d="M161.15,51.57,158,48.39l1.27-1.27,1.9,1.8,5.29-5.29,1.26,1.27Z" style="fill:#fff"/><path d="M256.3,42H178a1.16,1.16,0,1,1,0-2.32H256.3a1.17,1.17,0,0,1,1.17,1.16A1.06,1.06,0,0,1,256.3,42Z" style="fill:#f0e8e0"/><path d="M256.3,55.8H178a1.17,1.17,0,0,1,0-2.33H256.3a1.18,1.18,0,0,1,1.17,1.16A1.07,1.07,0,0,1,256.3,55.8Z" style="fill:#f0e8e0"/><path d="M256.3,48.92H178a1.17,1.17,0,0,1,0-2.33H256.3a1.18,1.18,0,0,1,1.17,1.17A1.06,1.06,0,0,1,256.3,48.92Z" style="fill:#f0e8e0"/><path d="M156.71,58.87,162.84,72,169,58.87Z" style="fill:#fff"/><path d="M244.25,221H223a5.92,5.92,0,0,1-5.92-5.93V193.78a5.91,5.91,0,0,1,5.92-5.92h21.25a5.91,5.91,0,0,1,5.92,5.92v21.27A5.92,5.92,0,0,1,244.25,221Z" style="fill:#539380"/><path d="M243.19,205.42l-2.11-.84a3.21,3.21,0,0,0,0-1.38l2.11-.85a.65.65,0,0,0,.32-.84l-1.16-2.75c-.11-.11-.21-.32-.32-.32a.31.31,0,0,0-.42,0l-2,.84a8.52,8.52,0,0,0-1.38-1.37l.85-2.12a.31.31,0,0,0,0-.42c-.11-.11-.21-.32-.32-.32L236,193.89a.55.55,0,0,0-.74.32l-.95,2.22h-1.05l-.85-2.12c-.11-.1-.21-.32-.32-.32a.33.33,0,0,0-.42,0l-2.75,1.17a.66.66,0,0,0-.32.84l.85,2a9,9,0,0,0-1.38,1.38l-1.9-.95a.31.31,0,0,0-.42,0c-.11.1-.32.21-.32.32l-1.16,2.75a.31.31,0,0,0,0,.42c.1.11.21.32.32.32l1.9.74a8.5,8.5,0,0,0,.1,1.59l-2,.84c-.11.11-.32.21-.32.32a.31.31,0,0,0,0,.42l1.16,2.75a.67.67,0,0,0,.85.32l2.11-.85a7.07,7.07,0,0,0,1.38,1.17l-.85,2.11a.32.32,0,0,0,0,.43c.11.1.21.32.32.32l2.75,1.16h.21a.55.55,0,0,0,.53-.42l1-2.44a4.55,4.55,0,0,0,1.16-.1l.85,2c.1.1.21.31.31.31a.32.32,0,0,0,.43,0l2.75-1.16a.67.67,0,0,0,.31-.85l-.84-2.11.74-.74,2.22,1a.31.31,0,0,0,.42,0c.11-.11.32-.21.32-.32l1.16-2.75C243.72,205.84,243.51,205.53,243.19,205.42Zm-6.23-.53a3,3,0,0,1-1.8,1.8,2.7,2.7,0,0,1-1.27.21,3.33,3.33,0,0,1-3.07-2,3.32,3.32,0,1,1,6.14-2.54A3.58,3.58,0,0,1,237,204.89Z" style="fill:#fff"/><path d="M234.31,219.6l5.39,11.53,5.4-11.53Z" style="fill:#539380"/><path d="M287.49,221H266.24a5.92,5.92,0,0,1-5.92-5.93V193.78a5.91,5.91,0,0,1,5.92-5.92h21.25a5.91,5.91,0,0,1,5.92,5.92v21.27A5.78,5.78,0,0,1,287.49,221Z" style="fill:#c04d3a"/><path d="M286.86,203.73c0,3.91-2.22,5.92-4.76,5.92a3.26,3.26,0,0,1-3.17-1.79,3.11,3.11,0,0,1-3.07,1.79c-2.22,0-4.33-1.9-4.33-5.07s2-5.08,4.33-5.08a3.4,3.4,0,0,1,2.54.95v-.85h3.91v5.82c0,.85.32,1.17.85,1.17s1.06-.53,1.06-2.86c0-3.71-2.75-6.35-7-6.35a6.67,6.67,0,0,0-7,6.77,6.55,6.55,0,0,0,6.87,6.88,9.49,9.49,0,0,0,4.12-.85l.85,2.54a11.81,11.81,0,0,1-5,1c-6.13,0-10-4.13-10-9.42s3.91-9.42,10.15-9.42C283,194.84,286.86,198.76,286.86,203.73Zm-8.46.74c0-1.27-.63-1.91-1.48-1.91s-1.48.64-1.48,1.91.63,1.9,1.48,1.9S278.4,205.74,278.4,204.47Z" style="fill:#fff"/><path d="M277.66,219.6l5.39,11.53,5.39-11.53Z" style="fill:#c04d3a"/><path d="M218.24,88v74.17a7.21,7.21,0,0,0,7.19,7.2h58.68a7.2,7.2,0,0,0,7.19-7.2V88Z" style="fill:#fff"/><path d="M242.88,143.2h-7.09v17.25h7.09Z" style="fill:#6059c9"/><path d="M253.34,130.93h-7.08v29.41h7.08Z" style="fill:#6059c9"/><path d="M265,121.93h-7.08v38.41H265Z" style="fill:#6059c9"/><path d="M276.29,111.35H269.2v49h7.09Z" style="fill:#6059c9"/><path d="M263.28,103.84l4.86,1.8-.52-5.82Z" style="fill:#5880eb"/><path d="M233.78,134.84a.59.59,0,0,1-.53-.31c-.1-.32,0-.64.32-.64s21.68-8.25,32-30.37a.45.45,0,0,1,.74-.21.46.46,0,0,1,.21.74c-10.68,22.43-32.46,30.79-32.67,30.9C233.89,134.84,233.89,134.84,233.78,134.84Z" style="fill:#5880eb"/><path d="M291.4,85.22v10H218.24v-10a3.57,3.57,0,0,1,3.6-3.6h66A3.56,3.56,0,0,1,291.4,85.22Z" style="fill:#171612"/><path d="M273.64,87.76a2.33,2.33,0,1,1-2.32-2.33A2.21,2.21,0,0,1,273.64,87.76Z" style="fill:#5a554d"/><path d="M279,90.08a2.33,2.33,0,1,0-2.32-2.32A2.32,2.32,0,0,0,279,90.08Z" style="fill:#5a554d"/><path d="M288.76,87.76a2.33,2.33,0,1,1-2.32-2.33A2.22,2.22,0,0,1,288.76,87.76Z" style="fill:#5a554d"/><path d="M188.74,249.12h-9.09a1.89,1.89,0,0,0-1.9,1.91l.1,24.44a3,3,0,0,0,3,3l31.93-.1a1.85,1.85,0,0,0,1.8-1.8l-.1-22.75a1.53,1.53,0,0,0-1.59-1.48l-18.61.1Z" style="fill:#b56d25"/><path d="M214.54,276.53l-.1-15.77-36.69.11.1,15.77a1.85,1.85,0,0,0,1.8,1.79l33.09-.1A1.85,1.85,0,0,0,214.54,276.53Z" style="fill:#e59f3f"/><path d="M179.86,259.7v1.17l32.46-.11V259.6a3.43,3.43,0,0,0-3.49-3.39l-25.58.11A3.22,3.22,0,0,0,179.86,259.7Z" style="fill:#fff"/><path d="M209.57,258.54v2.22H208.2v-2.22a.73.73,0,0,1,.74-.74A.7.7,0,0,1,209.57,258.54Z" style="fill:#f0e8e0"/><path d="M206.3,258.54v2.22h-1.38v-2.22a.73.73,0,0,1,.74-.74A.71.71,0,0,1,206.3,258.54Z" style="fill:#f0e8e0"/><path d="M203.12,258.54v2.22h-1.37v-2.22a.73.73,0,0,1,.74-.74A.7.7,0,0,1,203.12,258.54Z" style="fill:#f0e8e0"/><path d="M199.85,258.54v2.22h-1.38v-2.22a.73.73,0,0,1,.74-.74C199.63,257.8,199.85,258.12,199.85,258.54Z" style="fill:#f0e8e0"/><path d="M196.67,258.54v2.22H195.3v-2.22a.73.73,0,0,1,.74-.74A.7.7,0,0,1,196.67,258.54Z" style="fill:#f0e8e0"/><path d="M193.5,258.54v2.22h-1.37v-2.22a.72.72,0,0,1,.74-.74A.91.91,0,0,1,193.5,258.54Z" style="fill:#f0e8e0"/><path d="M190.22,258.54v2.22h-1.37v-2.22a.73.73,0,0,1,.74-.74A.9.9,0,0,1,190.22,258.54Z" style="fill:#f0e8e0"/><path d="M187.05,258.54v2.22h-1.37v-2.22a.73.73,0,0,1,.74-.74A.9.9,0,0,1,187.05,258.54Z" style="fill:#f0e8e0"/><path d="M183.78,258.65v2.22H182.4v-2.22a.72.72,0,0,1,.74-.74A.7.7,0,0,1,183.78,258.65Z" style="fill:#f0e8e0"/><path d="M213,260.34a8.26,8.26,0,1,0-8.25-8.25A8.25,8.25,0,0,0,213,260.34Z" style="fill:#6059c9"/><path d="M211.26,256a.75.75,0,0,1-.52-.21l-2-2a.82.82,0,0,1,1.16-1.16l1.48,1.48,5.71-5.72a.82.82,0,1,1,1.16,1.17L212,255.79A1.12,1.12,0,0,1,211.26,256Z" style="fill:#fff"/><path d="M336.55,30.51a27.63,27.63,0,0,0,3.7,13.86c4.23,7.3,8.25,14.6,11.84,22.22l2,4.23h20.41l3-6.24c3.27-6.88,7-13.54,10.78-20.1a27.52,27.52,0,0,0,3.81-14.08A27.87,27.87,0,0,0,364.88,2.57H364A28,28,0,0,0,336.55,30.51Z" style="fill:#e59f3f"/><path d="M336.55,30.51a27.63,27.63,0,0,0,3.7,13.86c4.23,7.3,8.25,14.6,11.84,22.22l2,4.23h18.4c-11.84-1.16-25.17-22.75-23.26-43.27,2-21.06,14.9-24.66,15.86-24.87h-.85A27.83,27.83,0,0,0,336.55,30.51Z" style="fill:#b56d25"/><path d="M354.73,43.21a.57.57,0,0,0,.43-.21l.95-1.8.95,1.8a.57.57,0,0,0,.42.21.59.59,0,0,0,.43-.21l.95-1.8.95,1.8a.55.55,0,0,0,.42.21.59.59,0,0,0,.43-.21l.95-1.8.95,1.8a.53.53,0,0,0,.84,0l1-1.8.95,1.8a.53.53,0,0,0,.84,0l1-1.8,1,1.8a.53.53,0,0,0,.84,0l1-1.8.95,1.8a.59.59,0,0,0,.43.21.57.57,0,0,0,.42-.21l1-1.8.95,1.8a.59.59,0,0,0,.43.21.57.57,0,0,0,.42-.21l1.27-2.54a.39.39,0,0,0-.21-.53.38.38,0,0,0-.53.21l-.95,1.8-1-1.8a.53.53,0,0,0-.84,0l-.95,1.8-1-1.8a.56.56,0,0,0-.43-.21.54.54,0,0,0-.42.21l-.95,1.8-1-1.8a.54.54,0,0,0-.85,0l-.95,1.8-1-1.8a.54.54,0,0,0-.85,0l-1.37,1.69-.95-1.8a.54.54,0,0,0-.85,0l-.95,1.8-.95-1.8a.54.54,0,0,0-.85,0l-.95,1.8-.95-1.8a.54.54,0,0,0-.85,0l-.95,1.8-.95-1.8c-.11-.21-.42-.31-.53-.21s-.32.42-.21.53l1.27,2.54C354.52,43.21,354.63,43.21,354.73,43.21Z" style="fill:#b56d25"/><path d="M369.75,70.93l5.71-29.52-.85-.21L368.8,70.93Z" style="fill:#171612"/><path d="M373.24,41.3a1.9,1.9,0,1,0,1.9-1.9A1.89,1.89,0,0,0,373.24,41.3Z" style="fill:#171612"/><path d="M357.8,70.93,352,41.41l.84-.21,5.82,29.73Z" style="fill:#171612"/><path d="M354.31,41.3a1.9,1.9,0,1,1-1.9-1.9A1.89,1.89,0,0,1,354.31,41.3Z" style="fill:#171612"/><path d="M353,72.31v3a1.4,1.4,0,0,0,1.38,1.37h20a1.39,1.39,0,0,0,1.37-1.37v-3a1.4,1.4,0,0,0-1.37-1.38h-20A1.41,1.41,0,0,0,353,72.31Z" style="fill:#5a554d"/><path d="M353,73.58v1.79a1.4,1.4,0,0,0,1.38,1.38h20a1.39,1.39,0,0,0,1.37-1.38V73.58Z" style="fill:#171612"/><path d="M353,78.13v3a1.37,1.37,0,0,0,1.17,1.37h20.4a1.45,1.45,0,0,0,1.16-1.37v-3a1.4,1.4,0,0,0-1.37-1.38h-20A1.41,1.41,0,0,0,353,78.13Z" style="fill:#5a554d"/><path d="M353,79.4v1.79a1.38,1.38,0,0,0,1.17,1.38h20.4a1.46,1.46,0,0,0,1.16-1.38V79.4Z" style="fill:#171612"/><path d="M353,84v3a1.37,1.37,0,0,0,1.17,1.37h20.4a1.36,1.36,0,0,0,1.16-1.37V84a1.4,1.4,0,0,0-1.37-1.38h-20A1.41,1.41,0,0,0,353,84Z" style="fill:#5a554d"/><path d="M353,85.22V87a1.38,1.38,0,0,0,1.17,1.38h20.4A1.37,1.37,0,0,0,375.77,87V85.22Z" style="fill:#171612"/><path d="M369.85,88.39a5.6,5.6,0,0,1-11.2,0Z" style="fill:#171612"/><path d="M566.65,83.24a22.54,22.54,0,1,0-27.06-16.81A22.53,22.53,0,0,0,566.65,83.24Z" style="fill:#c8baae"/><path d="M561.53,80.88A22.54,22.54,0,1,0,539,58.34,22.53,22.53,0,0,0,561.53,80.88Z" style="fill:#c04d3a"/><path d="M561.54,76.64a18.31,18.31,0,1,0-18.3-18.3A18.37,18.37,0,0,0,561.54,76.64Z" style="fill:#fff"/><path d="M543.35,58.34a6.71,6.71,0,0,0,.11,1.48,18.24,18.24,0,0,1,36.37,0c0-.42.1-1,.1-1.48a18.29,18.29,0,1,0-36.58,0Z" style="fill:#c8baae"/><path d="M560.37,59.19c0,.1.11.21.32.31l14.38,4.34a.4.4,0,0,0,.53-.32.41.41,0,0,0-.32-.53l-14.06-4.23L562,48a.71.71,0,0,0-.43-.53.68.68,0,0,0-.52.42l-.74,11.22S560.27,59.19,560.37,59.19Z" style="fill:#171612"/><path d="M42.84,110.19a11.11,11.11,0,1,1,11.1-11.11A11.11,11.11,0,0,1,42.84,110.19Zm0-20.74A9.52,9.52,0,1,0,52.36,99,9.55,9.55,0,0,0,42.84,89.45Z" style="fill:#cabeb0"/><path d="M39.78,104.26a.9.9,0,0,1-.64-.32l-2-2.53a.76.76,0,0,1,1.17-1l1.48,1.8L48,94a.75.75,0,0,1,1.06,1.06l-8.88,8.88C40.2,104.16,40,104.26,39.78,104.26Z" style="fill:#cabeb0"/><path d="M587.12,186.59a12.7,12.7,0,1,0,12.69,12.69A12.73,12.73,0,0,0,587.12,186.59ZM584.48,188a9.37,9.37,0,0,0-1.59,2A17.32,17.32,0,0,0,581.2,193h-3.91A11.44,11.44,0,0,1,584.48,188Zm-7.83,6.14h4.13a16.59,16.59,0,0,0-.85,4.44h-4.44A12.72,12.72,0,0,1,576.65,194.1Zm-1.16,5.5H580a15.2,15.2,0,0,0,.63,4.45h-4.12A9.85,9.85,0,0,1,575.49,199.6ZM577,205h4a13.55,13.55,0,0,0,2.22,4c.53.63,1.06,1.16,1.58,1.69A11.19,11.19,0,0,1,577,205Zm9.62,5.92a12.2,12.2,0,0,1-4.54-5.92h4.54Zm0-6.87h-5a15.2,15.2,0,0,1-.63-4.45h5.6v4.45Zm0-5.51H581a16.57,16.57,0,0,1,.84-4.44h4.76Zm0-5.5h-4.33a28.69,28.69,0,0,1,1.37-2.54,12.48,12.48,0,0,1,2.54-2.86h.32V193Zm12.16,5.5h-4.33a16.59,16.59,0,0,0-.85-4.44h4A12.72,12.72,0,0,1,598.75,198.54ZM597,193h-3.8a18,18,0,0,0-1.69-3.07c-.53-.74-1.06-1.37-1.59-2A11.9,11.9,0,0,1,597,193Zm-9.3-5.4h.42a15.19,15.19,0,0,1,4,5.4h-4.44v-5.4Zm0,6.46h4.86a13.18,13.18,0,0,1,.85,4.44h-5.71Zm0,5.5h5.71a14.87,14.87,0,0,1-.64,4.45h-5.07Zm0,11.32V205h4.76a14.81,14.81,0,0,1-1.91,3.38A11,11,0,0,1,587.65,210.92Zm2-.21a21.27,21.27,0,0,0,1.48-1.58,13.61,13.61,0,0,0,2.22-4h3.91A11.5,11.5,0,0,1,589.66,210.71Zm4-6.66a15.2,15.2,0,0,0,.63-4.45h4.44a10.58,10.58,0,0,1-1,4.45Z" style="fill:#cabeb0"/><path d="M549.94,117.11a15.33,15.33,0,1,0-21.68,0A15.34,15.34,0,0,0,549.94,117.11Z" style="fill:#539380"/><path d="M536.16,114.31,530.87,109l2.22-2.22,3.07,3.07,9-9,2.22,2.22Z" style="fill:#fff"/><path d="M554,151.26a15.34,15.34,0,1,0-18.43,11.44A15.35,15.35,0,0,0,554,151.26Z" style="fill:#c04d3a"/><path d="M541.87,147.75l5.07,5.08-2.74,2.86-5.08-5.08-5.07,5.08-2.75-2.86,5-5.08-5-5,2.75-2.86,5.07,5.08,5.08-5.08,2.74,2.86Z" style="fill:#fff"/></g></svg>