<svg id="Layer_1" data-name="Layer 1" xmlns="http://www.w3.org/2000/svg" xmlns:xlink="http://www.w3.org/1999/xlink" viewBox="0 0 818 585.76"><defs><clipPath id="clip-path"><rect y="13.77" width="818" height="632" style="fill:none"/></clipPath></defs><g style="clip-path:url(#clip-path)"><path d="M29.77,362.27A64.42,64.42,0,0,1,57.4,331.11c13.9-8.19,32.8-14.6,48.84-11.22a17.46,17.46,0,0,1,2.85.71c3.39-5,2.5-15,3.21-19.94,1.43-11.93,4.46-23.51,13.37-32.23,10-10,23.53-12.65,37.07-14.43s27.1-2.67,40.65.36A55,55,0,0,1,221.92,262c.72-2.31,1.43-4.63,2.14-6.94,4.1-15.32.36-31.16-2.31-46.48-2.86-16.2-4.46-31.7-1.25-47.9a52.17,52.17,0,0,1,7.31-18.52,14.52,14.52,0,0,1,3.74-9.62,46.68,46.68,0,0,1,38.32-15.49,59,59,0,0,1,20.5,5.34,45,45,0,0,1,9.81,6.59c.35.36.71.53,1.07.89,6.59-2.14,15.33-2.49,21.39-2.67,8.73-.36,17.64.71,26.2,2.14,16.58,2.85,32.62,9.43,47.59,17.27,28.88,15.31,56.33,36.68,67.74,68.38,7.66,21.19,8.38,44.88,6.06,68,13-10.86,27.81-19.23,41.71-29.38,18.72-13.72,30.66-35.8,52.05-46,46.35-22.26,100,9.26,119.07,53.78a96.61,96.61,0,0,1,64.17-10c25.49,4.63,50.27,22.44,61.68,45.94,13.9,28.85,8.56,62.15,6.59,93-2,32.41-4.1,64.64-6.06,97-1.07,17.63-2.14,35.26-3.38,52.89-.54,9.44-1.25,18.88-1.79,28.32-.53,10-.35,20.47-3.56,30.09-5.88,17.27-34.4,20.66-38.5,0-3.75-18.7,0-39.35,1.24-58.23,1.07-17.63,2.14-35.26,3.39-52.89q3.48-54.76,6.78-109.34c.89-15.49,3.38-31.7,1.42-47.19a41.52,41.52,0,0,0-16.93-29.21c-21.39-15.67-52.23-11.57-76.12-1.06-4.27,1.78-8.73,2.49-12.83,1.42-7.49,1.25-15.33-1.6-19.79-10.15-8.73-16.38-15-33.3-31.9-43.1-14.09-8.19-30.13-8.36-42.43,2.5-7.49,6.59-13.55,14.78-20.68,21.9A125,125,0,0,1,528,293.36c-16.93,10.15-36.72,16.74-52.22,28.85a16.16,16.16,0,0,1-2.14,1.42,39.14,39.14,0,0,1-5.71,10.15c-3,4.1-6.06,8.37-8.73,12.64-2,3-3.57,6.41-5.35,9.44-4.63,11.22-10.52,21.55-18.54,29.56,4.64,1.61,9.27,3.39,13.73,5,15.33,5.52,30.83,12.29,46.7,16.2,5.35,1.25,9.45,1.79,13.37.89,1.25-.17,5-4.09,6.06-5.52,8.56-11.57,16.76-23.86,31.55-27.78,30.66-8,47.24,19.24,57.58,44.17,2-3.39,4.27-8,7.3-10.87a51.81,51.81,0,0,1,18.36-11,181.19,181.19,0,0,1,15.87-9.79c11.41-6.06,24.42-12.64,37.61-12.29,27.27,1.07,42.6,28.49,41.18,53.25-1.61,24.39-10.88,48.79-17.29,72.3-3,11-5.89,22.08-8.2,33.3-2.5,12.11-2.32,25.11-5.71,36.86-5.35,18-35.29,20.66-39.21,0-3.75-20.12,2.31-42.92,7.13-62.51,4.63-19.05,10.51-37.93,15.5-57,2.14-8,4.82-16.38,5.35-24.58a28.28,28.28,0,0,0,0-5.52c0-.17-1.07-3.56-.35-1.78-.9-2.31-.54-1.78-1.79-2.49a.18.18,0,0,1-.18-.18c-3.56.36-10,3.56-15.5,5.88a13.17,13.17,0,0,1-6.24,5.7c-5.71,2.67-11.41,3.56-17.12,5.7-4.81,1.78-5.16,5-8.19,9.08-4.82,6.23-10.52,8.72-16.76,10.86,5,23.69,2,47.73-23.35,60.55-.71.35-1.43.89-2.32,1.42,0,2.32,0,5.7-.18,7.13-.17,10-.35,20.12-.71,30.09-.36,20.66-.89,41.31-1.25,62-.53,27.43-43.13,27.43-42.6,0,.71-33.48.71-67.13,2.14-100.61.71-16.92,8-29.21,23.17-36.86.54-.36,3.21-1.79,4.28-2.32a5.89,5.89,0,0,0,.54-1.07v-4.81a26.83,26.83,0,0,0-1.25-6.41,191.53,191.53,0,0,0-14.09-38.11c-1.06-1.95-2.49-5-3.56-6.23a8.69,8.69,0,0,0-.89-1.07c-.18.18-.18.36-.36.36-.53.71-1.07,1.42-1.6,2.14-1.61,2.13-3,4.27-4.64,6.41-4.81,6.41-9.62,11.93-16.4,16.38-13,8.73-29.05,8.9-43.85,6.23-16.22-2.85-31.9-10.15-47.23-15.67-17.83-6.41-35.65-13-53.48-19.41-11.41-4.09-17.29-14.07-14.79-26.18.71-3.91,1.6-7.83,2.31-11.93,1.79-9.44,11.59-15.13,20.5-15.67,18.18-1.07,23.71-39.35,26.56-53.42,4.82-24.22,7.85-52,.54-75.86-6.6-21.73-28-35.44-47.06-45.95-19.61-10.86-43-18.7-65.6-14.07-9.62,2-19.43,3.39-28.34-1.78-5.7-3.38-9.09-10.5-12.83-13.35-3.39-2.5-8.38-3.39-13.19-2.32a94.81,94.81,0,0,0-2.14,9.44c-1.07,6.41-.54,13.53.35,20,2.14,16.91,7.67,33.12,9.81,50,2.13,18-2,33.83-7.31,50.57a62.64,62.64,0,0,0-3,11.4c-.54,3.74.18,7.65-.54,11.57a20.36,20.36,0,0,1-1.78,5.88c4.28,28.85-5.35,55.2-11.76,83-3.57,15.5-3,31-2.68,46.84.18,8.9.54,17.63-.53,26.53-1.25,11-5.35,19.06-12.84,27.25-8,8.72-23.17,4.09-26.2-6.95-4.63-17.45-2.67-35.61-3.21-53.6-.53-17.45.36-34.55,4.28-51.46,3.56-15.67,9.8-31.17,11.76-47.37,1.43-10.33.54-20.66-2.49-28.14-3.92-9.62-9.45-14.07-20.86-15.85-7.48-1.07-15.51-.71-23-.35-5,.17-10.52,0-15.33,1.78-8.2,3-8.73,12.64-11.41,20.48-2.32,6.58-5,13-9.09,18.16,17.83,16.38,25.67,45.23,23.35,68-3,29.91-25.31,56.09-20,86.72,2.49,15,7.84,29.2,10.16,44.16,2.67,16,4.63,38.65-8.92,50.76-9.8,8.72-28,6.23-31-8.2-2.32-11.22,1.25-23-.71-34.37-2.14-12.1-6.07-23.86-8.74-36-2.85-12.82-4.63-26-3-39.17,1.78-14.78,7.49-28.14,13.55-41.67,8.2-18.52,15.51-45.41-1.07-62-7.31-7.3-16-2.13-24.78.36-8.56,2.49-18.54,3.74-23.88,11.58-3.75,5.52-10.34,8.19-16.76,5.52C31.91,375.63,27.09,368.51,29.77,362.27ZM576.65,472.5c.18-.71.18-.53,0,0Zm-17.29-58.23c.89-.18.53-.18,0,0Zm-4.28.36h.35C552.05,410,554.72,415,555.08,414.63Z" style="fill:#ead5b9"/><path d="M778.07,571.51A432.93,432.93,0,0,0,761,314.73c-11.23-29-26.38-57.7-50.62-77.47-56-45.59-141.36-30.81-203.93-66.6-24.24-13.89-43.49-34.55-62-55.38-16-18.17-31.9-36.69-50.44-52-60.79-50-148.84-60.9-223.17-35.08S36.36,113.14.71,183.13" style="fill:none;stroke:#5a45b5;stroke-miterlimit:10"/><path d="M673.62,586.12c-.9-14.25,25.13-140.86,26.73-154.93s1.43-29.21-5.52-41.67c-4.81-8.55-12.48-15.14-18-23.15-4.81-6.95-8.2-15-10.87-23-4.1-12.47-6.6-25.65-4.28-38.65,2.32-12.82,10-25.28,22.11-30.63,8.55-3.74,20.5-2.67,25.13,5.52,9.27-9.79,27.27-9.26,35.65,1.25a18.57,18.57,0,0,1,18.72,6.77c7.3-6.06,19.78-3.92,24.42,4.27,2,3.56,2.67,7.84,3.21,11.76,2.85,20.12,5.52,40.42,5.7,60.72.18,10-.54,20.3-5.53,29-1.6,2.67-3.56,5.16-4.63,8.19a30.18,30.18,0,0,0-1.25,8c-1.42,22.44.36,179.33-.89,201.59C757.39,622.45,699.28,599.12,673.62,586.12Z" style="fill:#ce956e"/><path d="M707.13,342a86.73,86.73,0,0,0,13.37-19.59A81.37,81.37,0,0,0,739.21,309c4.1-3.92,7.85-8.55,9.09-14.25,1.25-5.52-.71-12.11-5.7-15-5.35-3-12.12-.89-17.11,2.32-5.17,3.2-9.63,7.65-15.15,10-2.86,1.07-6.06,1.6-8.74,3-3.38,1.78-6.06,5-8.38,8l-25.13,31" style="fill:none;stroke:#302b28;stroke-linecap:round;stroke-miterlimit:10"/><path d="M787.52,309.92a24.86,24.86,0,0,1-5.71,15.67,19.56,19.56,0,0,1-15,6.94" style="fill:none;stroke:#302b28;stroke-linecap:round;stroke-miterlimit:10"/><path d="M763.28,289.44c4.63,9.61,2.14,21-.36,31.34l-2.67,10.69a18.85,18.85,0,0,1-2.32,6.23c-2.32,3.38-6.6,5-10.7,5.34-5.52.53-11.4.36-16.22-2.49" style="fill:none;stroke:#302b28;stroke-linecap:round;stroke-miterlimit:10"/><path d="M739.75,312.41A37,37,0,0,1,738.5,327a11.9,11.9,0,0,1-3,5.7c-3.39,3.21-10,2.85-14.62,2.32" style="fill:none;stroke:#302b28;stroke-linecap:round;stroke-miterlimit:10"/><path d="M708.2,282.49c-.36,3-.54,5.88-.89,8.91" style="fill:none;stroke:#302b28;stroke-linecap:round;stroke-miterlimit:10"/><path d="M678.25,288.37c-1.07,4.81-2.14,9.79-1.43,14.78a26.47,26.47,0,0,0,2.5,7.48,64.4,64.4,0,0,0-3.39,9.79" style="fill:none;stroke:#302b28;stroke-linecap:round;stroke-miterlimit:10"/><path d="M677.72,310.81a25,25,0,0,1-8.56-6.95c-.36-.53-.71-1.07-.36-1.6" style="fill:none;stroke:#302b28;stroke-linecap:round;stroke-miterlimit:10"/><path d="M717.29,332.89c8.55,4.45,17.29,9.08,24.24,15.85s12.12,16,11.94,25.64" style="fill:none;stroke:#302b28;stroke-linecap:round;stroke-miterlimit:10"/><path d="M746.52,342.68a33.19,33.19,0,0,1,22.28,13.54" style="fill:none;stroke:#302b28;stroke-linecap:round;stroke-miterlimit:10"/><path d="M785.74,401.45a28.73,28.73,0,0,1-27.63.36" style="fill:none;stroke:#302b28;stroke-linecap:round;stroke-miterlimit:10"/><path d="M701.42,396.46c4.82,3.57,11.05,4.46,16.94,4.28s11.94-1.25,17.82-1.25" style="fill:none;stroke:#302b28;stroke-linecap:round;stroke-miterlimit:10"/><path d="M702.67,344.82a49.1,49.1,0,0,1-6.24,11.75c-2,2.68-4.45,5.17-7.66,5.52" style="fill:none;stroke:#302b28;stroke-linecap:round;stroke-miterlimit:10"/><path d="M49.73,585.23c-.18-12.29,4.64-33.84,5.88-46.13.36-3.56,1.07-7.65.72-11.21A848.11,848.11,0,0,0,38.32,408c-3.2-14.25-6.77-28.85-4.27-43.27a20.22,20.22,0,0,1,3.92-10c2.32-2.85,6.24-4.45,9.62-3.38.72.18,1.61.71,2.32.53a3.9,3.9,0,0,0,2.32-1.78,12.4,12.4,0,0,1,12.83-3.38c3.39-7.48,13.73-10.68,20.86-6.41,5.52-6.06,14.61-7.3,22.64-6.06,6.06,1.07,12.47,3.92,15.15,9.62,2,4.27,1.42,9.44.71,14.25-.71,4.45-1.25,9.08-2,13.53-.54,3.21-.89,6.59.36,9.62,1.6,3.56,5.34,5.7,7.3,9.26,3.21,5.87,0,13-3.38,18.7-3.75,6-7.85,11.93-12.12,17.63-4.28,5.34-8.92,10.68-11.05,17.27C92.33,477.85,113,514.71,116.22,550c.71,6.94,4.64,24.75,5,31.87-6.59,3.56-14.79,2.85-22.28,4.1-9.8,1.6-20.5,1.6-30.3,3-2.5.35-8.56-2.14-11.23-2.67C55.26,585.23,49.91,587.9,49.73,585.23Z" style="fill:#60463c"/><path d="M120.5,378.48c-2.5-3-4.81-5.88-7.31-8.91-2-2.31-3.92-4.8-6.59-6.23-3.75-2-8.38-1.6-12.66-1.6s-8.74-.36-12.83.35-8.56,2.68-10.88,6.24-2.14,9.08,1.43,11.75a13,13,0,0,0,5.88,2.14c5.7,1.07,11.59,2,17.29,2.67,1.25,7.66,5.7,14.25,10.16,20.66" style="fill:none;stroke:#302b28;stroke-linecap:round;stroke-miterlimit:10"/><path d="M106.42,344.46a142.07,142.07,0,0,1,1.07,19.42" style="fill:none;stroke:#302b28;stroke-linecap:round;stroke-miterlimit:10"/><path d="M86.45,341.26a76.36,76.36,0,0,0-.89,20.12v-1.07" style="fill:none;stroke:#302b28;stroke-linecap:round;stroke-miterlimit:10"/><path d="M66,348.38a56.67,56.67,0,0,0,3,24.93" style="fill:none;stroke:#302b28;stroke-linecap:round;stroke-miterlimit:10"/><path d="M49.91,353.37a96.61,96.61,0,0,0,3.74,31.87c1.25,4.28,3,8.73,6.78,11.22a10.87,10.87,0,0,0,13.55-2,7.31,7.31,0,0,0,2-5c0-3.21-2.49-4.63-4.27-9.62" style="fill:none;stroke:#302b28;stroke-linecap:round;stroke-miterlimit:10"/><path d="M90.55,384.53c.54,2.14-.89,4.28-2.67,5.34-2,1.07-4.1,1.07-6.24,1.25-1.25,0-4.28-.35-5.71-.18" style="fill:none;stroke:#302b28;stroke-linecap:round;stroke-miterlimit:10"/><path d="M116.4,347.67a26,26,0,0,1-7.31,8.55c-.36.18-1.43,1.42-1.6,1.07" style="fill:none;stroke:#302b28;stroke-linecap:round;stroke-miterlimit:10"/><path d="M59.54,395.75c1.42,2.32,1.78,6.95-.36,8.55-2.14,1.78-5.17,2-7.84,1.6A9.6,9.6,0,0,1,46,404.12a9.48,9.48,0,0,1-2.67-3.74,83.52,83.52,0,0,1-9.63-31.16" style="fill:none;stroke:#302b28;stroke-linecap:round;stroke-miterlimit:10"/><path d="M94.83,385.6c-17.65,7.48-29.95,25.82-30.3,45" style="fill:none;stroke:#302b28;stroke-linecap:round;stroke-miterlimit:10"/><path d="M618.18,642.57c-.18-12.29,4.63-33.84,5.88-46.12.36-3.57,1.07-7.66.71-11.22a848.31,848.31,0,0,0-18-119.85c-3.21-14.25-6.77-28.85-4.28-43.27a20.45,20.45,0,0,1,3.92-10c2.32-2.84,6.24-4.45,9.63-3.38.71.18,1.6.71,2.32.54a3.9,3.9,0,0,0,2.31-1.79,12.41,12.41,0,0,1,12.84-3.38c3.39-7.48,13.72-10.68,20.85-6.41,5.53-6,14.62-7.3,22.64-6,6.06,1.06,12.48,3.91,15.15,9.61,2,4.28,1.43,9.44.72,14.25-.72,4.45-1.25,9.08-2,13.53-.54,3.21-.89,6.59.35,9.62,1.61,3.56,5.35,5.7,7.31,9.26,3.21,5.88,0,13-3.39,18.7-3.74,6.05-7.84,11.93-12.12,17.63-4.28,5.34-8.91,10.68-11,17.27-11.23,33.66,9.45,70.52,12.66,105.78.71,6.94,4.63,24.75,5,31.87-6.6,3.57-14.8,2.85-22.28,4.1-9.81,1.6-20.5,1.6-30.31,3-2.49.35-8.55-2.14-11.23-2.67C623.71,642.57,618.36,645.24,618.18,642.57Z" style="fill:#b5835d"/><path d="M689,435.82c-2.5-3-4.82-5.88-7.31-8.9-2-2.32-3.92-4.81-6.6-6.24-3.74-2-8.38-1.6-12.65-1.6s-8.74-.36-12.84.36-8.56,2.67-10.87,6.23-2.14,9.08,1.42,11.75a13,13,0,0,0,5.89,2.14c5.7,1.07,11.58,2,17.29,2.67,1.25,7.66,5.7,14.25,10.16,20.66" style="fill:none;stroke:#302b28;stroke-linecap:round;stroke-miterlimit:10;stroke-width:0.75px"/><path d="M674.86,402a138.9,138.9,0,0,1,1.07,19.41" style="fill:none;stroke:#302b28;stroke-linecap:round;stroke-miterlimit:10;stroke-width:0.75px"/><path d="M654.9,398.6a75.94,75.94,0,0,0-.89,20.12v-1.06" style="fill:none;stroke:#302b28;stroke-linecap:round;stroke-miterlimit:10;stroke-width:0.75px"/><path d="M634.4,405.72a56.67,56.67,0,0,0,3,24.93" style="fill:none;stroke:#302b28;stroke-linecap:round;stroke-miterlimit:10;stroke-width:0.75px"/><path d="M618.36,410.71a96.43,96.43,0,0,0,3.74,31.88c1.25,4.27,3,8.72,6.77,11.22a10.87,10.87,0,0,0,13.55-2,7.31,7.31,0,0,0,2-5c0-3.21-2.49-4.63-4.28-9.62" style="fill:none;stroke:#302b28;stroke-linecap:round;stroke-miterlimit:10;stroke-width:0.75px"/><path d="M659,441.87c.53,2.14-.89,4.28-2.67,5.35-2,1.06-4.11,1.06-6.24,1.24-1.25,0-4.28-.35-5.71-.18" style="fill:none;stroke:#302b28;stroke-linecap:round;stroke-miterlimit:10;stroke-width:0.75px"/><path d="M684.84,405a25.91,25.91,0,0,1-7.3,8.55c-.36.18-1.43,1.42-1.61,1.07" style="fill:none;stroke:#302b28;stroke-linecap:round;stroke-miterlimit:10;stroke-width:0.75px"/><path d="M628,453.09c1.43,2.32,1.79,7-.35,8.55-2.14,1.78-5.17,2-7.85,1.6a8.29,8.29,0,0,1-8-5.52,83.51,83.51,0,0,1-9.62-31.16" style="fill:none;stroke:#302b28;stroke-linecap:round;stroke-miterlimit:10;stroke-width:0.75px"/><path d="M663.28,442.94C645.63,450.42,633.33,468.76,633,488" style="fill:none;stroke:#302b28;stroke-linecap:round;stroke-miterlimit:10;stroke-width:0.75px"/><path d="M128,580.6c4.64-27.43,17.12-130.89,18.9-158.67.71-11.75,1.07-23.51-1.07-34.9s-7.13-22.8-15.51-30.81c-3.21-3.21-7-5.7-10.51-8.55-5.35-4.1-10.7-8.37-14.27-13.89-3.74-5.52-5.7-12.64-3.74-19,1.07-3.92,3.57-7.48,5.53-11.22s3.74-7.66,3-11.76c-1.07-7.48-1.78-15.49.71-22.61s9.27-13.54,16.76-13c5,.35,10.51,3.56,14.61,6.41,1.43-2.49,4.46-3.38,7.13-4.1,3.93-.89,8-1.6,11.77-.53,3.92,1.07,7.48,4.09,8.2,8,2.14-3.2,6.59-4.45,10.52-3.74s7.13,2.85,10.33,5c4.1-6.23,14.08-5.7,19.79-.89s8,12.46,9.62,19.77c5.17,23.32,4.64,47.72.18,71.23-3.92,20.83-2.67,42.2-1.42,63.39,1.6,27.43,7.13,140.33,8.73,167.75-3.74,2.85-12.48,5.52-17.11,6.41-12.3,2.85-25.85,3.74-38.5,3.74S138.68,587.36,128,580.6Z" style="fill:#d6b094"/><path d="M214.44,276.44c-.89,5.52-1.61,11-2.5,16.56a31,31,0,0,1-1.25,5.88,14.92,14.92,0,0,1-20.32,8.54" style="fill:none;stroke:#302b28;stroke-linecap:round;stroke-miterlimit:10"/><path d="M190,267.36c2.67,4.45,2.67,9.79,2,14.78s-2,10-1.78,15.13c.17,5,1.6,10.69-1.43,14.43s-8.56,3.74-13.19,2.85c-3.39-.71-7.13-2.5-8.38-5.7a12.35,12.35,0,0,1-.53-4.45V293.53c0-8.9.17-17.8,2.85-26.35" style="fill:none;stroke:#302b28;stroke-linecap:round;stroke-miterlimit:10"/><path d="M111.23,292.29c.71-4.45,1.78-9.08,4.63-12.47,2.5-3,6.24-4.63,10-6.23,9.26-3.92,18.53-8,27.8-11.93,1.43-.71,3.21-1.25,4.64-.36a5.28,5.28,0,0,1,1.78,2.85,27.29,27.29,0,0,1-3.21,21.37c-3.92,6.23-10.69,10.86-17.65,13.18a51.25,51.25,0,0,1-2.85,8.9,9.46,9.46,0,0,1-3.21,4.63c-2.13,1.61-4.81,1.61-7.3,1.61" style="fill:none;stroke:#302b28;stroke-linecap:round;stroke-miterlimit:10"/><path d="M167,302.79c-1.25,2.14-4.28,5.52-6.77,6.06a20.17,20.17,0,0,1-7.31,0c-2.32-.36-4.81-.71-6.77-2-2.14-1.25-4.46-6.77-4.64-9.26" style="fill:none;stroke:#302b28;stroke-linecap:round;stroke-miterlimit:10"/><path d="M142.42,262.91c-.35,1.06-.89,3.2-1.24,4.09" style="fill:none;stroke:#302b28;stroke-linecap:round;stroke-miterlimit:10"/><path d="M137.25,303.51c10,3,20,6.94,28.52,12.82S182,330,185.92,339.83" style="fill:none;stroke:#302b28;stroke-linecap:round;stroke-miterlimit:10"/><path d="M130.3,313.48c-1.25,4.1-2.67,8.37-3.92,12.46-.89,2.85-2.14,6.06-5,6.95" style="fill:none;stroke:#302b28;stroke-linecap:round;stroke-miterlimit:10"/><path d="M220.32,357.64a11,11,0,0,0-3,2.67c-3,2.85-7.49,3.92-11.77,4.63-5.16.89-10.33,2-15.5,1.61" style="fill:none;stroke:#302b28;stroke-linecap:round;stroke-miterlimit:10"/><path d="M177.72,355.68a27.94,27.94,0,0,1-13.37,8,92.13,92.13,0,0,1-15.51,2.67" style="fill:none;stroke:#302b28;stroke-linecap:round;stroke-miterlimit:10"/><path d="M154.19,261.3a10.29,10.29,0,0,1,1.42,3.21,38.47,38.47,0,0,1,1.07,6.41h-.17c-4.28,1.42-7,5.16-11.23,6.59a14.16,14.16,0,0,1-5.35.89,7,7,0,0,1-4.82-2.67,7.16,7.16,0,0,1-1.6-5.35" style="fill:none;stroke:#302b28;stroke-linecap:round;stroke-miterlimit:10"/><path d="M454.54,523.08l16.58,91.35h48.66V507.58Z" style="fill:#915d36"/><path d="M467.2,599.65c1.78-11.75-2.14-55.56-2.5-67.49a11.61,11.61,0,0,1,.18-2.49c1.43-3.74,7.13-3.39,10.88-4.63,15.15-4.63,30.3-9.26,45.63-13.89a361,361,0,0,0-12.66-56.63c-3.21-10.69-7.49-21.73-16.4-28.5-5.88-4.45-13.19-6.41-20.5-8.19q-46-12-91.8-24c-38.68-10.15-80,7.3-119.78,11.4-7.31.71-15-.53-21.21-4.63-13.37,3.21-26.92,6.77-40.29,10-3.56.89-7.31,1.78-10.52,3.56-2.13,1.25-4.1,2.85-6.41,3.39-3.21.89-6.78-.18-10.16.71-3.93,1.25-6.24,5-9.27,7.83-3.75,3.57-8.91,5.35-12.84,8.73-6.77,5.7-9.44,15-11.58,23.51C132.8,478,125.67,574,120.5,594c10.16,15.14,26.92,10.87,43.67,18,14.44,6,31.73,3.38,47.24,5.7,71.12,10.5,145.63-.89,217.47,3.38,8,.53,16.22.89,23.7-2C460.43,616,466.13,607.49,467.2,599.65Z" style="fill:#6059c9"/><path d="M427.63,324.7c-.18.35-.18.71-.54.89-.35.35-.89.18-1.42.18-6.95-1.25-13.37-4.63-19.26-8.73-3-2.14-5.88-4.45-7.48-7.83a3.06,3.06,0,0,1-.36-2.5,3,3,0,0,1,2.5-1.78A29.84,29.84,0,0,1,412.3,304,47.55,47.55,0,0,1,430,308.85c3,1.6,1.78,3,.89,6C429.77,318.11,428.7,321.31,427.63,324.7Z" style="fill:#7a4d2b"/><path d="M437.43,309.74a3.1,3.1,0,0,1-1.07,2.14c-.89.89-2.49.53-3.74.17a131,131,0,0,0-31-4.8c-1.42,0-3-.18-3.74-1.43a4.84,4.84,0,0,1-.36-3.2,7.63,7.63,0,0,1,1.07-3.39,5.76,5.76,0,0,1,3-1.78,35.74,35.74,0,0,1,18.9-.35,81.26,81.26,0,0,1,12.65,4.45c1.07.53,4.46,1.42,5.17,2.49C439,305.64,437.79,308.49,437.43,309.74Z" style="fill:#fff"/><path d="M428.34,324.34a4.42,4.42,0,0,0-2-1.6,148.56,148.56,0,0,0-21.21-9.08,1.77,1.77,0,0,0-.89,2,4.61,4.61,0,0,0,1.24,2c5,5.34,11.41,8.9,18.19,11.57,1.42.53,3.38,1.42,4.45.18C428.88,328.79,428.7,325.23,428.34,324.34Z" style="fill:#fff"/><path d="M278.07,153.74c.72.72,1.79-.35,2-1.24,2.14-7.3-3.38-15-10-19.06a40.26,40.26,0,0,0-31.55-5,39.5,39.5,0,0,0-25.13,19.76,55,55,0,0,0-5.53,18.17c-1.07,8-1.07,16.38,1.78,24s8.56,14.42,16.4,17.09" style="fill:#302b28"/><path d="M236.36,401.09c4.46,8,10.52,17.46,11.94,20,7,12.11,17.12,22.26,28.7,30.09a127.13,127.13,0,0,0,51.88,20.3,77.57,77.57,0,0,0,23.17.18c12.83-2.13,23.35-9.44,31.19-19.76a77.52,77.52,0,0,0,12.48-24A82.63,82.63,0,0,0,398.57,413c.18-1.25,1.61-14.25.71-14.43-8-2-11.23-2.67-18.36-5.34-1.78-8.19-1.06-17.1,2.86-24.58a55.49,55.49,0,0,0,29.05.18c3.75-.89,7.84-2.85,8.91-6.41a10,10,0,0,0,.18-4.63,82.9,82.9,0,0,1,1.79-18.7,5.9,5.9,0,0,0,5.7-2,10.06,10.06,0,0,0,1.78-6.05,6.53,6.53,0,0,0-.35-1.78,3.65,3.65,0,0,0-2.5-1.43A54,54,0,0,1,400.53,308c-1.07-1.43-2.14-3.38-1.42-5,.53-1.42,2.31-2.13,3.74-2.67,12.3-3.56,26.38-.89,37.43,5.52,1.43-.71,1.61-2.49,1.79-3.92.35-3.74,1.6-8.37,1.78-12.11,5.88,1.25,12.12-5,10.69-10.86-.71-3-2.85-5.52-4.45-8.19C443,259.17,446.88,244.56,446,231c-1.25-21.9-15.51-41.32-32.45-55.38-12.47-10.33-27.45-18.88-43.67-18.88-30.83-.18-63.45,1.07-85.56,22.44s-32.26,54.49-25.67,84.59c2.14,10.15,6.07,19.76,10.7,29.2,3.39,6.77,7,13.53,9.09,20.84a70.82,70.82,0,0,1,2.5,19.41c0,14.42-3.21,29-10.52,41.49C262.74,387.2,250.27,397.18,236.36,401.09Z" style="fill:#a56f42"/><path d="M276.65,311a7.72,7.72,0,0,0,1.25,1.24c5.52-4.27,5.34-12.64,3.56-19.41s-4.63-13.71-2.85-20.48c2.32-8.72,11.59-13.35,20.14-16,4.81-1.43,9.8-2.5,14.62-2,4.1.53,8.2,2.13,12.47,2.13s8.92-2.84,8.92-6.94c0-2.14-1.07-3.92-2-5.88A42.83,42.83,0,0,1,328.88,226c-.18-5.87.35-12.28,4.09-16.74,3.57-4.27,9.45-6.23,15-6.59,5.7-.35,11.23.54,16.93.9,4.82.17,10.16-.18,13.73-3.39,3-2.85,4.1-7.12,5.52-11.22,2.14-6.05,5.53-12.11,11.05-15.49,5.35-3.56,13.2-1.42,18.36,2.49-10.69-12.82-23.7-21.37-38.14-28.31s-30.48-11.22-46.35-10.33a114.12,114.12,0,0,0-25.66,5c-13.37,4.09-26.39,9.61-37.62,18s-20.32,19.95-24.24,33.3a83.71,83.71,0,0,0-2.85,18.7c-1.25,18.52.18,37.58,6.24,55.21s16.93,33.83,32.44,44.34" style="fill:#302b28"/><path d="M342.42,136.83c-.71-1.79-3-2.32-5-2.68-23.53-3-47.77,3.57-67.73,16.57-19.79,13-35.3,32.23-45.46,53.6-4.46,9.44-8,19.41-8.56,29.91-.89,15.14,4.46,30.28,13.55,42.57,9.09,12.1,21,21.19,34.58,27.95A184.84,184.84,0,0,1,375.58,147.87c.53-.18,1.42-.36,1.78.17s-1.07.89-.71.36c8,0,15.15-7.48,15.33-15.49,0-8-5.53-15.49-12.84-18.7-3.38-1.6-7.84-2.14-10.69.36-6.24-6.41-17.47-6.59-23.89-.36C338,119.91,336.36,130.41,342.42,136.83Z" style="fill:#6059c9"/><path d="M355.43,164.43a30.67,30.67,0,0,0-18.53-13.36c-5-1.24-11.06-.53-13.55,3.74-2,3.39-.89,7.66.36,11.4-3.57,1.25-7.49,0-11.23-.71s-8.2-.36-10.52,2.49c-2.85,3.74-.54,9.26,1.78,13.36-3.56-.36-7.31-.54-10.16,1.24-5.17,3.39-4.1,12.11.71,16.21,4.64,4.09,11.41,5,17.65,5.7" style="fill:#d991c5"/><path d="M336.36,125.25c.36,2,2.32,3.21,4.28,3.56a8.5,8.5,0,0,0,5.53-1.24c2.13-1.07,4.27-3.74,2.85-5.7-.36-.72-1.25-1.43-.72-2.14a6.65,6.65,0,0,0,1.79-.18c2-2.67.71-6.76-2-8.72s-6.42-2-9.63-1.07" style="fill:#d991c5"/><path d="M390.37,120.26c-1.78.18-3.74-.17-5.52,0s-3.75,1.43-4.1,3.21c-.72,3.21,4.28,6.41,2.67,9.26-.89,1.6-3.21,2.31-3.21,3.92a5.6,5.6,0,0,0,.54,1.6,12,12,0,0,0,15,3.74" style="fill:#d991c5"/><path d="M269,139.14a10,10,0,0,1,9.81,5.88,10.23,10.23,0,0,1-2.5,11.22c-2.32,2.13-5.7,3.2-7,6a8.27,8.27,0,0,0-.54,4.63c.18,3.38.18,6.77.36,10.15.18,4.1-.18,9.08-3.74,11.22-3.21,2-7.31.53-10.7-.89a108.47,108.47,0,0,1-10,10.15c-2.32,2-5.52,3.74-7.84,2.14a6.56,6.56,0,0,1-2.14-3.92A44.22,44.22,0,0,1,233.33,183" style="fill:#d991c5"/><path d="M213.55,238.86A33.78,33.78,0,0,1,223,228.18a14.43,14.43,0,0,1,5.71-2.85,6.1,6.1,0,0,1,5.88,2c2.32,2.85.71,7.83,3.21,10.51,3,3.2,8.38.71,12.48,2.13a7.57,7.57,0,0,1,4.45,8.55c-.71,3.38-3.74,6.06-7.13,7a5.77,5.77,0,0,0-2.49.89c-1.25.89-1.61,2.67-1.43,4.27.18,2.14,1.07,4.1,1.61,6.23a6.65,6.65,0,0,1-1.07,6.06,5.85,5.85,0,0,1-5.35,1.42,28.14,28.14,0,0,1-5.53-2,29.58,29.58,0,0,0-20-.53" style="fill:#d991c5"/><path d="M284.85,234.06a13.61,13.61,0,0,0-5.17-15.14c-1.43-1.07-3.21-1.78-4.82-1.25-3,.72-3.74,4.63-3.2,7.66.53,4.27,2.31,8.19,4.1,11.93-3.92-1.42-8.74,1.25-9.81,5.34-1.07,4.46,1.78,8.73,5.17,11.94-4.1-.36-7.31,3.38-9.62,6.76a6.36,6.36,0,0,0-1.43,3.21,5.42,5.42,0,0,0,2.14,3.74,15.67,15.67,0,0,0,10,4.09" style="fill:#d991c5"/><path d="M243,297.63a14.5,14.5,0,0,1,11-8.37,14.92,14.92,0,0,1,13,4.81,9,9,0,0,1,2.5,6.59,8.49,8.49,0,0,1-3.21,5.87,15.14,15.14,0,0,1-13.9,3.21,17.6,17.6,0,0,1-10.88-9.62" style="fill:#d991c5"/><path d="M316.58,137a15.72,15.72,0,0,1-8.2,8.37,8.75,8.75,0,0,1-4.28.89,9.93,9.93,0,0,1-5.17-2.49c-2.85-2.31-5.53-5.34-5.88-9.08-.54-4.28,2.14-8.55,5.88-10.86C308.38,118,320.5,126,316.58,137Z" style="fill:#d991c5"/><path d="M382.35,149.83c-18-12.47-42.07-11.76-61-21.55-2.85-1.43-1.43-5.7,1.6-5.7,11.05,0,22.11,3.92,32.44,7.83,10.88,4.1,18.9,10.51,28.35,17.1C385.2,148.58,383.78,150.89,382.35,149.83Z" style="fill:#c1c1c1"/><path d="M284.67,142.35c-10.7,14.06-24.24,24.75-32.26,41-8,16-15.87,33.84-17.83,51.82-1.6,16.21,2.5,31.88,13.9,43.63,11.23,11.4,26,18,39.4,26.36,9.8,6.05,3.56,23.86-8.2,19.41-36.72-13.89-70.41-40.78-69.34-83.34.53-21.37,8.55-42.56,18.71-61.26a110.09,110.09,0,0,1,18-24.22c8.2-8,18.36-13.89,26.74-21.55C279.32,129.35,289.48,135.94,284.67,142.35Z" style="fill:#c1c1c1"/><path d="M400.71,237.44c2,.71,3.92,1.6,5.88,2.31,3.75,1.43,7.49,2.85,11.23,4.1,2.68.89,5.17,2,7.85,2.85-.36-2.85-3.39-5.34-5.89-7.3a24.65,24.65,0,0,0-4.63-2.85,17.1,17.1,0,0,0-7.31-1.25A16.62,16.62,0,0,0,400.71,237.44Z" style="fill:#fff"/><path d="M406.59,239.22v.53c3.75,1.43,7.49,2.85,11.23,4.1a7.27,7.27,0,0,0,2-4.27,24.65,24.65,0,0,0-4.63-2.85,17.1,17.1,0,0,0-7.31-1.25A5.61,5.61,0,0,0,406.59,239.22Z" style="fill:#302b28"/><path d="M426.38,247.77c-1.43-5.17-6.77-9.8-11.94-11.4S405,235.3,400,237.44" style="fill:none;stroke:#302b28;stroke-linecap:round;stroke-miterlimit:10;stroke-width:0.7400000095367432px"/><path d="M426,243.32a16.23,16.23,0,0,0-8.73-11.58,16.42,16.42,0,0,0-14.44.36" style="fill:none;stroke:#302b28;stroke-linecap:round;stroke-miterlimit:10;stroke-width:0.7400000095367432px"/><path d="M390.37,223.91c13-5.88,29.59-3,39.93,6.76,2.85.36,5.17-2.67,5.88-5.34a8.36,8.36,0,0,0,.18-3c-.53-2.49-3.21-3.91-5.7-4.8-9.45-3.39-20.32-5.17-29.41-1.07A47,47,0,0,0,390.37,223.91Z" style="fill:#302b28"/><path d="M427.81,278.93a7.74,7.74,0,0,1,4.45.54,23.2,23.2,0,0,1,9.45,6c-.36.54-.36,1.07-.89,1.07a6,6,0,0,1-1.61-.53A61.44,61.44,0,0,1,427.81,278.93Z" style="fill:#302b28"/><path d="M419.07,277.51c-10.52,3.2-20.5,10.15-25.13,20.12-3.75,8.19-3.92,17.63-3.21,26.71" style="fill:none;stroke:#302b28;stroke-linecap:round;stroke-miterlimit:10;stroke-width:0.7400000095367432px"/><path d="M426.74,268.07a7,7,0,0,0-3,4.45,7.15,7.15,0,0,0,1.07,5.34" style="fill:none;stroke:#302b28;stroke-linecap:round;stroke-miterlimit:10;stroke-width:0.7400000095367432px"/><path d="M441.71,239.58A59,59,0,0,0,445.63,261" style="fill:none;stroke:#302b28;stroke-linecap:round;stroke-miterlimit:10;stroke-width:0.7400000095367432px"/><path d="M321.39,256.14c-5-14.25-16.4-22.44-23.17-24.4-3.39-1.07-7.31-1.6-10.7-.18a13.3,13.3,0,0,0-7.13,8c-1.25,3.38-1.07,7.3-.53,10.86,1.6,10.15,6.95,19.23,13,27.6,4.63,6.59,10.52,13.36,18.36,14.25a9.58,9.58,0,0,0,6.95-1.43,6.57,6.57,0,0,0,3-6.23" style="fill:#a56f42"/><path d="M321.39,256.14c-5-14.25-16.4-22.44-23.17-24.4-3.39-1.07-7.31-1.6-10.7-.18a13.3,13.3,0,0,0-7.13,8c-1.25,3.38-1.07,7.3-.53,10.86,1.6,10.15,6.95,19.23,13,27.6,4.63,6.59,10.52,13.36,18.36,14.25a9.58,9.58,0,0,0,6.95-1.43,6.57,6.57,0,0,0,3-6.23" style="fill:none;stroke:#302b28;stroke-linecap:round;stroke-miterlimit:10;stroke-width:0.7400000095367432px"/><path d="M304.46,244a20.16,20.16,0,0,0-8.38-6.59c-3.39-1.25-7.49-.71-10,2-2.13,2.31-2.49,5.88-2.49,9.08a11.06,11.06,0,0,0,1.07,5.34" style="fill:none;stroke:#302b28;stroke-linecap:round;stroke-miterlimit:10;stroke-width:0.7400000095367432px"/><path d="M292.16,260.77c.89,4.09,5,7.12,9.26,7.66,2.32.17,5,0,7,1.42,1.07.89,1.78,2.14,2.85,2.85a3.76,3.76,0,0,0,4.45-.36,3.56,3.56,0,0,0,.9-4.27c-.72-1.43-2.14-2.14-3.21-3.38a7.23,7.23,0,0,1-.54-8.91" style="fill:none;stroke:#302b28;stroke-linecap:round;stroke-miterlimit:10;stroke-width:0.7400000095367432px"/><path d="M316.4,241.89a14.93,14.93,0,0,1,8.38,9.26,14.41,14.41,0,0,1-2,12.29c-.9,1.42-2.32,2.85-2.32,4.63,0,2,1.6,3.56,3.38,4.63,3.39,2.14,7.49,3.2,10.52,6.05,2.85,2.85,3.75,8.37.36,10.51-2.32,1.43-5.35.53-7.85,1.78a5.83,5.83,0,0,0-3.2,4.63c-.18,3,2.31,6.23.89,8.91-1.07,1.95-3.57,2.49-5.71,2.31" style="fill:none;stroke:#302b28;stroke-linecap:round;stroke-miterlimit:10;stroke-width:0.7400000095367432px"/><path d="M328.34,207.88a7.24,7.24,0,0,0,.89,10.51c1.07.89,2.5,1.42,3.57,2.31a6.64,6.64,0,0,1,.89,9.08c-.54.71-1.25,1.25-1.43,2-.35,1.78,1.43,3,2.85,3.92,4.82,3.2,7.85,10.33,4.28,15a29.12,29.12,0,0,1-4.28,3.92,5.13,5.13,0,0,0-1.6,5.34c.71,1.6,2.67,2.31,4.28,3.38,2.85,2,4.28,5.7,4.28,9.26s-1.07,7-2,10.33" style="fill:none;stroke:#302b28;stroke-linecap:round;stroke-linejoin:round;stroke-width:0.7400000095367432px"/><path d="M323.88,255.78c-4.45,2.14-5.88,8.91-2.67,12.65,2.32,2.67,6.06,3.56,8.38,6.23a7.78,7.78,0,0,1,.71,8.9c-3,5.17-11.58,6.06-13.19,11.93-1.07,4.28,2.32,8.2,5.35,11.4a4.67,4.67,0,0,1,1.25,2c.53,2.14-2,3.74-4.1,4.45" style="fill:none;stroke:#302b28;stroke-linecap:round;stroke-linejoin:round;stroke-width:0.7400000095367432px"/><path d="M306.06,338.05s27.81,38.83,74.86,55.39c-1.78-8.2-1.06-17.1,2.86-24.58C383.78,368.86,339.57,355.51,306.06,338.05Z" style="fill:#915d36"/><path d="M457.75,301,430.84,314.9s-10.7,14.07-3,34S446.34,371,446.34,371s8,4.27,35.48,3.92Z" style="fill:#6059c9"/><path d="M532.26,375.09l-2.14-6.76,32.62,1.42s-25.13-62.5-20.85-103.82L457.75,301S439,319.36,446.34,346.07s35.48,29,35.48,29h24.06l5.17,17.81,12.48,1.43Z" style="fill:#fff"/><path d="M566.49,381c-26.21,5.17-52.77,6.59-79.33,7.66-13,.53-25.84.89-38.86,1.24-13,.18-31.19,3.92-40.64-7.12-5.52-6.41-5.88-15,0-21.19,9.63-10.51,26-6.94,38.86-6.77,13,.18,25.85.18,38.86.18,25.85-.18,51.69-1.42,77.54.36C576.83,356.22,581.82,377.94,566.49,381Z" style="fill:#efefef"/><path d="M485.56,408.4c0-9.44,1.25-20.66,9.45-25.11,3.74-2,8-2.14,12.12-1.78,5.7.35,12.48,2.67,13.54,8.19,3.93-6.59,8.21-13.72,15.34-16.92a20.92,20.92,0,0,1,20.85,2.49,25.31,25.31,0,0,1,10,18.88,19,19,0,0,1,15,12.29c.71,2,1.07,4.27,2.31,6.05,1.07,1.6,2.68,2.67,3.92,3.92a13.39,13.39,0,0,1,2.68,14.6c5.7,3.74,8,11.58,6.77,18.34-1.07,6.77-5,12.82-9.45,18.17a122,122,0,0,1-20,19.59,10,10,0,0,0-3.56,3.74,11.33,11.33,0,0,0-.72,3.56c-1.25,22.61.89,91,2,113.43l-57-9.26c2.5-24.39-3.39-89.21-4.45-113.79A55,55,0,0,0,503,473.93c-1.07-4.28-3-8-4.81-12.11a73.62,73.62,0,0,1-5.53-24.75c-.18-3.57,0-7.31-1.6-10.51-1.25-2.67-3.21-4.81-4.46-7.3C485.56,416.05,485.56,412.13,485.56,408.4Z" style="fill:#a56f42"/><path d="M581.82,410.71c-12.48-1.07-25.85-1.78-36.19,5.16a44.14,44.14,0,0,0-9.62,9.44,132.55,132.55,0,0,0-11.23,14.78c-2.68,4.1-4.64,10-1.25,13.54a7.68,7.68,0,0,0,7.48,1.6c2.5-.71,7.31-2.32,9.45-3.92" style="fill:none;stroke:#302b28;stroke-linecap:round;stroke-miterlimit:10;stroke-width:0.7400000095367432px"/><path d="M564.35,394c-7.67-1.25-15.87-2.31-23.18.71a30.25,30.25,0,0,0-9.8,7.3,67,67,0,0,0-14.26,21.55,27.62,27.62,0,0,0-2.32,8.55,9,9,0,0,0,1.43,6.05c1.25,1.78,6.77,2.85,8.73,2" style="fill:none;stroke:#302b28;stroke-linecap:round;stroke-miterlimit:10;stroke-width:0.7400000095367432px"/><path d="M520.67,389.7c-2.49,5-5.52,14.42-7.66,19.41-.89,2.13-2.49,4.09-3.56,6.23-1.61,3.38,2.85,8.37,7.66,8.37" style="fill:none;stroke:#302b28;stroke-linecap:round;stroke-miterlimit:10;stroke-width:0.7400000095367432px"/><path d="M516.58,399.67c-4.64,5.34-15.87,8.19-22.64,5.52" style="fill:none;stroke:#302b28;stroke-linecap:round;stroke-miterlimit:10;stroke-width:0.7400000095367432px"/><path d="M550.62,501.89c-4.81.35-9.62.53-14.08-1.25-6.42-2.67-10.34-9.44-16-13.53-3.75-2.68-8.56-4.28-11.05-8" style="fill:none;stroke:#302b28;stroke-linecap:round;stroke-miterlimit:10;stroke-width:0.7400000095367432px"/><path d="M575.93,458.26s8.74,15.13,12,23.15c3,7.83-13.37,19.76-21.75,16.2S544,462.17,544,462.17Z" style="fill:#fff"/><path d="M591.44,432.08a65.53,65.53,0,0,0-50.8,19.05,11.92,11.92,0,0,0-3.39,5,5.24,5.24,0,0,0,1.43,5.52c1.42,1.07,3.39.89,5.17.71,12.83-1.6,25.67-3,38.5-4.63" style="fill:none;stroke:#302b28;stroke-linecap:round;stroke-miterlimit:10;stroke-width:0.7400000095367432px"/><path d="M606.06,367.26c-43.52,0-78.79-27.59-78.79-61.62S562.54,244,606.06,244s78.78,27.58,78.78,61.61S649.57,367.26,606.06,367.26Z" style="fill:#fff"/><path d="M646.34,246c-16.4-10.15-36.18-3.74-48.84,8.9-13.72,13.54-19.07,33.66-16.58,52.53,2.68,20.66,19.08,42.21,36.55,52.89,8.91,5.52,18.53,8.91,28.52,11.94,12.47,3.56,26.2,4.63,37.25,11.57,12.66,7.84,12.48,31.88-4.46,34.55-16.57,2.67-33.69-2.14-49.55-7.13-15.15-4.8-29.77-11.21-42.42-20.83-28-21.19-48.67-55.38-48.84-90.82-.18-31,13.19-65.36,40.28-82.27,26.2-16.39,61.5-13.54,83.78,7.83C673.08,235.48,659.18,253.82,646.34,246Z" style="fill:#efefef"/><path d="M541.89,284.45h60.43a22.34,22.34,0,0,1,19.07,10.33,20.54,20.54,0,0,1,3,10.86c0,15.5-9.45,22.44-13.37,24.4-8,4.1-54.19,22.79-54.19,22.79S535.83,330.22,541.89,284.45Z" style="fill:#e2e2e2"/><path d="M598,306.71c0,8,4.81,14.43,10.69,14.43s10.7-6.41,10.7-14.43-4.82-14.42-10.7-14.42S598,298.7,598,306.71Z" style="fill:#6059c9"/><path d="M593.4,218.56c37.61-5.52,73.8,29,80.93,77.29,6.95,48.08-17.83,91.53-55.44,97s-73.79-29-80.92-77.28C531,267.54,555.79,224.08,593.4,218.56Zm-48.3,96c6.23,43.09,38.68,73.9,72.37,69.09s56-43.81,49.55-86.72c-6.24-43.1-38.68-73.9-72.37-69.1C561.14,232.63,538.86,271.45,545.1,314.55Z" style="fill:#6059c9"/><path d="M528.16,436a9.89,9.89,0,0,1,5.88,3.38,25.11,25.11,0,0,1,3.75,5.88,37.11,37.11,0,0,1-6.24,6.76,15,15,0,0,1-3.21,2,4.55,4.55,0,0,1-3.74-.35" style="fill:none;stroke:#302b28;stroke-linecap:round;stroke-miterlimit:10;stroke-width:0.7400000095367432px"/><path d="M517.82,422.11a14.66,14.66,0,0,1,9.45,9.44,70.6,70.6,0,0,1-5.88,6.94,5.06,5.06,0,0,1-2.32,1.6" style="fill:none;stroke:#302b28;stroke-linecap:round;stroke-miterlimit:10;stroke-width:0.7400000095367432px"/><path d="M514.44,406.26a14.14,14.14,0,0,1,4.81,3.74c.71.89,1.25,2,.71,3-1.78,2.84-3.74,5.69-5.7,8.36a1.21,1.21,0,0,1-1.07.72" style="fill:none;stroke:#302b28;stroke-linecap:round;stroke-miterlimit:10;stroke-width:0.7400000095367432px"/><path d="M545.63,447.75a11.63,11.63,0,0,1,4.64,7.84,18.53,18.53,0,0,1-11.77,5.34" style="fill:none;stroke:#302b28;stroke-linecap:round;stroke-miterlimit:10;stroke-width:0.7400000095367432px"/><path d="M516.75,384a9.06,9.06,0,0,0-2.49,4.63,27.19,27.19,0,0,0-.72,5.34,30.18,30.18,0,0,1-8.91-.71,12.13,12.13,0,0,1-4.1-1.78,6.15,6.15,0,0,1-2.14-5.34,6,6,0,0,1,3.39-4.81" style="fill:none;stroke:#302b28;stroke-linecap:round;stroke-miterlimit:10;stroke-width:0.7400000095367432px"/><path d="M206.59,533.58a858.68,858.68,0,0,0-7.84,95.63" style="fill:none;stroke:#302b28;stroke-linecap:round;stroke-miterlimit:10;stroke-width:0.7400000095367432px"/><path d="M464.88,529c2.14,33.3,4.28,67.5-5,99.37" style="fill:none;stroke:#302b28;stroke-linecap:round;stroke-miterlimit:10;stroke-width:0.7400000095367432px"/><path d="M399.28,429.05c-7.84,23.51-28,42.56-51.87,48.8-23.88,6.41-51-.18-69.34-16.74" style="fill:none;stroke:#302b28;stroke-linecap:round;stroke-miterlimit:10;stroke-width:0.7400000095367432px"/><path d="M290.91,478.2a100.26,100.26,0,0,0,67.56,15.67c4.1-.53,8.55-1.6,11-4.81" style="fill:none;stroke:#302b28;stroke-linecap:round;stroke-miterlimit:10;stroke-width:0.7400000095367432px"/></g></svg>